<svg xmlns="http://www.w3.org/2000/svg" width="32" height="32" fill="none" viewBox="0 0 32 32">
    <path fill="#F6F6FE" d="M17.298 9.88a9.023 9.023 0 0 1 1.046 6.914 7.05 7.05 0 0 0 2.858-.983 7.096 7.096 0 1 0-7.39-12.116 7.034 7.034 0 0 0-2.182 2.09 9.023 9.023 0 0 1 5.668 4.096V9.88Z" />
    <path fill="#F6F6FE" d="M9.88 14.73a9.02 9.02 0 0 1 6.915-1.046 7.056 7.056 0 0 0-.984-2.858 7.096 7.096 0 0 0-12.116 7.39c.55.901 1.27 1.63 2.092 2.183a9.02 9.02 0 0 1 4.094-5.67l-.001.001Z" />
    <path fill="#F6F6FE" d="M18.2 28.305a7.063 7.063 0 0 0 2.182-2.092 9.021 9.021 0 0 1-6.889-7.445 9.02 9.02 0 0 1 .175-3.562 7.056 7.056 0 0 0-2.86.983 7.095 7.095 0 1 0 7.39 12.116h.002Z" />
    <path fill="#F6F6FE" d="M22.12 17.315a9.024 9.024 0 0 1-6.914 1.046 7.049 7.049 0 0 0 .983 2.858 7.096 7.096 0 0 0 12.116-7.39 7.05 7.05 0 0 0-2.09-2.182 9.025 9.025 0 0 1-4.096 5.668h.001Z" />
</svg>
  