<svg xmlns="http://www.w3.org/2000/svg" width="32" height="32" fill="none" viewbox="0 0 32 32">
  <path fill="#1DA8BB" d="M17.298 9.88a9.023 9.023 0 011.046 6.914 7.052 7.052 0 002.858-.983 7.096 7.096 0 10-7.39-12.116c-.902.55-1.63 1.27-2.182 2.091a9.024 9.024 0 015.668 4.095z"/>
  <path fill="#F09116" d="M9.88 14.73a9.021 9.021 0 016.915-1.046 7.057 7.057 0 00-.984-2.858 7.096 7.096 0 00-12.116 7.39c.55.901 1.27 1.63 2.092 2.183a9.021 9.021 0 014.094-5.67z"/>
  <path fill="#9333EA" d="M18.2 28.305a7.06 7.06 0 002.182-2.092 9.02 9.02 0 01-5.669-4.094 9.02 9.02 0 01-1.045-6.913 7.058 7.058 0 00-2.859.983 7.096 7.096 0 107.39 12.116z"/>
  <path fill="#12CEB7" d="M22.12 17.315a9.023 9.023 0 01-6.914 1.046 7.05 7.05 0 00.983 2.858 7.096 7.096 0 0012.116-7.39 7.05 7.05 0 00-2.091-2.182 9.024 9.024 0 01-4.095 5.668z"/>
</svg>
