<svg xmlns="http://www.w3.org/2000/svg" width="156" height="257" fill="none" viewBox="0 0 156 257">
  <g clip-path="url(#clip0_1245_4694)">
    <path fill="#D67205" d="M144.72 70.47H8.39v16.67h136.33V70.47z"/>
    <path fill="#FF8500" d="M77.71 0a77.71 77.71 0 100 155.42A77.71 77.71 0 0077.71 0zm0 142.83A65.129 65.129 0 0131.646 31.646 65.13 65.13 0 01142.83 77.71a65.196 65.196 0 01-19.097 46.023A65.196 65.196 0 0177.71 142.83z"/>
    <path fill="#FFAF57" d="M77.71 4.69a73 73 0 1073 73 73.109 73.109 0 00-73-73zm0 143A69.997 69.997 0 019.055 64.034 70 70 0 01147.71 77.69a70.1 70.1 0 01-70 70.04v-.04z"/>
    <path fill="#FE4950" d="M127.1 256.73l-47.4-25.34-47.4 25.34V0h94.8v256.73z"/>
    <path fill="#B61A2B" d="M39.64 0H32.3v256.73l7.34-3.93V0zM120.18 0v253.03l6.92 3.7V0h-6.92zM107.18 0H52.65v245.85l27.05-14.46 27.48 14.69V0z"/>
    <path fill="#BF0930" d="M32.3 123.94a64.738 64.738 0 0094.8-4.28v-83.9a64.732 64.732 0 00-46.467-22.814A64.74 64.74 0 0032.3 31.48v92.46z" opacity=".68"/>
    <path fill="#ED8A29" d="M77.71 136.54a58.825 58.825 0 01-54.352-36.317A58.829 58.829 0 11136.54 77.71a58.906 58.906 0 01-17.251 41.579A58.906 58.906 0 0177.71 136.54z"/>
    <path fill="#FF952C" d="M77.71 127.1a49.39 49.39 0 1149.39-49.39 49.436 49.436 0 01-14.481 34.909A49.436 49.436 0 0177.71 127.1z"/>
    <g opacity=".31" style="mix-blend-mode:multiply">
      <path fill="#DD722A" d="M77.44 127.1L28.88 70.24a49.534 49.534 0 00-.56 7l42.09 49.28c2.326.366 4.676.56 7.03.58zM123.73 95.65L67.19 29.44c-1.8.394-3.575.888-5.32 1.48l59.57 69.74a49.24 49.24 0 002.29-5.01zM126.9 82.23l-46-53.81c-1.07-.07-2.15-.1-3.23-.1h-.8l49.46 57.91c.27-1.32.45-2.65.57-4zM107.15 117.35l-64-74.92a47.734 47.734 0 00-3.41 3.7l63.21 74a48.893 48.893 0 004.2-2.78zM97.67 122.89L36.22 50.94a48.404 48.404 0 00-4 7.6l57.34 67.14a50.388 50.388 0 008.11-2.79zM117.4 107.09L54.9 33.91a49.847 49.847 0 00-6.84 4.31l64 74.94a49.675 49.675 0 005.34-6.07z" opacity=".31"/>
    </g>
    <path fill="#DD722A" d="M32.3 77.71a49.45 49.45 0 0147.4-49.35 49.39 49.39 0 100 98.7 49.45 49.45 0 01-47.4-49.35z"/>
    <path fill="#FFAF57" d="M35.32 112.43a54.63 54.63 0 01-5.59-61.27 1.008 1.008 0 011.75 1 52.65 52.65 0 005.38 59 1 1 0 01-1.54 1.27zM47.51 123.37a1 1 0 011.1-1.67 52.613 52.613 0 0048.68 4.72 1.004 1.004 0 01.76 1.86 54.657 54.657 0 01-50.54-4.91zM110.51 118.6A52.555 52.555 0 00127.65 62a1 1 0 011.91-.59 54.577 54.577 0 01.146 32.108 54.576 54.576 0 01-17.936 26.632.997.997 0 01-1.367-.176.997.997 0 01.107-1.374zM119.39 46a52.579 52.579 0 00-39.169-20.801A52.569 52.569 0 0039.08 41.76a1.001 1.001 0 01-1.46-1.37A54.579 54.579 0 01121 44.78a1.002 1.002 0 01.196.748 1.008 1.008 0 01-1.511.734 1.003 1.003 0 01-.295-.262z"/>
    <path fill="#DD542F" d="M60.14 105.87l-1.57-.43 1.1-16.13a29.4 29.4 0 0014.48 4.13c4 0 9-1.17 9.1-5.1.11-5.55-8.1-4.08-15.44-4.37V70.34h8.06c12.09 0 8.81-14.17-12.09-6.16l-2.54 1-.9-14.56a61.092 61.092 0 019.75-2.33c33.15-5 35.59 20.89 23.6 28.28a13.929 13.929 0 017.46 12.89c0 17.85-23.86 21.15-41.01 16.41z"/>
    <path fill="#F95E19" d="M88.52 76.66c6.56 1.75 10.63 5.92 10.63 12.78 0 16.42-23 18.79-38.48 14.5l.79-11.46c6 3.09 15.77 4.27 20.79 1a6.001 6.001 0 00.75-9.83c-3.29-2.31-8.38-1.37-13.15-1.59v-9.72h6.06c11.92 0 12.19-12.47-.3-12.47-4.28.042-8.518.869-12.5 2.44l-.64-10.26a56.187 56.187 0 018-1.81c29.53-4.42 30.6 15.27 25.26 21.93a14.27 14.27 0 01-7.21 4.49z"/>
    <path fill="#F78E39" d="M70.56 53c9.31-2 19.88-3 22.66 6.15a10.44 10.44 0 01-6.66 12.61c6.84-3.44 8.19-11.73 3.21-16.38-4.41-4.3-13.39-2.88-19.21-2.38zM90.56 85.52c4.16 9.21-1.72 22.47-26.5 15.5 9.83 1.4 22.09 3 26.21-6a13.44 13.44 0 00.29-9.5z"/>
  </g>
  <defs>
    <clipPath id="clip0_1245_4694">
      <path fill="#fff" d="M0 0h155.42v256.72H0z"/>
    </clipPath>
  </defs>
</svg>
