<svg xmlns="http://www.w3.org/2000/svg" width="188" height="349" fill="none" viewBox="0 0 188 349">
  <g clip-path="url(#clip0_1245_4334)">
    <path fill="#E0973F" d="M92.79 218.06c5.21 0 8 5.76 4.71 9.48l4 .06c2.85-5.93-1.69-12.77-8.66-12.77-6.97 0-11.4 6.65-8.77 12.54h4c-3.19-3.69-.43-9.31 4.72-9.31z"/>
    <path fill="#AB322F" d="M187.65 198.36l-86 16.46L66.17 42.19 78.4 0h51.73c.04.11 57.48 198.25 57.52 198.36z"/>
    <path fill="#7C1E1E" d="M130.13 0H78.4L66.17 42.19l35.47 172.63 20.73-4L130.13 0z"/>
    <path fill="#750C0C" d="M101.64 214.83H86l2.01-9.79h11.62l2.01 9.79z"/>
    <path fill="#E0973F" d="M92.62 223.22a3.318 3.318 0 01-3.32-3.31v-13.57c0-3.2 3.61-3.45 3.32-3.32a3.323 3.323 0 013.31 3.32v13.57a3.311 3.311 0 01-3.31 3.31z"/>
    <path fill="#FA352C" d="M86 214.83L0 198.36 57.51 0h72.63L86 214.83z"/>
    <path fill="#FFEC03" d="M153.92 286.81a61.37 61.37 0 11-122.742.019 61.37 61.37 0 01122.742-.019z"/>
    <path fill="#FFCF03" d="M150.83 286.81a58.275 58.275 0 01-35.97 53.851 58.282 58.282 0 01-79.47-42.467 58.28 58.28 0 11115.44-11.384z"/>
    <path fill="#FFEC03" d="M145.59 286.81a52.998 52.998 0 01-63.34 51.982A53.001 53.001 0 0192.59 233.81a53.004 53.004 0 0137.477 15.523 53.004 53.004 0 0115.523 37.477z"/>
    <g style="mix-blend-mode:screen">
      <path fill="#FFEC03" d="M90 339.79l-48.7-66.65A53.164 53.164 0 0039.52 286l37.77 51.66A52.596 52.596 0 0090 339.79zM141 308.52l-54.45-74.41a53.165 53.165 0 00-9.67 2l59.21 81a52.566 52.566 0 004.91-8.59zM145.58 288l-38.1-52.1a53.002 53.002 0 00-12.67-2.09l48.93 66.93a52.958 52.958 0 001.84-12.74zM124.39 329.24l-62.61-85.63a53.364 53.364 0 00-12.2 12.12l59.57 81.47a52.881 52.881 0 0015.24-7.96zM102.75 338.87L46 261.31a51.022 51.022 0 00-2.46 5.11l53.55 73.24c1.9-.164 3.789-.427 5.66-.79zM131.66 322.64l-61.4-84c-1.507.74-3 1.527-4.48 2.36l62.29 85.18a50.378 50.378 0 003.59-3.54z"/>
    </g>
  </g>
  <defs>
    <clipPath id="clip0_1245_4334">
      <path fill="#fff" d="M0 0h187.65v348.18H0z"/>
    </clipPath>
  </defs>
</svg>
