<svg xmlns="http://www.w3.org/2000/svg" width="242" height="329" fill="none" viewBox="0 0 242 329">
  <g clip-path="url(#clip0_1245_4629)">
    <path fill="#ED1C24" d="M225.62 318.9l-35.82-29.77-24.23 39.77-37.3-223.87 60.05-10.01 37.3 223.88zM8.04 307.69l38.68-25.93 20.02 42.05 60.1-218.86-58.7-16.12-60.1 218.86z"/>
    <path fill="#ED1C24" d="M32.29 219.37a132.357 132.357 0 0055 29.52L126.84 105l-58.7-16.17-35.85 130.54zM188.32 95l-60 10 24 144.24A132.466 132.466 0 00209 219.21L188.32 95z"/>
    <path fill="#FFCF03" d="M205.806 205.809c47.082-47.082 47.082-123.416 0-170.498-47.081-47.081-123.416-47.081-170.497 0-47.082 47.082-47.082 123.416 0 170.498 47.081 47.081 123.416 47.081 170.497 0z"/>
    <path fill="#FFA506" d="M203.79 33.34a120.566 120.566 0 0133.313 84.635 120.565 120.565 0 01-119.128 119.128A120.566 120.566 0 0133.34 203.79a120.564 120.564 0 00132.717 28.442 120.566 120.566 0 0066.175-66.175A120.555 120.555 0 00203.79 33.34z"/>
    <path fill="#FFEC03" d="M194.79 120.56c0 7.7-6.79 14.23-9 21.18-2.34 7.2-.77 16.46-5.13 22.46-4.36 6-13.73 7.4-19.78 11.8-6.05 4.4-10.14 12.84-17.34 15.18-6.95 2.26-15.24-2.1-22.94-2.1-7.7 0-16 4.36-23 2.1-7.2-2.34-11.34-10.81-17.33-15.18-5.99-4.37-15.38-5.75-19.79-11.8-4.41-6.05-2.79-15.26-5.12-22.46-2.26-7-9-13.48-9-21.18 0-7.7 6.79-14.24 9-21.19 2.33-7.2.76-16.46 5.12-22.45 4.36-5.99 13.73-7.4 19.79-11.81 6.06-4.41 10.14-12.84 17.34-15.18 7-2.25 15.25 2.1 23 2.1s16-4.35 22.94-2.1c7.21 2.34 11.34 10.82 17.34 15.18 6 4.36 15.37 5.75 19.78 11.81 4.41 6.06 2.79 15.25 5.13 22.45 2.2 6.95 8.99 13.49 8.99 21.19z"/>
    <path fill="#FFDC01" d="M131.13 185.21c-9.22-2-11.93-2-21.15 0-3.27.72-7.74 1.81-10.71.85-5.25-1.71-9.44-9.77-15.82-14.41-6.38-4.64-15.4-6.23-18.6-10.62-3.2-4.39-1.85-13.34-4.36-20.95A46.421 46.421 0 0056 131c-5.68-9.57-5.68-11.24 0-20.81a46.302 46.302 0 004.49-9.19c2.47-7.61 1.21-16.62 4.36-21C68 75.62 77 74.15 83.45 69.47 89.9 64.79 94 56.77 99.27 55.06c3-1 7.43.12 10.71.84 9.23 2 11.93 2 21.15 0 3.29-.72 7.74-1.81 10.71-.84 5.25 1.7 9.44 9.76 15.83 14.41 6.39 4.65 15.38 6.21 18.59 10.62 3.21 4.41 1.89 13.34 4.36 21a46.312 46.312 0 004.53 9.11c5.67 9.58 5.67 11.25 0 20.81-4.55 7.67-5.39 10.07-6.32 19.46-1.06 10.84-1.82 12-11.93 16.37a47.48 47.48 0 00-9.23 4.86c-6.39 4.64-10.59 12.7-15.83 14.41-.84.21-7.32-.11-10.71-.9z"/>
    <path fill="#FFEC03" d="M178.73 120.56a58.176 58.176 0 01-35.918 53.752 58.178 58.178 0 01-79.325-42.408A58.18 58.18 0 01120.56 62.38a58.168 58.168 0 0158.17 58.18z"/>
    <path fill="#FFAA2E" d="M102.23 201.06c4.84 3.81 6.13 10.12 6.13 10.12s-6.55.16-11.38-3.65c-4.83-3.81-6.13-10.12-6.13-10.12s6.55-.15 11.38 3.65z"/>
    <path fill="#FFAA2E" d="M96.39 211c5.84-2 12 .23 12 .23s-3.33 5.55-9.17 7.58c-5.84 2.03-12-.24-12-.24s3.33-5.57 9.17-7.57zM83.37 196c4.25 4.37 4.63 10.8 4.63 10.8s-6.51-.73-10.77-5.15-4.64-10.86-4.64-10.86 6.52.74 10.78 5.21z"/>
    <path fill="#FFAA2E" d="M76.2 205c6.06-1.27 11.8 1.8 11.8 1.8s-4.08 5-10.14 6.26c-6.06 1.26-11.82-1.85-11.82-1.85s4.09-5.05 10.16-6.21zM68.52 188.6c3.49 5 2.84 11.45 2.84 11.45s-6.3-1.74-9.79-6.77c-3.49-5.03-2.85-11.44-2.85-11.44s6.28 1.74 9.8 6.76z"/>
    <path fill="#FFAA2E" d="M60 196.37c6.18-.26 11.37 3.68 11.37 3.68s-4.83 4.34-11 4.6C54.2 204.91 49 201 49 201s4.81-4.37 11-4.63zM54.65 177.42c2.14 5.71-.07 11.77-.07 11.77s-5.68-3.19-7.83-8.9c-2.15-5.71.06-11.78.06-11.78s5.69 3.2 7.84 8.91z"/>
    <path fill="#FFAA2E" d="M44.46 182.92c6.06 1.22 10.12 6.27 10.12 6.27s-5.76 3.07-11.82 1.84c-6.06-1.23-10.13-6.28-10.13-6.28s5.77-3.06 11.83-1.83zM44.16 164.46c.72 6-2.87 11.43-2.87 11.43s-4.77-4.42-5.49-10.47c-.72-6.05 2.87-11.42 2.87-11.42s4.77 4.41 5.49 10.46z"/>
    <path fill="#FFAA2E" d="M32.94 167.44c5.6 2.6 8.35 8.45 8.35 8.45s-6.34 1.64-11.93-.95-8.36-8.45-8.36-8.45 6.34-1.64 11.94.95zM35.21 148.14c-.51 6.07-5.13 10.64-5.13 10.64s-3.77-5.26-3.26-11.33c.51-6.07 5.18-10.64 5.18-10.64s3.73 5.26 3.21 11.33z"/>
    <path fill="#FFAA2E" d="M23.61 148.87c5 3.64 6.47 9.91 6.47 9.91s-6.54.38-11.5-3.26c-4.96-3.64-6.47-9.91-6.47-9.91s6.54-.38 11.5 3.26zM30.59 132.58c-1.48 5.92-6.77 9.71-6.77 9.71s-2.89-5.78-1.4-11.69c1.49-5.91 6.77-9.71 6.77-9.71s2.89 5.78 1.4 11.69z"/>
    <path fill="#FFAA2E" d="M19 131.5c4.32 4.37 4.8 10.79 4.8 10.79s-6.52-.65-10.83-5c-4.31-4.35-4.8-10.79-4.8-10.79s6.54.64 10.83 5zM30.09 115.25c-2.9 5.38-9 7.8-9 7.8s-1.37-6.3 1.53-11.68c2.9-5.38 9-7.8 9-7.8s1.38 6.3-1.53 11.68z"/>
    <path fill="#FFAA2E" d="M19.13 111.43c3.11 5.27 2 11.62 2 11.62s-6.16-2.19-9.27-7.45c-3.11-5.26-2-11.62-2-11.62s6.14 2.19 9.27 7.45zM33.18 97.75c-4.1 4.56-10.58 5.51-10.58 5.51s.17-6.44 4.28-11 10.57-5.51 10.57-5.51-.17 6.44-4.27 11z"/>
    <path fill="#FFAA2E" d="M23.44 91.51c1.77 5.84-.84 11.75-.84 11.75s-5.47-3.55-7.23-9.39c-1.76-5.84.84-11.75.84-11.75s5.47 3.55 7.23 9.39zM39.51 83.36c-5 3.52-11.57 3-11.57 3s1.66-6.24 6.71-9.76c5.05-3.52 11.58-3 11.58-3s-1.66 6.24-6.72 9.76z"/>
    <path fill="#FFAA2E" d="M31.48 75.1c.36 6.08-3.54 11.26-3.54 11.26s-4.5-4.69-4.87-10.77c-.37-6.08 3.54-11.25 3.54-11.25s4.5 4.66 4.87 10.76zM47.44 70.35C41.88 73 35.52 71.5 35.52 71.5s2.65-5.9 8.2-8.59c5.55-2.69 11.91-1.15 11.91-1.15s-2.63 5.9-8.19 8.59z"/>
    <path fill="#FFAA2E" d="M40.83 60.94C40.21 67 35.52 71.5 35.52 71.5s-3.68-5.33-3.07-11.38c.61-6.05 5.31-10.56 5.31-10.56s3.69 5.32 3.07 11.38zM135.8 200.25c-4.84 3.8-6.13 10.12-6.13 10.12s6.55.15 11.38-3.65c4.83-3.8 6.13-10.13 6.13-10.13s-6.55-.15-11.38 3.66z"/>
    <path fill="#FFAA2E" d="M141.64 210.13c-5.83-2-12 .24-12 .24s3.33 5.55 9.17 7.57c5.84 2.02 12-.24 12-.24s-3.33-5.55-9.17-7.57zM152.27 196c-4.25 4.42-4.64 10.85-4.64 10.85s6.5-.73 10.76-5.15 4.61-10.91 4.61-10.91-6.47.74-10.73 5.21z"/>
    <path fill="#FFAA2E" d="M159.45 205c-6.07-1.22-11.82 1.85-11.82 1.85s4.07 5 10.13 6.26c6.06 1.26 11.82-1.85 11.82-1.85s-4.07-5.1-10.13-6.26zM167.1 188c-3.49 5-2.85 11.44-2.85 11.44s6.31-1.74 9.8-6.77c3.49-5.03 2.84-11.44 2.84-11.44s-6.3 1.77-9.79 6.77z"/>
    <path fill="#FFAA2E" d="M175.63 195.75c-6.19-.25-11.38 3.68-11.38 3.68s4.84 4.35 11 4.6 11.37-3.67 11.37-3.67-4.81-4.36-10.99-4.61zM180.5 177.09c-2.15 5.72.06 11.78.06 11.78s5.69-3.19 7.83-8.9c2.14-5.71-.06-11.78-.06-11.78s-5.69 3.19-7.83 8.9z"/>
    <path fill="#FFAA2E" d="M190.68 182.59c-6.06 1.23-10.12 6.28-10.12 6.28s5.76 3.06 11.82 1.84c6.06-1.22 10.13-6.28 10.13-6.28s-5.76-3.06-11.83-1.84zM191.56 163.27c-.72 6 2.87 11.43 2.87 11.43s4.77-4.42 5.49-10.47c.72-6.05-2.92-11.43-2.92-11.43s-4.72 4.42-5.44 10.47z"/>
    <path fill="#FFAA2E" d="M202.77 166.26c-5.59 2.59-8.34 8.44-8.34 8.44s6.33 1.65 11.93-.95c5.6-2.6 8.34-8.44 8.34-8.44s-6.33-1.65-11.93.95zM199.49 147.84c.52 6.07 5.13 10.64 5.13 10.64s3.78-5.26 3.26-11.33-5.13-10.64-5.13-10.64-3.75 5.26-3.26 11.33z"/>
    <path fill="#FFAA2E" d="M211.09 148.57c-5 3.64-6.47 9.91-6.47 9.91s6.54.37 11.5-3.27 6.47-9.91 6.47-9.91-6.54-.37-11.5 3.27zM204.11 132.25c1.49 5.92 6.78 9.71 6.78 9.71s2.88-5.78 1.4-11.69c-1.48-5.91-6.78-9.71-6.78-9.71s-2.88 5.78-1.4 11.69z"/>
    <path fill="#FFAA2E" d="M215.68 131.17c-4.31 4.37-4.79 10.79-4.79 10.79s6.51-.65 10.83-5 4.79-10.79 4.79-10.79-6.51.64-10.83 5zM204.53 115.5c2.9 5.38 9 7.8 9 7.8s1.37-6.3-1.53-11.68c-2.9-5.38-9-7.81-9-7.81s-1.37 6.31 1.53 11.69z"/>
    <path fill="#FFAA2E" d="M215.49 111.68c-3.11 5.27-2 11.62-2 11.62s6.16-2.19 9.27-7.46c3.11-5.27 2-11.61 2-11.61s-6.17 2.19-9.27 7.45zM201.29 98c4.1 4.56 10.58 5.51 10.58 5.51s-.17-6.45-4.27-11S197 87 197 87s.19 6.43 4.29 11z"/>
    <path fill="#FFAA2E" d="M211 91.75c-1.76 5.83.84 11.75.84 11.75s5.47-3.55 7.23-9.39c1.76-5.84-.84-11.75-.84-11.75s-5.44 3.55-7.23 9.39zM195.14 83.84c5.05 3.52 11.57 3 11.57 3s-1.66-6.24-6.71-9.76c-5.05-3.52-11.57-3-11.57-3s1.66 6.25 6.71 9.76z"/>
    <path fill="#FFAA2E" d="M203.17 75.59c-.36 6.07 3.54 11.25 3.54 11.25s4.5-4.69 4.87-10.76c.37-6.07-3.58-11.26-3.58-11.26s-4.46 4.69-4.83 10.77zM186.75 70.93c5.56 2.69 11.92 1.15 11.92 1.15s-2.65-5.9-8.2-8.59c-5.55-2.69-11.91-1.15-11.91-1.15s2.64 5.9 8.19 8.59z"/>
    <path fill="#FFAA2E" d="M193.36 61.52c.62 6.06 5.31 10.56 5.31 10.56s3.69-5.33 3.07-11.39c-.62-6.06-5.31-10.55-5.31-10.55s-3.69 5.32-3.07 11.38z"/>
    <path fill="#FF9912" d="M182.29 52.35c-.269.279-.56.536-.87.77a2.49 2.49 0 01-.3.19c19.41 16.52 31.63 40.44 31.63 67 0 49.75-42.85 90.21-95.53 90.21S21.7 170.05 21.7 120.3c0-25.38 11.16-48.3 29.09-64.75a10.179 10.179 0 01-1.54-.6C31.31 71.59 20.16 94.74 20.16 120.3c0 50.55 43.54 91.66 97.06 91.66s97.06-41.11 97.06-91.66c0-26.92-12.35-51.17-31.99-67.95z"/>
    <path fill="#FFAA2E" d="M60.29 58.84c-6 1.28-11.84-1.73-11.84-1.73s4-5.09 10.07-6.37c6.07-1.28 11.84 1.73 11.84 1.73s-4.02 5.09-10.07 6.37z"/>
    <path fill="#FFAA2E" d="M56.2 48.14c-2.09 5.73-7.75 9-7.75 9s-2.26-6-.17-11.78c2.09-5.78 7.75-9 7.75-9s2.26 6.05.17 11.78zM174.56 58.84c6.05 1.28 11.84-1.73 11.84-1.73s-4-5.09-10.07-6.37c-6.07-1.28-11.84 1.73-11.84 1.73s4.02 5.09 10.07 6.37z"/>
    <path fill="#FFAA2E" d="M178.65 48.14c2.09 5.73 7.75 9 7.75 9s2.26-6 .17-11.78c-2.09-5.78-7.75-9-7.75-9s-2.26 6.05-.17 11.78z"/>
    <path fill="#FFEC03" d="M97.79 39.3l-8.26-2.38-7.54 4.12-.3-8.59-6.24-5.89 8.07-2.94 3.68-7.77 5.29 6.78 8.52 1.1-4.81 7.12 1.59 8.45zM152.72 40.02l7.1 4.83 1.13-8.51 6.8-5.26-7.75-3.71-2.91-8.09-5.92 6.22-8.59.27 4.09 7.55-2.4 8.25 8.45-1.55zM128.64 38.11l-7.8-3.6-8.08 2.92 1.02-8.54-5.28-6.78 8.43-1.67 4.83-7.11 4.19 7.5 8.25 2.39-5.84 6.3.28 8.59z"/>
  </g>
  <defs>
    <clipPath id="clip0_1245_4629">
      <path fill="#fff" d="M0 0h241.11v328.91H0z"/>
    </clipPath>
  </defs>
</svg>
