<svg xmlns="http://www.w3.org/2000/svg" width="198" height="321" fill="none" viewBox="0 0 198 321">
  <g clip-path="url(#clip0_1245_4435)">
    <path fill="#911919" d="M138.1 0L78.41 150.19h56.22L197.78 0H138.1z"/>
    <path fill="#911919" d="M108.67 74.05l-30.26 76.14h56.22l4.47-10.65-30.43-65.49z" opacity=".61"/>
    <path fill="#FFB600" d="M145.84 171.87v-17.8a13.191 13.191 0 00-13.17-13.18H78.41a13.201 13.201 0 00-13.18 13.18v17.8a79.792 79.792 0 00-8.174 132.236A79.791 79.791 0 10145.84 171.87zm-71.3-4.67v-13.13a3.88 3.88 0 013.87-3.88h54.26a3.882 3.882 0 013.87 3.88v13.13a80.007 80.007 0 00-62 0z"/>
    <path fill="#FFEC03" d="M105.54 305.55a64.824 64.824 0 01-59.886-40.014 64.823 64.823 0 0114.051-70.641A64.82 64.82 0 01170.36 240.73a64.891 64.891 0 01-64.82 64.82z"/>
    <path fill="#FFB10F" d="M134.67 284.14a49.315 49.315 0 01-20.61 7l-.15-1.38a47.89 47.89 0 0021.39-7.67 19.558 19.558 0 00-.63 2.05zM124.4 194.15a8.539 8.539 0 00-.52-1c-2.88-4.78-7.24-5.54-13.75-4.6a19.728 19.728 0 005.17 5.29c.22.1 2.91 2.45 9.1.31z"/>
    <path fill="#FFB10F" d="M123.93 195c-3.5 1.08-6.39 1-8.62-.34a26.89 26.89 0 00-3.47 2.76c5.33 2.58 8.55 1.91 12.09-2.42zM124.65 191.59c-.17-3.48-1.67-5.84-7.24-7.37-.003 1.246.094 2.49.29 3.72a8.999 8.999 0 015.82 3.51c.4.04.6.06 1.13.14zM135.94 202.8a22.69 22.69 0 01-.06-2.71c.48.16.72.24 1.31.46-1.13-4-3.1-5-5.26-6.25a36.505 36.505 0 00-7.59-2.08c2.31 8.58 6.37 10.46 11.6 10.58z"/>
    <path fill="#FFB10F" d="M136.06 204l-.06-.53c-3.67-.08-6.47-1.13-8.34-3.12a34.089 34.089 0 00-4.87 1.88c4.68 4.44 8.37 4.64 13.27 1.77zM138.51 201.08c1.71-4.49.92-7.76-4.68-11.28a26.544 26.544 0 00-1.13 4.2 9.665 9.665 0 015.29 6.9l.52.18zM148.32 213.23a9.778 9.778 0 00-4.15-8.27 29.194 29.194 0 00-7.6-4c.19 6.73 1.51 11.78 8.44 14 .144-1.137.351-2.266.62-3.38a30.308 30.308 0 012.69 1.65z"/>
    <path fill="#FFB10F" d="M144.82 217c0-.48.07-.94.12-1.39-3.35-1-5.56-2.61-6.94-5a39.95 39.95 0 00-5.91 1c3.7 5.72 7.45 6.79 12.73 5.39zM149.56 214.09c3.16-4.54 3.24-8.33-2-13.51a31.106 31.106 0 00-2.42 4.33 10.416 10.416 0 013.85 8.8l.57.38zM156 228.26c1.24-6.2-1.83-8.54-2.46-9.71a31.528 31.528 0 00-7.45-5.9c-1.07 6.15-1.54 11.81 3.9 15.69a33.19 33.19 0 011.9-4.34 37.852 37.852 0 014.11 4.26z"/>
    <path fill="#FFB10F" d="M149 231.77c.2-.88.47-1.8.8-2.79a10.57 10.57 0 01-4.37-5.6 43.963 43.963 0 00-6.73-.15c2.61 6.91 6.3 8.39 10.3 8.54zM157.07 229.58c4.61-4.37 5.65-8.52 1.15-15.25a36.588 36.588 0 00-3.71 4.29c2.41 2.95 3.05 6.15 2.08 10.34.16.2.31.39.48.62zM158.66 244c2.46-5.4 1-8 0-10.69a34.154 34.154 0 00-6.48-8.19c-2.65 5.47-4.6 11.74-.95 16.74a39.353 39.353 0 013.9-4.85 40.83 40.83 0 013.53 6.99z"/>
    <path fill="#FFB10F" d="M148.78 246a27.866 27.866 0 012-3.57 10.308 10.308 0 01-2.27-5.91 48.434 48.434 0 00-7.18-1.69c.67 4.84 1.95 9.27 7.45 11.17zM159.31 245.83c6.12-3.64 8.42-7.82 5.37-16.15a43.784 43.784 0 00-5.21 3.79c1.28 2.66 2.15 6.09-.48 11.39.11.32.22.64.32.97z"/>
    <path fill="#FFB10F" d="M156.88 258.55c3.73-5.1 2.38-8.38 2.39-10a34.317 34.317 0 00-4.3-10.45c-4.6 5.27-8.61 11.34-6.2 17.68a45.609 45.609 0 017.22-4.68c.525 2.451.823 4.945.89 7.45z"/>
    <path fill="#FFB10F" d="M145 259.35a27.725 27.725 0 013.28-3.13 11.004 11.004 0 01-.61-7 49.781 49.781 0 00-7.1-3.68c-.84 5.3-.99 10.35 4.43 13.81zM166.78 246.21a48.45 48.45 0 00-6.74 2.65c.66 3.95-.29 7.2-3.15 10.79 0 .68 0 1.35-.07 2 6.87-2.22 10.57-6.14 9.96-15.44z"/>
    <path fill="#FFB10F" d="M155.76 264.35a35.724 35.724 0 00-.27-12.25c-5.66 3.19-12.25 7.92-13.2 14a55.975 55.975 0 017.08-2.2 43.345 43.345 0 01-2.62 11.45c6.25-3.27 7.53-6.04 9.01-11z"/>
    <path fill="#FFB10F" d="M141.56 266.36a11.541 11.541 0 012-5.27 47.054 47.054 0 00-5.9-6.15c-2.66 4.55-4.55 9.75-1.89 14.29a36.734 36.734 0 015.79-2.87zM164.39 264.31a56.624 56.624 0 00-8 .51c-1 4.57-3.46 8.22-10 11.41-.09.21-.18.41-.28.61 10.02.58 15.21-2.67 18.28-12.53z"/>
    <path fill="#FFB10F" d="M138.41 284.33a16.752 16.752 0 006.62-6.85 36.639 36.639 0 003.54-12.76c-13.66 3.56-21.79 9.5-19.65 22.44a25.143 25.143 0 009.49-2.83z"/>
    <path fill="#FFB10F" d="M128.16 286.58c-.77-6.6 1.06-12.11 5.21-15.59a51.014 51.014 0 00-4.21-8.05c-1.38 1.28-6.87 6.69-6.85 12 .01 4.82 4.15 9.79 5.85 11.64zM154 279.78a60.96 60.96 0 00-8.56-1.59c-3.07 5.56-8.67 8.54-15.55 9.49 10.32 3.63 17.41 2.14 24.11-7.9zM76.41 284.14a49.317 49.317 0 0020.61 7l.15-1.38a48.001 48.001 0 01-21.4-7.67c.255.67.469 1.354.64 2.05zM86.67 194.15c.25-.5.49-.9.52-1 2.88-4.78 7.24-5.54 13.75-4.6a19.726 19.726 0 01-5.17 5.29c-.21.1-2.9 2.45-9.1.31z"/>
    <path fill="#FFB10F" d="M87.15 195c3.5 1.08 6.39 1 8.62-.34a26.904 26.904 0 013.47 2.76c-5.33 2.58-8.55 1.91-12.09-2.42zM86.43 191.59c.17-3.48 1.67-5.84 7.24-7.37a23.33 23.33 0 01-.29 3.72 8.997 8.997 0 00-5.82 3.51c-.4.04-.56.06-1.13.14zM75.14 202.8a22.69 22.69 0 00.06-2.71c-.48.16-.72.24-1.31.46 1.13-4 3.1-5 5.26-6.25a36.505 36.505 0 017.59-2.08c-2.31 8.58-6.37 10.46-11.6 10.58z"/>
    <path fill="#FFB10F" d="M75 204l.06-.53c3.67-.08 6.47-1.13 8.34-3.12a34.093 34.093 0 014.87 1.88c-4.66 4.44-8.35 4.64-13.27 1.77zM72.57 201.08c-1.71-4.49-.92-7.76 4.68-11.28a26.63 26.63 0 011.13 4.2 9.669 9.669 0 00-5.29 6.9l-.52.18zM62.76 213.23a9.784 9.784 0 014.15-8.23 29.207 29.207 0 017.6-4c-.19 6.73-1.51 11.78-8.44 14a30.875 30.875 0 00-.62-3.38 30.241 30.241 0 00-2.69 1.61z"/>
    <path fill="#FFB10F" d="M66.26 217c0-.48-.07-.94-.12-1.39 3.35-1 5.56-2.61 6.94-5 1.992.185 3.968.519 5.91 1-3.7 5.72-7.45 6.79-12.73 5.39zM61.52 214.09c-3.16-4.54-3.24-8.33 2-13.51a31.98 31.98 0 012.43 4.33c-2.7 2.23-3.89 5-3.86 8.8l-.57.38zM55.05 228.26c-1.24-6.2 1.83-8.54 2.46-9.71a31.522 31.522 0 017.45-5.9c1.07 6.15 1.54 11.81-3.9 15.69a33.284 33.284 0 00-1.9-4.34 37.799 37.799 0 00-4.11 4.26z"/>
    <path fill="#FFB10F" d="M62.08 231.77c-.2-.88-.47-1.8-.8-2.79a10.57 10.57 0 004.37-5.6 43.964 43.964 0 016.73-.15c-2.61 6.91-6.38 8.39-10.3 8.54zM54 229.58c-4.61-4.37-5.65-8.52-1.15-15.25a36.588 36.588 0 013.71 4.29c-2.41 2.95-3 6.15-2.09 10.34l-.47.62zM52.42 244c-2.46-5.4-1-8 0-10.69a34.16 34.16 0 016.48-8.19c2.65 5.47 4.6 11.74 1 16.74A39.238 39.238 0 0056 237a40.89 40.89 0 00-3.58 7z"/>
    <path fill="#FFB10F" d="M62.3 246a27.842 27.842 0 00-2-3.57 10.31 10.31 0 002.27-5.91 48.443 48.443 0 017.18-1.69c-.68 4.84-1.95 9.27-7.45 11.17zM51.77 245.83c-6.12-3.64-8.42-7.82-5.37-16.15a43.768 43.768 0 015.21 3.79c-1.28 2.66-2.15 6.09.48 11.39-.09.32-.22.64-.32.97z"/>
    <path fill="#FFB10F" d="M54.2 258.55c-3.73-5.1-2.38-8.38-2.39-10a33.867 33.867 0 014.29-10.45c4.6 5.27 8.61 11.34 6.2 17.68a45.618 45.618 0 00-7.22-4.68 40.71 40.71 0 00-.88 7.45z"/>
    <path fill="#FFB10F" d="M66.13 259.35a28.403 28.403 0 00-3.28-3.13 11 11 0 00.61-7 50.288 50.288 0 017.1-3.68c.79 5.3.94 10.35-4.43 13.81zM44.3 246.21a48.515 48.515 0 016.7 2.65c-.66 3.95.29 7.2 3.15 10.79 0 .68 0 1.35.07 2-6.83-2.22-10.53-6.14-9.92-15.44z"/>
    <path fill="#FFB10F" d="M55.32 264.35a35.731 35.731 0 01.27-12.25c5.66 3.19 12.25 7.92 13.2 14a55.945 55.945 0 00-7.08-2.2 43.74 43.74 0 002.61 11.45c-6.24-3.27-7.52-6.04-9-11z"/>
    <path fill="#FFB10F" d="M69.52 266.36a11.538 11.538 0 00-2-5.27 47.074 47.074 0 015.9-6.15c2.66 4.55 4.55 9.75 1.89 14.29a36.747 36.747 0 00-5.79-2.87zM46.69 264.31a56.622 56.622 0 018 .51c.95 4.57 3.46 8.22 10 11.41.09.21.18.41.28.61-9.97.58-15.21-2.67-18.28-12.53z"/>
    <path fill="#FFB10F" d="M72.67 284.33a16.753 16.753 0 01-6.62-6.85 36.628 36.628 0 01-3.55-12.76c13.67 3.56 21.8 9.5 19.66 22.44a25.147 25.147 0 01-9.49-2.83z"/>
    <path fill="#FFB10F" d="M82.92 286.58c.77-6.6-1.06-12.11-5.21-15.59a51.056 51.056 0 014.21-8.05c1.38 1.28 6.87 6.69 6.85 12-.01 4.82-4.15 9.79-5.85 11.64zM57.09 279.78a60.965 60.965 0 018.56-1.59c3.07 5.56 8.67 8.54 15.55 9.49-10.33 3.63-17.43 2.14-24.11-7.9zM106 285h-1a2.486 2.486 0 00-1.744.726 2.486 2.486 0 00-.726 1.744v7.29c.003.654.264 1.281.726 1.744.463.462 1.09.723 1.744.726h1a2.486 2.486 0 001.744-.726c.462-.463.723-1.09.726-1.744v-7.29a2.486 2.486 0 00-.726-1.744A2.486 2.486 0 00106 285zM101.89 287.28a2.526 2.526 0 01.44-1.42 2.525 2.525 0 00-1.09-.25h-.62a2 2 0 00-2.1 1.67V295a1.998 1.998 0 002.1 1.67h.62c.377-.001.75-.086 1.09-.25a2.526 2.526 0 01-.44-1.42v-7.72zM110.3 285.61h-.61c-.377.001-.75.086-1.09.25.286.419.439.913.44 1.42V295a2.526 2.526 0 01-.44 1.42c.34.164.713.249 1.09.25h.61a2 2 0 002.11-1.67v-7.71a2.002 2.002 0 00-2.11-1.68z"/>
    <path fill="#FA352C" d="M0 0h65.23l71.24 153.3H74.61L0 0z"/>
  </g>
  <defs>
    <clipPath id="clip0_1245_4435">
      <path fill="#fff" d="M0 0h197.78v320.51H0z"/>
    </clipPath>
  </defs>
</svg>
