<svg xmlns="http://www.w3.org/2000/svg" width="250" height="352" fill="none" viewBox="0 0 250 352">
  <g clip-path="url(#clip0_1245_4023)">
    <path fill="#007A96" d="M97.3 331.78l-24.33-39.72-35.75 29.85L74 97.95l60.08 9.87L97.3 331.78z"/>
    <path fill="#007A96" d="M211.88 341.96l-35.82-29.77-24.23 39.77-37.3-223.87 60.05-10.01 37.3 223.88z"/>
    <path fill="#007A96" d="M134.08 107.82L74 98 53.1 225.26c7.5 7.26 15.31 20 29.37 24.56 9.84 3.2 19.68 1.17 28.41-.74l23.2-141.26z" opacity=".57"/>
    <path fill="#007A96" d="M174.58 118.08l-60.05 10 20 120.1c9.68 2 21.06 5.33 32.45 1.63 10.48-3.4 17.39-11.26 23.5-18.19.93-1 1.76-2 2.53-2.85l-18.43-110.69z" opacity=".57"/>
    <path fill="#FFEC03" d="M249.46 119.75c0 12.94-11.4 23.92-15.2 35.59-3.92 12.1-1.28 27.66-8.61 37.73-7.33 10.07-23.07 12.43-33.24 19.84-10.17 7.41-17 21.57-29.12 25.5-11.68 3.79-25.62-3.52-38.56-3.52-12.94 0-26.88 7.31-38.55 3.52-12.1-3.93-19.05-18.17-29.12-25.5-10.07-7.33-25.84-9.67-33.24-19.84-7.4-10.17-4.69-25.63-8.62-37.73C11.41 143.67 0 132.69 0 119.75c0-12.94 11.41-23.92 15.2-35.59 3.93-12.1 1.29-27.66 8.62-37.73C31.15 36.36 46.88 34 57.06 26.59 67.24 19.18 74.08 5 86.18 1.09c11.67-3.79 25.61 3.52 38.55 3.52 12.94 0 26.88-7.31 38.56-3.52 12.1 3.93 19.05 18.17 29.12 25.5 10.07 7.33 25.84 9.66 33.24 19.84 7.4 10.18 4.69 25.63 8.62 37.73 3.79 11.67 15.19 22.65 15.19 35.59z"/>
    <path fill="#FFDC01" d="M142.5 228.38c-15.49-3.4-20-3.4-35.54 0-5.49 1.21-13 3-18 1.42-8.82-2.87-15.86-16.4-26.59-24.21-10.73-7.81-25.87-10.46-31.25-17.85-5.38-7.39-3.17-22.4-7.32-35.2-1.79-5.5-4.74-10.49-7.6-15.31-9.54-16.08-9.53-18.89 0-35 2.87-4.78 5.8-9.77 7.61-15.23 4.15-12.77 2-27.93 7.33-35.2 5.33-7.27 20.43-10 31.24-17.84C73.19 26.12 80.14 12.57 89 9.7c5-1.63 12.48.2 18 1.42 15.5 3.4 20 3.4 35.54 0 5.52-1.22 13-3 18-1.42 8.82 2.86 15.86 16.4 26.59 24.21 10.73 7.81 25.86 10.43 31.25 17.84 5.39 7.41 3.17 22.42 7.32 35.2 1.79 5.51 4.75 10.5 7.61 15.32 9.53 16.08 9.52 18.89 0 35-7.65 12.89-9.06 16.92-10.61 32.7-1.79 18.2-3.07 20.11-20.05 27.5-5.26 2.28-10.69 4.64-15.52 8.16-10.73 7.81-17.78 21.35-26.59 24.21-1.39.39-12.35-.21-18.04-1.46z"/>
    <path fill="#FFEC03" d="M220.888 137.391c9.737-53.1-25.417-104.04-78.518-113.776-53.1-9.737-104.04 25.417-113.776 78.518-9.736 53.1 25.418 104.04 78.518 113.776 53.101 9.736 104.04-25.418 113.776-78.518z"/>
    <path fill="#FFEC03" d="M123.89 22a97.761 97.761 0 00-53.56 179c53.84-13.77 92.88-54.5 92.88-102.6 0-29.89-15.04-56.9-39.32-76.4z" opacity=".48"/>
  </g>
  <defs>
    <clipPath id="clip0_1245_4023">
      <path fill="#fff" d="M0 0h249.46v351.96H0z"/>
    </clipPath>
  </defs>
</svg>
