<svg xmlns="http://www.w3.org/2000/svg" width="286" height="382" fill="none" viewBox="0 0 286 382">
  <g clip-path="url(#clip0_1245_4827)">
    <path fill="#D67205" d="M156.11 283.26l.42-.87h-27.39a38.208 38.208 0 010 34.19h27.39a38 38 0 01-.42-33.32z"/>
    <path fill="#BA6304" d="M156.53 316.58a38 38 0 01-.42-33.32l.42-.87h-27.39a37.925 37.925 0 012.28 5.68c4.85.83 11.56 2.71 14.45 7 3.14 4.62 3.49 15 3.36 21.54l7.3-.03z"/>
    <path fill="#FFC003" d="M198.13 113.58H216c34 0 61.66-29.65 61.66-66.09V16c0-9.85-15.27-9.89-15.27 0v6c0 6.15-4.67 11.16-10.41 11.16h-22.07v-8.6H252a2.48 2.48 0 002.36-2.56v-6c0-21.3 31.3-21.32 31.3 0v31.49c0 41.18-31.25 74.69-69.67 74.69h-32.56a72.885 72.885 0 0014.7-8.6z"/>
    <path fill="#FFCF03" d="M87.54 113.58H69.67C35.67 113.58 8 83.93 8 47.49V16c0-9.85 15.27-9.89 15.27 0v6c0 6.15 4.67 11.16 10.4 11.16h22.08v-8.6H33.69A2.48 2.48 0 0131.3 22v-6C31.3-5.32 0-5.34 0 16v31.49c0 41.18 31.25 74.69 69.67 74.69h32.56a72.847 72.847 0 01-14.69-8.6z"/>
    <path fill="#FFA303" d="M216 113.58h-17.87a72.885 72.885 0 01-14.7 8.6h23.15a92.5 92.5 0 0010.31-8.6H216zM244.7 24.57h-14.79v8.59h14.79v-8.59zM55.76 24.57H40.97v8.59h14.79v-8.59zM69.67 113.58h-.89a92.322 92.322 0 0010.3 8.6h23.15a72.85 72.85 0 01-14.69-8.6H69.67z"/>
    <path fill="#FFDC01" d="M229.14.53H56.53a14.31 14.31 0 00-14.31 14.3h201.22a14.303 14.303 0 00-14.3-14.3z"/>
    <path fill="#FFB600" d="M52.21 14.83V48.1a80.077 80.077 0 0073.15 79.64h35a80.076 80.076 0 0073.09-79.64V14.83H52.21z"/>
    <path fill="#FFB600" d="M67.07 42.43c-5.09 0-10 .21-14.86.6v5.07A79.52 79.52 0 0076 104.87c37.65-1.82 66.87-15.05 66.87-31.11-.04-17.3-33.96-31.33-75.8-31.33z" opacity=".27"/>
    <path fill="#F80" d="M209.55 14.83v18.44c0 41.76-32 77.84-73.14 79.64-8.56.37-26 .39-35 0a69.775 69.775 0 01-22.66-5.38 80.083 80.083 0 0046.57 20.21h35a80.082 80.082 0 0073.13-79.64V14.83h-23.9z"/>
    <path fill="#D67205" d="M126.38 127.74v19h32.91v-19h-32.91z"/>
    <path fill="#C96B05" d="M126.38 139h32.91v-11.26h-32.91V139z"/>
    <path fill="#FFCF03" d="M118.93 146.79v16.57h47.8v-16.57h-47.8z"/>
    <path fill="#FFDC01" d="M170.2 163.36h-54.74a4.624 4.624 0 00-4.62 4.62v3.62h64V168a4.619 4.619 0 00-4.64-4.64z"/>
    <path fill="#FF8B00" d="M104.67 171.6l25 86.31h26.52L181 171.6h-76.33z"/>
    <path fill="#FF8B00" d="M129.71 257.91h2.66c11.21-10.8 18.61-29.44 18.61-50.63a80.743 80.743 0 00-7.91-35.68h-38.4l25.04 86.31z" opacity=".47"/>
    <path fill="#FFDC01" d="M156.05 257.91h-26.43A12.262 12.262 0 00117.33 270h51a12.27 12.27 0 00-12.28-12.09z"/>
    <path fill="#FF8B00" d="M168.34 270h-51a12.257 12.257 0 0012.29 12.37h26.43a12.266 12.266 0 008.718-3.626A12.266 12.266 0 00168.34 270z"/>
    <path fill="#FFDC01" d="M167.3 316.58h-48.94a8.707 8.707 0 00-8.7 8.71v3H176v-3a8.706 8.706 0 00-8.7-8.71z"/>
    <path fill="#FFB600" d="M96.68 328.25v44H189v-44H96.68z"/>
    <path fill="#FFB600" d="M96.68 368.58c3.25.27 6.58.41 10 .41 36 0 65.23-15.56 65.23-34.75a19.312 19.312 0 00-1-6H96.68v40.34z" opacity=".35"/>
    <path fill="#FFDC01" d="M190.57 372.22H95.1a8.001 8.001 0 00-8 8v.85h111.5v-.85a7.995 7.995 0 00-2.354-5.667 8 8 0 00-5.676-2.333z"/>
    <g style="mix-blend-mode:screen">
      <path fill="#FFED78" d="M222.18 9.37H118.71a1.69 1.69 0 010-3.38h103.47a1.69 1.69 0 010 3.38z"/>
    </g>
    <g style="mix-blend-mode:screen">
      <path fill="#FFED78" d="M109.15 9.37H84.41a1.69 1.69 0 110-3.38h24.74a1.69 1.69 0 010 3.38z"/>
    </g>
    <g style="mix-blend-mode:screen">
      <path fill="#FFED78" d="M72.91 9.37h-19A1.69 1.69 0 1153.9 6h19a1.69 1.69 0 110 3.38l.01-.01z"/>
    </g>
  </g>
  <defs>
    <clipPath id="clip0_1245_4827">
      <path fill="#fff" d="M0 0h285.66v381.09H0z"/>
    </clipPath>
  </defs>
</svg>
