<svg xmlns="http://www.w3.org/2000/svg" width="188" height="349" fill="none" viewBox="0 0 188 349">
  <g clip-path="url(#clip0_1245_4354)">
    <path fill="#E0973F" d="M92.79 218.06c5.21 0 8 5.76 4.71 9.48l4 .06c2.85-5.93-1.69-12.77-8.66-12.77-6.97 0-11.4 6.65-8.77 12.54h4c-3.19-3.69-.43-9.31 4.72-9.31z"/>
    <path fill="#2A6291" d="M187.65 198.36l-86 16.46L66.17 42.19 78.4 0h51.73c.04.11 57.48 198.25 57.52 198.36zM101.64 214.83H86l2.01-9.79h11.62l2.01 9.79z"/>
    <path fill="#E0973F" d="M92.62 223.22a3.318 3.318 0 01-3.32-3.31v-13.57c0-3.2 3.61-3.45 3.32-3.32a3.323 3.323 0 013.31 3.32v13.57a3.311 3.311 0 01-3.31 3.31z"/>
    <path fill="#0091C8" d="M86 214.83L0 198.36 57.5 0h72.64L86 214.83z"/>
    <path fill="#FFB10F" d="M153.92 286.81a61.37 61.37 0 11-122.742.019 61.37 61.37 0 01122.742-.019z"/>
    <path fill="#FFEC03" d="M141.66 287.55c0-.67.06-1.86-.21-6.93 2 5.09 6.85 5.38 7.12 5.57 0-.06.06-7.59-7.81-9a47.253 47.253 0 00-1.19-4.79c2.64 3.56 7.27 3.46 7.32 3.48a9.23 9.23 0 00-8.8-7.62 46.654 46.654 0 00-2.35-4.95c3.2 3.73 8.07 2.89 8.16 2.91a10.393 10.393 0 00-3.88-5.05 10.12 10.12 0 00-6.29-1.21 50.19 50.19 0 00-3.45-4.63c3.75 2.3 8 .53 8 .53a9.244 9.244 0 00-11.05-3.86 49.267 49.267 0 00-5-4.33c4.25 1.4 8-1.4 8-1.41a9.27 9.27 0 00-11.65-1.05 47.426 47.426 0 00-4.53-2.49c4.05.2 6.87-2.92 6.94-2.95a9.18 9.18 0 00-11.51 1 47.738 47.738 0 00-6.65-1.86c5.06-.21 7.31-4.64 7.43-4.72-.06 0-7-2.66-11.11 4.11a47.558 47.558 0 00-5.36-.37 9.131 9.131 0 006.23-5.76c-.08 0-7.39-1.55-10.34 5.87-1.17.08-2.33.21-3.48.37a10.28 10.28 0 003.14-6 9.188 9.188 0 00-8.51 7 47.762 47.762 0 00-5.46 1.78 10 10 0 001.92-6.9 9.202 9.202 0 00-6.61 9 49.613 49.613 0 00-4.77 2.84 10 10 0 00.23-7.23 9.2 9.2 0 00-4.25 10.27c-.94.79-1.85 1.62-2.73 2.48a10.44 10.44 0 00-1.16-6.02 9.24 9.24 0 00-2.71 10.46c-1 1.22-1.92 2.5-2.79 3.82a10.361 10.361 0 00-2.37-6 9.23 9.23 0 00-.48 10.94 47.738 47.738 0 00-2.25 5.24 9.782 9.782 0 00-3.85-5.91 9.199 9.199 0 002.33 10.95 48.447 48.447 0 00-1 5.55c-1.39-3.63-5.24-5.05-5.28-5.1a9.17 9.17 0 004.93 10.07c0 1.25 0 2.53.08 3.84a10.359 10.359 0 00-5.54-3.49 9.209 9.209 0 006.22 9.07c.24 1.35.54 2.68.88 4-2.4-3.37-6.68-3.58-6.75-3.62a9.228 9.228 0 008.26 8.28 47.522 47.522 0 002.25 5.05 9.169 9.169 0 00-7.92-2.4 9.212 9.212 0 0010 6.1 67.962 67.962 0 004.15 5.69c-4.4-3.25-8.67-.88-9-.89.06 0 4 6.41 11.4 3.42a49.157 49.157 0 003.85 3.5c-4.49-1.89-8.06.84-8.31.87a9.21 9.21 0 0011.68 1.64 47.26 47.26 0 004.22 2.5c.317.278.65.535 1 .77-5.28-1.38-8.37 2.41-8.68 2.52a10.44 10.44 0 006.16 1.67 9.744 9.744 0 005.74-2.91 48.22 48.22 0 005 1.81 9.636 9.636 0 001.65.76c-5.46-.1-7.57 4.31-7.84 4.48 2.051.729 4.28.795 6.37.19a9.58 9.58 0 004.89-4.21 49.51 49.51 0 005.64.7c.422.094.85.16 1.28.2-5.32 1.23-6.3 6-6.52 6.26 0 0 7.39 1.11 10-6.39a45.768 45.768 0 004.56-.36c-3.56 2.17-4.07 6.47-4.11 6.54a9.131 9.131 0 008.74-7.35 48.695 48.695 0 007.94-2.54c-3.17 2.93-2.67 7.41-2.69 7.47a9.22 9.22 0 006.82-9.44 46.994 46.994 0 006.15-3.9c-3.59 4.11-1.58 8.56-1.62 8.89 0-.05 6.71-3.49 4.33-11.08 2.32-2 3.18-3.05 5-4.85-2.48 4.87.55 8.7.59 9 0-.1 5.65-4.92 1.53-11.76a48.05 48.05 0 002.73-4c-.82 4.29 2.28 7.61 2.3 7.67a9.22 9.22 0 00-.15-11.61 49.201 49.201 0 002.31-5.6c-.17 4.88 3.65 7.24 3.78 7.47a9.25 9.25 0 00-2.61-11.48c.88-3.58.8-4.53 1.3-7.09.67 5.42 5.34 6.89 5.55 7.13a10.418 10.418 0 00-.72-6.33 10.277 10.277 0 00-4.76-4.29zm-.78.34c-6.89 3.31-5.22 9.61-5.35 9.88a10.63 10.63 0 004.76-3.57c-.22 1.31-.48 2.61-.8 3.89a9.215 9.215 0 00-7.78 8.4 10.359 10.359 0 006.08-3c-.51 1.32-1.07 2.62-1.68 3.88a9.228 9.228 0 00-9.49 6.69 10.148 10.148 0 006.83-1.94c-.73 1.14-1.5 2.25-2.33 3.33a9.13 9.13 0 00-10.1 5.15 10.74 10.74 0 005.79-.23c-.88.87-1.79 1.71-2.73 2.51a9.144 9.144 0 00-11 2.56 10.56 10.56 0 006.11 1.12c-1.16.76-2.36 1.47-3.6 2.13a9.285 9.285 0 00-5.729-2.166 9.285 9.285 0 00-5.831 1.876 10.002 10.002 0 006.75 2.53 46.744 46.744 0 01-6.86 2.14 9.052 9.052 0 00-11.4-3.07c.1.06 2.28 3.53 6.27 4-1.46.17-2.93.28-4.42.31a9.262 9.262 0 00-10.46-4.42 10.829 10.829 0 003.63 4.11 49.743 49.743 0 01-3.48-.54 8.999 8.999 0 00-9-6.55 10.9 10.9 0 002.47 4.81c-1.14-.39-2.26-.83-3.37-1.31-.58-7.53-7-8.31-7.19-8.53a10.69 10.69 0 001.44 5.56c-.78-.47-1.55-1-2.3-1.49A9.221 9.221 0 0061 315.72a10.27 10.27 0 00.64 6.79c-.94-.83-1.86-1.7-2.74-2.6a9.14 9.14 0 00-3.45-10.78 10.55 10.55 0 00-.67 6c-.77-1-1.49-2.07-2.18-3.16a9.2 9.2 0 00-.6-11.48 10.18 10.18 0 00-2.06 6.51 47.08 47.08 0 01-1.56-3.65 9.159 9.159 0 002.13-11.32 9.649 9.649 0 00-3.62 6.67c-.3-1.13-.55-2.26-.77-3.42a8.9 8.9 0 004.45-4.76 10.37 10.37 0 000-6.37c-.07.11-4.64 2.48-4.65 7.75-.1-.31-.216-.614-.35-.91a49.642 49.642 0 01-.2-5 10.1 10.1 0 004.93-4.09 10.43 10.43 0 001-6.3c-.1.09-4.5 1.57-5.65 6.07a47.572 47.572 0 011-6 10.003 10.003 0 005.79-2.77 10.4 10.4 0 002.38-5.9c-.12.07-5.24.46-7.33 5.29a46.467 46.467 0 012.69-6.76 8.688 8.688 0 006.45-1.1 10.39 10.39 0 003.78-5.14c-.12 0-5.2-.78-8.37 3.43a9.48 9.48 0 00.31-1.11 45.854 45.854 0 013.31-4.72c.14.3 3.55 1.58 6.61.36A10.469 10.469 0 0067 253c-.13 0-5-1.81-8.88 1.69.242-.417.452-.852.63-1.3a47.917 47.917 0 013.39-3.19 9.34 9.34 0 006.37 1.07 10.44 10.44 0 005.35-3.48c-.23 0-4.39-2.53-8.8.12a47.252 47.252 0 015.67-3.55 10 10 0 005.91 2.48 10.47 10.47 0 006-2.09c-.23-.07-3.64-3.52-8.58-2a47.26 47.26 0 016.57-2.3 9.19 9.19 0 005.14 4 10.44 10.44 0 006.35-.61c-.11-.06-2.89-4.4-8.13-3.95.2-.09.41-.18.61-.29a49.694 49.694 0 015.37-.65 9.147 9.147 0 0010.19 5 10.273 10.273 0 00-4.6-5c1.253.06 2.493.17 3.72.33a9.23 9.23 0 009.28 6.56 10.416 10.416 0 00-3.38-5.4c1.34.35 2.66.76 4 1.22a9.246 9.246 0 007.44 9c0-.14.23-4.38-3-7.14a46.794 46.794 0 014.67 2.55 9.207 9.207 0 005.59 9.93 10.004 10.004 0 00-1.1-6.87 49.447 49.447 0 014 3.53 9.236 9.236 0 003 11.08 10.116 10.116 0 00.54-7.11 47.725 47.725 0 012.91 4c-4.19 6.4.49 10.93.52 11.23a10.409 10.409 0 002.23-6.38c.5 1 1 2 1.39 3.08a9.248 9.248 0 00-1.31 11.5 9.944 9.944 0 003.1-6.24c.35 1.26.65 2.55.89 3.85a9.16 9.16 0 00-2.84 10.93 10.748 10.748 0 003.62-4.3c.07 1.23.08 2.41.05 3.59z"/>
    <path fill="#40ACD6" d="M0 198.36l49 9.38C89.91 164.1 96.13 55.78 96.49 0h-39L0 198.36z" opacity=".74"/>
    <path fill="#FFEC03" d="M131.67 286.81a39.124 39.124 0 01-24.142 36.149A39.12 39.12 0 1192.55 247.7a39.114 39.114 0 0136.142 24.141 39.112 39.112 0 012.978 14.969z"/>
    <g style="mix-blend-mode:screen">
      <path fill="#FFEC03" d="M104.83 324l-46.37-56.37c-.54.95-1 1.92-1.49 2.91l44.71 54.32c1.07-.26 2.12-.55 3.15-.86zM119 315.64l-49.65-60.32a39.57 39.57 0 00-7.88 7.74l48.43 58.83a39.417 39.417 0 009.1-6.25zM125.76 307.5l-47.12-57.25c-.98.373-1.94.783-2.88 1.23l48.24 58.6c.62-.84 1.21-1.7 1.76-2.58zM129.49 299.72L87 248.09c-1.13.16-2.26.37-3.36.63l44.59 54.18c.46-1.04.88-2.1 1.26-3.18z"/>
    </g>
  </g>
  <defs>
    <clipPath id="clip0_1245_4354">
      <path fill="#fff" d="M0 0h187.65v348.18H0z"/>
    </clipPath>
  </defs>
</svg>
