<svg xmlns="http://www.w3.org/2000/svg" width="279" height="427" fill="none" viewBox="0 0 279 427">
  <g clip-path="url(#clip0_1245_4756)">
    <path fill="#FFCF03" d="M157 343.33h-35.22L108 400.73h63l-14-57.4z"/>
    <path fill="#FF9E03" d="M152.76 400.73h18.18L157 343.33h-35.22s16.68 2.6 24.41 10.52c5.64 5.77 6.51 32.72 6.57 46.88z"/>
    <path fill="#F58500" d="M215.8 225.87c21.56-15.28 60.48-48.79 52.51-87.08-3.32-15.93-26.57-20.71-38.48-5.62-11.11 14.07 1.52 26.7 3 28.09 4.58 4.29-1.88 11.22-6.47 7a34.447 34.447 0 01-7.69-10.16v-24.8c13.06-27.62 53.33-23.35 58.94 3.56 11.12 53.39-53.08 95.51-67.85 104.42a79.073 79.073 0 006.04-15.41z"/>
    <path fill="#FFEC03" d="M49.3 108.38v8.39h180.29v-8.39H49.3z"/>
    <path fill="#FFCF03" d="M176 73.56h-73.12a34.82 34.82 0 00-34.82 34.82h142.77a34.83 34.83 0 00-10.202-24.625A34.813 34.813 0 00176 73.56z"/>
    <path fill="#FFEC03" d="M155.75 53.38h-32.61L103 73.56h73l-20.25-20.18z"/>
    <path fill="#FF8B00" d="M132.05 41.63v11.75h14.8V41.63h-14.8z"/>
    <path fill="#E67D00" d="M132.05 45.21c3 .57 6.46 1.7 7.4 4 .513 1.355.849 2.77 1 4.21h6.38V41.63h-14.8l.02 3.58z"/>
    <path fill="#FFB600" d="M60.23 116.77v87.85a79.69 79.69 0 0036.06 66.74h86.31a79.696 79.696 0 0036.07-66.74v-87.85H60.23z"/>
    <path fill="#FFB600" d="M60.23 204.62a79.511 79.511 0 0022.93 56c73-3.7 127.17-70.75 114.12-143.82h-137l-.05 87.82z" opacity=".49"/>
    <path fill="#FFCF03" d="M96.29 271.36l25.61 61.47H157l25.58-61.47H96.29z"/>
    <path fill="#FF9E03" d="M102.9 287.23c17.83-.3 39.6 1.27 43.95 10.72 3.41 7.41 2.05 21.7-.37 34.88H157l25.58-61.47H96.29l6.61 15.87z"/>
    <path fill="#FFEC03" d="M157 332.83h-35a4.861 4.861 0 00-4.75 4.95v1.81h44.55v-1.81a4.867 4.867 0 00-.335-1.875 4.87 4.87 0 00-1.032-1.602A4.865 4.865 0 00157 332.83z"/>
    <path fill="#FF8B00" d="M117.17 339.59v.15a4.856 4.856 0 002.891 4.585c.586.26 1.218.401 1.859.415H157a4.847 4.847 0 004.434-3.121 4.84 4.84 0 00.316-1.879v-.15h-44.58zM176.17 400.73h-73.45a8.536 8.536 0 00-7.893 5.279 8.54 8.54 0 00-.647 3.271h90.53a8.552 8.552 0 00-5.27-7.899 8.532 8.532 0 00-3.27-.651z"/>
    <path fill="#893003" d="M197.3 409.28H81.59a17.56 17.56 0 00-12.437 5.139A17.576 17.576 0 0064 426.85h150.87a17.573 17.573 0 00-10.846-16.233 17.573 17.573 0 00-6.724-1.337z"/>
    <path fill="#FF8B00" d="M63.09 225.87c-21.56-15.28-60.48-48.79-52.51-87.08 3.32-15.93 26.57-20.71 38.48-5.62 11.11 14.07-1.52 26.7-3 28.09-4.58 4.29 1.88 11.22 6.48 7a34.64 34.64 0 007.69-10.16v-24.8C47.16 105.68 6.89 110 1.29 136.86c-11.12 53.39 53.07 95.51 67.84 104.42a79.06 79.06 0 01-6.04-15.41z"/>
    <path fill="#DB7700" d="M215.8 225.87a79.096 79.096 0 01-6 15.41c1.88-1.14 4.57-2.81 7.79-5a85.054 85.054 0 004.47-15c-2.22 1.72-4.31 3.21-6.26 4.59z"/>
    <path fill="#F08300" d="M98.36 276.36h82.16l2.08-5H96.29l2.07 5zM56.87 221.3a84.777 84.777 0 004.47 15c3.23 2.16 5.91 3.83 7.79 5a79.084 79.084 0 01-6-15.41c-1.99-1.4-4.08-2.89-6.26-4.59z"/>
    <path fill="#FF8B00" d="M139.45 45.5c12.564 0 22.75-10.185 22.75-22.75S152.014 0 139.45 0 116.7 10.185 116.7 22.75s10.186 22.75 22.75 22.75z"/>
    <path fill="#FFCF03" d="M139.45 44.5c12.012 0 21.75-9.738 21.75-21.75S151.462 1 139.45 1s-21.75 9.738-21.75 21.75 9.738 21.75 21.75 21.75z"/>
    <path fill="#FFEC03" d="M139.45 36.5c7.594 0 13.75-6.156 13.75-13.75S147.044 9 139.45 9s-13.75 6.156-13.75 13.75 6.156 13.75 13.75 13.75z"/>
    <path fill="#FF8B00" d="M156.26 23a23.373 23.373 0 00-.07-2.44 3.224 3.224 0 002.51 2 3.248 3.248 0 00-2.7-3.19 15.665 15.665 0 00-.42-1.68 3.403 3.403 0 002.57 1.22 3.239 3.239 0 00-3.15-2.68 17.41 17.41 0 00-.82-1.74 3.32 3.32 0 002.86 1 3.648 3.648 0 00-1.36-1.77 3.51 3.51 0 00-2.21-.43 17.65 17.65 0 00-1.22-1.62 3.444 3.444 0 002.83.18 3.26 3.26 0 00-3.9-1.35 18.294 18.294 0 00-1.75-1.5 3.41 3.41 0 002.82-.49 3.24 3.24 0 00-4.09-.38c-.51-.31-1-.6-1.59-.87a3.409 3.409 0 002.43-1 3.21 3.21 0 00-4 .37 18.424 18.424 0 00-2.34-.66 3.324 3.324 0 002.61-1.65 3.239 3.239 0 00-3.9 1.44 16.807 16.807 0 00-1.89-.13 3.209 3.209 0 002.19-2 3.23 3.23 0 00-3.67 2c-.42 0-.82.07-1.23.13a3.6 3.6 0 001.11-2.1 3.24 3.24 0 00-3 2.48 17.7 17.7 0 00-1.91.62 3.51 3.51 0 00.67-2.42 3.239 3.239 0 00-2.32 3.18c-.58.298-1.141.632-1.68 1 .338-.801.366-1.7.08-2.52a3.252 3.252 0 00-1.49 3.61c-.33.28-.65.57-1 .88a3.708 3.708 0 00-.41-2.19 3.245 3.245 0 00-1 3.68c-.357.429-.69.876-1 1.34a3.712 3.712 0 00-.83-2.12 3.248 3.248 0 00-.17 3.85 17.82 17.82 0 00-.8 1.84 3.383 3.383 0 00-1.35-2.07 3.226 3.226 0 00.82 3.84c-.155.66-.271 1.327-.35 2a3.52 3.52 0 00-1.86-1.8 3.226 3.226 0 001.73 3.54v1.36a3.628 3.628 0 00-2-1.23 3.218 3.218 0 002.18 3.19c.09.47.19.94.32 1.4a3.45 3.45 0 00-2.38-1.27 3.26 3.26 0 002.9 2.91c.231.604.494 1.195.79 1.77a3.214 3.214 0 00-2.78-.84 3.242 3.242 0 003.53 2.14c.45.692.938 1.36 1.46 2a3.2 3.2 0 00-3.16-.31 3.25 3.25 0 004 1.2c.429.436.883.846 1.36 1.23a3.258 3.258 0 00-2.93.31 3.24 3.24 0 004.11.58c.47.32 1 .61 1.46.89l.36.27a3.17 3.17 0 00-3 .88 3.65 3.65 0 002.16.59 3.41 3.41 0 002-1 16.87 16.87 0 001.77.63c.183.11.378.2.58.27a3.158 3.158 0 00-2.76 1.58 3.65 3.65 0 002.24.06 3.29 3.29 0 001.72-1.48c.662.12 1.329.203 2 .25.149.032.299.055.45.07a3.18 3.18 0 00-2.29 2.2 3.26 3.26 0 003.51-2.25c.54 0 1.07-.06 1.6-.12a3.405 3.405 0 00-1.44 2.29A3.2 3.2 0 00143 39.3c.953-.22 1.886-.517 2.79-.89a3.44 3.44 0 00-1 2.62 3.22 3.22 0 002.4-3.32 16.317 16.317 0 002.17-1.37 3.173 3.173 0 00-.57 3.13 3.277 3.277 0 001.52-3.89c.82-.71 1.12-1.08 1.75-1.71a3.214 3.214 0 00.24 3.13 3.24 3.24 0 00.54-4.14c.34-.447.673-.917 1-1.41a3.394 3.394 0 00.81 2.7 3.241 3.241 0 00-.06-4.08 16.95 16.95 0 00.81-2 3.247 3.247 0 001.33 2.62 3.234 3.234 0 00-.91-4c.31-1.26.28-1.59.45-2.49a3.175 3.175 0 002 2.5 3.645 3.645 0 00-.26-2.22 3.527 3.527 0 00-1.75-1.48zm-.27.12a3.18 3.18 0 00-1.88 3.47 3.679 3.679 0 001.67-1.26c-.07.47-.17.92-.28 1.37a3.242 3.242 0 00-2.73 3 3.642 3.642 0 002.13-1.05 13.71 13.71 0 01-.59 1.36 3.239 3.239 0 00-3.31 2.32 3.5 3.5 0 002.4-.68c-.26.4-.53.8-.82 1.17a3.218 3.218 0 00-3.58 1.82 3.72 3.72 0 002-.09c-.3.31-.62.61-.95.89a3.21 3.21 0 00-3.88.9 3.741 3.741 0 002.15.39c-.41.27-.84.52-1.27.75a3.268 3.268 0 00-4.07-.1 3.569 3.569 0 002.38.89c-.767.302-1.556.546-2.36.73a3.612 3.612 0 00-1.77-1.28 3.69 3.69 0 00-2.23.17 3.357 3.357 0 002.2 1.42c-.51.06-1 .1-1.55.12a3.263 3.263 0 00-3.65-1.54 3.788 3.788 0 001.28 1.45c-.41-.05-.82-.11-1.23-.19a3.153 3.153 0 00-3.16-2.3c.145.627.444 1.207.87 1.69-.4-.14-.79-.29-1.18-.46a3.172 3.172 0 00-2.53-3c-.02.701.157 1.394.51 2-.28-.16-.55-.34-.81-.52a3.273 3.273 0 00-1.79-3.6 3.63 3.63 0 00.22 2.39c-.33-.29-.65-.6-1-.91A3.21 3.21 0 00126 30.6a3.722 3.722 0 00-.24 2.09c-.27-.36-.52-.73-.76-1.11a3.231 3.231 0 00-.23-4 3.603 3.603 0 00-.72 2.3c-.2-.42-.38-.85-.55-1.28a3.224 3.224 0 00.75-4 3.348 3.348 0 00-1.25 2.34 11.72 11.72 0 01-.27-1.2 3.142 3.142 0 001.56-1.67 3.647 3.647 0 000-2.24 3.302 3.302 0 00-1.63 2.72l-.12-.32a17.434 17.434 0 01-.08-1.77 3.472 3.472 0 001.67-1.46 3.698 3.698 0 00.33-2.22 3.322 3.322 0 00-2 2.14c.07-.714.186-1.422.35-2.12a3.54 3.54 0 002-1 3.7 3.7 0 00.86-2.07 3.273 3.273 0 00-2.57 1.86c.248-.818.563-1.614.94-2.38a3 3 0 002.27-.39 3.67 3.67 0 001.33-1.8 3.279 3.279 0 00-2.94 1.2c.044-.128.081-.258.11-.39.363-.558.76-1.092 1.19-1.6a2.873 2.873 0 002.33.13 3.73 3.73 0 001.67-1.51 3.33 3.33 0 00-3.13.6c.089-.147.165-.3.23-.46.377-.393.774-.767 1.19-1.12a3.31 3.31 0 002.24.38 3.67 3.67 0 001.9-1.25 3.28 3.28 0 00-3.1 0 17.09 17.09 0 012-1.24 3.54 3.54 0 002.08.87 3.678 3.678 0 002.12-.63 3.27 3.27 0 00-3-.71 15.006 15.006 0 012.31-.81 3.24 3.24 0 001.81 1.39 3.66 3.66 0 002.23-.22A3.337 3.337 0 00136 6.22l.22-.1c.622-.108 1.25-.185 1.88-.23a3.232 3.232 0 003.59 1.75 3.67 3.67 0 00-1.62-1.76c.44 0 .87.06 1.3.12a3.269 3.269 0 003.27 2.31 3.672 3.672 0 00-1.19-1.9c.47.13.93.27 1.39.43a3.251 3.251 0 002.61 3.16 3.358 3.358 0 00-1.06-2.51c.567.268 1.118.569 1.65.9a3.221 3.221 0 002 3.53 3.585 3.585 0 00-.39-2.41c.488.39.955.803 1.4 1.24a3.222 3.222 0 001.07 3.89 3.567 3.567 0 00.19-2.5c.36.46.7.93 1 1.42a3.148 3.148 0 00.18 3.94 3.632 3.632 0 00.79-2.24c.17.36.33.72.48 1.09a3.274 3.274 0 00-.46 4 3.471 3.471 0 001.09-2.2c.13.45.23.9.32 1.36a3.217 3.217 0 00-1 3.84c.554-.37 1-.88 1.29-1.48v1.26l-.01-.01z"/>
    <path fill="#F9C569" d="M76.68 221.48c1.86 12.34 7.42 21.9 12.84 26.94-5.67-4.77-11.78-14.08-14.32-26.69-3.27-14.09-2.7-77.38-2.51-91.93a3.002 3.002 0 116 .21c-.86 14.42-4.59 77.27-2.01 91.47zM80.35 88.94a19.4 19.4 0 0115.3-9.59c11.95-1.09 52.93.52 65 1-11.83-.1-53-.4-64.74 1.05-1 .11-1.84.37-2.76.54-.92.17-1.74.62-2.61.91-10.43 4.66-11.23 18.27-11.17 18.09a1.51 1.51 0 01-1.041 1.309 1.517 1.517 0 01-1.148-.096 1.51 1.51 0 01-.811-1.463 29.91 29.91 0 013.98-11.75z"/>
  </g>
  <defs>
    <clipPath id="clip0_1245_4756">
      <path fill="#fff" d="M0 0h278.89v426.85H0z"/>
    </clipPath>
  </defs>
</svg>
