<svg xmlns="http://www.w3.org/2000/svg" width="212" height="353" fill="none" viewBox="0 0 212 353">
  <g clip-path="url(#clip0_1245_3715)">
    <path fill="#FFDC01" d="M114.06 206.43H97.88l-22.41 97.23h61l-22.41-97.23z"/>
    <path fill="#FFC001" d="M136.48 303.66l-22.42-97.23H97.88l-4.55 19.75c7.78 4.43 18 12.94 20.16 27.73 2.82 19.13-1 41-2.88 49.75h25.87z"/>
    <path fill="#FFB10F" d="M118.12 75.36H93.83a733.714 733.714 0 010 127.6h24.29c-6.12-66.96-.12-124.18 0-127.6z"/>
    <path fill="#E8860E" d="M93.83 75.36c.08 1.93 1.17 12.62 2 29.36 6.06 2.23 12 6.65 12 15.44 0 16.22-2.91 71.54-3.51 82.8h13.86C112 136 118 78.78 118.12 75.36H93.83z"/>
    <path fill="#FFEC03" d="M199.18 11.81H12.77A12.761 12.761 0 000 24.57h212a12.76 12.76 0 00-12.82-12.76z"/>
    <path fill="#FFDC01" d="M182.48 0h-153a11.81 11.81 0 00-11.82 11.81h176.62A11.81 11.81 0 00186.998.9a11.8 11.8 0 00-4.518-.9z"/>
    <path fill="#FFCF03" d="M9.12 24.57c0 40 37.7 72.6 84.71 73.7h24.29c47-1.1 84.71-33.67 84.71-73.7H9.12z"/>
    <path fill="#FFDC01" d="M131 193.25H81a5.85 5.85 0 00-5.85 5.85h61.73a5.85 5.85 0 00-5.88-5.85z"/>
    <path fill="#FF8B00" d="M77.9 199.1v.05a20.55 20.55 0 0020.55 20.55h15A20.55 20.55 0 00134 199.15v-.05H77.9z"/>
    <path fill="#F08300" d="M113.5 219.7a20.548 20.548 0 0020.55-20.5c-11.65 16.67-32.31 17.13-52 12.35a20.522 20.522 0 0016.39 8.15h15.06z"/>
    <path fill="#FFEC03" d="M140 303.66H71.92l-10 10h88.18l-10.1-10z"/>
    <path fill="#893003" d="M42.17 313.7v38.87h127.61V313.7H42.17z"/>
    <path fill="#7A2B03" d="M169.78 313.7H155c0 9.79-3.32 24-21 29.74-22.8 7.41-73.57 7.36-91.88 7.08v2.05h127.66V313.7z"/>
    <path fill="#FF8B00" d="M133.41 140.38a27.44 27.44 0 11-54.879.12 27.44 27.44 0 0154.879-.12z"/>
    <path fill="#FFDC01" d="M122.23 140.38a16.262 16.262 0 01-10.045 15.025 16.254 16.254 0 01-9.398.92 16.253 16.253 0 01-12.768-12.791A16.259 16.259 0 01106 124.12a16.248 16.248 0 0116.23 16.26z"/>
    <path fill="#FFEC73" d="M113.53 154.77l-19.85-25c-.518.596-.99 1.231-1.41 1.9l19.09 24.08a14.997 14.997 0 002.17-.98zM106 156.63h1.25l-16.78-21.16c-.14.45-.26.91-.37 1.38l15.69 19.78h.21zM117.82 151.51l-20-25.2c-.33.19-.66.39-1 .61l20.18 25.4c.28-.26.56-.53.82-.81zM120.73 147.2l-18-22.74c-.613.12-1.218.28-1.81.48l19 23.91a16.26 16.26 0 00.81-1.65z"/>
    <path fill="#FFDC01" d="M126.25 140.69c0-.28 0-.79-.08-2.94a3.812 3.812 0 003 2.36 3.908 3.908 0 00-3.3-3.81c-.14-.69-.31-1.36-.51-2 .379.456.853.824 1.388 1.079a4.094 4.094 0 001.712.401 3.904 3.904 0 00-3.73-3.23 20.076 20.076 0 00-1-2.1 3.999 3.999 0 003.46 1.23 4.421 4.421 0 00-1.65-2.14 4.288 4.288 0 00-2.67-.51 19.976 19.976 0 00-1.46-2 4.115 4.115 0 003.41.22 3.909 3.909 0 00-4.7-1.62 20.625 20.625 0 00-2.12-1.83 4.13 4.13 0 003.41-.59 3.921 3.921 0 00-4.94-.45 17.765 17.765 0 00-1.92-1.05 4.193 4.193 0 002.94-1.26 3.904 3.904 0 00-4.88.44 20.272 20.272 0 00-2.82-.79 3.997 3.997 0 003.15-2 3.928 3.928 0 00-4.71 1.75 18.945 18.945 0 00-2.27-.16 3.887 3.887 0 002.64-2.44 3.899 3.899 0 00-4.38 2.49c-.5 0-1 .08-1.48.15a4.27 4.27 0 001.33-2.53 3.91 3.91 0 00-3.61 3c-.783.208-1.554.458-2.31.75a4.2 4.2 0 00.81-2.92 3.904 3.904 0 00-2.8 3.83c-.688.367-1.356.771-2 1.21a4.25 4.25 0 00.1-3.07 3.89 3.89 0 00-1.8 4.35c-.4.34-.79.69-1.16 1a4.47 4.47 0 00-.49-2.63 3.899 3.899 0 00-1.15 4.43c-.42.52-.81 1.06-1.18 1.62a4.408 4.408 0 00-1-2.55 3.92 3.92 0 00-.2 4.64 21.873 21.873 0 00-1 2.22 4.11 4.11 0 00-1.63-2.51 3.92 3.92 0 001 4.65c-.19.774-.333 1.559-.43 2.35a4.21 4.21 0 00-2.22-2.12 3.899 3.899 0 002.1 4.27v1.63a4.332 4.332 0 00-2.34-1.51 3.907 3.907 0 002.64 3.84c.1.57.23 1.14.37 1.69a4.133 4.133 0 00-2.86-1.53 3.916 3.916 0 003.5 3.51c.292.732.626 1.446 1 2.14a3.926 3.926 0 00-3.36-1 3.91 3.91 0 004.26 2.59c.52.836 1.085 1.643 1.69 2.42a3.845 3.845 0 00-3.81-.38 3.919 3.919 0 004.81 1.45c.517.522 1.06 1.016 1.63 1.48a3.886 3.886 0 00-3.52.38 3.901 3.901 0 004.95.69c.567.39 1.155.751 1.76 1.08.14.115.287.222.44.32a3.806 3.806 0 00-3.68 1.07c.77.503 1.68.752 2.6.71a4.08 4.08 0 002.44-1.24c.694.298 1.405.555 2.13.77.221.131.456.238.7.32a3.87 3.87 0 00-3.33 1.9c.869.312 1.814.34 2.7.08a3.996 3.996 0 002.08-1.78c.79.143 1.588.24 2.39.29.177.044.358.074.54.09a3.844 3.844 0 00-2.76 2.65 3.928 3.928 0 004.23-2.7c.65 0 1.29-.08 1.93-.16a4.137 4.137 0 00-1.74 2.77 3.85 3.85 0 003.7-3.11 21.326 21.326 0 003.37-1.08 4.143 4.143 0 00-.908 1.463 4.148 4.148 0 00-.232 1.707 3.915 3.915 0 002.156-1.486 3.917 3.917 0 00.734-2.514 19.955 19.955 0 002.61-1.66 3.873 3.873 0 00-.69 3.77 3.926 3.926 0 001.84-4.7c1-.84 1.35-1.29 2.11-2.05a3.87 3.87 0 00.25 3.82 3.91 3.91 0 00.65-5c.418-.544.806-1.112 1.16-1.7a4.131 4.131 0 001 3.25 3.899 3.899 0 00-.06-4.92 21.61 21.61 0 001-2.37 3.877 3.877 0 001.6 3.16 3.921 3.921 0 00-1.1-4.86c.37-1.52.33-1.92.55-3a3.861 3.861 0 002.35 3 4.462 4.462 0 00-.3-2.69 4.352 4.352 0 00-2.03-1.79zm-.33.14a3.823 3.823 0 00-2.26 4.19 4.44 4.44 0 002-1.51c-.093.56-.203 1.11-.33 1.65a3.902 3.902 0 00-3.3 3.56 4.338 4.338 0 002.57-1.26c-.21.56-.45 1.11-.71 1.64a3.924 3.924 0 00-4 2.84 4.277 4.277 0 002.89-.82c-.3.48-.63.95-1 1.41a3.855 3.855 0 00-4.28 2.18c.81.194 1.657.163 2.45-.09-.37.36-.76.72-1.16 1.06a3.868 3.868 0 00-4.67 1.08 4.44 4.44 0 002.59.48c-.5.32-1.01.62-1.53.9a3.93 3.93 0 00-4.9-.12 4.22 4.22 0 002.86 1.07c-.946.375-1.919.679-2.91.91a4.33 4.33 0 00-2.12-1.55 4.466 4.466 0 00-2.7.22 4.2 4.2 0 002.66 1.71c-.62.07-1.24.12-1.88.13a3.922 3.922 0 00-4.43-1.87 4.62 4.62 0 001.54 1.74c-.5 0-1-.13-1.47-.22a3.824 3.824 0 00-3.83-2.78c.167.738.51 1.424 1 2-.48-.17-1-.35-1.43-.56a3.81 3.81 0 00-3-3.61 4.502 4.502 0 00.62 2.35c-.34-.2-.66-.41-1-.63a3.92 3.92 0 00-2.16-4.34 4.38 4.38 0 00.27 2.88c-.4-.35-.79-.72-1.16-1.1a3.88 3.88 0 00-1.46-4.57 4.499 4.499 0 00-.29 2.53c-.32-.44-.63-.88-.92-1.34a3.92 3.92 0 00-.26-4.85 4.22 4.22 0 00-.88 2.77c-.24-.5-.46-1-.66-1.54a3.88 3.88 0 00.9-4.8 4.003 4.003 0 00-1.53 2.82 18.969 18.969 0 01-.33-1.44 3.81 3.81 0 001.89-2 4.43 4.43 0 000-2.7 4 4 0 00-2 3.28c0-.13-.09-.26-.14-.39-.07-.708-.1-1.419-.09-2.13a4.188 4.188 0 002.09-1.73c.41-.826.553-1.759.41-2.67a4.002 4.002 0 00-2.4 2.57c.091-.858.235-1.71.43-2.55a4.19 4.19 0 002.45-1.17 4.46 4.46 0 001-2.5 3.994 3.994 0 00-3.11 2.25c.304-.985.685-1.945 1.14-2.87.94.209 1.924.04 2.74-.47a4.41 4.41 0 001.6-2.17 3.933 3.933 0 00-3.55 1.45c.054-.154.097-.311.13-.47a20.38 20.38 0 011.4-2 3.47 3.47 0 002.81.15 4.43 4.43 0 002-1.82 3.996 3.996 0 00-3.76.72 3.1 3.1 0 00.26-.55c.46-.467.94-.917 1.44-1.35a4 4 0 002.71.45 4.409 4.409 0 002.26-1.47 3.918 3.918 0 00-3.73 0 19.755 19.755 0 012.4-1.51 4.244 4.244 0 002.51 1 4.416 4.416 0 002.56-.88 4.005 4.005 0 00-3.64-.86 21.099 21.099 0 012.78-1 3.94 3.94 0 002.18 1.68 4.455 4.455 0 002.69-.26 3.995 3.995 0 00-3.44-1.68c.09 0 .17-.08.26-.12a21.125 21.125 0 012.27-.28 3.886 3.886 0 004.32 2.11 4.263 4.263 0 00-2-2.12c.53 0 1.06.07 1.58.14a3.916 3.916 0 003.94 2.78 4.462 4.462 0 00-1.44-2.29c.57.15 1.13.32 1.67.52.009.9.328 1.77.903 2.463a3.914 3.914 0 002.257 1.337 4.133 4.133 0 00-1.28-3c.686.327 1.353.691 2 1.09a3.907 3.907 0 00.445 2.551 3.906 3.906 0 001.945 1.709 4.2 4.2 0 00-.47-2.91c.589.47 1.153.971 1.69 1.5a3.888 3.888 0 001.29 4.69c.435-.94.517-2.005.23-3 .43.54.85 1.11 1.23 1.7a3.822 3.822 0 00.22 4.76 4.37 4.37 0 001-2.7c.21.43.4.86.58 1.31a3.92 3.92 0 00-.55 4.87 4.207 4.207 0 001.31-2.65c.15.54.28 1.08.38 1.64a3.861 3.861 0 00-1.2 4.63 4.61 4.61 0 001.53-1.82c.09.62.1 1.12.08 1.62z"/>
    <path fill="#FFCF03" d="M202.83 24.57H9.12c0 1.92.08 3.82.25 5.7 29.93.69 137 4.06 144.22 17.54 8.41 15.67-36.83 52.66-75.69 48.84h-.06a103.129 103.129 0 0016 1.63h24.29c46.99-1.11 84.7-33.68 84.7-73.71z"/>
    <g style="mix-blend-mode:screen">
      <path fill="#FFED78" d="M196.19 20H85.25a1.81 1.81 0 010-3.62h110.94a1.812 1.812 0 011.28 3.09c-.34.34-.8.53-1.28.53z"/>
    </g>
    <g style="mix-blend-mode:screen">
      <path fill="#FFED78" d="M75 20H48.47a1.81 1.81 0 010-3.62H75A1.81 1.81 0 1175 20z"/>
    </g>
    <g style="mix-blend-mode:screen">
      <path fill="#FFED78" d="M36.14 20H15.76a1.81 1.81 0 110-3.62h20.38a1.81 1.81 0 110 3.62z"/>
    </g>
  </g>
  <defs>
    <clipPath id="clip0_1245_3715">
      <path fill="#fff" d="M0 0h211.95v352.57H0z"/>
    </clipPath>
  </defs>
</svg>
