<svg xmlns="http://www.w3.org/2000/svg" width="273" height="411" fill="none" viewBox="0 0 273 411">
  <g clip-path="url(#clip0_1245_3746)">
    <path fill="#FC0" d="M240.12 162.72l-47.85-19.18-91.8 104.58 37.46-141.69-37.46-43.38 55.57-14.02L185.72 0l30.51 48.52 55.8 13.08-36.72 44 4.81 57.12z"/>
    <path fill="#FF970F" d="M240.12 162.72l-4.81-57.12 36.72-44-55.8-13.08L185.72 0l30.14 57.68 51.31 4.88-43.31 36.12 9.33 53-45.97-23.49-86.75 119.93 91.8-104.58 47.85 19.18z"/>
    <path fill="#FFB10F" d="M183.36 28.68l-19.67 31.5-47.83 7 54 3.98 13.5-42.48z" opacity=".63"/>
    <path fill="#FFDC01" d="M118 253.41H85.47v-2.65a16.25 16.25 0 0116.25-16.24A16.241 16.241 0 01118 250.76v2.65z"/>
    <path fill="#FFB10F" d="M45.09 249.86h110.76c2.079 0 4.073.826 5.544 2.296a7.843 7.843 0 012.296 5.544v2H37.25v-2a7.836 7.836 0 014.84-7.243 7.84 7.84 0 013-.597z"/>
    <path fill="#893003" d="M180.91 259.67H20.02v141.78h160.89V259.67z"/>
    <path fill="#7A2B03" d="M149.61 311.68c8 25.76 6.67 63.18 4.15 89.77h27.15V259.67H20s115.86 8.01 129.61 52.01z"/>
    <path fill="#FFB10F" d="M192.72 401H8.22L0 410.94h200.94l-8.22-9.94z"/>
    <path fill="#FF930F" d="M192.72 401H153.8l7.45 9.93h39.69l-8.22-9.93z"/>
    <path fill="#FC0" d="M139.86 314.21h-75.5a5.002 5.002 0 01-5 5v36.47a5.002 5.002 0 015 5h75.5c0-1.326.527-2.598 1.464-3.536a5.004 5.004 0 013.536-1.464v-36.47a5.004 5.004 0 01-3.536-1.464 5.004 5.004 0 01-1.464-3.536z"/>
    <path fill="#FFB10F" d="M64.36 314.21v.39l36.55 46.08H106l-36.86-46.47h-4.78zM59.36 319.21v2.49l30.91 39h2.55l-32.91-41.5a5.046 5.046 0 01-.55.01zM78.61 314.21l36.86 46.47h2.56l-36.86-46.47h-2.56zM88.41 314.21l36.85 46.47h3.83l-36.86-46.47h-3.82z"/>
  </g>
  <defs>
    <clipPath id="clip0_1245_3746">
      <path fill="#fff" d="M0 0h272.03v410.94H0z"/>
    </clipPath>
  </defs>
</svg>
