<svg xmlns="http://www.w3.org/2000/svg" width="165" height="242" fill="none" viewBox="0 0 165 242">
  <g clip-path="url(#clip0_1245_3829)">
    <path fill="#892020" d="M139.05 0l-27.23 66.73H55.26L80.4 0h58.65z"/>
    <path fill="#6B7384" d="M114.41 55.16H53.17a7.29 7.29 0 00-7.29 7.28v39h75.82v-39a7.291 7.291 0 00-7.29-7.28zm1.9 14.29H49.88v-3a5.87 5.87 0 015.87-5.87h54.69a5.87 5.87 0 015.87 5.87v3z"/>
    <path fill="#FA352C" d="M28.93 0l26.33 66.73h56.56L86.08 0H28.93z"/>
    <path fill="#FF740D" d="M65.68 66.73L38.81 0h-4.32l26.88 66.73h4.31zM78.87 66.73L51.99 0h-4.31l26.88 66.73h4.31zM91.57 66.73L64.7 0h-4.32l26.88 66.73h4.31zM105.23 66.73L78.35 0h-4.31l26.88 66.73h4.31z"/>
    <path fill="#798093" d="M163.692 170.405c5.902-45.007-25.8-86.276-70.807-92.178-45.007-5.901-86.276 25.8-92.178 70.807-5.9 45.007 25.8 86.277 70.808 92.178 45.007 5.901 86.276-25.8 92.177-70.807z"/>
    <path fill="#6B7384" d="M82.19 77.51h-2.43a82.2 82.2 0 010 164.32h2.43a82.187 82.187 0 0082.19-82.19 82.19 82.19 0 00-82.19-82.19v.06z"/>
    <path fill="#9EA8BA" d="M148.661 168.434c4.813-36.705-21.041-70.363-57.747-75.175C54.21 88.446 20.552 114.3 15.74 151.005c-4.813 36.706 21.041 70.363 57.746 75.176 36.706 4.813 70.363-21.041 75.176-57.747z"/>
    <path fill="#CAD5E5" d="M80.09 171.41h20.51v10.14H63.79V171.1c6.44-5.53 22.46-18.9 22.46-27.27 0-4.24-2.78-7.14-7.39-7.14-4.61 0-9.28 1.84-13.37 3.93l-.36-11.18c27.79-11 43.12 6.57 30 25.93-3.167 4.693-8.18 10.04-15.04 16.04z"/>
    <path fill="#BAC6D8" d="M74 206.3a10.388 10.388 0 013.32 5.48 10.682 10.682 0 01-6.17-2 10.389 10.389 0 01-3.32-5.48c2.214.011 4.37.71 6.17 2z"/>
    <path fill="#BAC6D8" d="M70.83 211.65a10.863 10.863 0 016.49.13 10.593 10.593 0 01-5 4.11 10.77 10.77 0 01-6.49-.13 10.594 10.594 0 015-4.11zM63.77 203.52a10.34 10.34 0 012.52 5.89 10.672 10.672 0 01-5.83-2.8 10.321 10.321 0 01-2.52-5.88 10.733 10.733 0 015.83 2.79z"/>
    <path fill="#BAC6D8" d="M59.88 208.4a10.752 10.752 0 016.41 1 10.643 10.643 0 01-5.49 3.39 10.775 10.775 0 01-6.41-1 10.618 10.618 0 015.49-3.39zM55.72 199.54a10.32 10.32 0 011.54 6.2 10.62 10.62 0 01-5.26-3.66 10.338 10.338 0 01-1.54-6.21 10.67 10.67 0 015.26 3.67zM51.1 203.75c2.21.014 4.363.713 6.16 2a10.685 10.685 0 01-6 2.5 10.698 10.698 0 01-6.16-2 10.686 10.686 0 016-2.5zM48.2 193.48a10.32 10.32 0 010 6.38 10.483 10.483 0 01-4.28-4.86 10.32 10.32 0 010-6.38 10.483 10.483 0 014.28 4.86z"/>
    <path fill="#BAC6D8" d="M42.68 196.46a10.618 10.618 0 015.49 3.4 10.806 10.806 0 01-6.41 1 10.625 10.625 0 01-5.49-3.41 10.734 10.734 0 016.41-.99zM42.51 186.45a10.278 10.278 0 01-1.55 6.2 9 9 0 01-1.42-11.88 10.431 10.431 0 012.97 5.68z"/>
    <path fill="#BAC6D8" d="M36.43 188.07a10.53 10.53 0 014.57 4.58 10.783 10.783 0 01-6.47-.52 10.42 10.42 0 01-4.53-4.58c2.146-.49 4.39-.308 6.43.52zM37.66 177.6a10.4 10.4 0 01-2.78 5.77 9 9 0 011-11.91 10.308 10.308 0 011.78 6.14z"/>
    <path fill="#BAC6D8" d="M31.38 178a10.367 10.367 0 013.5 5.37 10.67 10.67 0 01-6.23-1.77 10.418 10.418 0 01-3.51-5.37 10.774 10.774 0 016.24 1.77zM35.16 169.17a10.499 10.499 0 01-3.67 5.27 10.269 10.269 0 01-.76-6.35 10.44 10.44 0 013.67-5.26 10.33 10.33 0 01.76 6.34z"/>
    <path fill="#BAC6D8" d="M28.89 168.58a10.37 10.37 0 012.6 5.86 10.779 10.779 0 01-5.88-2.72 10.4 10.4 0 01-2.61-5.86 10.76 10.76 0 015.89 2.72zM34.89 159.77A10.548 10.548 0 0130 164a10.26 10.26 0 01.82-6.33 10.553 10.553 0 014.86-4.23 10.25 10.25 0 01-.79 6.33z"/>
    <path fill="#BAC6D8" d="M29 157.71a10.33 10.33 0 011 6.29 10.58 10.58 0 01-5-4 10.33 10.33 0 01-1.08-6.29 10.58 10.58 0 015.08 4zM36.56 150.29a10.641 10.641 0 01-5.73 3c.112-2.195.92-4.297 2.31-6a10.735 10.735 0 015.74-3 10.33 10.33 0 01-2.32 6z"/>
    <path fill="#BAC6D8" d="M31.28 146.9a10.28 10.28 0 01-.45 6.37 10.409 10.409 0 01-3.92-5.09 10.29 10.29 0 01.45-6.37 10.468 10.468 0 013.92 5.09zM40 142.49a10.742 10.742 0 01-6.28 1.62 10.432 10.432 0 013.64-5.29 10.71 10.71 0 016.27-1.62 10.451 10.451 0 01-3.63 5.29z"/>
    <path fill="#BAC6D8" d="M35.64 138a10.31 10.31 0 01-1.92 6.1 8.999 8.999 0 01-.72-11.92 10.35 10.35 0 012.64 5.82zM44.29 135.43a10.79 10.79 0 01-6.46.63 10.55 10.55 0 014.45-4.66 10.71 10.71 0 016.45-.62 10.503 10.503 0 01-4.44 4.65z"/>
    <path fill="#BAC6D8" d="M40.71 130.33a10.372 10.372 0 01-2.88 5.73 9 9 0 011.17-11.9 10.361 10.361 0 011.71 6.17zM92.19 205.85a10.353 10.353 0 00-3.31 5.49 10.786 10.786 0 006.17-2 10.352 10.352 0 003.31-5.49 10.762 10.762 0 00-6.17 2z"/>
    <path fill="#BAC6D8" d="M95.36 211.21a10.73 10.73 0 00-6.48.13 10.545 10.545 0 005 4.11c2.126.62 4.39.575 6.49-.13a10.526 10.526 0 00-5.01-4.11zM101.13 203.52a10.34 10.34 0 00-2.52 5.89 10.704 10.704 0 005.83-2.8 10.32 10.32 0 002.52-5.88 10.7 10.7 0 00-5.83 2.79z"/>
    <path fill="#BAC6D8" d="M105 208.4a10.727 10.727 0 00-6.4 1 10.642 10.642 0 005.49 3.39 10.774 10.774 0 006.41-1 10.617 10.617 0 00-5.5-3.39zM109.16 199.21a10.3 10.3 0 00-1.54 6.2 10.596 10.596 0 005.31-3.67 10.227 10.227 0 001.54-6.2 10.638 10.638 0 00-5.31 3.67z"/>
    <path fill="#BAC6D8" d="M113.79 203.42a10.756 10.756 0 00-6.17 2 9.323 9.323 0 0012.14.5 10.698 10.698 0 00-5.97-2.5zM116.43 193.3a10.263 10.263 0 000 6.39 10.48 10.48 0 004.25-4.83 10.306 10.306 0 000-6.39 10.549 10.549 0 00-4.25 4.83z"/>
    <path fill="#BAC6D8" d="M122 196.28a10.681 10.681 0 00-5.49 3.41 10.744 10.744 0 006.41 1 10.574 10.574 0 005.49-3.4 10.777 10.777 0 00-6.41-1.01zM122.42 185.81A10.322 10.322 0 00124 192a9 9 0 001.42-11.87 10.408 10.408 0 00-3 5.68z"/>
    <path fill="#BAC6D8" d="M128.5 187.43A10.49 10.49 0 00124 192c2.158.502 4.418.324 6.47-.51a10.536 10.536 0 004.52-4.58 10.771 10.771 0 00-6.49.52zM126.72 177.44a10.4 10.4 0 002.78 5.77 9 9 0 00-1-11.91 10.385 10.385 0 00-1.78 6.14z"/>
    <path fill="#BAC6D8" d="M133 177.84a10.414 10.414 0 00-3.51 5.37 10.775 10.775 0 006.24-1.77 10.414 10.414 0 003.51-5.37 10.775 10.775 0 00-6.24 1.77zM129.23 169a10.433 10.433 0 003.67 5.27 10.25 10.25 0 00.76-6.34 10.433 10.433 0 00-3.67-5.27 10.252 10.252 0 00-.76 6.34z"/>
    <path fill="#BAC6D8" d="M135.5 168.41a10.329 10.329 0 00-2.6 5.85 10.762 10.762 0 005.87-2.72 10.354 10.354 0 002.6-5.85 10.677 10.677 0 00-5.87 2.72zM129.46 159.91a10.623 10.623 0 004.86 4.23 10.33 10.33 0 00-.83-6.34 10.623 10.623 0 00-4.86-4.23 10.33 10.33 0 00.83 6.34z"/>
    <path fill="#BAC6D8" d="M135.4 157.84a10.273 10.273 0 00-1.08 6.3 10.598 10.598 0 005-4 10.28 10.28 0 001.08-6.3 10.532 10.532 0 00-5 4zM127.7 150.41a10.658 10.658 0 005.74 3 10.373 10.373 0 00-2.32-6 10.716 10.716 0 00-5.74-3 10.37 10.37 0 002.32 6z"/>
    <path fill="#BAC6D8" d="M133 147c-.53 2.118-.368 4.35.46 6.37a10.467 10.467 0 003.92-5.09 10.335 10.335 0 00-.46-6.37A10.531 10.531 0 00133 147zM124.36 142.75a10.742 10.742 0 006.28 1.62 10.436 10.436 0 00-3.64-5.29 10.71 10.71 0 00-6.27-1.62 10.447 10.447 0 003.63 5.29z"/>
    <path fill="#BAC6D8" d="M128.72 138.27a10.31 10.31 0 001.92 6.1 8.998 8.998 0 00.72-11.93 10.351 10.351 0 00-2.64 5.83zM119.82 135.74a10.79 10.79 0 006.46.63 10.576 10.576 0 00-4.44-4.66 10.827 10.827 0 00-6.46-.62 10.453 10.453 0 004.44 4.65z"/>
    <path fill="#BAC6D8" d="M123.4 130.64a10.443 10.443 0 002.88 5.73 9 9 0 00-1.21-11.9 10.358 10.358 0 00-1.67 6.17z"/>
    <path fill="#BAC6D8" d="M117.4 125.67c-.148.15-.305.29-.47.42l-.16.1a47.654 47.654 0 0117.14 36.32c0 27-23.23 48.91-51.79 48.91s-51.78-21.94-51.78-48.91a47.475 47.475 0 0115.77-35.1 4.871 4.871 0 01-.84-.33 48.239 48.239 0 00-15.76 35.43c0 27.4 23.6 49.7 52.61 49.7 29.01 0 52.62-22.3 52.62-49.7a48.388 48.388 0 00-17.34-36.84z"/>
    <path fill="#BAC6D8" d="M51.26 129.19c-2.186.358-4.429.03-6.42-.94a10.67 10.67 0 015.46-3.45 10.8 10.8 0 016.42.94 10.6 10.6 0 01-5.46 3.45z"/>
    <path fill="#BAC6D8" d="M49 123.39a10.433 10.433 0 01-4.2 4.86 10.24 10.24 0 01-.09-6.38A10.49 10.49 0 0149 117a10.27 10.27 0 010 6.39zM113.21 129.19c2.186.358 4.429.03 6.42-.94a10.67 10.67 0 00-5.46-3.45 10.8 10.8 0 00-6.42.94 10.599 10.599 0 005.46 3.45z"/>
    <path fill="#BAC6D8" d="M115.42 123.39a10.49 10.49 0 004.21 4.86 10.24 10.24 0 00.09-6.38 10.496 10.496 0 00-4.2-4.87 10.315 10.315 0 00-.1 6.39z"/>
  </g>
  <defs>
    <clipPath id="clip0_1245_3829">
      <path fill="#fff" d="M0 0h164.39v241.89H0z"/>
    </clipPath>
  </defs>
</svg>
