<svg xmlns="http://www.w3.org/2000/svg" width="202" height="359" fill="none" viewBox="0 0 202 359">
  <g clip-path="url(#clip0_1245_4035)">
    <path fill="#FFB10F" d="M120.29 87H81.54L69.71 300.25h62.53L120.29 87z"/>
    <path fill="#ED980E" d="M132.24 300.25L120.29 87H81.54l-1.44 25.89c8.34 4.62 19.36 14.4 24.24 34.73 8.34 34.67-17.35 54.7-17.35 54.7s17.51 24.56 13.6 97.93h31.65z"/>
    <path fill="#FFEC03" d="M193.68 0H8.14A8.13 8.13 0 000 8.14v4.47h201.82V8.14A8.129 8.129 0 00193.68 0z"/>
    <path fill="#FFCF03" d="M4.88 12.61c0 46.12 34.16 86.6 78.94 90 11.385.6 22.795.6 34.18 0 44.82-2.9 78.94-43.86 78.94-90H4.88z"/>
    <path fill="#FFB303" d="M163.75 12.61c.82 18.06-2.56 61.73-53 69.93-30.87 5-65.33-5.2-88.21-15.23 14.28 19.76 36.1 33.38 61.27 35.28 11.385.6 22.795.6 34.18 0 44.82-2.9 78.94-43.86 78.94-90h-33.18v.02z"/>
    <path fill="#FFEC03" d="M131.91 300.25h-62a12.5 12.5 0 00-12.5 12.5v.86h87v-.86a12.501 12.501 0 00-12.5-12.5z"/>
    <path fill="#893003" d="M53.66 313.61v40.89h94.5v-40.89h-94.5z"/>
    <path fill="#7A2B03" d="M148.16 354.5v-40.89h-37.9s20 4.18 22.49 17.93c1.15 6.3 1 15.19.47 23l14.94-.04z"/>
    <path fill="#FFEC03" d="M150.26 354.5h-98.7a3.771 3.771 0 00-3.77 3.78v.49H154v-.49a3.782 3.782 0 00-3.74-3.78z"/>
    <path fill="#D67205" d="M132.37 176.19c-.16 1.2-1.86 2.09-2.14 3.24-.28 1.15.8 2.75.39 3.86-.41 1.11-2.27 1.62-2.81 2.68s.17 2.86-.48 3.85c-.65.99-2.58 1.07-3.33 2-.75.93-.47 2.82-1.33 3.65-.86.83-2.75.46-3.7 1.19-.95.73-1.08 2.64-2.1 3.26-1.02.62-2.78-.15-3.87.35-1.09.5-1.63 2.34-2.77 2.71-1.14.37-2.67-.77-3.85-.52-1.18.25-2.11 1.91-3.31 2-1.2.09-2.42-1.35-3.63-1.37-1.21-.02-2.48 1.39-3.68 1.23-1.2-.16-2.09-1.86-3.24-2.14-1.15-.28-2.75.81-3.86.4-1.11-.41-1.66-2.27-2.66-2.8-1-.53-2.86.17-3.85-.48-.99-.65-1.07-2.58-2-3.34-.93-.76-2.82-.47-3.65-1.33-.83-.86-.47-2.75-1.19-3.69s-2.65-1.08-3.27-2.1c-.62-1.02.16-2.79-.34-3.87s-2.34-1.64-2.72-2.77c-.38-1.13.77-2.68.53-3.85s-1.92-2.12-2-3.31c-.08-1.19 1.35-2.43 1.38-3.63.03-1.2-1.4-2.49-1.24-3.68.16-1.19 1.86-2.1 2.14-3.24.28-1.14-.8-2.75-.39-3.86.41-1.11 2.24-1.63 2.78-2.63.54-1-.17-2.86.48-3.86s2.58-1.06 3.33-2 .47-2.82 1.33-3.65c.86-.83 2.75-.46 3.7-1.19.95-.73 1.08-2.65 2.1-3.26 1.02-.61 2.78.15 3.86-.35s1.64-2.34 2.78-2.71c1.14-.37 2.67.77 3.84.52s2.12-1.91 3.32-2c1.2-.09 2.42 1.35 3.63 1.37 1.21.02 2.48-1.39 3.68-1.24 1.2.15 2.09 1.86 3.23 2.15 1.14.29 2.76-.81 3.87-.4 1.11.41 1.62 2.28 2.68 2.81 1.06.53 2.86-.17 3.85.48.99.65 1.07 2.58 2 3.34.93.76 2.82.47 3.65 1.33.83.86.49 2.66 1.17 3.66.68 1 2.65 1.08 3.27 2.1.62 1.02-.16 2.78.34 3.87.5 1.09 2.34 1.64 2.72 2.77.38 1.13-.78 2.68-.53 3.85s1.91 2.11 2 3.31c.09 1.2-1.35 2.43-1.38 3.63-.03 1.2 1.43 2.47 1.27 3.66z"/>
    <path fill="#FF8B00" d="M132.64 172c0 1.21-1.57 2.32-1.7 3.49-.13 1.17 1.16 2.62.89 3.78-.27 1.16-2 1.9-2.44 3-.44 1.1.54 2.81 0 3.88-.54 1.07-2.42 1.39-3 2.4-.58 1.01-.1 2.86-.85 3.79-.75.93-2.66.82-3.51 1.66-.85.84-.72 2.76-1.66 3.51s-2.78.2-3.79.84c-1.01.64-1.32 2.53-2.4 3-1.08.47-2.75-.42-3.88 0s-1.85 2.17-3 2.44-2.58-1-3.78-.89c-1.2.11-2.28 1.7-3.49 1.7-1.21 0-2.31-1.57-3.48-1.7-1.17-.13-2.63 1.15-3.78.89-1.15-.26-1.9-2.05-3-2.44-1.1-.39-2.82.54-3.89 0-1.07-.54-1.39-2.42-2.39-3-1-.58-2.86-.1-3.79-.84-.93-.74-.88-2.69-1.7-3.51-.82-.82-2.76-.73-3.5-1.66-.74-.93-.21-2.78-.85-3.79-.64-1.01-2.53-1.32-3.05-2.4-.52-1.08.42-2.75 0-3.88s-2.17-1.85-2.43-3c-.26-1.15 1-2.59.89-3.78-.11-1.19-1.71-2.28-1.71-3.49 0-1.21 1.58-2.32 1.71-3.49.13-1.17-1.16-2.62-.89-3.78.27-1.16 2-1.9 2.43-3 .43-1.1-.54-2.81 0-3.88.54-1.07 2.42-1.39 3.05-2.4.63-1.01.1-2.86.85-3.79.75-.93 2.66-.82 3.51-1.66.85-.84.72-2.76 1.66-3.51s2.78-.2 3.79-.84c1.01-.64 1.32-2.53 2.4-3.05 1.08-.52 2.75.42 3.88 0s1.85-2.17 3-2.44 2.58 1 3.78.89c1.2-.11 2.28-1.7 3.48-1.7 1.2 0 2.32 1.57 3.49 1.7 1.17.13 2.63-1.15 3.78-.89 1.15.26 1.9 2 3 2.44 1.1.44 2.82-.54 3.89 0 1.07.54 1.39 2.42 2.39 3.05 1 .63 2.86.1 3.79.84.93.74.82 2.67 1.66 3.51.84.84 2.77.73 3.51 1.66.74.93.21 2.78.85 3.79.64 1.01 2.53 1.32 3 2.4.47 1.08-.42 2.75 0 3.88s2.18 1.85 2.44 3c.26 1.15-1 2.58-.89 3.78.11 1.2 1.73 2.24 1.73 3.49z"/>
    <path fill="#FFB10F" d="M100 202.32a30.357 30.357 0 01-28.06-18.744A30.361 30.361 0 11130.35 172 30.391 30.391 0 01100 202.32z"/>
    <path fill="#FFDC01" d="M128.62 172A28.63 28.63 0 11100 143.34c3.762 0 7.487.742 10.962 2.182a28.632 28.632 0 0115.491 15.513A28.625 28.625 0 01128.62 172z"/>
    <path fill="#FFDC01" d="M124.68 172a24.693 24.693 0 01-15.265 22.79 24.686 24.686 0 01-26.898-5.376A24.689 24.689 0 01100 147.28 24.679 24.679 0 01124.68 172z"/>
    <g style="mix-blend-mode:screen">
      <path fill="#FFED78" d="M156 5.79H64a1.5 1.5 0 010-3h92a1.502 1.502 0 011.061 2.56c-.282.282-.663.44-1.061.44z"/>
    </g>
    <g style="mix-blend-mode:screen">
      <path fill="#FFED78" d="M55.51 5.79h-22a1.5 1.5 0 010-3h22a1.5 1.5 0 010 3z"/>
    </g>
    <g style="mix-blend-mode:screen">
      <path fill="#FFED78" d="M23.29 5.79H6.38a1.5 1.5 0 010-3h16.91a1.5 1.5 0 010 3z"/>
    </g>
    <g style="mix-blend-mode:screen">
      <path fill="#FFED78" d="M100.08 194.19l-20.89-31.6a1.006 1.006 0 01.28-1.39 1.012 1.012 0 01.753-.148.993.993 0 01.637.428l20.89 31.61a1.002 1.002 0 01-.29 1.39 1.001 1.001 0 01-1.38-.29z"/>
    </g>
    <g style="mix-blend-mode:screen">
      <path fill="#FFED78" d="M107.93 192.34l-24-35.62a.999.999 0 01.63-1.541 1.007 1.007 0 01.752.146c.11.073.204.166.278.275l24 35.63a1 1 0 01-.63 1.532 1.009 1.009 0 01-1.03-.422z"/>
    </g>
    <g style="mix-blend-mode:screen">
      <path fill="#FFED78" d="M114.56 189.23l-20.75-29.62a1.002 1.002 0 011.64-1.15l20.75 29.63a.998.998 0 11-1.64 1.14z"/>
    </g>
    <g style="mix-blend-mode:screen">
      <path fill="#FFED78" d="M108 167.87l-11.17-15.25a.999.999 0 01.538-1.643 1.015 1.015 0 01.793.166 1 1 0 01.279.307l11.13 15.25a1.003 1.003 0 01-.248 1.363 1.001 1.001 0 01-1.372-.193h.05z"/>
    </g>
    <g style="mix-blend-mode:screen">
      <path fill="#FFED78" d="M119.26 304.29h-54a.503.503 0 01-.5-.5.5.5 0 01.5-.5h54c.133 0 .26.053.354.146a.504.504 0 010 .708.504.504 0 01-.354.146z"/>
    </g>
    <g style="mix-blend-mode:screen">
      <path fill="#FFED78" d="M140.76 357.14c-93.88-.24-89.25.49-89.25-.5a.5.5 0 01.5-.5c93.87.23 89.25-.49 89.25.5 0 .133-.053.26-.146.354a.504.504 0 01-.354.146z"/>
    </g>
  </g>
  <defs>
    <clipPath id="clip0_1245_4035">
      <path fill="#fff" d="M0 0h201.82v358.77H0z"/>
    </clipPath>
  </defs>
</svg>
