<svg xmlns="http://www.w3.org/2000/svg" width="156" height="257" fill="none" viewBox="0 0 156 257">
  <g clip-path="url(#clip0_1245_4724)">
    <path fill="#9EA8BA" d="M98.556 122.487c24.73-11.511 35.446-40.89 23.936-65.62-11.511-24.729-40.89-35.445-65.62-23.934-24.729 11.51-35.445 40.889-23.934 65.618 11.51 24.73 40.889 35.446 65.618 23.936z"/>
    <path fill="#6B7282" d="M144.72 70.47H8.39v16.67h136.33V70.47z"/>
    <path fill="#798093" d="M77.71 0a77.71 77.71 0 100 155.42A77.71 77.71 0 0077.71 0zm0 142.83A65.129 65.129 0 0131.646 31.646 65.13 65.13 0 01142.83 77.71a65.196 65.196 0 01-19.097 46.023A65.196 65.196 0 0177.71 142.83z"/>
    <path fill="#9DAED1" d="M76.94 4.06a73.65 73.65 0 1073.66 73.65A73.728 73.728 0 0076.94 4.06zm0 144.3a70.645 70.645 0 01-65.265-43.62A70.652 70.652 0 0163.171 8.417 70.65 70.65 0 01147.6 77.71a70.729 70.729 0 01-70.66 70.65z"/>
    <path fill="#FF2E2A" d="M127.1 256.73l-47.4-25.34-47.4 25.34V0h94.8v256.73z"/>
    <path fill="#E3211E" d="M39.64 0H32.3v256.73l7.34-3.93V0zM120.18 0v253.03l6.92 3.7V0h-6.92zM107.18 0H52.65v245.85l27.05-14.46 27.48 14.68V0z"/>
    <path fill="#BF0930" d="M69.63 236.77l10.07-5.38 6.43 3.43V0h-16.5v236.77z"/>
    <path fill="#BF0930" d="M32.3 123.94a64.738 64.738 0 0094.8-4.28v-83.9a64.732 64.732 0 00-46.467-22.814A64.74 64.74 0 0032.3 31.48v92.46z" opacity=".68"/>
    <path fill="#B0B9CC" d="M77.71 136.54a58.825 58.825 0 01-54.352-36.317A58.829 58.829 0 11136.54 77.71a58.906 58.906 0 01-17.251 41.579A58.906 58.906 0 0177.71 136.54z"/>
    <path fill="#9EA8BA" d="M98.556 122.487c24.73-11.511 35.446-40.89 23.936-65.62-11.511-24.729-40.89-35.445-65.62-23.934-24.729 11.51-35.445 40.889-23.934 65.618 11.51 24.73 40.889 35.446 65.618 23.936z"/>
    <g opacity=".43" style="mix-blend-mode:screen">
      <path fill="#B0B9CC" d="M106.31 37.46L45 114.72a49.221 49.221 0 004.33 3.42l61.29-77.24a51.265 51.265 0 00-4.31-3.44zM116.64 47.35L57 122.55c.86.4 1.74.78 2.63 1.13l58.71-74c-.54-.81-1.11-1.58-1.7-2.33zM94.6 31.29l-58.23 73.42c.52.81 1.07 1.59 1.65 2.37l59.26-74.72c-.88-.36-1.78-.74-2.68-1.07zM81.57 28.46L30.64 92.68a47.262 47.262 0 001.69 4.53l54-68.14a48.32 48.32 0 00-4.76-.61z" opacity=".43"/>
    </g>
    <path fill="#8A99AD" d="M32.3 77.71a49.45 49.45 0 0147.4-49.35 49.39 49.39 0 100 98.7 49.45 49.45 0 01-47.4-49.35z"/>
    <path fill="#BAC6D8" d="M74.84 94.29h20.51v10.14H58.54V94C65 88.45 81 75.08 81 66.71c0-4.24-2.78-7.14-7.39-7.14-4.61 0-9.28 1.84-13.37 3.93l-.36-11.17c27.79-11 43.12 6.56 30 25.92-3.167 4.693-8.18 10.04-15.04 16.04z"/>
    <path fill="#BAC6D8" d="M74.84 94.29h20.51v10.14H58.54V94C65 88.45 81 75.08 81 66.71c0-4.24-2.78-7.14-7.39-7.14-4.61 0-9.28 1.84-13.37 3.93l-.36-11.17c27.79-11 43.12 6.56 30 25.92-3.167 4.693-8.18 10.04-15.04 16.04z"/>
    <path fill="#798093" d="M56.54 106.43V93.06l1.53-1.31C63.79 86.85 79 73.83 79 66.71c0-3.22-2-5.14-5.39-5.14-3.39 0-7.61 1.22-12.46 3.71l-2.81 1.44L57.83 51l1.31-.51a45.84 45.84 0 0116.71-3.55c8.74 0 15.61 3.51 18.86 9.63C98.14 63 97 71.33 91.55 79.37A80.35 80.35 0 0180 92.29h17.35v14.14H56.54z"/>
    <path fill="#BAC6D8" d="M74.84 94.29h20.51v10.14H58.54V94C65 88.45 81 75.08 81 66.71c0-4.24-2.78-7.14-7.39-7.14-4.61 0-9.28 1.84-13.37 3.93l-.36-11.17c27.79-11 43.12 6.56 30 25.92-3.167 4.693-8.18 10.04-15.04 16.04z"/>
    <path fill="#CEDDF4" d="M70.63 51.5c4.79-1 12.21-1.31 15.8 1.56 3.48 2.25 7.59 12 0 22.61-4.23 5.78-11.25 12.75-16.63 17.5 4.59-4.75 12.09-12.64 15.87-18 3.78-5.36 5.61-12.72 2.6-18.46-1.76-3.88-5.38-5-9.65-5.4a36.22 36.22 0 00-7.99.19zM22.27 84.05A54.81 54.81 0 0136 39.34a.5.5 0 01.74.67 53.76 53.76 0 00-13.47 43.9.51.51 0 01-1 .14zM28.86 103.31A54.38 54.38 0 0123.21 89a.513.513 0 111-.23c2.74 11.55 6.6 14.06 5.36 14.77-.11 0-.57 0-.71-.23zM76.56 131.07a54.94 54.94 0 01-45-23.48.506.506 0 01-.015-.558.497.497 0 01.51-.227.502.502 0 01.325.205 53.918 53.918 0 0044.18 23.06.503.503 0 01.5.5.501.501 0 01-.5.5zM111.85 116.89a53.844 53.844 0 0013.038-64.362A53.851 53.851 0 00110.3 34.29a.5.5 0 01.262-.889.501.501 0 01.368.109 54.856 54.856 0 0120.446 41.703A54.842 54.842 0 01112.5 117.65a.502.502 0 01-.65-.76zM40.92 34.56a55.659 55.659 0 019.5-6.56.501.501 0 11.48.88 54.055 54.055 0 00-9.33 6.42.5.5 0 01-.65-.74z"/>
  </g>
  <defs>
    <clipPath id="clip0_1245_4724">
      <path fill="#fff" d="M0 0h155.42v256.72H0z"/>
    </clipPath>
  </defs>
</svg>
