<svg xmlns="http://www.w3.org/2000/svg" width="131" height="144" fill="none" viewBox="0 0 131 144">
  <g clip-path="url(#clip0_1245_4107)">
    <path fill="#FFDC01" d="M77.43 73.06c-10.57-55.63-10.7-56.28-10.7-56.29 0-.01-.12.66-10.7 56.29-11.4-11.4-38.61-14.88-38.61-14.88 18.14 7.44 22.37 77.22 22.37 77.22h54.07s4-69.78 22.19-77.22c0 0-27.22 3.48-38.62 14.88z"/>
    <path fill="#FFDC01" d="M66.73 16.77s-.16.88-10.7 56.29c-11.4-11.4-38.61-14.88-38.61-14.88 18.14 7.44 22.37 77.22 22.37 77.22h25.48c10.65-28.61 1.47-118.57 1.46-118.63z" opacity=".43"/>
    <path fill="#FFE7B6" d="M50.5 113.77c-1.73-19.1-14-44.79-14-44.85-1.5-2.48-5.9.08-4.13 2.86A109.329 109.329 0 0149.26 114c.919 5.039 1.5 10.134 1.74 15.25a117.81 117.81 0 00-.5-15.48z"/>
    <path fill="#FFDC01" d="M9.25 64.25a9.25 9.25 0 100-18.5 9.25 9.25 0 000 18.5z"/>
    <path fill="#FFB703" d="M13.29 46.68c4.46 7.83-3.92 16.87-12.08 12.89a9.25 9.25 0 1012.08-12.89z"/>
    <path fill="#FFF876" d="M9.85 47.94c-6.75 1.55-6.77 6.2-7.29 9.68C1 51 5.57 47.37 9.85 47.94z"/>
    <path fill="#FFDC01" d="M73.44 15.62a9.25 9.25 0 11-.34-13.08 9.24 9.24 0 01.34 13.08z"/>
    <path fill="#FFB703" d="M75.39 6c-2.15 8.75-14.45 9.53-17.64 1a9.25 9.25 0 1017.64-1z"/>
    <path fill="#FFF876" d="M72 4.54c-6-3.52-9.18-.16-12 2 3.5-5.89 9.31-5.36 12-2z"/>
    <path fill="#FFDC01" d="M122 63.06a9.248 9.248 0 008.255-11.678 9.246 9.246 0 00-7.772-6.727 9.251 9.251 0 00-7.201 16.173A9.251 9.251 0 00122 63.06z"/>
    <path fill="#FFB703" d="M113.34 58.47c8.13 3.88 16.54-5.13 12-13a9.25 9.25 0 11-12 13z"/>
    <path fill="#FFF876" d="M114.34 55c1.07-6.85 5.71-7.21 9.14-8-6.73-1.11-10 3.71-9.14 8z"/>
    <path fill="#FFB10F" d="M93.8 135.4H39.67a5.153 5.153 0 00-5.15 5.15V144h64.42v-3.4a5.15 5.15 0 00-5.14-5.2z"/>
    <path fill="#D68A05" d="M98.94 140.55a5.15 5.15 0 00-5.14-5.15c2.42 0 4.07 5.85-.68 6.85-4 .84-45.25.27-58.6.07V144h64.42v-3.45z"/>
  </g>
  <defs>
    <clipPath id="clip0_1245_4107">
      <path fill="#fff" d="M0 0h130.6v143.95H0z"/>
    </clipPath>
  </defs>
</svg>
