<svg xmlns="http://www.w3.org/2000/svg" width="165" height="242" fill="none" viewBox="0 0 165 242">
  <g clip-path="url(#clip0_1245_3764)">
    <path fill="#8E2323" d="M139.05 0l-27.23 66.73H55.26L80.4 0h58.65z"/>
    <path fill="#C95506" d="M114.41 55.16H53.17a7.28 7.28 0 00-7.28 7.28v39h75.81v-39a7.289 7.289 0 00-2.136-5.151 7.282 7.282 0 00-5.154-2.129zm1.9 14.29H49.88v-3a5.87 5.87 0 015.87-5.87h54.69a5.87 5.87 0 015.87 5.87v3z"/>
    <path fill="#FA352C" d="M28.93 0l26.33 66.73h56.56L86.08 0H28.93z"/>
    <path fill="#7F0B0B" d="M67.79 66.73L39.45 0h-3.26l28.34 66.73h3.26zM78.18 66.73L49.84 0h-3.26l28.34 66.73h3.26zM90.03 66.73L61.69 0h-3.26l28.34 66.73h3.26zM101.43 66.73L73.09 0h-3.26l28.34 66.73h3.26z"/>
    <path fill="#FFB839" d="M163.324 172.879c7.273-44.806-23.154-87.024-67.96-94.297C50.56 71.309 8.342 101.735 1.069 146.54c-7.274 44.806 23.153 87.024 67.959 94.297 44.806 7.273 87.024-23.153 94.297-67.959z"/>
    <path fill="#EA7603" d="M139 100.32a82.194 82.194 0 01-1.383 114.807A82.189 82.189 0 0122.81 216.53a82.18 82.18 0 0058.515 25.489A82.192 82.192 0 00139 100.32z"/>
    <path fill="#FF9B50" d="M148.36 170.45c5.931-36.542-18.883-70.973-55.424-76.904-36.542-5.932-70.973 18.883-76.904 55.424-5.932 36.541 18.882 70.972 55.424 76.904 36.541 5.931 70.972-18.883 76.904-55.424z"/>
    <g opacity=".69" style="mix-blend-mode:screen">
      <path fill="#FFB448" d="M75.6 207.08a10.389 10.389 0 013.31 5.49 10.738 10.738 0 01-6.16-2 10.319 10.319 0 01-3.32-5.48c2.213.011 4.368.706 6.17 1.99z" opacity=".69"/>
      <path fill="#FFB448" d="M72.43 212.44a10.73 10.73 0 016.48.13 10.544 10.544 0 01-5 4.11c-2.125.626-4.392.58-6.49-.13a10.526 10.526 0 015.01-4.11zM65.37 204.31a10.42 10.42 0 012.52 5.89 10.706 10.706 0 01-5.84-2.8 10.402 10.402 0 01-2.52-5.88 10.74 10.74 0 015.84 2.79z" opacity=".69"/>
      <path fill="#FFB448" d="M61.48 209.19a10.744 10.744 0 016.41 1 10.641 10.641 0 01-5.5 3.39 10.752 10.752 0 01-6.41-1 10.64 10.64 0 015.5-3.39zM57.32 200.33a10.32 10.32 0 011.54 6.2 10.6 10.6 0 01-5.31-3.67 10.298 10.298 0 01-1.54-6.2 10.6 10.6 0 015.31 3.67z" opacity=".69"/>
      <path fill="#FFB448" d="M52.69 204.54c2.214.013 4.37.712 6.17 2a10.685 10.685 0 01-6 2.5 10.754 10.754 0 01-6.17-2 10.679 10.679 0 016-2.5zM49.8 194.27a10.28 10.28 0 010 6.38 10.49 10.49 0 01-4.24-4.83 10.24 10.24 0 010-6.38 10.54 10.54 0 014.24 4.83z" opacity=".69"/>
      <path fill="#FFB448" d="M44.27 197.25c2.14.533 4.06 1.722 5.49 3.4a10.775 10.775 0 01-6.41 1 10.68 10.68 0 01-5.49-3.41 10.75 10.75 0 016.41-.99zM44.11 187.24a10.33 10.33 0 01-1.56 6.2 9.002 9.002 0 01-1.41-11.88 10.43 10.43 0 012.97 5.68z" opacity=".69"/>
      <path fill="#FFB448" d="M38 188.86a10.48 10.48 0 014.52 4.58 10.743 10.743 0 01-6.46-.52 10.48 10.48 0 01-4.53-4.58 10.775 10.775 0 016.47.52zM39.26 178.39a10.4 10.4 0 01-2.78 5.77 9 9 0 011-11.91 10.308 10.308 0 011.78 6.14z" opacity=".69"/>
      <path fill="#FFB448" d="M33 178.79a10.418 10.418 0 013.51 5.37 10.67 10.67 0 01-6.23-1.77 10.418 10.418 0 01-3.54-5.39 10.76 10.76 0 016.26 1.79zM36.75 170a10.379 10.379 0 01-3.67 5.26 10.32 10.32 0 01-.76-6.34 10.491 10.491 0 013.68-5.3 10.29 10.29 0 01.75 6.38z" opacity=".69"/>
      <path fill="#FFB448" d="M30.48 169.37a10.36 10.36 0 012.6 5.85 10.713 10.713 0 01-5.87-2.71 10.37 10.37 0 01-2.6-5.86 10.762 10.762 0 015.87 2.72zM36.48 160.56a10.553 10.553 0 01-4.86 4.23 10.3 10.3 0 01.83-6.33 10.554 10.554 0 014.86-4.23 10.3 10.3 0 01-.83 6.33z" opacity=".69"/>
      <path fill="#FFB448" d="M30.54 158.5a10.24 10.24 0 011.08 6.29 10.53 10.53 0 01-5-4 10.27 10.27 0 01-1.08-6.3 10.58 10.58 0 015 4.01zM38.16 151.08a10.69 10.69 0 01-5.74 3 10.37 10.37 0 012.32-6 10.715 10.715 0 015.74-3 10.41 10.41 0 01-2.32 6z" opacity=".69"/>
      <path fill="#FFB448" d="M32.88 147.69a10.24 10.24 0 01-.46 6.37A10.472 10.472 0 0128.5 149a10.34 10.34 0 01.5-6.4 10.53 10.53 0 013.88 5.09zM41.59 143.28a10.79 10.79 0 01-6.27 1.62 10.452 10.452 0 013.68-5.29 10.736 10.736 0 016.23-1.61 10.428 10.428 0 01-3.64 5.28z" opacity=".69"/>
      <path fill="#FFB448" d="M37.24 138.8a10.35 10.35 0 01-1.92 6.1 9 9 0 01-.72-11.9 10.399 10.399 0 012.64 5.8zM45.89 136.22a10.742 10.742 0 01-6.46.62 10.503 10.503 0 014.44-4.65 10.742 10.742 0 016.46-.62 10.502 10.502 0 01-4.44 4.65z" opacity=".69"/>
      <path fill="#FFB448" d="M42.31 131.12a10.392 10.392 0 01-2.88 5.72 10.33 10.33 0 01-1.67-6.17 10.428 10.428 0 012.88-5.67 10.36 10.36 0 011.67 6.12zM93.79 206.64a10.399 10.399 0 00-3.32 5.49 10.762 10.762 0 006.17-2 10.4 10.4 0 003.32-5.49 10.762 10.762 0 00-6.17 2z" opacity=".69"/>
      <path fill="#FFB448" d="M97 212a10.77 10.77 0 00-6.49.13 10.538 10.538 0 005 4.1c2.125.626 4.39.584 6.49-.12a10.594 10.594 0 00-5-4.11zM102.72 204.31a10.421 10.421 0 00-2.52 5.89 10.706 10.706 0 005.84-2.8 10.399 10.399 0 002.52-5.88 10.74 10.74 0 00-5.84 2.79z" opacity=".69"/>
      <path fill="#FFB448" d="M106.61 209.19a10.744 10.744 0 00-6.41 1 10.644 10.644 0 005.5 3.39 10.752 10.752 0 006.41-1 10.644 10.644 0 00-5.5-3.39zM110.76 200a10.293 10.293 0 00-1.54 6.2 10.6 10.6 0 005.31-3.67 10.325 10.325 0 001.54-6.2 10.596 10.596 0 00-5.31 3.67z" opacity=".69"/>
      <path fill="#FFB448" d="M115.38 204.21a10.696 10.696 0 00-6.16 2 10.687 10.687 0 006 2.5 10.802 10.802 0 006.17-2 10.71 10.71 0 00-6.01-2.5zM118 194.09a10.306 10.306 0 000 6.39 10.554 10.554 0 004.24-4.83c.68-2.076.68-4.314 0-6.39a10.537 10.537 0 00-4.24 4.83z" opacity=".69"/>
      <path fill="#FFB448" d="M123.55 197.07a10.623 10.623 0 00-5.49 3.41 9.34 9.34 0 0011.9-2.41 10.806 10.806 0 00-6.41-1zM124 186.6a10.324 10.324 0 001.56 6.19 8.995 8.995 0 001.44-11.87 10.408 10.408 0 00-3 5.68z" opacity=".69"/>
      <path fill="#FFB448" d="M130.1 188.21a10.536 10.536 0 00-4.52 4.58c2.158.502 4.418.324 6.47-.51a10.54 10.54 0 004.52-4.58 10.82 10.82 0 00-6.47.51zM128.32 178.23a10.4 10.4 0 002.78 5.77 9 9 0 00-1-11.91 10.31 10.31 0 00-1.78 6.14z" opacity=".69"/>
      <path fill="#FFB448" d="M134.61 178.63a10.414 10.414 0 00-3.51 5.37 10.775 10.775 0 006.24-1.77 10.368 10.368 0 003.5-5.37 10.67 10.67 0 00-6.23 1.77zM130.83 169.78a10.433 10.433 0 003.67 5.27 10.355 10.355 0 00.76-6.35 10.493 10.493 0 00-3.68-5.26 10.292 10.292 0 00-.75 6.34z" opacity=".69"/>
      <path fill="#FFB448" d="M137.1 169.19a10.37 10.37 0 00-2.6 5.86 10.762 10.762 0 005.87-2.72 10.354 10.354 0 002.6-5.85 10.714 10.714 0 00-5.87 2.71zM131.05 160.7a10.636 10.636 0 004.87 4.23 10.33 10.33 0 00-.83-6.34 10.623 10.623 0 00-4.86-4.23 10.292 10.292 0 00.82 6.34z" opacity=".69"/>
      <path fill="#FFB448" d="M137 158.63a10.307 10.307 0 00-1.07 6.3 10.652 10.652 0 005-4 10.361 10.361 0 001.08-6.3 10.579 10.579 0 00-5.01 4zM129.3 151.2a10.626 10.626 0 005.73 3 10.318 10.318 0 00-2.31-6 10.658 10.658 0 00-5.74-3 10.289 10.289 0 002.32 6z" opacity=".69"/>
      <path fill="#FFB448" d="M134.58 147.82a10.283 10.283 0 00.45 6.37 10.415 10.415 0 003.97-5.09 10.29 10.29 0 00-.45-6.37 10.472 10.472 0 00-3.97 5.09zM126 143.54a10.742 10.742 0 006.28 1.62 10.436 10.436 0 00-3.64-5.29 10.742 10.742 0 00-6.28-1.62 10.436 10.436 0 003.64 5.29z" opacity=".69"/>
      <path fill="#FFB448" d="M130.32 139.06a10.35 10.35 0 001.92 6.1 9 9 0 00.71-11.93 10.374 10.374 0 00-2.63 5.83zM121.42 136.53a10.757 10.757 0 006.45.63 10.502 10.502 0 00-4.44-4.66 10.827 10.827 0 00-6.46-.62 10.496 10.496 0 004.45 4.65z" opacity=".69"/>
      <path fill="#FFB448" d="M125 131.43a10.393 10.393 0 002.87 5.73 9 9 0 00-1.21-11.9 10.307 10.307 0 00-1.66 6.17z" opacity=".69"/>
      <path fill="#FFB448" d="M119 126.46c-.151.15-.312.29-.48.42l-.16.1a47.641 47.641 0 0117.15 36.32c0 27-23.23 48.91-51.79 48.91s-51.78-21.94-51.78-48.91a47.5 47.5 0 0115.76-35.1 5.15 5.15 0 01-.83-.33A48.207 48.207 0 0031.1 163.3c0 27.4 23.61 49.7 52.62 49.7 29.01 0 52.62-22.3 52.62-49.7a48.443 48.443 0 00-4.61-20.331A48.443 48.443 0 00119 126.46z" opacity=".69"/>
      <path fill="#FFB448" d="M52.86 130c-2.186.358-4.429.03-6.42-.94a10.67 10.67 0 015.46-3.45 10.668 10.668 0 016.41.94 10.55 10.55 0 01-5.45 3.45z" opacity=".69"/>
      <path fill="#FFB448" d="M50.64 124.18a10.433 10.433 0 01-4.2 4.86 10.28 10.28 0 01-.1-6.38 10.541 10.541 0 014.21-4.87 10.36 10.36 0 01.09 6.39zM114.8 130c2.186.358 4.429.03 6.42-.94a9.308 9.308 0 00-11.87-2.51 10.601 10.601 0 005.45 3.45z" opacity=".69"/>
      <path fill="#FFB448" d="M117 124.18a10.488 10.488 0 004.2 4.86c.709-2.062.744-4.297.1-6.38a10.549 10.549 0 00-4.2-4.87 10.315 10.315 0 00-.1 6.39z" opacity=".69"/>
    </g>
    <path fill="#FFB839" d="M92.4 152.14c6.6 1.75 10.6 5.92 10.6 12.79 0 16.41-23 18.79-38.48 14.5l.82-11.43c6 3.09 15.77 4.28 20.79 1a5.94 5.94 0 00.71-9.85c-3.29-2.32-8.38-1.38-13.16-1.6v-9.71h6.07c11.91 0 12.19-12.48-.3-12.48A35.043 35.043 0 0067 137.8l-.64-10.26a53.813 53.813 0 018-1.81C103.83 121.3 105 141 99.61 147.65a14.211 14.211 0 01-7.21 4.49z"/>
  </g>
  <defs>
    <clipPath id="clip0_1245_3764">
      <path fill="#fff" d="M0 0h164.39v241.89H0z"/>
    </clipPath>
  </defs>
</svg>
