<svg xmlns="http://www.w3.org/2000/svg" width="158" height="124" fill="none" viewBox="0 0 158 124">
  <g clip-path="url(#clip0_1245_4071)">
    <path fill="#FFB600" d="M157.25 67s-14.19 4-24.19 14V38.61l-24.2 32.11-6-47.92-10.28 20.47L78.62 0v.12l-14 43.27-10.19-20.47-6 47.92-24.24-32.1v42.34c-10-10-24.19-14-24.19-14C13.72 80.84 13 116 13 116h131.22s-.7-35.28 13.03-49z"/>
    <path fill="#FFB600" d="M64.67 43.39L54.43 22.92l-6 47.92-24.24-32.1v42.34c-10-10-24.19-14-24.19-14C13.34 80.46 13.05 114 13 115.89c18.52.83 48 .38 62.17-11.55C102.54 81.28 78.62 0 78.62 0v.12L64.67 43.39z" opacity=".44"/>
    <path fill="#FFB600" d="M18 116c-.26-7.69-1.35-22.2-5.74-34.63 7.69 5 10 9 17 15.86V55.65L51.8 87.24l5.53-46.1 8.34 17.56 13-42.35 12.91 42.22L99.92 41l5.53 46.1 22.61-31.59v41.56c6.93-6.89 9.31-10.94 17-15.88-4.41 12.48-5.5 27.06-5.76 34.78L18 116z" opacity=".31"/>
    <path fill="#FFE7B6" d="M77.87 111.57L59.61 62.05a1.5 1.5 0 012.82-1l15.44 50.52zM54.2 110.57c-18.89-30-22.09-31.23-19.68-32.8a1.49 1.49 0 012.07.43c.07.1.96 1.74 17.61 32.37zM30.2 112.91L19.42 98.19a1.51 1.51 0 012.43-1.78c.05.07.26.49 8.35 16.5zM80.87 90.41c-3-42.66-5.25-45.3-2.37-45.55a1.49 1.49 0 011.62 1.37c.17 1.94-.12-10.23.75 44.18zM84.2 111.57l12.56-50.4a1.5 1.5 0 112.91.73s-.9 2.9-15.47 49.67zM105.87 110.57l14.3-34.46a1.527 1.527 0 112.83 1.15l-17.13 33.31zM122.37 112.91L134.45 98a1.502 1.502 0 112.33 1.9c-.14.21-.34.37-14.41 13.01z"/>
    <path fill="#D67205" d="M13 116v8h131.22v-8H13z"/>
    <path fill="#B25B06" d="M13 123.94h131.22v-8s-26.02 8-131.22 8z"/>
  </g>
  <defs>
    <clipPath id="clip0_1245_4071">
      <path fill="#fff" d="M0 0h157.25v123.94H0z"/>
    </clipPath>
  </defs>
</svg>
