<svg xmlns="http://www.w3.org/2000/svg" width="159" height="135" fill="none" viewBox="0 0 159 135">
  <g clip-path="url(#clip0_1245_4087)">
    <path fill="#FFB10F" d="M124.68 41.3s6.52 28.38 0 47-21.86 34.94-21.86 34.94H83.28s-13.96-59.15 41.4-81.94z"/>
    <path fill="#F7A006" d="M83.28 123.23h19.54C91.94 91.58 124.68 41.3 124.68 41.3c-55.36 22.79-41.4 81.93-41.4 81.93z"/>
    <path fill="#FFB10F" d="M33.5 41.3s-6.52 28.38 0 47 21.86 34.94 21.86 34.94H74.9S88.86 64.09 33.5 41.3z"/>
    <path fill="#F7A006" d="M33.5 41.3s37.87 50.28 21.86 81.93H74.9S88.86 64.09 33.5 41.3z"/>
    <path fill="#FFDC01" d="M103.75 92.47s-5.59-50.24-24.66-74c-19.07 23.73-24.66 74-24.66 74C43.27 68.75 0 56.65 0 56.65c11.63 16.75 26 67 26 67h106.23s14.32-50.24 26-67c-.05 0-43.32 12.1-54.48 35.82z"/>
    <path fill="#FFB703" d="M74.21 25.59s20.59 7.81 29.54 66.88c0 0-5.59-50.24-24.66-74a61.422 61.422 0 00-4.88 7.09v.03z"/>
    <g style="mix-blend-mode:screen">
      <path fill="#FFDC01" d="M56.36 119.21L13.72 73c-2.69-2.92 1.72-7 4.42-4.07.06.07-1.46-1.93 38.22 50.28z"/>
    </g>
    <g style="mix-blend-mode:screen">
      <path fill="#FFDC01" d="M106.3 119.21l35-50c2.27-3.25 7.2.19 4.92 3.45-.08.1 1.99-2.31-39.92 46.55z"/>
    </g>
    <g style="mix-blend-mode:screen">
      <path fill="#FFDC01" d="M79.09 117.88l-3-82.68c-.14-3.84 5.86-4.05 6-.2.01.19.12-3.29-3 82.88z"/>
    </g>
    <path fill="#FFB10F" d="M132.23 123.64H26c-4.3 4.3-7.12 6.81-11.42 11.11h129.07c-4.3-4.3-7.12-6.81-11.42-11.11z"/>
    <path fill="#FFDC01" d="M85.8 15.62a9.25 9.25 0 11-.34-13.08 9.26 9.26 0 01.34 13.08z"/>
    <path fill="#FFB703" d="M87.75 6c-2.15 8.75-14.46 9.53-17.64 1a9.25 9.25 0 1017.64-1z"/>
    <path fill="#FFF876" d="M84.39 4.54c-6-3.52-9.19-.16-12 2 3.47-5.89 9.28-5.36 12-2z"/>
  </g>
  <defs>
    <clipPath id="clip0_1245_4087">
      <path fill="#fff" d="M0 0h158.18v134.75H0z"/>
    </clipPath>
  </defs>
</svg>
