<svg xmlns="http://www.w3.org/2000/svg" width="244" height="445" fill="none" viewBox="0 0 244 445">
  <g clip-path="url(#clip0_1245_4786)">
    <path fill="#FF8B00" d="M140.12 273.87h-36.46c.08.28 12 17.23 0 33.95h36.46c-12.01-16.82-.12-33.62 0-33.95z"/>
    <path fill="#F08300" d="M103.66 273.87a37.02 37.02 0 011.83 3.31c.18 0 11.51.72 17 10.39 4.33 7.67 1.85 16.73.59 20.25h17.07c-12-16.8-.08-33.62 0-33.95h-36.49z"/>
    <path fill="#E87E00" d="M193.26 200.21c9.91-11.14 21.91-18.34 33-24.05a10.178 10.178 0 005.62-9v-56.91c0-3.66-5.34-2-8.52-2.35-4 0-1.7 6-2.35 16a13.325 13.325 0 01-3.901 9.409 13.325 13.325 0 01-9.409 3.901h-14.3v-11.84h14.3c2.56 0 .94-3.47 1.44-15.12a14.24 14.24 0 014.171-10.086A14.23 14.23 0 01223.4 96h6.18a14.23 14.23 0 0114.21 14.21v56.86c0 25.73-28.37 23.16-52 56.66-1.86 2.64-9 9.26-9 9.26a72.002 72.002 0 0010.47-32.78z"/>
    <path fill="#FF8B00" d="M50.53 200.21c-9.91-11.14-21.91-18.34-33-24.05a10.176 10.176 0 01-5.62-9v-56.91c0-3.66 5.34-2 8.53-2.35 4 0 1.69 6 2.34 16a13.322 13.322 0 0013.31 13.31h14.3v-11.84H36.05c-2.56 0-.94-3.47-1.44-15.12A14.227 14.227 0 0020.4 96h-6.18A14.23 14.23 0 000 110.25v56.86c0 25.73 28.37 23.16 52 56.66 1.87 2.64 9 9.26 9 9.26a72.002 72.002 0 01-10.47-32.82z"/>
    <path fill="#FFEA01" d="M160.31 80.87H83.48L64 99.17h115.84l-19.53-18.3z"/>
    <path fill="#FFB600" d="M189.24 99.17H54.55a11.62 11.62 0 00-11.62 11.62h157.93a11.622 11.622 0 00-11.62-11.62z"/>
    <path fill="#D67205" d="M42.93 110.79v3a6.677 6.677 0 006.68 6.68h144.57a6.69 6.69 0 004.724-1.957 6.68 6.68 0 001.956-4.723v-3H42.93z"/>
    <path fill="#CC6F00" d="M193.26 200.21A72.004 72.004 0 01182.72 233s7.17-6.62 9-9.26c.82-1.16 1.64-2.27 2.47-3.34a77.291 77.291 0 004.22-25.34v-.19c-1.75 1.7-3.48 3.46-5.15 5.34zM198.44 125.37h-5v11.87h5v-11.87z"/>
    <path fill="#FF5E00" d="M50.53 200.21c-1.67-1.88-3.4-3.64-5.18-5.31v.19a77.3 77.3 0 004.22 25.34c.83 1.07 1.65 2.18 2.47 3.34 1.87 2.64 9 9.26 9 9.26a72.003 72.003 0 01-10.51-32.82zM50.35 125.37h-5v11.87h5v-11.87z"/>
    <path fill="#FFB600" d="M50.35 120.43v74.66a72.457 72.457 0 0051.58 69.38h39.94a72.466 72.466 0 0037.265-26.157 72.468 72.468 0 0014.305-43.223v-74.66H50.35z"/>
    <path fill="#FFB600" d="M90.47 259.93c20.64-17.42 34.12-46.19 34.12-78.74 0-23-6.76-44.19-18-60.76H50.35v74.66a72.433 72.433 0 0040.12 64.84z"/>
    <path fill="#D67205" d="M101.93 264.47v9.4h39.94v-9.4h-39.94z"/>
    <path fill="#BD6504" d="M101.93 267.47h39.94v-3h-39.94v3z"/>
    <path fill="#D67205" d="M141.86 307.82h-39.93a6.67 6.67 0 00-6.67 6.67v1.07h53.27v-1.07a6.667 6.667 0 00-6.67-6.67z"/>
    <path fill="#FFB10F" d="M87.68 315.56v71.53h68.43v-71.53H87.68z"/>
    <path fill="#FFB10F" d="M87.68 382.16c1.98.352 3.988.529 6 .53 23.06 0 41.75-22.94 41.75-51.25a62.236 62.236 0 00-2-15.88H87.68v66.6z"/>
    <path fill="#FFDC01" d="M163.58 387.09H80.21a4.94 4.94 0 00-4.94 4.91v1.32h93.25V392a4.943 4.943 0 00-4.94-4.91z"/>
    <path fill="#893003" d="M65.84 393.35v42H178v-42H65.84z"/>
    <path fill="#893003" d="M65.84 393.35v40.91c2 .12 4.04.18 6.12.18 34.86 0 63.91-17.66 70.4-41.09H65.84z"/>
    <path fill="#FFB600" d="M181.94 435.32H61.85l-7.2 7.2v2.11h134.5v-2.11l-7.21-7.2z"/>
    <path fill="#FF8B00" d="M129.83 67.52H114a9 9 0 00-9 9v4.36h33.83v-4.37a9 9 0 00-9-8.99z"/>
    <path fill="#FF8B00" d="M124.59 72.94c0-2.15-6-4-14.31-4.63a8.999 8.999 0 00-5.3 8.2v1.3c10.94-.15 19.61-2.27 19.61-4.87z" opacity=".69"/>
    <path fill="#D67205" d="M113.88 59.9v7.62h16V59.9h-16z"/>
    <path fill="#BD6504" d="M113.88 63.32a33.6 33.6 0 0016 0V59.9h-16v3.42z"/>
    <path fill="#D67205" d="M122.753 61.264c16.916-.47 30.248-14.563 29.778-31.478C152.062 12.87 137.969-.462 121.053.008c-16.915.47-30.248 14.563-29.778 31.478.47 16.915 14.563 30.248 31.478 29.778z"/>
    <path fill="#FF8B00" d="M151.7 30.64c0 3.1-2.72 5.72-3.63 8.51-.91 2.79-.31 6.61-2.06 9-1.75 2.39-5.51 3-7.94 4.74-2.43 1.74-4.07 5.15-7 6.09-2.93.94-6.12-.84-9.21-.84-3.09 0-6.43 1.75-9.22.84-2.79-.91-4.55-4.34-7-6.09s-6.17-2.31-7.94-4.74c-1.77-2.43-1.12-6.13-2.06-9s-3.63-5.41-3.63-8.51c0-3.1 2.73-5.71 3.63-8.5.9-2.79.31-6.61 2.06-9 1.75-2.39 5.51-3 7.94-4.74 2.43-1.74 4.07-5.15 7-6.09 2.93-.94 6.12.84 9.22.84 3.1 0 6.42-1.75 9.21-.84 2.79.91 4.55 4.34 7 6.09s6.17 2.31 7.94 4.74c1.77 2.43 1.12 6.13 2.06 9s3.63 5.41 3.63 8.5z"/>
    <path fill="#FFB600" d="M129.32 57.1a15.606 15.606 0 01-3.18-.5 15.32 15.32 0 00-8.49 0c-1.04.277-2.106.444-3.18.5a3.44 3.44 0 01-1.12-.16c-1.19-.38-2.26-1.6-3.39-2.88a18.905 18.905 0 00-3-2.9 19.101 19.101 0 00-3.71-1.95c-1.56-.68-3-1.32-3.76-2.32-.76-1-.87-2.57-1-4.25a20.152 20.152 0 00-.72-4.16A18.374 18.374 0 0096 34.82c-.88-1.48-1.71-2.88-1.71-4.18 0-1.3.79-2.64 1.71-4.17a19.22 19.22 0 001.82-3.66c.385-1.358.626-2.752.72-4.16.16-1.69.32-3.28 1-4.25.68-.97 2.2-1.64 3.76-2.32a19.092 19.092 0 003.7-1.95 19.353 19.353 0 003-2.9c1.13-1.28 2.2-2.5 3.39-2.88.362-.115.74-.169 1.12-.16a16 16 0 013.18.49c1.39.358 2.815.563 4.25.61a19.625 19.625 0 004.24-.61 16.243 16.243 0 013.18-.49c.38-.009.758.045 1.12.16 1.19.38 2.26 1.6 3.39 2.88a19.353 19.353 0 003 2.9 19.101 19.101 0 003.71 1.95c1.56.68 3 1.32 3.76 2.32.76 1 .87 2.57 1 4.25.094 1.408.335 2.802.72 4.16a19.231 19.231 0 001.82 3.66c.88 1.48 1.71 2.88 1.71 4.17s-.83 2.7-1.71 4.18a18.929 18.929 0 00-1.88 3.66 20.172 20.172 0 00-.72 4.16c-.16 1.68-.32 3.28-1 4.25-.68.97-2.2 1.64-3.76 2.32a19.101 19.101 0 00-3.71 1.95 19.35 19.35 0 00-3 2.9c-1.13 1.28-2.2 2.5-3.39 2.88a3.44 3.44 0 01-1.1.16z"/>
    <path fill="#FF8B00" d="M121.9 52.35c11.99 0 21.71-9.72 21.71-21.71S133.89 8.93 121.9 8.93s-21.71 9.72-21.71 21.71 9.72 21.71 21.71 21.71z"/>
    <path fill="#D67205" d="M136.48 45.227c8.056-8.056 8.056-21.119 0-29.175-8.057-8.057-21.119-8.057-29.176 0-8.056 8.056-8.056 21.118 0 29.175 8.057 8.057 21.119 8.057 29.176 0z"/>
    <path fill="#FFDC01" d="M121.9 49.34c10.328 0 18.7-8.372 18.7-18.7s-8.372-18.7-18.7-18.7-18.7 8.372-18.7 18.7 8.372 18.7 18.7 18.7z"/>
    <path fill="#FFB10F" d="M129.48 47.75L107 19.37a17.919 17.919 0 00-2 3.23l20.87 26.32a18.949 18.949 0 003.61-1.17zM118.87 49.1l-15.64-19.72v1.26c0 .42 0 1.1.07 1.64l12.81 16.14c.9.302 1.823.53 2.76.68zM136.17 42.73L113.38 14c-.535.269-1.056.566-1.56.89L135 44c.38-.38.78-.81 1.17-1.27zM140 35.22l-18.43-23.28a19.08 19.08 0 00-3.14.32l20.58 26c.416-.983.747-2 .99-3.04z"/>
    <path fill="#FFB600" d="M61.07 133.11c-2.07 68.89 4.3 80.46 4.29 80.36a1.501 1.501 0 11-2.81 1.05c-5.42-15.37-2.55-65.15-1.48-81.41z"/>
  </g>
  <defs>
    <clipPath id="clip0_1245_4786">
      <path fill="#fff" d="M0 0h243.79v444.63H0z"/>
    </clipPath>
  </defs>
</svg>
