<svg xmlns="http://www.w3.org/2000/svg" width="288" height="235" fill="none" viewBox="0 0 288 235">
  <g clip-path="url(#clip0_1245_4254)">
    <path fill="#FFB600" d="M176.05 195.34s10 9.88 11.82 18.49c1.82 8.61 11 6.78 12.59 4.33 0 0 2.83 8.07 7.82 8 4.99-.07 10.43 2 19.17 8.6 0 0-3.57-16.8-11.41-22.81-7.84-6.01-5.24-6.33-8.88-11.45-2.16-3.05-21.34-4.68-31.11-5.16zM193.88 191.07s12.73 3.67 18.13 10c5.4 6.33 12.16.64 12.37-2.11 0 0 6 5.4 10.08 3.1 4.08-2.3 9.54-3.06 19.74-1.57 0 0-10.54-12.29-19.73-13.72-9.19-1.43-7.2-2.88-12.52-5.47-3.18-1.54-19.77 5.76-28.07 9.77zM220.74 175.87s12.41-.81 19.18 3 11-3.3 10.26-5.79c0 0 7 2.87 9.9-.46 2.9-3.33 7.45-5.73 16.95-7.64 0 0-13.22-7.5-21.8-5.85-8.58 1.65-7.27-.26-12.79-.85-3.3-.28-15.64 11.4-21.7 17.59zM239.76 153.15s10.92-4 18-2.34c7.08 1.66 9-5.85 7.67-7.9 0 0 7 .73 8.75-3s5.18-7.1 13.19-11.32c0 0-13.84-3.25-21.09.5s-6.59 1.69-11.7 2.62c-3.05.52-11.02 14.29-14.82 21.44zM253 122.15s7.54-7.75 14.16-9.21c6.62-1.46 5.15-8.51 3.26-9.72 0 0 6.19-2.22 6.11-6.06-.08-3.84 1.48-8 6.5-14.81 0 0-12.91 2.85-17.48 8.92s-4.85 4.07-8.76 6.91c-2.32 1.69-3.46 16.45-3.79 23.97zM252.81 85.6s5.9-8.08 11.78-10.28c5.88-2.2 3.61-8.47 1.71-9.33 0 0 5.39-2.85 4.82-6.35-.57-3.5.3-7.56 4-14.41 0 0-11.45 4.29-14.85 10.44-3.4 6.15-3.91 4.36-7.13 7.47-1.9 1.86-1.02 15.53-.33 22.46zM246.73 59.19s2.2-8.93 6.42-12.85.12-8.46-1.79-8.53c0 0 3.59-4.3 1.88-7.08-1.71-2.78-2.37-6.54-1.6-13.66 0 0-8.25 7.65-9 14.07s-1.81 5.07-3.46 8.83c-.98 2.25 4.54 13.57 7.55 19.22zM247.19 62.68s-7.95-3.27-13.24-2.25-6.44-4.58-5.43-6.06c0 0-5.22.33-6.38-2.49-1.16-2.82-3.62-5.4-9.41-8.75 0 0 10.32-2 15.57 1s4.81 1.44 8.56 2.27c2.24.49 7.73 10.89 10.33 16.28zM252.28 84.56s-7.95-3.27-13.24-2.25-6.44-4.58-5.44-6.06c0 0-5.22.33-6.37-2.49-1.15-2.82-3.62-5.4-9.41-8.75 0 0 10.31-2 15.56 1s4.82 1.44 8.57 2.27c2.24.49 7.73 10.89 10.33 16.28zM249.8 132.23s-5.3-9.12-11.21-12.07c-5.91-2.95-2.85-9.27-.77-10 0 0-5.33-3.57-4.34-7.18.99-3.61.5-8-2.64-15.55 0 0 11.54 5.76 14.42 12.59 2.88 6.83 3.61 5 6.64 8.6 1.81 2.2-.61 16.38-2.1 23.61zM226.16 170.45s-1.55-11.25-6.23-16.62c-4.68-5.37.95-10.4 3.3-10.24 0 0-3.85-5.75-1.39-9s3.76-7.72 3.74-16.57c0 0 9.14 10.46 9.22 18.44.08 7.98 1.56 6.47 3.1 11.31.92 2.93-7.31 16.13-11.74 22.68z"/>
    <path fill="#FFB600" d="M198.18 189.39s1.34-10.46-1.56-16.4c-2.9-5.94 3.37-9.09 5.45-8.38 0 0-2.06-6.07.92-8.34 2.98-2.27 5.23-6 7.35-13.94 0 0 5.66 11.58 3.8 18.75-1.86 7.17-.17 6.16 0 10.87.17 2.81-10.4 12.64-15.96 17.44zM234.84 35.48s-1.15-7.9 1-12.44c2.15-4.54-2.67-6.84-4.23-6.27 0 0 1.48-4.63-.81-6.31C228.51 8.78 226.72 6 225 0c0 0-4.13 8.85-2.63 14.25s.21 4.67.11 8.24c-.05 2.13 8.09 9.43 12.36 12.99zM111.33 195.34s-10 9.88-11.83 18.49c-1.83 8.61-11 6.78-12.59 4.33 0 0-2.82 8.07-7.81 8-4.99-.07-10.43 2-19.17 8.6 0 0 3.57-16.8 11.41-22.81 7.84-6.01 5.24-6.33 8.88-11.45 2.18-3.05 21.34-4.68 31.11-5.16zM93.5 191.07s-12.73 3.67-18.13 10c-5.4 6.33-12.16.64-12.37-2.11 0 0-6 5.4-10.08 3.1-4.08-2.3-9.54-3.05-19.74-1.54 0 0 10.54-12.29 19.73-13.72 9.19-1.43 7.19-2.88 12.52-5.47 3.18-1.57 19.77 5.73 28.07 9.74zM66.64 175.87s-12.41-.81-19.19 3c-6.78 3.81-10.94-3.3-10.26-5.79 0 0-7 2.87-9.89-.46-2.89-3.33-7.45-5.73-17-7.64 0 0 13.22-7.5 21.79-5.85 8.57 1.65 7.27-.26 12.8-.85 3.35-.28 15.69 11.4 21.75 17.59zM47.62 153.15s-10.92-4-18-2.34c-7.08 1.66-8.95-5.85-7.68-7.9 0 0-7 .73-8.74-3-1.74-3.73-5.2-7.13-13.2-11.35 0 0 13.84-3.25 21.09.5s6.59 1.69 11.7 2.62c3.05.55 11.03 14.32 14.83 21.47zM34.36 122.15s-7.55-7.75-14.16-9.21c-6.61-1.46-5.15-8.51-3.26-9.72 0 0-6.19-2.22-6.11-6.06.08-3.84-1.49-8-6.51-14.81 0 0 12.92 2.85 17.49 8.92 4.57 6.07 4.84 4.07 8.76 6.91 2.34 1.69 3.48 16.45 3.79 23.97zM34.56 85.6s-5.9-8.08-11.77-10.28c-5.87-2.2-3.61-8.47-1.71-9.32 0 0-5.39-2.85-4.82-6.35.57-3.5-.31-7.56-4-14.41 0 0 11.45 4.29 14.85 10.44 3.4 6.15 3.89 4.32 7.11 7.46 1.92 1.86 1.04 15.53.34 22.46zM40.65 59.19s-2.2-8.93-6.43-12.85c-4.23-3.92-.11-8.46 1.8-8.53 0 0-3.59-4.3-1.88-7.08 1.71-2.78 2.37-6.54 1.6-13.66 0 0 8.25 7.65 9 14.07s1.8 5.07 3.46 8.83c.97 2.25-4.54 13.57-7.55 19.22zM40.19 62.68s7.94-3.27 13.23-2.25 6.44-4.58 5.44-6.06c0 0 5.22.33 6.38-2.49 1.16-2.82 3.61-5.4 9.41-8.75 0 0-10.32-2-15.57 1s-4.81 1.44-8.56 2.27c-2.24.49-7.73 10.89-10.33 16.28zM35.1 84.56s7.95-3.27 13.24-2.25 6.44-4.58 5.43-6.06c0 0 5.22.33 6.38-2.49 1.16-2.82 3.62-5.4 9.41-8.75 0 0-10.32-2-15.56 1s-4.82 1.44-8.57 2.27c-2.24.49-7.73 10.89-10.33 16.28zM37.58 132.23s5.29-9.12 11.21-12.07c5.92-2.95 2.84-9.27.77-10 0 0 5.32-3.57 4.34-7.18-.98-3.61-.51-8 2.63-15.55 0 0-11.53 5.76-14.41 12.59-2.88 6.83-3.62 5-6.65 8.6-1.81 2.2.62 16.38 2.11 23.61zM61.22 170.45s1.55-11.25 6.23-16.62c4.68-5.37-1-10.4-3.31-10.24 0 0 3.85-5.75 1.4-9s-3.77-7.72-3.74-16.57c0 0-9.14 10.46-9.22 18.44-.08 7.98-1.58 6.54-3.11 11.36-.92 2.88 7.32 16.08 11.75 22.63z"/>
    <path fill="#FFB600" d="M89.2 189.39s-1.34-10.46 1.55-16.4c2.89-5.94-3.37-9.09-5.44-8.38 0 0 2.06-6.07-.92-8.34-2.98-2.27-5.24-6-7.36-13.94 0 0-5.65 11.58-3.79 18.75 1.86 7.17.16 6.16 0 10.87-.17 2.81 10.4 12.64 15.96 17.44zM52.54 35.48s1.15-7.9-1-12.44c-2.15-4.54 2.68-6.84 4.24-6.27 0 0-1.48-4.63.8-6.31C58.86 8.78 60.66 6 62.37 0c0 0 4.13 8.85 2.63 14.25s-.21 4.67-.11 8.24c.05 2.13-8.08 9.43-12.35 12.99z"/>
    <path fill="#798093" d="M251.69 86.5c1.93 21.11-.56 39.82-10 59.19-8.8 18.07-23.27 33.73-42.19 41.23-26.4 10.38-67.5 5.28-84.67 34.31a1.873 1.873 0 002.07 2.777c.482-.122.895-.43 1.15-.857 16.38-27 56.08-21.57 83-32.27 39.58-15.7 65.45-68.58 50.95-120.12a75.415 75.415 0 00-5.65-14.6.71.71 0 00-1.29.57s5.62 19.39 6.63 29.77z"/>
    <path fill="#798093" d="M207.15 213.65a90.777 90.777 0 00-7.21-5.62 98.738 98.738 0 00-7.63-4.93 89.799 89.799 0 00-8-4.23 85.096 85.096 0 00-8.37-3.38 82.68 82.68 0 018.08 3.94 88.674 88.674 0 017.62 4.72c2.47 1.69 4.86 3.47 7.16 5.37a87.396 87.396 0 016.61 5.93 1.272 1.272 0 001.77 0 1.255 1.255 0 00.272-1.364 1.255 1.255 0 00-.272-.406l-.03-.03zM227.89 192.14c-2.86-.62-5.66-1-8.51-1.38-2.85-.38-5.69-.53-8.54-.62-2.85-.09-5.7 0-8.54.13a79.225 79.225 0 00-8.44 1 77.334 77.334 0 018.46-.37c2.82.018 5.637.182 8.44.49 2.79.29 5.58.69 8.33 1.22s5.52 1.16 8.14 1.94a1.248 1.248 0 001.465-.865 1.25 1.25 0 00-.755-1.525l-.05-.02zM251.13 166c-2.73.36-5.34.89-8 1.5s-5.19 1.35-7.73 2.19a80.003 80.003 0 00-7.5 2.85 72.102 72.102 0 00-7.14 3.58 71.135 71.135 0 017.37-3 77.986 77.986 0 017.61-2.23c2.56-.62 5.15-1.15 7.76-1.55 2.61-.4 5.24-.71 7.79-.85a1.252 1.252 0 00-.13-2.5l-.03.01zM264.39 136.19c-2.36 1.06-4.56 2.22-6.75 3.47-2.19 1.25-4.3 2.6-6.36 4-2.06 1.4-4.05 2.94-6 4.55a67.644 67.644 0 00-5.44 5.12 66.437 66.437 0 015.83-4.63c2-1.43 4.1-2.77 6.24-4 2.14-1.23 4.32-2.38 6.56-3.42 2.24-1.04 4.51-2 6.77-2.8a1.258 1.258 0 00.747-.63 1.242 1.242 0 00.066-.975 1.26 1.26 0 00-.656-.724 1.24 1.24 0 00-.977-.031l-.03.07zM266.81 98a67.683 67.683 0 00-4.25 5.65 83.032 83.032 0 00-3.7 5.95c-1.15 2.03-2.2 4.11-3.15 6.24a63.75 63.75 0 00-2.48 6.49 63.97 63.97 0 013-6.22 68.774 68.774 0 013.65-5.84c1.31-1.89 2.68-3.73 4.14-5.49 1.46-1.76 3-3.5 4.56-5.06a1.253 1.253 0 10-1.76-1.78l-.01.06zM262.25 61.61c-1.18 1.91-2.18 3.8-3.14 5.75a68.2 68.2 0 00-2.59 6c-.78 2.06-1.47 4.06-2.06 6.13a56.873 56.873 0 00-1.4 6.28 58.47 58.47 0 012-6.08 63.153 63.153 0 012.6-5.82c.95-1.9 2-3.76 3.09-5.56a62.369 62.369 0 013.54-5.2 1.254 1.254 0 00-1.17-2.005c-.33.046-.628.22-.83.485l-.04.02zM246.33 35.48a59.198 59.198 0 00-.64 6c-.13 2-.16 4-.11 6 .039 1.983.18 3.962.42 5.93a54.446 54.446 0 001 5.84 52.787 52.787 0 01-.4-5.88c0-2 0-3.91.21-5.85.21-1.94.39-3.88.72-5.8.33-1.92.72-3.84 1.21-5.64a1.25 1.25 0 10-2.41-.67v.07zM229.54 49.29c1.72.88 3.3 1.82 4.87 2.83a66.61 66.61 0 014.56 3.21 58.24 58.24 0 014.24 3.59 51.475 51.475 0 013.84 4 50.279 50.279 0 00-4.21-3.54 56.372 56.372 0 00-4.53-3.08c-1.55-.95-3.14-1.84-4.76-2.65-1.62-.81-3.3-1.58-4.93-2.2a1.167 1.167 0 01-.755-1.06 1.155 1.155 0 01.317-.837 1.18 1.18 0 01.817-.368c.154-.005.307.02.451.075l.09.03zM234.62 71.18A53.887 53.887 0 01239.5 74c1.57 1 3.09 2.09 4.56 3.22a58.24 58.24 0 014.24 3.59 49.573 49.573 0 013.83 4 48.928 48.928 0 00-4.21-3.53 57.477 57.477 0 00-4.52-3.08c-1.56-1-3.14-1.85-4.77-2.66-1.63-.81-3.29-1.57-4.92-2.2a1.172 1.172 0 01-.765-1.54 1.166 1.166 0 011.129-.752c.162.004.32.043.466.112l.08.02zM242.61 106c1 2.14 1.85 4.23 2.63 6.39.78 2.16 1.45 4.34 2 6.54a65.779 65.779 0 011.45 6.66c.373 2.232.626 4.481.76 6.74a63.92 63.92 0 00-1.46-6.59 66.988 66.988 0 00-2.11-6.37c-.8-2.09-1.68-4.14-2.66-6.14a62.07 62.07 0 00-3.15-5.82 1.443 1.443 0 01-.173-1.082 1.442 1.442 0 01.643-.888 1.443 1.443 0 011.082-.173 1.442 1.442 0 01.888.643l.1.09zM229.71 141.38a74.05 74.05 0 010 7.45c-.11 2.46-.33 4.91-.64 7.35a73.488 73.488 0 01-1.29 7.23 67.141 67.141 0 01-2 7 64.74 64.74 0 001.24-7.16c.293-2.4.463-4.807.51-7.22 0-2.41 0-4.82-.14-7.21a67.986 67.986 0 00-.76-7.09 1.551 1.551 0 113.08-.35zM208.41 164.2c-.49 2.32-1.1 4.49-1.79 6.68-.69 2.19-1.49 4.32-2.36 6.43a68.085 68.085 0 01-2.9 6.17 62.1 62.1 0 01-3.5 5.81 60.79 60.79 0 002.85-6.12 65.067 65.067 0 002.2-6.34c.63-2.15 1.18-4.31 1.63-6.49.45-2.18.81-4.41 1-6.54a1.44 1.44 0 012.86.29s.02.06.01.11zM226.76 16.54c.397 1.69.881 3.36 1.45 5 .55 1.64 1.18 3.25 1.87 4.83.69 1.58 1.44 3.13 2.27 4.64a47.85 47.85 0 002.49 4.43 44.486 44.486 0 01-2-4.67c-.66-1.57-1.25-3.16-1.75-4.78s-1-3.25-1.32-4.89c-.32-1.64-.67-3.33-.86-4.94a1.093 1.093 0 00-1.202-.883 1.09 1.09 0 00-.958 1.143.44.44 0 01.01.12zM254.82 98.17h-1.25c0-4.51-5.84-7-5.9-7l.48-1.16c.27.12 6.67 2.81 6.67 8.16z"/>
    <path fill="#798093" d="M245.3 90.6a2.622 2.622 0 004.469 1.876A2.618 2.618 0 00247.91 88a2.61 2.61 0 00-2.61 2.6zM238 132.23a2.619 2.619 0 003.129 2.58 2.622 2.622 0 001.91-3.577 2.619 2.619 0 00-2.429-1.613 2.615 2.615 0 00-2.411 1.611 2.615 2.615 0 00-.199.999zM262 122.3a3.528 3.528 0 004.219 3.462A3.529 3.529 0 10262 122.3zM181.91 178.2a3.527 3.527 0 004.213 3.473 3.533 3.533 0 001.81-.963 3.539 3.539 0 00.769-3.849 3.528 3.528 0 00-3.262-2.181c-.934 0-1.831.371-2.493 1.03a3.536 3.536 0 00-1.037 2.49zM262.62 87.99a3.53 3.53 0 100-7.06 3.53 3.53 0 000 7.06zM227.38 39.9a3.53 3.53 0 107.058 0 3.53 3.53 0 00-7.058 0z"/>
    <path fill="#798093" d="M254.82 93.27l-1.24-.11a9.755 9.755 0 018.07-9l.16 1.23a8.41 8.41 0 00-6.99 7.88zM250.77 130.47l-1.16-.45c3.26-8.49 14.9-7.47 15-7.46l-.12 1.25c-.08-.02-10.79-.94-13.72 6.66zM245 144.8l-1.24-.16a15.607 15.607 0 00-3.58-11.86l.92-.85a16.697 16.697 0 013.9 12.87zM181.6 195.78l-.88-.88c5.09-5.1 4-14.7 4-14.8l1.24-.15c.04.42 1.16 10.31-4.36 15.83zM35.69 86.5c-1.94 21.11.56 39.82 10 59.19 8.8 18.07 23.26 33.73 42.18 41.23 26.37 10.36 67.49 5.3 84.68 34.31a1.861 1.861 0 01.209 1.42 1.86 1.86 0 01-.859 1.15 1.885 1.885 0 01-1.418.201 1.885 1.885 0 01-1.152-.851c-10.92-18-31.93-21.45-52.53-25.05-20-3.44-38.61-6.2-56.75-24.8-18.05-18.44-28.52-45.36-28.73-71.52-.06-15.3 2.8-32.1 9.71-45.62a.71.71 0 011.3.57 113 113 0 00-6.64 29.77z"/>
    <path fill="#798093" d="M80.23 213.65a90.962 90.962 0 017.21-5.65c2.47-1.76 5-3.4 7.62-4.93 2.62-1.53 5.28-2.95 8-4.23a84.023 84.023 0 018.37-3.38 81.726 81.726 0 00-8.09 3.94 89.524 89.524 0 00-7.62 4.72c-2.46 1.69-4.86 3.47-7.16 5.37s-4.56 3.9-6.56 5.96a1.271 1.271 0 01-1.77 0 1.248 1.248 0 010-1.77v-.03zM59.49 192.14c2.86-.62 5.66-1 8.51-1.38 2.85-.38 5.69-.53 8.54-.62 2.85-.09 5.7 0 8.53.13 2.833.182 5.653.516 8.45 1a77.272 77.272 0 00-8.47-.37c-2.817.018-5.63.182-8.43.49-2.8.29-5.58.69-8.34 1.22s-5.51 1.16-8.13 1.94a1.255 1.255 0 01-.998-.049 1.24 1.24 0 01-.643-.764 1.25 1.25 0 01.931-1.577l.05-.02zM36.25 166c2.73.36 5.34.89 8 1.5s5.2 1.35 7.74 2.19a79.94 79.94 0 017.5 2.85 72.07 72.07 0 017.14 3.58 71.135 71.135 0 00-7.37-3 78.01 78.01 0 00-7.61-2.23c-2.57-.62-5.15-1.15-7.76-1.55-2.61-.4-5.24-.71-7.8-.85a1.256 1.256 0 01-1.118-.827 1.25 1.25 0 01-.072-.483 1.26 1.26 0 011.24-1.18h.11zM23 136.19c2.36 1.06 4.56 2.22 6.75 3.47 2.19 1.25 4.3 2.6 6.35 4a71.459 71.459 0 0111.45 9.67 67.984 67.984 0 00-5.83-4.63c-2-1.43-4.1-2.77-6.24-4a86.877 86.877 0 00-6.56-3.42c-2.23-1.04-4.51-2-6.77-2.8a1.247 1.247 0 01-.88-1.111 1.25 1.25 0 011.7-1.249l.03.07zM20.57 98c1.55 1.85 2.92 3.71 4.25 5.65 1.33 1.94 2.55 3.92 3.69 5.95a67.46 67.46 0 013.15 6.24 61.494 61.494 0 012.49 6.49 63.877 63.877 0 00-3-6.22c-1.13-2-2.34-4-3.65-5.84-1.31-1.84-2.68-3.73-4.14-5.49-1.46-1.76-3-3.5-4.56-5.06a1.252 1.252 0 011.76-1.78l.01.06zM25.12 61.61a64.892 64.892 0 013.15 5.75c.95 2 1.81 3.94 2.59 6a63.879 63.879 0 012 6.13 59.266 59.266 0 011.41 6.28 58.422 58.422 0 00-2-6.08 63.26 63.26 0 00-2.6-5.82c-1-1.9-2-3.76-3.1-5.56a62.356 62.356 0 00-3.53-5.2 1.255 1.255 0 112-1.52.596.596 0 01.08.02zM41.05 35.48c.315 1.988.529 3.99.64 6 .12 2 .15 4 .11 6-.04 2-.19 4-.42 5.93a54.421 54.421 0 01-1 5.84c.24-1.951.37-3.914.39-5.88 0-2 0-3.91-.2-5.85-.2-1.94-.4-3.88-.72-5.8a56.36 56.36 0 00-1.22-5.64 1.26 1.26 0 012.37-.73l.05.13zM57.84 49.29c-1.72.88-3.3 1.82-4.88 2.83a64.04 64.04 0 00-4.55 3.21 60.615 60.615 0 00-4.25 3.59c-1.36 1.26-3.48 3-4.69 4.37a64.013 64.013 0 015.07-3.92c1.46-1.1 2.97-2.127 4.53-3.08 1.55-.95 3.14-1.84 4.76-2.65a53.514 53.514 0 014.93-2.2 1.17 1.17 0 00.67-1.51 1.16 1.16 0 00-1.5-.68l-.09.04zM52.75 71.18A55.399 55.399 0 0047.87 74c-1.56 1-3.08 2.09-4.55 3.22a54 54 0 00-8.08 7.59 50.412 50.412 0 014.21-3.53c1.46-1.1 2.97-2.127 4.53-3.08 1.55-1 3.14-1.85 4.76-2.66 1.62-.81 3.26-1.54 4.93-2.22a1.17 1.17 0 10-.83-2.18l-.09.04zM44.77 106c-1 2.14-1.86 4.23-2.64 6.39-.78 2.16-1.45 4.34-2 6.54a65.779 65.779 0 00-1.45 6.66 63.724 63.724 0 00-.76 6.74 61.44 61.44 0 011.46-6.59 66.931 66.931 0 012.11-6.37c.8-2.093 1.683-4.14 2.65-6.14a64.585 64.585 0 013.16-5.82 1.44 1.44 0 00-2.45-1.5l-.08.09zM57.66 141.38a74.05 74.05 0 000 7.45c.1 2.46.33 4.91.64 7.35.31 2.44.74 4.85 1.28 7.23a64.9 64.9 0 002 7 66.967 66.967 0 01-1.25-7.16c-.28-2.4-.447-4.807-.5-7.22-.06-2.41 0-4.82.13-7.21.137-2.375.395-4.741.77-7.09a1.547 1.547 0 00-1.294-1.483 1.552 1.552 0 00-1.706.983c-.06.04-.06.09-.07.15zM79 164.2c.49 2.32 1.1 4.49 1.79 6.68.69 2.19 1.49 4.32 2.36 6.43a67.897 67.897 0 002.9 6.17 62.028 62.028 0 003.49 5.81 60.604 60.604 0 01-2.84-6.12 65.04 65.04 0 01-2.2-6.34 74.19 74.19 0 01-1.63-6.49 63.323 63.323 0 01-1-6.54 1.428 1.428 0 00-1.014-1.227 1.434 1.434 0 00-1.836 1.517.774.774 0 00-.02.11zM60.61 16.54c-.4 1.75-.89 3.39-1.44 5-.55 1.61-1.17 3.29-1.87 4.87a49.822 49.822 0 01-2.3 4.64 41.303 41.303 0 01-2.34 4.17 42.811 42.811 0 001.86-4.41 50.75 50.75 0 001.75-4.78c.5-1.61 1-3.25 1.31-4.89.375-1.63.665-3.28.87-4.94a1.1 1.1 0 011.21-1 1.082 1.082 0 011 1.21.43.43 0 01-.05.13zM33.8 98.17h-1.25c0-5.35 6.41-8 6.68-8.15l.47 1.16c-.06.02-5.9 2.48-5.9 6.99z"/>
    <path fill="#798093" d="M42.08 90.6a2.62 2.62 0 11-2.61-2.6 2.61 2.61 0 012.61 2.6zM49.34 132.23a2.618 2.618 0 01-3.129 2.58 2.621 2.621 0 01.519-5.19 2.611 2.611 0 012.61 2.61zM25.42 122.3a3.528 3.528 0 01-6.026 2.496 3.533 3.533 0 01-.765-3.847 3.53 3.53 0 016.791 1.351zM105.47 178.2a3.527 3.527 0 01-4.213 3.473 3.53 3.53 0 114.213-3.473zM24.75 87.99a3.53 3.53 0 100-7.06 3.53 3.53 0 000 7.06zM60 39.9a3.53 3.53 0 11-7.06 0 3.53 3.53 0 017.06 0z"/>
    <path fill="#798093" d="M32.56 93.27a8.41 8.41 0 00-7-7.86l.17-1.23a9.77 9.77 0 018.07 9l-1.24.09zM36.6 130.47c-2.92-7.6-13.62-6.68-13.73-6.66l-.12-1.25c.12 0 11.75-1 15 7.46l-1.15.45zM42.36 144.8a16.671 16.671 0 013.91-12.87l.91.85a15.752 15.752 0 00-3.58 11.86l-1.24.16zM105.78 195.78c-5.52-5.52-4.39-15.41-4.34-15.83l1.24.15c0 .1-1.1 9.71 4 14.8l-.9.88zM150.89 202c0 5.32-3.45 9.64-7.71 9.64s-7.7-4.32-7.7-9.64 3.45-9.63 7.7-9.63 7.71 4.29 7.71 9.63z"/>
  </g>
  <defs>
    <clipPath id="clip0_1245_4254">
      <path fill="#fff" d="M0 0h287.38v234.76H0z"/>
    </clipPath>
  </defs>
</svg>
