<svg xmlns="http://www.w3.org/2000/svg" width="198" height="321" fill="none" viewBox="0 0 198 321">
  <g clip-path="url(#clip0_1245_4372)">
    <path fill="#2D1E66" d="M138.1 0L78.41 150.19h56.22L197.78 0H138.1z"/>
    <path fill="#FF8B00" d="M145.85 171.87v-17.8a13.202 13.202 0 00-13.18-13.18H78.41a13.188 13.188 0 00-13.17 13.18v17.8a79.78 79.78 0 1080.61 0zm-71.31-4.67v-13.13a3.88 3.88 0 013.87-3.88h54.26a3.882 3.882 0 013.87 3.88v13.13a80.007 80.007 0 00-62 0z"/>
    <path fill="#FFCF03" d="M105.54 305.55a64.824 64.824 0 01-59.886-40.014 64.823 64.823 0 0114.051-70.641A64.82 64.82 0 01170.36 240.73a64.891 64.891 0 01-64.82 64.82z"/>
    <path fill="#FFFF03" d="M96.85 288.22a10.998 10.998 0 013.52 5.82 11.35 11.35 0 01-6.54-2.1 11.05 11.05 0 01-3.53-5.82c2.347.013 4.633.746 6.55 2.1z"/>
    <path fill="#FFFF03" d="M93.49 293.91a11.418 11.418 0 016.88.13 11.26 11.26 0 01-5.27 4.36 11.45 11.45 0 01-6.88-.14 11.141 11.141 0 015.27-4.35zM86 285.28a10.93 10.93 0 012.67 6.24 11.306 11.306 0 01-6.18-3 10.997 10.997 0 01-2.68-6.24 11.354 11.354 0 016.19 3z"/>
    <path fill="#FFFF03" d="M81.88 290.46c2.319-.352 4.69.018 6.79 1.06a11.261 11.261 0 01-5.83 3.6 11.423 11.423 0 01-6.79-1.06 11.256 11.256 0 015.83-3.6zM77.46 281.06a10.929 10.929 0 011.64 6.58 11.252 11.252 0 01-5.63-3.89 10.939 10.939 0 01-1.64-6.58 11.252 11.252 0 015.63 3.89z"/>
    <path fill="#FFFF03" d="M72.56 285.52c2.346.019 4.63.759 6.54 2.12a11.304 11.304 0 01-6.34 2.64 11.386 11.386 0 01-6.54-2.11 11.351 11.351 0 016.34-2.65zM69.49 274.63c.717 2.2.717 4.57 0 6.77a11.163 11.163 0 01-4.5-5.12 10.91 10.91 0 010-6.78 11.201 11.201 0 014.5 5.13z"/>
    <path fill="#FFFF03" d="M63.63 277.79a11.246 11.246 0 015.82 3.61 11.39 11.39 0 01-6.8 1.05 11.245 11.245 0 01-5.82-3.61 11.39 11.39 0 016.8-1.05zM63.46 267.17a11.001 11.001 0 01-1.66 6.58 11 11 0 01-3.15-6 10.89 10.89 0 011.65-6.57 11.052 11.052 0 013.16 5.99z"/>
    <path fill="#FFFF03" d="M57 268.89a11.09 11.09 0 014.79 4.86 11.457 11.457 0 01-6.86-.55 11.09 11.09 0 01-4.79-4.86 11.457 11.457 0 016.86.55zM58.31 257.79a11 11 0 01-3 6.12 9.53 9.53 0 011.07-12.63 10.89 10.89 0 011.93 6.51z"/>
    <path fill="#FFFF03" d="M51.64 258.21a10.999 10.999 0 013.72 5.7 11.333 11.333 0 01-6.61-1.91 11.062 11.062 0 01-3.75-5.66 11.372 11.372 0 016.64 1.87zM55.65 248.85a11.061 11.061 0 01-3.89 5.58 11 11 0 01-.76-6.73 11.169 11.169 0 013.9-5.58 10.9 10.9 0 01.75 6.73z"/>
    <path fill="#FFFF03" d="M49 248.23a10.999 10.999 0 012.76 6.2 11.332 11.332 0 01-6.23-2.88 11 11 0 01-2.75-6.21 11.29 11.29 0 016.22 2.89zM55.37 238.88a11.29 11.29 0 01-5.16 4.49 10.9 10.9 0 01.88-6.72 11.17 11.17 0 015.15-4.49 10.94 10.94 0 01-.87 6.72z"/>
    <path fill="#FFFF03" d="M49.07 236.69a11 11 0 011.14 6.68 11.264 11.264 0 01-5.33-4.29 10.89 10.89 0 01-1.14-6.68 11.264 11.264 0 015.33 4.29zM57.14 228.82a11.363 11.363 0 01-6.08 3.18 10.999 10.999 0 012.46-6.33 11.356 11.356 0 016.08-3.17 11.001 11.001 0 01-2.46 6.32z"/>
    <path fill="#FFFF03" d="M51.54 225.23a10.89 10.89 0 01-.48 6.76 11.197 11.197 0 01-4.16-5.4 10.94 10.94 0 01.49-6.76 11.089 11.089 0 014.15 5.4zM60.79 220.55a11.451 11.451 0 01-6.66 1.72 10.998 10.998 0 013.87-5.61 11.324 11.324 0 016.65-1.72 11.07 11.07 0 01-3.86 5.61z"/>
    <path fill="#FFFF03" d="M56.16 215.8a10.931 10.931 0 01-2 6.47 9.51 9.51 0 01-.76-12.66 11 11 0 012.76 6.19zM65.34 213.06a11.387 11.387 0 01-6.85.66 11.112 11.112 0 014.71-4.93 11.387 11.387 0 016.85-.66 11.112 11.112 0 01-4.71 4.93z"/>
    <path fill="#FFFF03" d="M61.54 207.65a11.002 11.002 0 01-3 6.07 9.5 9.5 0 011.28-12.61 10.89 10.89 0 011.72 6.54zM116.15 287.75a10.997 10.997 0 00-3.52 5.82 11.359 11.359 0 006.54-2.1 10.997 10.997 0 003.52-5.82 11.447 11.447 0 00-6.54 2.1z"/>
    <path fill="#FFFF03" d="M119.51 293.43a11.45 11.45 0 00-6.88.14 11.19 11.19 0 005.27 4.36c2.254.659 4.655.61 6.88-.14a11.26 11.26 0 00-5.27-4.36zM125.62 285.28a10.925 10.925 0 00-2.67 6.24 11.353 11.353 0 006.19-3 11.006 11.006 0 002.67-6.24 11.353 11.353 0 00-6.19 3z"/>
    <path fill="#FFFF03" d="M129.74 290.46a11.422 11.422 0 00-6.79 1.06 11.262 11.262 0 005.83 3.6 11.423 11.423 0 006.79-1.06 11.255 11.255 0 00-5.83-3.6zM134.14 280.7a11.003 11.003 0 00-1.63 6.58 11.289 11.289 0 005.63-3.89 10.931 10.931 0 001.64-6.58 11.303 11.303 0 00-5.64 3.89z"/>
    <path fill="#FFFF03" d="M139.05 285.17c-2.346.01-4.631.747-6.54 2.11a9.898 9.898 0 0012.87.54 11.352 11.352 0 00-6.33-2.65zM141.85 274.44a10.88 10.88 0 000 6.77 11.09 11.09 0 004.51-5.12c.717-2.2.717-4.57 0-6.77a11.158 11.158 0 00-4.51 5.12z"/>
    <path fill="#FFFF03" d="M147.71 277.6a11.308 11.308 0 00-5.83 3.61 11.455 11.455 0 006.8 1.06 11.262 11.262 0 005.82-3.61 11.423 11.423 0 00-6.79-1.06zM148.21 266.49a10.942 10.942 0 001.65 6.58 11.102 11.102 0 003.16-6 11.001 11.001 0 00-1.66-6.58 10.999 10.999 0 00-3.15 6z"/>
    <path fill="#FFFF03" d="M154.66 268.21a11.14 11.14 0 00-4.8 4.86c2.289.524 4.684.332 6.86-.55a11.14 11.14 0 004.8-4.86 11.457 11.457 0 00-6.86.55zM152.77 257.62a11.005 11.005 0 002.95 6.12 9.54 9.54 0 00-1.07-12.64 10.926 10.926 0 00-1.88 6.52z"/>
    <path fill="#FFFF03" d="M159.44 258a11.004 11.004 0 00-3.72 5.7c2.344.067 4.652-.59 6.61-1.88a11.063 11.063 0 003.72-5.7 11.423 11.423 0 00-6.61 1.88zM155.43 248.66a11.057 11.057 0 003.89 5.58 10.999 10.999 0 00.81-6.73 11.17 11.17 0 00-3.9-5.58 10.902 10.902 0 00-.8 6.73z"/>
    <path fill="#FFFF03" d="M162.08 248a11.006 11.006 0 00-2.76 6.2 11.33 11.33 0 006.23-2.88 11.001 11.001 0 002.76-6.21 11.382 11.382 0 00-6.23 2.89zM155.67 239a11.174 11.174 0 005.15 4.49 10.935 10.935 0 00-.87-6.72 11.289 11.289 0 00-5.16-4.49c-.428 2.277-.12 4.63.88 6.72z"/>
    <path fill="#FFFF03" d="M162 236.83a10.93 10.93 0 00-1.15 6.68c2.18-.84 4.044-2.34 5.33-4.29a10.936 10.936 0 001.15-6.68 11.21 11.21 0 00-5.33 4.29zM153.81 229a11.245 11.245 0 006.08 3.17 11.002 11.002 0 00-2.46-6.32 11.282 11.282 0 00-6.08-3.17 11.002 11.002 0 002.46 6.32z"/>
    <path fill="#FFFF03" d="M159.41 225.37a10.873 10.873 0 00.48 6.75 11.138 11.138 0 004.16-5.4 10.917 10.917 0 00-.49-6.75 11.092 11.092 0 00-4.15 5.4zM150.27 220.82a11.324 11.324 0 006.65 1.72 11.001 11.001 0 00-3.86-5.61 11.419 11.419 0 00-6.65-1.72 11.001 11.001 0 003.86 5.61z"/>
    <path fill="#FFFF03" d="M154.89 216.07c-.03 2.313.67 4.577 2 6.47a9.49 9.49 0 00.76-12.65 11 11 0 00-2.76 6.18zM145.45 213.39a11.427 11.427 0 006.85.67 11.149 11.149 0 00-4.72-4.94 11.387 11.387 0 00-6.85-.66 11.105 11.105 0 004.72 4.93z"/>
    <path fill="#FFFF03" d="M149.25 208a11 11 0 003.05 6.07 9.533 9.533 0 00-1.3-12.63 10.927 10.927 0 00-1.75 6.56z"/>
    <path fill="#FFFF03" d="M142.88 202.71a5.61 5.61 0 01-.5.45l-.17.1a50.539 50.539 0 0118.18 38.53c0 28.6-24.64 51.87-54.92 51.87s-54.93-23.27-54.93-51.87a50.387 50.387 0 0116.73-37.24 5.441 5.441 0 01-.89-.34 51.16 51.16 0 00-16.72 37.58c0 29.06 25 52.7 55.81 52.7 30.81 0 55.81-23.64 55.81-52.7a51.354 51.354 0 00-18.4-39.08z"/>
    <path fill="#FFFF03" d="M72.73 206.44a11.41 11.41 0 01-6.81-1 11.22 11.22 0 015.79-3.66 11.41 11.41 0 016.81 1 11.22 11.22 0 01-5.79 3.66z"/>
    <path fill="#FFFF03" d="M70.38 200.29a11.09 11.09 0 01-4.46 5.16 10.94 10.94 0 01-.1-6.77 11.149 11.149 0 014.46-5.16 10.94 10.94 0 01.1 6.77zM138.43 206.44a11.41 11.41 0 006.81-1 11.22 11.22 0 00-5.79-3.66 11.386 11.386 0 00-6.8 1 11.223 11.223 0 005.78 3.66z"/>
    <path fill="#FFFF03" d="M140.79 200.29a11.1 11.1 0 004.45 5.16c.748-2.189.783-4.56.1-6.77a11.09 11.09 0 00-4.46-5.16 10.888 10.888 0 00-.09 6.77zM129.26 267.45l-22.17-9.22-22.26 9.02 1.92-23.94-15.46-18.38 23.36-5.57 12.71-20.39 12.51 20.5 23.32 5.78-15.63 18.24 1.7 23.96z"/>
    <g style="mix-blend-mode:screen">
      <path fill="#FFF8C5" d="M107.09 258.23l.88.36-28.46-35.62-4.4 1.05 28.46 35.63 3.52-1.42zM127.93 248.68l-28.96-36.24-2.3 3.68 31.77 39.76-.51-7.2zM131.13 239.33l-27.48-34.4-2.3 3.68 27.06 33.88 2.72-3.16zM129.26 267.45l-.45-6.28-33.83-42.35-.33.54-9.63 2.29 32.77 41.03 11.47 4.77z"/>
    </g>
    <path fill="#004DA2" d="M0 0h65.23l71.24 153.3H74.61L0 0z"/>
  </g>
  <defs>
    <clipPath id="clip0_1245_4372">
      <path fill="#fff" d="M0 0h197.78v320.51H0z"/>
    </clipPath>
  </defs>
</svg>
