<svg xmlns="http://www.w3.org/2000/svg" width="160" height="351" fill="none" viewBox="0 0 160 351">
  <g clip-path="url(#clip0_1245_4191)">
    <path fill="#FFB600" d="M120.08 201.68v-17.8a13.191 13.191 0 00-13.17-13.18H52.65a13.192 13.192 0 00-13.18 13.18v17.8a79.792 79.792 0 00-36.704 89.742 79.795 79.795 0 0077.009 58.91 79.792 79.792 0 0073.852-109.996 79.792 79.792 0 00-33.547-38.656zM48.77 197v-13.12a3.882 3.882 0 013.88-3.88h54.26a3.882 3.882 0 013.87 3.88V197a80.156 80.156 0 00-62 0h-.01z"/>
    <path fill="#FFEC03" d="M79.78 335.36a64.824 64.824 0 01-59.886-40.014 64.823 64.823 0 0147.24-88.381 64.824 64.824 0 0166.542 27.563A64.825 64.825 0 01144.6 270.54a64.88 64.88 0 01-64.82 64.82z"/>
    <path fill="#FFB600" d="M142.56 270.54l-11.91 16.53-.08 20.38-19.36 6.36-12.02 16.46-19.41-6.25-19.41 6.25-12.02-16.46-19.37-6.36-.07-20.38-11.92-16.53 11.92-16.53.07-20.38 19.37-6.35 12.02-16.46 19.41 6.25 19.41-6.25 12.02 16.46 19.36 6.35.08 20.38 11.91 16.53z"/>
    <path fill="#FFEC03" d="M135.32 270.54l-11.56 14.3.96 18.36-17.77 4.75-10 15.43-17.17-6.6-17.17 6.6-10.01-15.43-17.76-4.75.96-18.36-11.57-14.3 11.57-14.29-.96-18.36 17.76-4.76 10.01-15.42 17.17 6.6 17.17-6.6 10 15.42 17.77 4.76-.96 18.36 11.56 14.29z"/>
    <path fill="#FFB600" d="M124.23 270.54a44.453 44.453 0 01-27.44 41.066 44.445 44.445 0 01-48.44-9.635 44.454 44.454 0 01-9.636-48.441 44.451 44.451 0 0141.066-27.44 44.462 44.462 0 0144.45 44.45z"/>
    <path fill="#FFEC03" d="M108.673 299.437c15.961-15.961 15.961-41.838 0-57.799-15.96-15.96-41.838-15.96-57.799 0-15.96 15.961-15.96 41.838 0 57.799 15.96 15.961 41.838 15.961 57.799 0z"/>
    <path fill="#AB322F" d="M110.78 183.88H48.77L48.81 0h61.97v183.88z"/>
    <path fill="#FF1F1F" d="M48.77 183.37C73.52 177.73 93 125.3 93 61.45A276.638 276.638 0 0086.39 0H48.81l-.04 183.37z"/>
  </g>
  <defs>
    <clipPath id="clip0_1245_4191">
      <path fill="#fff" d="M0 0h159.56v350.32H0z"/>
    </clipPath>
  </defs>
</svg>
