<svg xmlns="http://www.w3.org/2000/svg" width="165" height="242" fill="none" viewBox="0 0 165 242">
  <g clip-path="url(#clip0_1245_3892)">
    <path fill="#AB322F" d="M139.05 0l-27.23 66.73H55.26L80.4 0h58.65z"/>
    <path fill="#F28F0E" d="M114.41 55.16H53.17a7.28 7.28 0 00-7.29 7.28v39h75.82v-39a7.291 7.291 0 00-7.29-7.28zm1.9 14.29H49.88v-3a5.87 5.87 0 015.87-5.87h54.69a5.87 5.87 0 015.87 5.87v3z"/>
    <path fill="#FA352C" d="M28.93 0l26.33 66.73h56.56L86.08 0H28.93z"/>
    <path fill="#FCE0E0" d="M68.35 66.73L39.45 0h-3.27l28.9 66.73h3.27zM80.59 66.73L51.69 0h-3.27l28.9 66.73h3.27zM94.12 66.73L65.22 0h-3.27l28.9 66.73h3.27zM106.08 66.73L77.18 0h-3.27l28.9 66.73h3.27z"/>
    <path fill="#FFB10F" d="M155.707 196.485c20.303-40.598 3.851-89.969-36.747-110.272C78.361 65.909 28.99 82.36 8.687 122.96c-20.304 40.598-3.851 89.969 36.747 110.272 40.598 20.304 89.969 3.852 110.273-36.747z"/>
    <path fill="#FF930F" d="M148.28 110.83a82.197 82.197 0 01-22.373 112.142 82.195 82.195 0 01-60.194 13.464A82.195 82.195 0 0113.1 204.24a82.203 82.203 0 00115.832 23.109 82.206 82.206 0 0033.187-86.864 82.195 82.195 0 00-13.839-29.655z"/>
    <path fill="#FFDC01" d="M142.148 189.704c16.558-33.109 3.141-73.374-29.969-89.932-33.11-16.559-73.375-3.141-89.933 29.969-16.559 33.11-3.141 73.374 29.969 89.932 33.11 16.559 73.374 3.141 89.933-29.969z"/>
    <path fill="#FFF375" d="M74 205.31a10.388 10.388 0 013.32 5.48 10.682 10.682 0 01-6.17-2 10.389 10.389 0 01-3.32-5.48c2.213.016 4.368.715 6.17 2z"/>
    <path fill="#FFF375" d="M70.83 210.66a10.863 10.863 0 016.49.13 10.593 10.593 0 01-5 4.11 10.77 10.77 0 01-6.49-.13 10.594 10.594 0 015-4.11zM63.77 202.53a10.339 10.339 0 012.52 5.89 10.672 10.672 0 01-5.83-2.8 10.3 10.3 0 01-2.52-5.88 10.733 10.733 0 015.83 2.79z"/>
    <path fill="#FFF375" d="M59.88 207.41a10.752 10.752 0 016.41 1 10.64 10.64 0 01-5.5 3.39 10.758 10.758 0 01-6.4-1 10.618 10.618 0 015.49-3.39zM55.72 198.55a10.32 10.32 0 011.54 6.2 10.621 10.621 0 01-5.26-3.66 10.34 10.34 0 01-1.54-6.21 10.67 10.67 0 015.26 3.67z"/>
    <path fill="#FFF375" d="M51.1 202.76c2.21.014 4.363.713 6.16 2a10.685 10.685 0 01-6 2.5 10.754 10.754 0 01-6.17-2 10.728 10.728 0 016.01-2.5zM48.2 192.49a10.32 10.32 0 010 6.38 10.48 10.48 0 01-4.28-4.87 10.24 10.24 0 010-6.38 10.479 10.479 0 014.28 4.87z"/>
    <path fill="#FFF375" d="M42.68 195.47a10.618 10.618 0 015.49 3.4 10.806 10.806 0 01-6.41 1 10.625 10.625 0 01-5.49-3.41 10.734 10.734 0 016.41-.99zM42.51 185.46a10.28 10.28 0 01-1.55 6.2 9 9 0 01-1.42-11.87 10.379 10.379 0 012.97 5.67z"/>
    <path fill="#FFF375" d="M36.43 187.08a10.53 10.53 0 014.57 4.58 10.775 10.775 0 01-6.47-.52 10.42 10.42 0 01-4.53-4.58c2.146-.49 4.39-.308 6.43.52zM37.66 176.62a10.4 10.4 0 01-2.78 5.77 9 9 0 011-11.92 10.348 10.348 0 011.78 6.15z"/>
    <path fill="#FFF375" d="M31.38 177a10.41 10.41 0 013.5 5.38 10.722 10.722 0 01-6.23-1.78 10.418 10.418 0 01-3.51-5.37 10.774 10.774 0 016.24 1.77zM35.16 168.18a10.498 10.498 0 01-3.67 5.27 10.27 10.27 0 01-.76-6.35 10.44 10.44 0 013.67-5.26 10.33 10.33 0 01.76 6.34z"/>
    <path fill="#FFF375" d="M28.89 167.6a10.329 10.329 0 012.6 5.85 10.779 10.779 0 01-5.88-2.72 10.39 10.39 0 01-2.61-5.85 10.683 10.683 0 015.89 2.72zM34.89 158.78A10.557 10.557 0 0130 163a10.3 10.3 0 01.83-6.33 10.554 10.554 0 014.86-4.23 10.249 10.249 0 01-.8 6.34z"/>
    <path fill="#FFF375" d="M29 156.72a10.28 10.28 0 011 6.28 10.58 10.58 0 01-5-4 10.24 10.24 0 01-1.08-6.29 10.582 10.582 0 015.08 4.01zM36.56 149.3a10.641 10.641 0 01-5.73 3 10.32 10.32 0 012.31-6 10.743 10.743 0 015.74-3 10.31 10.31 0 01-2.32 6z"/>
    <path fill="#FFF375" d="M31.28 145.91a10.28 10.28 0 01-.45 6.37 10.409 10.409 0 01-3.92-5.09 10.29 10.29 0 01.45-6.37 10.468 10.468 0 013.92 5.09zM40 141.5a10.742 10.742 0 01-6.28 1.62 10.433 10.433 0 013.64-5.29 10.71 10.71 0 016.27-1.62A10.45 10.45 0 0140 141.5z"/>
    <path fill="#FFF375" d="M35.64 137a10.31 10.31 0 01-1.92 6.1 9 9 0 01-.72-11.91 10.39 10.39 0 012.64 5.81zM44.29 134.44a10.79 10.79 0 01-6.46.63 10.55 10.55 0 014.45-4.66 10.71 10.71 0 016.45-.62 10.503 10.503 0 01-4.44 4.65z"/>
    <path fill="#FFF375" d="M40.71 129.34a10.372 10.372 0 01-2.88 5.73 9 9 0 011.17-11.9 10.36 10.36 0 011.71 6.17zM92.19 204.86a10.353 10.353 0 00-3.31 5.49 10.738 10.738 0 006.16-2 10.329 10.329 0 003.32-5.49 10.762 10.762 0 00-6.17 2z"/>
    <path fill="#FFF375" d="M95.36 210.22a10.73 10.73 0 00-6.48.13 10.545 10.545 0 005 4.11c2.125.626 4.392.58 6.49-.13a10.526 10.526 0 00-5.01-4.11zM101.13 202.53a10.338 10.338 0 00-2.52 5.89 10.704 10.704 0 005.83-2.8 10.301 10.301 0 002.52-5.88 10.7 10.7 0 00-5.83 2.79z"/>
    <path fill="#FFF375" d="M105 207.41a10.727 10.727 0 00-6.4 1 10.642 10.642 0 005.49 3.39 10.774 10.774 0 006.41-1 10.617 10.617 0 00-5.5-3.39zM109.16 198.22a10.3 10.3 0 00-1.54 6.2 10.596 10.596 0 005.31-3.67 10.22 10.22 0 001.54-6.2 10.638 10.638 0 00-5.31 3.67z"/>
    <path fill="#FFF375" d="M113.79 202.43a10.753 10.753 0 00-6.17 2 9.323 9.323 0 0012.14.5 10.698 10.698 0 00-5.97-2.5zM116.43 192.31a10.263 10.263 0 000 6.39 10.544 10.544 0 004.25-4.83 10.306 10.306 0 000-6.39 10.549 10.549 0 00-4.25 4.83z"/>
    <path fill="#FFF375" d="M122 195.29a10.623 10.623 0 00-5.49 3.41 10.728 10.728 0 006.41 1 10.574 10.574 0 005.49-3.4 10.777 10.777 0 00-6.41-1.01zM122.42 184.82A10.337 10.337 0 00124 191a9.002 9.002 0 001.42-11.88 10.412 10.412 0 00-3 5.7z"/>
    <path fill="#FFF375" d="M128.5 186.44A10.493 10.493 0 00124 191c2.159.496 4.418.314 6.47-.52a10.536 10.536 0 004.52-4.58 10.774 10.774 0 00-6.49.54zM126.72 176.45a10.4 10.4 0 002.78 5.77 9 9 0 00-1-11.91 10.385 10.385 0 00-1.78 6.14z"/>
    <path fill="#FFF375" d="M133 176.85a10.414 10.414 0 00-3.51 5.37 10.775 10.775 0 006.24-1.77 10.414 10.414 0 003.51-5.37 10.775 10.775 0 00-6.24 1.77zM129.23 168a10.433 10.433 0 003.67 5.27 10.25 10.25 0 00.76-6.34 10.433 10.433 0 00-3.67-5.27 10.252 10.252 0 00-.76 6.34z"/>
    <path fill="#FFF375" d="M135.5 167.42a10.329 10.329 0 00-2.6 5.85 10.762 10.762 0 005.87-2.72 10.354 10.354 0 002.6-5.85 10.677 10.677 0 00-5.87 2.72zM129.46 158.92a10.623 10.623 0 004.86 4.23 10.33 10.33 0 00-.83-6.34 10.623 10.623 0 00-4.86-4.23 10.33 10.33 0 00.83 6.34z"/>
    <path fill="#FFF375" d="M135.4 156.85a10.28 10.28 0 00-1.08 6.3 10.598 10.598 0 005-4 10.28 10.28 0 001.08-6.3 10.598 10.598 0 00-5 4zM127.7 149.43a10.658 10.658 0 005.74 3 10.37 10.37 0 00-2.32-6 10.716 10.716 0 00-5.74-3c.12 2.195.933 4.295 2.32 6z"/>
    <path fill="#FFF375" d="M133 146c-.53 2.118-.368 4.35.46 6.37a10.467 10.467 0 003.92-5.09 10.335 10.335 0 00-.46-6.37A10.531 10.531 0 00133 146zM124.36 141.76a10.742 10.742 0 006.28 1.62 10.436 10.436 0 00-3.64-5.29 10.799 10.799 0 00-6.27-1.62 10.447 10.447 0 003.63 5.29z"/>
    <path fill="#FFF375" d="M128.72 137.28a10.31 10.31 0 001.92 6.1 8.998 8.998 0 00.72-11.93 10.394 10.394 0 00-2.64 5.83zM119.82 134.76a10.827 10.827 0 006.46.62 10.496 10.496 0 00-4.45-4.65 10.757 10.757 0 00-6.45-.63 10.502 10.502 0 004.44 4.66z"/>
    <path fill="#FFF375" d="M123.4 129.66a10.428 10.428 0 002.88 5.72 9 9 0 00-1.21-11.9 10.365 10.365 0 00-1.67 6.18z"/>
    <path fill="#FFF375" d="M117.4 124.68c-.148.15-.305.29-.47.42l-.16.11a47.606 47.606 0 0117.14 36.31c0 27-23.23 48.91-51.79 48.91s-51.78-21.94-51.78-48.91a47.49 47.49 0 0115.77-35.1 4.871 4.871 0 01-.84-.33 48.244 48.244 0 00-15.77 35.43c0 27.4 23.61 49.7 52.62 49.7 29.01 0 52.62-22.3 52.62-49.7a48.443 48.443 0 00-4.61-20.331 48.443 48.443 0 00-12.73-16.509z"/>
    <path fill="#FFF375" d="M51.26 128.2a10.744 10.744 0 01-6.42-.93 10.652 10.652 0 015.46-3.46 10.8 10.8 0 016.42.94 10.6 10.6 0 01-5.46 3.45z"/>
    <path fill="#FFF375" d="M49 122.4a10.492 10.492 0 01-4.2 4.87 10.27 10.27 0 01-.09-6.39A10.428 10.428 0 0149 116a10.24 10.24 0 010 6.4zM113.21 128.2c2.185.359 4.427.034 6.42-.93a10.652 10.652 0 00-5.46-3.46 10.8 10.8 0 00-6.42.94 10.599 10.599 0 005.46 3.45z"/>
    <path fill="#FFF375" d="M115.42 122.4a10.539 10.539 0 004.21 4.87 8.998 8.998 0 00-4.11-11.27 10.274 10.274 0 00-.1 6.4zM79.27 130.3h11.56V186H77.27v-40.69l-10.35 7.05-6.58-9.64 18.93-12.42z"/>
  </g>
  <defs>
    <clipPath id="clip0_1245_3892">
      <path fill="#fff" d="M0 0h164.39v241.89H0z"/>
    </clipPath>
  </defs>
</svg>
