<svg xmlns="http://www.w3.org/2000/svg" width="231" height="441" fill="none" viewBox="0 0 231 441">
  <g clip-path="url(#clip0_1245_4155)">
    <path fill="#FFB10F" d="M121.5 160.28H109v76.12h12.5v-76.12z"/>
    <path fill="#FFDC01" d="M135.25 245.14h-40a8.75 8.75 0 018.75-8.75h22.5a8.749 8.749 0 018.75 8.75z"/>
    <path fill="#893003" d="M203.75 406.89h-177l10-153.09h158l9 153.09z"/>
    <path fill="#7A2B03" d="M194.75 253.8h-158l-.59 9.07c37.57 14.5 98.2 44.91 121.18 96.23 9.07 20.26 15.72 35.84 20.6 47.79h25.81l-9-153.09z"/>
    <path fill="#FFB10F" d="M196.75 245.14h-163v8.66h163v-8.66zM18.5 406.89H212a8 8 0 018 8v16.17H10.5v-16.17a8 8 0 018-8z"/>
    <path fill="#FFA30F" d="M212 406.89h-34.25a8 8 0 018 8v16.17H220v-16.17a8 8 0 00-8-8z"/>
    <path fill="#D67205" d="M230.5 430.88H0v9.5h230.5v-9.5z"/>
    <path fill="#BD6504" d="M230.5 437.43H0v2.94h230.5v-2.94z"/>
    <path fill="#E09C0D" d="M109 177.84l7.12-2.99 5.38 2.15v-16.72H109v17.56z"/>
    <path fill="#FFDC01" d="M177.75 188.78l-61.72-24.74-61.29 25.78 4.45-66.35-43.46-50.32 64.48-16.26L114.64 0l35.39 56.3 64.74 15.16-42.6 51.06 5.58 66.26z"/>
    <path fill="#FFDC01" d="M64.46 185.73c35-38.63 58.09-100.79 59.28-171.26L114.64 0 80.21 56.89 15.73 73.15l43.46 50.32-4.45 66.35 9.72-4.09z"/>
    <g style="mix-blend-mode:screen">
      <path fill="#FFF8A4" d="M114.45 147l-28.33-39.5a1 1 0 01.23-1.38.998.998 0 011.37.23l28.33 39.5a.998.998 0 01-.316 1.248 1.004 1.004 0 01-1.284-.098z"/>
    </g>
    <g style="mix-blend-mode:screen">
      <path fill="#FFF8A4" d="M144.14 160.87l-63-84.1a1 1 0 011.58-1.18l63 84.1a1.003 1.003 0 01-.298 1.238.994.994 0 01-1.272-.058h-.01z"/>
    </g>
    <g style="mix-blend-mode:screen">
      <path fill="#FFF8A4" d="M164.37 169.63l-64.09-90.88a.997.997 0 01.24-1.37 1 1 0 011.37.24L166 168.49a1 1 0 01-1.61 1.14h-.02z"/>
    </g>
    <g style="mix-blend-mode:screen">
      <path fill="#FFF8A4" d="M146.62 115l-43.5-62a.993.993 0 01-.296-.795 1.015 1.015 0 01.423-.737 1.001 1.001 0 011.483.402l43.5 62a1 1 0 11-1.61 1.13z"/>
    </g>
    <path fill="#FFF8A4" d="M144.11 82.73l-15.75-23.5a1.002 1.002 0 01-.224-.37c-.047-.14-.063-.286-.047-.431a.998.998 0 011.277-.849.995.995 0 01.634.56l15.75 23.5a1.004 1.004 0 01-.27 1.36 1 1 0 01-1.37-.27z"/>
    <path fill="#FC0" d="M158.68 337H83.17a5.002 5.002 0 01-5 5v36.47a5.002 5.002 0 015 5h75.51c0-1.326.527-2.598 1.464-3.536a5.004 5.004 0 013.536-1.464V342a5.004 5.004 0 01-3.536-1.464A5.004 5.004 0 01158.68 337z"/>
    <path fill="#F9C569" d="M83.17 337v.39l36.55 46.08h5.1L88 337h-4.83zM78.17 342v2.5l30.92 39h2.55L78.72 342c-.183.01-.367.01-.55 0zM97.43 336.96l36.86 46.47h2.55l-36.86-46.47h-2.55zM107.22 336.96l36.86 46.47h3.83l-36.86-46.47h-3.83z"/>
    <g style="mix-blend-mode:screen">
      <path fill="#F9C569" d="M170.92 413.43h-23a.997.997 0 01-1-1 .997.997 0 011-1h23a.997.997 0 011 1 .997.997 0 01-1 1z"/>
    </g>
    <g style="mix-blend-mode:screen">
      <path fill="#F9C569" d="M137.36 413.43h-20.23a.997.997 0 01-1-1 .997.997 0 011-1h20.23a.997.997 0 011 1 .997.997 0 01-1 1z"/>
    </g>
    <g style="mix-blend-mode:screen">
      <path fill="#F9C569" d="M107.22 413.43h-87.3a.998.998 0 01-.707-1.707.998.998 0 01.707-.293h87.3a.997.997 0 011 1 .997.997 0 01-1 1z"/>
    </g>
  </g>
  <defs>
    <clipPath id="clip0_1245_4155">
      <path fill="#fff" d="M0 0h230.5v440.37H0z"/>
    </clipPath>
  </defs>
</svg>
