<svg xmlns="http://www.w3.org/2000/svg" width="191" height="421" fill="none" viewBox="0 0 191 421">
  <g clip-path="url(#clip0_1245_4125)">
    <path fill="#FFDC01" d="M137 220.31c-.05 1.2-.21 2.34-.35 3.53-4 30.5-20.32 61.48-49 74.54l-.52-.85c19.78-16.53 27.2-40.78 25.92-66.53-.14-2.48-.77-9.17-1.07-9.54l25.02-1.15z"/>
    <path fill="#FFEC03" d="M60.2 199.84C62.49 224 76.76 283.3 103.44 303l-.51.86C73.14 289.72 46.17 234 37.17 205.07l23.03-5.23z"/>
    <path fill="#FF8B00" d="M122.28 104.77c-2 3.73-10.13 23.65-16.67 45.85a351.873 351.873 0 00-13.86 73.55 269.992 269.992 0 00-.53 25.14 183.078 183.078 0 008.23 50.08l-.91.41c-32-56.72-32.06-138.7-19.85-202.08l.68-3.43c.26-1.21.46-2.23.83-3.71l42.08 14.19z"/>
    <path fill="#D67205" d="M117.51 303.85a25.357 25.357 0 01-43.292 17.932 25.357 25.357 0 01-5.498-27.637 25.361 25.361 0 0148.79 9.705zM122.28 104.77L80.2 90.58c-1.83 7.28-5.85 29.81-7.71 52.79l16.3-4.06L106 149.48c6.43-21.75 14.29-41.05 16.28-44.71z"/>
    <path fill="#FFB600" d="M136.34 159.35l-46.46-27.53-52.39 13.07L49.32 92.2 20.69 46.41l53.77-5.04L109.17 0l21.4 49.58 50.07 20.23-40.54 35.67-3.76 53.87z"/>
    <path fill="#FFC536" d="M90.67 126.47l-46.53 11.61 10.5-46.79-25.41-40.66 47.74-4.47 30.82-36.74 19 44.03 44.46 17.96-35.99 31.67-3.34 47.84-41.25-24.45z"/>
    <path fill="#FFC536" d="M55.61 127.93a79.642 79.642 0 0079.19-71.25l-8-3.23-19-44L77 46.16l-47.77 4.47 25.41 40.66-8.1 36.12c3.011.346 6.04.519 9.07.52z" opacity=".51"/>
    <path fill="#893003" d="M173.43 329.2H17.05v78.47h156.38V329.2z"/>
    <path fill="#7A2B02" d="M17.05 329.2s93.6 10.14 95 21.48l24.75 36.76 2.34 20.24h34.28V329.2H17.05z"/>
    <path fill="#FFB10F" d="M11.72 407.68h167a11.72 11.72 0 0111.72 11.72v1.51H0v-1.51a11.72 11.72 0 0111.72-11.72z"/>
    <path fill="#EABE06" d="M112.19 250.84h1.76l10.81 10.92c7.33-13.87 11.87-31.73 12.23-41.47l-25 1.11c.36.47 2.36 14.45.2 29.44z"/>
    <path fill="#FFD110" d="M116.9 243.89l20.76 20.97 9.42-27.96 26.35-13.26-23.68-17.6-4.47-29.16-24.05 17.08-29.11-4.76 8.8 28.15-13.52 26.22 29.5.32z"/>
    <path fill="#FFD938" d="M119.01 238.91l-23.45-.25 10.75-20.84-7-22.38 23.14 3.78 19.12-13.57 3.55 23.18 18.82 13.99L143 233.36l-7.49 22.22-16.5-16.67z"/>
    <path fill="#FFB10F" d="M136.82 350.68H52.15v36.76h84.67v-36.76z"/>
    <g style="mix-blend-mode:screen">
      <path fill="#FFB10F" d="M82.78 387.44l-29.16-36.76h-1.47v4.58l25.52 32.18h5.11zM69.6 387.44l-17.45-22.01v3.22l14.9 18.79h2.55zM94.81 387.44l-29.16-36.76h-2.56l29.16 36.76h2.56zM105.87 387.44l-29.15-36.76h-3.83l29.15 36.76h3.83z"/>
    </g>
    <path fill="#FFB10F" d="M163.48 309.46H25.98v19.74h137.5v-19.74z"/>
    <path fill="#FFCF03" d="M52.33 289.73h85.83a17.33 17.33 0 0117.33 17.33v2.41H35v-2.41a17.33 17.33 0 0117.33-17.33z"/>
    <path fill="#E8BC03" d="M138.15 289.73h-14.3a17.322 17.322 0 0117.33 17.32v2.41h14.3v-2.41a17.32 17.32 0 00-17.33-17.32z"/>
    <path fill="#FFCF03" d="M60.2 199.84l-23 5.23c3.07 9.549 6.723 18.9 10.94 28l7.94-6 9.27 1.25a209.905 209.905 0 01-5.15-28.48z"/>
    <path fill="#FFB10F" d="M83.38 223.69l-29.24-3.95-23.57 17.73-5.28-29.02-24.15-16.94 25.97-13.98 8.65-28.21 21.33 20.38 29.49-.49-12.79 26.58 9.59 27.9z"/>
    <path fill="#FFCA5C" d="M29.85 205.53l-19.2-13.46 20.64-11.12 6.87-22.42 16.96 16.21 23.44-.4-10.17 21.13 7.62 22.18-23.24-3.14-18.73 14.09-4.19-23.07z"/>
  </g>
  <defs>
    <clipPath id="clip0_1245_4125">
      <path fill="#fff" d="M0 0h190.48v420.91H0z"/>
    </clipPath>
  </defs>
</svg>
