<svg xmlns="http://www.w3.org/2000/svg" width="263" height="242" fill="none" viewBox="0 0 263 242">
  <g clip-path="url(#clip0_1245_4497)">
    <path fill="#FFB10F" d="M193.36 213.64a105.517 105.517 0 01-44.06 15l-.32-3a102.445 102.445 0 0045.75-16.39 43.477 43.477 0 00-1.37 4.39zM171.42 21.22c-.52-1.07-1-1.91-1.11-2C164.15 9 154.83 7.34 140.93 9.34c1.48 2.18 5.81 8.08 11 11.32.48.12 6.25 5.15 19.49.56z"/>
    <path fill="#FFB10F" d="M170.4 23c-7.48 2.31-13.66 2.07-18.42-.72a59.84 59.84 0 00-7.43 5.89C156 33.73 162.83 32.3 170.4 23zM172 15.75c-.43-7.44-3.62-12.47-15.54-15.75-.006 2.68.205 5.355.63 8a19.13 19.13 0 0112.43 7.51c.86.04 1.29.08 2.48.24zM196.09 39.73a50.795 50.795 0 01-.14-5.8c1 .35 1.55.52 2.8 1-2.41-8.54-6.62-10.65-11.25-13.38-5.86-2.77-16.12-4.43-16.22-4.45 4.93 18.36 13.63 22.37 24.81 22.63z"/>
    <path fill="#FFB10F" d="M196.33 42.22c0-.39-.08-.76-.12-1.13-7.84-.17-13.84-2.41-17.83-6.67a72.455 72.455 0 00-10.41 4c10.03 9.58 17.9 10.01 28.36 3.8zM201.59 36.05c3.64-9.6 2-16.59-10-24.12a57.439 57.439 0 00-2.41 8.89c6 3.06 9.54 7.65 11.29 14.76l1.12.47zM222.56 62c-.24-12.53-8-16.64-8.88-17.68a62.333 62.333 0 00-16.24-8.44c.4 14.39 3.21 25.19 18.05 29.84a60.927 60.927 0 011.32-7.23c1.57.89 3.1 1.75 5.75 3.51z"/>
    <path fill="#FFB10F" d="M215.08 70.09c0-1 .14-2 .24-3-7.15-2.18-11.88-5.59-14.83-10.65a84.046 84.046 0 00-12.63 2c7.91 12.35 15.92 14.65 27.22 11.65zM225.22 63.87C232 54.15 232.14 46.06 221 35a69.9 69.9 0 00-5.18 9.28c5.75 4.77 8.31 10.6 8.25 18.8l1.15.79zM239.05 94.17c2.64-13.26-3.91-18.27-5.27-20.77-4.56-5.24-10.09-9-15.93-12.62-2.29 13.15-3.29 25.26 8.34 33.56a73.912 73.912 0 014.09-9.34 83.66 83.66 0 018.77 9.17z"/>
    <path fill="#FFB10F" d="M224 101.67a61.2 61.2 0 011.71-6c-4.87-3.38-7.78-7.1-9.36-12a93.718 93.718 0 00-14.35-.25c5.57 14.77 13.54 17.93 22 18.25zM241.27 97c9.86-9.34 12.09-18.21 2.47-32.6a79.254 79.254 0 00-8 9.17c5.16 6.31 6.54 13.16 4.47 22.11.38.4.7.81 1.06 1.32zM244.66 127.75c5.26-11.56 2.12-17.12-.09-22.86-4-7.72-10.95-14.78-13.84-17.51-5.67 11.7-9.84 25.1-2 35.78a85.257 85.257 0 018.27-10.37 86.35 86.35 0 017.66 14.96z"/>
    <path fill="#FFB10F" d="M223.53 132.07a60.75 60.75 0 014.31-7.65 22.06 22.06 0 01-4.84-12.65 102.923 102.923 0 00-15.36-3.59c1.42 10.38 4.15 19.82 15.89 23.89zM246.06 131.73c13.09-7.77 18-16.72 11.48-34.52a91.175 91.175 0 00-11.13 8.11c2.72 5.67 4.59 13-1 24.34l.65 2.07z"/>
    <path fill="#FFB10F" d="M240.86 158.94c8-10.92 5.1-17.92 5.12-21.41-1.77-9.32-6.73-18.29-9.19-22.34-9.82 11.27-18.4 24.25-13.25 37.81A96.486 96.486 0 01239 143a88.54 88.54 0 011.86 15.94z"/>
    <path fill="#FFB10F" d="M215.34 160.65a62.506 62.506 0 017-6.7 23.48 23.48 0 01-1.3-15 108.467 108.467 0 00-15.18-7.87c-1.67 11.36-2 22.16 9.48 29.57zM262 132.55c-3.46 1.13-10.38 3.49-14.42 5.66 1.42 8.45-.61 15.39-6.72 23.08 0 1.45-.06 2.88-.16 4.26 14.72-4.73 22.63-13.11 21.3-33z"/>
    <path fill="#FFB10F" d="M238.46 171.33c1.55-8 .91-18.29-.57-26.2-12.09 6.83-26.19 16.94-28.23 29.89a116.4 116.4 0 0115.14-4.7 92.723 92.723 0 01-5.59 24.48c13.35-6.94 16.08-12.86 19.25-23.47z"/>
    <path fill="#FFB10F" d="M208.11 175.63a24.3 24.3 0 014.36-11.26c-3-4.3-9.44-10.28-12.61-13.16-5.7 9.74-9.75 20.85-4.06 30.55a80.647 80.647 0 0112.31-6.13zM256.92 171.24a122.197 122.197 0 00-17.15 1.11c-2 9.76-7.4 17.58-21.33 24.39-.19.44-.38.88-.58 1.31 21.39 1.23 32.5-5.71 39.06-26.81z"/>
    <path fill="#FFB10F" d="M201.36 214.05a36.003 36.003 0 0014.17-14.64c3.8-7.28 6.35-16.45 7.59-27.28-29.23 7.62-46.6 20.32-42 48 6.81-1.05 13.02-2 20.24-6.08z"/>
    <path fill="#FFB10F" d="M179.46 218.87c-1.66-14.11 2.27-25.89 11.12-33.34a106.437 106.437 0 00-9-17.2c-2.94 2.72-14.67 14.29-14.64 25.64.06 10.32 8.87 20.95 12.52 24.9zM234.68 204.34a129.65 129.65 0 00-18.31-3.41c-6.56 11.88-18.53 18.26-33.24 20.29 22.09 7.78 37.26 4.57 51.55-16.88zM68.8 213.64a105.5 105.5 0 0044.07 15l.31-3a102.362 102.362 0 01-45.74-16.39c.56 1.46 1 2.93 1.36 4.39zM90.74 21.22c.52-1.07 1.05-1.91 1.12-2C98 9 107.33 7.34 121.24 9.34c-1.49 2.18-5.81 8.08-11 11.32-.49.12-6.24 5.15-19.5.56z"/>
    <path fill="#FFB10F" d="M91.77 23c7.47 2.31 13.66 2.07 18.42-.72a61.51 61.51 0 017.43 5.89C106.21 33.73 99.33 32.3 91.77 23zM90.21 15.75C90.59 8.31 93.79 3.28 105.7 0a48.275 48.275 0 01-.62 8 19.13 19.13 0 00-12.44 7.51c-.86.04-1.29.08-2.43.24zM66.07 39.73c.162-1.929.209-3.866.14-5.8-1 .35-1.55.52-2.8 1 2.41-8.55 6.59-10.66 11.25-13.39 5.85-2.77 16.11-4.43 16.21-4.45C86 35.46 77.26 39.47 66.07 39.73z"/>
    <path fill="#FFB10F" d="M65.83 42.22c0-.39.09-.76.12-1.13 7.85-.17 13.84-2.41 17.83-6.67a72.725 72.725 0 0110.42 4c-10 9.58-17.9 10.01-28.37 3.8zM60.58 36.05c-3.65-9.6-2-16.59 10-24.12A56.111 56.111 0 0173 20.82c-6 3.06-9.54 7.65-11.29 14.76l-1.13.47zM39.6 62c.25-12.53 8-16.64 8.89-17.68a62.39 62.39 0 0116.24-8.42c-.41 14.39-3.22 25.19-18.05 29.84a61.07 61.07 0 00-1.32-7.23A67.247 67.247 0 0039.6 62z"/>
    <path fill="#FFB10F" d="M47.09 70.09c-.06-1-.14-2-.25-3C54 65 58.73 61.54 61.68 56.48a84.293 84.293 0 0112.63 2C66.4 70.79 58.38 73.09 47.09 70.09zM37 63.87c-6.79-9.72-7-17.81 4.18-28.87a70.124 70.124 0 015.17 9.28c-5.75 4.77-8.3 10.6-8.24 18.8-.38.23-.77.5-1.11.79zM23.11 94.17C20.47 80.91 27 75.9 28.39 73.4c4.57-5.24 10.09-9 15.94-12.62C46.58 73.91 47.59 86 36 94.32A72.402 72.402 0 0031.89 85a83.724 83.724 0 00-8.78 9.17z"/>
    <path fill="#FFB10F" d="M38.15 101.67a61.378 61.378 0 00-1.72-6c4.87-3.38 7.78-7.1 9.37-12a93.71 93.71 0 0114.38-.31c-5.59 14.83-13.55 17.99-22.03 18.31zM20.89 97C11 87.64 8.81 78.77 18.43 64.38a78.445 78.445 0 018 9.17c-5.16 6.31-6.54 13.16-4.47 22.11-.38.42-.71.83-1.07 1.34zM17.51 127.75c-5.27-11.56-2.12-17.12.09-22.86 4-7.72 11-14.78 13.84-17.51 5.67 11.7 9.84 25.1 2 35.78a86.341 86.341 0 00-8.33-10.36 84.909 84.909 0 00-7.6 14.95z"/>
    <path fill="#FFB10F" d="M38.63 132.07a59.48 59.48 0 00-4.31-7.65 21.93 21.93 0 004.85-12.65 103.166 103.166 0 0115.36-3.59c-1.43 10.38-4.16 19.82-15.9 23.89zM16.11 131.73C3 124-1.89 115 4.63 97.21a91.961 91.961 0 0111.13 8.11c-2.73 5.67-4.59 13 1 24.34l-.65 2.07z"/>
    <path fill="#FFB10F" d="M21.3 158.94c-8-10.92-5.09-17.92-5.11-21.41 1.78-9.32 6.73-18.29 9.2-22.34 9.82 11.27 18.4 24.25 13.25 37.81a96.44 96.44 0 00-15.44-10 88.534 88.534 0 00-1.9 15.94z"/>
    <path fill="#FFB10F" d="M46.82 160.65a62.242 62.242 0 00-7-6.7 23.54 23.54 0 001.29-15 108.456 108.456 0 0115.19-7.87c1.7 11.36 2 22.16-9.48 29.57zM.14 132.55c3.46 1.13 10.38 3.49 14.41 5.66-1.41 8.45.61 15.39 6.73 23.08 0 1.45.06 2.88.15 4.26-14.68-4.73-22.59-13.11-21.29-33z"/>
    <path fill="#FFB10F" d="M23.7 171.33c-1.54-8-.9-18.29.58-26.2 12.09 6.83 26.19 16.94 28.23 29.89a116.925 116.925 0 00-15.14-4.7 92.7 92.7 0 005.58 24.48c-13.34-6.94-16.08-12.86-19.25-23.47z"/>
    <path fill="#FFB10F" d="M54.06 175.63a24.319 24.319 0 00-4.37-11.26c3-4.3 9.44-10.28 12.62-13.16 5.69 9.74 9.74 20.85 4 30.55a80.616 80.616 0 00-12.25-6.13zM5.24 171.24c5.736-.033 11.466.338 17.15 1.11 2 9.76 7.41 17.58 21.33 24.39.19.44.39.88.59 1.31-21.4 1.23-32.5-5.71-39.07-26.81z"/>
    <path fill="#FFB10F" d="M60.81 214.05a35.933 35.933 0 01-14.18-14.64C42.8 192.13 40.25 183 39 172.13c29.23 7.62 46.59 20.32 42 48-6.77-1.05-13-2-20.19-6.08z"/>
    <path fill="#FFB10F" d="M82.71 218.87c1.65-14.11-2.27-25.89-11.13-33.34a106.26 106.26 0 019-17.2c2.94 2.72 14.67 14.29 14.64 25.64-.02 10.32-8.86 20.95-12.51 24.9zM27.49 204.34a129.497 129.497 0 0118.3-3.41c6.56 11.88 18.54 18.26 33.24 20.29-22.09 7.78-37.25 4.57-51.54-16.88zM132.05 215.54h-2.26a5.286 5.286 0 00-3.724 1.546 5.286 5.286 0 00-1.546 3.724v15.6a5.286 5.286 0 001.546 3.724 5.286 5.286 0 003.724 1.546h2.26a5.281 5.281 0 005.27-5.27v-15.6a5.282 5.282 0 00-5.27-5.27zM123.27 220.37a5.407 5.407 0 011-3 5.26 5.26 0 00-2.34-.54h-1.31c-2.43 0-4.49 1.64-4.49 3.58v16.48c0 1.94 2.06 3.58 4.49 3.58h1.31a5.276 5.276 0 002.34-.55 5.407 5.407 0 01-1-3v-16.55zM141.27 216.79H140a5.286 5.286 0 00-2.34.54c.607.884.937 1.928.95 3v16.48a5.407 5.407 0 01-.95 3 5.334 5.334 0 002.34.55h1.31c2.44 0 4.5-1.64 4.5-3.58v-16.41c-.04-1.94-2.1-3.58-4.54-3.58z"/>
  </g>
  <defs>
    <clipPath id="clip0_1245_4497">
      <path fill="#fff" d="M0 0h262.16v241.68H0z"/>
    </clipPath>
  </defs>
</svg>
