<svg xmlns="http://www.w3.org/2000/svg" width="242" height="353" fill="none" viewBox="0 0 242 353">
  <g clip-path="url(#clip0_1245_4612)">
    <path fill="#B61A2B" d="M111.97 352.8l-24.32-39.72-35.75 29.86 36.78-223.97 60.07 9.87-36.78 223.96z"/>
    <path fill="#B61A2B" d="M68.41 242.42a131.767 131.767 0 0052.15 10.69c2.62 0 5.227-.073 7.82-.22l20.37-124L88.68 119 68.41 242.42z"/>
    <path fill="#F22E47" d="M149.48 351.3l19.85-42.13 38.79 25.77-60.98-218.62-58.64 16.36 60.98 218.62z"/>
    <path fill="#B61A2B" d="M122.09 253.11a131.755 131.755 0 0059.11-14.7l-34.06-122.09-58.64 16.36 33.59 120.43z" opacity=".48"/>
    <path fill="#FF9700" d="M237.896 148.242c15.295-64.803-24.839-129.736-89.642-145.03C83.451-12.083 18.519 28.05 3.224 92.854c-15.295 64.803 24.84 129.735 89.642 145.03 64.803 15.295 129.735-24.839 145.03-89.642z"/>
    <path fill="#FFCF03" d="M122.497 229.517c60.173-1.071 108.084-50.719 107.013-110.892-1.072-60.173-50.72-108.084-110.893-107.013-60.173 1.071-108.084 50.72-107.013 110.893 1.072 60.173 50.72 108.084 110.893 107.012z"/>
    <path fill="#FF9700" d="M207.46 121.9c0-1.22.11-3.39-.37-12.6 3.58 9.26 12.45 9.78 12.94 10.12-.1-.11.1-13.79-14.19-16.33a86.418 86.418 0 00-2.17-8.7c4.81 6.46 13.21 6.28 13.3 6.32-.18-.17-1.77-12.92-16-13.85a90.074 90.074 0 00-4.27-9c5.81 6.77 14.66 5.24 14.83 5.29 0 0-2-6-7.06-9.19-5.06-3.19-11.39-2.24-11.43-2.19a90.1 90.1 0 00-6.26-8.4c6.81 4.17 14.52 1 14.61 1-.21-.08-6.55-11.53-20.16-7a88.594 88.594 0 00-9.11-7.86c7.72 2.53 14.5-2.54 14.59-2.56-.21 0-9.08-9.52-21.15-1.92a88.547 88.547 0 00-8.23-4.51c7.35.35 12.48-5.32 12.6-5.37-.32 0-10.38-7.6-20.91 1.89A86.855 86.855 0 00137 33.67c9.19-.38 13.27-8.42 13.48-8.58-.1 0-12.67-4.83-20.18 7.47a91.857 91.857 0 00-9.74-.67c8.8-2.12 11-10.12 11.32-10.46-.14.08-13.42-2.81-18.78 10.67-2.13.14-4.24.37-6.33.67 4.92-4.1 5.67-10.78 5.71-10.86-.33.23-12.07 0-15.46 12.82A84.997 84.997 0 0087.08 38c4.37-5.25 3.47-12.44 3.49-12.53-.29.34-11.93 2.88-12 16.42A86.809 86.809 0 0069.89 47c3.09-6.21.42-13.07.42-13.15-.19.38-10.76 5.64-7.72 18.66a105.717 105.717 0 00-5 4.5c1-5.85-2.09-11.29-2.09-11.29-.11.32-9.35 7.07-4.92 19-1.8 2.22-3.49 4.54-5.07 6.93-.06-6.13-4.27-10.85-4.3-10.93 0 .37-7.91 8.93-.87 19.87a88.477 88.477 0 00-4.1 9.53c-1.11-6.81-6.87-10.58-7-10.74.06.45-5.81 10.79 4.22 19.89a88.019 88.019 0 00-1.83 10.09c-2.52-6.59-9.51-9.18-9.6-9.26.17.4-3 11.92 9 18.29 0 2.26 0 4.58.15 7-3.67-5-10-6.29-10.11-6.35.19.33-1 12 11.3 16.49.44 2.44 1 4.86 1.61 7.23-4.37-6.11-12.15-6.5-12.28-6.56.14.15.86 13.14 15 15a87.508 87.508 0 004.09 9.16c-6.14-6.21-14-4.24-14.4-4.35.2.13 3.92 12.7 18.26 11.08a125.457 125.457 0 007.53 10.34c-8-5.9-15.75-1.59-16.34-1.62.09 0 7.28 11.64 20.69 6.21a91.643 91.643 0 007 6.36c-8.12-3.38-14.61 1.56-15.06 1.62.25.05 8.64 10.21 21.21 3a91.603 91.603 0 007.54 4.6c.593.507 1.217.974 1.87 1.4-9.6-2.51-15.22 4.37-15.77 4.57 0 0 5.21 3.6 11.18 3a17.639 17.639 0 0010.42-5.29 87.112 87.112 0 009.14 3.29 16.87 16.87 0 003 1.37c-9.92-.18-13.76 7.83-14.25 8.15 0 0 5.91 2.28 11.58.34a17.36 17.36 0 008.88-7.65 90.822 90.822 0 0010.24 1.27c.771.174 1.553.297 2.34.37-9.67 2.23-11.45 10.93-11.85 11.36.09-.06 13.42 2 18.13-11.59 2.79-.09 5.56-.31 8.28-.66-6.47 3.94-7.39 11.75-7.46 11.87.33-.24 12.59.3 15.87-13.35a86.815 86.815 0 0014.42-4.62c-5.75 5.34-4.85 13.47-4.88 13.58.16-.21 12.74-2.89 12.4-17.15a84.257 84.257 0 0011.17-7.1c-6.53 7.48-2.87 15.57-2.94 16.16 0-.09 12.18-6.34 7.87-20.12 4.21-3.64 5.77-5.54 9.06-8.81-4.52 8.83 1 15.8 1.07 16.38 0-.17 10.27-8.94 2.78-21.37a88.152 88.152 0 005-7.29c-1.49 7.79 4.15 13.81 4.19 13.92 0-.25 8.42-9.89-.27-21.09a89.535 89.535 0 004.18-10.16c-.3 8.86 6.64 13.15 6.87 13.56 0-.21 6.38-11.71-4.74-20.85 1.6-6.5 1.45-8.23 2.36-12.88 1.23 9.85 9.7 12.51 10.09 12.95 0 0 1.42-6.17-1.31-11.51s-8.64-7.76-8.68-7.75zm-1.41.61c-12.52 6-9.48 17.46-9.71 18A19.338 19.338 0 00205 134c-.39 2.39-.88 4.75-1.45 7.07-13.68 2.58-14 15.06-14.14 15.27.09 0 6.86-.67 11-5.42-.91 2.4-1.93 4.76-3.05 7.05-14.18-.46-17 12-17.24 12.14.09 0 7.23.81 12.41-3.52a93.901 93.901 0 01-4.22 6.05c-13.7-2.21-18 9.16-18.35 9.37 3.472.824 7.105.679 10.5-.42-1.59 1.58-3.23 3.1-4.94 4.56-12.75-5.43-19.65 4.53-20 4.65 0 0 5.33 3 11.1 2a84.444 84.444 0 01-6.54 3.87c-11-8.7-20.82-.53-21-.52.09 0 5.36 5.06 12.27 4.58a84.71 84.71 0 01-12.46 3.91c-.81-1.09-4.13-5.21-9.11-6.64-5.76-1.65-11.55.92-11.55.92.17.12 4.14 6.41 11.39 7.34-2.65.31-5.33.51-8 .58-7-11.77-18.76-8-19-8a19.67 19.67 0 006.6 7.47 76.209 76.209 0 01-6.32-1c-4.27-12.95-15.9-11.64-16.33-11.92a19.642 19.642 0 004.43 8.75c-2.08-.71-4.12-1.51-6.12-2.38-1.07-13.67-12.71-15.1-13.08-15.49a19.39 19.39 0 002.63 10.1c-1.43-.86-2.82-1.76-4.19-2.7 2.41-13.67-9.11-18.35-9.25-18.6 0 .09-1.85 6.68 1.18 12.33a92.934 92.934 0 01-5-4.72c4.36-13.11-6.11-19.18-6.27-19.57a19.199 19.199 0 00-1.22 10.82c-1.39-1.85-2.71-3.77-4-5.74 7.69-11.64-1.11-20.51-1.14-20.79 0 .08-4.38 5.42-3.76 11.89-1-2.15-2-4.36-2.82-6.61 10.41-9.57 3.83-20.23 3.87-20.57-.05.08-6.26 4.59-6.58 12.11a87.039 87.039 0 01-1.4-6.2c.34.09 6-3 8.09-8.65s-.09-11.58-.09-11.58c-.14.2-8.43 4.51-8.46 14.07a14.63 14.63 0 00-.63-1.65 89.671 89.671 0 01-.37-9.13c.07 0 6-2.21 9-7.43s1.74-11.45 1.74-11.45c-.18.18-8.17 2.85-10.26 11a87.473 87.473 0 011.83-10.95 18.18 18.18 0 0010.52-5c4.11-4.36 4.47-10.69 4.47-10.69-.2.13-9.52.84-13.31 9.62a82.51 82.51 0 014.89-12.28c.25.33 6.7 1.26 11.72-2 5.02-3.26 6.86-9.33 6.86-9.33-.22.07-9.45-1.42-15.2 6.21.228-.654.415-1.322.56-2a88.257 88.257 0 016-8.57c.26.55 6.46 2.87 12 .66s8.58-7.79 8.58-7.79c-.24 0-9-3.27-16.13 3.07.44-.753.82-1.539 1.14-2.35 2-2 4-4 6.16-5.79A17.18 17.18 0 0074.58 56c5.85-1.3 9.71-6.33 9.71-6.33-.42 0-8-4.58-16 .22A86.67 86.67 0 0178.6 43.4a18.23 18.23 0 0010.75 4.49c6 .16 11-3.79 11-3.79-.42-.12-6.62-6.39-15.59-3.65a85.208 85.208 0 0111.94-4.19c-.05.28 3.55 5.63 9.34 7.19 5.79 1.56 11.53-1.11 11.53-1.11-.2-.11-5.24-8-14.76-7.18.36-.16.74-.33 1.11-.52a86.792 86.792 0 019.75-1.18c6.47 12.25 18.14 8.87 18.51 9-.08-.08-2.57-6.41-8.36-9.09 2.28.12 4.53.323 6.75.61 4.36 13 16.66 11.79 16.88 11.92 0 0-1.39-6.18-6.15-9.82 2.44.667 4.833 1.407 7.18 2.22.58 14.21 13.36 16.15 13.51 16.31-.1-.26.41-8-5.48-13a87.273 87.273 0 018.5 4.64c-1.85 14 10.07 18 10.22 18.27 0-.09 1.59-6.85-2-12.48a88.125 88.125 0 017.23 6.42c-5.08 13 5.43 19.85 5.52 20.11 0-.08 3.28-6.5 1-12.9a86.403 86.403 0 015.29 7.3c-7.62 11.62.89 19.85.95 20.39 0-.09 4.4-5.29 4.05-11.59.9 1.83 1.75 3.71 2.52 5.61-9.67 10.21-2.37 20.68-2.38 20.89 0-.09 5.29-4.65 5.63-11.35.667 2.3 1.21 4.633 1.63 7-10.66 8.75-5.08 19.4-5.16 19.86A19.58 19.58 0 00206 116c.1 2.22.11 4.37.05 6.51z"/>
    <path fill="#FFB600" d="M156.13 173.46l-39.35-15.96-39.2 16.3 3.02-42.36-27.62-32.25L94.2 88.98l22.13-36.24 22.45 36.05 41.31 9.86-27.34 32.48 3.38 42.33z"/>
    <path fill="#FF7300" d="M116.33 52.74l.2 60.53 22.25-24.48-22.45-36.05zM180.09 98.65l-63.56 14.62 36.22 17.86 27.34-32.48zM156.13 173.46l-39.6-60.19.25 44.23 39.35 15.96zM77.58 173.8l38.95-60.53-35.93 18.17-3.02 42.36zM52.98 99.19L94.2 88.98l22.33 24.29-63.55-14.08z"/>
  </g>
  <defs>
    <clipPath id="clip0_1245_4612">
      <path fill="#fff" d="M0 0h241.11v352.8H0z"/>
    </clipPath>
  </defs>
</svg>
