<svg xmlns="http://www.w3.org/2000/svg" width="156" height="257" fill="none" viewBox="0 0 156 257">
  <g clip-path="url(#clip0_1245_3955)">
    <path fill="#D67205" d="M144.72 70.47H8.39v16.68h136.33V70.47z"/>
    <path fill="#FFB600" d="M77.71 0a77.71 77.71 0 100 155.42A77.71 77.71 0 0077.71 0zm0 142.83a65.128 65.128 0 01-63.89-77.834A65.13 65.13 0 01142.83 77.71a65.196 65.196 0 01-19.097 46.023A65.196 65.196 0 0177.71 142.83z"/>
    <path fill="#FFE100" d="M78.15 4.3c-40.25 0-73 33.15-73 73.9 0 40.75 32.75 73.9 73 73.9s73-33.15 73-73.9c0-40.75-32.75-73.9-73-73.9zm0 144.8c-38.6 0-70-31.81-70-70.9s31.4-70.9 70-70.9 70 31.8 70 70.9c0 39.1-31.4 70.9-70 70.9z"/>
    <path fill="#FF2E2A" d="M127.1 256.73l-47.4-25.34-47.4 25.34V0h94.8v256.73z"/>
    <path fill="#E3211E" d="M39.64 0H32.3v256.73l7.34-3.93V0zM120.18 0v253.03l6.92 3.7V0h-6.92zM107.18 0H52.65v245.85l27.05-14.46 27.48 14.68V0z"/>
    <path fill="#BF0930" d="M32.3 123.94a64.738 64.738 0 0094.8-4.28v-83.9a64.732 64.732 0 00-46.467-22.814A64.74 64.74 0 0032.3 31.48v92.46z" opacity=".68"/>
    <path fill="#FFB600" d="M77.71 136.54a58.825 58.825 0 01-54.352-36.317A58.83 58.83 0 11136.54 77.71a58.906 58.906 0 01-17.251 41.579A58.906 58.906 0 0177.71 136.54z"/>
    <path fill="#FFCF13" d="M77.71 127.1c27.277 0 49.39-22.113 49.39-49.39s-22.113-49.39-49.39-49.39-49.39 22.113-49.39 49.39 22.113 49.39 49.39 49.39z"/>
    <path fill="#D67205" d="M32.3 77.71a49.45 49.45 0 0147.4-49.35 49.39 49.39 0 100 98.7 49.45 49.45 0 01-47.4-49.35z" opacity=".71"/>
    <path fill="#FFB600" d="M71.02 107.35v-38.9l-8.87 6.05-8.86-12.97 21.13-13.87h14.16v59.69H71.02z"/>
    <path fill="#FFF375" d="M75 49.66h11.58v55.69H73V64.67l-10.34 7-6.59-9.63L75 49.66z"/>
    <path fill="#FFF8C5" d="M86.58 57.52l-7.86-7.86h-1.41l9.27 9.27v-1.41zM86.58 67.84L71.03 52.28l-2.56 1.69 18.11 18.11v-4.24zM86.58 84.3L73.02 70.74v2.83l13.56 13.56V84.3zM86.58 91.56L73.02 78v2.83l13.56 13.56v-2.83zM35.19 42.84a55.76 55.76 0 0129.07-19 1 1 0 01.51 1.91 53.74 53.74 0 00-28 18.34 1.008 1.008 0 01-1.58-1.25zM23.16 79a55.09 55.09 0 014.24-23 1 1 0 011.82.76c-6.61 15.81-2.31 23.09-5 23.18a1 1 0 01-1.06-.94zM50.75 125.26A55.17 55.17 0 0125.26 92.6a1 1 0 011.91-.54 53.2 53.2 0 0024.57 31.49 1 1 0 01-.99 1.71z"/>
    <path fill="#FFE100" d="M96.4 128.71c-.84-2.28 5-1.13 15.94-10.08a1.004 1.004 0 011.279.231.998.998 0 01-.029 1.299 54.919 54.919 0 01-15.92 9.13.997.997 0 01-1.27-.58zM127.17 101.63c-2.52-1.2 4.71-6.4 4.71-24.29A53.378 53.378 0 0088.4 24.87a1 1 0 01.36-1.95c36.05 6.76 55.15 46 39.72 78.25a.998.998 0 01-1.31.46z"/>
  </g>
  <defs>
    <clipPath id="clip0_1245_3955">
      <path fill="#fff" d="M0 0h155.42v256.72H0z"/>
    </clipPath>
  </defs>
</svg>
