<svg xmlns="http://www.w3.org/2000/svg" width="206" height="154" fill="none" viewBox="0 0 206 154">
  <g clip-path="url(#clip0_1245_3981)">
    <path fill="#C5D4EA" d="M179.35 106.28l7.65-32.8-27.56 17.1 2.79-31-23.36 17.74-3.49-33.84-16.4 22-16.4-45.38-16.4 45.36-16.39-22-3.49 33.86-23.38-17.79 2.79 31.05-27.57-17.1 7.68 32.8L0 100l27.07 43h150.82l27.28-43-25.82 6.28z"/>
    <path fill="#889BB5" d="M178.77 143.04H26.47a4.9 4.9 0 00-4.9 4.9v.41a4.9 4.9 0 004.9 4.9h152.3a4.9 4.9 0 004.9-4.9v-.41a4.9 4.9 0 00-4.9-4.9z"/>
    <path fill="#9EA8BA" d="M102.58 20.1L86.19 65.46l16.43 77.58-.04-122.94zM69.78 43.48L66.3 77.32l36.32 65.72-32.84-99.56zM42.92 59.53l2.79 31.05 56.91 52.46-59.7-83.51zM18.14 73.48l7.68 32.8 76.8 36.76-84.48-69.56z"/>
    <path fill="#889BB5" d="M0 100l27.07 43.04h75.55L0 100z"/>
    <path fill="#9EA8BA" d="M135.38 43.48l-16.4 21.98-16.36 77.58 32.76-99.56zM162.25 59.53l-23.38 17.79-36.25 65.72 59.63-83.51zM187.02 73.48l-27.56 17.1-56.84 52.46 84.4-69.56z"/>
    <path fill="#889BB5" d="M179.35 106.28l-76.73 36.76h75.27L205.17 100l-25.82 6.28z"/>
    <path fill="#C5D4EA" d="M99.57 149.71c35 0 65.69-1.67 83.46-4.2a4.914 4.914 0 00-4.26-2.47H26.47a4.883 4.883 0 00-4.6 3.21c18.24 2.11 46.27 3.46 77.7 3.46z" opacity=".67"/>
    <path fill="#C5D4EA" d="M109.33 15.62A9.25 9.25 0 11109 2.54a9.262 9.262 0 01.33 13.08z"/>
    <path fill="#889BB5" d="M111.28 6c-2.15 8.75-14.45 9.53-17.64 1a9.25 9.25 0 1017.64-1z"/>
    <path fill="#C5D4EA" d="M107.92 4.54c-6-3.52-9.19-.16-12 2 3.47-5.89 9.28-5.36 12-2zM21.67 67.6a9.25 9.25 0 11-7.16-10.95 9.26 9.26 0 017.16 10.95z"/>
    <path fill="#889BB5" d="M18.28 58.39C21 67 11 74.09 3.8 68.53a9.25 9.25 0 1014.48-10.14z"/>
    <path fill="#C5D4EA" d="M14.66 58.92c-6.93.13-7.91 4.68-9.13 8-.18-6.84 5.05-9.43 9.13-8zM193 74.94a9.246 9.246 0 01-8.578-5.666 9.258 9.258 0 011.956-10.093 9.248 9.248 0 0114.24 1.336 9.246 9.246 0 01-1.095 11.682A9.25 9.25 0 01193 74.94z"/>
    <path fill="#889BB5" d="M201.26 69.69c-7.81 4.51-16.88-3.83-12.95-12a9.256 9.256 0 00-4.594 6.978 9.254 9.254 0 0010.935 10.133 9.25 9.25 0 006.609-5.111z"/>
    <path fill="#C5D4EA" d="M200 66.26c-1.59-6.74-6.24-6.74-9.73-7.24 6.62-1.61 10.26 2.98 9.73 7.24z"/>
    <path fill="#C5D4EA" d="M102.58 20.1l.04 122.94 16.36-77.58-16.4-45.36z" opacity=".45"/>
  </g>
  <defs>
    <clipPath id="clip0_1245_3981">
      <path fill="#fff" d="M0 0h205.17v153.25H0z"/>
    </clipPath>
  </defs>
</svg>
