<svg xmlns="http://www.w3.org/2000/svg" width="206" height="134" fill="none" viewBox="0 0 206 134">
  <g clip-path="url(#clip0_1245_4007)">
    <path fill="#FFEC03" d="M179.35 86.18L187 53.39l-27.54 17.09 2.79-31.05-23.38 17.79-3.49-33.84-16.4 22L102.58 0l-16.4 45.36-16.4-22-3.48 33.86-23.38-17.79 2.79 31.05-27.57-17.09 7.68 32.79L0 79.9l26.47 43h152.3l26.4-43-25.82 6.28z"/>
    <path fill="#FFDC01" d="M178.77 122.94H26.47a4.9 4.9 0 00-4.9 4.9v.41a4.9 4.9 0 004.9 4.9h152.3a4.9 4.9 0 004.9-4.9v-.41a4.9 4.9 0 00-4.9-4.9z"/>
    <path fill="#FFB10F" d="M102.58 0l-16.4 45.36 16.44 77.58L102.58 0zM69.78 23.38L66.3 57.22l36.32 65.72-32.84-99.56zM42.92 39.43l2.79 31.05 56.91 52.46-59.7-83.51zM18.14 53.38l7.68 32.8 76.8 36.76-84.48-69.56zM0 79.9l26.47 43.04h76.15L0 79.9z"/>
    <path fill="#FFB10F" d="M135.38 23.38l-16.4 21.98-16.36 77.58 32.76-99.56zM162.25 39.43l-23.38 17.79-36.25 65.72 59.63-83.51zM187.02 53.38l-27.56 17.1-56.84 52.46 84.4-69.56z"/>
    <path fill="#FFB10F" d="M179.35 86.18l-76.73 36.76h76.15l26.4-43.04-25.82 6.28z"/>
    <path fill="#FFDC01" d="M99.57 129.61c35 0 65.69-1.67 83.46-4.2a4.914 4.914 0 00-4.26-2.47H26.47a4.883 4.883 0 00-4.6 3.21c18.24 2.11 46.27 3.46 77.7 3.46z"/>
  </g>
  <defs>
    <clipPath id="clip0_1245_4007">
      <path fill="#fff" d="M0 0h205.17v133.15H0z"/>
    </clipPath>
  </defs>
</svg>
