<svg xmlns="http://www.w3.org/2000/svg" width="280" height="227" fill="none" viewBox="0 0 280 227">
  <g clip-path="url(#clip0_1245_4553)">
    <path fill="#9EA8BA" d="M229.1 18c-3.76-10.11-11.06-12.1-22-11.12 5.32 9.8 11.29 14.71 22 11.12z"/>
    <path fill="#9EA8BA" d="M228.13 19.6c-4.63 1.25-9.59 1.15-13.54-1.56a45.496 45.496 0 00-5.76 4.37c8.25 5.06 13.44 4.04 19.3-2.81zM229.64 16c.91-8-1.42-12.6-10.45-16a45.283 45.283 0 000 6.38c4.71 1.3 8.21 4.54 10.45 9.62zM248.15 38.44c.15-1.08.18-2 .19-2.11.56-10.86-5.39-16.33-16.44-21 0 2.4.24 9 2.44 13.92.27.32 1.97 6.9 13.81 9.19z"/>
    <path fill="#9EA8BA" d="M246.53 39.39c-6.54-1.52-10.9-4.48-13-8.82a53.29 53.29 0 00-8.27 1.33c5.56 9.52 11.24 11.48 21.27 7.49zM251.22 34.34c3.38-6.07 3.54-11.5-3.47-19.43a49.62 49.62 0 00-3.46 6.59 16.003 16.003 0 015.32 11.5c.58.47.87.7 1.61 1.34zM256.92 64.17a53.835 53.835 0 012.74-4.66c.59.74.87 1.1 1.55 2 2.45-7.85.43-11.42-1.58-15.65-2.88-4.82-9.49-10.73-9.55-10.79-5.45 16.8-1.08 23.93 6.84 29.1z"/>
    <path fill="#9EA8BA" d="M255.87 66.26l.47-1c-5.6-3.65-8.83-8.11-9.63-13.28a59.266 59.266 0 00-9.52-1.47c2.55 12.09 8.06 15.98 18.68 15.75zM262.7 63.71c7.36-6 9.57-12.27 4.61-23.6a56.456 56.456 0 00-6.12 6c2.87 5.14 3.15 10.34.93 16.77.18.23.38.52.58.83zM265.13 93.71c6-10 2.39-16.78 2.25-18a51.609 51.609 0 00-7.62-14c-6.77 11.59-10 21.41-1.59 31.75a64.097 64.097 0 014.51-5.14c.72 1.42 1.4 2.8 2.45 5.39z"/>
    <path fill="#9EA8BA" d="M255.75 96.75c.54-.78 1.09-1.53 1.63-2.23-4.1-4.94-5.86-9.76-5.5-15.1a66.815 66.815 0 00-10.14-4c-.31 13.24 4.36 18.65 14.01 21.33zM266.14 96.37c9.65-4.69 13.76-11 11.13-24.81a66.244 66.244 0 00-8.3 5c1.82 6.36.81 12.13-3.26 18.6.14.41.29.84.43 1.21zM261.28 126.59c8.42-9.33 6.14-16.24 6.38-18.83-.73-6.2-2.9-11.65-5.34-17.15-8.11 9.4-14.78 18.55-10.44 30.35a70.932 70.932 0 017.5-5.54 75.034 75.034 0 011.9 11.17z"/>
    <path fill="#9EA8BA" d="M246.71 125.8c1.24-1.29 2.61-2.6 4.18-4a20.835 20.835 0 01-.9-13.69 73.839 73.839 0 00-10.26-6.69c-3.21 14.26 1 20.33 6.98 24.38zM261.5 129.82c11.73-3 17.69-9 17.8-24.75a72.647 72.647 0 00-10.3 3.71c.63 7.31-1.73 13.36-7.62 19.53.07.49.1.96.12 1.51zM248.85 155.73c9.48-6.8 9.93-12.62 11.16-18.17.92-7.9-.67-16.62-1.41-20.09-9.86 6.74-19.45 15.5-19.05 27.46a80.086 80.086 0 0111.12-4.48 83.83 83.83 0 01-1.82 15.28z"/>
    <path fill="#9EA8BA" d="M231.44 149.69a57.463 57.463 0 016.87-4.13 21.712 21.712 0 012.7-12.2 81.344 81.344 0 00-9.35-9.74c-4.06 8.87-6.75 17.62-.22 26.07zM247.91 159.52c13.28-.29 21.23-5.19 25.25-22.23a79.886 79.886 0 00-12 1.44c-.82 5.72-3.07 12.38-12.71 18.84l-.54 1.95z"/>
    <path fill="#9EA8BA" d="M230.78 178.77c11.13-5.09 12.49-11.93 14.22-14.69 3.3-8.19 4.12-17.52 4.32-21.84-12.64 4.54-25.22 11-28.15 24a82.622 82.622 0 0116.09-1 90.231 90.231 0 01-6.48 13.53z"/>
    <path fill="#9EA8BA" d="M211.47 168.69a54.653 54.653 0 018.37-2.17 23.806 23.806 0 016.44-12.52 89.532 89.532 0 00-7.13-13c-6.8 8.25-12.35 16.66-7.68 27.69zM259.06 167.33a83.7 83.7 0 00-13.22-2c-3.12 7.33-8 11.93-16.19 15.28-.72 1.15-1.46 2.26-2.21 3.31 12.95 2.86 22.79-.24 31.62-16.59z"/>
    <path fill="#9EA8BA" d="M223 187.52c5.06-5.68 9.63-14.1 12.45-21-12.11 0-27.28 1.69-35.11 11a93.34 93.34 0 0113.27 3.05 93.688 93.688 0 01-16.07 16.91c13.03.52 17.92-2.98 25.46-9.96z"/>
    <path fill="#9EA8BA" d="M198.88 177.32a23.994 23.994 0 018.69-7c-.09-4.77-1.78-12.39-2.67-16.09-8.9 5.17-17.29 12.16-17.94 22.41a66.114 66.114 0 0111.92.68zM236.36 195.72a94.779 94.779 0 00-13-6.81c-6.27 6.82-14 10.62-27.42 9.79l-1.06.77c14.93 10.53 26.37 10.04 41.48-3.75z"/>
    <path fill="#9EA8BA" d="M175.13 204.76a32.612 32.612 0 0017.45-5.26c6.33-4.07 12.68-10.2 18.89-18.23-24.9-7.05-43.7-4.77-54 19.22 5.47 2.25 10.43 4.27 17.66 4.27z"/>
    <path fill="#9EA8BA" d="M156.91 198.77c5.73-11.93 14.36-19.51 24.43-21.46a103.238 103.238 0 001.93-17.67c-3.47.84-17.64 4.76-23.19 13.77-5.08 8.2-3.87 20.59-3.17 25.36zM204 212a101.056 101.056 0 00-11.57-10.91c-10.58 6.48-22.38 6.17-34 1.19 12.16 16.07 24.7 20.32 45.57 9.72z"/>
    <path fill="#9EA8BA" d="M123.48 220.07c9.83-14.3 26.24-19.45 41.18-22.54a1.27 1.27 0 01.52 2.48c-17.21 3.57-26.78 8.71-32.38 13.34l-.62.55c-6.63 7.55-3.86 12.2-3.86 12.2a6.653 6.653 0 01-4.23-.53 25.686 25.686 0 01-4.12-2.11l3.51-3.39zM50.2 18c3.75-10.11 11-12.1 22-11.12-5.33 9.8-11.3 14.71-22 11.12z"/>
    <path fill="#9EA8BA" d="M51.16 19.6c4.63 1.25 9.6 1.15 13.55-1.56a45.264 45.264 0 015.75 4.37c-8.24 5.06-13.46 4.04-19.3-2.81zM49.66 16c-.92-8 1.42-12.6 10.45-16a44.196 44.196 0 010 6.38c-4.72 1.3-8.21 4.54-10.45 9.62zM31.15 38.44c-.16-1.08-.19-2-.2-2.11-.56-10.86 5.39-16.33 16.44-21 0 2.4-.24 9-2.43 13.92-.28.32-1.96 6.9-13.81 9.19z"/>
    <path fill="#9EA8BA" d="M32.76 39.39c6.54-1.52 10.9-4.48 13-8.82 2.777.227 5.532.672 8.24 1.33-5.52 9.52-11.2 11.48-21.24 7.49zM28.07 34.34c-3.37-6.07-3.53-11.5 3.48-19.43A48.667 48.667 0 0135 21.5 16 16 0 0029.69 33c-.58.47-.87.7-1.62 1.34zM22.38 64.17a50.618 50.618 0 00-2.75-4.66c-.58.74-.87 1.1-1.54 2-2.45-7.85-.44-11.42 1.57-15.65 2.88-4.82 9.49-10.73 9.56-10.79 5.45 16.8 1.12 23.93-6.84 29.1z"/>
    <path fill="#9EA8BA" d="M23.43 66.26l-.47-1c5.59-3.65 8.83-8.11 9.63-13.28a59.351 59.351 0 019.51-1.47c-2.55 12.09-8.05 15.98-18.67 15.75zM16.59 63.71C9.24 57.74 7 51.44 12 40.11a56.583 56.583 0 016.11 6c-2.86 5.14-3.15 10.34-.92 16.77-.19.23-.39.52-.6.83zM14.17 93.71c-6-10-2.39-16.78-2.26-18a51.837 51.837 0 017.61-14c6.78 11.59 10.05 21.41 1.59 31.75a62.429 62.429 0 00-4.5-5.14 57.315 57.315 0 00-2.44 5.39z"/>
    <path fill="#9EA8BA" d="M23.54 96.75c-.54-.78-1.09-1.53-1.63-2.23 4.11-4.94 5.86-9.76 5.51-15.1a66.013 66.013 0 0110.14-4c.31 13.24-4.36 18.65-14.02 21.33zM13.15 96.37C3.5 91.68-.6 85.35 2 71.56a66.236 66.236 0 018.3 5C8.5 83 9.52 88.72 13.59 95.19l-.44 1.18zM18 126.59c-8.43-9.33-6.14-16.24-6.39-18.83.73-6.2 2.89-11.65 5.34-17.15C25.06 100 31.73 109.16 27.38 121a70.037 70.037 0 00-7.5-5.54A76.283 76.283 0 0018 126.59z"/>
    <path fill="#9EA8BA" d="M32.58 125.8c-1.23-1.29-2.6-2.6-4.17-4a21 21 0 00.9-13.69 73.785 73.785 0 0110.25-6.69c3.22 14.26-1 20.33-6.98 24.38zM17.79 129.82c-11.72-3-17.68-9-17.79-24.75 3.508.98 6.937 2.22 10.26 3.71-.64 7.31 1.73 13.36 7.62 19.53-.03.49-.07.96-.09 1.51zM30.45 155.73c-9.49-6.8-9.94-12.62-11.16-18.17-.92-7.9.68-16.62 1.42-20.09 9.85 6.74 19.45 15.5 19.05 27.46a80.609 80.609 0 00-11.12-4.48 82.997 82.997 0 001.81 15.28z"/>
    <path fill="#9EA8BA" d="M47.86 149.69a58.368 58.368 0 00-6.86-4.13 21.71 21.71 0 00-2.7-12.2 81.352 81.352 0 019.35-9.74c4.05 8.87 6.73 17.62.21 26.07zM31.39 159.52c-13.29-.29-21.24-5.19-25.26-22.23 4.03.177 8.042.658 12 1.44.81 5.72 3.07 12.38 12.71 18.84.187.653.37 1.303.55 1.95z"/>
    <path fill="#9EA8BA" d="M48.52 178.77C37.38 173.68 36 166.84 34.3 164.08c-3.3-8.19-4.14-17.52-4.3-21.84 12.65 4.54 25.23 11 28.16 24a82.62 82.62 0 00-16.09-1 89.233 89.233 0 006.45 13.53z"/>
    <path fill="#9EA8BA" d="M67.82 168.69a54.293 54.293 0 00-8.36-2.17A23.999 23.999 0 0053 154a89.685 89.685 0 017.14-13c6.86 8.25 12.35 16.66 7.68 27.69zM20.24 167.33a83.349 83.349 0 0113.21-2c3.13 7.33 8 11.93 16.2 15.28.71 1.15 1.45 2.26 2.2 3.31-12.95 2.86-22.79-.24-31.61-16.59z"/>
    <path fill="#9EA8BA" d="M56.33 187.52c-5.06-5.68-9.64-14.1-12.45-21 12.1 0 27.27 1.69 35.1 11a92.931 92.931 0 00-13.26 3.05 93.983 93.983 0 0016.03 16.93c-13.03.5-17.91-3-25.42-9.98zM80.42 177.32a24.042 24.042 0 00-8.7-7c.1-4.77 1.79-12.39 2.68-16.09 8.9 5.17 17.28 12.16 17.93 22.41a66.004 66.004 0 00-11.91.68z"/>
    <path fill="#9EA8BA" d="M42.93 195.72a96.055 96.055 0 0113-6.81c6.28 6.82 14 10.62 27.42 9.79l1.07.77C69.49 210 58 209.51 42.93 195.72zM104.17 204.76a32.572 32.572 0 01-17.45-5.26c-6.32-4.07-12.68-10.2-18.89-18.23 24.89-7.05 43.7-4.77 54 19.22-5.48 2.25-10.44 4.27-17.66 4.27z"/>
    <path fill="#9EA8BA" d="M122.39 198.77C116.65 186.84 108 179.26 98 177.31a103.182 103.182 0 01-2-17.67c3.46.84 17.64 4.76 23.19 13.77 5.07 8.2 3.9 20.59 3.2 25.36zM75.28 212a102.2 102.2 0 0111.58-10.91c10.58 6.48 22.38 6.17 34 1.19-12.15 16.07-24.7 20.32-45.58 9.72z"/>
    <path fill="#9EA8BA" d="M155.82 220.07c-9.83-14.3-26.24-19.45-41.18-22.54a1.27 1.27 0 00-.52 2.48c17.21 3.57 26.78 8.71 32.38 13.34l.62.55c6.63 7.55 3.86 12.2 3.86 12.2a6.653 6.653 0 004.23-.53 26.317 26.317 0 004.12-2.11l-3.51-3.39z"/>
  </g>
  <defs>
    <clipPath id="clip0_1245_4553">
      <path fill="#fff" d="M0 0h279.3v226.24H0z"/>
    </clipPath>
  </defs>
</svg>
