<svg xmlns="http://www.w3.org/2000/svg" width="276" height="232" fill="none" viewBox="0 0 276 232">
  <g clip-path="url(#clip0_1245_4202)">
    <path fill="#FFAA2E" d="M118.8 208.07c6.11 4.81 7.74 12.79 7.74 12.79s-8.27.19-14.38-4.61c-6.11-4.8-7.73-12.79-7.73-12.79s8.27-.19 14.37 4.61z"/>
    <path fill="#FFAA2E" d="M111.42 220.56c7.37-2.56 15.12.3 15.12.3s-4.21 7-11.58 9.57c-7.37 2.57-15.12-.3-15.12-.3s4.21-7.01 11.58-9.57zM95 201.61c5.38 5.59 5.87 13.71 5.87 13.71s-8.22-.93-13.59-6.51c-5.37-5.58-5.87-13.71-5.87-13.71s8.18.9 13.59 6.51z"/>
    <path fill="#FFAA2E" d="M85.91 213c7.66-1.54 14.93 2.34 14.93 2.34S95.7 221.7 88 223.23c-7.7 1.53-14.94-2.34-14.94-2.34s5.19-6.38 12.85-7.89zM76.21 192.33c4.41 6.36 3.59 14.46 3.59 14.46s-8-2.2-12.37-8.55c-4.37-6.35-3.59-14.46-3.59-14.46s7.96 2.22 12.37 8.55z"/>
    <path fill="#FFAA2E" d="M65.44 202.15c7.81-.33 14.36 4.64 14.36 4.64s-6.1 5.49-13.91 5.81c-7.81.32-14.37-4.6-14.37-4.6s6.11-5.53 13.92-5.85zM58.69 178.2c2.71 7.22-.08 14.88-.08 14.88s-7.19-4-9.9-11.25.08-14.88.08-14.88S56 171 58.69 178.2z"/>
    <path fill="#FFAA2E" d="M45.81 185.15c7.66 1.55 12.8 7.93 12.8 7.93s-7.28 3.92-14.94 2.32c-7.66-1.6-12.79-7.94-12.79-7.94s7.28-3.87 14.93-2.31zM45.44 161.83c.91 7.64-3.63 14.44-3.63 14.44s-6-5.58-6.94-13.22c-.94-7.64 3.63-14.45 3.63-14.45s6.03 5.59 6.94 13.23z"/>
    <path fill="#FFAA2E" d="M31.27 165.6c7.07 3.28 10.54 10.67 10.54 10.67s-8 2.08-15.08-1.2c-7.08-3.28-10.53-10.67-10.53-10.67s8-2.08 15.07 1.2zM34.13 141.21c-.65 7.67-6.48 13.45-6.48 13.45s-4.77-6.65-4.12-14.32c.65-7.67 6.47-13.44 6.47-13.44s4.78 6.65 4.13 14.31z"/>
    <path fill="#FFAA2E" d="M19.48 142.14c6.27 4.6 8.17 12.52 8.17 12.52s-8.26.47-14.52-4.13S5 138 5 138s8.21-.46 14.48 4.14zM28.29 121.56c-1.87 7.47-8.55 12.27-8.55 12.27s-3.65-7.31-1.77-14.78 8.56-12.26 8.56-12.26 3.64 7.3 1.76 14.77z"/>
    <path fill="#FFAA2E" d="M13.68 120.2c5.45 5.51 6.06 13.63 6.06 13.63s-8.23-.82-13.68-6.34C.61 121.97 0 113.86 0 113.86s8.23.82 13.68 6.34zM27.66 99.66c-3.66 6.8-11.33 9.86-11.33 9.86s-1.73-8 1.93-14.76 11.33-9.86 11.33-9.86 1.73 7.96-1.93 14.76z"/>
    <path fill="#FFAA2E" d="M13.82 94.84c3.93 6.66 2.51 14.68 2.51 14.68s-7.78-2.77-11.71-9.42C.69 93.45 2.11 85.43 2.11 85.43s7.78 2.76 11.71 9.41zM31.57 77.56c-5.19 5.76-13.37 7-13.37 7s.22-8.14 5.4-13.9c5.18-5.76 13.37-7 13.37-7s-.22 8.14-5.4 13.9z"/>
    <path fill="#FFAA2E" d="M19.26 69.67c2.23 7.38-1.06 14.85-1.06 14.85S11.3 80 9.07 72.66c-2.23-7.34 1.06-14.85 1.06-14.85S17 62.3 19.26 69.67zM39.57 59.38C33.19 63.83 25 63.16 25 63.16s2-7.87 8.42-12.32 14.63-3.78 14.63-3.78-2.05 7.88-8.48 12.32z"/>
    <path fill="#FFAA2E" d="M29.42 49C29.88 56.63 25 63.16 25 63.16s-5.69-5.91-6.15-13.59c-.46-7.68 4.47-14.22 4.47-14.22S29 41.27 29.42 49zM49.58 42.94c-7 3.4-15 1.45-15 1.45s3.34-7.45 10.35-10.84c7.01-3.39 15-1.46 15-1.46s-3.34 7.45-10.35 10.85z"/>
    <path fill="#FFAA2E" d="M41.23 31.06c-.78 7.65-6.7 13.33-6.7 13.33S29.87 37.67 30.65 30c.78-7.67 6.7-13.34 6.7-13.34s4.65 6.74 3.88 14.4zM161.2 207c-6.1 4.8-7.73 12.78-7.73 12.78s8.27.2 14.38-4.61c6.11-4.81 7.73-12.78 7.73-12.78s-8.27-.16-14.38 4.61z"/>
    <path fill="#FFAA2E" d="M168.59 219.52c-7.38-2.56-15.12.3-15.12.3s4.2 7 11.58 9.57c7.38 2.57 15.11-.3 15.11-.3s-4.16-7.01-11.57-9.57zM182 201.61c-5.38 5.59-5.87 13.71-5.87 13.71s8.22-.93 13.59-6.51c5.37-5.58 5.87-13.71 5.87-13.71s-8.2.9-13.59 6.51z"/>
    <path fill="#FFAA2E" d="M191.08 213c-7.66-1.54-14.93 2.34-14.93 2.34s5.14 6.38 12.8 7.91c7.66 1.53 14.94-2.34 14.94-2.34s-5.15-6.4-12.81-7.91zM200.75 191.55c-4.41 6.36-3.6 14.46-3.6 14.46s8-2.2 12.38-8.55c4.38-6.35 3.59-14.46 3.59-14.46s-7.96 2.2-12.37 8.55z"/>
    <path fill="#FFAA2E" d="M211.52 201.37c-7.81-.33-14.37 4.64-14.37 4.64s6.11 5.49 13.92 5.81c7.81.32 14.37-4.64 14.37-4.64s-6.11-5.49-13.92-5.81zM217.67 177.79c-2.71 7.22.08 14.88.08 14.88s7.19-4 9.9-11.25-.08-14.88-.08-14.88-7.19 4.04-9.9 11.25z"/>
    <path fill="#FFAA2E" d="M230.54 184.74c-7.65 1.55-12.79 7.93-12.79 7.93s7.28 3.87 14.94 2.32c7.66-1.55 12.79-7.93 12.79-7.93s-7.28-3.87-14.94-2.32zM231.65 160.33c-.92 7.64 3.63 14.44 3.63 14.44s6-5.58 6.93-13.22c.93-7.64-3.63-14.45-3.63-14.45s-6.02 5.59-6.93 13.23z"/>
    <path fill="#FFAA2E" d="M245.82 164.1c-7.08 3.28-10.54 10.67-10.54 10.67s8 2.08 15.07-1.2c7.07-3.28 10.54-10.67 10.54-10.67s-8-2.08-15.07 1.2zM241.67 140.83c.65 7.67 6.48 13.45 6.48 13.45s4.77-6.65 4.12-14.32c-.65-7.67-6.48-13.44-6.48-13.44s-4.79 6.65-4.12 14.31z"/>
    <path fill="#FFAA2E" d="M256.32 141.76c-6.27 4.6-8.17 12.52-8.17 12.52s8.26.47 14.52-4.13 8.18-12.52 8.18-12.52-8.26-.47-14.53 4.13zM247.51 121.15c1.87 7.46 8.55 12.26 8.55 12.26s3.65-7.31 1.77-14.77-8.56-12.27-8.56-12.27-3.64 7.31-1.76 14.78z"/>
    <path fill="#FFAA2E" d="M262.12 119.78c-5.45 5.51-6.06 13.63-6.06 13.63s8.23-.82 13.69-6.33c5.46-5.51 6.05-13.64 6.05-13.64s-8.23.82-13.68 6.34zM248 100c3.66 6.8 11.32 9.86 11.32 9.86s1.73-8-1.93-14.76-11.32-9.85-11.32-9.85-1.7 7.93 1.93 14.75z"/>
    <path fill="#FFAA2E" d="M261.88 95.16c-3.93 6.65-2.52 14.67-2.52 14.67s7.79-2.76 11.71-9.41c3.92-6.65 2.51-14.68 2.51-14.68s-7.78 2.77-11.7 9.42zM244 77.86c5.18 5.76 13.36 7 13.36 7s-.22-8.14-5.4-13.9c-5.18-5.76-13.37-7-13.37-7s.17 8.14 5.41 13.9z"/>
    <path fill="#FFAA2E" d="M256.25 70c-2.23 7.38 1.06 14.85 1.06 14.85s6.9-4.49 9.13-11.86c2.23-7.37-1.06-14.85-1.06-14.85s-6.91 4.46-9.13 11.86zM236.17 60c6.38 4.45 14.62 3.78 14.62 3.78s-2.09-7.88-8.47-12.32c-6.38-4.44-14.63-3.78-14.63-3.78s2.1 7.86 8.48 12.32z"/>
    <path fill="#FFAA2E" d="M246.32 49.56c-.46 7.67 4.47 14.21 4.47 14.21s5.69-5.92 6.15-13.6c.46-7.68-4.47-14.17-4.47-14.17s-5.69 5.88-6.15 13.56zM225.58 43.67c7 3.4 15 1.45 15 1.45s-3.34-7.45-10.36-10.84c-7.02-3.39-15-1.46-15-1.46s3.34 7.45 10.36 10.85z"/>
    <path fill="#FFAA2E" d="M233.92 31.79c.78 7.65 6.71 13.33 6.71 13.33s4.66-6.72 3.88-14.38c-.78-7.66-6.7-13.33-6.7-13.33s-4.66 6.72-3.89 14.38z"/>
    <path fill="#FF9912" d="M219.94 20.2a10.82 10.82 0 01-1.1 1l-.38.24c24.52 20.87 40 51.08 40 84.63 0 62.84-54.14 114-120.68 114S17.1 168.95 17.1 106.07C17.06 74 31.16 45 53.81 24.25a11.492 11.492 0 01-1.94-.77c-22.67 21-36.75 50.27-36.75 82.57 0 63.85 55 115.79 122.62 115.79s122.62-51.94 122.62-115.79c0-34.05-15.61-64.65-40.42-85.85z"/>
    <path fill="#FFAA2E" d="M65.82 28.4c-7.65 1.62-15-2.18-15-2.18s5.07-6.43 12.72-8c7.65-1.57 15 2.18 15 2.18s-5.08 6.38-12.72 8z"/>
    <path fill="#FFAA2E" d="M60.65 14.88c-2.65 7.24-9.79 11.34-9.79 11.34s-2.86-7.64-.22-14.88C53.28 4.1 60.43 0 60.43 0s2.86 7.64.22 14.88zM210.17 28.4c7.64 1.62 15-2.18 15-2.18s-5.08-6.43-12.72-8c-7.64-1.57-15 2.18-15 2.18s5.08 6.38 12.72 8z"/>
    <path fill="#FFAA2E" d="M215.34 14.88c2.64 7.24 9.79 11.34 9.79 11.34s2.86-7.64.22-14.88C222.71 4.1 215.56 0 215.56 0s-2.87 7.64-.22 14.88z"/>
  </g>
  <defs>
    <clipPath id="clip0_1245_4202">
      <path fill="#fff" d="M0 0h275.8v231.49H0z"/>
    </clipPath>
  </defs>
</svg>
