<svg xmlns="http://www.w3.org/2000/svg" width="70" height="21" fill="none" viewBox="0 0 70 21">
  <path fill="#fff" d="M29.916 20.669h-5.592L27.822.368h5.592l-3.498 20.301zM50.19.864C49.085.454 47.336 0 45.172 0c-5.522 0-9.412 2.764-9.435 6.716-.046 2.916 2.784 4.536 4.901 5.508 2.164.993 2.9 1.642 2.9 2.527-.023 1.36-1.75 1.987-3.36 1.987-2.232 0-3.428-.323-5.247-1.08l-.736-.324-.782 4.557c1.311.561 3.728 1.059 6.237 1.08 5.868 0 9.688-2.72 9.733-6.932.023-2.312-1.472-4.082-4.694-5.53-1.956-.928-3.154-1.554-3.154-2.505.023-.864 1.013-1.749 3.221-1.749 1.818-.043 3.154.367 4.166.777l.506.216.76-4.384z"/>
  <path fill="#fff" fill-rule="evenodd" d="M60.2.368h4.325l4.512 20.3H63.86s-.507-2.332-.667-3.045h-7.18l-1.174 3.046H48.97l8.307-18.617C57.852.735 58.866.368 60.2.368zm-.345 7.429s-1.772 4.514-2.233 5.68h4.649c-.23-1.015-1.29-5.874-1.29-5.874l-.39-1.75c-.165.45-.403 1.07-.563 1.488-.11.283-.182.474-.173.456zM.092.368H9.09c1.22.043 2.21.41 2.531 1.706l1.956 9.328v.002l.599 2.807L19.652.368h5.914l-8.79 20.28h-5.914L5.877 3.008C4.157 2.064 2.195 1.305 0 .778l.092-.41z" clip-rule="evenodd"/>
</svg>
