<svg xmlns="http://www.w3.org/2000/svg" width="512" height="513" fill="none" viewBox="0 0 512 513">
  <g clip-path="url(#clip0_4_7180)">
    <path fill="#F0F0F0" d="M256 512.989c141.385 0 256-114.615 256-256s-114.615-256-256-256S0 115.604 0 256.99s114.615 256 256 256z"/>
    <path fill="#FF9811" d="M256 .99C154.506.99 66.81 60.053 25.402 145.684h461.195C445.19 60.055 357.493.989 256 .989z"/>
    <path fill="#6DA544" d="M256 512.989c101.493 0 189.19-59.065 230.598-144.696H25.402C66.81 453.924 154.506 512.989 256 512.989z"/>
    <path fill="#0052B4" d="M256 346.032c49.177 0 89.043-39.866 89.043-89.043 0-49.177-39.866-89.043-89.043-89.043-49.177 0-89.043 39.866-89.043 89.043 0 49.177 39.866 89.043 89.043 89.043z"/>
    <path fill="#F0F0F0" d="M256 312.641c30.735 0 55.652-24.916 55.652-55.652S286.735 201.337 256 201.337c-30.736 0-55.652 24.916-55.652 55.652s24.916 55.652 55.652 55.652z"/>
    <path fill="#0052B4" d="M256 188.315l17.169 38.938 42.304-4.601-25.136 34.337 25.136 34.337-42.304-4.601L256 325.663l-17.169-38.938-42.304 4.6 25.136-34.336-25.136-34.337 42.304 4.601L256 188.315z"/>
  </g>
  <defs>
    <clipPath id="clip0_4_7180">
      <path fill="#fff" d="M0 0h512v512H0z" transform="translate(0 .99)"/>
    </clipPath>
  </defs>
</svg>
