<svg xmlns="http://www.w3.org/2000/svg" width="383" height="330" fill="none" viewBox="0 0 383 330">
      <path fill="#263238" d="m44.932 158.416-5.251.915 24.502 140.682 5.251-.915-24.502-140.682Z" />
      <path fill="#fff" d="m44.932 158.416-5.251.915 24.502 140.682 5.251-.915-24.502-140.682Z" opacity=".2" />
      <path fill="#4F46E5" d="M65.75 155.389c6.851-14.641.537-32.065-14.104-38.918-14.641-6.852-32.065-.538-38.918 14.104-6.852 14.641-.537 32.065 14.104 38.917 14.641 6.852 32.065.538 38.917-14.103Z" />
      <path fill="#fff" d="M65.75 155.389c6.851-14.641.537-32.065-14.104-38.918-14.641-6.852-32.065-.538-38.918 14.104-6.852 14.641-.537 32.065 14.104 38.917 14.641 6.852 32.065.538 38.917-14.103Z" opacity=".6" />
      <path fill="#4F46E5" d="M61.008 159.068c8.882-12.026 6.334-28.975-5.692-37.857-12.026-8.883-28.975-6.334-37.857 5.691-8.883 12.026-6.334 28.975 5.691 37.858 12.026 8.882 28.975 6.334 37.858-5.692Z" />
      <path fill="#4F46E5" d="m23.43 145.54 7.6-2s.49-5.79-2.37-17.61a14.588 14.588 0 0 1 4-.87c1.37.07 5 13.14 5 13.14s13.53-4.21 14.41-3.8c.56.26 1.16 2.28 1.52 3.71a1.76 1.76 0 0 1-1 2.06l-.45.21 2.48 13.28a2 2 0 0 1-1.46 2.27l-12.8 3.19a6.464 6.464 0 0 1-3.82-.22l-1.62-.61-7.77 2.46-3.72-15.21Z" />
      <path fill="#fff" d="m23.43 145.54 7.6-2s.49-5.79-2.37-17.61a14.588 14.588 0 0 1 4-.87c1.37.07 5 13.14 5 13.14s13.53-4.21 14.41-3.8c.56.26 1.16 2.28 1.52 3.71a1.76 1.76 0 0 1-1 2.06l-.45.21 2.48 13.28a2 2 0 0 1-1.46 2.27l-12.8 3.19a6.464 6.464 0 0 1-3.82-.22l-1.62-.61-7.77 2.46-3.72-15.21Z" opacity=".7" />
      <path fill="#263238" d="m139.53 248.15-2.27-6c-30.36 1.4-33.76-10-34.08-13.68-.57-6.75 5.53-12.9 13.61-13.71 11.13-1.14 18.55 8.83 22.33 15.4 5.73-6.9 16.82-12.6 25.18-12.6 6.4 0 10.95 3 12.47 9.1 1.22 4.89-.51 7.92-2.18 9.8-7.06 8-27.43 6.42-33.55 5.79l-1.51 5.9Zm3.6-12.1c9.22.81 22.63.21 26.4-4 .6-.68 1.22-1.38.68-3.55-.77-3.09-2.6-4.11-5.91-4.11-7.4-.04-17.8 6.26-21.17 11.66Zm-24.62-14.59a9.285 9.285 0 0 0-1 .06c-4.58.46-7.76 3.76-7.54 6.41.26 3 5.85 8.05 24.62 7.58-2.36-4.68-8-14.05-16.08-14.05Z" />
      <path fill="#4F46E5" d="M204.77 238.63H72.98v90.53h131.79v-90.53Z" />
      <path fill="#fff" d="M204.77 238.63H72.98v90.53h131.79v-90.53Z" opacity=".2" />
      <path fill="#000" d="M204.77 269.91H72.98v59.25h131.79v-59.25Z" opacity=".2" />
      <path fill="#263238" d="M171.52 238.63h-10.71v90.53h10.71v-90.53ZM99.34 238.63h-7.86v90.53h7.86v-90.53Z" />
      <path fill="#000" d="M125.34 238.63H72.98v90.53h52.36v-90.53Z" opacity=".2" />
      <path fill="#4F46E5" d="M59.09 270.38c-4.15.43-17.92 1.48-22.7-3.91a6.826 6.826 0 0 1-1.47-6.64c1-4.12 4.1-6.17 8.43-6.17 5.66 0 13.16 3.87 17 8.54 2.56-4.45 7.57-11.19 15.1-10.42 5.47.55 9.6 4.71 9.21 9.28-.21 2.46-2.52 10.2-23.06 9.25l-1.53 4.05-.98-3.98Zm-15.73-12.21c-2.24 0-3.47.73-4 2.82a2.219 2.219 0 0 0 .46 2.42c2.55 2.88 11.62 3.26 17.87 2.71-2.29-3.66-9.33-7.95-14.33-7.95Zm20.12 7.63c12.7.32 16.49-3.11 16.66-5.13.15-1.79-2-4-5.1-4.33a5.607 5.607 0 0 0-.71 0c-5.46-.04-9.28 6.3-10.85 9.46Z" />
      <path fill="#4F46E5" d="M15.98 329.16h89.16v-61.25H15.98v61.25Z" />
      <path fill="#fff" d="M15.98 329.16h89.16v-61.25H15.98v61.25Z" opacity=".6" />
      <path fill="#000" d="M15.98 329.16h89.16v-40.09H15.98v40.09Z" opacity=".1" />
      <path fill="#fff" d="M69.7 329.16h35.43v-61.25H69.7v61.25Z" opacity=".2" />
      <path fill="#4F46E5" d="M38.47 329.16h7.24v-61.25h-7.24v61.25ZM87.3 329.16h5.32v-61.25H87.3v61.25Z" />
      <path stroke="#4F46E5" stroke-miterlimit="10" d="M330.28 253.82s7-5.84 13 0 7.17 42 7.17 42" />
      <path stroke="#4F46E5" stroke-miterlimit="10" d="M351 302.85s-4.13-42.48 11.42-60.33" />
      <path stroke="#4F46E5" stroke-miterlimit="10" d="M349.48 298.37s3.18-48.37-8.48-59.09M351 298.37s.27-32 8.94-36.92c8.67-4.92 13.06 11.23 13.06 11.23" />
      <path stroke="#4F46E5" stroke-miterlimit="10" d="M347.53 298.37s1.42-24.53-5.3-33.3c-6.72-8.77-13.78 3.76-13.78 3.76M349.88 301.66s-4.35-57.38 2.84-67.1" />
      <path fill="#4F46E5" d="M367.32 266.1s-4.32 1.6-3 5.36c1.32 3.76 15 10 15 10s5.72-5.25.47-13.78-12.35-4.27-12.47-1.58Z" />
      <path fill="#fff" d="M367.32 266.1s-4.32 1.6-3 5.36c1.32 3.76 15 10 15 10s5.72-5.25.47-13.78-12.35-4.27-12.47-1.58Z" opacity=".2" />
      <path fill="#4F46E5" d="M348.53 258.94s4.6-.19 4.87 3.78c.27 3.97-10 14.94-10 14.94s-7.3-2.64-5.73-12.54c1.57-9.9 9.72-8.62 10.86-6.18Z" />
      <path fill="#fff" d="M348.53 258.94s4.6-.19 4.87 3.78c.27 3.97-10 14.94-10 14.94s-7.3-2.64-5.73-12.54c1.57-9.9 9.72-8.62 10.86-6.18Z" opacity=".2" />
      <path fill="#4F46E5" d="M344.63 240s3.07-.33 2.83-2.2c-.24-1.87-11.93-6.68-18.83 1.1 0 0 4.42 7.58 10.8 7.68 6.38.1 5.2-6.58 5.2-6.58Z" />
      <path fill="#fff" d="M344.63 240s3.07-.33 2.83-2.2c-.24-1.87-11.93-6.68-18.83 1.1 0 0 4.42 7.58 10.8 7.68 6.38.1 5.2-6.58 5.2-6.58Z" opacity=".2" />
      <path fill="#4F46E5" d="M350.35 235.41s-2.78 1.35-3.55-.37c-.77-1.72 6.59-12 16.55-9 0 0 .26 8.77-5.1 12.22-5.36 3.45-7.9-2.85-7.9-2.85Z" />
      <path fill="#fff" d="M350.35 235.41s-2.78 1.35-3.55-.37c-.77-1.72 6.59-12 16.55-9 0 0 .26 8.77-5.1 12.22-5.36 3.45-7.9-2.85-7.9-2.85Z" opacity=".2" />
      <path fill="#4F46E5" d="M335.82 264.59s2.12-1.71-.16-2.54c-2.28-.83-13.5-.6-13.62 10.51 0 0 13.06 2.17 14.68-2.06 1.62-4.23-.9-5.91-.9-5.91Z" />
      <path fill="#fff" d="M335.82 264.59s2.12-1.71-.16-2.54c-2.28-.83-13.5-.6-13.62 10.51 0 0 13.06 2.17 14.68-2.06 1.62-4.23-.9-5.91-.9-5.91Z" opacity=".2" />
      <path fill="#4F46E5" d="M362.46 239.67s-2.12-1.71.17-2.54c2.29-.83 13.5-.6 13.61 10.51 0 0-13.06 2.17-14.67-2.06-1.61-4.23.89-5.91.89-5.91Z" />
      <path fill="#fff" d="M362.46 239.67s-2.12-1.71.17-2.54c2.29-.83 13.5-.6 13.61 10.51 0 0-13.06 2.17-14.67-2.06-1.61-4.23.89-5.91.89-5.91Z" opacity=".2" />
      <path fill="#4F46E5" d="M355.55 248.62s-.18-2.08 1.5-1.26c1.68.82 7.52 7.12 1.46 13.11 0 0-8.16-6.05-6.69-9.19 1.47-3.14 3.73-2.66 3.73-2.66Z" />
      <path fill="#fff" d="M355.55 248.62s-.18-2.08 1.5-1.26c1.68.82 7.52 7.12 1.46 13.11 0 0-8.16-6.05-6.69-9.19 1.47-3.14 3.73-2.66 3.73-2.66Z" opacity=".2" />
      <path fill="#4F46E5" d="M333.93 251.59s1.27-1.66-.59-1.87c-1.86-.21-10.16 2-8.23 10.31 0 0 10.13-.76 10.56-4.21.43-3.45-1.74-4.23-1.74-4.23Z" />
      <path fill="#fff" d="M333.93 251.59s1.27-1.66-.59-1.87c-1.86-.21-10.16 2-8.23 10.31 0 0 10.13-.76 10.56-4.21.43-3.45-1.74-4.23-1.74-4.23Z" opacity=".2" />
      <path fill="#4F46E5" d="M368.13 329.17H333.4l-3.75-38.03h42.23l-3.75 38.03Z" />
      <path fill="#fff" d="M368.13 329.17H333.4l-3.75-38.03h42.23l-3.75 38.03Z" opacity=".5" />
      <path fill="#4F46E5" d="M373.73 286.94h-45.94v8.39h45.94v-8.39Z" />
      <path fill="#fff" d="M373.73 286.94h-45.94v8.39h45.94v-8.39Z" opacity=".2" />
      <path fill="#263238" d="M305.29 50.52s-2.58-5.93-10.88-5.93-15.23 4.94-14.84 11.27c.39 6.33-4.35 5.74-5.14 11.87-.79 6.13 2.17 7.71 2.37 10.29.2 2.58-3.16 1.78-5.34 6.13-2.18 4.35-4.94 10.48 4.35 18.59s35.61 6.73 41.34 1.78c5.73-4.95 5.54-14.44 0-17-5.54-2.56-.39-2.18.2-7.91.59-5.73-4.55-7.91-4.15-12.46.4-4.55 1.8-16.23-7.91-16.63Z" />
      <path fill="#B97964" d="m257 133.58-8.19-4.47s-2.32-6-3.55-6.64c-1.23-.64-10.13-.47-11.26-.47-1.13 0-.82 8.33-.28 9.72.54 1.39 10.37 1.85 11.33 2l10 7.25 1.95-7.39Z" />
      <path fill="#4F46E5" d="M270.77 88.8c-6.17 0-11.18 43.48-11.18 43.48l-8.44-3.17-5.27 7.65s9.49 12.13 18.72 10.55c9.23-1.58 14-49.12 14-49.12l-7.83-9.39Z" />
      <path fill="#fff" d="M278.58 98.19s-.12 1.24-.37 3.34c-1.28 10.84-5.86 44.46-13.61 45.78a9.31 9.31 0 0 1-2.23.12c-8.47-.41-16.49-10.67-16.49-10.67l5.27-7.64 8.44 3.16s5-43.52 11.18-43.48l7.81 9.39Z" opacity=".2" />
      <path fill="#000" d="M278.21 101.53c-1.28 10.84-5.86 44.46-13.61 45.78-.736.13-1.485.17-2.23.12-.2-27.92 8.3-52.6 8.3-52.6l7.54 6.7Z" opacity=".2" />
      <path fill="#B97964" d="M275.29 153.08s-10.84 57.76-13.73 81.48c-3.78 30.94-19.23 76.2-19.23 76.2l6.18 1.6s21.78-38.47 26-73.07c17.3-35.37 18.7-78.93 18.7-78.93l-17.92-7.28Z" />
      <path fill="#263238" d="M230.83 324.76A8.931 8.931 0 0 1 234 324s3.8-2.24 7.56-10.92h4.24a3.501 3.501 0 0 1 3.25 2.33c.07.19.11.388.12.59a22.307 22.307 0 0 1-.33 3.05 84.858 84.858 0 0 1-2.47 10l-.72-.19 1.31-6.31c.43-2.15-1.83-.08-2.87 2.09s-2.65 4.34-7.33 3.27c-5.44-1.38-7.64-2.17-5.93-3.15Z" />
      <path fill="#B97964" d="M286.54 152.16s1.35 58.75 3.42 82.55c2.71 31.06-3 78.54-3 78.54l6.38.28s13.35-42.14 10.35-76.87c9.61-38.19 2-81.09 2-81.09l-19.15-3.41Z" />
      <path fill="#263238" d="M277 326.7a8.996 8.996 0 0 1 3.07-1.15s3.53-2.63 6.34-11.67l4.2-.48a3.486 3.486 0 0 1 3.49 2c.09.179.15.371.18.57a24.19 24.19 0 0 1 0 3.07 84.41 84.41 0 0 1-1.39 10.16l-.73-.1.61-6.42c.2-2.18-1.81.12-2.62 2.39s-2.16 4.6-6.93 4c-5.55-.67-7.82-1.22-6.22-2.37Z" />
      <path fill="#B97964" d="M242.33 310.76S237 321.82 234 324c0 0 4.08 2.43 8.33-3 5.49-7 6.84-5 6.84-5a19.589 19.589 0 0 0-.66-3.57c-.83-2.33-6.18-1.67-6.18-1.67ZM287.56 310.67s-1.5 4.09-3.5 8.59a19.576 19.576 0 0 1-4 6.29s3.47 1.13 5.35-1.05c1.88-2.18 5.08-10 8.68-9.14a8.21 8.21 0 0 0-.8-1.83c-.54-.89-5.73-2.86-5.73-2.86Z" />
      <path fill="#4F46E5" d="M271.58 143.44s-4.29 42.76-10.67 85.63a453.215 453.215 0 0 1-17.14 72l12.66 1.06s24.26-60.14 31.65-94.95c0 0 2.63 61.71-1.59 96l11.08-.53s27-116.14 6.86-158l-32.85-1.21Z" />
      <path fill="#fff" d="m297.57 302.66-11.08.52c4.22-34.28 1.59-96 1.59-96-1.87 8.79-4.81 19.18-8.16 29.82-9.93 31.51-23.49 65.13-23.49 65.13l-12.66-1.06a452.862 452.862 0 0 0 17.14-72c6.38-42.87 10.67-85.63 10.67-85.63l32.85 1.24c20.17 41.83-6.86 157.98-6.86 157.98Z" opacity=".4" />
      <path fill="#000" d="M288.08 207.18c-1.87 8.79-4.81 19.18-8.16 29.82-1.28-20 3.81-55.93 3.81-55.93l4.35 26.11Z" opacity=".2" />
      <path fill="#263238" d="m304.36 142.6.09 4.83-33.05-1.91-.1-5.71 33.06 2.79Z" />
      <path fill="#fff" d="m278.546 146.354 7.222.509.386-5.477-7.222-.508-.386 5.476Z" />
      <path fill="#4F46E5" d="m292.959 149.136 1.64.053.268-8.346-1.639-.052-.269 8.345Z" />
      <path fill="#fff" d="m292.959 149.136 1.64.053.268-8.346-1.639-.052-.269 8.345Z" opacity=".4" />
      <path fill="#4F46E5" d="m272.77 147.284 1.639.052.268-8.345-1.639-.053-.268 8.346Z" />
      <path fill="#fff" d="m272.77 147.284 1.639.052.268-8.345-1.639-.053-.268 8.346Z" opacity=".4" />
      <path fill="#4F46E5" d="m271.42 138.49 33 2.85a117.351 117.351 0 0 1 3.51-24.24c.79-3.16 1.78-6.69 3.05-10.77a302.4 302.4 0 0 1 2.27-7c.63-1.91 1.31-3.94 2.06-6.08a98 98 0 0 0-13.7-3.31c-4.897-.87-9.849-1.391-14.82-1.56-6.42-.05-13.8.67-13.8.67s-1.05.25-1.71 7.06c-.59 6.35-1.18 19.13.14 42.38Z" />
      <path fill="#263238" d="m271.36 140.42 33 2.18c.52-8.2 1.11-15.72 3.58-25.5.79-3.16 1.78-6.69 3.05-10.77a302.4 302.4 0 0 1 2.27-7c.63-1.91 1.31-3.94 2.06-6.08a98 98 0 0 0-13.7-3.31c-4.897-.87-9.849-1.391-14.82-1.56-6.42-.05-13.8.67-13.8.67s-1.05.25-1.71 7.06c-.6 6.35-1.29 21.06.07 44.31Z" />
      <path fill="#fff" d="m271.42 138.49 33 2.85a117.351 117.351 0 0 1 3.51-24.24c.79-3.16 1.78-6.69 3.05-10.77a302.4 302.4 0 0 1 2.27-7c.63-1.91 1.31-3.94 2.06-6.08a98 98 0 0 0-13.7-3.31c-4.897-.87-9.849-1.391-14.82-1.56-6.42-.05-13.8.67-13.8.67s-1.05.25-1.71 7.06c-.59 6.35-1.18 19.13.14 42.38Z" opacity=".1" />
      <path fill="#B97964" d="M289.52 95.63c8.14-1 10.58-4.52 10.58-4.52-5.16-4.87-.87-13.31-.87-13.31l-9.79 1.83c.219 1.363.346 2.74.38 4.12.07 5.95-2.61 6-2.61 6-1.72 3.25 2.31 5.88 2.31 5.88Z" />
      <path fill="#000" d="M289.44 79.63c.219 1.363.346 2.74.38 4.12 6.61 0 9.41-5.95 9.41-5.95l-9.79 1.83Z" opacity=".2" />
      <path fill="#B97964" d="M294.85 52.25c-8.51-.46-11.5 3.94-12.61 12.68-1.38 10.92.63 18.84 11.4 17.08C308.27 79.62 309 53 294.85 52.25Z" />
      <path fill="#A24E3F" d="M287.77 64.76a17.803 17.803 0 0 1-2.67 3.39 2.354 2.354 0 0 0 2.19 1.09l.48-4.48Z" />
      <path fill="#263238" d="M293 64.35c0 .69.28 1.29.74 1.33.46.04.89-.5.95-1.2.06-.7-.28-1.3-.75-1.33-.47-.03-.86.5-.94 1.2Z" />
      <path fill="#263238" d="m294.15 63.2-1.47-.72s.66 1.34 1.47.72ZM284.35 63.52c-.05.7.28 1.29.74 1.33.46.04.89-.5 1-1.2.11-.7-.28-1.29-.75-1.33-.47-.04-.93.5-.99 1.2Z" />
      <path fill="#263238" d="m285.48 62.37-1.47-.71s.66 1.34 1.47.71Z" />
      <path stroke="#2E353A" stroke-linecap="round" stroke-linejoin="round" stroke-width=".725" d="M293.43 58.47a4.433 4.433 0 0 1 3.62 1.49M287.26 57.77a4 4 0 0 0-3.43.52" />
      <path fill="#263238" d="M288.35 72.65c.35.978.627 1.98.83 3 .183.01.367.01.55 0 2.49-.11 3.61-1 4.1-1.92a3.2 3.2 0 0 0 .32-1.49 3.235 3.235 0 0 0-.11-.87 11.73 11.73 0 0 1-4.84 1.24c-.52.04-.85.04-.85.04Z" />
      <path fill="#fff" d="m289.2 72.6.27.88c2.34-.11 4-.51 4.68-1.25a3.234 3.234 0 0 0-.11-.87 11.731 11.731 0 0 1-4.84 1.24Z" />
      <path fill="#DE5753" d="M289.73 75.64c2.49-.11 3.61-1 4.1-1.92a8.08 8.08 0 0 0-2.75.67 3.057 3.057 0 0 0-1.35 1.25Z" />
      <path fill="#263238" d="M303.37 67.11s-3.6-7.21-2.7-12.58c0 0-16.49-7.81-18.26 9.26 0 0-.82-15.29 13.83-14.83 14.65.46 13.42 21.87 5.51 27.83 0 0 3.84-5.17 1.62-9.68Z" />
      <path fill="#263238" d="M304.23 51.44s-6.66-5.93-12.72-4.81c-6.06 1.12-5 9.1 3 12.13 8 3.03 9.63 6.93 9.63 6.93l6.92-6.2-6.83-8.05Z" />
      <path stroke="#263238" stroke-miterlimit="10" stroke-width=".5" d="M289.73 49.13s-2.84.19-2.05 4.41 6.79 6.34 12.46 8.32c5.67 1.98 5.21 4.21 5.21 4.21" />
      <path fill="#B97964" d="M301.88 68.83a3.732 3.732 0 0 1 4.2-3.19c2.63.43 3.59 5.91-3.05 6.86-.95.13-1.43-.82-1.15-3.67ZM307.64 92s-9.55 7.75-18.44 7.63c-8.89-.12-12-10.13-12-10.13s13.8-4.07 30.44 2.5Z" />
      <path fill="#4F46E5" d="M301.82 89.29a213.775 213.775 0 0 0 .5 65.41l9.49-1.06 4.49-60.92-14.48-3.43Z" />
      <path fill="#fff" d="m316.3 92.72-.48 6.46-2.41 32.71-1.6 21.75-9.49 1.06c-.11-.69-.22-1.38-.32-2.06a214.015 214.015 0 0 1-2.43-32.4v-1.11a200.85 200.85 0 0 1 2.25-29.84l4.4 1 10.08 2.43Z" opacity=".2" />
      <path fill="#4F46E5" d="M283.59 88s-10.59 31.09-12.13 63l-3.46-1s-2.54-34.52 2.74-61.15l12.85-.85Z" />
      <path fill="#fff" d="M283.59 88a269.206 269.206 0 0 0-7.45 28.34c-.54 2.59-1.07 5.3-1.56 8.1-.92 5.18-1.72 10.66-2.31 16.27-.36 3.41-.64 6.86-.81 10.33L268 150s-.33-4.43-.5-11.35c-.12-4.75-.17-10.68 0-17.14a201.405 201.405 0 0 1 3.23-32.66l8.79-.57 4.07-.28ZM303.11 101.06l3.36 4.75-6.9 13.32a200.85 200.85 0 0 1 2.25-29.84l4.4 1 2.82 6.28-5.93 4.49Z" opacity=".2" />
      <path fill="#fff" d="M283.59 88a269.206 269.206 0 0 0-7.45 28.34l-2.5-13.67 4.94-4.45-3.16-4.94 4.14-5 4.03-.28Z" opacity=".2" />
      <path fill="#000" d="m315.82 99.18-2.41 32.71c-2.81 7-6.63 14.81-11.41 20.75a214.015 214.015 0 0 1-2.43-32.4c4.37-7.13 10.6-16.36 16-20.86l.25-.2ZM274.58 124.41c-.92 5.18-1.72 10.66-2.31 16.27-1.57-.67-3.18-1.38-4.74-2.08-.12-4.75-.17-10.68 0-17.14l7.05 2.95Z" opacity=".2" />
      <path fill="#4F46E5" d="M241.22 127.62s-7.44-3-4.27-10.7c0 0-2.15 2-7.15-.48 0 0 5.21 2.49 4.48 4.11-.61 1.35-7.46 2.08-7.46 2.08s7.71-.53 8.53 1.13c.51 1.05-4.67 7.26-4.67 7.26s5.45-5.27 6.61-4.59c1.16.68-.37 5.07-.37 5.07s1.48-3.79 2.33-3.67c.85.12.72 2.65.72 2.65s.03-2.69 1.25-2.86ZM247.2 110.89s-6.2-5.07-11.43 1.45c0 0 .73-2.86-3.88-6 0 0 4.7 3.35 5.77 1.92.88-1.18-1.8-7.53-1.8-7.53s3.27 7 5.12 6.91c1.17-.06 4.09-7.59 4.09-7.59s-2 7.32-.81 8c1.19.68 4.25-2.78 4.25-2.78s-2.59 3.13-2.08 3.82c.51.69 2.67-.65 2.67-.65s-2.37 1.26-1.9 2.45Z" />
      <path fill="#fff" d="M241.22 127.62s-7.44-3-4.27-10.7c0 0-2.15 2-7.15-.48 0 0 5.21 2.49 4.48 4.11-.61 1.35-7.46 2.08-7.46 2.08s7.71-.53 8.53 1.13c.51 1.05-4.67 7.26-4.67 7.26s5.45-5.27 6.61-4.59c1.16.68-.37 5.07-.37 5.07s1.48-3.79 2.33-3.67c.85.12.72 2.65.72 2.65s.03-2.69 1.25-2.86ZM247.2 110.89s-6.2-5.07-11.43 1.45c0 0 .73-2.86-3.88-6 0 0 4.7 3.35 5.77 1.92.88-1.18-1.8-7.53-1.8-7.53s3.27 7 5.12 6.91c1.17-.06 4.09-7.59 4.09-7.59s-2 7.32-.81 8c1.19.68 4.25-2.78 4.25-2.78s-2.59 3.13-2.08 3.82c.51.69 2.67-.65 2.67-.65s-2.37 1.26-1.9 2.45Z" opacity=".7" />
      <path fill="#B97964" d="m270.57 125.83-13.43-9.13s-4.34-12.78-5.38-13c-1.04-.22-8.22 3.67-8.57 4.81-.35 1.14 3.89 10.27 5 11.43 1.11 1.16 3.91 1.28 3.91 1.28l13.08 10.28 5.39-5.67Z" />
      <path fill="#4F46E5" d="M316.3 92.72c-3.83-.25-17.94 37.45-20.05 40.61-2.11 3.16-33.89-13.58-33.89-13.58l-4.74 10.48s34.61 20.58 44.17 17.61c6.92-2.15 13.45-24 16.35-33.5 4.63-15.13 1.66-21.4-1.84-21.62Z" />
      <path fill="#fff" d="M316.3 92.72c-3.83-.25-17.94 37.45-20.05 40.61-2.11 3.16-33.89-13.58-33.89-13.58l-4.74 10.48s34.61 20.58 44.17 17.61c6.92-2.15 13.45-24 16.35-33.5 4.63-15.13 1.66-21.4-1.84-21.62Z" opacity=".2" />
      <path fill="#4F46E5" d="m199.161 3.828-13.519-2.34a3.69 3.69 0 0 0-4.265 3.006l-2.34 13.52a3.69 3.69 0 0 0 3.006 4.265l13.519 2.34a3.69 3.69 0 0 0 4.265-3.007l2.34-13.519a3.69 3.69 0 0 0-3.006-4.265Z" />
      <path fill="#fff" d="M197 9.94c-1.06-2.63-4-2.2-5.79-.6-1.13-2.11-3.77-3.51-5.66-1.38-3.17 3.59 1.29 8.2 3.45 10.08l.61.53.76-.29c2.69-1.05 8.44-3.89 6.63-8.34Z" opacity=".6" />
      <path fill="#4F46E5" d="M191.31 22.22s-3.81 5.76-10.25 6.65c0 0 3.72-1.36 4.58-7.9l5.67 1.25Z" />
      <path fill="#263238" d="M143.56 319.89h-9.9a.707.707 0 0 0-.69.56l-1.61 7.25a1.213 1.213 0 0 0 .93 1.43.71.71 0 0 0 .26 0c3.2 0 5.54-.24 9.56-.24 2.48 0 9.95.25 13.37.25s3.87-3.37 2.47-3.69c-6.28-1.36-11-3.26-13-5.06a1.93 1.93 0 0 0-1.39-.5ZM185.54 319.63h-9.9a.707.707 0 0 0-.69.56l-1.61 7.25a1.213 1.213 0 0 0 .93 1.43c.086.011.174.011.26 0 3.21-.06 5.54-.25 9.56-.25 2.48 0 9.95.26 13.37.26s3.87-3.38 2.47-3.69c-6.28-1.37-11-3.27-13-5.07a1.928 1.928 0 0 0-1.39-.49Z" />
      <path fill="#263238" d="M138.31 136.39h43.25c4.11 22.45 15.87 113.33 6.64 184.13l-14.44 1.58S176 213.3 163.1 178.55c-1.49 18.6-3.26 38.39-4.79 48.91-3.76 25.92-12.24 93.46-12.24 93.46l-14.64.39s3.21-65.51 4.61-91c1.55-27.62 2.21-88.24 2.27-93.92Z" />
      <path fill="#fff" d="M138.31 136.39h43.25c4.11 22.45 15.87 113.33 6.64 184.13l-14.44 1.58S176 213.3 163.1 178.55c-1.49 18.6-3.26 38.39-4.79 48.91-3.76 25.92-12.24 93.46-12.24 93.46l-14.64.39s3.21-65.51 4.61-91c1.55-27.62 2.21-88.24 2.27-93.92Z" opacity=".2" />
      <path fill="#000" d="M163.1 178.56a115.727 115.727 0 0 1 4.83 18.71c1.21-16.55-3.63-34.1-3.63-34.1l-1.2 15.39Z" opacity=".2" />
      <path fill="#263238" d="M181.92 136.91h-43.53v5.18l44.09-.54-.56-4.64Z" />
      <path fill="#263238" d="M152.39 143.78h1.55v-9.2h-1.55v9.2ZM174.41 143.78h1.55v-9.2h-1.55v9.2Z" />
      <path fill="#fff" d="M162.08 141.8h8.05V136h-8.05v5.8Z" />
      <path fill="#fff" d="M152.39 143.78h1.55v-9.2h-1.55v9.2ZM174.41 143.78h1.55v-9.2h-1.55v9.2Z" opacity=".2" />
      <path fill="#EBB376" d="m227.16 83.9 3.66-3.76s1.46-5.65 2.3-6.69c.84-1.04 7.21-4 7.21-4s2.19.11 2.5.52c.31.41-.73 9.93-1.67 11.18s-5.53 2.3-6.16 2.51c-.63.21-7.1 6.79-7.1 6.79l-.74-6.55Z" />
      <path fill="#4F46E5" d="M177.61 61.56c6.83.83 20.28 31.88 25.42 34.65 5.14 2.77 25.52-14.63 25.52-14.63l5.14 6.33s-23.14 24.72-32.24 22c-9.1-2.72-22-26.11-25.91-33.43s2.07-14.92 2.07-14.92Z" />
      <path fill="#fff" d="M233.69 87.91s-23.14 24.72-32.24 22c-4-1.21-8.66-6.34-13-12.34a200.035 200.035 0 0 1-12.9-21.08 12.484 12.484 0 0 1-.22-10.8 18.152 18.152 0 0 1 2.29-4.08c6.83.83 20.28 31.89 25.42 34.66 5.14 2.77 25.52-14.64 25.52-14.64l5.13 6.28Z" opacity=".6" />
      <path fill="#000" d="M188.44 97.52a200.014 200.014 0 0 1-12.9-21.08 12.484 12.484 0 0 1-.22-10.8c3.89 4.79 11.8 16.29 13.12 31.88Z" opacity=".2" />
      <path fill="#4F46E5" d="M177.61 61.56s-27.51-1.3-48 3.88c0 0 9 45.55 8.7 71.47h43.61s2.84-48.61-4.31-75.35Z" />
      <path fill="#fff" d="M181.92 136.91h-43.6c0-2.82 0-5.86-.2-9.06-.38-7.48-1.23-15.77-2.26-23.79l-.3-2.34c-.7-5.21-1.45-10.25-2.18-14.85-2-12.35-3.77-21.43-3.77-21.43 20.49-5.17 48-3.88 48-3.88 7.14 26.75 4.31 75.35 4.31 75.35Z" opacity=".6" />
      <path fill="#000" d="M164.86 109.27s-7.53 17.95-26.74 18.58c-.38-7.48-1.23-15.77-2.26-23.79l29 5.21Z" opacity=".2" />
      <path fill="#EBB376" d="M145.67 63.37c4 3.59 13.63 2.26 13.63 2.26s6-1.65 4.77-3.54c-3.56-.59-5.28-2.25-6-4.37a10.11 10.11 0 0 1-.36-4.07 19.53 19.53 0 0 1 .3-2.26l-12-8.86c1.61 5.84 3.53 16.6-.34 20.84Z" />
      <path fill="#000" d="M148.82 48.16c.47 7.18 6.37 9.16 9.26 9.56a10.11 10.11 0 0 1-.36-4.07l-8.9-5.49Z" opacity=".2" />
      <path fill="#263238" d="M166.3 23.92s3.34 10.8-1.89 15.93c-5.23 5.13-8.31-15.44-8.31-15.44l10.2-.49Z" />
      <path fill="#EBB376" d="M148.7 51.19a10.148 10.148 0 0 0 12.1 2.16 11.311 11.311 0 0 0 5.6-6.15c.14-.37.26-.75.37-1.14 1.87-7.19 1-19.14-6.79-22.49a11.002 11.002 0 0 0-14.268 5.255 11.009 11.009 0 0 0-1.102 5.425c.31 8.03.11 12.75 4.09 16.94Z" />
      <path fill="#263238" d="M156.75 36.74c-.06.65.32 1.19.75 1.2.43.01.78-.52.8-1.17.02-.65-.33-1.19-.75-1.2-.42-.01-.78.51-.8 1.17ZM164.14 36.89c-.06.65.33 1.19.75 1.2.42.01.78-.52.8-1.17.02-.65-.33-1.19-.75-1.2-.42-.01-.78.55-.8 1.17Z" />
      <path fill="#D58745" d="M161.79 37.16a23.003 23.003 0 0 0 3 5.66 3.807 3.807 0 0 1-3.16.52l.16-6.18Z" />
      <path fill="#263238" d="M154.5 34.3a.409.409 0 0 0 .38-.14 3.116 3.116 0 0 1 2.48-1.24.384.384 0 0 0 .281-.082.38.38 0 0 0 .139-.258.39.39 0 0 0-.35-.42 3.82 3.82 0 0 0-3.15 1.52.388.388 0 0 0 .05.54.484.484 0 0 0 .17.08ZM167.37 34.4a.341.341 0 0 0 .22 0 .392.392 0 0 0 .2-.51 3.832 3.832 0 0 0-2.73-2.21.38.38 0 0 0-.43.32.412.412 0 0 0 .32.44 3.058 3.058 0 0 1 2.13 1.78.35.35 0 0 0 .29.18ZM150.7 24.35l.53 3.53a2.642 2.642 0 0 0-1.23 3.36c1.22 2.94-.34 7.6-2.57 9.51 0 0-.11-1.29-1.19-.95-1.08.34-.59 7 1.62 10.18A23.432 23.432 0 0 1 142 39.54c-1.85-6.47-1.66-11.27-.39-13.83l9.09-1.36Z" />
      <path fill="#EBB376" d="M141 40.76a7.591 7.591 0 0 0 4.3 4c2.52.91 4-1.31 3.44-3.79-.5-2.2-2.39-5.4-5-5.21-2.61.19-3.74 2.74-2.74 5Z" />
      <path fill="#263238" d="M162.24 45.31c-.336.929-.6 1.881-.79 2.85h-.52c-2.36-.11-3.42-.94-3.88-1.83a2.995 2.995 0 0 1-.31-1.41 2.88 2.88 0 0 1 .11-.81 11.3 11.3 0 0 0 4.58 1.17l.81.03Z" />
      <path fill="#fff" d="m161.43 45.26-.25.83c-2.22-.11-3.77-.48-4.44-1.19a2.882 2.882 0 0 1 .11-.81 11.298 11.298 0 0 0 4.58 1.17Z" />
      <path fill="#DE5753" d="M160.93 48.14c-2.36-.11-3.42-.94-3.88-1.83a7.616 7.616 0 0 1 2.6.64c.54.254.987.67 1.28 1.19Z" />
      <path fill="#263238" d="M153.15 25.56s.53 4.22-4.74 6.4c-5.27 2.18-7.19 4-7.19 4s-3.56-10.35 2.9-14.17c0 0 .13-2 5.67-3.89 5.54-1.89 13.48-1 17.08 5.67 2.7 5 .2 8.57.2 8.57s-.53-2.9-5.67-3.56a20.312 20.312 0 0 1-8.25-3.02ZM163.24 65.05l-1.16 5.69s6.63 27.64 8 42l-2.41 2.42-3.8-2.42s-.34-29.2-3.69-41.46l-6-4.92 4.73-1.53 4.33.22Z" />
      <path fill="#4F46E5" d="m147 58 11.5 5.18.67-4.16 4.22 1.49a3.48 3.48 0 0 1 2.31 3.64l-.48 4.56-5.83-3.19-2.91 4.11-13.8-6.65L147 58Z" />
      <path fill="#fff" d="m147 58 11.5 5.18.67-4.16 4.22 1.49a3.48 3.48 0 0 1 2.31 3.64l-.48 4.56-5.83-3.19-2.91 4.11-13.8-6.65L147 58Z" opacity=".7" />
      <path fill="#EBB376" d="m177.52 102 13.84-2.57s2.57-2.57 3.76-2.57 16.62 4.74 16.62 4.74-4.16 4.16-6.14 4.95c-1.98.79-11.07-1.19-11.07-1.19l-13.45 3.56-3.56-6.92Z" />
      <path fill="#4F46E5" d="M129.61 65.44c6.32-2.3 15.66 35.12 17.64 38.09 1.98 2.97 39.17-4.36 39.17-4.36l3 8.71s-31.45 10.88-44.5 8.71-16-21.17-19.19-32.44c-3.19-11.27-.73-17.05 3.88-18.71Z" />
      <path fill="#fff" d="M129.61 65.44c6.32-2.3 15.66 35.12 17.64 38.09 1.98 2.97 39.17-4.36 39.17-4.36l3 8.71s-31.45 10.88-44.5 8.71-16-21.17-19.19-32.44c-3.19-11.27-.73-17.05 3.88-18.71Z" opacity=".7" />
      <path fill="#4F46E5" d="M229.52 65.41a4.833 4.833 0 0 1 3-2.62 6.14 6.14 0 0 1 3.7.07 6.001 6.001 0 0 1 3 2.18c.191.252.356.523.49.81.142.281.256.576.34.88l.13.44.06.42.11.84a8.698 8.698 0 0 1-2 6.3 12.065 12.065 0 0 1-5.24 3.62 17.164 17.164 0 0 1-6.07 1 20.53 20.53 0 0 1-3-.22 14.743 14.743 0 0 0-2.75-.28 3.71 3.71 0 0 0-2.28.75 1.67 1.67 0 0 0-.67 1.84 1.352 1.352 0 0 0 1.6.8 1.104 1.104 0 0 0 .617-1.464 1.103 1.103 0 0 0-.367-.456 1.287 1.287 0 0 1 1 1.18 1.761 1.761 0 0 1-.82 1.59 1.998 1.998 0 0 1-1.87.12 2.472 2.472 0 0 1-1.35-1.29 3.002 3.002 0 0 1 .9-3.38 5.28 5.28 0 0 1 3.09-1.25 16.63 16.63 0 0 1 3.06.14c.927.092 1.86.108 2.79.05a15.495 15.495 0 0 0 5.33-1.18 9.998 9.998 0 0 0 4.16-3.08 6.662 6.662 0 0 0 1.28-4.86 3.402 3.402 0 0 0-1.293-2.311 3.414 3.414 0 0 0-2.557-.689c-1.88.33-3.25 2-4.08 3.6l-.31-3.55ZM203.54 56.56a4.805 4.805 0 0 0-.81-3.93 6.084 6.084 0 0 0-3-2.2 6.001 6.001 0 0 0-3.71-.11c-.306.081-.602.199-.88.35-.284.129-.553.29-.8.48l-.38.27-.31.3-.6.59a8.69 8.69 0 0 0-2.24 6.22c.092 2.16.758 4.255 1.93 6.07a17.238 17.238 0 0 0 4.18 4.53c.801.623 1.65 1.182 2.54 1.67.822.421 1.608.91 2.35 1.46a3.924 3.924 0 0 1 1.35 2 1.697 1.697 0 0 1-.6 1.87 1.35 1.35 0 0 1-1.75-.34 1.108 1.108 0 0 1 .424-1.547c.177-.096.376-.141.576-.133a1.29 1.29 0 0 0-1.54.3 1.742 1.742 0 0 0-.33 1.76 2 2 0 0 0 1.41 1.24 2.52 2.52 0 0 0 1.86-.19 2.998 2.998 0 0 0 1.35-3.23 5.233 5.233 0 0 0-1.68-2.88 17.274 17.274 0 0 0-2.51-1.76 18.238 18.238 0 0 1-2.24-1.66 15.534 15.534 0 0 1-3.5-4.19 9.902 9.902 0 0 1-1.41-5 6.67 6.67 0 0 1 1.94-4.63 3.43 3.43 0 0 1 2.45-1.033 3.421 3.421 0 0 1 2.45 1.033c1.28 1.41 1.35 3.57 1 5.34l2.48-2.65Z" />
      <g opacity=".2">
            <path fill="#000" d="M229.52 65.41a4.833 4.833 0 0 1 3-2.62 6.14 6.14 0 0 1 3.7.07 6.001 6.001 0 0 1 3 2.18c.191.252.356.524.49.81.142.282.256.577.34.88l.13.44.06.42.11.84a8.698 8.698 0 0 1-2 6.3 12.064 12.064 0 0 1-5.24 3.62 17.164 17.164 0 0 1-6.07 1 20.53 20.53 0 0 1-3-.22 14.735 14.735 0 0 0-2.75-.28 3.71 3.71 0 0 0-2.28.75 1.67 1.67 0 0 0-.67 1.84 1.352 1.352 0 0 0 1.6.8 1.103 1.103 0 0 0 .617-1.464 1.103 1.103 0 0 0-.367-.455 1.286 1.286 0 0 1 1 1.18 1.761 1.761 0 0 1-.82 1.59 1.999 1.999 0 0 1-1.87.12 2.472 2.472 0 0 1-1.35-1.29 3.002 3.002 0 0 1 .9-3.38 5.28 5.28 0 0 1 3.09-1.25c1.022-.048 2.046-.001 3.06.14.927.091 1.86.108 2.79.05a15.493 15.493 0 0 0 5.33-1.18 9.998 9.998 0 0 0 4.16-3.08 6.662 6.662 0 0 0 1.28-4.86 3.403 3.403 0 0 0-1.293-2.312 3.414 3.414 0 0 0-2.557-.688c-1.88.33-3.25 2-4.08 3.6l-.31-3.55ZM203.54 56.56a4.805 4.805 0 0 0-.81-3.93 6.084 6.084 0 0 0-3-2.2 6.001 6.001 0 0 0-3.71-.11c-.306.081-.602.199-.88.35-.284.129-.553.29-.8.48l-.38.27-.31.3-.6.59a8.69 8.69 0 0 0-2.24 6.22c.092 2.16.758 4.255 1.93 6.07a17.238 17.238 0 0 0 4.18 4.53c.801.623 1.65 1.182 2.54 1.67.822.421 1.608.91 2.35 1.46a3.924 3.924 0 0 1 1.35 2 1.697 1.697 0 0 1-.6 1.87 1.35 1.35 0 0 1-1.75-.34 1.108 1.108 0 0 1 .424-1.547c.177-.096.376-.141.576-.133a1.29 1.29 0 0 0-1.54.3 1.742 1.742 0 0 0-.33 1.76 2 2 0 0 0 1.41 1.24 2.52 2.52 0 0 0 1.86-.19 2.998 2.998 0 0 0 1.35-3.23 5.233 5.233 0 0 0-1.68-2.88 17.274 17.274 0 0 0-2.51-1.76 18.238 18.238 0 0 1-2.24-1.66 15.534 15.534 0 0 1-3.5-4.19 9.902 9.902 0 0 1-1.41-5 6.67 6.67 0 0 1 1.94-4.63 3.43 3.43 0 0 1 2.45-1.033 3.421 3.421 0 0 1 2.45 1.033c1.28 1.41 1.35 3.57 1 5.34l2.48-2.65Z" opacity=".2" />
      </g>
      <path fill="#4F46E5" d="M215 79.9c6.21-.69 12.39-5.4 15.83-12.64l1.58-3.33-30.29-10.33-.78 3.6c-1.69 7.84.33 15.33 4.82 19.67a4.468 4.468 0 0 1 1.11 4.55l-2.14 6.7a3.46 3.46 0 0 1-3.85 2.38 6.24 6.24 0 0 0-4.33.84l-1.58 1 18.77 6.4-.63-1.76a6.259 6.259 0 0 0-2.92-3.31 3.452 3.452 0 0 1-1.6-4.23l2.4-6.62A4.453 4.453 0 0 1 215 79.9Z" />
      <path fill="#263238" d="m194.92 90.44 20.74 7.06-1.51 7.01-22.31-7.6 3.08-6.47Z" />
      <path fill="#fff" d="m199.65 92.05 11.28 3.84-1.51 7-12.84-4.37 3.07-6.47Z" opacity=".2" />
      <path fill="#fff" d="m207.997 97.103-6.739-2.296-.894 2.622 6.74 2.296.893-2.622Z" />
      <path fill="#fff" d="M207.25 76.4a5.004 5.004 0 0 1 .86 4.87l-2.57 7.57c-.51 1.48-1.13 1.9-2.91 2a6.119 6.119 0 0 0-3 .72l3.15 1.08a3.879 3.879 0 0 1 1.16-.29h.51a1.727 1.727 0 0 0 1.52-1.17l4.19-12.3a3.004 3.004 0 0 0-.34-2.64l-.53-.81a15.639 15.639 0 0 1-2.29-11.5l1.31-7.3-4.55-1.55-1 8.45c-.58 4.05 1.24 9.4 4.49 12.87Z" opacity=".3" />
      <path fill="#4F46E5" d="m154.56 91.58-3.52-.97-3.4 1.62-.76-8.04 6.93-.65.75 8.04Z" />
      <path fill="#fff" d="m154.56 91.58-3.52-.97-3.4 1.62-.76-8.04 6.93-.65.75 8.04Z" opacity=".2" />
      <path fill="#4F46E5" d="m149.74 77.2.73.39.76-.34.61.56.83-.14.45.69.83.07.27.79.79.27.06.83.7.45-.15.82.56.62-.34.76.39.73-.52.65.19.81-.67.5-.01.83-.77.32-.22.8-.82.11-.41.73-.83-.1-.58.6-.78-.29-.71.43-.68-.48-.79.25-.54-.64-.83.04-.37-.75-.81-.16-.17-.82-.75-.36.04-.84-.63-.54.25-.79-.48-.68.43-.71-.29-.78.6-.58-.09-.82.72-.42.12-.82.8-.22.32-.77.83-.01.5-.66.81.19.65-.52Z" />
      <path fill="#fff" d="M151.562 87.985a5.03 5.03 0 1 0-2.568-9.727 5.03 5.03 0 0 0 2.568 9.727Z" opacity=".4" />
      <path fill="#4F46E5" d="m150.43 82.73-.06.9.72-.06v.72l-.74.06-.07 1.13-.71.07.08-1.13-.61.06-.08 1.12-.7.07.07-1.13-.69.07v-.72l.7-.07.07-.9-.7.07v-.72l.7-.07.09-1.29.7-.06-.09 1.28h.61l.09-1.29.71-.07-.09 1.29.73-.07v.72l-.73.02Zm-.71.07h-.61l-.06.91.61-.06.06-.85ZM152.61 85.26l-.33-3.61-.6.06-.05-.49c.171-.04.329-.123.46-.24a.848.848 0 0 0 .3-.43h.49l.44 4.68-.71.03Z" />
</svg>
    