<svg xmlns="http://www.w3.org/2000/svg" width="409" height="414" fill="none" viewBox="0 0 409 414">
    <path fill="#FF9800" d="M39.07 291.789s-15.91-3.61-24.63-11.65c-8.72-8.04-13.59-22.42-13.59-22.42a136.571 136.571 0 0 1 17.84 4.68 30.342 30.342 0 0 1 5.4 7.64 36.213 36.213 0 0 0 0-5.46 24.483 24.483 0 0 1 5.71 3.42c7.2 6.35 9.27 23.79 9.27 23.79Z"/>
    <path fill="#263238" d="M10.78 264.71c-2.17-1.5-4.37-2.95-6.53-4.46a.123.123 0 0 1 .037-.225.122.122 0 0 1 .093.015c4.1 2.45 8.14 5.06 12 7.8 1.333.96 2.667 1.96 4 3l-.27-.47c-.48-.8-1-1.59-1.49-2.37a33.604 33.604 0 0 0-3.38-4.51s0-.12.08-.07c1.24 1.43 2.48 2.84 3.61 4.36.54.72 1 1.46 1.51 2.23.253.387.493.787.72 1.2.07.13.16.27.23.41a99.43 99.43 0 0 1 6 5.08c1.18 1.1 2.31 2.24 3.41 3.41-.61-1.92-1.15-3.87-1.86-5.77 0-.06.08-.09.1 0 .7 2 1.45 4 2 6 1.22 1.333 2.38 2.7 3.48 4.1l-.06-.26c-.18-.75-.36-1.5-.57-2.24-.38-1.44-.81-2.87-1.29-4.28a25.003 25.003 0 0 0-4.27-8.07c-.05-.06 0-.13.07-.08a31.119 31.119 0 0 1 6.1 12.72c.167.667.327 1.333.48 2 .08.36.18.73.24 1.1.48.65.95 1.31 1.4 2a68.705 68.705 0 0 1 6.74 13.2 154.765 154.765 0 0 1 5.1 15.9.09.09 0 0 1-.085.06.088.088 0 0 1-.085-.06c-3.11-9.31-6.29-18.75-11.61-27.08a64.109 64.109 0 0 0-3.64-5.08 29.65 29.65 0 0 1-7.73-1.54 34.453 34.453 0 0 1-7.72-3.73 48.052 48.052 0 0 1-4-3c-.06 0 0-.13.07-.08a31.5 31.5 0 0 0 7.34 4.43 39.96 39.96 0 0 0 8 2.7c1.17.25 2.36.44 3.55.6a69.81 69.81 0 0 0-4.69-5.2c-.53-.53-1.09-1-1.64-1.56a37.203 37.203 0 0 0-5.88-3.37c-2.61-1.26-5.18-2.6-7.76-3.91-1.45-.74-2.9-1.5-4.37-2.21-.06 0 0-.12.06-.09 2.62 1.26 5.27 2.44 7.91 3.65 2.64 1.21 5 2.28 7.38 3.62l.3.18a112.549 112.549 0 0 0-6.67-5.39c-2.09-1.59-4.19-3.15-6.41-4.66Z"/>
    <path fill="#263238" d="M11.69 272.91c1.29.57 2.61 1.07 3.89 1.67 1.28.6 2.56 1.34 3.81 2.08.06 0 0 .11 0 .08-1.27-.6-2.55-1.17-3.81-1.8-1.26-.63-2.58-1.34-3.93-1.94a.058.058 0 0 1-.004-.055.06.06 0 0 1 .044-.035Z"/>
    <path fill="#FF9800" d="M90.75 211.609a22.762 22.762 0 0 0-4.75 13.22c-.05 1.42.18 3.41.34 5.75a37.835 37.835 0 0 0-10.34 8.87 18.846 18.846 0 0 1 10.49-2.51 30.741 30.741 0 0 1-.61 4.75c-2.312.008-4.6.463-6.74 1.34 2.089-.024 4.16.388 6.08 1.21-2.84 9-11.27 18.29-34.54 22.22a48.84 48.84 0 0 1 4.12-32.75c6.92-13.71 35.95-22.1 35.95-22.1Z"/>
    <path fill="#263238" d="M42.57 305.07c.413-3.86.917-7.704 1.51-11.53a229.39 229.39 0 0 1 4.69-22.78 92.499 92.499 0 0 1 3.36-10.39 16.526 16.526 0 0 1-.08-1.86v-2.24c0-1.49.08-3 .21-4.46a53.676 53.676 0 0 1 1.43-8.73c.42-1.66.92-3.29 1.41-4.93 0-.007.001-.013.004-.019a.059.059 0 0 1 .01-.017.05.05 0 0 1 .017-.01.042.042 0 0 1 .019-.004c.007 0 .013.001.02.004a.05.05 0 0 1 .015.01.059.059 0 0 1 .011.017.048.048 0 0 1 .004.019 64.471 64.471 0 0 0-1.72 8.71 82.461 82.461 0 0 0-.78 8.74v3.4a75.733 75.733 0 0 1 3.92-8.12 99.346 99.346 0 0 1 8-11.92 4.75 4.75 0 0 1 .19-1.3c.11-.52.22-1 .34-1.56.24-1.06.51-2.12.79-3.17.58-2.11 1.35-4.15 2-6.23 0-.007.001-.013.004-.019a.059.059 0 0 1 .01-.017.05.05 0 0 1 .017-.01.042.042 0 0 1 .019-.004c.007 0 .013.001.02.004a.05.05 0 0 1 .015.01.059.059 0 0 1 .011.017.048.048 0 0 1 .004.019c-.62 2.06-1 4.2-1.5 6.29-.23 1-.46 2.08-.68 3.12-.12.52-.23 1-.34 1.56.005.04.005.08 0 .12.94-1.187 1.9-2.357 2.88-3.51 4.45-5.22 9.32-10 14.23-14.8l1.83-1.74a.05.05 0 0 1 .039-.013.052.052 0 0 1 .036.018.05.05 0 0 1 .013.038.056.056 0 0 1-.018.037c-4.68 4.89-9.3 9.84-13.67 15a199.187 199.187 0 0 0-3.07 3.73l1.59-1.05c1.36-.88 2.73-1.75 4.14-2.54 1.41-.79 2.84-1.56 4.29-2.28 1.45-.72 3.09-1.34 4.53-2.18.06 0 .11.07 0 .09a33.304 33.304 0 0 0-4.25 2.36c-1.42.84-2.83 1.68-4.22 2.56-1.39.88-2.75 1.73-4.1 2.61-1.14.74-2.25 1.54-3.42 2.22a109.737 109.737 0 0 0-7.46 10.85 80.93 80.93 0 0 0-3.86 7.31l.84-.36 2.13-.94c1.37-.61 2.74-1.21 4.12-1.8 2.61-1.14 5.26-2.18 7.82-3.43a33.498 33.498 0 0 0 4.18-2.32c.06 0 .11.06.05.1-4.77 3.29-10.12 5.61-15.4 7.94l-2.3 1c-.62.27-1.25.59-1.9.83a80.728 80.728 0 0 0-3.94 10.79A219.12 219.12 0 0 0 45.55 291c-1.34 7.61-2.24 15.26-2.94 22.95-.09 1-.17 1.91-.28 2.87a.308.308 0 0 1-.305.254.307.307 0 0 1-.305-.254c.04-3.96.44-7.82.85-11.75Z"/>
    <path fill="#263238" d="M56.73 240.79c.43-2.37 1.06-4.68 1.7-7 0-.006.001-.013.004-.019a.054.054 0 0 1 .01-.016.053.053 0 0 1 .017-.011.061.061 0 0 1 .019-.004c.007 0 .013.002.02.004a.053.053 0 0 1 .015.011c.005.005.009.01.011.016a.051.051 0 0 1 .004.019c-.59 2.28-1 4.59-1.44 6.9-.44 2.31-.82 4.72-1.15 7.09h-.06c.149-2.344.433-4.678.85-6.99ZM66.76 247.199a41.988 41.988 0 0 1 5.07-2.84c.84-.44 1.7-.86 2.56-1.28.86-.42 1.81-.78 2.69-1.22.06 0 .11.06 0 .09-.85.43-1.66.94-2.49 1.4-.83.46-1.72.95-2.59 1.41a55.893 55.893 0 0 1-5.16 2.67.123.123 0 0 1-.074-.025.128.128 0 0 1-.049-.139.13.13 0 0 1 .043-.066Z"/>
    <path fill="#263238" d="M38.78 264.23s-14.72-3.52-21.48-13.39c-6.46-9.44-8.54-25.51-8.71-26.93.27 1.3 3.3 15.35 13.33 21.9 7.67 5.01 15.08 9.13 16.86 18.42Z" opacity=".1"/>
    <path fill="#263238" d="M25.19 238.79a18.896 18.896 0 0 1 5.43 8.94h-.05a22.005 22.005 0 0 0-5.45-8.88c-.05-.02.02-.11.07-.06Z"/>
    <path fill="#FF9800" d="M38.78 264.23s-14.72-3.52-21.48-13.39c-6.46-9.44-8.54-25.51-8.71-26.93a.66.66 0 0 0 0-.09s7.06 10 14.48 12.59c7.42 2.59 17.84 11.41 15.71 27.82Z"/>
    <path fill="#263238" d="M11.18 229.349a60.354 60.354 0 0 0 4.55 7.78 31.116 31.116 0 0 0 6.06 6.23c2 1.59 4.11 3 6.14 4.59l-.05-.08c-.38-.56-.78-1.11-1.2-1.64-.85-1.08-1.77-2.1-2.69-3.1-1.83-2-3.7-3.93-5.34-6.08a22.342 22.342 0 0 1-2.36-3.8c0-.07.07-.1.1 0 2.39 5 7.16 8.16 10.56 12.36.48.6.94 1.22 1.36 1.86.341.465.626.968.85 1.5a30.903 30.903 0 0 1 5 5.08 19.587 19.587 0 0 0-.59-2.86 14.727 14.727 0 0 0-1.57-3.77.055.055 0 0 1-.008-.041.052.052 0 0 1 .008-.019.053.053 0 0 1 .035-.023.038.038 0 0 1 .02 0 .053.053 0 0 1 .034.023 17.52 17.52 0 0 1 1.721 3.7c.305 1.034.483 2.102.53 3.18a30.648 30.648 0 0 1 2 3.09l-.18-.94c-.3-1.46-.62-2.93-1-4.37a26.324 26.324 0 0 0-3.54-8.3.054.054 0 0 1 .015-.075.055.055 0 0 1 .075.015 31.707 31.707 0 0 1 3.92 8.12c.47 1.44.85 2.91 1.18 4.39.16.73.3 1.45.44 2.18.08.38.16.76.22 1.15a52.896 52.896 0 0 1 3.39 10 146.646 146.646 0 0 1 3.14 18.6 155.488 155.488 0 0 1 1 19.77c0 .83-.06 1.65-.11 2.48 0 .21-.33.24-.34 0-.15-3.27-.23-6.54-.42-9.8-.19-3.26-.48-6.53-.83-9.78a174.538 174.538 0 0 0-3.07-19c-1.19-5.38-2.74-10.8-5.68-15.52a29.459 29.459 0 0 0-5.31-6.31c-2.07-1.86-4.32-3.48-6.5-5.2a35.505 35.505 0 0 1-6-5.73 46.933 46.933 0 0 1-4.68-7.59l-1.06-2c.06-.07.15-.13.18-.07Z"/>
    <path fill="#263238" d="M13.72 231.509a49.799 49.799 0 0 0 3.28 5.73c0 .05 0 .09-.06.05a39.516 39.516 0 0 1-3.32-5.75c-.03-.06.07-.09.1-.03Z"/>
    <path fill="#FF9800" d="M92.8 257.719s.23 20.92-12.28 27c-12.51 6.08-19.21 1-27.71 3 .33-.5 6.4-9.22 16.05-11.62 9.93-2.5 20.93-9.67 23.94-18.38Z"/>
    <path fill="#000" d="M92.8 257.719s.23 20.92-12.28 27c-12.51 6.08-19.21 1-27.71 3a47.43 47.43 0 0 1 14.23-4.2c7.89-.97 22.96-6.11 25.76-25.8Z" opacity=".1"/>
    <path fill="#263238" d="M52 288.079a21.259 21.259 0 0 1 5-3.37c.27-.13.55-.23.82-.35.27-.12.27-.32.42-.48.374-.393.768-.767 1.18-1.12.78-.677 1.62-1.283 2.51-1.81 2.07-1.22 4.34-2.07 6.46-3.2.07 0 .12.06.06.09-1 .55-2.06 1.15-3.08 1.74-1.02.59-2 1.13-3 1.75-.87.559-1.7 1.181-2.48 1.86-.22.19-.43.4-.64.61a34.305 34.305 0 0 1 4.23-1.12c2.29-.46 4.6-.79 6.89-1.28 1.12-.24 2.23-.54 3.32-.89 1-.84 2.07-1.67 3-2.58a25.005 25.005 0 0 0 3.24-3.58.055.055 0 0 1 .075-.015c.012.008.02.021.023.035a.052.052 0 0 1-.008.04 38.157 38.157 0 0 1-5.13 5.65c.54-.2 1.07-.42 1.6-.66a25.837 25.837 0 0 0 10.66-8.87s.13 0 .09.06a29.2 29.2 0 0 1-8.62 8.28 26.114 26.114 0 0 1-5.45 2.58 52.386 52.386 0 0 1-6.77 1.6c-2.244.367-4.46.892-6.63 1.57a20.165 20.165 0 0 0-5.56 2.93 26.073 26.073 0 0 0-7.5 9.29 46.885 46.885 0 0 0-4.12 15.3c0 .22-.38.22-.36 0 .63-8.8 2.98-17.95 9.77-24.06Z"/>
    <path fill="#263238" d="M66.5 281.26a7.186 7.186 0 0 1 2.57-2.33 9.257 9.257 0 0 0 3.06-2.53c0-.06.14 0 .09.05a10.222 10.222 0 0 1-2.7 2.42 9.504 9.504 0 0 0-2.94 2.44c-.03.05-.11 0-.08-.05Z"/>
    <path fill="#37474F" d="m59.87 303.52-.57 11.5-1.75 35.15H31.31l-1.74-35.15-.57-11.5h30.87Z"/>
    <path fill="#263238" d="m59.87 303.52-.57 11.5H29.57l-.57-11.5h30.87Z"/>
    <path fill="#37474F" d="M61.71 298.719H27.16v10.97h34.55v-10.97Z"/>
    <path fill="#263238" d="m1.66 350.18 50.84-.24 50.83-.09 101.67-.17 101.67.17 50.83.08 50.84.25-50.84.24-50.83.09-101.67.17-101.67-.17-50.83-.09-50.84-.24Z"/>
    <path fill="#263238" d="M320.48.06H89.7c-5.639 0-10.21 4.572-10.21 10.21v355.241c0 5.638 4.571 10.21 10.21 10.21h230.78c5.639 0 10.21-4.572 10.21-10.21V10.271c0-5.64-4.571-10.21-10.21-10.21Z"/>
    <path fill="#fff" d="M320.08 26.59H90.22v323.34h229.86V26.59Z"/>
    <path fill="#FF9800" d="M320.08 26.59H90.22v60.83h229.86V26.59Z"/>
    <path fill="#fff" d="m107.56 56.09-5.36-5.02 5.36-5.02.83.88-4.41 4.14 4.41 4.13-.83.89ZM307.8 47.94a1.057 1.057 0 0 1-.626 1.072 1.057 1.057 0 0 1-1.435-.636 1.057 1.057 0 0 1 1.006-1.394 1.06 1.06 0 0 1 1.055.958ZM307.8 51.69a1.057 1.057 0 0 1-.626 1.072 1.057 1.057 0 0 1-1.435-.636 1.057 1.057 0 0 1 1.006-1.394 1.06 1.06 0 0 1 1.055.958ZM307.8 55.44a1.057 1.057 0 0 1-.626 1.072 1.057 1.057 0 0 1-1.435-.636 1.057 1.057 0 0 1 1.006-1.394 1.06 1.06 0 0 1 1.055.958ZM130.44 33.46c-.09.1-.19.19-.29.29l-.16.17a4 4 0 0 0-5.63 0l-.16-.17-.29-.29.36-.32c.264-.216.553-.4.86-.55.36-.172.739-.3 1.13-.38l.56-.07h.89c.343.041.679.125 1 .25a4.585 4.585 0 0 1 1.38.8c.1.08.2.18.3.27h.05Z"/>
    <path fill="#fff" d="m125.28 34.83-.46-.45a3.308 3.308 0 0 1 4.7-.01l-.46.46a2.614 2.614 0 0 0-1.89-.78 2.648 2.648 0 0 0-1.89.78Z"/>
    <path fill="#fff" d="m128.6 35.29-.46.46a1.346 1.346 0 0 0-1-.4 1.33 1.33 0 0 0-1 .4l-.46-.45a1.996 1.996 0 0 1 2.254-.475c.252.107.478.266.666.465Z"/>
    <path fill="#fff" d="M127.59 36.17a.414.414 0 0 1-.26.382.41.41 0 0 1-.16.028.41.41 0 0 1-.41-.41.416.416 0 0 1 .116-.296.417.417 0 0 1 .714.296ZM102 34.34a1.2 1.2 0 1 1 2.4 0 1.2 1.2 0 0 1-2.4 0ZM105.77 34.34a1.199 1.199 0 0 1 2.377-.234 1.204 1.204 0 0 1-1.177 1.434 1.203 1.203 0 0 1-1.2-1.2ZM109.55 34.341a1.211 1.211 0 0 1 2.066-.866 1.212 1.212 0 0 1-1.715 1.715 1.2 1.2 0 0 1-.351-.849ZM113.34 34.34a1.199 1.199 0 0 1 2.377-.234 1.204 1.204 0 0 1-1.177 1.434 1.203 1.203 0 0 1-1.2-1.2ZM117.13 34.34a1.199 1.199 0 0 1 2.377-.234 1.204 1.204 0 0 1-1.177 1.434 1.203 1.203 0 0 1-1.2-1.2ZM307.15 37h-9.8v-4.57h9.8V37Zm-9.29-.51h8.77v-3.55h-8.77v3.55Z"/>
    <path fill="#fff" d="M304.48 33.201h-6.31v2.99h6.31v-2.99ZM308.02 33.49h-.87v2.42h.87v-2.42Z"/>
    <path fill="#EBEBEB" d="M111.29 338.631h-.8v3.67h-1.5v-1.87h-2.65v1.87h-1.49v-3.67h-.8l3.62-3.74 3.62 3.74ZM305.95 334.891h-8.73v1.25h8.73v-1.25ZM305.95 337.971h-8.73v1.25h8.73v-1.25ZM305.95 341.061h-8.73v1.25h8.73v-1.25ZM207.48 338.101l-2.48 2.65-2.48-2.65.43-.41 2.05 2.18 2.04-2.18.44.41Z"/>
    <path fill="#EBEBEB" d="M205 343.481a4.506 4.506 0 0 1-4.175-2.78 4.51 4.51 0 1 1 4.175 2.78Zm0-8.42a3.917 3.917 0 0 0-3.629 2.413 3.923 3.923 0 0 0 .844 4.275 3.917 3.917 0 0 0 6.034-.589 3.921 3.921 0 0 0 .661-2.179 3.928 3.928 0 0 0-3.91-3.92Z"/>
    <path fill="#000" d="M268.53 45.08H141.47v12.39h127.06V45.08Z" opacity=".1"/>
    <path fill="#fff" d="m190.22 54.001-1 .76-1.86-2.45-.68-.89c.14-.053.272-.127.39-.22.23-.173.41-.404.52-.67l.72 1 1.91 2.47Z"/>
    <path fill="#fff" d="M188.25 48.261a2.726 2.726 0 0 0-2.761-1.007 2.73 2.73 0 1 0 2.821 4.247 2.751 2.751 0 0 0-.06-3.24Zm-1.18 3c-.118.093-.25.167-.39.22a1.639 1.639 0 1 1 1.017-1.727c.036.284 0 .572-.107.837a1.604 1.604 0 0 1-.52.63v.04ZM195.37 52.581a.5.5 0 0 1 .69-.06 3 3 0 0 0 1.79.72c.42.01.833-.112 1.18-.35a.837.837 0 0 0 .4-.67.53.53 0 0 0-.08-.31 1.058 1.058 0 0 0-.28-.28 3.774 3.774 0 0 0-1.29-.44 4.759 4.759 0 0 1-1.21-.37 2 2 0 0 1-.88-.73 1.46 1.46 0 0 1-.21-.77 1.736 1.736 0 0 1 .75-1.37 2.77 2.77 0 0 1 1.63-.5 3.698 3.698 0 0 1 2 .75.488.488 0 0 1 .13.67.468.468 0 0 1-.306.21.479.479 0 0 1-.364-.07 2.718 2.718 0 0 0-1.51-.6 1.8 1.8 0 0 0-1.06.32.746.746 0 0 0-.36.59.42.42 0 0 0 .07.26.995.995 0 0 0 .25.25c.363.213.764.352 1.18.41a5.36 5.36 0 0 1 1.3.4c.381.166.707.436.94.78.147.241.223.518.22.8a1.803 1.803 0 0 1-.81 1.45 2.93 2.93 0 0 1-1.74.54 4.05 4.05 0 0 1-2.4-.94.496.496 0 0 1-.03-.69ZM201.42 51.87a2.318 2.318 0 0 1 2.29-2.35 2.26 2.26 0 0 1 2.29 2.26.462.462 0 0 1-.49.38h-3c.047.232.158.447.32.62.243.239.561.387.9.42a1.59 1.59 0 0 0 1-.23.521.521 0 0 1 .7 0 .413.413 0 0 1 .097.471.434.434 0 0 1-.097.139 2.38 2.38 0 0 1-1.68.62 2.33 2.33 0 0 1-2.33-2.33Zm1-.46h2.66a1.53 1.53 0 0 0-1.39-1 1.32 1.32 0 0 0-1.25 1h-.02ZM211.45 51.882v1.84a.499.499 0 0 1-.455.544.502.502 0 0 1-.545-.454 2.1 2.1 0 0 1-1.25.41 2.166 2.166 0 0 1-1.6-.69 2.459 2.459 0 0 1 0-3.31 2.15 2.15 0 0 1 2.85-.29.512.512 0 0 1 .49-.41.501.501 0 0 1 .5.5l.01 1.86Zm-1 0a1.351 1.351 0 0 0-.37-1 1.135 1.135 0 0 0-.87-.39 1.097 1.097 0 0 0-.87.39 1.346 1.346 0 0 0-.36 1 1.42 1.42 0 0 0 .36 1 1.183 1.183 0 0 0 .87.36 1.205 1.205 0 0 0 .87-.36 1.42 1.42 0 0 0 .37-1ZM216.19 50a.5.5 0 0 1-.5.49.92.92 0 0 0-.57.18 1.525 1.525 0 0 0-.43.45 2.798 2.798 0 0 0-.38.79v1.79a.519.519 0 0 1-.52.5.51.51 0 0 1-.5-.5V50a.495.495 0 0 1 .147-.35.5.5 0 0 1 .353-.14.5.5 0 0 1 .52.49v.06c.058-.068.122-.132.19-.19a2.119 2.119 0 0 1 1.19-.36.491.491 0 0 1 .5.49ZM216.85 51.882a2.388 2.388 0 0 1 2.39-2.36 2.49 2.49 0 0 1 1.5.51.532.532 0 0 1 .1.7.505.505 0 0 1-.534.18.499.499 0 0 1-.176-.09 1.53 1.53 0 0 0-.89-.3 1.352 1.352 0 0 0-1.35 1.35 1.35 1.35 0 0 0 1.35 1.35c.321-.002.633-.107.89-.3a.52.52 0 0 1 .71.1.532.532 0 0 1-.1.7 2.62 2.62 0 0 1-1.5.5 2.379 2.379 0 0 1-2.39-2.34ZM223.59 53.7a.522.522 0 0 1-.52.52.517.517 0 0 1-.5-.39.472.472 0 0 1 0-.13v-5.55a.522.522 0 0 1 .813-.272c.09.068.156.164.187.273v1.64c.306-.17.65-.264 1-.27a2.05 2.05 0 0 1 2 2.06v2.12a.522.522 0 0 1-.52.52.506.506 0 0 1-.474-.322.517.517 0 0 1-.036-.198v-2.12a.998.998 0 0 0-1-1 1 1 0 0 0-1 1l.05 2.12Z"/>
    <path fill="#000" d="M320.08 70.621H90.22v16.8h229.86v-16.8Z" opacity=".1"/>
    <path fill="#fff" d="M127.44 80.49h-1.87l-.37 1a.443.443 0 0 1-.4.26.39.39 0 0 1-.15 0 .438.438 0 0 1-.25-.55l1.69-4.51a.429.429 0 0 1 .41-.27.422.422 0 0 1 .41.27l1.69 4.51a.43.43 0 0 1-.25.55.361.361 0 0 1-.15 0 .41.41 0 0 1-.39-.26l-.37-1Zm-.32-.84L126.5 78l-.62 1.65h1.24ZM129.35 80.42a.4.4 0 0 1 .56 0c.41.35.922.557 1.46.59.356.013.706-.089 1-.29a.665.665 0 0 0 .32-.55.448.448 0 0 0-.06-.24.72.72 0 0 0-.23-.23 3.004 3.004 0 0 0-1.05-.36 4.096 4.096 0 0 1-1-.3 1.662 1.662 0 0 1-.71-.6 1.219 1.219 0 0 1-.18-.63 1.404 1.404 0 0 1 .62-1.11c.384-.277.847-.42 1.32-.41a3 3 0 0 1 1.67.61.401.401 0 0 1 .11.55.39.39 0 0 1-.54.11 2.242 2.242 0 0 0-1.24-.49 1.46 1.46 0 0 0-.85.26.608.608 0 0 0-.3.48.365.365 0 0 0 .06.22.742.742 0 0 0 .2.2 2.72 2.72 0 0 0 1 .33 4.32 4.32 0 0 1 1.05.33c.311.132.578.35.77.63.12.195.182.42.18.65a1.497 1.497 0 0 1-.65 1.19 2.4 2.4 0 0 1-1.42.44 3.262 3.262 0 0 1-2-.77.404.404 0 0 1-.183-.285.404.404 0 0 1 .093-.325ZM134.62 81.33v-4.48a.42.42 0 1 1 .84 0v2.2l2.48-2.49a.424.424 0 0 1 .463-.094.424.424 0 0 1 .259.394.43.43 0 0 1-.122.3l-1.68 1.68 1.7 2.22a.423.423 0 0 1 .078.145c.015.054.02.11.014.165a.432.432 0 0 1-.052.156.422.422 0 0 1-.11.124.347.347 0 0 1-.26.1.426.426 0 0 1-.32-.15l-1.65-2.17-.8.82v1.08a.42.42 0 1 1-.84 0ZM238.65 70.621h-67.29v16.8h67.29v-16.8Z"/>
    <path fill="#FF9800" d="M191.77 80.49h-1.86l-.37 1a.443.443 0 0 1-.4.26.39.39 0 0 1-.15 0 .43.43 0 0 1-.25-.55l1.69-4.51a.429.429 0 0 1 .41-.27.422.422 0 0 1 .41.27l1.69 4.51a.43.43 0 0 1-.25.55.361.361 0 0 1-.15 0 .41.41 0 0 1-.39-.26l-.38-1Zm-.31-.84-.62-1.65-.62 1.65h1.24ZM194.83 81.332a.433.433 0 0 1-.42.42.421.421 0 0 1-.42-.42v-4.45a.414.414 0 0 1 .17-.36.42.42 0 0 1 .58.09l2.48 3.43v-3.16a.41.41 0 0 1 .41-.41.421.421 0 0 1 .42.41v4.45a.419.419 0 0 1-.592.38.394.394 0 0 1-.138-.11l-2.45-3.41-.04 3.14ZM199.72 80.421a.4.4 0 0 1 .56 0c.41.35.922.558 1.46.59a1.66 1.66 0 0 0 1-.29.664.664 0 0 0 .32-.55.449.449 0 0 0-.06-.24.72.72 0 0 0-.23-.23 2.997 2.997 0 0 0-1-.36 4.096 4.096 0 0 1-1-.3 1.662 1.662 0 0 1-.71-.6 1.214 1.214 0 0 1-.17-.63 1.396 1.396 0 0 1 .61-1.11 2.2 2.2 0 0 1 1.32-.41c.606.03 1.188.243 1.67.61a.401.401 0 0 1 .11.55.39.39 0 0 1-.54.11 2.242 2.242 0 0 0-1.24-.49 1.512 1.512 0 0 0-.86.26.612.612 0 0 0-.29.48.365.365 0 0 0 .06.22.742.742 0 0 0 .2.2 2.72 2.72 0 0 0 1 .33c.363.065.715.176 1.05.33.311.133.578.352.77.63.12.196.182.421.18.65a1.496 1.496 0 0 1-.65 1.19 2.4 2.4 0 0 1-1.42.44 3.261 3.261 0 0 1-2-.77.414.414 0 0 1-.211-.272.405.405 0 0 1 .071-.338ZM211.86 77 210 81.49a.105.105 0 0 1 0 .07v.05h-.5v-.05a.273.273 0 0 1 0-.07l-1-2.37-1 2.37a.105.105 0 0 1 0 .07v.05h-.06a.11.11 0 0 0-.06 0h-.37V81.49L204.55 77a.408.408 0 0 1 .083-.46.414.414 0 0 1 .298-.122.42.42 0 0 1 .389.262l1.5 3.54 1-2.35a.428.428 0 0 1 .79 0l1 2.35 1.5-3.54a.422.422 0 0 1 .566-.275.422.422 0 0 1 .257.427.434.434 0 0 1-.053.168h-.02ZM213.08 81.33v-4.52a.419.419 0 0 1 .42-.42h2.5a.427.427 0 0 1 .456.245.428.428 0 0 1-.111.506.426.426 0 0 1-.345.099h-2.07v1.4h1.78a.432.432 0 0 1 .42.43.42.42 0 0 1-.42.42h-1.78v1.41H216a.44.44 0 0 1 .43.43.433.433 0 0 1-.43.42h-2.5a.421.421 0 0 1-.42-.42ZM221.32 81.121a.416.416 0 0 1-.27.53.521.521 0 0 1-.17 0 .557.557 0 0 1-.3-.09.745.745 0 0 1-.24-.26 2.057 2.057 0 0 1-.16-.92.672.672 0 0 0-.09-.33.84.84 0 0 0-.23-.23 2.007 2.007 0 0 0-.43-.18h-.91v1.66a.432.432 0 0 1-.425.365.43.43 0 0 1-.425-.365v-4.52a.42.42 0 0 1 .42-.42h1.38a1.626 1.626 0 0 1 1.512 1.02c.08.2.121.415.118.63a1.653 1.653 0 0 1-.59 1.26.881.881 0 0 1 .26.28c.173.242.264.533.26.83-.021.15-.021.301 0 .45a.432.432 0 0 1 .29.29Zm-1.08-3.12a.806.806 0 0 0-.056-.303.805.805 0 0 0-.422-.433.794.794 0 0 0-.302-.064h-.95v1.58h.95a.782.782 0 0 0 .78-.78Z"/>
    <path fill="#fff" d="M262.33 81.33v-4.52a.42.42 0 0 1 .42-.42h.91a2.68 2.68 0 0 1 0 5.36h-.91a.422.422 0 0 1-.388-.259.422.422 0 0 1-.032-.16Zm.85-.43h.48a1.83 1.83 0 0 0 0-3.66h-.48v3.66ZM267.51 76.81a.42.42 0 0 1 .42-.42.433.433 0 0 1 .43.42v4.52a.416.416 0 0 1-.127.301.418.418 0 0 1-.303.12.405.405 0 0 1-.3-.12.422.422 0 0 1-.091-.138.428.428 0 0 1-.029-.162v-4.52ZM269.62 80.421a.4.4 0 0 1 .56 0c.41.35.922.556 1.46.59a1.66 1.66 0 0 0 1-.29.685.685 0 0 0 .33-.55.444.444 0 0 0-.07-.24.72.72 0 0 0-.23-.23 2.887 2.887 0 0 0-1.05-.36 4.006 4.006 0 0 1-1-.3 1.627 1.627 0 0 1-.72-.6 1.214 1.214 0 0 1-.17-.63 1.396 1.396 0 0 1 .61-1.11 2.2 2.2 0 0 1 1.32-.41c.606.03 1.188.243 1.67.61a.401.401 0 0 1 .11.55.39.39 0 0 1-.54.11 2.242 2.242 0 0 0-1.24-.49 1.46 1.46 0 0 0-.85.26.597.597 0 0 0-.29.48.36.36 0 0 0 0 .22.81.81 0 0 0 .21.2c.293.17.615.282.95.33.365.067.721.177 1.06.33.309.133.572.352.76.63.123.195.189.42.19.65a1.503 1.503 0 0 1-.66 1.19 2.4 2.4 0 0 1-1.42.44 3.28 3.28 0 0 1-2-.77.404.404 0 0 1-.131-.307.415.415 0 0 1 .141-.303ZM274.65 79a2.838 2.838 0 0 1 3.15-2.739 2.839 2.839 0 0 1 1.43.58.44.44 0 0 1-.53.69 2 2 0 0 0-1.24-.42 2.051 2.051 0 0 0-1.37.55 1.9 1.9 0 0 0-.56 1.34 1.846 1.846 0 0 0 .56 1.33c.37.35.86.548 1.37.55.45.01.889-.14 1.24-.42a.46.46 0 0 1 .61.08.448.448 0 0 1-.08.62 2.88 2.88 0 0 1-1.77.59 2.8 2.8 0 0 1-2.81-2.75ZM284.87 77.06a2.82 2.82 0 0 1 .77 1.94 2.784 2.784 0 0 1-.77 1.93 2.5 2.5 0 0 1-1.83.82 2.579 2.579 0 0 1-1.88-.82 2.733 2.733 0 0 1-.76-1.93 2.77 2.77 0 0 1 .76-1.94 2.536 2.536 0 0 1 2.882-.604c.315.141.597.347.828.604Zm-.1 1.94a2 2 0 0 0-.52-1.34 1.657 1.657 0 0 0-1.21-.55 1.689 1.689 0 0 0-1.25.55 1.94 1.94 0 0 0-.52 1.34c-.004.494.182.97.52 1.33a1.735 1.735 0 0 0 1.25.55 1.692 1.692 0 0 0 1.21-.55c.331-.364.516-.837.52-1.33ZM288.58 81.68a.099.099 0 0 0-.05 0v-.11L286.56 77a.424.424 0 0 1 .23-.55.422.422 0 0 1 .55.23l1.49 3.54 1.49-3.54a.43.43 0 0 1 .56-.23.418.418 0 0 1 .22.55l-1.89 4.47c.004.01.007.02.007.03 0 .01-.003.021-.007.03v.05h-.48l-.15.1ZM292.35 81.33v-4.52a.419.419 0 0 1 .42-.42h2.5a.427.427 0 0 1 .456.245.428.428 0 0 1-.111.506.426.426 0 0 1-.345.099h-2.07v1.4h1.8a.432.432 0 0 1 .42.43.42.42 0 0 1-.42.42h-1.8v1.41h2.07a.44.44 0 0 1 .43.43.433.433 0 0 1-.43.42h-2.5a.421.421 0 0 1-.42-.42ZM300.59 81.121a.416.416 0 0 1-.27.53.521.521 0 0 1-.17 0 .59.59 0 0 1-.3-.09.745.745 0 0 1-.24-.26 2.057 2.057 0 0 1-.16-.92.596.596 0 0 0-.1-.33.674.674 0 0 0-.22-.23 2.23 2.23 0 0 0-.43-.18h-.91v1.66a.432.432 0 0 1-.425.365.43.43 0 0 1-.425-.365v-4.52a.42.42 0 0 1 .42-.42h1.37a1.643 1.643 0 0 1 1.518 1.02 1.642 1.642 0 0 1-.035 1.325c-.101.218-.249.41-.433.565a.881.881 0 0 1 .26.28c.173.242.264.533.26.83-.021.15-.021.301 0 .45a.432.432 0 0 1 .29.29Zm-1.08-3.12a.798.798 0 0 0-.228-.565.788.788 0 0 0-.562-.235h-.94v1.58h.94a.782.782 0 0 0 .73-.479.796.796 0 0 0 .06-.3Z"/>
    <path fill="#263238" d="M135 107.23V111a.346.346 0 0 1-.103.247.346.346 0 0 1-.495 0 .35.35 0 0 1-.102-.247v-2.7l-.91 1.26a.36.36 0 0 1-.123.103.358.358 0 0 1-.319.001.359.359 0 0 1-.128-.104l-.91-1.26v2.7a.35.35 0 1 1-.69 0v-3.72a.348.348 0 0 1 .34-.35.35.35 0 0 1 .28.15l1.25 1.74 1.26-1.74a.326.326 0 0 1 .28-.15.36.36 0 0 1 .37.3ZM139.08 109.732v1.27a.342.342 0 0 1-.33.34.345.345 0 0 1-.33-.28c-.242.182-.537.28-.84.28a1.48 1.48 0 0 1-1.07-.46 1.62 1.62 0 0 1-.43-1.11 1.576 1.576 0 0 1 .43-1.11 1.415 1.415 0 0 1 1.91-.2.33.33 0 0 1 .36-.3.33.33 0 0 1 .3.36v1.21Zm-.67 0a.926.926 0 0 0-.24-.65.802.802 0 0 0-.914-.195.774.774 0 0 0-.266.195.926.926 0 0 0-.24.65c0 .238.085.468.24.65a.845.845 0 0 0 .59.24.875.875 0 0 0 .59-.24c.155-.182.24-.412.24-.65ZM141.73 108.491a.346.346 0 0 1-.103.247.346.346 0 0 1-.247.103h-.16v1.76a.35.35 0 1 1 0 .7.71.71 0 0 1-.7-.7v-1.76h-.18a.346.346 0 0 1-.247-.103.346.346 0 0 1 0-.495.35.35 0 0 1 .247-.102h.18v-.91a.35.35 0 0 1 .7 0v.91h.16a.35.35 0 0 1 .35.35ZM143.41 111a.345.345 0 0 1-.36.35.365.365 0 0 1-.33-.26.272.272 0 0 1 0-.09v-3.72a.348.348 0 0 1 .591-.248.361.361 0 0 1 .109.248v1.1c.204-.119.434-.184.67-.19a1.388 1.388 0 0 1 1.38 1.38V111a.346.346 0 0 1-.103.247.346.346 0 0 1-.247.103.34.34 0 0 1-.35-.35v-1.43a.67.67 0 0 0-.166-.533.69.69 0 0 0-.509-.23.69.69 0 0 0-.509.23.67.67 0 0 0-.166.533l-.01 1.43ZM146.35 109.721a1.554 1.554 0 0 1 .443-1.109 1.56 1.56 0 0 1 1.097-.471 1.508 1.508 0 0 1 1.52 1.47.151.151 0 0 1 0 .06.302.302 0 0 1-.33.25h-2a.815.815 0 0 0 .21.41 1.003 1.003 0 0 0 1.26.13.37.37 0 0 1 .48 0 .29.29 0 0 1 0 .41 1.634 1.634 0 0 1-1.13.42 1.565 1.565 0 0 1-1.435-.973 1.562 1.562 0 0 1-.115-.597Zm.69-.31h1.78a1.004 1.004 0 0 0-.93-.67.884.884 0 0 0-.89.67h.04ZM154.3 108.65l-1 2.44a.151.151 0 0 1 0 .06h-.32a.151.151 0 0 1 0-.06l-.78-1.09-.45 1.09v.06h-.38v-.06l-1-2.44a.342.342 0 0 1 .19-.44.307.307 0 0 1 .41.19l.75 1.7.44-1a.33.33 0 0 1 .31-.21.339.339 0 0 1 .31.21l.44 1 .75-1.7a.298.298 0 0 1 .064-.112.304.304 0 0 1 .23-.104.29.29 0 0 1 .126.026.328.328 0 0 1-.09.44ZM157.44 109.001a2.3 2.3 0 0 1 2.31-2.27 2.356 2.356 0 0 1 1.46.49.368.368 0 0 1 .06.5.364.364 0 0 1-.5.07 1.667 1.667 0 0 0-2.15.11 1.533 1.533 0 0 0-.46 1.1 1.484 1.484 0 0 0 .46 1.09 1.608 1.608 0 0 0 2.13.11.376.376 0 0 1 .263-.06.375.375 0 0 1 .237.13.369.369 0 0 1-.06.5 2.368 2.368 0 0 1-1.46.5 2.3 2.3 0 0 1-2.29-2.27ZM162.65 110.841a1.592 1.592 0 0 1-.44-1.11c.005-.412.162-.807.44-1.11a1.498 1.498 0 0 1 1.08-.48 1.388 1.388 0 0 1 1.05.48c.29.296.451.695.45 1.11a1.508 1.508 0 0 1-.45 1.11 1.398 1.398 0 0 1-1.05.48 1.485 1.485 0 0 1-1.08-.48Zm.25-1.11c-.005.24.076.474.23.66a.853.853 0 0 0 1.18 0 .929.929 0 0 0 .25-.66.997.997 0 0 0-.25-.66.89.89 0 0 0-.58-.24.876.876 0 0 0-.6.24.998.998 0 0 0-.23.66ZM166.59 110.841a1.55 1.55 0 0 1-.44-1.11 1.617 1.617 0 0 1 .93-1.464 1.413 1.413 0 0 1 1.64.354c.287.297.445.696.44 1.11a1.503 1.503 0 0 1-.44 1.11 1.419 1.419 0 0 1-1.05.48 1.466 1.466 0 0 1-1.08-.48Zm.25-1.11c-.008.239.07.473.22.66a.837.837 0 0 0 .61.24.81.81 0 0 0 .58-.24.929.929 0 0 0 .25-.66.997.997 0 0 0-.25-.66.89.89 0 0 0-.58-.24.924.924 0 0 0-.61.24.998.998 0 0 0-.22.66ZM170.23 112.141v-3.66a.341.341 0 0 1 .34-.34.337.337 0 0 1 .34.26c.257-.165.555-.255.86-.26a1.568 1.568 0 0 1 1.53 1.59 1.55 1.55 0 0 1-1.53 1.56 1.403 1.403 0 0 1-.84-.26v1.11a.339.339 0 0 1-.11.244.331.331 0 0 1-.115.073.365.365 0 0 1-.265-.003.328.328 0 0 1-.11-.074.328.328 0 0 1-.1-.24Zm.7-2.41a.873.873 0 0 0 .51.822.81.81 0 0 0 .92-.192.923.923 0 0 0 .25-.63.943.943 0 0 0-.25-.64.82.82 0 0 0-.595-.261.81.81 0 0 0-.595.261.883.883 0 0 0-.24.64ZM174.11 109.721a1.554 1.554 0 0 1 .945-1.454 1.504 1.504 0 0 1 1.649.302c.282.274.446.648.456 1.042v.09a.302.302 0 0 1-.33.25h-2a.815.815 0 0 0 .21.41 1.003 1.003 0 0 0 1.26.13.346.346 0 0 1 .47 0 .277.277 0 0 1 .066.316.281.281 0 0 1-.066.094 1.615 1.615 0 0 1-1.72.291 1.561 1.561 0 0 1-.94-1.471Zm.68-.31h1.79a1.004 1.004 0 0 0-.93-.67.898.898 0 0 0-.86.67ZM180 108.48a.33.33 0 0 1-.33.33.647.647 0 0 0-.38.12 1.085 1.085 0 0 0-.29.31 2.478 2.478 0 0 0-.26.52V111a.34.34 0 1 1-.68 0v-2.48a.34.34 0 0 1 .58-.24c.064.064.1.15.1.24a.845.845 0 0 1 .14-.12 1.34 1.34 0 0 1 .79-.25.328.328 0 0 1 .33.33Z"/>
    <path fill="#455A64" d="M121.35 115.23a7.518 7.518 0 0 1-2.11.88 7.277 7.277 0 0 1-8.631-4.812 7.278 7.278 0 0 1 9.421-9.101 7.284 7.284 0 0 1 4.51 8.793 7.281 7.281 0 0 1-3.19 4.24Z"/>
    <path fill="#fff" d="M119.73 108.2a2.219 2.219 0 1 1-2.22-2.22 2.218 2.218 0 0 1 2.054 1.369c.111.27.167.56.166.851Z"/>
    <path fill="#fff" d="M121.35 114.31v.92a7.46 7.46 0 0 1-2.11.88 7.279 7.279 0 0 1-5.56-.88v-.92a3.84 3.84 0 0 1 7.67 0Z"/>
    <path fill="#000" d="M296.34 104.25a.49.49 0 0 1 .49.48.482.482 0 0 1-.672.443.46.46 0 0 1-.255-.26.475.475 0 0 1-.033-.183.48.48 0 0 1 .47-.48ZM297.83 104.25a.49.49 0 1 1 0 .98.49.49 0 0 1 0-.98ZM299.32 104.25a.49.49 0 1 1 0 .98.49.49 0 0 1 0-.98Z"/>
    <path fill="#263238" d="m110.22 122.331 23.68-.22 19.57-.13 39.15-.1 39.16.1 19.57.13 19.58.22-19.58.22-19.57.13-39.16.1-39.15-.1-19.57-.13-23.68-.22ZM110.22 126.481c9.5-.19 23.09-.27 32.59-.35l28.49-.1 28.49.1 14.24.13 14.25.22-14.28.22-14.24.13-28.49.1-28.49-.1c-9.47-.07-23.06-.16-32.56-.35ZM110.22 130.631c6.34-.19 16.78-.27 23.12-.35 6.34-.08 12.68-.06 19-.1 6.32-.04 12.68 0 19 .1l9.51.13c3.17.07 6.34.12 9.51.22-3.17.1-6.34.15-9.51.22l-9.51.13c-6.34.07-12.68.07-19 .1s-12.69 0-19-.1c-6.31-.1-16.78-.16-23.12-.35Z"/>
    <path fill="#FF9800" d="M156.39 144.08h-46.2v13.18h46.2v-13.18Z"/>
    <path fill="#fff" d="M127.42 152.091h-1.86l-.38 1a.427.427 0 0 1-.4.27h-.14a.434.434 0 0 1-.24-.223.436.436 0 0 1-.02-.327l1.7-4.51a.446.446 0 0 1 .162-.195.447.447 0 0 1 .486 0 .446.446 0 0 1 .162.195l1.69 4.51a.43.43 0 0 1-.25.55h-.15a.406.406 0 0 1-.39-.27l-.37-1Zm-.32-.85-.62-1.64-.62 1.64h1.24ZM132.74 151.11V153a.4.4 0 0 1-.686.283.408.408 0 0 1-.124-.283v-1.84a.787.787 0 0 0-.8-.77.768.768 0 0 0-.76.77V153a.105.105 0 0 1 0 .07.407.407 0 0 1-.696.195.405.405 0 0 1-.114-.265v-3a.41.41 0 0 1 .78-.17c.242-.156.523-.239.81-.24a1.61 1.61 0 0 1 1.59 1.52ZM134.05 152.26a.396.396 0 0 1 .27-.161.396.396 0 0 1 .3.091c.238.204.537.324.85.34.182-.005.36-.053.52-.14a.343.343 0 0 0 .13-.23v-.08a.288.288 0 0 0-.1-.09 1.688 1.688 0 0 0-.61-.22 2.24 2.24 0 0 1-.66-.2 1.135 1.135 0 0 1-.53-.44.894.894 0 0 1-.13-.48 1.085 1.085 0 0 1 .45-.84c.275-.193.604-.294.94-.29.418.016.82.163 1.15.42a.427.427 0 0 1 .12.57.408.408 0 0 1-.257.172.4.4 0 0 1-.303-.062 1.344 1.344 0 0 0-.71-.29.751.751 0 0 0-.46.14.23.23 0 0 0-.12.18.102.102 0 0 0 0 .06.404.404 0 0 0 .09.08c.176.088.365.149.56.18.247.035.486.109.71.22a1.2 1.2 0 0 1 .55.45c.092.154.14.33.14.51a1.064 1.064 0 0 1-.131.499 1.063 1.063 0 0 1-.349.381 1.678 1.678 0 0 1-1 .31 2.234 2.234 0 0 1-1.37-.53.402.402 0 0 1-.05-.55ZM143.75 151.44a1.88 1.88 0 0 1 1.86-1.92 1.826 1.826 0 0 1 1.85 1.78.206.206 0 0 1 0 .07.361.361 0 0 1-.4.3h-2.43a.998.998 0 0 0 .26.51 1.24 1.24 0 0 0 1.53.15.435.435 0 0 1 .29-.109c.107 0 .21.038.29.109a.358.358 0 0 1 0 .5c-.38.335-.873.514-1.38.5a1.89 1.89 0 0 1-1.87-1.89Zm.83-.38h2.17a1.252 1.252 0 0 0-1.14-.81 1.068 1.068 0 0 0-1.03.81ZM150.87 149.93a.398.398 0 0 1-.4.4.728.728 0 0 0-.46.15.995.995 0 0 0-.35.37c-.141.194-.249.41-.32.64V153a.417.417 0 0 1-.415.355.42.42 0 0 1-.415-.355v-3a.42.42 0 0 1 .83 0l.16-.15a1.646 1.646 0 0 1 1-.3.39.39 0 0 1 .37.38ZM115.27 151.721a1.863 1.863 0 0 1-.33-1.05c0-1.33 1.46-2.4 3.26-2.4 1.8 0 3.26 1.07 3.26 2.4 0 1.33-1.46 2.41-3.26 2.41a3.996 3.996 0 0 1-2.25-.66l-1.12.28.44-.98Z"/>
    <path fill="#C7C7C7" d="M174.17 155.71V145h7.72v10.75l-3.86-3-3.86 2.96Zm3.86-4.29 2.86 2.24V146h-5.72v7.7l2.86-2.28ZM187 152.101a.4.4 0 0 1 .56 0 2.52 2.52 0 0 0 1.46.58c.355.017.705-.081 1-.28a.695.695 0 0 0 .33-.55.445.445 0 0 0-.07-.24.722.722 0 0 0-.23-.23 2.881 2.881 0 0 0-1.05-.36 4.536 4.536 0 0 1-1-.3 1.69 1.69 0 0 1-.72-.6 1.211 1.211 0 0 1-.17-.63 1.413 1.413 0 0 1 .61-1.12 2.27 2.27 0 0 1 1.33-.4 3.072 3.072 0 0 1 1.67.61.393.393 0 0 1 .1.54.39.39 0 0 1-.244.177.38.38 0 0 1-.296-.057 2.23 2.23 0 0 0-1.23-.49 1.458 1.458 0 0 0-.86.26.606.606 0 0 0-.206.203.601.601 0 0 0-.084.277.401.401 0 0 0 .05.22.648.648 0 0 0 .21.19c.307.179.647.295 1 .34a5.1 5.1 0 0 1 1.06.32c.307.14.57.361.76.64.125.194.192.42.19.65a1.505 1.505 0 0 1-.66 1.19 2.44 2.44 0 0 1-1.42.43 3.28 3.28 0 0 1-2-.76.406.406 0 0 1-.183-.284.404.404 0 0 1 .093-.326ZM195.38 151.52V153a.412.412 0 0 1-.41.4.418.418 0 0 1-.4-.33c-.29.213-.64.329-1 .33a1.762 1.762 0 0 1-1.3-.56 1.939 1.939 0 0 1-.52-1.35c-.007-.497.18-.977.52-1.34a1.744 1.744 0 0 1 1.3-.58 1.71 1.71 0 0 1 1 .34.434.434 0 0 1 .4-.34.421.421 0 0 1 .41.42v1.53Zm-.81 0a1.122 1.122 0 0 0-.3-.78 1 1 0 0 0-.72-.32.935.935 0 0 0-.71.32 1.122 1.122 0 0 0-.29.78c-.006.291.098.573.29.79a.987.987 0 0 0 .71.3.988.988 0 0 0 .72-.3c.195-.216.302-.498.3-.79ZM199.75 150.21l-1.26 3v.1h-.56v-.1l-1.24-3a.395.395 0 0 1 .22-.51.393.393 0 0 1 .51.22l.88 2.08.89-2.08a.39.39 0 0 1 .206-.254.393.393 0 0 1 .162-.042.39.39 0 0 1 .304.119.395.395 0 0 1 .068.467h-.18ZM200.68 151.52a1.898 1.898 0 0 1 1.87-1.92 1.83 1.83 0 0 1 1.84 1.78v.11a.377.377 0 0 1-.4.3h-2.44a.998.998 0 0 0 .26.51c.199.196.461.317.74.34.278.033.558-.035.79-.19a.435.435 0 0 1 .29-.109c.107 0 .21.038.29.109a.346.346 0 0 1 .078.385.36.36 0 0 1-.078.115 2.004 2.004 0 0 1-2.095.344 1.911 1.911 0 0 1-1.145-1.774Zm.83-.38h2.17a1.25 1.25 0 0 0-1.13-.81 1.076 1.076 0 0 0-1.04.81Z"/>
    <path fill="#A6A6A6" d="M123.84 282.001a7.291 7.291 0 1 1-6.65-12.925 7.29 7.29 0 0 1 6.65 12.925Z"/>
    <path fill="#fff" d="M122.22 274.931a2.214 2.214 0 0 1-1.373 2.052 2.221 2.221 0 0 1-3.026-1.625 2.223 2.223 0 0 1 3.755-1.996 2.208 2.208 0 0 1 .644 1.569Z"/>
    <path fill="#fff" d="M123.84 281.051v.95a7.299 7.299 0 0 1-7.67 0v-.91a3.835 3.835 0 0 1 3.835-4.036 3.85 3.85 0 0 1 2.784 1.195 3.835 3.835 0 0 1 1.051 2.841v-.04Z"/>
    <path fill="#263238" d="M133 276.05a2.253 2.253 0 0 1 2.26-2.21 2.316 2.316 0 0 1 1.42.48.353.353 0 1 1-.43.56 1.539 1.539 0 0 0-1-.34 1.63 1.63 0 0 0-1.11.44 1.51 1.51 0 0 0-.45 1.07 1.47 1.47 0 0 0 .45 1.07 1.63 1.63 0 0 0 1.11.44c.362.01.715-.107 1-.33a.354.354 0 0 1 .43.56 2.31 2.31 0 0 1-1.42.47 2.25 2.25 0 0 1-2.26-2.21ZM140.5 276.731v1.21a.322.322 0 0 1-.32.32.33.33 0 0 1-.32-.26 1.38 1.38 0 0 1-.82.26 1.455 1.455 0 0 1-1-.44 1.62 1.62 0 0 1-.41-1.09 1.568 1.568 0 0 1 .41-1.08 1.443 1.443 0 0 1 1-.46c.294.006.58.1.82.27a.344.344 0 0 1 .32-.27.318.318 0 0 1 .23.098.318.318 0 0 1 .09.232v1.21Zm-.65 0a.888.888 0 0 0-.24-.63.744.744 0 0 0-.57-.25.719.719 0 0 0-.57.25.888.888 0 0 0-.24.63.92.92 0 0 0 .24.64.776.776 0 0 0 .57.24.8.8 0 0 0 .57-.24.92.92 0 0 0 .24-.64ZM143.6 275.52a.317.317 0 0 1-.33.32.564.564 0 0 0-.36.12 1.014 1.014 0 0 0-.29.29 2.095 2.095 0 0 0-.25.52v1.17a.322.322 0 0 1-.104.231.309.309 0 0 1-.109.068.306.306 0 0 1-.127.021.318.318 0 0 1-.32-.32v-2.42a.321.321 0 0 1 .32-.32.324.324 0 0 1 .127.022.326.326 0 0 1 .213.298l.13-.12c.224-.16.494-.245.77-.24a.317.317 0 0 1 .317.223.303.303 0 0 1 .013.137ZM144.79 274c.09 0 .177.036.24.1.064.063.1.15.1.24v3.63c0 .09-.036.177-.1.24a.337.337 0 0 1-.48 0 .337.337 0 0 1-.1-.24v-3.67a.34.34 0 0 1 .34-.3ZM147.71 277.2a.309.309 0 0 1 .096-.08.308.308 0 0 1 .243-.027c.04.011.078.031.111.057.33.279.739.447 1.17.48.274.003.543-.077.77-.23a.537.537 0 0 0 .27-.44.348.348 0 0 0-.06-.2.627.627 0 0 0-.18-.19 2.472 2.472 0 0 0-.84-.28 3.466 3.466 0 0 1-.79-.24 1.406 1.406 0 0 1-.57-.48.993.993 0 0 1-.14-.51 1.156 1.156 0 0 1 .49-.9 1.806 1.806 0 0 1 1.06-.32c.486.025.953.196 1.34.49a.317.317 0 0 1 .167.204.318.318 0 0 1-.264.4.325.325 0 0 1-.253-.074 1.753 1.753 0 0 0-1-.39 1.224 1.224 0 0 0-.69.2.517.517 0 0 0-.23.39.29.29 0 0 0 0 .17.52.52 0 0 0 .17.16c.237.139.498.231.77.27.292.055.577.142.85.26.245.113.455.289.61.51a.939.939 0 0 1 .15.53 1.183 1.183 0 0 1-.53 1 1.93 1.93 0 0 1-1.14.35 2.652 2.652 0 0 1-1.57-.62.33.33 0 0 1-.01-.49ZM153.23 275.531a.351.351 0 0 1-.34.34h-.16v1.71a.352.352 0 0 1 .34.35.338.338 0 0 1-.1.237.324.324 0 0 1-.24.093.684.684 0 0 1-.481-.199.684.684 0 0 1-.199-.481v-1.71h-.18a.34.34 0 0 1 0-.68h.18v-.89c0-.09.036-.177.1-.24.063-.064.15-.1.24-.1a.323.323 0 0 1 .243.097.323.323 0 0 1 .097.243v.89h.16a.339.339 0 0 1 .34.34ZM153.84 276.731a1.529 1.529 0 0 1 1.51-1.54 1.48 1.48 0 0 1 1.48 1.43v.05a.3.3 0 0 1-.32.25h-1.95c.025.151.095.29.2.4a.995.995 0 0 0 1.23.13.35.35 0 0 1 .47 0 .272.272 0 0 1 .062.092.268.268 0 0 1 .022.108.269.269 0 0 1-.022.109.268.268 0 0 1-.062.091 1.558 1.558 0 0 1-1.1.4 1.527 1.527 0 0 1-1.52-1.52Zm.68-.3h1.74a1.005 1.005 0 0 0-.91-.66.853.853 0 0 0-.83.66ZM160.08 275.681l-1 2.39h-.32l-1-2.39a.3.3 0 0 1-.027-.125.316.316 0 0 1 .207-.295.328.328 0 0 1 .41.18l.7 1.68.72-1.68a.322.322 0 0 1 .41-.18c.039.07.05.152.031.229a.318.318 0 0 1-.131.191ZM160.83 276.731a1.514 1.514 0 0 1 .918-1.419 1.475 1.475 0 0 1 1.614.292c.277.268.438.633.448 1.017v.05a.29.29 0 0 1-.32.25h-1.95a.773.773 0 0 0 .21.4.935.935 0 0 0 .59.28c.224.02.448-.032.64-.15a.343.343 0 0 1 .46 0 .282.282 0 0 1 0 .4c-.3.273-.695.417-1.1.4a1.519 1.519 0 0 1-1.071-.445 1.5 1.5 0 0 1-.439-1.075Zm.67-.3h1.74a1.005 1.005 0 0 0-.91-.66.865.865 0 0 0-.83.66ZM167.35 276.471v1.47a.322.322 0 0 1-.55.227.333.333 0 0 1-.1-.227v-1.47a.624.624 0 0 0-.192-.442.626.626 0 0 0-.883.005.6.6 0 0 0-.175.437v1.47a.122.122 0 0 1 0 .06.333.333 0 0 1-.33.261.32.32 0 0 1-.305-.196.332.332 0 0 1-.025-.125v-2.42a.33.33 0 0 1 .33-.33.325.325 0 0 1 .3.19c.194-.123.42-.189.65-.19a1.28 1.28 0 0 1 1.28 1.28ZM168.4 277.391a.325.325 0 0 1 .1-.084.323.323 0 0 1 .255-.027.32.32 0 0 1 .115.061c.19.158.424.253.67.27a.831.831 0 0 0 .42-.12.233.233 0 0 0 .11-.18.12.12 0 0 0 0-.07l-.08-.07a1.375 1.375 0 0 0-.49-.17 2.654 2.654 0 0 1-.53-.16.991.991 0 0 1-.42-.36.707.707 0 0 1-.11-.39.864.864 0 0 1 .36-.67 1.35 1.35 0 0 1 .76-.23c.336.01.659.13.92.34a.336.336 0 0 1 .142.205.334.334 0 0 1-.042.245.31.31 0 0 1-.206.14.302.302 0 0 1-.127 0 .297.297 0 0 1-.117-.05 1.063 1.063 0 0 0-.57-.23.656.656 0 0 0-.37.11c-.08.06-.1.11-.1.14v.05c0 .05 0 0 .06.07.14.075.292.123.45.14.201.033.396.094.58.18a.933.933 0 0 1 .43.36.73.73 0 0 1 .12.41.883.883 0 0 1-.39.71 1.423 1.423 0 0 1-.8.24 1.69 1.69 0 0 1-1.09-.42.318.318 0 0 1-.05-.44Z"/>
    <path fill="#000" d="M294.46 271.1a.466.466 0 0 1 .434.29.466.466 0 0 1-.102.512.47.47 0 1 1-.332-.802ZM295.91 271.1a.466.466 0 0 1 .434.29.466.466 0 0 1-.102.512.47.47 0 1 1-.332-.802ZM297.36 271.1a.468.468 0 0 1 .332.802.47.47 0 1 1-.332-.802Z"/>
    <path fill="#263238" d="m114.87 290.04 17.7-.21 14.64-.13 29.27-.1 29.27.1 14.63.12 14.64.22-14.64.22-14.63.12-29.27.1-29.27-.1-14.64-.12-17.7-.22ZM114.87 294.09c7.1-.18 17.27-.27 24.37-.34l21.29-.1 21.3.1 10.65.12 10.65.22-10.65.22-10.65.12-21.3.1-21.29-.1c-7.1-.07-17.24-.16-24.37-.34ZM114.87 298.141c4.74-.18 12.55-.27 17.29-.34 4.74-.07 9.48-.07 14.22-.1s9.48 0 14.22.1l7.11.12c2.37.07 4.74.12 7.11.22-2.37.1-4.74.14-7.11.21l-7.11.13c-4.74.07-9.48.07-14.22.1s-9.48 0-14.22-.1-12.55-.16-17.29-.34Z"/>
    <path fill="#C7C7C7" d="M118 313.001a.51.51 0 0 1-.35-.11l-.1-.07a.48.48 0 0 0-.29-.12.212.212 0 0 1-.097-.01.228.228 0 0 1-.153-.25v-2.44a.288.288 0 0 1 .035-.17.284.284 0 0 1 .125-.12c.392-.243.711-.589.92-1 .08-.13.17-.26.26-.38a2.255 2.255 0 0 0 .4-1.69.404.404 0 0 1 .068-.318.4.4 0 0 1 .282-.162.548.548 0 0 1 .64.23c.189.341.314.714.37 1.1.016.218-.005.438-.06.65a2.615 2.615 0 0 0 0 .28c0 .16-.05.31-.08.46h2c.14 0 .55 0 .63.4a.689.689 0 0 1-.3.72.514.514 0 0 1 .16.37.694.694 0 0 1-.31.56.537.537 0 0 1 .14.47.664.664 0 0 1-.33.48c.088.1.137.227.14.36a.624.624 0 0 1-.29.5l-.09.06a.745.745 0 0 1-.44.12H118v.08Zm-.65-.64a.926.926 0 0 1 .4.18l.09.06H121.16a.426.426 0 0 0 .25 0l.09-.06a.326.326 0 0 0 .15-.23.293.293 0 0 0-.14-.21.211.211 0 0 1-.11-.18.233.233 0 0 1 .11-.19.338.338 0 0 1 .11 0 .396.396 0 0 0 .23-.26.277.277 0 0 0 0-.18.25.25 0 0 1-.23-.25.27.27 0 0 1 .24-.26.345.345 0 0 0 .2-.28.188.188 0 0 0-.08-.16c-.19 0-.22-.17-.21-.25.01-.08.05-.2.23-.23a.35.35 0 0 0 .21-.39s0-.13-.29-.13h-2a.327.327 0 0 1-.27 0l-.09-.06.06-.31c.033-.145.056-.292.07-.44l.06-.31a1.687 1.687 0 0 0 0-.54 2.998 2.998 0 0 0-.33-1 .249.249 0 0 0-.26-.05c-.11 0-.1 0-.09.11a2.556 2.556 0 0 1-.47 1.93l-.24.36a2.93 2.93 0 0 1-1 1.1l-.01 2.23Zm0 .07h-.16.17a.064.064 0 0 0-.02-.02l.01.02Z"/>
    <path fill="#C7C7C7" d="M114.91 313.202a.347.347 0 0 1-.128-.016.347.347 0 0 1-.112-.064.348.348 0 0 1-.075-.125c-.015-.047-.02-.096-.015-.145v-3.02a.278.278 0 0 1 .183-.306.275.275 0 0 1 .127-.014h1.85a.275.275 0 0 1 .234.083.278.278 0 0 1 .076.237v3.05a.333.333 0 0 1-.08.25.336.336 0 0 1-.121.071.345.345 0 0 1-.139.019h-1.8v-.02Zm0-1.86V312.852h1.79v-3h-1.78v1.5l-.01-.01ZM129.86 307.911v4.52a.428.428 0 0 1-.705.261.434.434 0 0 1-.145-.261v-3.77l-.3.18a.46.46 0 0 1-.22.06.431.431 0 0 1-.36-.21.416.416 0 0 1-.055-.32.392.392 0 0 1 .071-.15.385.385 0 0 1 .124-.11l.94-.56h.37a.102.102 0 0 0 0 .06l.28.3ZM134.3 312.43a.417.417 0 0 1-.42.42h-2.73a.363.363 0 0 1-.31-.14.414.414 0 0 1-.125-.295.42.42 0 0 1 .032-.16.43.43 0 0 1 .093-.135l2.26-2.06a.926.926 0 0 0 .33-.73 1.003 1.003 0 0 0-.26-.67.999.999 0 0 0-.73-.32 1 1 0 0 0-.67.25l-.24.22a.417.417 0 0 1-.595-.035.424.424 0 0 1 .035-.595l.24-.21a1.756 1.756 0 0 1 1.23-.48 1.838 1.838 0 0 1 1.36.61 1.8 1.8 0 0 1 .48 1.23 1.837 1.837 0 0 1-.61 1.36l-1.43 1.31h1.64a.435.435 0 0 1 .301.127.43.43 0 0 1 .119.303ZM150.18 306.392a.51.51 0 0 1 .35.11l.1.07c.08.071.183.113.29.12a.227.227 0 0 1 .097.009.23.23 0 0 1 .142.142.224.224 0 0 1 .011.109v2.4a.29.29 0 0 1-.16.29c-.395.24-.714.586-.92 1-.09.13-.17.26-.26.38a2.258 2.258 0 0 0-.4 1.69.397.397 0 0 1-.192.428.399.399 0 0 1-.158.052.567.567 0 0 1-.65-.23 3.477 3.477 0 0 1-.36-1.1c-.02-.219 0-.439.06-.65.012-.095.028-.188.05-.28.011-.156.038-.31.08-.46h-2c-.14 0-.54 0-.62-.4a.69.69 0 0 1 .3-.72.502.502 0 0 1-.16-.37.676.676 0 0 1 .31-.56.538.538 0 0 1-.14-.47.655.655 0 0 1 .33-.48.56.56 0 0 1-.14-.36.624.624 0 0 1 .29-.5l.09-.06a.73.73 0 0 1 .44-.12h3.2l.02-.04Zm.65.64a.872.872 0 0 1-.4-.18l-.09-.06H147.02a.41.41 0 0 0-.25 0l-.09.06c-.1.08-.15.15-.15.23a.297.297 0 0 0 .14.21c.033.017.06.043.079.075.02.031.03.068.031.105a.258.258 0 0 1-.11.19.402.402 0 0 1-.12 0 .371.371 0 0 0-.22.26.23.23 0 0 0 0 .18c.09 0 .23.09.23.25a.277.277 0 0 1-.074.172.274.274 0 0 1-.166.088.335.335 0 0 0-.2.28.16.16 0 0 0 .08.15c.19.06.22.18.21.26a.237.237 0 0 1-.23.23.348.348 0 0 0-.21.39s0 .13.29.13h2a.327.327 0 0 1 .27 0l.09.06-.06.31c0 .15-.06.29-.08.44a2.985 2.985 0 0 1-.05.31c-.05.175-.067.358-.05.54.05.35.162.688.33 1 0 .05.14.08.26.05s.1 0 .09-.11a2.6 2.6 0 0 1 .46-1.93c.09-.11.17-.24.25-.36a2.84 2.84 0 0 1 1-1.1l.06-2.23Zm0-.07h.16-.17a.06.06 0 0 0 .02.04l-.01-.04Z"/>
    <path fill="#C7C7C7" d="M153.27 306.171a.3.3 0 0 1 .251.092.289.289 0 0 1 .069.258v3a.314.314 0 0 1-.07.25.329.329 0 0 1-.23.08h-1.85a.262.262 0 0 1-.127-.014.278.278 0 0 1-.183-.306v-3.05a.335.335 0 0 1 .08-.25.351.351 0 0 1 .26-.089h1.8v.029Zm0 1.86v-1.51h-1.78v3h1.78v-1.52.03ZM160.77 309.521c.358.358.56.844.56 1.35a1.916 1.916 0 0 1-.559 1.341 1.916 1.916 0 0 1-1.341.559 1.843 1.843 0 0 1-1.33-.56.401.401 0 0 1-.1-.138.401.401 0 0 1 0-.334.392.392 0 0 1 .1-.138.431.431 0 0 1 .61 0 .987.987 0 0 0 .735.322 1.005 1.005 0 0 0 .735-.322c.188-.197.296-.458.3-.73a.996.996 0 0 0-.3-.73 1.01 1.01 0 0 0-.73-.3 1 1 0 0 0-.74.3.431.431 0 0 1-.61 0l-.1-.14v-.06a.285.285 0 0 1 0-.13l.23-2a.437.437 0 0 1 .19-.3.45.45 0 0 1 .2 0h2.26a.442.442 0 0 1 .466.251.451.451 0 0 1 0 .368.447.447 0 0 1-.278.239.442.442 0 0 1-.188.012H159l-.1.75c.17-.04.345-.06.52-.06a1.89 1.89 0 0 1 1.35.45Z"/>
    <path fill="#455A64" d="M232.35 16.26v-1.41c0-.69-.56-1.25-1.25-1.25h-52.2c-.69 0-1.25.56-1.25 1.25v1.41c0 .69.56 1.25 1.25 1.25h52.2c.69 0 1.25-.56 1.25-1.25ZM207.11 369.794a7.07 7.07 0 1 0-4.186-13.506 7.07 7.07 0 0 0 4.186 13.506Z"/>
    <path fill="#F7A9A0" d="M192.86 406.451c2.2.74 65.45 1 67.86-.55.92-.57 1.49-9.78 1.86-20.93.09-2.4.15-4.89.21-7.41l5.13-33.74-42.28-.27-4 33.74.16 7.42s-24.25 10.75-26.72 12.7c-2.47 1.95-4.43 8.29-2.22 9.04Z"/>
    <path fill="#37474F" d="M192.86 406.451c2.2.74 65.45 1 67.86-.55 1.12-.7 1.73-14.15 2.07-28.34l-41.14-.27.16 7.42s-24.25 10.75-26.72 12.7c-2.47 1.95-4.44 8.29-2.23 9.04Z"/>
    <path fill="#FF9800" d="M192.86 406.451c2.2.74 65.45 1 67.86-.55.92-.57 1.49-9.78 1.86-20.93l-40.77-.26s-24.25 10.75-26.72 12.7c-2.47 1.95-4.44 8.29-2.23 9.04Z"/>
    <path fill="#fff" d="M261.3 404.23c-.17.95-.36 1.54-.57 1.67-2.43 1.51-65.66 1.29-67.88.54-2.22-.75-.22-7.09 2.23-9a28.688 28.688 0 0 1 3.78-2.1h.3s7.92-.14 8.69 8.83l53.45.06Z"/>
    <path fill="#263238" d="M193.77 403.92c10.6-.22 53.39-.12 63.89.46.08 0 .08.07 0 .07-10.51.45-53.29 0-63.89-.36-.22 0-.22-.17 0-.17ZM199.16 395.141a8.513 8.513 0 0 1 6.34 2.62 8.262 8.262 0 0 1 2.35 5.66.068.068 0 0 1-.026.032.067.067 0 0 1-.039.012.067.067 0 0 1-.039-.012.068.068 0 0 1-.026-.032 9.841 9.841 0 0 0-8.56-8.14.069.069 0 0 1-.049-.021.067.067 0 0 1-.021-.049c0-.019.007-.037.021-.05a.068.068 0 0 1 .049-.02ZM217.7 385.75c4.24 0 9.15 1.47 11.78 4.95.1.14-.09.28-.22.22a57.928 57.928 0 0 0-11.64-4.64.27.27 0 0 1-.101-.467.272.272 0 0 1 .181-.063ZM214.42 387.001c4.24 0 9.15 1.47 11.78 5 .1.13-.09.28-.22.21a58.476 58.476 0 0 0-11.64-4.64.289.289 0 0 1-.245-.325.289.289 0 0 1 .325-.245ZM211.13 388.281c4.25 0 9.16 1.48 11.79 5 .1.14-.09.28-.22.22a58.596 58.596 0 0 0-11.64-4.64.29.29 0 0 1-.145-.519.292.292 0 0 1 .215-.061ZM207.85 389.551c4.25 0 9.16 1.47 11.79 4.95.1.14-.09.28-.22.21a59.12 59.12 0 0 0-11.64-4.64.27.27 0 0 1-.169-.288.269.269 0 0 1 .239-.232Z"/>
    <path fill="#fff" d="M255 394.301c4.76 0 4.72 7.43-.05 7.4-4.77-.03-4.73-7.43.05-7.4Z"/>
    <path fill="#263238" d="M213.47 380.641c2.28 3 5.76 4.83 8.77 6.93a.538.538 0 0 0 .469.02.527.527 0 0 0 .301-.36.125.125 0 0 0 .051-.002.113.113 0 0 0 .073-.068.106.106 0 0 0 .006-.05 22.242 22.242 0 0 0-3.82-10.86c-1.32-1.86-4-3.61-6.17-1.84-2.17 1.77-1.01 4.5.32 6.23Zm-.19-3.52c.44-4.62 4.59-1.05 5.51.35.58.919 1.094 1.878 1.54 2.87 1 2 1.62 4.18 2.37 6.29-1.42-1.12-2.92-2.11-4.38-3.18-1.73-1.27-5.32-3.79-5.04-6.33Z"/>
    <path fill="#263238" d="M238.22 384.46c-.33-2.78-3.49-3.39-5.72-3a22.183 22.183 0 0 0-10.28 5.18.116.116 0 0 0-.034.039.102.102 0 0 0-.013.051c0 .018.004.035.013.051.008.016.02.029.034.039a.513.513 0 0 0 .096.66.515.515 0 0 0 .214.11c3.63.58 7.44 1.64 11.14 1.09 2.16-.28 4.85-1.6 4.55-4.22Zm-10 2.92c-1.79-.24-3.56-.57-5.36-.74 2-1 4-2.09 6.08-2.89a22.311 22.311 0 0 1 3.09-1c1.64-.38 7.1-.07 4.22 3.56-1.59 2-5.89 1.36-8.03 1.07Z"/>
    <path fill="#F7A9A0" d="M330 187.9s-49 83.53-50.37 89.39c-2 9-16.49 97.93-16.49 97.93l-41.14-.74s5.53-77.71 13.86-103.56c6-18.62 46.46-81.23 46.46-81.23L330 187.9Z"/>
    <path fill="#F7A9A0" d="m306 375.55 38.88-10.2s-36.7-87.42-36.34-93.35c.32-5.29 25.1-45.39 28-58.88 3.09-14.18-2.89-28.26-9.61-36.13l-44.63 12.7s3.78 8.21 10.72 13.4c0 0-29.83 49.81-30.6 66.21-.77 16.4 43.58 106.25 43.58 106.25Z"/>
    <path fill="#F7A9A0" d="M286.64 413.471c2.33.15 65.07-16.39 67-18.47a.877.877 0 0 0 .14-.43c.25-2.05-3-9.76-5.21-19.62-.14-.63-1.32-3.62-3-7.67-4.55-11.1-12.68-30.17-12.68-30.17l-40.42 10.36 14.54 30.47 2 7.13s-20.72 16.58-22.61 19.09c-1.89 2.51-2.08 9.15.24 9.31Z"/>
    <path fill="#37474F" d="M286.64 413.471c2.33.15 65.07-16.39 67-18.47a.877.877 0 0 0 .14-.43c.25-2.05-3-9.76-5.21-19.62-.14-.63-1.32-3.62-3-7.67l-38.56 10.66 2 7.13s-20.72 16.58-22.61 19.09c-1.89 2.51-2.08 9.15.24 9.31Z"/>
    <path fill="#FF9800" d="M286.64 413.471c2.33.16 65.07-16.39 67-18.47.75-.79-.88-9.27-5.05-20.05l-39.5 10.13s-20.72 16.56-22.61 19.07c-1.89 2.51-2.16 9.15.16 9.32Z"/>
    <path fill="#fff" d="M353.67 395c-2 2.09-64.7 18.64-67 18.48-2.3-.16-2-6.81-.15-9.32a31.782 31.782 0 0 1 3.14-3l.26-.09s7.27-1.51 10.69 6.3l53.24-13.54c.066.399.003.809-.18 1.17Z"/>
    <path fill="#263238" d="M286.88 410.791c10.2-2.92 51.6-13.71 61.9-15.82.08 0 .1 0 0 .07-10.05 3.11-51.53 13.57-61.87 15.92-.2.04-.24-.11-.03-.17ZM289.86 400.931a8.55 8.55 0 0 1 6.79.91 8.271 8.271 0 0 1 3.72 4.89c0 .06-.1.09-.13 0a9.842 9.842 0 0 0-10.34-5.7.061.061 0 0 1-.026-.015.056.056 0 0 1-.017-.026.06.06 0 0 1-.005-.03c0-.01.003-.02.008-.029ZM305.39 387.131c4.1-1.12 9.24-.91 12.66 1.79.13.1 0 .29-.16.26a59.061 59.061 0 0 0-12.43-1.53.272.272 0 0 1-.07-.52ZM302.54 389.191c4.1-1.12 9.23-.91 12.66 1.79.13.1 0 .29-.16.26a59.193 59.193 0 0 0-12.43-1.53.272.272 0 0 1-.239-.232.27.27 0 0 1 .169-.288ZM299.69 391.252c4.1-1.12 9.24-.91 12.66 1.79.13.1 0 .29-.16.26a59.097 59.097 0 0 0-12.44-1.53.269.269 0 0 1-.232-.237.269.269 0 0 1 .172-.283ZM296.84 393.311c4.1-1.13 9.24-.91 12.66 1.79.13.1 0 .29-.16.26a59.061 59.061 0 0 0-12.43-1.53.272.272 0 0 1-.07-.52Z"/>
    <path fill="#fff" d="M343.64 385.912c4.61-1.19 6.45 6 1.84 7.16-4.61 1.16-6.48-5.98-1.84-7.16Z"/>
    <path fill="#263238" d="M300 383.26c3 2.28 6.8 3.21 10.25 4.47.36.13.64-.21.66-.52.06 0 .12-.07.09-.15a22.274 22.274 0 0 0-6.45-9.54c-1.75-1.46-4.81-2.46-6.44-.2-1.63 2.26.16 4.6 1.89 5.94Zm-1.07-3.35c-.75-4.58 4.17-2.19 5.41-1.07a24.855 24.855 0 0 1 2.22 2.38c1.45 1.73 2.63 3.63 3.9 5.49-1.66-.73-3.36-1.3-5-2-2.05-.71-6.12-2.28-6.53-4.8Z"/>
    <path fill="#263238" d="M324.91 380.651c-1-2.6-4.23-2.38-6.28-1.4a22.217 22.217 0 0 0-8.63 7.63.106.106 0 0 0-.019.048.102.102 0 0 0 .005.052.107.107 0 0 0 .074.07.505.505 0 0 0 .266.609.512.512 0 0 0 .234.051c3.66-.36 7.61-.3 11-1.78 2.05-.86 4.31-2.82 3.35-5.28Zm-8.91 5.35c-1.79.22-3.59.35-5.37.64a66.306 66.306 0 0 1 5.13-4.34 24.566 24.566 0 0 1 2.75-1.76c1.48-.78 6.84-1.86 5 2.38-1.06 2.37-5.38 2.84-7.51 3.08Z"/>
    <path fill="#455A64" d="m327 177-48.25 13.47S237 254.34 232.38 265c-.94 2.16 83.55 16.43 84.59 13 .85-2.76 23.84-47.28 22.82-70.94C339.09 190.64 327 177 327 177Z"/>
    <path fill="#263238" d="M282.17 230.22c.27-4.81.61-9.63 1.09-14.43 0-.28.45-.28.44 0-.18 4.82-.5 9.63-.88 14.44-.38 4.81-.89 9.61-1.24 14.42 0 .1-.15.1-.14 0 .31-4.8.45-9.65.73-14.43ZM266.25 256.06c.64-1.35 1.37-2.66 2.08-4 .71-1.34 1.37-2.68 2.07-4a553.458 553.458 0 0 0 4.37-8.46c.08-.16.38 0 .3.13-2.3 4.947-4.55 9.92-6.75 14.92-2 4.58-4.09 9.35-4.28 14.39-.2 5.25 1.71 10.31 3.52 15.2 1.89 5.12 3.77 10.26 5.49 15.43 1 2.94 2.11 5.86 3 8.83.42 1.45 1 2.87 1.44 4.31.44 1.44 1 3 1.5 4.52 0 .09-.11.12-.15 0-.5-1.32-1.05-2.62-1.59-3.92-.54-1.3-1-2.74-1.61-4.07-1.12-2.54-2.11-5.14-3.13-7.71a853.528 853.528 0 0 1-6-15.56c-1.87-5-3.87-10.08-4.08-15.41-.21-5.1 1.57-9.99 3.82-14.6ZM306 123.271c2.46 9.74 7.06 21 4.81 31.16-1.78 8-7.64 14.28-14.1 18.89-14.21 10.13-35.91 15.53-50.05 2.26-5.65-5.3-9.05-18.06-2.77-24.28 3.23-3.18 7.54-4.65 11.52-6.66a18.346 18.346 0 0 0 10.12-12.27c2.95-11.1.43-18.27-.85-29.36a7.941 7.941 0 0 1 1.48-6.27 14.114 14.114 0 0 1 5.73-4.91 13.854 13.854 0 0 1 6.39-2.46c4.93-.49 10.48 3 14.78 5 4.3 2 6.7 4.6 8 9.29 1.74 6.52 3.3 13.08 4.94 19.61Z"/>
    <path fill="#263238" d="M308.19 127.651c-2.84-8.77-5.84-17.48-8.78-26.21h-.09c2.22 7.25 4.33 14.53 6.64 21.76 2.31 7.23 5.08 14.22 6.72 21.48 3.67 16.29-11.79 26.41-25.86 28.47-.64.09-.42 1.1.22 1 12.3-2.2 26-9.38 27-23.43.53-7.72-3.54-15.89-5.85-23.07ZM265.31 102.001c0-.17-.29-.11-.27.07 1.44 9.08 4 19.53.46 28.42a23.285 23.285 0 0 1-8.65 10.75c-3.1 2.07-6.65 2.93-10 4.35-13.26 5.55-9.56 24.23 2 29.44.24.11.44-.3.2-.42-8.22-4.18-12.65-13.93-8.43-22.63 3.38-7 12.65-6.89 18.29-11.44 11.61-9.45 9.36-25.54 6.4-38.54Z"/>
    <path fill="#F7A9A0" d="M284.5 141.06c-4.59 12.59-20.29 36.63-28.59 43.93-3.58 3.15-33.63-1.73-46.89-8.7-3.68-1.93 14.93-14.82 19.34-15.88 3-.71 19.83 3.27 21.92 2 3.83-2.3 16.66-17.17 25.92-25.27 5.17-4.5 11.15-3.91 8.3 3.92Z"/>
    <path fill="#455A64" d="m262.92 148.651 13.61 17.73s10.33-22.31 11.51-29.73c1.33-8.35-3.23-7.2-9.77-2.54-6.54 4.66-15.35 14.54-15.35 14.54Z"/>
    <path fill="#263238" d="M266.6 146.812c2 2 7.3 9 8.19 10.09.46.6 2.21 3.07 2.68 3.67.06.07-.07.15-.13.08-.9-1.14-1.91-2.18-2.81-3.31-.9-1.13-6.51-8-8-10.45-.05-.06.03-.12.07-.08Z"/>
    <path fill="#455A64" d="m277 179 1.32 11.73 48.92-13.61s-11.38-35.73-28.94-46c-8.78-5.12-16.34-2.2-19.72 4.31-.86 1.65-10.36 23.33-9.61 31.32.65 7.09 8.03 12.25 8.03 12.25Z"/>
    <path fill="#fff" d="M280.07 139.321a.558.558 0 0 1-.38.68.573.573 0 0 1-.461-.012.554.554 0 0 1-.31-.589.568.568 0 0 1 .25-.386.55.55 0 0 1 .221-.083.544.544 0 0 1 .585.195.562.562 0 0 1 .095.195Zm5.89-2.21a.558.558 0 0 0 .086 1.087.572.572 0 0 0 .408-.113.54.54 0 0 0 .186-.584.561.561 0 0 0-.64-.39h-.04Zm6.57-1.81a.558.558 0 0 0 .084 1.086.562.562 0 0 0 .216-.016.556.556 0 0 0 .387-.25.548.548 0 0 0 .069-.455.551.551 0 0 0-.524-.409.557.557 0 0 0-.232.044Zm6.57-1.82a.567.567 0 0 0-.38.69.56.56 0 0 0 .261.331.567.567 0 0 0 .419.049.563.563 0 0 0 .39-.68.57.57 0 0 0-.69-.39Zm-17.75-.27a.55.55 0 0 0-.39.68.555.555 0 0 0 1.07-.29.559.559 0 0 0-.68-.39Zm6.57-1.81a.529.529 0 0 0-.337.258.536.536 0 0 0-.053.422.555.555 0 1 0 .39-.68Zm6.57-1.82a.566.566 0 0 0-.39.69.568.568 0 0 0 .69.38.555.555 0 0 0 .397-.466.559.559 0 0 0-.697-.604Zm-19 21a.558.558 0 0 0 .086 1.087.563.563 0 0 0 .604-.697.561.561 0 0 0-.65-.4l-.04.01Zm6.58-1.81a.552.552 0 0 0-.398.461.558.558 0 0 0 .272.545.553.553 0 0 0 .608-.04.552.552 0 0 0-.043-.904.548.548 0 0 0-.399-.072l-.04.01Zm6.57-1.82a.552.552 0 0 0-.338.264.557.557 0 0 0-.052.426.56.56 0 0 0 1.017.121.536.536 0 0 0 .053-.421.56.56 0 0 0-.64-.4l-.04.01Zm6.57-1.81a.552.552 0 0 0-.398.461.558.558 0 0 0 .272.545.551.551 0 1 0 .166-1.016l-.04.01Zm6.57-1.82a.552.552 0 0 0-.338.264.557.557 0 0 0-.052.426.56.56 0 0 0 1.017.121.536.536 0 0 0 .053-.421.558.558 0 0 0-.64-.4l-.04.01Zm6.57-1.81a.55.55 0 0 0-.387.249.568.568 0 0 0-.069.456.554.554 0 0 0 .524.408.573.573 0 0 0 .232-.043.563.563 0 0 0 .38-.68.548.548 0 0 0-.64-.4l-.04.01Zm-30.9 3.36a.532.532 0 0 0-.4.464.56.56 0 0 0 .281.546.55.55 0 1 0 .159-1.02l-.04.01Zm6.57-1.82a.558.558 0 0 0 .086 1.087.563.563 0 0 0 .604-.697.557.557 0 0 0-.65-.44l-.04.05Zm6.57-1.81a.558.558 0 0 0 .084 1.086.562.562 0 0 0 .216-.016.556.556 0 0 0 .387-.25.548.548 0 0 0 .069-.455.551.551 0 0 0-.524-.409.557.557 0 0 0-.232.044Zm6.58-1.82a.552.552 0 0 0-.338.264.557.557 0 0 0-.052.426.56.56 0 0 0 1.017.121.536.536 0 0 0 .053-.421.56.56 0 0 0-.64-.4l-.04.01Zm6.57-1.81a.552.552 0 0 0-.398.461.558.558 0 0 0 .272.545.551.551 0 1 0 .166-1.016l-.04.01Zm-32.1 24.62a.529.529 0 0 0-.337.258.536.536 0 0 0-.053.422.567.567 0 0 0 .25.387.565.565 0 0 0 .663-.041.548.548 0 0 0 .145-.186.548.548 0 0 0 .012-.46.561.561 0 0 0-.64-.39l-.04.01Zm6.57-1.82a.55.55 0 0 0-.39.68.555.555 0 1 0 .39-.68Zm6.57-1.81a.55.55 0 0 0-.387.249.568.568 0 0 0-.069.456.554.554 0 0 0 .524.408.573.573 0 0 0 .232-.043.563.563 0 0 0 .38-.68.548.548 0 0 0-.64-.4l-.04.01Zm6.57-1.82a.566.566 0 0 0-.39.69.568.568 0 0 0 .69.38.555.555 0 0 0 .397-.466.558.558 0 0 0-.657-.614l-.04.01Zm6.65-1.78a.555.555 0 0 0-.414.467.559.559 0 1 0 1.094-.077.562.562 0 0 0-.258-.338.544.544 0 0 0-.422-.052Zm6.57-1.82a.567.567 0 0 0-.38.69.56.56 0 0 0 .261.331.567.567 0 0 0 .419.049.563.563 0 0 0 .39-.68.56.56 0 0 0-.269-.378.566.566 0 0 0-.461-.052l.04.04Zm6.57-1.81a.558.558 0 0 0 .084 1.086.562.562 0 0 0 .216-.016.556.556 0 0 0 .387-.25.548.548 0 0 0 .069-.455.568.568 0 0 0-.295-.354.57.57 0 0 0-.461-.011Zm-37.46 5.17a.552.552 0 0 0-.398.461.558.558 0 0 0 .272.545.551.551 0 0 0 .806-.616.548.548 0 0 0-.72-.43l.04.04Zm6.57-1.81a.529.529 0 0 0-.337.258.536.536 0 0 0-.053.422.567.567 0 0 0 .25.387.565.565 0 0 0 .663-.041.548.548 0 0 0 .145-.186.548.548 0 0 0 .012-.46.563.563 0 0 0-.488-.444.538.538 0 0 0-.232.024l.04.04Zm6.57-1.82a.55.55 0 0 0-.39.68.555.555 0 1 0 .39-.68Zm6.57-1.81a.552.552 0 0 0-.398.461.558.558 0 0 0 .272.545.551.551 0 0 0 .806-.616.548.548 0 0 0-.72-.43l.04.04Zm6.57-1.82a.566.566 0 0 0-.39.69.568.568 0 0 0 .69.38.555.555 0 0 0 .397-.466.533.533 0 0 0-.017-.214.57.57 0 0 0-.263-.378.567.567 0 0 0-.457-.052l.04.04Zm6.57-1.81a.55.55 0 0 0-.387.249.568.568 0 0 0-.069.456.554.554 0 0 0 .524.408.573.573 0 0 0 .232-.043.563.563 0 0 0 .38-.68.548.548 0 0 0-.72-.43l.04.04Zm6.17-1.24a.335.335 0 0 0 0 .1.495.495 0 0 0 .27.34c-.11-.19-.22-.33-.31-.48l.04.04Zm-38.27 25.86a.532.532 0 0 0-.4.464.56.56 0 0 0 .281.546.55.55 0 0 0 .799-.63.54.54 0 0 0-.264-.376.543.543 0 0 0-.456-.044l.04.04Zm6.57-1.82a.558.558 0 0 0 .086 1.087.563.563 0 0 0 .604-.697.543.543 0 0 0-.089-.208.55.55 0 0 0-.601-.222v.04Zm6.57-1.81a.558.558 0 0 0-.121 1.015c.063.037.133.06.205.069a.543.543 0 0 0 .41-.111.555.555 0 0 0 .196-.583.543.543 0 0 0-.092-.22.55.55 0 0 0-.638-.21l.04.04Zm6.58-1.82a.552.552 0 0 0-.338.264.557.557 0 0 0-.052.426.56.56 0 0 0 1.017.121.536.536 0 0 0 .053-.421.57.57 0 0 0-.263-.378.567.567 0 0 0-.457-.052l.04.04Zm6.57-1.81a.552.552 0 0 0-.398.461.558.558 0 0 0 .272.545.553.553 0 0 0 .608-.04.552.552 0 0 0 .198-.576.548.548 0 0 0-.72-.43l.04.04Zm6.57-1.82a.552.552 0 0 0-.338.264.557.557 0 0 0-.052.426.56.56 0 0 0 1.017.121.536.536 0 0 0 .053-.421.555.555 0 0 0-.492-.426.534.534 0 0 0-.228.026l.04.01Zm6.57-1.81a.552.552 0 0 0-.398.461.558.558 0 0 0 .272.545.551.551 0 0 0 .806-.616.548.548 0 0 0-.72-.43l.04.04Zm6.28-1.61a.531.531 0 0 0-.106.228.537.537 0 0 0 .006.252.573.573 0 0 0 .52.4c-.18-.32-.32-.62-.46-.92l.04.04Zm-50.32 8.6a.529.529 0 0 0-.337.258.536.536 0 0 0-.053.422.567.567 0 0 0 .249.387.565.565 0 0 0 .664-.041.548.548 0 0 0 .145-.186.548.548 0 0 0 .012-.46.563.563 0 0 0-.488-.444.538.538 0 0 0-.232.024l.04.04Zm6.57-1.82a.55.55 0 0 0-.387.249.568.568 0 0 0-.069.456.554.554 0 0 0 .524.408.573.573 0 0 0 .232-.043.563.563 0 0 0 .38-.68.548.548 0 0 0-.72-.43l.04.04Zm6.57-1.81a.558.558 0 0 0-.39.68.571.571 0 0 0 .69.39.57.57 0 0 0 .38-.69.54.54 0 0 0-.264-.376.543.543 0 0 0-.456-.044l.04.04Zm6.57-1.82a.562.562 0 0 0 .3 1.07.55.55 0 0 0 .335-.259.54.54 0 0 0 .045-.421.548.548 0 0 0-.72-.43l.04.04Zm6.57-1.81a.558.558 0 0 0 .084 1.086.562.562 0 0 0 .216-.016.567.567 0 0 0 .471-.47.548.548 0 0 0-.015-.235.551.551 0 0 0-.524-.409.557.557 0 0 0-.232.044Zm6.58-1.82a.552.552 0 0 0-.338.264.557.557 0 0 0-.052.426.56.56 0 0 0 1.017.121.536.536 0 0 0 .053-.421.57.57 0 0 0-.263-.378.567.567 0 0 0-.457-.052l.04.04Zm6.57-1.81a.552.552 0 0 0-.398.461.558.558 0 0 0 .272.545.553.553 0 0 0 .608-.04.552.552 0 0 0 .198-.576.548.548 0 0 0-.72-.43l.04.04Zm6.57-1.82a.552.552 0 0 0-.338.264.557.557 0 0 0-.052.426.56.56 0 0 0 1.017.121.536.536 0 0 0 .053-.421.57.57 0 0 0-.263-.378.567.567 0 0 0-.457-.052l.04.04Zm-38.52 26.38.12 1.08a.564.564 0 0 0 .37-.68.58.58 0 0 0-.49-.4Zm6.38-1.8a.552.552 0 0 0-.398.461.558.558 0 0 0 .272.545.551.551 0 0 0 .548-.954.544.544 0 0 0-.422-.052Zm6.57-1.81a.552.552 0 0 0-.398.461.558.558 0 0 0 .272.545.553.553 0 0 0 .608-.04.552.552 0 0 0-.06-.914.544.544 0 0 0-.422-.052Zm6.57-1.82a.566.566 0 0 0-.39.69.568.568 0 0 0 .69.38.555.555 0 0 0 .397-.466.559.559 0 0 0-.697-.604Zm6.57-1.81a.555.555 0 0 0-.414.467.559.559 0 1 0 1.094-.077.562.562 0 0 0-.258-.338.544.544 0 0 0-.422-.052Zm6.61-1.82a.558.558 0 0 0 .086 1.087.572.572 0 0 0 .408-.113.54.54 0 0 0 .186-.584.559.559 0 0 0-.68-.39Zm6.57-1.81a.558.558 0 0 0 .084 1.086.562.562 0 0 0 .216-.016.567.567 0 0 0 .471-.47.548.548 0 0 0-.015-.235.551.551 0 0 0-.524-.409.557.557 0 0 0-.232.044Zm6.58-1.81a.551.551 0 0 0-.118 1.009.557.557 0 0 0 .609-.049.554.554 0 0 0 .183-.261.559.559 0 0 0 .006-.319.55.55 0 0 0-.72-.38h.04Zm-44 7a.552.552 0 0 0-.398.461.558.558 0 0 0 .272.545.551.551 0 0 0 .806-.616.539.539 0 0 0-.096-.227.538.538 0 0 0-.422-.228.543.543 0 0 0-.242.045l.08.02Zm6.57-1.81a.529.529 0 0 0-.337.258.536.536 0 0 0-.053.422.567.567 0 0 0 .25.387.565.565 0 0 0 .663-.041.548.548 0 0 0 .145-.186.548.548 0 0 0 .012-.46.557.557 0 0 0-.76-.4l.08.02Zm6.57-1.82a.552.552 0 0 0-.398.461.558.558 0 0 0 .272.545.553.553 0 0 0 .608-.04.552.552 0 0 0 .198-.576.547.547 0 0 0-.76-.41l.08.02Zm6.57-1.81a.552.552 0 0 0-.398.461.558.558 0 0 0 .272.545.551.551 0 0 0 .806-.616.539.539 0 0 0-.096-.227.538.538 0 0 0-.422-.228.543.543 0 0 0-.242.045l.08.02Zm6.57-1.82a.552.552 0 0 0-.338.264.557.557 0 0 0-.052.426.56.56 0 0 0 1.017.121.536.536 0 0 0 .053-.421.558.558 0 0 0-.76-.41l.08.02Zm6.57-1.81a.55.55 0 0 0-.387.249.553.553 0 0 0-.069.456.554.554 0 0 0 .524.408.573.573 0 0 0 .232-.043.563.563 0 0 0 .38-.68.539.539 0 0 0-.096-.227.538.538 0 0 0-.422-.228.543.543 0 0 0-.242.045l.08.02Zm6.57-1.82a.558.558 0 0 0 .086 1.087.572.572 0 0 0 .408-.113.54.54 0 0 0 .186-.584.558.558 0 0 0-.76-.41l.08.02Zm-36.79 20.71a.552.552 0 0 0-.398.461.558.558 0 0 0 .272.545.551.551 0 0 0 .548-.954.544.544 0 0 0-.422-.052Zm6.57-1.81a.558.558 0 0 0-.39.68.571.571 0 0 0 .69.39.57.57 0 0 0 .122-1.028.558.558 0 0 0-.422-.052v.01Zm6.57-1.82a.555.555 0 0 0-.414.467.559.559 0 1 0 1.094-.077.538.538 0 0 0-.255-.344.548.548 0 0 0-.425-.056v.01Zm6.57-1.81a.555.555 0 0 0-.414.467.559.559 0 1 0 1.094-.077.538.538 0 0 0-.255-.344.548.548 0 0 0-.425-.056v.01Zm6.57-1.82a.567.567 0 0 0-.38.69.56.56 0 0 0 .261.331.567.567 0 0 0 .419.049.563.563 0 0 0 .39-.68.57.57 0 0 0-.69-.4v.01Zm6.58-1.81a.552.552 0 0 0-.398.461.558.558 0 0 0 .272.545.551.551 0 0 0 .713-.814.55.55 0 0 0-.587-.202v.01Zm6.57-1.82a.552.552 0 0 0-.338.264.557.557 0 0 0-.052.426.56.56 0 0 0 1.017.121.536.536 0 0 0 .053-.421.561.561 0 0 0-.68-.4v.01Z"/>
    <path fill="#263238" d="M284.21 173.152a55.023 55.023 0 0 1 8.1-.8c1.35 0 2.7 0 4 .12l2 .06a8.752 8.752 0 0 0 2.1-.15c.06 0 .08.07 0 .09a14.91 14.91 0 0 1-1.93.48c-.639.091-1.284.138-1.93.14h-4.11c-2.77 0-5.53.06-8.29.28-.04.01-.07-.2.06-.22ZM278.36 177.19a59.944 59.944 0 0 1 6.41-2.05c1.08-.27 2.18-.48 3.29-.67l1.59-.23c.58-.08 1.17-.08 1.76-.17.06 0 .08.08 0 .09-.55.1-1.08.29-1.62.42l-1.63.39c-1.09.26-2.17.54-3.26.79-2.18.5-4.35 1.034-6.51 1.6-.1.04-.13-.13-.03-.17Z"/>
    <path fill="#F7A9A0" d="M289.86 132.561c-.08 1-3.86 8.13-8.4 8.58-1.48.14-2.63-7.91-2.63-7.91l-.22-.57-3.09-8 8.85-7.7 1.29-1s.7 2.25 1.54 5.07l.12.41c.059.147.109.297.15.45.13.42.26.85.38 1.28.12.43.19.65.28 1 .09.35.18.69.28 1a55.783 55.783 0 0 1 1.45 7.39Z"/>
    <path fill="#263238" d="M287.2 120.941a17.302 17.302 0 0 1-8.59 11.72l-3.09-8 8.85-7.7 1.29-1s.7 2.16 1.54 4.98Z"/>
    <path fill="#F7A9A0" d="M261.58 114.19c1.79 15 11 15.64 14.22 15.25 2.94-.35 12.9-1.93 12.68-17.05-.22-15.12-7.78-19-14.55-18.59-6.77.41-14.14 5.37-12.35 20.39Z"/>
    <path fill="#263238" d="M264 110.201c.35-.08.66-.22 1-.33.364-.072.694-.262.94-.54a.528.528 0 0 0-.07-.65 1.332 1.332 0 0 0-1.35-.15 2 2 0 0 0-1.14.83.574.574 0 0 0 .036.622.572.572 0 0 0 .584.218ZM274 109.351c-.35 0-.68-.06-1-.09a1.653 1.653 0 0 1-1-.3.543.543 0 0 1-.08-.65 1.336 1.336 0 0 1 1.27-.47 2 2 0 0 1 1.31.55.57.57 0 0 1-.5.96ZM266.46 113.711s-.07.06-.06.1c.18 1 .21 2.21-.67 2.68 0 0 0 .06 0 0 1.12-.27 1.07-1.85.73-2.78Z"/>
    <path fill="#263238" d="M265.4 112.771c-1.65.11-1.32 3.42.22 3.32 1.54-.1 1.17-3.41-.22-3.32Z"/>
    <path fill="#263238" d="M264.74 113.061c-.25.2-.47.55-.78.6-.31.05-.67-.27-.93-.59 0 .64.32 1.28.94 1.33.62.05.92-.53 1-1.17-.03-.08-.14-.23-.23-.17ZM272.12 113.16s.09 0 .09.08c.1 1 .39 2.18 1.36 2.4v.06c-1.15-.01-1.52-1.55-1.45-2.54Z"/>
    <path fill="#263238" d="M272.89 112.001c1.63-.34 2.19 2.94.68 3.26-1.51.32-2.04-3-.68-3.26Z"/>
    <path fill="#263238" d="M273.61 112.071c.29.13.6.4.91.37.31-.03.57-.44.74-.82h.06c.12.63 0 1.31-.55 1.54-.55.23-1-.27-1.28-.87-.05-.08.01-.29.12-.22ZM268.42 118.151s0 1.55.07 2.27c0 .07.18.08.43.06a3.491 3.491 0 0 0 1.82-.404 3.49 3.49 0 0 0 1.35-1.286c0-.07-.06-.14-.12-.08a5.198 5.198 0 0 1-3 1.27c-.08-.19.13-2.65 0-2.65a6.797 6.797 0 0 0-1.59.57c0-3.23.44-6.45.34-9.67a.101.101 0 0 0-.036-.05.104.104 0 0 0-.059-.019.104.104 0 0 0-.059.019.101.101 0 0 0-.036.05 52.016 52.016 0 0 0-.81 10.4c.01.37 1.43-.33 1.7-.48Z"/>
    <path fill="#263238" d="M268.87 120.001a4.235 4.235 0 0 0 1.7 1.28c.369.133.769.154 1.15.06.83-.23.84-1 .68-1.65a4.444 4.444 0 0 0-.39-1 5.462 5.462 0 0 1-3.14 1.31Z"/>
    <path fill="#FF99BA" d="M270.57 121.272c.369.132.769.153 1.15.06.83-.23.84-1 .68-1.65a1.998 1.998 0 0 0-1.83 1.59Z"/>
    <path fill="#FF9800" d="M266.62 94.42s11.95-7.87 20.42-1.49c8.47 6.38 3 18.65 3 18.65s.88-14.55-6.64-17.36c-7.52-2.81-16.78.2-16.78.2Z"/>
    <path fill="#263238" d="M289.42 115.21a6.559 6.559 0 0 1-4.33-4.84 17.259 17.259 0 0 1-7.65-4.7c.15.31 1.22 2.57 1.8 3.7-10.28-.59-14.37-7.87-14.37-7.87a17.35 17.35 0 0 0-3.56 6.92s-.86-6.15 1.78-10.68c3.23-5.54 16.14-8.58 23-2.77 7.46 6.27 3.33 20.24 3.33 20.24Z"/>
    <path fill="#263238" d="M271.4 108.692a18.952 18.952 0 0 0 5.39 1.23 15.865 15.865 0 0 1-7.94-3.52 15.082 15.082 0 0 1-2.55-2.75 10.257 10.257 0 0 1-1.82-3.65c0-.1-.18-.07-.16 0a12.42 12.42 0 0 0 1.3 3.85 11.069 11.069 0 0 0 2.66 3c.95.741 2 1.344 3.12 1.79"/>
    <path fill="#F7A9A0" d="M286.23 113.831s2.27-5.3 4.6-4.58c2.33.72 1.3 7.92-1 9.35a2.562 2.562 0 0 1-1.954.451 2.561 2.561 0 0 1-1.676-1.101l.03-4.12Z"/>
    <path fill="#263238" d="M290.48 111.311s.06 0 0 .06c-1.58 1.06-2.15 2.85-2.45 4.64a1.41 1.41 0 0 1 2-.81c.06 0 0 .1 0 .1a1.6 1.6 0 0 0-1.59.89 7.528 7.528 0 0 0-.52 1.54c-.05.17-.35.15-.33 0-.49-2.28.58-5.73 2.89-6.42Z"/>
    <g opacity=".7">
      <path fill="#FF9800" d="m344.217 152.874-199.331 22.253 7.333 65.692 199.332-22.253-7.334-65.692Z" opacity=".7"/>
      <path fill="#fff" d="M165.7 191.501a6.848 6.848 0 0 1-1.95 1.08 7.102 7.102 0 0 1-8.885-3.734 7.1 7.1 0 1 1 10.835 2.654Z" opacity=".7"/>
      <path fill="#263238" d="M167.32 189.701a7.253 7.253 0 0 1-1.62 1.79c-.447.354-.938.65-1.46.88l-.49.2a7.382 7.382 0 0 1-2.51.44 7.07 7.07 0 0 1-3-.7 6.914 6.914 0 0 1-2.66-2.2.694.694 0 0 1-.13-.18c0-.23-.05-.46-.08-.69v-.05c-.12-1.067-.23-2.137-.33-3.21a3.804 3.804 0 0 1 1.25-3.35c1-1 2.15-2.51 3.55-2.87a4.078 4.078 0 0 1 2 0h.1c.173.018.343.052.51.1a3.7 3.7 0 0 1 1.45.66h.06c.332.206.596.505.76.86l.07.16.06.15.09.33c.15.6.27 1.16.38 1.7l.06.28c.06.33.13.66.2 1a1.765 1.765 0 0 0 0 .23c.01.056.01.113 0 .17a13.618 13.618 0 0 0 1.1 3.26c.144.3.308.591.49.87l.15.17Z" opacity=".7"/>
      <path fill="#263238" d="M155.6 190.121a.662.662 0 0 1-.13-.18.156.156 0 0 1-.06-.08v-.66c0-1.33-.07-2.66-.1-4 .1 1.64.2 3.28.29 4.92ZM167.39 189.6a.579.579 0 0 1-.07.1 6.163 6.163 0 0 1-.56-.79c-.551-.913-.972-1.9-1.25-2.93-.093-.3-.173-.61-.24-.93-.07-.27-.13-.55-.18-.83-.05-.28-.06-.28-.08-.42-.08-.41-.14-.82-.2-1.22 0-.18-.05-.36-.07-.54a.085.085 0 0 1 0-.05c.022.092.039.186.05.28.1.51.2 1 .3 1.58.022.135.052.269.09.4.05.28.11.57.17.85a.805.805 0 0 0 0 .17c.05.22.1.44.16.66.253 1.02.654 1.997 1.19 2.9.207.276.438.534.69.77Z" opacity=".7"/>
      <path fill="#F7A9A0" d="m164.24 192.381-.49.2a7.382 7.382 0 0 1-2.51.44.847.847 0 0 1-.2-.23 17.984 17.984 0 0 1-.35-2.2v-1a.655.655 0 0 1 0-.14v-1.65l.46.16 3.21 1.22v2.7s-.17.2-.12.5Z" opacity=".7"/>
      <path fill="#263238" d="M160.6 189.331a5.071 5.071 0 0 0 3.54 2.35v-2.52l-3.14-1.22-.46-.16.06 1.55Z" opacity=".7"/>
      <path fill="#F7A9A0" d="M167 184.901c1 4.3-1.43 5.39-2.36 5.61-.93.22-3.74.77-5.2-3.4s.22-6 2.12-6.56c1.9-.56 4.37.04 5.44 4.35Z" opacity=".7"/>
      <path fill="#263238" d="M165.31 184.171H165a.535.535 0 0 1-.31-.05.161.161 0 0 1 0-.19.4.4 0 0 1 .36-.18.542.542 0 0 1 .39.11.165.165 0 0 1 .073.093.165.165 0 0 1-.005.118.164.164 0 0 1-.08.086.167.167 0 0 1-.118.013ZM162.4 185.071l.28-.13a.47.47 0 0 0 .25-.19.15.15 0 0 0 0-.19.435.435 0 0 0-.4 0 .632.632 0 0 0-.3.28.171.171 0 0 0 .17.23ZM165 185.381c.06.29.17.62.45.66-.3.07-.45-.37-.45-.66Z" opacity=".7"/>
      <path fill="#263238" d="M165.2 185.001c.47-.13.71.81.28.93-.43.12-.67-.8-.28-.93Z" opacity=".7"/>
      <path fill="#263238" d="M165.41 185.001c.09 0 .19.11.28.09.09-.02.15-.14.19-.26.04-.12 0 0 0 0 0 .18 0 .38-.12.46-.12.08-.31 0-.4-.22-.09-.22.02-.07.05-.07ZM163.29 185.932c.08.29.11.64-.13.79.3-.07.25-.53.13-.79Z" opacity=".7"/>
      <path fill="#263238" d="M163 185.68c-.48.07-.31 1 .14 1s.22-1.06-.14-1Z" opacity=".7"/>
      <path fill="#263238" d="M162.77 185.781c-.07.06-.12.17-.21.19-.09.02-.2-.06-.29-.15-.09-.09 0 0 0 0 0 .18.12.36.31.36s.25-.17.26-.36c-.01-.02-.04-.07-.07-.04ZM163.94 188.141c.08.05.17.14.28.13a.872.872 0 0 0 .3-.13.413.413 0 0 1-.143.164.412.412 0 0 1-.207.066.32.32 0 0 1-.28-.22s.03-.02.05-.01ZM165 187.341a1.237 1.237 0 0 1-.34.52.524.524 0 0 1-.31.14c-.25 0-.33-.19-.35-.39a1.34 1.34 0 0 1 0-.31c.32.121.671.135 1 .04Z" opacity=".7"/>
      <path fill="#FF99BA" d="M164.64 187.86a.512.512 0 0 1-.31.14c-.25 0-.33-.19-.35-.39a.578.578 0 0 1 .66.25Z" opacity=".7"/>
      <path fill="#FF9800" d="M163.58 180.001s-4.08-1-5.76 1.65c-1.68 2.65 1.05 5.42 1.05 5.42s-1.71-3.9.07-5.43a8.653 8.653 0 0 1 4.64-1.64Z" opacity=".7"/>
      <path fill="#263238" d="M159.42 188.001a1.936 1.936 0 0 0 .7-1.76 5.092 5.092 0 0 0 1.62-2.06c0 .1-.07.82-.12 1.19a5.198 5.198 0 0 0 3.15-3.61c.666.38 1.237.907 1.67 1.54a5.557 5.557 0 0 0-1.56-2.75c-1.44-1.19-5.29-.72-6.6 1.57-1.41 2.45 1.14 5.88 1.14 5.88Z" opacity=".7"/>
      <path fill="#263238" d="M163.7 184.37a5.448 5.448 0 0 1-1.35.89 4.672 4.672 0 0 0 1.82-1.76c.183-.313.324-.649.42-1 .125-.38.172-.781.14-1.18.07.394.07.797 0 1.19-.069.39-.212.763-.42 1.1-.185.3-.414.57-.68.8l.07-.04Z" opacity=".7"/>
      <path fill="#F7A9A0" d="M160.15 187.28s-1.15-1.22-1.72-.79c-.57.43.44 2.3 1.21 2.47a.754.754 0 0 0 .582-.077.748.748 0 0 0 .348-.473l-.42-1.13Z" opacity=".7"/>
      <path fill="#263238" d="M158.73 187.002a1.874 1.874 0 0 1 1.14 1 .44.44 0 0 0-.143-.102.44.44 0 0 0-.344 0 .44.44 0 0 0-.143.102.453.453 0 0 1 .52.08c.111.114.212.238.3.37h.09c-.07-.64-.71-1.45-1.42-1.45Z" opacity=".7"/>
      <path fill="#000" d="M334.17 161.92a.475.475 0 0 1 .503.225.47.47 0 1 1-.503-.225ZM335.61 161.761a.468.468 0 0 1 .11.93.467.467 0 0 1-.396-.745.473.473 0 0 1 .286-.185ZM337.06 161.602a.477.477 0 0 1 .52.41.472.472 0 0 1-.236.466.469.469 0 0 1-.683-.538.47.47 0 0 1 .399-.338Z" opacity=".7"/>
      <path fill="#263238" d="m158.9 210.601 17.57-2.18 14.53-1.74 29.08-3.35 29.1-3.15 14.56-1.5 14.56-1.4-14.52 1.83-14.53 1.75-29.08 3.35-29.1 3.14-14.56 1.5-17.61 1.75ZM159.35 214.622c7-1 17.13-2.18 24.18-3l21.15-2.46 21.18-2.26 10.6-1.06 10.6-1-10.56 1.4-10.57 1.31-21.15 2.45-21.18 2.26c-7.06.74-17.17 1.74-24.25 2.36ZM159.8 218.652c4.69-.71 12.44-1.66 17.14-2.26 4.7-.6 9.42-1.12 14.12-1.68 4.7-.56 9.43-1 14.15-1.47l7.08-.67c2.36-.19 4.72-.41 7.09-.57-2.34.36-4.7.67-7 1l-7.06.91c-4.7.6-9.41 1.12-14.12 1.68-4.71.56-9.42 1-14.14 1.48-4.72.48-12.53 1.23-17.26 1.58Z" opacity=".7"/>
      <g opacity=".7">
        <path fill="#fff" d="M164.55 233.051a.56.56 0 0 1-.36-.07l-.1-.06a.502.502 0 0 0-.3-.09.23.23 0 0 1-.2 0 .221.221 0 0 1-.08-.19l-.28-2.38a.3.3 0 0 1 .13-.31c.358-.282.635-.655.8-1.08l.21-.41a2.21 2.21 0 0 0 .22-1.72.406.406 0 0 1 .029-.325.388.388 0 0 1 .11-.125.387.387 0 0 1 .151-.07.571.571 0 0 1 .67.15c.219.324.381.682.48 1.06.04.215.04.435 0 .65a2.805 2.805 0 0 0 0 .29c.01.156.01.313 0 .47l2-.23c.14 0 .54-.06.67.33a.687.687 0 0 1-.22.75.47.47 0 0 1 .2.35.673.673 0 0 1-.24.59.52.52 0 0 1 .2.45.706.706 0 0 1-.28.52.506.506 0 0 1 .18.34.637.637 0 0 1-.23.53l-.08.07a.764.764 0 0 1-.43.16l-3.15.36-.1-.01Zm-.71-.56a.865.865 0 0 1 .41.13l.1.05h.16l3.14-.36c.13 0 .2 0 .25-.07l.08-.07a.306.306 0 0 0 .12-.24c0-.07-.06-.14-.16-.19a.212.212 0 0 1-.089-.073.216.216 0 0 1-.041-.107.263.263 0 0 1 .09-.2l.11-.06a.362.362 0 0 0 .19-.28.21.21 0 0 0-.07-.17c-.09 0-.24-.07-.25-.23a.274.274 0 0 1 .053-.179.272.272 0 0 1 .157-.101.386.386 0 0 0 .17-.3.192.192 0 0 0-.11-.15c-.18 0-.23-.14-.23-.23a.238.238 0 0 1 .056-.166.236.236 0 0 1 .154-.084.363.363 0 0 0 .16-.41c0-.06 0-.13-.3-.1l-2 .23a.386.386 0 0 1-.28 0l-.09-.06v-.31c.01-.15.01-.3 0-.45v-.31c.03-.182.03-.368 0-.55a2.996 2.996 0 0 0-.44-.94.277.277 0 0 0-.27 0c-.09 0-.09.05-.07.12a2.524 2.524 0 0 1-.25 2c-.07.13-.14.26-.2.4a2.837 2.837 0 0 1-.9 1.2l.35 2.26Zm0 .06-.15.07h.17l-.02-.07Z" opacity=".7"/>
        <path fill="#fff" d="M161.51 233.61a.335.335 0 0 1-.25-.05.384.384 0 0 1-.12-.26c0-.37-.08-.74-.12-1.11l-.09-.74c0-.39-.08-.77-.13-1.16a.315.315 0 0 1 0-.25.28.28 0 0 1 .22-.1l1.83-.21a.277.277 0 0 1 .24 0c.064.06.104.142.11.23.11 1 .22 2 .34 3a.312.312 0 0 1-.05.26.37.37 0 0 1-.24.11c-.6.06-1.19.12-1.78.2l.04.08Zm-.2-1.85.05.39c0 .37.09.74.12 1.12l1.77-.2c-.12-1-.23-2-.34-3l-1.77.2c.05.4.09.77.13 1.14l.04.35Z" opacity=".7"/>
      </g>
      <path fill="#fff" d="M175.35 228.452a1.907 1.907 0 0 1-.98 3.38 2.001 2.001 0 0 1-1.4-.41.443.443 0 0 1 .23-.773.424.424 0 0 1 .32.093.99.99 0 0 0 .75.22 1.003 1.003 0 0 0 .898-.74.994.994 0 0 0 .022-.41 1.004 1.004 0 0 0-.38-.68 1.005 1.005 0 0 0-.76-.23.4.4 0 0 1-.33-.1.43.43 0 0 1-.08-.6l.69-.88-1.23.13a.42.42 0 0 1-.319-.09.427.427 0 0 1-.068-.607.443.443 0 0 1 .287-.163l2.25-.25a.442.442 0 0 1 .48.38.465.465 0 0 1 0 .21.8.8 0 0 1-.07.12l-.85 1.09c.196.072.379.177.54.31ZM181.38 229.62a.414.414 0 0 1-.094.309.419.419 0 0 1-.286.151h-.08l.07.58a.413.413 0 0 1-.091.31.418.418 0 0 1-.284.155.427.427 0 0 1-.465-.375l-.06-.57-2.39.26a.37.37 0 0 1-.27-.06.403.403 0 0 1-.201-.425.416.416 0 0 1 .061-.155l2.43-3.81h.28v.05a.085.085 0 0 1 0 .05l.34 3.07h.08a.534.534 0 0 1 .982.053.534.534 0 0 1-.022.407Zm-1.6-2.15-1.3 2 1.51-.17-.21-1.83Z" opacity=".7"/>
      <g opacity=".7">
        <path fill="#fff" d="M195.81 222.941a.434.434 0 0 1 .35.07l.11.05a.475.475 0 0 0 .3.09.224.224 0 0 1 .095-.022c.033 0 .065.008.095.022a.253.253 0 0 1 .067.085.255.255 0 0 1 .023.105l.27 2.38a.295.295 0 0 1-.011.174.297.297 0 0 1-.109.136 2.47 2.47 0 0 0-.81 1.09c-.07.13-.13.27-.21.41a2.206 2.206 0 0 0-.21 1.71.394.394 0 0 1 .015.167.404.404 0 0 1-.315.353.553.553 0 0 1-.66-.15 3.523 3.523 0 0 1-.49-1 2.087 2.087 0 0 1 0-.66v-.76l-2 .22c-.14 0-.54.06-.67-.33a.699.699 0 0 1 .22-.75.547.547 0 0 1-.2-.35.711.711 0 0 1 .25-.59.54.54 0 0 1-.19-.45.665.665 0 0 1 .28-.52.563.563 0 0 1-.19-.34.625.625 0 0 1 .24-.53l.08-.07a.741.741 0 0 1 .42-.16l3.15-.36.1-.02Zm.71.56a.9.9 0 0 1-.42-.14l-.1-.05h-.16l-3.14.36c-.12 0-.19 0-.24.07l-.08.07c-.09.09-.14.17-.13.24a.304.304 0 0 0 .17.2.248.248 0 0 1 .13.17.239.239 0 0 1-.1.2.27.27 0 0 1-.1.06.33.33 0 0 0-.19.29.175.175 0 0 0 .008.088.178.178 0 0 0 .052.072c.061.005.119.03.163.073a.26.26 0 0 1-.113.437.358.358 0 0 0-.17.31c.004.03.015.058.032.083a.187.187 0 0 0 .068.057.24.24 0 0 1 .03.48.351.351 0 0 0-.16.41c0 .06 0 .13.3.1l2-.23a.416.416 0 0 1 .27 0l.1.06v1.07a2.026 2.026 0 0 0 0 .55c.094.336.242.653.44.94 0 .05.15.07.27 0 .12-.07.09-.05.08-.11a2.486 2.486 0 0 1-.09-1.025c.041-.345.153-.676.33-.975.08-.13.14-.26.21-.4.185-.472.492-.886.89-1.2l-.35-2.26Zm0-.07.16-.07h-.17a.083.083 0 0 0 .01.07Z" opacity=".7"/>
        <path fill="#fff" d="M198.85 222.371a.344.344 0 0 1 .25.05.413.413 0 0 1 .11.26c0 .37.08.74.13 1.11l.08.74c0 .39.09.77.14 1.16a.354.354 0 0 1-.05.25.353.353 0 0 1-.22.11c-.62.06-1.23.13-1.84.21a.337.337 0 0 1-.24-.06.305.305 0 0 1-.1-.23c-.11-1-.23-2-.35-3a.387.387 0 0 1 .05-.27.385.385 0 0 1 .25-.11c.59-.06 1.18-.12 1.77-.2l.02-.02Zm.19 1.85v-.39c-.05-.37-.09-.74-.13-1.11-.61.08-1.19.14-1.77.2.12 1 .23 2 .34 3l1.77-.2c0-.4-.09-.77-.13-1.14l-.08-.36Z" opacity=".7"/>
      </g>
      <path fill="#fff" d="M206.74 225.001a1.856 1.856 0 0 1 .7 1.27 1.918 1.918 0 0 1-.4 1.4 1.94 1.94 0 0 1-1.28.7 1.91 1.91 0 0 1-1.4-.4.449.449 0 0 1-.07-.61.43.43 0 0 1 .61-.07 1 1 0 0 0 .76.22 1.07 1.07 0 0 0 .7-.38 1.007 1.007 0 0 0-.16-1.46 1.065 1.065 0 0 0-.76-.22.403.403 0 0 1-.33-.1.44.44 0 0 1-.08-.61l.69-.88-1.24.14a.432.432 0 0 1-.09-.86l2.24-.25a.434.434 0 0 1 .438.216.437.437 0 0 1 .052.164.465.465 0 0 1 0 .21.33.33 0 0 1-.06.12l-.85 1.09c.195.07.374.175.53.31Z" opacity=".7"/>
      <path fill="#455A64" d="m203.905 193.41-46.292 5.168.925 8.289 46.293-5.168-.926-8.289Z" opacity=".7"/>
      <path fill="#fff" d="m163.64 203.201-.31-2.72a.258.258 0 0 1 .23-.28l1.5-.16a.265.265 0 0 1 .216.036.252.252 0 0 1 .077.082.26.26 0 0 1-.038.314.261.261 0 0 1-.205.078l-1.24.14.09.84 1.07-.12a.268.268 0 0 1 .29.23.26.26 0 0 1-.23.28l-1.09.08.12 1.11a.261.261 0 0 1-.008.1.239.239 0 0 1-.047.089.252.252 0 0 1-.175.091.242.242 0 0 1-.25-.19ZM168.11 201.79l.1.91a.249.249 0 0 1-.22.27.26.26 0 0 1-.26-.17.997.997 0 0 1-.59.26 1.065 1.065 0 0 1-.82-.24 1.208 1.208 0 0 1-.4-.78 1.123 1.123 0 0 1 .22-.85 1.009 1.009 0 0 1 .74-.43c.222-.023.445.022.64.13a.281.281 0 0 1 .22-.23.262.262 0 0 1 .27.23l.1.9Zm-.49.06a.704.704 0 0 0-.23-.46.588.588 0 0 0-.45-.14.546.546 0 0 0-.41.24.675.675 0 0 0-.12.49.676.676 0 0 0 .23.46.58.58 0 0 0 .45.13.573.573 0 0 0 .4-.23.68.68 0 0 0 .13-.49ZM170.65 200.711l-.55 1.87h-.16l-1-1.7a.236.236 0 0 1-.018-.186.242.242 0 0 1 .388-.118.254.254 0 0 1 .06.074l.67 1.19.39-1.31a.24.24 0 0 1 .29-.17.23.23 0 0 1 .007.284.233.233 0 0 1-.077.066ZM171.77 202.212a1.16 1.16 0 0 1-.41-.78 1.138 1.138 0 0 1 .23-.84 1.094 1.094 0 0 1 .75-.44 1.052 1.052 0 0 1 .81.26c.234.196.381.476.41.78a1.11 1.11 0 0 1-.23.84 1.001 1.001 0 0 1-.73.44 1.12 1.12 0 0 1-.83-.26Zm.09-.83a.768.768 0 0 0 .22.47.639.639 0 0 0 .87-.1.76.76 0 0 0-.11-1 .639.639 0 0 0-.44-.13.681.681 0 0 0-.43.23.75.75 0 0 0-.11.53ZM175.57 200.002a.25.25 0 0 1-.22.27.42.42 0 0 0-.26.12.636.636 0 0 0-.19.24 1.393 1.393 0 0 0-.15.41l.1.88a.25.25 0 1 1-.5.05l-.2-1.81a.232.232 0 0 1 .052-.182.231.231 0 0 1 .168-.088.25.25 0 0 1 .28.21l.09-.1c.158-.136.353-.223.56-.25a.237.237 0 0 1 .193.062.253.253 0 0 1 .06.085.243.243 0 0 1 .017.103ZM176.58 199.091a.246.246 0 0 1-.032.207.262.262 0 0 1-.077.075.239.239 0 0 1-.101.035.243.243 0 0 1-.199-.064.251.251 0 0 1-.081-.193v-.1a.25.25 0 0 1 .39-.189.247.247 0 0 1 .1.139v.09Zm.1.84.2 1.8a.252.252 0 0 1-.25.25.252.252 0 0 1-.25-.25l-.2-1.8a.254.254 0 0 1 .051-.186.241.241 0 0 1 .075-.064.241.241 0 0 1 .205-.015.26.26 0 0 1 .169.265ZM178.51 199.721a.272.272 0 0 1-.23.28h-.12l.14 1.29a.26.26 0 0 1 .17.49.258.258 0 0 1-.11.019.522.522 0 0 1-.57-.449l-.14-1.29h-.13a.269.269 0 0 1-.29-.23.258.258 0 0 1 .23-.28h.13l-.07-.66a.243.243 0 0 1 .005-.104.228.228 0 0 1 .046-.092.239.239 0 0 1 .079-.066.234.234 0 0 1 .1-.028.26.26 0 0 1 .28.23l.07.67h.12a.27.27 0 0 1 .29.22ZM185.16 200.28l-1.12.13-.16.62a.246.246 0 0 1-.22.19h-.09a.263.263 0 0 1-.159-.122.273.273 0 0 1-.031-.198l.71-2.83a.284.284 0 0 1 .23-.19.269.269 0 0 1 .152.03.266.266 0 0 1 .108.11l1.32 2.6a.258.258 0 0 1 .017.198.253.253 0 0 1-.127.152h-.09a.238.238 0 0 1-.25-.13l-.29-.56Zm-.25-.48-.48-1-.27 1h.75ZM188.29 199.342l.13 1.1a.24.24 0 0 1-.22.27.228.228 0 0 1-.094-.007.24.24 0 0 1-.176-.203l-.12-1.11a.478.478 0 0 0-.53-.41.447.447 0 0 0-.315.172.454.454 0 0 0-.095.348l.12 1.1v.05a.253.253 0 0 1-.5.01l-.12-1.1-.08-.72a.249.249 0 0 1 .22-.27.239.239 0 0 1 .24.12.863.863 0 0 1 .47-.2.997.997 0 0 1 1.07.85ZM194.29 198.072l-.56 1.88h-.24l-.43-.76-.24.83h-.19l-1-1.7a.24.24 0 0 1-.029-.094.245.245 0 0 1 .129-.246.237.237 0 0 1 .183-.011c.06.02.109.064.137.121l.68 1.18.24-.81a.248.248 0 0 1 .21-.17.239.239 0 0 1 .24.12l.41.73.41-1.3a.231.231 0 0 1 .197-.178.225.225 0 0 1 .093.008.24.24 0 0 1 .07.14.243.243 0 0 1-.153.255.241.241 0 0 1-.157.005ZM194.94 198.791a1.152 1.152 0 0 1 1-1.27 1.098 1.098 0 0 1 1.23.94s-.09.19-.22.21l-1.46.16a.573.573 0 0 0 .19.29c.13.104.293.161.46.16a.794.794 0 0 0 .47-.17.275.275 0 0 1 .166-.091.272.272 0 0 1 .184.041.221.221 0 0 1 0 .3 1.136 1.136 0 0 1-.79.39 1.163 1.163 0 0 1-1.23-.96Zm.48-.28 1.31-.14a.778.778 0 0 0-.73-.37.664.664 0 0 0-.58.51ZM199.13 197.412a.25.25 0 0 1-.006.094.234.234 0 0 1-.114.146.24.24 0 0 1-.09.03.415.415 0 0 0-.27.12.74.74 0 0 0-.19.24 1.285 1.285 0 0 0-.14.41l.09.88a.25.25 0 0 1-.402.218.232.232 0 0 1-.061-.075.222.222 0 0 1-.027-.093l-.21-1.81a.249.249 0 0 1 .22-.27.227.227 0 0 1 .097.003.238.238 0 0 1 .183.207l.08-.1c.158-.137.353-.223.56-.25a.242.242 0 0 1 .262.144c.014.034.02.07.018.106ZM175.49 183.691l-.77.09.15 1.35a.351.351 0 0 1-.563.309.325.325 0 0 1-.086-.102.333.333 0 0 1-.041-.127l-.41-3.68a.346.346 0 0 1 .074-.25.348.348 0 0 1 .226-.13l1.11-.12a1.334 1.334 0 0 1 1.379.66 1.331 1.331 0 0 1 .118 1.049 1.338 1.338 0 0 1-1.197.951h.01Zm-.85-.6.77-.09a.642.642 0 0 0 .494-.95.633.633 0 0 0-.384-.308.64.64 0 0 0-.25-.022l-.77.08.14 1.29ZM180.24 183.311l.14 1.22a.338.338 0 0 1-.29.37.365.365 0 0 1-.36-.24 1.456 1.456 0 0 1-.8.37 1.504 1.504 0 0 1-1.11-.34 1.656 1.656 0 0 1-.24-2.2 1.456 1.456 0 0 1 1-.58c.299-.035.6.028.86.18a.351.351 0 0 1 .3-.31.336.336 0 0 1 .246.074c.07.056.114.137.124.226l.13 1.23Zm-.66.07a.994.994 0 0 0-.31-.61.725.725 0 0 0-.61-.19.71.71 0 0 0-.55.32.9.9 0 0 0-.17.66.999.999 0 0 0 .31.62.818.818 0 0 0 .61.18.829.829 0 0 0 .55-.31c.14-.194.2-.433.17-.67ZM182.87 184.59a1.322 1.322 0 0 1-1.44-1.16l-.17-1.49a.332.332 0 0 1 .29-.36.343.343 0 0 1 .37.29l.17 1.49a.63.63 0 0 0 .7.57.66.66 0 0 0 .59-.71l-.17-1.49a.33.33 0 0 1 .29-.37.348.348 0 0 1 .37.29l.17 1.49a1.328 1.328 0 0 1-1.17 1.45ZM185.16 179.912a.36.36 0 0 1 .39.31l.41 3.67a.355.355 0 0 1-.31.39.352.352 0 0 1-.259-.075.342.342 0 0 1-.131-.235l-.41-3.68a.35.35 0 0 1 .31-.38ZM189.27 182.302l.14 1.22a.338.338 0 0 1-.29.37.354.354 0 0 1-.36-.23 1.451 1.451 0 0 1-1.91 0 1.585 1.585 0 0 1-.54-1.05 1.55 1.55 0 0 1 .3-1.14 1.42 1.42 0 0 1 1.86-.41.356.356 0 0 1 .3-.31.336.336 0 0 1 .246.074c.07.056.114.137.124.226l.13 1.25Zm-.66.07a.896.896 0 0 0-.594-.773.765.765 0 0 0-.326-.027.714.714 0 0 0-.55.32.996.996 0 0 0 .14 1.28.773.773 0 0 0 .61.18.764.764 0 0 0 .55-.31c.14-.194.2-.434.17-.67ZM192.57 183.162l-.42-3.68a.35.35 0 0 1 .31-.38l.73-.08a2.193 2.193 0 1 1 .49 4.36l-.73.08a.35.35 0 0 1-.253-.071.337.337 0 0 1-.127-.229Zm.65-.43h.38a1.51 1.51 0 0 0-.33-3h-.38l.33 3ZM197.26 179.001a.35.35 0 0 1-.012.133.354.354 0 0 1-.166.203.348.348 0 0 1-.26.026.335.335 0 0 1-.203-.165.348.348 0 0 1-.039-.127v-.07a.327.327 0 0 1 .173-.333.338.338 0 0 1 .127-.037.314.314 0 0 1 .133.007.311.311 0 0 1 .203.164c.02.04.032.084.034.129l.01.07Zm.12 1.12.27 2.43a.332.332 0 0 1-.423.37.341.341 0 0 1-.247-.29l-.27-2.43a.324.324 0 0 1 .067-.256.326.326 0 0 1 .233-.124.314.314 0 0 1 .267.08.322.322 0 0 1 .103.26v-.04ZM198.37 181.281a1.6 1.6 0 0 1 1.41-1.74c.35-.029.701.055 1 .24a.343.343 0 0 1 .12.45.353.353 0 0 1-.088.097.321.321 0 0 1-.25.059.335.335 0 0 1-.122-.046.996.996 0 0 0-.62-.13.9.9 0 1 0 .2 1.79c.214-.027.414-.121.57-.27a.347.347 0 0 1 .48 0 .351.351 0 0 1 0 .47 1.724 1.724 0 0 1-1 .44 1.589 1.589 0 0 1-1.7-1.36ZM202.28 182.07l-.41-3.67a.358.358 0 0 1 .3-.39.351.351 0 0 1 .39.31l.24 2.15 1.14-1.42a.351.351 0 0 1 .48-.05.338.338 0 0 1 .124.369.344.344 0 0 1-.064.121l-.83 1 1.09 1a.353.353 0 0 1 0 .49.292.292 0 0 1-.21.11.306.306 0 0 1-.27-.1l-1-1-.31.38.06.55a.347.347 0 0 1-.314.336.346.346 0 0 1-.376-.266l-.04.08ZM205.26 180.511a1.558 1.558 0 0 1 .316-1.145 1.558 1.558 0 0 1 1.034-.585 1.49 1.49 0 0 1 1.66 1.28v.06a.29.29 0 0 1-.29.28l-2 .22a.783.783 0 0 0 .25.39c.179.143.401.221.63.22a1.07 1.07 0 0 0 .63-.23.343.343 0 0 1 .117-.078.348.348 0 0 1 .276 0 .343.343 0 0 1 .117.078.276.276 0 0 1 .062.308.262.262 0 0 1-.062.092 1.577 1.577 0 0 1-1.656.472 1.58 1.58 0 0 1-1.104-1.322l.02-.04Zm.64-.38 1.77-.2a1.002 1.002 0 0 0-1-.56.906.906 0 0 0-.77.76ZM211.84 179.511l.16 1.49a.34.34 0 0 1-.29.37.336.336 0 0 1-.246-.074.336.336 0 0 1-.124-.226l-.16-1.49a.633.633 0 0 0-.47-.534.64.64 0 0 0-.25-.016.632.632 0 0 0-.56.7l.17 1.48v.07a.338.338 0 0 1-.31.3.327.327 0 0 1-.36-.29l-.17-1.49-.11-1a.326.326 0 0 1 .176-.323.318.318 0 0 1 .124-.037.312.312 0 0 1 .32.16 1.288 1.288 0 0 1 1.844.242c.138.187.223.407.246.638l.01.03ZM213 180.321a.316.316 0 0 1 .091-.098.343.343 0 0 1 .122-.054.329.329 0 0 1 .257.052c.208.143.458.214.71.2a.866.866 0 0 0 .41-.17.226.226 0 0 0 .07-.089.224.224 0 0 0 .02-.111.102.102 0 0 0 0-.06.247.247 0 0 0-.09-.07 1.389 1.389 0 0 0-.52-.11 2.607 2.607 0 0 1-.56-.11 1.002 1.002 0 0 1-.47-.31.802.802 0 0 1-.15-.38.916.916 0 0 1 .29-.73c.214-.175.475-.283.75-.31.351-.036.703.049 1 .24a.34.34 0 0 1 .15.45.33.33 0 0 1-.45.13 1.18 1.18 0 0 0-.6-.16.624.624 0 0 0-.36.15.208.208 0 0 0-.09.16c.018.029.047.05.08.06.149.063.308.097.47.1.204.014.406.054.6.12a.997.997 0 0 1 .49.32.79.79 0 0 1 .16.4.912.912 0 0 1-.066.416.91.91 0 0 1-.244.344c-.219.19-.491.309-.78.34a1.82 1.82 0 0 1-1.16-.3.351.351 0 0 1-.13-.42Z" opacity=".7"/>
    </g>
    <path fill="#F7A9A0" d="M303.64 140.122c6.7 13 21.41 39.59 18.56 50-3.74 13.73-26.31 29.85-32.13 34.35-2.54 2-16.55-14.14-15.92-17.51.63-3.37 24.13-24.15 25.34-26.41 1.21-2.26-5.54-24.11-7.15-36.42-2.04-15.49 5.66-15.02 11.3-4.01Z"/>
    <path fill="#F7A9A0" d="M268.37 213.771c.79-1.43.05-1.86-2.63-.72-2.68 1.14-12.31 7.87-14.38 4.31-2.07-3.56 11.66-12.88 16.26-14.42 4.6-1.54 12.58-2.42 12.58-2.42-2.31 2.35-7.36 8.58-11.83 13.25Z"/>
    <path fill="#F7A9A0" d="M295.54 219.301c-6.74 6.39-14.75 14.74-25 17.09a5.164 5.164 0 0 1-3.38-.28c-4.56 1.13-6.46-.68-6.46-.68-4.57-.24-6.26-2.36-6.26-2.36s-5.36 1.27-6.67-1.85c-1.48-3.48 6.35-4.59 10.28-7.83 9-7.41 19.73-20.48 22.11-22.87l15.38 18.78Z"/>
    <path fill="#263238" d="M273 222.251a75.135 75.135 0 0 1-8.26 6.05 76.187 76.187 0 0 1-10.2 4.7.085.085 0 0 0-.044.033.087.087 0 0 0-.016.052.089.089 0 0 0 .06.085 39.585 39.585 0 0 0 18.49-10.75c.17-.17.09-.27-.03-.17ZM281 229.661c-4.78 3.1-8.19 4.45-13.83 6.42v.06c6.64-1.56 8.88-2.88 13.93-6.33.24-.12.12-.27-.1-.15Z"/>
    <path fill="#455A64" d="m294.27 161.12 22.36-.12s-11.53-21.72-16.72-27.15c-5.85-6.11-7.89-2-8.14 6-.25 8 2.5 21.27 2.5 21.27Z"/>
    <path fill="#263238" d="M295 157.07c2.84-.4 11.54-.4 13-.41.76 0 3.78.09 4.54.08.1 0 .08.15 0 .15-1.45 0-2.89.2-4.34.24-1.45.04-10.29.35-13.17.05a.056.056 0 0 1-.035-.013.064.064 0 0 1-.02-.031.059.059 0 0 1 .002-.037.055.055 0 0 1 .023-.029ZM292.4 151.711c-.3-1.14-.6-2.28-.86-3.43.26.83.49 1.66.72 2.5a81.82 81.82 0 0 1-.42-5.17h.05c.5 2.57.85 5.17 1.29 7.75.44 2.58.82 5.08 1.2 7.62.51.08 1 .15 1.53.2a.081.081 0 0 1 .099.038.08.08 0 0 1-.061.117.082.082 0 0 1-.038-.005c-.56 0-1.12.04-1.68.12a.255.255 0 0 1-.187-.035.264.264 0 0 1-.113-.155c-.62-3.15-1.15-6.35-1.53-9.55Z"/>
    <path fill="#F7A9A0" d="M235 160.691c-4.17-.43-10.13-3.12-13.18-2.43a3.567 3.567 0 0 0-2.89 3.14s-2.49-2.4-5.15-1.32c-1.37.56-1.68 3.24-1.68 3.24a4.277 4.277 0 0 0-4.39-.73c-1.84.88-1.88 3.43-1.88 3.43s-2.81-.83-4.39.67c-3.21 3 2.65 19.52 9.63 19.9 3.25.18 1.6-3.77 1.6-3.77s3.74 5.11 7.17 4c3.43-1.11 1-6.12 1-6.12s3.67 4.92 7.11 3.39c3.44-1.53.26-6.16.26-6.16s3.79 2.78 6.15 1c3.91-2.92-4.08-7.89-4.51-11.82l5.15-4.11v-2.31Z"/>
    <path fill="#F7A9A0" d="M228.59 159.23c4 .06 6.79-5.86 10.61-6.35 5.17-.67 2.39 6.41-4.16 10.1l-5.58 2-.87-5.75Z"/>
    <path fill="#263238" d="M205.72 166.42h-.09a30.338 30.338 0 0 0 7.05 16.62c.13.15.43 0 .31-.19a62.522 62.522 0 0 1-7.27-16.43ZM212 163.25c0-.07-.12 0-.12 0a28.438 28.438 0 0 0 8.83 17.65c.17.16.49.12.3-.08-3.23-3.27-7.59-12.1-9.01-17.57ZM228.62 178.121c-4.79-4.58-7.64-10.24-9.73-16.47 0-.08-.14 0-.13 0 .19 3.33 1.93 7.16 3.54 10a17.524 17.524 0 0 0 6.16 6.57c.11.14.27 0 .16-.1Z"/>
    <path fill="#fff" d="M353.38 73.45a23.168 23.168 0 0 1-25.181 23.092 23.171 23.171 0 0 1-11.819-4.493l-11.35 2.89 4.72-10.57a23.172 23.172 0 0 1 14.801-33.405A23.17 23.17 0 0 1 353.35 73.45h.03Z"/>
    <path fill="#263238" d="M353.38 73.45A23.304 23.304 0 0 1 350 85.61a26.293 26.293 0 0 1-1.83 2.63 26.87 26.87 0 0 1-2.22 2.31 22.892 22.892 0 0 1-14.48 6.21c-1.071.09-2.149.09-3.22 0a23.341 23.341 0 0 1-12-4.43l.3.06-11.33 3-.88.23.37-.84 4.69-10.58v.42a23.472 23.472 0 0 1-2.776-10.27 23.473 23.473 0 0 1 2.046-10.44 23.693 23.693 0 0 1 6.43-8.44 23.544 23.544 0 0 1 20-4.84 23.659 23.659 0 0 1 9.46 4.53 23.3 23.3 0 0 1 8.82 18.29Zm0 0a22.89 22.89 0 0 0-8.902-18.169 22.899 22.899 0 0 0-19.828-4.022 22.602 22.602 0 0 0-9.11 4.76 23.876 23.876 0 0 0-6.1 8.23 22.814 22.814 0 0 0 .77 19.9l.11.21-.1.21-4.76 10.55-.51-.6 11.37-2.82h.17l.13.1a22.83 22.83 0 0 0 11.62 4.53c1.05.1 2.107.12 3.16.06a22.297 22.297 0 0 0 3.15-.34 22.815 22.815 0 0 0 6-2 21.54 21.54 0 0 0 5.25-3.57 26.736 26.736 0 0 0 2.22-2.29 24.9 24.9 0 0 0 1.84-2.6 23.222 23.222 0 0 0 3.52-12.14Z"/>
    <path fill="#FF9800" d="m326.46 87.23-10.39-10.51 3.49-3.44 6.07 6.13 12.6-19.75 4.13 2.64-15.9 24.93Z"/>
  </svg>
  