<svg width="97" height="180" viewbox="0 0 97 180" fill="none" xmlns="http://www.w3.org/2000/svg">
	<path d="M72.1957 159.388H35.0216C32.9383 159.388 31.2363 157.733 31.2363 155.712V154.326C31.2363 152.303 32.9405 150.65 35.0216 150.65H72.1957C74.2791 150.65 75.981 152.305 75.981 154.326V155.712C75.981 157.733 74.2769 159.388 72.1957 159.388Z" fill="#A7ADFF"/>
	<path d="M72.1955 168.889H35.0214C32.938 168.889 31.2361 167.233 31.2361 165.212V163.827C31.2361 161.803 32.9402 160.15 35.0214 160.15H72.1955C74.2788 160.15 75.9808 161.806 75.9808 163.827V165.212C75.9808 167.236 74.2766 168.889 72.1955 168.889Z" fill="#A7ADFF"/>
	<path d="M72.1955 178.485H35.0214C32.938 178.485 31.2361 176.83 31.2361 174.809V173.424C31.2361 171.4 32.9402 169.747 35.0214 169.747H72.1955C74.2788 169.747 75.9808 171.402 75.9808 173.424V174.809C75.9808 176.83 74.2766 178.485 72.1955 178.485Z" fill="#A7ADFF"/>
	<path d="M34.8845 155.951C35.4544 155.951 35.9163 155.503 35.9163 154.949C35.9163 154.396 35.4544 153.947 34.8845 153.947C34.3147 153.947 33.8528 154.396 33.8528 154.949C33.8528 155.503 34.3147 155.951 34.8845 155.951Z" fill="white"/>
	<path d="M72.0564 155.951C72.6262 155.951 73.0882 155.503 73.0882 154.949C73.0882 154.396 72.6262 153.947 72.0564 153.947C71.4866 153.947 71.0247 154.396 71.0247 154.949C71.0247 155.503 71.4866 155.951 72.0564 155.951Z" fill="white"/>
	<path d="M35.092 165.111C35.6619 165.111 36.1238 164.663 36.1238 164.109C36.1238 163.556 35.6619 163.107 35.092 163.107C34.5222 163.107 34.0603 163.556 34.0603 164.109C34.0603 164.663 34.5222 165.111 35.092 165.111Z" fill="white"/>
	<path d="M72.2637 165.111C72.8335 165.111 73.2954 164.663 73.2954 164.109C73.2954 163.556 72.8335 163.107 72.2637 163.107C71.6939 163.107 71.2319 163.556 71.2319 164.109C71.2319 164.663 71.6939 165.111 72.2637 165.111Z" fill="white"/>
	<path d="M35.092 175.064C35.6619 175.064 36.1238 174.615 36.1238 174.062C36.1238 173.508 35.6619 173.06 35.092 173.06C34.5222 173.06 34.0603 173.508 34.0603 174.062C34.0603 174.615 34.5222 175.064 35.092 175.064Z" fill="white"/>
	<path d="M72.2637 175.064C72.8335 175.064 73.2954 174.615 73.2954 174.062C73.2954 173.508 72.8335 173.06 72.2637 173.06C71.6939 173.06 71.2319 173.508 71.2319 174.062C71.2319 174.615 71.6939 175.064 72.2637 175.064Z" fill="white"/>
	<path d="M54.2542 42.6333C52.3164 44.7295 49.8098 47.239 48.681 49.9219C48.5906 50.1381 48.5134 50.3929 48.6237 50.6006C50.0787 53.3199 71.7699 33.5889 74.0737 31.5397C78.9216 27.2252 83.4366 23.915 87.6386 18.9645C88.4455 18.0138 89.2722 16.9882 89.4751 15.7463C89.5941 14.9755 85.8904 16.5771 85.1717 16.9325C79.6712 19.6476 73.2139 24.4117 68.7209 28.4479C63.7054 32.9551 58.8376 37.6764 54.2542 42.6333Z" fill="#4B369D"/>
	<path d="M96.7098 7.68902C96.5841 6.68052 96.3328 5.69771 95.936 4.77272C94.9946 2.57371 93.2794 0.477485 90.7574 0C94.8491 2.50305 90.9293 7.38069 87.984 9.357C87.2564 9.8452 86.4628 10.2649 85.592 10.6075C83.3852 11.4746 80.4574 12.1448 79.8953 14.7614C87.1198 14.9477 92.5056 12.0635 96.7098 7.68902Z" fill="#F44E4E"/>
	<path d="M79.8939 14.7592C79.8895 14.7828 79.8807 14.8042 79.8762 14.8277C79.0561 19.0202 81.8428 23.2362 86.6003 22.4675C93.2251 21.3948 97.4999 14.0077 96.7084 7.68687C92.5042 12.0635 87.1184 14.9476 79.8939 14.7592Z" fill="#A7ADFF"/>
	<path d="M15.6386 158.842L17.0429 171.747L12.6491 172.646L12.0076 159.097C12.0076 159.097 14.3335 158.272 15.6386 158.842Z" fill="#EAC2AB"/>
	<path d="M33.8264 178.59C33.8264 178.59 30.535 179.299 24.4062 179.078C18.2774 178.858 11.4695 178.342 10.3386 177.333C9.20542 176.323 9.26935 168.79 11.2954 169.011C13.3214 169.229 13.7822 172.162 17.6468 170.008C20.9582 168.163 22.9313 172.533 28.1341 174.205C33.3348 175.877 35.4424 176.548 33.8264 178.59Z" fill="#FDC510"/>
	<path d="M27.2324 162.409C27.0274 161.945 26.4895 161.598 26.0221 161.236C21.7518 157.93 22.7946 152.887 23.478 148.481C25.0984 138.027 23.3634 127.491 22.7152 117.035C22.0847 106.83 23.1363 96.589 25.5371 86.6411C26.4101 83.0268 27.6138 77.4383 21.8576 78.496C19.1305 78.997 16.4387 78.8985 13.7204 78.436C12.2896 78.1919 13.749 77.7402 12.2896 78.192C7.31819 79.7336 5.45971 88.8594 6.48044 92.039C8.51309 98.3705 9.17448 104.447 9.50517 111.151C9.97255 120.658 11.6018 130.176 10.4399 139.61C9.87113 144.233 9.20975 148.843 8.57482 153.457C8.20445 156.148 5.8874 162.045 7.44165 164.482C9.57571 167.826 19.0842 164.991 22.261 164.917C24.6486 164.857 27.9291 163.987 27.2324 162.409Z" fill="#4B369D"/>
	<path d="M42.819 130.972L39.8913 143.811L35.3718 143.301L39.2453 130.082C39.2453 130.084 41.7541 130.015 42.819 130.972Z" fill="#EAC2AB"/>
	<path d="M57.4861 150.042C57.4861 150.042 54.1571 150.789 47.9467 150.622C41.7341 150.455 34.8315 149.995 33.6741 148.982C32.5167 147.969 32.5078 140.336 34.5625 140.539C36.6172 140.743 37.1133 143.71 41.0066 141.492C44.3422 139.593 46.3858 144.001 51.6747 145.648C56.9636 147.295 59.1043 147.958 57.4861 150.042Z" fill="#FDC510"/>
	<path d="M59.2233 90.4481C56.3066 86.1657 46.3374 86.2128 37.1905 87.307L25.839 86.6561L24.2936 82.4765C24.2936 82.4765 6.23346 87.8337 6.21362 87.8402C6.78462 87.7502 6.69423 94.8183 7.02492 95.4328C9.61092 100.244 16.9633 104.222 22.8606 104.297C29.8668 104.387 36.4762 102.426 43.0239 100.325C54.9133 96.5141 38.2399 120.583 34.4568 128.206C30.6737 135.828 34.8316 135.426 44.2717 135.026C53.714 134.625 49.2541 135.227 50.8635 128.859C52.475 122.489 64.9928 98.9208 59.2233 90.4481Z" fill="#5A54FF"/>
	<path d="M23.5351 33.167C23.5351 33.167 22.1793 42.8152 22.1771 42.8152C19.7785 43.5004 17.2652 44.8086 14.7388 44.8044C14.8534 43.0143 16.6568 40.9674 17.4857 39.278C18.491 37.2288 19.1987 35.1069 19.0884 32.8094C18.7974 26.8055 23.5351 33.167 23.5351 33.167Z" fill="#D4A79A"/>
	<path d="M35.4993 13.0034C35.9116 13.1362 37.1506 17.684 34.9482 20.626C32.7458 23.568 34.0245 23.1676 31.8706 25.1718C29.7167 27.1781 28.2021 27.6127 28.2021 27.6127L25.7241 28.5142L25.9997 23.5659L28.46 15.6756L36.2202 13.0034" fill="#27197A"/>
	<path d="M29.6529 14.0633C29.6485 14.074 33.5529 16.6456 31.4827 22.7972C29.2693 29.3814 26.0748 34.895 24.0267 34.3233C18.3609 32.7452 16.6766 28.632 14.9658 25.0797C12.8692 20.7246 18.5902 10.9629 18.5902 10.9629L23.3874 8.92443L29.6529 14.0633Z" fill="#EAC2AB"/>
	<path d="M38.4801 12.573C39.1172 11.0378 38.4051 8.15146 37.3072 7.08515C36.8839 6.67404 36.3306 6.38926 35.753 6.39783C35.3187 6.40425 34.8777 6.57341 34.4567 6.47063C33.1912 6.16016 33.1934 5.11312 32.0338 4.6442C31.1696 4.29518 30.2503 5.00819 29.3265 5.14309C28.6299 5.24373 27.9376 5.0082 27.2608 4.81335C25.3582 4.26307 23.6408 3.21817 21.6743 2.82633C20.0165 2.49659 18.255 2.53941 16.6721 3.20746C15.0208 3.90549 13.7598 5.32937 13.0058 7.03162C12.5561 8.04868 12.3422 9.20493 12.5406 10.2991C12.3775 9.39978 10.6645 10.2156 10.3713 10.541C9.2183 11.8193 6.31263 15.56 6.7293 17.1873C7.05999 18.4763 6.03485 19.6432 6.32586 20.9493C6.67198 22.5038 10.8585 23.401 11.6081 24.8142C12.4679 26.4351 14.3705 27.3772 16.1011 27.086C15.6976 25.6492 15.2986 24.1804 15.3295 22.673C15.3603 21.1656 13.8921 14.2324 21.6126 13.3781C24.6814 13.0377 28.114 15.7762 31.1299 16.136C32.5629 16.3073 34.0245 16.1509 35.4179 15.727C36.4937 15.3994 37.6357 13.9734 38.3015 12.9156C38.372 12.8064 38.4316 12.6929 38.4801 12.573Z" fill="#4B369D"/>
	<path d="M71.2078 33.6017C71.0204 33.5246 70.8242 33.6852 70.6875 33.8329C69.4442 35.169 68.1985 36.503 66.9551 37.8391C66.7126 38.1003 66.4591 38.3679 66.1328 38.52C65.8065 38.672 65.3833 38.6784 65.1121 38.445C64.7858 38.1645 64.7968 37.6742 64.8343 37.2503C64.8894 36.61 65.9829 35.3403 64.9379 35.0598C63.4542 35.76 62.0345 38.732 61.5957 40.2265C61.0115 41.8153 62.3343 42.9437 61.4414 44.314C59.7836 46.8599 58.1698 49.425 56.3796 51.8853C55.4405 53.1743 54.4749 54.444 53.5048 55.7073C53.0661 56.279 51.2363 59.4244 50.597 59.4886C48.4717 62.2765 46.417 65.1713 44.1287 67.8371C43.2556 68.8542 36.5845 62.9895 36.5845 62.9895C30.7357 58.5979 29.7458 55.1335 29.7458 55.1335L24.6289 56.4096C24.6289 56.4096 26.4455 60.9061 30.0104 63.8695C33.8993 67.1006 38.8707 72.203 41.5956 74.1922C44.3227 76.1813 44.5123 75.2157 45.5418 74.2564C47.7089 72.2287 49.3007 69.1261 50.9696 66.7173C53.8488 62.5591 56.6971 58.3774 59.4507 54.1378C60.7845 52.0844 62.1932 49.8918 63.4123 47.7035C64.5808 45.6073 65.5552 44.4532 67.6959 43.2349C69.4971 42.2092 70.5046 40.6033 70.8264 38.5799C71.0557 37.1368 70.9278 35.6486 71.3379 34.2312C71.404 34.0063 71.4305 33.6916 71.2078 33.6017Z" fill="#EAC2AB"/>
	<path d="M25.601 61.5442C24.9749 55.7245 27.8696 46.4617 24.3775 41.7382C24.0203 41.2543 23.6345 40.7704 23.1142 40.4535C16.5445 36.4494 11.9986 42.6718 9.89984 48.1468C8.07883 52.8938 8.30371 57.2618 8.16922 62.2144C7.94215 70.5608 5.94257 78.6801 3.38963 86.6133C2.47913 89.4439 2.23663 92.7392 4.81381 93.1696C8.29489 93.7498 9.04445 89.5852 12.3646 88.5104C15.3981 87.5276 17.8497 88.1314 21.1654 88.3069C22.81 88.3947 28.1804 87.3434 27.8519 84.3736C27.0759 77.3333 25.9097 71.2631 25.8722 66.3597C25.8612 64.7688 25.7752 63.1565 25.601 61.5442Z" fill="#D7384E"/>
	<path d="M30.9802 54.3627C30.9802 54.3627 23.8704 40.1923 19.3355 44.5688C14.8028 48.9454 25.3651 63.2357 25.3651 63.2357L32.6954 55.945L30.9802 54.3627Z" fill="#F44E4E"/>
	<path d="M30.6253 13.4274C32.3206 12.4852 32.8123 10.3569 32.9842 8.46623C33.1716 6.41282 33.1363 3.63784 31.355 2.1904C30.6672 1.63155 29.825 1.28467 28.9652 1.03415C24.7522 -0.197035 19.6574 0.14556 15.5612 1.6551C11.3835 3.19462 8.28599 6.70831 6.8045 10.7423C6.05934 12.77 5.69117 14.9305 5.7066 17.0824C5.72203 19.3563 6.76481 21.7223 4.94821 23.6023C5.60078 23.6044 6.25334 23.5252 6.88607 23.3668C4.57343 23.9449 0.847645 24.0691 0.752846 27.2851C0.715368 28.5656 1.57296 29.6811 2.29607 30.7539C3.01918 31.8266 3.65852 33.1606 3.15587 34.3468C2.52315 35.8435 0.325157 36.4323 0.0407624 38.0296C-0.296543 39.9267 1.54871 40.7961 2.29167 42.2735C3.22862 44.1363 2.33134 46.3032 2.11529 48.2346C1.92349 49.9475 3.5505 50.7355 4.61312 51.759C7.69295 54.7224 7.65107 58.0926 4.28463 61.3665C4.21629 61.4329 4.24274 61.5613 4.29125 61.6427C4.34195 61.7283 4.45218 61.7647 4.55139 61.7904C8.90549 62.8953 14.5581 58.812 15.5612 54.7374C16.0131 52.9024 14.8601 51.1851 15.365 49.4229C15.7684 48.014 17.2455 47.2175 18.5198 46.4424C21.4784 44.6438 20.8919 40.0616 20.515 36.6914C20.1865 33.7515 20.9713 33.1906 19.2473 30.7539C18.35 29.4863 17.6468 28.0988 17.0515 26.6728C16.2601 24.7757 15.3385 26.0454 15.4069 24.0006C15.4818 21.7566 16.626 19.6754 18.4977 18.3607C19.4678 17.6798 20.6142 17.2023 21.7936 16.9967C23.0436 16.7783 24.3179 16.5728 25.2901 15.7184C26.1984 14.9198 27.4528 13.1105 28.8594 13.2325C30.6143 13.3845 32.6271 12.9584 33.5376 11.496" fill="#4B369D"/>
</svg>
