<svg xmlns="http://www.w3.org/2000/svg" width="334" height="305" fill="none" viewBox="0 0 334 305">
    <path fill="#3F547E" d="M304.05 303.071h-116.8a11.723 11.723 0 01-11.189-7.866 11.766 11.766 0 01-.621-4.799l16.3-247.564a13.78 13.78 0 014.294-8.94 13.724 13.724 0 019.176-3.726H322a11.7 11.7 0 018.683 3.73 11.753 11.753 0 013.117 8.936l-16.28 247.564a13.78 13.78 0 01-4.294 8.939 13.725 13.725 0 01-9.176 3.726z"/>
    <path fill="#3F547E" d="M328.64 96.75H314.5a2.828 2.828 0 01-2.699-1.9 2.846 2.846 0 01-.151-1.157l1.41-21.443a3.318 3.318 0 013.26-3.006h14.13a2.824 2.824 0 012.077.883 2.841 2.841 0 01.773 2.123l-1.41 21.443a3.322 3.322 0 01-1.035 2.158 3.307 3.307 0 01-2.215.898z"/>
    <path fill="#0EA5E9" d="M235.78 26.67h-5.17v1.002h5.17V26.67zM224.24 26.67h-18.8v1.002h18.8V26.67zM302.27 303.073h-116.8a11.705 11.705 0 01-4.734-.95 11.705 11.705 0 01-3.952-2.779 11.76 11.76 0 01-3.124-8.937L190 42.843a13.78 13.78 0 014.294-8.939 13.726 13.726 0 019.176-3.726h116.8a11.713 11.713 0 018.637 3.755 11.762 11.762 0 013.093 8.91l-16.26 247.564a13.778 13.778 0 01-4.294 8.939 13.726 13.726 0 01-9.176 3.727z"/>
    <path fill="#DEFFEF" d="M307.57 274.234H184a6.648 6.648 0 01-4.936-2.117 6.677 6.677 0 01-1.774-5.078l14.19-215.53a7.82 7.82 0 012.426-5.068 7.796 7.796 0 015.194-2.126h123.6a6.644 6.644 0 014.936 2.116 6.672 6.672 0 011.774 5.078l-14.19 215.53a7.824 7.824 0 01-2.437 5.079 7.798 7.798 0 01-5.213 2.116z"/>
    <path fill="#FAFAFA" d="M284.52 44.315h-24.54l-59.45 229.918h24.54l59.45-229.918zM306.14 44.315h-12.27l-59.45 229.918h12.27l59.45-229.918z"/>
    <path fill="#F0F0F0" d="M289.84 202.991l-26.68-101.112a10.508 10.508 0 00-4.861-6.382 10.471 10.471 0 00-7.939-1.082l-63.12 16.713-8.42 132.124 103.57-27.425a10.514 10.514 0 006.367-4.878 10.55 10.55 0 001.083-7.958z"/>
    <path fill="#DEFFEF" d="M250.252 291.352c3.207-3.109 3.454-8.067.551-11.074-2.903-3.007-7.857-2.924-11.064.185s-3.454 8.066-.551 11.073c2.903 3.007 7.856 2.925 11.064-.184zM264.63 36.84a3.522 3.522 0 01-1.1 2.287 3.505 3.505 0 01-2.35.95 2.995 2.995 0 01-2.841-2.016 2.998 2.998 0 01-.159-1.221 3.506 3.506 0 013.45-3.237 2.997 2.997 0 012.841 2.016c.137.392.191.807.159 1.221z" opacity=".2"/>
    <path fill="#DEFFEF" d="M263.17 36.84a1.92 1.92 0 01-1.89 1.784 1.638 1.638 0 01-1.66-1.784 1.926 1.926 0 011.89-1.783 1.638 1.638 0 011.66 1.783z" opacity=".2"/>
    <g>
      <path fill="#3F547E" d="M75.32 24.337c3.73-9.188 2.39-20.38-8.19-22.886a15.38 15.38 0 00-13.546 2.956 15.437 15.437 0 00-4.349 5.655c-.989 2.2-1.45 4.6-1.345 7.01.42 10.02 7 18.367-4.53 25.631-11.53 7.265-10.3 29.159 12 24.93 22.3-4.228 10.25-15.721 10.25-15.721s-5.47 4.469-7.23-.08C56.15 45.94 71 35.088 75.32 24.337z"/>
      <path fill="#3F547E" d="M36.08 54.477l-.49-.11c1.49-6.683 3.83-8.407 6.3-10.23 2.47-1.824 4.81-3.558 6.7-10.13.89-3.097.33-6.524-.22-9.83-.7-4.219-1.42-8.588.75-12.495l.43.25c-2.08 3.748-1.37 8.016-.69 12.164.56 3.367 1.14 6.844.21 10.02-1.93 6.734-4.45 8.588-6.88 10.391-2.43 1.804-4.66 3.477-6.11 9.97z"/>
      <path fill="#FFC3BD" d="M103.72 74.807c.07.34.19.851.3 1.312l.35 1.413c.24.952.51 1.904.79 2.856.57 1.894 1.18 3.807 1.84 5.691 1.32 3.79 2.828 7.513 4.52 11.152l1.26 2.636c.213.471.515.896.89 1.252a8.235 8.235 0 003.89 1.724c3.739.605 7.551.605 11.29 0l1.35 4.258a32.059 32.059 0 01-3.17 1.203c-1.07.356-2.159.657-3.26.901-2.294.53-4.648.749-7 .652a14.867 14.867 0 01-7.77-2.455 11.327 11.327 0 01-3.22-3.427l-.16-.251-.1-.17-.2-.361-.41-.701-.81-1.423a98.62 98.62 0 01-5.5-11.844c-.76-2.004-1.51-4.098-2.12-6.212-.3-1.002-.6-2.114-.87-3.196a43.852 43.852 0 01-.73-3.387l8.84-1.623z"/>
      <path fill="#0EA5E9" d="M96 60.8c10.09 4.509 10 19.66 10 19.66l-10.63 6.402s-8-11.864-7.4-17.255c.59-5.62 2.31-11.342 8.03-8.807z"/>
      <path fill="#000" d="M97.59 73.725c-2.76-2.795-5.19.431-7.41 4.008a78.036 78.036 0 005.19 9.149l4.36-2.626c.86-3.336.61-7.725-2.14-10.53z" opacity=".2"/>
      <path fill="#FFC3BD" d="M127.8 103.225l7.1-3.547.08 9.308s-5.3.922-8.83-2.805l1.65-2.956z"/>
      <path fill="#FFC3BD" d="M142.53 101.331l-1.22 6.914-6.33.741-.08-9.308 7.63 1.653zM62.81 295.678l8.78.842 4.09-20.471-8.78-.842-4.09 20.471zM5.24 271.68l7.14 5.21 11.91-16.934-7.15-5.21-11.9 16.934z"/>
      <path fill="#3F547E" d="M15 273.634l-5.88-8.066a.705.705 0 00-.413-.285.704.704 0 00-.497.065l-7.05 3.747a1.44 1.44 0 00-.678 1.55c.043.197.128.383.248.545 2.1 2.775 3.25 4.008 5.84 7.565 1.6 2.184 4.8 7.244 7 10.26s5.29 1.002 4.65-.451c-2.9-6.523-3-10.34-2.78-13.396a2.29 2.29 0 00-.44-1.534zM72.75 293.864H62.21a.864.864 0 00-.83.642l-2.29 8.326a1.315 1.315 0 001.28 1.674h24.28c3.85 0 4.65-3.898 3.06-4.259-7.14-1.583-11.26-3.767-13.47-5.851a2.156 2.156 0 00-1.49-.532z"/>
      <path fill="#000" d="M75.68 276.058l-2.11 10.551h-8.95l2.28-11.392 8.78.841zM17.14 254.746l7.15 5.221-6.14 8.727-7.15-5.221 6.14-8.727z" opacity=".2"/>
      <path fill="#0EA5E9" d="M100.16 68.786c-.62 6.763-2.86 20.04-9.41 45.982l-35.94-3.117c1.73-13.517 2.54-22.274-.84-47.865a6.234 6.234 0 011.37-4.765 6.212 6.212 0 014.41-2.25c2.59-.14 5.67-.23 8.76-.11 5.466.082 10.92.555 16.32 1.413 3.17.572 6.55 1.393 9.3 2.115a8.12 8.12 0 014.586 3.192 8.15 8.15 0 011.444 5.405z"/>
      <path fill="#000" d="M54.89 71.28c.46 4.008.8 7.585 1 10.791 3.31-.29 5.75-3.928 6-11.533-1.24-3.677-4.19-2.344-7 .742z" opacity=".2"/>
      <path fill="#3F547E" d="M90.75 114.768s12.16 53.908 4 91.913c-5.43 25.451-17.52 76.864-17.52 76.864l-15.33-.391s7.32-53.958 10.39-75.15c5.25-36.292-7.9-95.481-7.9-95.481l26.36 2.245z"/>
      <path fill="#000" d="M76.73 125.658l-7.67 12.114a372.392 372.392 0 014.39 43.387c10.78-19.339 5.67-45.27 3.28-55.501z" opacity=".2"/>
      <path fill="#0EA5E9" d="M79.43 284.346l-18.94-.481 1.1-5.832 19.32.912-1.48 5.401z"/>
      <path fill="#3F547E" d="M82.89 114.195s-7.13 57.165-22.6 88.377c-12.49 25.21-38.62 65.28-38.62 65.28l-9.55-7.665s16.34-44.319 25.62-61.062c22.77-41.082 4.16-72.395 17.07-87.475l28.08 2.545z"/>
      <path fill="#0EA5E9" d="M232.447 63.324L62.47 134.884c-5.336 2.246-7.844 8.402-5.602 13.748l40.428 96.415c2.242 5.346 8.385 7.86 13.721 5.613l169.977-71.559c5.336-2.247 7.844-8.402 5.602-13.749l-40.428-96.414c-2.242-5.347-8.385-7.86-13.721-5.614z"/>
      <path fill="#000" d="M232.447 63.324L62.47 134.884c-5.336 2.246-7.844 8.402-5.602 13.748l40.428 96.415c2.242 5.346 8.385 7.86 13.721 5.613l169.977-71.559c5.336-2.247 7.844-8.402 5.602-13.749l-40.428-96.414c-2.242-5.347-8.385-7.86-13.721-5.614z" opacity=".1"/>
      <path fill="#fff" d="M109.357 130.591l-33.282 14.011a5.054 5.054 0 00-2.694 6.612l7.015 16.73a5.037 5.037 0 006.599 2.7l33.281-14.012a5.053 5.053 0 002.695-6.612l-7.015-16.729a5.036 5.036 0 00-6.599-2.7z" opacity=".2"/>
      <path fill="#fff" d="M132.71 196.722l-32.608 13.728a1.895 1.895 0 00-1.01 2.48l2.475 5.902a1.888 1.888 0 002.474 1.013l32.609-13.728a1.896 1.896 0 001.01-2.48l-2.475-5.903a1.889 1.889 0 00-2.475-1.012zM175.136 178.866l-32.609 13.729a1.895 1.895 0 00-1.01 2.479l2.475 5.903a1.89 1.89 0 002.475 1.012l32.608-13.728a1.895 1.895 0 001.011-2.479l-2.475-5.903a1.89 1.89 0 00-2.475-1.013zM217.552 161.011l-32.609 13.728a1.895 1.895 0 00-1.01 2.48l2.475 5.903a1.888 1.888 0 002.474 1.012l32.609-13.728a1.895 1.895 0 001.01-2.48l-2.475-5.903a1.888 1.888 0 00-2.474-1.012zM259.977 143.154l-32.608 13.728a1.895 1.895 0 00-1.011 2.479l2.475 5.903a1.889 1.889 0 002.475 1.012l32.609-13.728a1.895 1.895 0 001.01-2.479l-2.475-5.903a1.888 1.888 0 00-2.475-1.012z" opacity=".4"/>
      <path fill="#0EA5E9" d="M22.67 268.916l-12.25-9.289 3.01-5.391 13.02 10.121-3.78 4.559zM54.45 109.496l-1.9 3.087c-.15.23.13.521.54.551l37.7 3.266c.32 0 .6-.11.64-.31l.6-3.197c.05-.22-.22-.431-.57-.461l-36.4-3.156a.675.675 0 00-.61.22z"/>
      <path fill="#000" d="M54.45 109.496l-1.9 3.087c-.15.23.13.521.54.551l37.7 3.266c.32 0 .6-.11.64-.31l.6-3.197c.05-.22-.22-.431-.57-.461l-36.4-3.156a.675.675 0 00-.61.22z" opacity=".5"/>
      <path fill="#0EA5E9" d="M59 113.997l-1-.081c-.19 0-.33-.13-.31-.25l.82-4.148c0-.131.2-.211.4-.191l1 .08c.2 0 .34.131.31.251l-.82 4.148c-.04.12-.22.211-.4.191zM88 116.51l-1-.08c-.19 0-.33-.13-.31-.251l.82-4.148a.358.358 0 01.4-.19l1 .08c.2 0 .34.13.31.25l-.82 4.149c-.01.14-.19.21-.4.19zM73.5 115.258l-1-.09c-.2 0-.34-.13-.31-.25l.82-4.149c0-.12.2-.21.39-.19l1 .09c.19 0 .33.13.31.251l-.82 4.148c-.02.12-.19.2-.39.19zM17.24 278.094a1.021 1.021 0 01-.34 0c-1.09-.221-2-2.075-2.48-3.157a.17.17 0 010-.19.147.147 0 01.09-.03c.033 0 .064.01.09.03.34.12 3.32 1.272 3.55 2.365a.652.652 0 01-.22.651 1.23 1.23 0 01-.69.331zm-2.33-2.926c.68 1.493 1.44 2.445 2.06 2.565a.842.842 0 00.76-.281.316.316 0 00.12-.33c-.14-.672-1.91-1.533-2.94-1.954z"/>
      <path fill="#0EA5E9" d="M17.33 275.307a6.238 6.238 0 01-2.82-.3.174.174 0 01-.1-.141.168.168 0 01.013-.089.168.168 0 01.057-.071c.09-.06 2.15-1.563 3.39-1.282a1.065 1.065 0 01.73.531.708.708 0 010 .881 1.992 1.992 0 01-1.27.471zm-2.33-.531c1 .291 2.87.311 3.33-.2.08-.08.15-.211 0-.471a.709.709 0 00-.49-.361c-.84-.17-2.28.662-2.84 1.032zM77.43 295.568a14.625 14.625 0 01-2.88-.361.18.18 0 01-.108-.165.18.18 0 01.108-.165c.44-.211 4.26-2.004 5.22-1.323a.553.553 0 01.25.541 1.255 1.255 0 01-.52 1.002 3.4 3.4 0 01-2.07.471zm-2.28-.601c1.14.21 3.24.491 4.1-.16a1.004 1.004 0 00.38-.732c0-.14 0-.2-.09-.23-.54-.371-2.8.42-4.39 1.122z"/>
      <path fill="#0EA5E9" d="M74.59 295.207a.15.15 0 01-.11 0 .16.16 0 01-.06-.17c0-.171.9-3.948 3-3.708.52.071.66.321.69.531.13 1.002-2.28 2.906-3.44 3.377l-.08-.03zm2.62-3.577c-1.33 0-2.1 2.204-2.36 3.086 1.25-.661 3-2.234 2.89-2.846 0-.05 0-.19-.39-.23l-.14-.01z"/>
      <path fill="#FFC3BD" d="M58.79 71.462l-.53.751-.58.852c-.39.581-.78 1.172-1.15 1.784-.76 1.202-1.45 2.454-2.15 3.707a65.837 65.837 0 00-3.64 7.806 66.9 66.9 0 00-2.63 8.166l-.47 2.004c0-.06-.06.15.05.53.344 1.072.846 2.085 1.49 3.007a49.106 49.106 0 005.42 6.523c2 2.124 4.22 4.178 6.43 6.222 2.21 2.044 4.53 4.008 6.85 5.942 2.32 1.934 4.69 3.888 7 5.772l-2.5 3.697a164.176 164.176 0 01-15.49-10.441c-2.5-1.884-4.95-3.868-7.32-6.012a50.996 50.996 0 01-6.77-7.224 17.739 17.739 0 01-2.8-5.12 9.205 9.205 0 01-.43-4.008V94.989l.05-.3.1-.612.21-1.212a65.735 65.735 0 012.48-9.51 75.217 75.217 0 013.89-9.017 54.696 54.696 0 012.45-4.269c.43-.701.88-1.393 1.35-2.084l.74-1.002c.26-.35.48-.662.83-1.092l7.12 5.57z"/>
      <path fill="#0EA5E9" d="M57.9 57.343c-6.86 1.803-13.48 18.466-13.48 18.466l8.88 8.137S67.25 71.2 66.78 65.449c-.39-4.89-3.37-9.57-8.88-8.106z"/>
      <path fill="#000" d="M68.51 56.34a17.418 17.418 0 01-3.82.35c-.27 4.95 2.9 9.73 10.69 16.143 1.87-5.842 6-7.104 6-7.104l-12.87-9.39zM84.83 57.914s.91.13 3.08.631c1.45 2.235 3.33 9.118-.94 14.028-1.66-6.012-5.62-6.773-5.62-6.773l3.48-7.886z" opacity=".2"/>
      <path fill="#fff" d="M68.51 56.34h-4.44c-1.45 2.234 3.54 8.427 11.32 14.84 1.87-5.842 6-5.492 6-5.492L68.51 56.34z"/>
      <path fill="#fff" d="M84.83 57.914s.91.13 3.08.631c1.45 2.235 4.58 8.287.31 13.157-1.66-6.012-6.87-5.932-6.87-5.932l3.48-7.856z"/>
      <path fill="#FFC3BD" d="M71.72 38.355c.58 5.351.77 15.03-3.21 18.277 0 0 2.07 6.012 12.84 9.138 6.48-3.747 3.48-7.725 3.48-7.725-5.73-1.904-5.2-6.243-3.83-10.25l-9.28-9.44z"/>
      <path fill="#000" d="M75.5 42.213l5.5 5.581a16.765 16.765 0 00-.76 2.856c-2.21-.511-5.41-2.816-5.44-5.18.04-1.119.278-2.221.7-3.257z" opacity=".2"/>
      <path fill="#3F547E" d="M83.88 16.973c1.75-1.934 5.22.53 6.5 5.27 1.92 7.014-3.2 7.515-5.88 4.008-2.68-3.507-2.08-7.665-.62-9.278z"/>
      <path fill="#3F547E" d="M89.3 29.287a19.494 19.494 0 014.93 2.545c-.87-2.124-1.65-3.417-4.93-2.545z"/>
      <path fill="#3F547E" d="M90.31 29.618a15.359 15.359 0 014.32-.24c-1.42-1.093-2.45-1.634-4.32.24z"/>
      <path fill="#FFC3BD" d="M67 29.998c2.23 8.547 3 12.214 8.22 15.792 7.87 5.39 17.86.781 18.23-8.267.33-8.136-3.37-20.741-12.5-22.525a11.976 11.976 0 00-11.166 3.586A12.048 12.048 0 0067 29.998z"/>
      <path fill="#fff" d="M71.12 18.727l-2.47 2.875a4.277 4.277 0 01-6 .441 4.292 4.292 0 01-.45-6.012l2.47-2.866a4.287 4.287 0 016-.45 4.302 4.302 0 01.45 6.012z"/>
      <path fill="#0EA5E9" d="M73.4 21.931l-3 1.503a5.18 5.18 0 01-3.95.255 5.194 5.194 0 01-2.98-2.61 5.22 5.22 0 01-.255-3.962 5.207 5.207 0 012.605-2.992l3-1.502a5.19 5.19 0 013.957-.252 5.203 5.203 0 012.983 2.616 5.21 5.21 0 01-2.36 6.944z"/>
      <path fill="#3F547E" d="M69.56 36.392s6.16-1.413 3.54-10.441a2.369 2.369 0 011.186-2.742c.32-.166.674-.256 1.034-.264 6.94-.19 13.43-1.643 12.51-5.672-1.15-5.09-18.44-9.018-21.58 1.173-6.13 1.433-6.36 13.537 3.31 17.946z"/>
      <path fill="#3F547E" d="M69.59 34.607a19.494 19.494 0 014.93 2.545c-.87-2.104-1.65-3.397-4.93-2.545z"/>
      <path fill="#3F547E" d="M70.6 34.959a15.359 15.359 0 014.32-.24c-1.41-1.073-2.44-1.624-4.32.24z"/>
      <path fill="#FFC3BD" d="M65.6 36.712a6.453 6.453 0 003.79 3.147c2.17.65 3.29-1.273 2.73-3.347-.51-1.864-2.25-4.439-4.44-4.188a2.897 2.897 0 00-2.222 1.632 2.91 2.91 0 00.142 2.756z"/>
      <path fill="#3F547E" d="M81.46 29.707c.14.702.63 1.203 1.08 1.113.45-.09.72-.742.59-1.443-.13-.702-.63-1.203-1.09-1.113-.46.09-.72.732-.58 1.443zM89.41 28.135c.14.711.62 1.202 1.08 1.112.46-.09.72-.732.58-1.433-.14-.701-.62-1.202-1.08-1.112-.46.09-.72.731-.58 1.433z"/>
      <path fill="#3F547E" d="M89.8 26.783l1.59-.822s-.61 1.493-1.59.822z"/>
      <path fill="#ED847E" d="M86.68 29.898a19.167 19.167 0 003.39 4.008 3.08 3.08 0 01-2.42 1.002l-.97-5.01z"/>
      <path fill="#3F547E" d="M84.4 38.225a5.793 5.793 0 01-4-1.533.18.18 0 010-.25.18.18 0 01.25 0 5.697 5.697 0 005 1.292.172.172 0 01.171.27.173.173 0 01-.111.07 6.15 6.15 0 01-1.31.15zM76.69 26.973a.41.41 0 01-.18-.05.35.35 0 01-.12-.481 4.095 4.095 0 013.17-2.005.36.36 0 01.36.341.35.35 0 01-.34.36 3.396 3.396 0 00-2.59 1.714.35.35 0 01-.3.12zM91.62 24.146a.329.329 0 01-.17 0 3.445 3.445 0 00-3.11-.2.375.375 0 01-.527-.453.376.376 0 01.187-.218 4.071 4.071 0 013.77.21.342.342 0 01.13.47.33.33 0 01-.28.191z"/>
      <path fill="#FFC3BD" d="M71.61 123.033l8 .561-3.61 8.567s-6.68-2.114-6.95-7.014l2.56-2.114zM82.68 128.445l-3.87 5.852-2.8-2.134 3.63-8.567 3.04 4.849z"/>
      <path fill="#3F547E" d="M81.85 28.345l1.59-.822s-.61 1.493-1.59.822z"/>
    </g>
  </svg>
  