<svg width="306" height="343" viewbox="0 0 306 343" fill="none" xmlns="http://www.w3.org/2000/svg">
    <path d="M304.072 233.264L2.73926 212.038" stroke="#263238" stroke-miterlimit="10"/>
    <path d="M18.2026 212.943V179.036" stroke="#263238" stroke-miterlimit="10"/>
    <path d="M46.6858 214.754V181.751" stroke="#263238" stroke-miterlimit="10"/>
    <path d="M79.688 217.462V183.562" stroke="#263238" stroke-miterlimit="10"/>
    <path d="M116.311 220.178V184.46" stroke="#263238" stroke-miterlimit="10"/>
    <path d="M154.282 222.437V184.46" stroke="#263238" stroke-miterlimit="10"/>
    <path d="M192.259 224.248V188.081" stroke="#263238" stroke-miterlimit="10"/>
    <path d="M232.732 229.422V190.34" stroke="#263238" stroke-miterlimit="10"/>
    <path d="M278.607 231.027V193.505" stroke="#263238" stroke-miterlimit="10"/>
    <path d="M304.072 238.548L1.7677 216.115" stroke="#263238" stroke-miterlimit="10"/>
    <path d="M294.585 327.34L303.616 328.392" stroke="#263238" stroke-miterlimit="10"/>
    <path d="M0.384033 293.064L284.487 326.162" stroke="#263238" stroke-miterlimit="10"/>
    <path d="M305.824 186.116L11.1443 173.479V12.8835L305.824 0.246399V186.116Z" fill="#313E59"/>
    <path d="M298.552 177.365L16.6055 166.376V19.9933L298.552 8.99744V177.365Z" stroke="#5F5AF6" stroke-miterlimit="10"/>
    <path d="M108.186 36.5901L30.1699 38.7981C29.7058 38.7842 29.2493 38.6771 28.8275 38.483C28.4056 38.289 28.0272 38.012 27.7147 37.6686C27.4022 37.3252 27.1621 36.9224 27.0085 36.4842C26.855 36.046 26.7913 35.5814 26.8211 35.1181C26.8211 33.0352 28.2931 31.2982 30.1699 31.2394L108.186 28.6854C108.679 28.6899 109.167 28.7936 109.619 28.9904C110.072 29.1871 110.48 29.4728 110.82 29.8306C111.16 30.1883 111.425 30.6108 111.598 31.0728C111.771 31.5348 111.85 32.027 111.829 32.52V32.52C111.866 33.5379 111.507 34.5306 110.828 35.2895C110.149 36.0484 109.202 36.5146 108.186 36.5901V36.5901Z" fill="#5C6B8A"/>
    <path d="M61.3321 34.1024C61.36 33.6283 61.2916 33.1534 61.131 32.7064C60.9704 32.2595 60.721 31.8496 60.3978 31.5016C60.0745 31.1537 59.6842 30.8747 59.2503 30.6817C58.8163 30.4886 58.3478 30.3854 57.8729 30.3782L30.1772 31.2835C28.3299 31.3424 26.8284 33.0794 26.8284 35.1622C26.7986 35.6256 26.8623 36.0902 27.0159 36.5284C27.1694 36.9666 27.4096 37.3694 27.722 37.7128C28.0345 38.0562 28.413 38.3331 28.8348 38.5272C29.2566 38.7212 29.7131 38.8284 30.1772 38.8422L57.8729 38.04C58.8464 37.9573 59.7501 37.5013 60.3949 36.7673C61.0397 36.0334 61.3755 35.0784 61.3321 34.1024Z" fill="#5F5AF6"/>
    <path d="M108.186 51.9504L30.1699 53.577C28.3226 53.6211 26.8211 51.9651 26.8211 49.897C26.7736 48.9469 27.0958 48.0154 27.7202 47.2978C28.3445 46.5801 29.2225 46.1321 30.1699 46.0477L108.186 44.1046C108.68 44.1091 109.168 44.213 109.621 44.4102C110.074 44.6074 110.483 44.8938 110.823 45.2523C111.163 45.6109 111.427 46.0342 111.6 46.4971C111.773 46.96 111.851 47.4529 111.829 47.9466V47.9466C111.858 48.9556 111.494 49.9366 110.815 50.6833C110.136 51.4299 109.193 51.8841 108.186 51.9504V51.9504Z" fill="#5C6B8A"/>
    <path d="M80.8434 48.6458C80.8692 48.1634 80.7976 47.6808 80.6329 47.2267C80.4682 46.7726 80.2138 46.3563 79.8849 46.0026C79.5559 45.6489 79.1591 45.3651 78.7181 45.168C78.2771 44.9709 77.8009 44.8646 77.318 44.8554L30.214 46.033C29.2665 46.1174 28.3886 46.5654 27.7642 47.283C27.1399 48.0007 26.8177 48.9322 26.8652 49.8822C26.8652 51.9651 28.3372 53.6211 30.214 53.5622L77.3548 52.576C78.3308 52.497 79.2386 52.0441 79.8887 51.3117C80.5387 50.5794 80.8808 49.6243 80.8434 48.6458V48.6458Z" fill="#5F5AF6"/>
    <path d="M108.186 67.3034L30.1699 68.3264C29.7044 68.3048 29.2479 68.191 28.8268 67.9915C28.4057 67.792 28.0285 67.5109 27.7169 67.1644C27.4054 66.818 27.1657 66.413 27.012 65.9732C26.8582 65.5334 26.7933 65.0674 26.8211 64.6022V64.6022C26.7814 63.6572 27.1071 62.7331 27.7307 62.0218C28.3542 61.3105 29.2277 60.8667 30.1699 60.7824L108.186 59.4429C108.681 59.4532 109.17 59.5624 109.623 59.7639C110.075 59.9654 110.483 60.2553 110.823 60.6166C111.162 60.9778 111.426 61.4031 111.599 61.8676C111.771 62.3321 111.85 62.8264 111.829 63.3216V63.3216C111.863 64.3299 111.501 65.3116 110.82 66.0559C110.139 66.8003 109.193 67.2481 108.186 67.3034V67.3034Z" fill="#5C6B8A"/>
    <path d="M94.5919 63.5792C94.6136 63.091 94.5378 62.6034 94.3691 62.1449C94.2003 61.6863 93.9419 61.2659 93.6089 60.9083C93.276 60.5507 92.8751 60.2629 92.4297 60.0619C91.9844 59.8608 91.5034 59.7505 91.015 59.7373L30.1772 60.7824C29.2351 60.8667 28.3616 61.3105 27.738 62.0218C27.1144 62.7331 26.7887 63.6572 26.8284 64.6022C26.8006 65.0674 26.8655 65.5334 27.0193 65.9732C27.1731 66.413 27.4127 66.818 27.7242 67.1644C28.0358 67.5109 28.4131 67.792 28.8341 67.9915C29.2552 68.191 29.7118 68.3048 30.1772 68.3264L91.015 67.5315C92.0087 67.4689 92.9387 67.0207 93.6068 66.2824C94.275 65.5442 94.6284 64.5742 94.5919 63.5792V63.5792Z" fill="#5F5AF6"/>
    <path d="M108.186 82.6637L30.1699 83.0758C29.7037 83.0505 29.2472 82.9333 28.8265 82.7312C28.4057 82.529 28.029 82.2458 27.7179 81.8978C27.4068 81.5498 27.1674 81.1438 27.0135 80.7031C26.8596 80.2624 26.7942 79.7956 26.8211 79.3296V79.3296C26.7704 78.3841 27.0929 77.4564 27.7191 76.7462C28.3454 76.036 29.2254 75.5999 30.1699 75.5318L108.186 74.7958C108.682 74.81 109.171 74.9225 109.623 75.1268C110.075 75.3311 110.483 75.623 110.822 75.9858C111.16 76.3486 111.424 76.775 111.597 77.2403C111.77 77.7056 111.849 78.2006 111.829 78.6966V78.6966C111.867 79.7045 111.506 80.6866 110.823 81.4295C110.141 82.1724 109.193 82.6159 108.186 82.6637V82.6637Z" fill="#5F5AF6"/>
    <path d="M127.786 36.0234L117.099 36.3325C116.602 36.3329 116.111 36.2329 115.654 36.0383C115.197 35.8438 114.784 35.5588 114.441 35.2006C114.097 34.8423 113.829 34.4182 113.653 33.9537C113.478 33.4892 113.398 32.994 113.419 32.4979V32.4979C113.392 31.4773 113.759 30.4854 114.444 29.7287C115.13 28.972 116.081 28.5087 117.099 28.4352L127.786 28.104C128.287 28.0984 128.785 28.1954 129.247 28.3891C129.71 28.5827 130.128 28.8689 130.476 29.2301C130.825 29.5913 131.095 30.0198 131.272 30.4894C131.448 30.9589 131.527 31.4596 131.502 31.9606V31.9606C131.524 32.9857 131.15 33.9796 130.457 34.7361C129.765 35.4926 128.809 35.9536 127.786 36.0234V36.0234Z" fill="#5F5AF6"/>
    <path d="M127.786 51.5382L117.099 51.759C116.6 51.7597 116.106 51.6587 115.647 51.4624C115.188 51.2661 114.774 50.9784 114.429 50.617C114.085 50.2555 113.818 49.8278 113.644 49.3599C113.471 48.8919 113.394 48.3936 113.419 47.895C113.39 46.877 113.758 45.8875 114.444 45.1351C115.131 44.3827 116.082 43.9262 117.099 43.8618L127.786 43.5968C128.287 43.5994 128.784 43.7029 129.244 43.9013C129.705 44.0996 130.122 44.3887 130.468 44.7513C130.815 45.114 131.086 45.5427 131.263 46.012C131.441 46.4813 131.522 46.9815 131.502 47.4829V47.4829C131.531 48.5092 131.159 49.5064 130.465 50.2633C129.772 51.0202 128.811 51.4775 127.786 51.5382Z" fill="#5F5AF6"/>
    <path d="M127.786 67.0458L117.099 67.1856C116.6 67.1772 116.108 67.0691 115.651 66.8678C115.194 66.6665 114.782 66.3759 114.44 66.0132C114.097 65.6505 113.83 65.223 113.655 64.7557C113.479 64.2884 113.399 63.7908 113.419 63.2922V63.2922C113.388 62.2766 113.756 61.2894 114.444 60.5413C115.132 59.7932 116.084 59.3436 117.099 59.2883L127.786 59.1043C128.288 59.1128 128.784 59.2214 129.244 59.4236C129.704 59.6259 130.119 59.9178 130.465 60.2823C130.811 60.6469 131.081 61.0767 131.259 61.5467C131.437 62.0167 131.52 62.5175 131.502 63.0198V63.0198C131.534 64.0442 131.163 65.0402 130.468 65.7932C129.772 66.5463 128.809 66.9961 127.786 67.0458V67.0458Z" fill="#5F5AF6"/>
    <path d="M127.786 82.568L117.099 82.6195C116.599 82.6062 116.106 82.4939 115.65 82.2891C115.194 82.0842 114.782 81.7909 114.44 81.426C114.098 81.0612 113.832 80.6321 113.656 80.1636C113.481 79.6951 113.4 79.1965 113.419 78.6966V78.6966C113.387 77.6835 113.755 76.6985 114.444 75.9547C115.132 75.2109 116.086 74.7682 117.099 74.7222L127.786 74.6266C128.289 74.6379 128.785 74.7492 129.246 74.9538C129.706 75.1585 130.121 75.4525 130.467 75.8188C130.812 76.1851 131.082 76.6163 131.26 77.0876C131.438 77.5589 131.52 78.0608 131.502 78.5642C131.534 79.5863 131.162 80.5799 130.466 81.3294C129.771 82.0789 128.807 82.5239 127.786 82.568Z" fill="#5F5AF6"/>
    <path d="M30.7881 27.3238L43.3442 26.8896" stroke="#C2C9D6" stroke-miterlimit="10"/>
    <path d="M30.7881 42.7946L43.3442 42.4634" stroke="#C2C9D6" stroke-miterlimit="10"/>
    <path d="M30.7881 57.4778L43.3442 57.2422" stroke="#C2C9D6" stroke-miterlimit="10"/>
    <path d="M30.7881 72.9485L43.3442 72.816" stroke="#C2C9D6" stroke-miterlimit="10"/>
    <path d="M263.062 27.7434L273.587 27.4195" stroke="#C2C9D6" stroke-miterlimit="10"/>
    <path d="M256.946 36.8109L273.587 36.3693" stroke="#C2C9D6" stroke-miterlimit="10"/>
    <path d="M263.062 45.5472L273.587 45.3117" stroke="#C2C9D6" stroke-miterlimit="10"/>
    <path d="M267.412 54.3718L273.587 54.2614" stroke="#C2C9D6" stroke-miterlimit="10"/>
    <path d="M263.062 63.3584L273.587 63.2112" stroke="#C2C9D6" stroke-miterlimit="10"/>
    <path d="M260.251 72.2861L273.587 72.1536" stroke="#C2C9D6" stroke-miterlimit="10"/>
    <path d="M263.062 81.1622L273.587 81.1033" stroke="#C2C9D6" stroke-miterlimit="10"/>
    <path d="M257.962 90.0752L273.587 90.0531" stroke="#C2C9D6" stroke-miterlimit="10"/>
    <path d="M263.062 98.9661L273.587 98.9955" stroke="#C2C9D6" stroke-miterlimit="10"/>
    <path d="M276.384 27.368L279.578 27.2723" stroke="#C2C9D6" stroke-miterlimit="10"/>
    <path d="M276.384 36.2957L279.578 36.2074" stroke="#C2C9D6" stroke-miterlimit="10"/>
    <path d="M276.384 45.2528L279.578 45.1792" stroke="#C2C9D6" stroke-miterlimit="10"/>
    <path d="M276.436 54.2099L279.541 54.151" stroke="#C2C9D6" stroke-miterlimit="10"/>
    <path d="M276.384 63.167L279.578 63.1229" stroke="#C2C9D6" stroke-miterlimit="10"/>
    <path d="M276.384 72.1315H279.512" stroke="#C2C9D6" stroke-miterlimit="10"/>
    <path d="M276.384 81.096H279.578" stroke="#C2C9D6" stroke-miterlimit="10"/>
    <path d="M276.325 90.0458H279.541" stroke="#C2C9D6" stroke-miterlimit="10"/>
    <path d="M276.384 99.0029H279.578" stroke="#C2C9D6" stroke-miterlimit="10"/>
    <path d="M282.662 27.1398L288.131 26.9706" stroke="#C2C9D6" stroke-miterlimit="10"/>
    <path d="M282.662 36.1264L288.131 35.9792" stroke="#C2C9D6" stroke-miterlimit="10"/>
    <path d="M282.662 45.113L288.131 44.9878" stroke="#C2C9D6" stroke-miterlimit="10"/>
    <path d="M282.802 54.0922L288.13 53.9965" stroke="#C2C9D6" stroke-miterlimit="10"/>
    <path d="M282.662 63.0787L288.131 63.0051" stroke="#C2C9D6" stroke-miterlimit="10"/>
    <path d="M282.78 72.0653L288.13 72.0138" stroke="#C2C9D6" stroke-miterlimit="10"/>
    <path d="M282.662 81.0518H288.131" stroke="#C2C9D6" stroke-miterlimit="10"/>
    <path d="M282.618 90.0384H288.16" stroke="#C2C9D6" stroke-miterlimit="10"/>
    <path d="M282.662 99.025H288.131" stroke="#C2C9D6" stroke-miterlimit="10"/>
    <path d="M142.498 91.8269L249.527 91.7533" stroke="#6F7F9F" stroke-miterlimit="10"/>
    <path d="M142.498 85.0189L249.527 84.5773" stroke="#6F7F9F" stroke-miterlimit="10"/>
    <path d="M142.498 78.2035L249.527 77.4013" stroke="#6F7F9F" stroke-miterlimit="10"/>
    <path d="M249.888 105.907V73.5226C249.888 73.5226 247.378 70.3357 237.023 70.9245C226.778 71.5133 224.319 80.5661 213.471 85.8358C202.622 91.1056 197.632 82.6048 188.8 82.649C179.968 82.6931 175.662 92.4672 169.325 96.1693C162.988 99.8714 157.417 95.6909 149.888 96.5962C147.773 96.8361 145.779 97.7009 144.158 99.0801C142.538 100.459 141.365 102.29 140.791 104.339L140.688 105.252L249.888 105.907Z" fill="#5F5AF6"/>
    <path d="M249.888 105.907V88.1248C246.348 87.9334 239.002 88.5222 231.201 95.0211C223.399 101.52 209.482 98.0902 205.389 96.5962C198.876 94.2115 191.405 94.0938 183.979 98.8042C176.553 103.515 170.518 103.058 163.636 103.021C158.771 103.021 153.126 104.493 150.278 105.31L249.888 105.907Z" fill="#5C6B8A"/>
    <path d="M168.023 156.359L148.982 155.763C148.096 155.706 147.266 155.31 146.665 154.655C146.065 154.001 145.74 153.14 145.759 152.252C145.744 151.821 145.816 151.39 145.972 150.987C146.127 150.584 146.363 150.216 146.664 149.906C146.965 149.596 147.325 149.35 147.724 149.183C148.122 149.016 148.55 148.931 148.982 148.933L168.023 149.456C168.924 149.507 169.771 149.905 170.385 150.566C171 151.227 171.335 152.101 171.32 153.003V153.003C171.332 153.442 171.255 153.879 171.094 154.288C170.934 154.696 170.692 155.069 170.384 155.382C170.077 155.695 169.709 155.943 169.303 156.111C168.897 156.279 168.462 156.363 168.023 156.359V156.359Z" fill="#5C6B8A"/>
    <path d="M206.464 157.552L186.695 156.941C185.784 156.888 184.928 156.486 184.306 155.818C183.684 155.151 183.343 154.269 183.354 153.356V153.356C183.343 152.913 183.421 152.472 183.585 152.059C183.748 151.647 183.994 151.272 184.306 150.956C184.618 150.641 184.99 150.392 185.401 150.224C185.811 150.056 186.251 149.972 186.695 149.978L206.464 150.523C207.391 150.567 208.265 150.967 208.903 151.641C209.541 152.314 209.893 153.209 209.886 154.137V154.137C209.895 154.588 209.813 155.037 209.644 155.456C209.475 155.875 209.223 156.255 208.904 156.574C208.584 156.893 208.203 157.144 207.784 157.312C207.364 157.48 206.915 157.562 206.464 157.552Z" fill="#5C6B8A"/>
    <path d="M245.546 158.773L225.026 158.133C224.084 158.089 223.195 157.681 222.548 156.994C221.902 156.308 221.547 155.396 221.559 154.453C221.551 153.997 221.636 153.543 221.807 153.12C221.979 152.697 222.234 152.313 222.558 151.992C222.882 151.67 223.267 151.417 223.692 151.248C224.116 151.079 224.57 150.998 225.026 151.009L245.546 151.575C246.498 151.61 247.401 152.013 248.063 152.699C248.724 153.385 249.094 154.302 249.093 155.255C249.103 155.723 249.018 156.187 248.843 156.621C248.668 157.054 248.407 157.447 248.075 157.776C247.743 158.105 247.348 158.364 246.913 158.535C246.478 158.706 246.013 158.788 245.546 158.773V158.773Z" fill="#5C6B8A"/>
    <path d="M26.6959 137.886L132.253 140.381" stroke="#6F7F9F" stroke-miterlimit="10"/>
    <path d="M26.6959 132.285L132.253 134.471" stroke="#6F7F9F" stroke-miterlimit="10"/>
    <path d="M26.6959 126.684L132.253 128.553" stroke="#6F7F9F" stroke-miterlimit="10"/>
    <path d="M26.6959 121.076L132.253 122.636" stroke="#6F7F9F" stroke-miterlimit="10"/>
    <path d="M26.6959 115.475L132.253 116.726" stroke="#6F7F9F" stroke-miterlimit="10"/>
    <path d="M26.6959 109.874L132.253 110.808" stroke="#6F7F9F" stroke-miterlimit="10"/>
    <path d="M26.6959 104.273L132.253 104.891" stroke="#6F7F9F" stroke-miterlimit="10"/>
    <path d="M26.6959 98.6717L132.253 98.9808" stroke="#6F7F9F" stroke-miterlimit="10"/>
    <path d="M39.4288 144.245L29.3162 143.972V121.76L39.4288 121.915V144.245Z" fill="#5C6B8A"/>
    <path d="M53.7734 144.628L43.5062 144.355V115.703L53.7734 115.828V144.628Z" fill="#5F5AF6"/>
    <path d="M68.3389 145.018L57.9171 144.738V110.956L68.3389 111.059V145.018Z" fill="#5C6B8A"/>
    <path d="M83.1251 145.415L72.5414 145.135V96.9421L83.1251 96.9642V145.415Z" fill="#5F5AF6"/>
    <path d="M98.1395 145.82L87.3939 145.533V111.228L98.1395 111.331V145.82Z" fill="#5C6B8A"/>
    <path d="M113.389 146.232L102.474 145.938V122.15L113.389 122.312V146.232Z" fill="#5F5AF6"/>
    <path d="M128.882 146.644L117.791 146.35V131.792L128.882 132.005V146.644Z" fill="#5C6B8A"/>
    <path d="M29.7946 149.581L38.023 149.824" stroke="#C2C9D6" stroke-linecap="round" stroke-linejoin="round"/>
    <path d="M44.0876 150.008L52.4412 150.258" stroke="#C2C9D6" stroke-linecap="round" stroke-linejoin="round"/>
    <path d="M58.5942 150.442L67.0803 150.692" stroke="#C2C9D6" stroke-linecap="round" stroke-linejoin="round"/>
    <path d="M73.329 150.876L81.9402 151.134" stroke="#C2C9D6" stroke-linecap="round" stroke-linejoin="round"/>
    <path d="M88.2917 151.325L97.0354 151.583" stroke="#C2C9D6" stroke-linecap="round" stroke-linejoin="round"/>
    <path d="M103.483 151.781L112.366 152.046" stroke="#C2C9D6" stroke-linecap="round" stroke-linejoin="round"/>
    <path d="M118.917 152.238L127.94 152.51" stroke="#C2C9D6" stroke-linecap="round" stroke-linejoin="round"/>
    <path d="M258.256 114.253V108.968L272.616 109.079V114.393L258.256 114.253Z" fill="#5F5AF6"/>
    <path d="M258.256 121.642V116.365L276.671 116.564V121.892L258.256 121.642Z" fill="#5C6B8A"/>
    <path d="M258.256 129.032V123.755L279.843 124.064V129.4L258.256 129.032Z" fill="#5F5AF6"/>
    <path d="M258.256 136.428V131.144L288.948 131.696V137.054L258.256 136.428Z" fill="#5C6B8A"/>
    <path d="M258.256 143.818V138.541L279.843 138.997V144.333L258.256 143.818Z" fill="#5F5AF6"/>
    <path d="M258.256 151.207V145.93L273.065 146.298V151.612L258.256 151.207Z" fill="#5C6B8A"/>
    <path d="M258.256 158.604V153.32L267.221 153.577V158.876L258.256 158.604Z" fill="#5F5AF6"/>
    <path d="M173.521 127.574C173.521 136.554 166.587 143.656 158.101 143.443C149.615 143.229 142.918 135.899 142.918 127.059C142.918 118.22 149.689 111.11 158.101 111.184C166.514 111.257 173.521 118.632 173.521 127.574Z" fill="#5C6B8A"/>
    <path d="M158.83 111.228C158.587 111.228 158.352 111.184 158.094 111.184C149.682 111.11 142.91 118.22 142.91 127.059C142.91 135.899 149.682 143.251 158.094 143.443C158.344 143.443 158.58 143.443 158.83 143.443V111.228Z" fill="#5F5AF6"/>
    <path d="M168.722 127.464C168.722 133.646 163.953 138.556 158.101 138.423C152.25 138.291 147.584 133.256 147.584 127.14C147.584 121.024 152.28 116.1 158.094 116.181C163.908 116.262 168.722 121.311 168.722 127.464Z" fill="#313E59"/>
    <path d="M211.616 128.2C211.616 137.341 204.425 144.576 195.623 144.355C186.82 144.134 179.865 136.664 179.865 127.663C179.865 118.661 186.886 111.419 195.623 111.471C204.359 111.522 211.616 119.074 211.616 128.2Z" fill="#5F5AF6"/>
    <path d="M206.604 128.134C206.634 129.597 206.371 131.052 205.828 132.412C205.286 133.772 204.476 135.009 203.446 136.05C202.416 137.09 201.188 137.914 199.834 138.471C198.48 139.027 197.028 139.307 195.564 139.292C189.521 139.159 184.656 134 184.656 127.766C184.626 126.313 184.886 124.869 185.42 123.518C185.954 122.167 186.752 120.936 187.768 119.897C188.784 118.858 189.996 118.032 191.335 117.468C192.673 116.903 194.111 116.611 195.564 116.608C201.651 116.674 206.604 121.834 206.604 128.134Z" fill="#313E59"/>
    <path d="M251.088 128.884C251.114 131.066 250.701 133.231 249.873 135.25C249.046 137.269 247.821 139.101 246.271 140.637C244.722 142.173 242.879 143.382 240.852 144.191C238.826 145.001 236.658 145.394 234.476 145.349C230.075 145.188 225.909 143.324 222.857 140.149C219.806 136.973 218.108 132.736 218.122 128.332C218.099 126.173 218.505 124.031 219.317 122.03C220.129 120.029 221.331 118.209 222.853 116.677C224.375 115.145 226.186 113.931 228.182 113.105C230.177 112.28 232.317 111.859 234.476 111.868C238.926 111.951 243.164 113.784 246.273 116.968C249.382 120.153 251.112 124.434 251.088 128.884V128.884Z" fill="#5C6B8A"/>
    <path d="M235.264 111.912C234.999 111.912 234.741 111.868 234.476 111.868C232.317 111.859 230.177 112.28 228.182 113.105C226.186 113.931 224.375 115.145 222.853 116.677C221.331 118.209 220.129 120.029 219.317 122.03C218.505 124.031 218.099 126.173 218.122 128.332C218.108 132.736 219.806 136.973 222.857 140.149C225.909 143.324 230.075 145.188 234.476 145.349C234.741 145.349 234.999 145.349 235.264 145.349V111.912Z" fill="#5F5AF6"/>
    <path d="M245.921 128.796C245.939 130.301 245.655 131.793 245.085 133.186C244.515 134.579 243.672 135.843 242.604 136.903C241.537 137.964 240.267 138.799 238.871 139.36C237.475 139.92 235.98 140.195 234.476 140.167C231.428 140.064 228.54 138.776 226.426 136.577C224.312 134.378 223.139 131.441 223.156 128.391C223.141 126.898 223.422 125.417 223.985 124.034C224.548 122.651 225.381 121.394 226.434 120.337C227.488 119.279 228.742 118.441 230.122 117.873C231.503 117.305 232.983 117.018 234.476 117.028C237.547 117.093 240.469 118.364 242.61 120.566C244.752 122.768 245.941 125.725 245.921 128.796V128.796Z" fill="#313E59"/>
    <path d="M154.834 128.068L161.826 128.193" stroke="#C2C9D6" stroke-miterlimit="10"/>
    <path d="M192.34 128.715L199.597 128.84" stroke="#C2C9D6" stroke-miterlimit="10"/>
    <path d="M230.561 129.378L238.09 129.51" stroke="#C2C9D6" stroke-miterlimit="10"/>
    <path d="M192.664 42.3677L192.716 41.8083L192.554 41.9702L192.664 42.3677Z" fill="#5C6B8A"/>
    <path d="M170.952 50.6182L171.327 50.6771L172.188 50.4122L170.952 50.0147L171.121 50.4195L170.621 50.5373L170.952 50.6182Z" fill="#5C6B8A"/>
    <path d="M180.704 57.463L178.805 56.727L178.466 56.9258L178.518 56.6387L177.907 56.2266L177.208 56.521L177.436 56.175L176.914 56.0278L176.744 56.2634L177.068 55.6378L176.671 54.7619L176.222 54.3718L175.221 54.2394L174.485 53.5034H174.109L174.176 53.2605L173.793 53.1059V52.9366L173.579 52.8704L173.079 53.0838L172.255 52.8704L171.835 52.4803L171.762 52.6717L171.408 52.9146L171.497 53.3414L171.224 53.2458L171.335 52.8557L171.298 52.6496L171.364 52.5907L171.43 52.4067L170.694 52.8115H170.569L169.98 53.7021H169.929L169.767 53.4666L169.406 53.2826L169.038 53.4445H168.626L168.207 52.8925L168.361 51.6634L168.074 51.4352H167.044L166.941 51.369L167.095 50.7213H167.147L167.449 49.735H166.823L166.249 50.6256L165.454 50.7654L165.16 50.6109L164.74 49.9338V48.3293L164.637 48.2851L164.74 48.3293L164.666 47.9539L164.733 47.6669L165.609 46.9824L166.462 47.1738L166.58 47.0707L166.808 47.2474L166.698 46.9382L167.103 46.7469L167.206 46.8278L167.544 46.769L167.787 46.9603H167.964L168.207 46.8646L168.854 48.3366H169.053L169.163 47.9834L168.803 46.5114L169.973 45.1939V45.0026L170.039 44.8922H170.216L170.282 44.7155L170.106 44.4138V44.2739L169.936 44.0237L170.039 43.9206V43.5306H170.128L170.172 44.1709L170.29 44.0826L170.341 43.5674H170.525L170.658 43.192L171.18 42.9786H170.79L171.202 42.8166L171.335 42.6915H171.548L171.482 42.4634L171.681 41.985L172.019 41.6538H172.343L173.079 41.087V41.2122L173.314 41.3078L172.792 41.5802V41.9114L173.13 41.8304L173.373 41.5802L173.97 41.3814L174.08 41.352L174.426 41.1974L174.33 41.0797V40.8736L173.911 41.3005L173.454 41.2195L173.175 40.9693V40.6602L173.057 40.5645V40.4467L173.314 40.064L172.196 40.2995L171.629 40.8662L172.277 40.0125L172.549 39.9168L172.74 39.6518L174.36 39.512L175.537 38.776V38.6509L175.464 38.5699L175.552 38.408L175.412 38.1798L175.14 38.2314V37.9885L174.485 38.2461L174.426 38.1283L175.096 37.8118L173.837 37.017V36.936L174.043 36.8035L173.234 35.3315L172.998 35.6406L172.91 35.9866L172.821 36.097H172.667L172.409 36.281L171.982 35.9056L171.872 35.3904L171.96 35.1328L171.371 34.9488L170.834 34.463L170.577 34.5661L169.789 34.463L169.679 34.6838L169.848 34.8826L169.708 35.1696L169.885 35.6038L169.627 36.2368L170.01 36.5827L170.069 37.2304L169.664 37.672L169.303 37.8339L169.509 38.7686L169.458 39.0189L169.495 39.1661H169.377L169.237 39.3574L169.024 39.2691L168.567 38.6067V37.9222L168.42 37.7382L166.286 36.8992L165.903 37.039V36.8918L165.601 36.2736L165.322 36.2L165.483 35.1475L166.359 34.2128L165.579 33.8669L166.47 34.0141L166.536 33.7565L166.911 33.8154L167.279 33.3738L166.632 33.072V32.9101L167.147 33.1824L167.53 32.8512L167.382 32.6819L167.581 32.5789L167.75 32.7114H168.023L167.883 32.5053L167.927 32.4243L168.192 32.52H168.413L168.795 32.1962L168.582 31.6662V31.5411L168.84 31.4307L168.685 31.129L167.794 30.864V31.1437L167.875 31.2909L167.831 31.4234L167.662 31.5558L167.537 31.8576L167.426 31.6736L167.39 31.9091L167.485 32.0858L167.309 32.2403L166.992 31.8061L167.103 31.6736V31.4896L166.933 31.2909L166.69 31.232L166.477 31.6883L166.396 31.335L166.492 31.0922L166.234 30.9818L166.043 31.0406V30.7904L166.19 30.7242L165.807 30.3856V30.128L165.476 29.8704L165.417 29.7453L165.601 29.5834L165.66 29.289H166.058L166.433 28.6928L165.741 28.4794L165.204 28.5898L165.277 28.7664H165.108L165.248 29.7747L165.093 29.9514L165.174 30.1206H164.961V30.9155L165.476 31.1142L165.388 31.5043L165.513 31.3939L165.631 31.5558L165.204 31.865V32.152L165.064 32.2624L164.931 32.0269V31.7987L164.637 31.7104L164.828 31.6662L164.961 31.5485L165.255 31.5117L165.115 31.2614H164.909L165.123 31.2099L164.681 31.048L164.129 31.3424L164.549 31.6515L164.328 31.8134V32.0048L162.915 31.9312L162.687 31.8061L162.554 31.5779H162.135L161.759 31.784L161.877 31.9018L162.451 31.681L162.032 31.9459V32.5789L161.87 32.5053V32.2624L160.096 32.1446L160.383 31.9091L160.287 31.6883L158.631 31.2541L157.763 31.4307V31.2394L157.682 31.0112L157.336 31.4381L156.953 30.864L156.799 30.9229L156.519 31.2909L155.467 31.8355L155.525 31.6736L156.423 31.0995H156.203L155.334 31.519L155.143 31.416L154.797 31.7178L154.9 31.887L150.616 31.048L150.535 30.9008H150.101L149.976 30.783L149.652 30.8714L149.748 30.7389L149.549 30.6358L148.651 31.0333L148.71 31.1878L148.151 31.2614L147.856 31.5558L147.753 31.8723L147.113 32.0342L147.047 32.2256L147.739 32.9174H148.165L148.246 33.1677L148.519 33.2266L147.68 33.4032V33.256H147.363L147.223 33.4326H147.003L146.664 33.6682L147.032 33.8301L146.98 33.9699L147.172 34.1834H147.908L148.357 33.9846L148.283 34.1907V34.5808L147.974 34.6176L147.842 34.8605L147.584 34.8016L147.481 35.1034L147.231 35.3242L147.106 35.5891L147.334 35.7584V36.0381L147.643 36.3766L147.945 36.3104L148.07 36.1853L148.151 36.8109H148.931L149.034 36.6563H149.306L149.225 37.2672L148.489 38.0032L148.099 38.0621L147.915 38.3859L150.322 36.6269L150.123 36.5165L151.014 35.5376L151.168 35.6038V35.7142L150.911 35.7805L150.808 36.0528V36.2662L150.719 36.3987L150.822 36.4944L151.323 36.1632H151.683V36.0086L151.573 35.8394L151.654 35.6922L152.177 35.7952L152.066 35.8982V36.0013L152.419 35.9203L152.471 35.9718L153.31 36.0381L153.538 36.2074L153.847 36.0822L153.796 36.2662L154.532 36.7962L154.679 36.649L154.885 36.7667V36.5165H154.981V36.8992L154.789 36.855L154.62 36.9139L155.025 37.5616V37.0464L155.062 37.2525L155.209 37.1494V36.936L155.356 37.1347L155.275 37.3408L155.135 37.4218V37.7309L155.238 37.6205L155.4 37.5763L155.621 37.7677L155.518 37.6278V37.4659L155.709 37.753L155.584 37.9075L155.363 37.7898L155.4 38.305L155.489 38.2019L155.628 38.2608L155.687 38.0915L155.812 38.143L155.93 38.0694V38.2755H156.041L156.151 38.4227L156.077 38.5478L156.122 38.7686H156.342L156.401 38.9379L156.718 39.1808L156.777 39.6371L157.446 39.9389L157.542 40.1155L157.888 40.2259L158.109 40.535L158.153 40.8368L158.072 41.1386L157.954 40.7043V40.5792L157.218 39.9389L156.615 39.8285L157.424 40.5645L157.785 41.4109L157.822 44.2077L158.675 45.6282L159.205 45.8195L160.295 47.8141H160.089L160.685 48.2704L160.758 48.6384L161.325 49.3082L161.45 49.2125L161.399 48.977L161.178 48.8739L160.442 47.4461V47.2915L160.243 47.1958L160.015 46.5334H160.111L160.501 46.6806L160.596 47.4166L162.495 49.8013V50.0221L162.414 50.1251L162.62 50.4931L164.482 51.4646H165.469L165.741 51.7075L166.028 51.9798L166.889 52.2374L166.978 52.1933H167.051L167.117 52.4141L167.515 52.8704V52.9882L167.581 53.2458L167.728 53.209L168.759 53.945L168.957 53.8787L168.884 53.7168L169.016 53.5696L169.303 53.4592L169.612 54.0554L169.657 55.1667L169.259 55.6893V55.7261L169.082 55.8365L168.928 56.808L169.082 56.9626H169.208L169.09 57.1466L168.876 57.4042L168.979 57.809L168.898 57.8899L170.267 60.5101L171.739 61.6141L170.672 69.7101L170.79 69.9088L170.908 69.3715L171.003 69.2611L171.07 69.3715L170.974 70.6301L170.842 70.7184V70.9098L170.68 70.8362L170.79 70.6374L170.658 70.424L170.738 70.6595L170.451 70.8582V70.9981L170.29 71.1821H170.621V71.3293L170.54 71.5133H170.783V71.631H170.459L170.282 71.793L170.378 71.9254L170.51 71.8298H170.613L170.348 72.1389L170.466 72.3523L170.658 72.0947L170.584 72.529L170.429 72.7203V73L170.694 72.9558L170.746 73.0589L170.628 73.1987H170.783H170.871L171.033 73.265L170.805 73.3754L170.731 73.552L170.922 73.4784H171.32L170.849 73.6771V73.736L171.379 73.5594L171.048 73.8317H170.775V74.0304L171.165 74.1629L171.121 74.0598L171.651 73.4784L171.578 73.7949H171.813L171.666 73.9274V74.1334L171.555 73.8906L171.504 74.0746L171.379 74.023L171.18 74.2586L171.371 74.3027L171.497 74.5677L171.592 74.3322L171.776 74.6045L171.865 74.5014L172.137 74.7222V74.5235L172.939 74.3763L172.13 73.7654V73.6403L172.034 73.4784L171.806 73.3606V73.3165H172.049L171.887 72.816L171.938 72.5437L172.718 71.5869L172.77 71.2925L172.512 71.2189L172.328 70.7699L172.755 70.4829L173.072 69.5997L173.219 69.6954L173.322 69.4672L173.138 69.5187L172.998 69.4451L172.946 68.9446L173.359 69.0624L173.66 68.8858V68.3926L173.756 68.2749L174.418 68.2234L174.912 67.9363L175.147 67.5462L174.669 66.7146H174.757L175.199 66.8618L175.787 66.7955L176.59 65.3235V65.6989L177.186 64.7936L177.34 63.697L178.356 62.961L179.026 62.8726L179.762 61.2902L179.828 59.8182L179.88 59.7299L180.042 59.7814L180.858 58.5008L180.807 57.6397L180.579 57.4704L180.704 57.463Z" fill="#5C6B8A"/>
    <path d="M170.665 49.9853L168.935 49.1094L168.023 49.4995L168.464 49.2566L169.701 49.7939L169.826 50.0294L170.665 49.9853Z" fill="#5C6B8A"/>
    <path d="M169.598 50.5814L170.128 50.6771L169.598 50.5814Z" fill="#5C6B8A"/>
    <path d="M172.542 50.552L172.969 50.5373L172.542 50.552Z" fill="#5C6B8A"/>
    <path d="M166.242 56.153L166.403 56.4547L166.242 56.153Z" fill="#5C6B8A"/>
    <path d="M184.377 30.1869L183.339 30.1648L183.457 29.6864L184.406 30.0176L184.494 29.6202L183.817 28.9504L184.2 28.9946L184.45 28.6781L183.825 28.6854L183.707 28.4941L183.81 28.2438L184.384 28.4205L184.826 28.288L184.48 27.9274L185.061 27.8464L185.127 27.6403L184.656 27.3165L185.113 27.2134L184.988 26.6688L184.524 26.5584L184.333 26.3302L185.4 26.2419L185.238 25.9328L184.804 25.8371L185.164 25.7414L184.428 25.6458L184.59 25.0864L185.488 24.3504L185.311 24.1222L184.877 24.2915L185.23 24.0339L185.893 23.9014L185.407 23.791L187.034 23.0256L186.136 22.768L185.606 23.0698L185.069 23.1213L184.84 23.033L183.884 23.7763L184.318 23.1434L184.156 22.7165L182.986 23.2979L183.53 22.8931L181.565 23.0771L184.524 22.3558L180.38 21.8333L179.939 22.1056L177.973 22.1939L178.231 22.4589L177.767 22.6282L178.43 23.0845L176.818 22.6429L177.134 23.0477L176.774 23.0771L176.295 22.7974L176.273 23.1728L176.06 23.3862L175.92 22.7827L174.065 23.3274L174.139 23.7763L173.646 23.7027L172.476 24.4755L173.109 24.5638L172.895 25.1158L171.099 25.7782L171.254 25.999L172.785 26.3229L171.46 26.5584L171.924 26.6835L171.931 26.919L172.24 27.103L173.572 26.9411L174.823 27.4637L175.736 28.943L175.604 29.3184L175.729 29.7158L176.119 29.5098L176.214 29.8042L176.708 30.0618L176.605 30.1869L175.913 30.1501L176.612 30.496L176.84 30.7978L176.789 31.2099L176.457 31.2394L176.038 31.9018L176.288 32.152L176.089 32.4243L176.45 32.8438L176.494 33.3517L177.105 34.4042L178.702 35.3757L178.893 35.1402L179.004 34.1981L179.438 33.6093L179.445 33.3958L179.549 33.256L179.497 33.0352L179.534 32.9174L180.145 32.3875L180.27 32.3802L180.329 32.5347L180.814 32.4022L181.712 31.4381L184.281 30.3414L184.377 30.1869Z" fill="#5C6B8A"/>
    <path d="M176.523 30.7536L176.317 30.5402L175.81 30.4518L175.773 30.7094L176.06 30.8934L176.523 30.7536Z" fill="#5C6B8A"/>
    <path d="M166.058 27.9642L166.779 28.1923L166.963 28.0966L169.075 28.1187L169.303 27.6403L166.698 27.5005L166.779 27.2208L165.542 26.8381L164.895 26.9632L166.05 27.5078L166.058 27.9642Z" fill="#5C6B8A"/>
    <path d="M169.252 34.8826L169.289 34.5514L169.252 34.8826Z" fill="#5C6B8A"/>
    <path d="M163.445 30.9891L163.805 30.9597L162.944 30.3562L162.768 28.8547L162.267 29.0019L162.591 29.311L162.238 29.1638L161.965 29.1712L162.135 29.8851L161.973 30.047L161.781 29.5466L161.303 29.3478L161.502 29.5907L161.2 29.6275L160.714 29.3405L160.545 29.6202L160.354 29.5392L160.398 29.1933L159.286 29.7158L159.213 29.9219L159.434 30.312L160.037 30.2016L159.367 30.5254L160.987 30.7978L159.581 31.0922L161.082 31.7546L162.223 31.335L163.555 31.4528L163.386 31.1952L163.187 31.1878L163.445 30.9891Z" fill="#5C6B8A"/>
    <path d="M168.251 34.625L168.685 34.279L168.251 34.625Z" fill="#5C6B8A"/>
    <path d="M175.53 39.1293L175.405 39.0336L174.647 40.5424L175.655 40.5056L175.589 40.719L175.81 40.6086L176.295 40.719L176.163 40.2995L176.06 40.2333L176.075 39.9389L175.64 39.8358L175.523 39.6666L175.324 39.6813L175.346 39.4678L175.53 39.1293Z" fill="#5C6B8A"/>
    <path d="M173.263 39.7475L173.977 40.0051L173.263 39.7475Z" fill="#5C6B8A"/>
    <path d="M169.075 33.8742L167.898 32.9616L167.611 33.1677L167.323 33.9773L167.647 33.9552L167.78 34.1907L168.214 33.9037L169.075 33.8742Z" fill="#5C6B8A"/>
    <path d="M163.099 28.0378L162.863 27.8979L163.099 28.0378Z" fill="#5C6B8A"/>
    <path d="M170.4 32.049L170.437 31.6515L170.106 31.5706L169.87 32.0342L170.4 32.049Z" fill="#5C6B8A"/>
    <path d="M164.203 30.1206L164.659 29.9661L164.998 29.2301L164.843 29.2006L164.806 29.3184L164.49 29.1859L164.821 28.8621L164.637 28.5898L163.717 29.0019L163.997 29.2522L163.489 29.2154L164.203 30.1206Z" fill="#5C6B8A"/>
    <path d="M158.131 30.5475L160.059 29.0902L159.743 28.7738L158.55 28.5088L157.748 28.6781L157.866 28.9504L157.454 29.8483L158.131 30.5475Z" fill="#5C6B8A"/>
    <path d="M166.639 26.3965L166.389 26.632L166.639 26.3965Z" fill="#5C6B8A"/>
    <path d="M159.132 27.8979L159.529 27.5888L159.132 27.8979Z" fill="#5C6B8A"/>
    <path d="M155.584 38.592L155.974 39.225L155.849 38.776L155.584 38.592Z" fill="#5C6B8A"/>
    <path d="M165.785 26.3229L165.035 26.5069L165.785 26.3229Z" fill="#5C6B8A"/>
    <path d="M171.43 29.8998L171.04 29.9219L169.87 29.2227L169.583 29.4803L169.428 29.4214L169.002 29.5907L169.016 29.0902L168.832 28.7443L168.332 28.759L167.78 29.024L167.861 29.4582L167.728 29.7379L168.001 29.9514L167.566 29.7674L167.507 29.392L167.647 28.9651L167.905 28.6928L166.889 29.0166L166.654 30.047L167.198 30.1501L167.139 30.2826L166.757 30.3341L168.604 30.8419L168.869 30.7021L169.45 30.7757L169.414 30.5917L169.473 30.4445L170.312 31.0922L170.054 31.3498L170.459 31.2026L171.084 31.7619V32.2771L171.511 32.2256L171.909 32.439L171.533 32.6598L170.878 32.4022L170.812 32.9027L169.863 33.153L169.715 33.5283L170.922 33.44L171.224 33.7344L171.371 34.1098L172.792 34.647L172.115 33.8816L173.204 33.9773L172.38 32.807L172.453 32.4758L172.821 32.6083L173.197 33.0205L173.734 32.7482L174.073 32.3581L172.291 31.1878L172.645 31.0848L172.35 30.9229L172.498 30.783L172.358 30.5402L172.174 30.6506L172.218 30.415L171.636 30.1427L171.305 30.231L171.21 30.1427L171.43 29.8998Z" fill="#5C6B8A"/>
    <path d="M168.972 28.6781L169.127 29.0387L169.517 29.1712L170.135 29.0314L169.48 28.6854L168.972 28.6781Z" fill="#5C6B8A"/>
    <path d="M161.487 26.3818L161.332 26.2714L160.685 26.529L161.023 26.7792L161.487 26.3818Z" fill="#5C6B8A"/>
    <path d="M162.826 25.6826L163.165 25.8592L162.76 25.9475L164.247 26.2125L164.144 25.8886L163.562 25.4912L162.657 25.3734L162.826 25.6826Z" fill="#5C6B8A"/>
    <path d="M160.545 26.4848L160.206 26.4112L160.545 26.4848Z" fill="#5C6B8A"/>
    <path d="M162.908 26.7792L162.517 26.4406L162.908 26.7792Z" fill="#5C6B8A"/>
    <path d="M159.956 27.4416L159.993 27.6403L159.772 27.8906L160.037 27.8832L159.581 28.0672L160.265 28.1114L160.464 28.0157L160.957 28.0378L160.582 28.288L160.567 28.5603L162.414 28.1114L162.51 27.5005L162.223 27.633L161.752 27.0589L161.48 27.3901L161.502 27.5888L161.693 27.8022L160.228 27.2502L159.956 27.4416Z" fill="#5C6B8A"/>
    <path d="M158.285 27.7286L158.668 27.5373L158.845 27.7654L159.382 27.1178L159.456 27.3827L159.897 27.184V26.9632L160.059 26.8013L159.853 26.6762L159.698 26.7939L159.36 26.7718L158.19 27.5667L158.285 27.7286Z" fill="#5C6B8A"/>
    <path d="M160.928 26.1536L161.671 26.0211L161.112 25.8886L160.626 26.1389L160.928 26.1536Z" fill="#5C6B8A"/>
    <path d="M164.998 24.9834L165.248 25.2925H165.999L165.542 25.5574L166.514 26.0358L166.882 26.0064L167.404 25.4102L167.839 25.2262L167.338 24.9171L167.22 24.6448L165.542 23.9382L165.572 24.0707L165.182 24.3504L165.226 24.6742L164.998 24.9834Z" fill="#5C6B8A"/>
    <path d="M164.865 26.2861L165.322 26.1757L165.344 25.9549L164.534 25.6678L164.865 26.2861Z" fill="#5C6B8A"/>
    <path d="M164.387 25.0202L164.041 24.8877L164.387 25.0202Z" fill="#5C6B8A"/>
    <path d="M165.535 27.7434L164.887 28.0598L165.66 28.2438L165.535 27.7434Z" fill="#5C6B8A"/>
    <path d="M163.908 26.9706L163.989 27.3091L163.688 27.2282L163.599 27.4416L163.445 27.4637L163.018 27.0294L162.988 27.3974L163.393 27.7139L164.011 27.6771L163.953 28.0451L164.49 28.0598L164.703 27.8096L164.681 27.5152L164.387 27.0736L163.908 26.9706Z" fill="#5C6B8A"/>
    <path d="M166.381 23.6365L166.529 23.6733L166.632 23.7837L166.551 23.9898L166.786 24.159L167.441 24.1664L167.515 24.3062L169.347 23.9677V24.2179L168.501 24.4608L168.825 24.8435L167.574 24.527L167.588 24.9981L168.567 25.6752L167.875 25.5427L167.213 25.9034H167.824L167.772 26.0874L168.067 26.4701L167.728 26.4406L167.279 26.1904L167.235 26.6688L166.713 26.9853L169.62 26.9558L169.738 26.6909L168.891 26.6026L168.898 26.4259L169.576 26.3818L169.62 26.0874L170.106 26.0358L170.621 25.4102L169.929 25.263L170.51 25.0717L170.834 24.7846L171.335 24.8067L173.234 23.5702L172.461 23.5482L173.859 23.0771L173.933 22.7827L173.234 22.5325L172.645 22.6429L172.748 22.4589L167.758 23.0403L167.338 23.3642L166.941 23.3126L166.735 23.504L166.183 23.5776L166.381 23.6365Z" fill="#5C6B8A"/>
    <path d="M147.437 38.6582L147.775 38.4522L147.437 38.6582Z" fill="#5C6B8A"/>
    <path d="M150.418 36.936L150.189 37.2378L150.005 37.3261L150.116 37.5469H150.248L150.579 37.2598L150.484 37.0906L150.668 36.9875L150.616 36.8477L150.418 36.936Z" fill="#5C6B8A"/>
    <path d="M147.047 36.1779L146.818 36.2736L147.172 36.384L147.223 36.1853L147.047 36.1779Z" fill="#5C6B8A"/>
    <path d="M191.104 43.0374L190.875 43.1331L191.104 43.0374Z" fill="#5C6B8A"/>
    <path d="M197.05 44.399L196.469 44.3475L196.307 44.4285L196.697 44.5315L197.05 44.399Z" fill="#5C6B8A"/>
    <path d="M199.038 44.4653L199.185 44.2739L199.178 44.215L198.802 44.3549L198.677 44.5683L199.038 44.4653Z" fill="#5C6B8A"/>
    <path d="M186.209 33.1382L186.621 32.7114L186.29 32.1446L186.114 32.1667L185.863 32.0342L185.834 32.2182L185.422 32.2698L185.289 32.2256L185.113 32.3654L185.01 32.3066L184.884 32.4022L184.855 32.5421L184.678 32.6378L184.612 32.3949L184.215 32.1078L184.251 32.2771L184.156 32.2698L183.986 32.3507L183.854 32.5494L184.421 32.6083L184.369 32.7555L183.935 32.9395H184.318L184.487 33.1456L184.266 33.3885L184.597 33.3664L185.076 33.5651L186.209 33.1382Z" fill="#5C6B8A"/>
    <path d="M187.748 38.6803L188.52 38.3712V37.6278L188.719 37.4806L188.572 37.1494L187.946 37.2819L188.071 37.4218L187.858 37.5469L187.578 37.5616L187.733 37.9958L187.659 38.2461L187.483 38.4522L187.748 38.6803Z" fill="#5C6B8A"/>
    <path d="M188.535 35.7584L188.366 36.0307L188.535 35.7584Z" fill="#5C6B8A"/>
    <path d="M188.476 36.1632L188.66 36.3325L188.564 36.5533L188.704 36.7152L188.491 36.9066L188.675 36.8256L188.785 37.0022L188.932 36.7667L188.954 36.9728L188.859 37.2746L189.242 37.223L189.418 37.6058L189.396 37.8781L189.131 37.8928L189.05 37.9443L188.969 38.1357L189.124 38.2461L188.874 38.4522L188.977 38.5773L189.403 38.6509L189.426 38.7245L189.138 38.776L188.8 39.2544L188.999 39.1219L189.19 39.1661L189.308 39.0262L189.705 38.9232L189.911 38.9747L190.574 38.7171L190.463 38.6582L190.485 38.4816L190.699 38.1872L190.294 38.0253V37.8634L189.661 36.8403L189.418 36.8035L189.72 36.0749L189.227 36.0675L189.138 35.9718L189.337 35.7142L189.381 35.5376L189.264 35.6627L188.977 35.6774L188.631 36.2221L188.476 36.1632Z" fill="#5C6B8A"/>
    <path d="M193.312 37.2525L193.503 37.0022L193.569 36.6784L193.481 36.752L193.393 36.6784L193.216 36.7741L193.319 37.039L193.245 37.1274L193.312 37.2525Z" fill="#5C6B8A"/>
    <path d="M195.137 35.8173L194.96 36.2147L195.137 35.8173Z" fill="#5C6B8A"/>
    <path d="M196.19 35.3094L196.02 35.3316L196.19 35.3094Z" fill="#5C6B8A"/>
    <path d="M195.969 35.7069L196.241 35.4934L196.072 35.4419L195.969 35.7069Z" fill="#5C6B8A"/>
    <path d="M195.012 23.9088H195.976L195.424 24.137L196.359 24.321L197.367 23.6954L196.447 23.5702L196.3 23.6586L196.153 23.4672L196.101 23.7616L195.895 23.6365L195.674 23.6291L195.387 23.4525L195.402 23.585L195.21 23.5334L195.218 23.7027L195.019 23.5482L194.909 23.6659L195.041 23.791L195.012 23.9088Z" fill="#5C6B8A"/>
    <path d="M193.179 24.9318L193.363 25.0717L193.017 24.6742L193.179 24.9318Z" fill="#5C6B8A"/>
    <path d="M193.422 24.3872L193.267 24.6816L193.532 25.0054L193.908 25.0202L194.187 24.6448L194.21 24.8288L194.438 24.792L194.541 24.8877L193.812 25.2336L194.048 25.3366L194.578 25.2925L193.849 25.5574L194.114 25.7856L194.371 25.8077L194.246 25.9254L194.46 26.0653L194.636 25.999L195.255 24.8214L195.578 24.7037L195.63 24.7699L195.667 24.9981L195.762 25.1011L195.718 25.3882L195.969 25.4397L196.116 25.5869L196.675 25.2189L196.27 25.1158L196.226 24.9981L196.02 24.9171L195.873 24.7552L195.821 24.5859L195.144 24.3504L195.041 24.1222L194.828 24.2326L194.894 24.0192L194.622 23.9162L194.482 23.7837L194.379 24.0707L194.541 24.5197L194.07 24.0045L193.967 24.2474L193.893 24.3062L193.694 24.1296L193.915 24.0266L193.768 23.975L193.356 24.0118L193.142 24.1222V24.424L193.422 24.3872Z" fill="#5C6B8A"/>
    <path d="M227.867 40.8442L227.639 40.9546L227.484 41.3152V41.5507L227.771 41.4477L227.609 41.2269L228.25 41.2931L228.816 40.9987L229.265 40.4614L228.735 40.6307L228.139 40.1597L227.963 40.2554L227.867 40.8442Z" fill="#5C6B8A"/>
    <path d="M224.768 44.4947L224.651 44.7082L224.805 44.6198L224.952 45.2896L225.254 44.767L225.195 44.5757L225.011 44.4211L224.768 44.4947Z" fill="#5C6B8A"/>
    <path d="M226.542 43.3171L226.373 43.6262L225.475 43.7808L225.055 44.1414V44.3254L226.034 44.031L226.152 44.296L226.468 44.2739L226.564 44.0605L226.652 44.0163L227.197 43.9942L227.359 43.8102L227.617 43.7587L227.756 42.8534L228.007 42.5149L227.874 41.7053L227.528 41.823L227.344 42.64L226.925 43.1626L226.748 43.0669L226.542 43.3171Z" fill="#5C6B8A"/>
    <path d="M225.607 44.6198L225.843 44.5094L226.027 44.2371L225.754 44.2077L225.497 44.296L225.46 44.7008L225.607 44.6198Z" fill="#5C6B8A"/>
    <path d="M222.185 48.2851L222.523 47.3357L222.038 47.7699L222.185 48.2851Z" fill="#5C6B8A"/>
    <path d="M219.373 49.4333L219.513 49.0653L219.182 49.0506L218.917 49.4701L219.373 49.4333Z" fill="#5C6B8A"/>
    <path d="M223.488 52.289L223.171 52.5907L222.936 52.5318L222.619 52.7453L222.516 53.0618L222.958 52.8262L223.179 53.3488L223.466 53.5034L223.451 53.1133L223.745 52.9734L223.679 52.3037L223.488 52.289Z" fill="#5C6B8A"/>
    <path d="M221.935 50.1693L222.082 50.817L222.936 51.2512L223.259 52.0314L223.473 51.7664L223.399 51.3984L222.906 50.8979L222.531 50.8317L222.391 50.552L222.575 50.1178L222.516 49.5216L222.119 49.4922L222.067 50.2061L221.935 50.1693Z" fill="#5C6B8A"/>
    <path d="M222.089 51.0819L222.347 51.3984L222.089 51.0819Z" fill="#5C6B8A"/>
    <path d="M221.589 52.1344L221.243 52.6422L221.736 52.127L221.81 51.7958L221.589 52.1344Z" fill="#5C6B8A"/>
    <path d="M223.223 52.1418L223.024 52.289L223.223 52.1418Z" fill="#5C6B8A"/>
    <path d="M222.936 51.8842L222.523 51.5309L222.538 51.943L222.685 51.8547L222.744 52.4288L223.039 51.9357L222.936 51.8842Z" fill="#5C6B8A"/>
    <path d="M230.664 56.5578L230.332 56.7859L229.751 56.8227L230.193 57.0362L230.759 56.7123L230.84 56.44L230.664 56.5578Z" fill="#5C6B8A"/>
    <path d="M231.024 56.521L230.936 56.2118L230.855 56.2339L231.024 56.521Z" fill="#5C6B8A"/>
    <path d="M229.53 56.9773L226.778 55.601L226.093 56.175L225.806 55.4243L225.18 55.3434L224.952 55.5421L225.092 55.623L225.247 55.8291L225.681 55.8438L225.659 55.9395L225.261 56.0352L225.431 56.3002L226.903 56.808L227.057 57.1539L227.05 57.4262L226.792 57.6765L227.425 57.625L228.007 57.9782L228.5 57.5366L229.067 57.6691L229.67 58.2579L230.244 58.361L230.2 58.177L229.729 57.831L229.471 57.176L229.53 56.9773Z" fill="#5C6B8A"/>
    <path d="M211.491 52.4362L211.38 53.1206L211.52 53.5696L211.933 53.128L211.491 52.4362Z" fill="#5C6B8A"/>
    <path d="M203.086 59.1706L202.99 59.2662L202.953 59.4797L202.659 59.752L202.651 59.9139L201.746 60.3997L201.503 62.6813L201.68 63.248L202.151 63.3731L202.423 63.2554L203.218 60.2746L203.38 60.2378L203.086 59.1706Z" fill="#5C6B8A"/>
    <path d="M204.241 51.7075L204.514 51.6413L204.241 51.7075Z" fill="#5C6B8A"/>
    <path d="M229.17 68.5398L228.706 68.4L228.831 69.0109L229.192 69.4746L229.346 69.3568L229.405 69.1949L229.567 69.2317L229.633 68.4294L229.17 68.5398Z" fill="#5C6B8A"/>
    <path d="M224.724 58.8173L225.077 58.7216L224.724 58.8173Z" fill="#5C6B8A"/>
    <path d="M226.432 66.6998L226.763 66.6483L226.432 66.6998Z" fill="#5C6B8A"/>
    <path d="M231.142 63.9251L231.061 63.1891L230.465 62.5267L230.369 62.2102L230.259 62.1146L230.104 62.1293L229.839 61.4742L229.214 61.0694L228.699 59.568L228.485 59.5754L228.139 58.4198L227.963 58.6406L227.756 60.2378L227.521 60.5984L226.226 59.7594L226.27 59.3546L226.446 59.2074L226.535 59.0013L226.476 58.8541L226.373 58.9792L226.27 58.8173L226.064 58.9203L225.284 58.5744L225.387 58.7731L224.967 58.9203L224.584 59.5165L224.599 59.7741L224.283 59.8256L223.812 59.4355L223.657 59.5386L223.576 59.6784L223.363 59.6931L223.318 59.8256L223.186 59.9286L223.134 60.2304L222.936 60.2083L222.98 60.4365L222.892 60.5984L222.788 60.3702L222.575 60.4954L222.56 60.8486L222.17 61.2902L220.514 61.9821L220.367 62.2029L220.338 62.0189L220.198 62.2397L220.161 63.0714L220.316 63.4762L220.154 63.3216L220.235 63.535L220.043 63.3731L220.787 65.3162L220.728 65.721L220.573 65.9786L220.647 66.1773L220.845 66.3686L221.368 66.4202L224.982 65.169L225.791 65.4781L225.806 65.6621L226.049 65.9197L226.115 66.2582L226.844 65.6547L226.557 66.3318L226.807 66.3024L226.962 66.2141L226.925 66.5453L227.124 66.5306L227.499 67.3402L228.331 67.6787L228.676 67.4506L228.787 67.5021L228.838 67.5904L228.912 67.5315L229.184 67.7891L229.567 67.399L230.134 67.2813L231.142 63.9251Z" fill="#5C6B8A"/>
    <path d="M235.05 70.756L235.154 70.6154L235.05 70.756Z" fill="#5C6B8A"/>
    <path d="M202.99 30.2899L203.49 30.1648L203.248 29.9734L202.99 30.2899Z" fill="#5C6B8A"/>
    <path d="M204.057 28.7811L204.101 29.0019L204.204 28.8989L204.756 29.2669L205.456 29.2448L205.088 28.8915L204.992 28.2438L205.75 27.0589L208.54 25.5133L205.235 26.5878L204.948 27.1914L204.72 27.3312L204.617 27.7213L204.19 28.0157L204.278 28.2218L203.785 28.6118L204.057 28.7811Z" fill="#5C6B8A"/>
    <path d="M214.582 22.4294L214.221 22.4957L214.582 22.4294Z" fill="#5C6B8A"/>
    <path d="M228.478 27.1325L228.124 26.7645L227.676 27.0147L228.478 27.1325Z" fill="#5C6B8A"/>
    <path d="M227.837 26.5584L227.58 26.6835L227.837 26.5584Z" fill="#5C6B8A"/>
    <path d="M215.208 23.2979L215.024 23.5702L216.253 23.9824L216.562 23.4083L215.958 23.0918L215.208 23.2979Z" fill="#5C6B8A"/>
    <path d="M216.444 24.5197L218.093 24.0339L217.739 23.7837L217.349 23.8867L217.379 23.7248L217.224 23.5334L216.937 23.6586L216.842 23.9088L216.635 24.0854L216.444 24.5197Z" fill="#5C6B8A"/>
    <path d="M227.013 26.2272L228.154 26.1168L228.132 25.7635L228.632 26.0874L228.824 25.815L228.757 25.5574L228.169 25.447L227.778 25.5722L227.256 25.3072L226.792 26.0358L227.013 26.2272Z" fill="#5C6B8A"/>
    <path d="M228.382 36.9066L228.205 36.5459L228.036 39.8358L228.213 39.6298L228.448 39.8506L228.213 39.225L228.294 38.7318L228.618 38.6877L228.706 38.6288L228.382 36.9066Z" fill="#5C6B8A"/>
    <path d="M219.903 26.6541L219.741 26.8013L220.227 26.6982L219.903 26.6541Z" fill="#5C6B8A"/>
    <path d="M229.906 26.1757L230.561 26.0138L229.427 25.7341L229.236 25.9475L229.906 26.1757Z" fill="#5C6B8A"/>
    <path d="M214.788 23.0624L214.722 23.1802L214.531 23.2906L214.773 23.4672L215.833 22.9667L215.907 22.7091L215.59 22.2602L214.899 22.6429L214.781 22.8563L214.788 23.0624Z" fill="#5C6B8A"/>
    <path d="M240.798 30.9597L241.108 31.0259L241.049 30.9376H241.108H241.255L241.431 30.68L240.519 30.2163H240.158L240.32 30.312L240.283 30.5107L240.107 30.4298V30.1206L240.004 29.9587L236.066 28.6634L235.978 28.8621L236.11 29.105L236.044 29.3994L235.396 29.0682L235.727 28.8915L235.381 28.7443L235.058 29.0387H233.541L233.49 29.3258L233.416 29.0314L233.056 28.8989L233.107 28.7002L232.658 28.2806L230.988 28.3763L230.914 28.2291L230.119 27.9642V27.8685L230.34 27.7434L229.464 27.6109L229.302 27.9126H229.008L229.221 27.7581L228.919 27.6624L229.067 27.5814H229.28L227.808 27.368L227.749 27.5078L227.256 27.8096H227.477L227.403 27.9715L227.484 28.1776H227.006L226.932 28.2438V28.369L226.336 28.104L226.02 28.2291L225.46 28.0598L225.136 28.6192L224.967 28.5603L224.312 27.8611H224.621L224.444 27.2134L224.26 27.081H223.797L223.245 26.8013L222.98 27.1178V27.3459L221.604 27.368L221.714 27.2208H220.286V27.3827L220.242 27.0883L220.102 27.0515L219.822 27.1104L219.513 26.9411L219.204 27.1472L219.366 27.1914L218.181 27.6477L218.247 27.4342L219.719 26.5731L219.852 26.4038L220.176 26.2493L220.301 26.0653L220.183 25.9622L220.316 25.9034L220.227 25.6237H220.051L219.992 25.3734L218.866 25.3072L218.689 25.425L218.35 25.4765L218.542 25.1821L217.806 25.1232L218.137 24.9686V24.8509L217.629 24.7184L217.268 24.8141L216.79 25.3514L216.842 25.4765L216.275 25.6163L216.452 25.7562L215.664 25.8518L215.738 25.6826L215.48 25.7635H215.303L214.869 25.9034L215.031 26.0211L213.427 26.5216L213.39 26.5952L213.287 26.6762L213.36 26.7792H213.132L213.397 26.9632H213.191L213.397 27.1546V27.287L211.844 27.4858L211.763 28.0083L212.124 28.2144L212.278 28.5014L211.012 28.0893L210.843 28.2438L211.101 28.3837L210.586 28.5088L211.189 28.9578L211.145 29.0461L210.836 28.8768H210.38L210.431 28.3763L210.313 28.0083L210.173 28.4499L209.857 28.6486L209.747 28.8326L210.056 29.2448L209.908 30.0618H210.115L210.424 29.9808L210.939 30.1574L211.042 30.393L210.917 30.6138L211.226 30.8419H210.924L210.806 30.6579L210.873 30.4371L210.564 30.128L210.151 30.2678L210.21 30.68L209.54 31.5043H208.804L208.672 31.3792L209.121 31.4602L209.732 30.8419L209.857 30.3856L209.644 30.128L209.702 29.2154L209.482 28.8842L209.688 28.1482L208.841 28.023L208.046 29.2154L208.194 29.2522L208.061 29.8483L208.378 29.9734L208.488 30.2163L208.65 30.3046L208.488 30.6064L205.868 29.5392L205.949 29.7894L206.317 30.0029L206.435 30.2458L206.354 30.415L206.03 30.5917V30.312L205.868 30.1795L205.463 30.4224H205.014L204.764 30.6285H204.403L204.595 30.2458L204.227 30.3782L204.175 30.5475L204.057 30.4739L202.902 30.9891L202.843 31.313L202.387 31.3939L202.18 31.1731V30.9818L202.607 30.8714L202.445 30.5917L201.776 30.4592L201.901 30.783L201.798 31.1216L201.982 31.4896L201.901 31.7251H201.783L201.709 31.6442L201.437 31.5926L200.782 32.0269L200.907 32.5274L200.311 32.4464L200.009 32.255L199.847 32.4243L199.928 32.601L200.186 32.6893V32.8733L199.987 32.9174L199.538 32.704L199.332 32.3139V31.9312L198.596 31.3056L200.26 31.8061L201.032 31.3939V31.0406L198.707 30.0544L198.905 29.9808L198.729 29.8998L198.383 29.944H198.066L197.897 29.7968H198.029L198.39 29.6496L198.25 29.5024L197.912 29.3626L197.639 29.5539V29.3846L197.529 29.2227L197.205 29.6349V29.3552L196.786 29.76L196.83 29.5686L196.999 29.3258V29.2154L196.852 29.3552H196.668L196.616 29.473L196.381 29.5907L196.285 29.8851L196.189 29.6938L196.388 29.4141L196.079 29.5024V29.7011L196.005 29.7674H195.807L195.954 29.9146H195.829L195.689 29.8189L195.601 29.8851L195.66 30.0765L195.571 30.0176H195.424V29.841H195.24L195.166 29.9293V30.0691L195.078 30.1427L194.806 30.1869L194.673 30.4003H194.835L194.872 30.5107V30.5843H194.732L194.622 30.5107L194.475 30.599L194.533 30.3488L193.797 31.0186H193.886L194.659 30.7389V30.9008L194.585 30.9523L194.482 30.8934L193.908 31.7251L193.864 31.9459L193.658 31.9901L193.621 32.4758L193.275 32.5789L193.422 32.7555L193.106 32.9174L192.819 33.337L192.671 33.2118V33.3811L192.274 33.6019L192.414 33.7197H192.186L191.744 33.992H191.641L191.523 34.1318L191.626 34.279L191.545 34.8237L191.685 34.8678L191.869 34.7869L191.921 34.8752L191.781 35.0077H191.678L191.589 35.096V35.2726H191.876L191.744 35.464L192.024 35.7069L192.333 35.7878L192.819 35.361L193.003 35.3168L193.069 35.096L193.716 36.9066H193.923L194.099 36.6269H194.32L194.475 36.487L194.563 36.5312L194.688 36.2H194.592L194.629 35.567L195.174 34.8752L194.924 34.5661L194.74 34.5146L194.703 34.176L195.181 33.2707L195.836 32.7408V32.4464L195.932 32.2035L196.108 32.0416L196.528 32.0048L196.741 32.1005L196.837 32.3286L195.777 33.4915V34.5219L196.476 34.7869L197.536 34.5072L197.661 34.3232L197.536 34.5072L197.647 34.463L197.816 34.6544L198.044 34.7059L196.484 35.0886L196.322 35.2653L196.381 35.4493L196.535 35.5523L196.587 35.6701V35.9645L196.366 36.0822L196.131 35.7805L195.88 35.9203L195.733 36.4502V36.8624L195.777 36.9066L195.689 37.0685H195.387V37.1421L195.24 37.2304L195.115 37.0464L194.055 37.488L193.893 37.3997V37.223L193.356 37.5027L192.936 37.2378L192.811 37.017H193.135L193.039 36.833H192.922L192.995 36.6416L193.164 36.5386L193.039 36.3987V35.935L192.686 36.1558V36.2883L192.48 36.2L192.348 36.4208L192.605 37.5469L192.495 37.6646H192.097V37.7235L191.766 37.775L191.663 37.9811H191.538L191.413 38.0547L191.082 38.5846L190.809 38.7098L190.206 39.4458L189.875 39.3206L189.72 39.4458L189.757 39.7622H189.536L189.374 39.6739H189.116L188.955 39.8211V40.0051L189.536 40.1891L189.897 40.8074L189.735 41.7126L188.079 41.5949L187.858 41.7568V43.9648H188.41L188.726 44.3034L188.8 44.296L189.536 44.1562L190.22 43.4202V42.9786L190.956 42.353L191.067 42.1027V42.0218L191.288 41.72L191.766 41.8304L192.546 41.352L194.364 43.0301V43.5894L194.651 43.1552L194.533 42.927L194.784 42.7872H194.982L193.51 41.3152V41.0134L193.628 40.8368H193.797L193.886 41.0502L194.092 41.1459L194.327 41.5581L195.211 42.1395L195.262 41.9923L195.211 42.1395L195.277 42.7651L195.453 43.0154L195.601 43.273L196.02 43.4275H195.74L195.932 43.8838L196.182 44.009L196.16 43.7072H196.344L196.226 43.5968L196.322 43.5306H196.513L196.425 43.2877H196.204L196.292 43.1258L196.079 42.7946L196.212 42.7062H196.425L196.476 42.4781L196.638 42.537L196.837 42.4192L197.168 42.5885L197.419 42.4118L197.772 42.3677L197.573 42.1837L197.419 41.7347L197.684 41.4109V41.249L197.956 40.8368L198.309 40.2995L198.604 40.2406V40.4394L199.038 40.4982L198.684 40.7264L198.949 40.8589V41.087L199.774 40.8294L199.501 40.7558L199.288 40.5203L200.444 40.0566L200.12 40.2848L200.215 40.4467L199.847 40.8294L201.032 41.72L201.128 42.0291L201.069 42.1322L200.112 42.353L199.17 42.0218L197.779 42.375L197.647 42.6106L197.095 42.6768L197.036 42.8976L197.146 42.9786V43.5747L197.455 43.8397L197.588 43.8838L197.75 44.0678L198.309 43.8765L198.67 44.1046L198.942 44.0458L199.192 43.8618L199.398 43.9133L199.597 43.847L199.354 45.032L199.494 45.0982V45.2749V45.0982L199.354 45.0394L199.104 45.768L196.756 45.5987L196.02 45.2749L195.431 45.6282L195.468 46.0182L194.57 45.8416L194.136 45.4662L193.356 45.3043L192.936 44.9805L193.142 44.767L193.201 44.1046L193.164 43.9942L190.662 44.1562L189.742 44.7229L188.748 44.4874L188.454 45.0982L188.057 45.3264L187.711 45.871V46.3274L185.797 49.2714L186.003 50.0883L185.812 51.1776L185.856 51.656V51.8326V51.9725L188.13 54.3718L189.477 54.2026L189.676 54.2762L191.045 53.68L191.442 53.783L191.832 54.3424L192.495 54.2173L192.605 54.3792L192.804 54.4234L192.877 54.7178L192.826 54.9827L192.76 55.3802L192.716 55.439L192.819 55.5936L192.568 55.9101L193.731 58.1181L193.687 58.4346L193.856 59.0602L193.304 60.9222L194.982 66.376L195.233 66.5747L197.006 66.1699L198.559 64.4035L198.699 63.7558L198.596 63.6381L199.332 63.0493L199.229 61.6288L200.789 60.0538L200.296 57.4336L203.608 51.9725L203.439 51.8694L201.628 52.2301L201.489 52.0608L201.452 52.1123L201.489 52.0608L201.349 52.0019L201.503 51.8547L198.626 46.1066L199.075 46.8426L199.236 46.4157L201.533 51.5677L203.682 50.7654L203.94 50.4563L204.676 50.2208L204.779 49.9853L205.073 49.919L205.25 49.6394L205.419 49.5437L205.507 49.1315L205.949 48.6016V48.4397L205.721 48.1232L205.279 47.9466L205.058 47.2547L204.742 47.6669L203.917 48.0496H203.866L203.756 47.8582V47.3872L203.579 47.6816L202.887 46.2096V46.1581L203.38 46.0256L203.8 46.7616L204.734 47.1885L205.161 47.0413L205.367 47.4314L207.929 47.5933L208.105 47.9613L208.628 48.3514H208.922L208.554 48.5059L209.121 49.0138L209.489 48.5354L210.755 52.9514L211.255 52.473L211.668 50.5299L213.191 49.1168L213.272 48.8003L214.376 48.2704L215.112 49.7424L215.075 50.2282L215.186 50.3901H215.451L215.679 50.081L215.819 50.1987L216.915 54.3866L217.695 54.9459L217.504 53.864L216.371 52.392L216.555 51.288L216.783 51.207L217.291 51.5603L217.364 51.8326H217.533V51.9946H217.747L217.894 52.1418L217.82 52.4067L217.953 52.5245L218.336 52.0314L218.873 51.7885L219.079 51.3837L219.02 50.6477L218.137 49.1315L218.667 48.4986L219.138 48.447L219.27 48.8371L219.344 48.7046L220.249 48.079L220.985 47.9907L221.898 47.0928V46.7984L222.089 46.6954L222.604 45.7386L222.236 45.584L222.524 45.4221L222.119 45.0688H222.509L222.03 44.296L221.795 44.112L222.052 43.663L222.671 43.3318L222.516 43.1405L222.251 43.0301L221.891 43.3024L221.721 43.0595L221.442 42.9638V42.5811L222.56 41.9923L222.332 42.6474H222.524L223.024 42.3162H223.156L223.466 42.4854L223.304 42.8166L223.355 43.0006L223.488 43.0742L223.701 43.0227H223.76L223.848 43.1846L223.767 44.1635L224.555 43.8323L224.665 43.6998L224.312 42.7578L224.069 42.5075L224.15 42.2352L224.621 41.8966L224.717 41.5286L225.092 41.1386L225.313 40.9914L225.629 41.1827L227.388 39.1146L227.889 37.0611L227.411 36.5901H227.175L227.006 36.8182H226.851V36.5165L226.682 36.7373L226.645 36.4282H226.336V36.2L228.544 34.2496L230.406 34.1024L230.804 34.2496L230.664 34.4483L231.701 34.2422L231.591 34.1466V33.889L232.327 33.0646L232.783 33.0058L232.96 33.0867L233.159 32.991L233.026 33.2781L233.181 33.3958L233.107 33.521L233.895 33.1014L233.954 32.7997L234.425 32.601V32.6746L232.474 34.809L232.217 34.8752L231.871 35.9571L232.18 37.8192L232.607 37.3555L232.666 37.039L232.85 36.8992L233.056 36.8477V36.5901L233.313 36.303L233.644 36.2294L233.593 35.9277L233.792 35.5523H234.005L233.873 35.3536L233.924 34.8458H233.748L233.711 34.5293L234.152 33.8595H234.395L234.498 33.911L234.771 33.6093L234.829 33.8742L235.087 33.705L235.772 33.6314L235.978 33.8154L236.088 33.6314L237.891 32.52H238.436V32.2771L237.84 31.497L237.612 31.4454L237.884 31.3498L238.031 31.497H238.34L238.708 31.2762L238.789 31.1142L238.738 30.9376V30.783L238.841 30.68H238.988V30.8419L239.084 31.048L239.82 31.1952L240.011 31.4528L240.43 31.6294H240.754L240.629 31.4602H240.762V31.0038L240.843 30.967L240.798 30.9597Z" fill="#5C6B8A"/>
    <path d="M209.327 27.7066L209.033 27.5814L208.915 27.8243L209.327 27.7066Z" fill="#5C6B8A"/>
    <path d="M211.439 27.7802L211.233 27.8832L211.439 27.7802Z" fill="#5C6B8A"/>
    <path d="M169.723 48.4544L169.627 48.5427L169.819 48.8592L169.723 48.4544Z" fill="#5C6B8A"/>
    <path d="M173.948 53.025L174.146 52.9882L174.132 52.8189L173.94 52.8851L173.948 53.025Z" fill="#5C6B8A"/>
    <path d="M218.756 56.153L218.615 56.227L218.756 56.153Z" fill="#5C6B8A"/>
    <path d="M222.877 57.8237L222.965 57.728L221.883 57.8826L222.325 57.9635L222.877 57.8237Z" fill="#5C6B8A"/>
    <path d="M221.265 57.7427L221.015 57.7795L220.89 57.9488L221.28 58.0077L221.662 57.8752L221.265 57.7427Z" fill="#5C6B8A"/>
    <path d="M223.289 58.1475L223.355 58.0666L223.951 57.7427L223.546 57.7574L223.075 58.0224L222.95 58.3683L223.289 58.1475Z" fill="#5C6B8A"/>
    <path d="M224.15 56.175L224.871 56.359L224.68 56.0499L224.15 56.175Z" fill="#5C6B8A"/>
    <path d="M222.163 58.3168L221.662 58.177L221.905 58.3021L222.163 58.3168Z" fill="#5C6B8A"/>
    <path d="M223.598 56.1971L223.929 56.2928L223.598 56.1971Z" fill="#5C6B8A"/>
    <path d="M221.626 56.0131L221.905 56.9846L222.038 56.6829L222.008 56.1309L222.185 56.2486L222.325 56.5578L222.568 56.5872L222.443 55.7482L222.855 55.4096L222.295 55.601L221.964 55.3139L223.333 54.7472L223.046 54.8797L222.362 54.8061L222.03 54.968L221.626 56.0131Z" fill="#5C6B8A"/>
    <path d="M224.194 54.7546L224.01 54.6442L224.15 55.3066L224.356 54.8355L224.194 54.7546Z" fill="#5C6B8A"/>
    <path d="M215.752 54.887L215.922 55.1226L215.752 54.887Z" fill="#5C6B8A"/>
    <path d="M216.142 55.6525L216.268 55.8153L216.142 55.6525Z" fill="#5C6B8A"/>
    <path d="M220.404 57.8531L220.728 57.8605L220.455 57.6765L219.984 57.6029L220.257 57.3894L218.166 57.1686L218.034 57.3453L218.24 57.3894L218.38 57.5587L220.404 57.8531Z" fill="#5C6B8A"/>
    <path d="M218.91 55.071L219.543 56.1898L219.756 56.3002L220.117 56.2486L220.463 56.4253L220.853 56.3443L221.221 55.1962L221.633 54.9312L221.287 53.9597L221.743 53.6211L221.559 53.4518L221.316 53.3782L221.073 53.1501L220.654 53.7536L220.514 53.8272L220.323 53.7978L220.087 54.2246L219.69 54.3645L219.513 54.7546L219.086 54.6442L218.91 55.071Z" fill="#5C6B8A"/>
    <path d="M218.13 56.6093L218.174 56.2928L218.284 56.2192L218.291 56.0352L218.071 55.7923L218.034 55.9322L218.144 56.072L217.975 56.0205L215.289 53.6285L217.747 57.0582H218.034L218.13 56.6093Z" fill="#5C6B8A"/>
    <path d="M194.084 43.5158L193.761 43.5232L193.54 43.6557L194.114 44.0163L194.29 43.5306L194.084 43.5158Z" fill="#5C6B8A"/>
    <path d="M192.377 42.6032L192.583 43.273L192.767 43.1405L192.811 42.6547L192.568 42.5517L192.377 42.6032Z" fill="#5C6B8A"/>
    <path d="M163.283 39.0704C163.296 39.8864 162.993 40.6758 162.437 41.2738C161.882 41.8717 161.117 42.232 160.302 42.2794C159.906 42.2796 159.514 42.2 159.149 42.0452C158.785 41.8904 158.455 41.6636 158.18 41.3784C157.905 41.0932 157.691 40.7555 157.55 40.3855C157.408 40.0155 157.343 39.6208 157.358 39.225C157.343 38.4144 157.64 37.6291 158.188 37.0317C158.736 36.4343 159.493 36.0707 160.302 36.016C160.701 36.0107 161.097 36.0867 161.466 36.2393C161.835 36.3918 162.169 36.6179 162.448 36.9036C162.727 37.1893 162.944 37.5287 163.088 37.9012C163.232 38.2737 163.298 38.6715 163.283 39.0704V39.0704Z" fill="#5F5AF6"/>
    <path d="M167.912 51.9283C167.913 52.3039 167.77 52.6655 167.513 52.9392C167.256 53.2128 166.904 53.3778 166.529 53.4003C166.344 53.4004 166.161 53.3634 165.992 53.2915C165.822 53.2196 165.668 53.1142 165.539 52.9817C165.411 52.8492 165.311 52.6922 165.244 52.5201C165.178 52.348 165.146 52.1643 165.152 51.9798C165.152 51.6055 165.293 51.2449 165.549 50.9714C165.805 50.6979 166.155 50.5322 166.529 50.5078C166.713 50.5078 166.896 50.5448 167.067 50.6166C167.237 50.6884 167.391 50.7936 167.52 50.926C167.649 51.0584 167.75 51.2154 167.818 51.3875C167.885 51.5596 167.917 51.7435 167.912 51.9283V51.9283Z" fill="#5F5AF6"/>
    <path d="M201.54 50.9715C201.557 52.3502 201.034 53.6808 200.084 54.6801C199.135 55.6795 197.832 56.2686 196.454 56.3222C195.781 56.3254 195.115 56.1935 194.493 55.9345C193.872 55.6755 193.309 55.2946 192.838 54.8143C192.367 54.334 191.996 53.764 191.749 53.1381C191.502 52.5122 191.382 51.8431 191.398 51.1702C191.381 49.7965 191.9 48.4701 192.843 47.4715C193.787 46.473 195.082 45.8806 196.454 45.8195C197.13 45.8134 197.799 45.9431 198.423 46.2007C199.047 46.4583 199.613 46.8386 200.088 47.3191C200.562 47.7996 200.935 48.3705 201.185 48.9979C201.434 49.6254 201.555 50.2965 201.54 50.9715V50.9715Z" fill="#5F5AF6"/>
    <path d="M211.513 31.3571C211.517 31.9537 211.289 32.5285 210.877 32.9599C210.465 33.3912 209.901 33.6452 209.305 33.6682C209.012 33.6784 208.72 33.6284 208.448 33.521C208.175 33.4137 207.928 33.2514 207.721 33.0443C207.514 32.8372 207.351 32.5897 207.244 32.3171C207.137 32.0446 207.087 31.7529 207.097 31.4602C207.094 30.8641 207.323 30.2904 207.735 29.8594C208.147 29.4285 208.709 29.1739 209.305 29.1491C209.597 29.1399 209.889 29.1908 210.161 29.2985C210.433 29.4062 210.68 29.5685 210.887 29.7754C211.094 29.9823 211.256 30.2294 211.364 30.5014C211.471 30.7734 211.522 31.0647 211.513 31.3571V31.3571Z" fill="#5F5AF6"/>
    <path d="M216.842 44.3917C216.848 45.071 216.589 45.726 216.121 46.2179C215.652 46.7097 215.011 46.9998 214.332 47.0266C214.001 47.0306 213.672 46.9681 213.366 46.8428C213.06 46.7175 212.782 46.532 212.548 46.2973C212.315 46.0626 212.131 45.7834 212.007 45.4763C211.884 45.1691 211.823 44.8404 211.829 44.5094C211.825 43.8327 212.083 43.1806 212.55 42.6905C213.017 42.2004 213.656 41.9105 214.332 41.8819C214.663 41.8759 214.992 41.9368 215.299 42.0608C215.606 42.1848 215.886 42.3694 216.12 42.6037C216.354 42.8379 216.539 43.117 216.663 43.4242C216.787 43.7314 216.848 44.0604 216.842 44.3917V44.3917Z" fill="#5F5AF6"/>
    <path d="M227.263 29.4656C227.266 30.0487 227.043 30.6102 226.641 31.0327C226.239 31.4551 225.689 31.7059 225.107 31.7325C224.824 31.7384 224.543 31.6874 224.281 31.5824C224.018 31.4775 223.78 31.3207 223.579 31.1215C223.379 30.9223 223.22 30.6848 223.113 30.423C223.007 30.1613 222.954 29.8807 222.958 29.5981C222.963 29.022 223.188 28.4698 223.588 28.055C223.988 27.6402 224.531 27.3943 225.107 27.368C225.387 27.3591 225.667 27.4068 225.929 27.5083C226.191 27.6099 226.429 27.7631 226.631 27.9589C226.832 28.1546 226.992 28.3889 227.1 28.6478C227.209 28.9067 227.265 29.1848 227.263 29.4656V29.4656Z" fill="#5F5AF6"/>
    <path d="M218.314 333.522C229.106 333.522 237.854 330.807 237.854 327.457C237.854 324.108 229.106 321.393 218.314 321.393C207.521 321.393 198.773 324.108 198.773 327.457C198.773 330.807 207.521 333.522 218.314 333.522Z" fill="#5F5AF6"/>
    <path opacity="0.5" d="M218.314 333.522C229.106 333.522 237.854 330.807 237.854 327.457C237.854 324.108 229.106 321.393 218.314 321.393C207.521 321.393 198.773 324.108 198.773 327.457C198.773 330.807 207.521 333.522 218.314 333.522Z" fill="white"/>
    <path d="M202.578 295.324C200.204 299.312 198.979 303.879 199.038 308.52C199.038 319.759 205.662 328.878 213.809 328.878C221.957 328.878 228.581 319.759 228.581 308.52C228.641 303.875 227.418 299.304 225.048 295.309L202.578 295.324Z" fill="white" stroke="#263238" stroke-linecap="round" stroke-linejoin="round"/>
    <path d="M225.247 295.839C225.35 297.657 220.338 299.151 214.052 299.173C207.767 299.195 202.593 297.738 202.49 295.92C202.387 294.102 207.391 292.615 213.677 292.593C219.962 292.571 225.144 294.021 225.247 295.839Z" fill="white" stroke="#263238" stroke-linecap="round" stroke-linejoin="round"/>
    <path d="M224.341 297.178C222.457 296.067 218.498 295.301 213.942 295.324C209.386 295.346 205.36 296.155 203.638 297.318C205.522 298.429 209.489 299.188 214.037 299.173C218.586 299.158 222.656 298.334 224.341 297.178Z" fill="#263238" stroke="#263238" stroke-linecap="round" stroke-linejoin="round"/>
    <path d="M186.401 198.856C186.401 198.856 187.77 201.454 186.548 203.89C185.326 206.326 183.81 208.77 184.723 209.992C185.635 211.213 188.403 212.737 188.079 215.328C187.755 217.918 184.112 223.107 186.401 226.007C188.69 228.907 192.502 228.752 192.649 231.954C192.796 235.156 188.969 237.746 190.059 240.646C191.148 243.546 197.419 244.157 197.419 246.137C197.419 248.116 194.975 250.251 196.962 252.393C198.949 254.534 208.532 260.091 209.908 257.81C211.285 255.528 214.037 249.184 212.227 240.204C211.918 238.696 209.769 238.357 209.467 236.223C209.165 234.088 210.078 230.276 208.547 228.127C207.016 225.978 202.144 225.227 201.842 223.549C201.54 221.871 203.667 217.756 201.533 215.158C199.398 212.56 194.364 211.346 194.364 209.675C194.364 208.004 195.895 205.855 193.753 203.574C191.611 201.292 186.401 198.856 186.401 198.856Z" fill="#5F5AF6"/>
    <path d="M193.702 216.836C196.881 226.404 202.438 239.41 204.698 245.688C207.443 253.313 209.85 258.833 211.049 266.458C211.616 270.005 212.065 282.937 212.381 295.765" stroke="#263238" stroke-linecap="round" stroke-linejoin="round"/>
    <path d="M187.159 199.783C187.159 199.783 189.757 201.918 192.038 211.221C192.193 211.817 192.362 212.45 192.546 213.112" stroke="#263238" stroke-linecap="round" stroke-linejoin="round"/>
    <path d="M234.071 216.24C233.761 216.863 233.59 217.545 233.568 218.24C233.547 218.934 233.676 219.626 233.946 220.266C234.925 222.224 236.154 224.174 235.418 225.153C234.682 226.132 232.474 227.361 232.739 229.422C233.004 231.483 235.911 235.649 234.079 237.967C232.246 240.285 229.199 240.175 229.074 242.729C228.949 245.283 232.018 247.366 231.149 249.684C230.281 252.003 225.261 252.488 225.261 254.1C225.261 255.712 227.212 257.397 225.629 259.105C224.047 260.812 216.363 265.273 215.267 263.44C214.17 261.607 211.962 256.544 213.412 249.353C213.655 248.146 215.377 247.881 215.62 246.166C215.863 244.451 215.134 241.404 216.356 239.697C217.578 237.989 221.508 237.378 221.721 236.017C221.935 234.655 220.249 231.372 221.964 229.304C223.679 227.236 227.705 226.25 227.705 224.888C227.705 223.527 226.483 221.834 228.191 220.001C229.898 218.169 234.071 216.24 234.071 216.24Z" fill="#5F5AF6"/>
    <path d="M228.228 230.622C225.688 238.298 221.236 248.691 219.396 253.71C217.188 259.812 215.289 264.235 214.31 270.336C213.824 273.383 213.449 285.13 213.191 296.096" stroke="#263238" stroke-linecap="round" stroke-linejoin="round"/>
    <path d="M233.46 216.976C233.46 216.976 231.385 218.684 229.56 226.125C229.434 226.611 229.302 227.111 229.147 227.648" stroke="#263238" stroke-linecap="round" stroke-linejoin="round"/>
    <path d="M192.105 250.803C192.363 251.323 192.505 251.893 192.521 252.474C192.538 253.055 192.428 253.632 192.2 254.166C191.391 255.8 190.368 257.427 190.979 258.244C191.589 259.061 193.429 260.076 193.223 261.813C193.017 263.55 190.574 267.017 192.105 268.953C193.636 270.888 196.182 270.785 196.285 272.927C196.388 275.069 193.834 276.806 194.548 278.741C195.262 280.677 199.443 281.089 199.443 282.421C199.443 283.754 197.809 285.174 199.141 286.602C200.473 288.03 206.876 291.754 207.796 290.223C208.716 288.692 210.556 284.46 209.342 278.447C209.143 277.439 207.7 277.211 207.502 275.783C207.303 274.355 207.907 271.808 206.891 270.38C205.875 268.953 202.607 268.445 202.401 267.319C202.195 266.193 203.623 263.447 202.195 261.71C200.767 259.973 197.404 259.164 197.404 258.03C197.404 256.897 198.427 255.484 196.999 253.953C195.571 252.422 192.105 250.803 192.105 250.803Z" fill="#5F5AF6"/>
    <path d="M196.984 262.814C199.111 269.225 202.828 277.91 204.344 282.105C206.184 287.205 207.774 290.893 208.591 295.993" stroke="#263238" stroke-linecap="round" stroke-linejoin="round"/>
    <path d="M192.612 251.414C192.612 251.414 194.342 252.842 195.873 259.061C195.976 259.458 196.086 259.885 196.211 260.327" stroke="#263238" stroke-linecap="round" stroke-linejoin="round"/>
    <path d="M244.626 248.264C244.254 248.709 243.984 249.231 243.834 249.791C243.684 250.351 243.658 250.938 243.757 251.509C244.177 253.291 244.795 255.108 244.015 255.764C243.234 256.419 241.211 256.993 241.012 258.708C240.813 260.422 242.403 264.382 240.475 265.913C238.546 267.444 236.059 266.767 235.492 268.857C234.925 270.947 236.964 273.192 235.852 274.914C234.741 276.636 230.546 276.077 230.244 277.365C229.942 278.653 231.201 280.42 229.589 281.509C227.977 282.598 220.875 284.755 220.33 283.054C219.786 281.354 218.961 276.813 221.515 271.242C221.949 270.307 223.392 270.417 223.922 269.07C224.452 267.724 224.437 265.111 225.755 263.918C227.072 262.726 230.369 263.013 230.818 261.968C231.267 260.923 230.516 257.92 232.29 256.558C234.064 255.197 237.538 255.175 237.795 254.078C238.053 252.981 237.383 251.362 239.128 250.199C240.872 249.036 244.626 248.264 244.626 248.264Z" fill="#5F5AF6"/>
    <path d="M237.126 258.84C233.593 264.596 227.985 272.198 225.548 275.937C222.604 280.478 219.057 283.386 218.24 288.449C217.99 290.01 217.776 292.865 217.592 296.089" stroke="#263238" stroke-linecap="round" stroke-linejoin="round"/>
    <path d="M244 248.742C244 248.742 241.983 249.736 239.069 255.44C238.885 255.808 238.679 256.176 238.451 256.595" stroke="#263238" stroke-linecap="round" stroke-linejoin="round"/>
    <path d="M89.9626 342.376C106.746 342.376 120.352 338.333 120.352 333.345C120.352 328.358 106.746 324.315 89.9626 324.315C73.1789 324.315 59.5731 328.358 59.5731 333.345C59.5731 338.333 73.1789 342.376 89.9626 342.376Z" fill="#5F5AF6"/>
    <path opacity="0.5" d="M89.9626 342.376C106.746 342.376 120.352 338.333 120.352 333.345C120.352 328.358 106.746 324.315 89.9626 324.315C73.1789 324.315 59.5731 328.358 59.5731 333.345C59.5731 338.333 73.1789 342.376 89.9626 342.376Z" fill="white"/>
    <path d="M57.7258 225.072C57.7258 225.072 58.9844 236.201 59.5217 241.949C60.0589 247.697 61.4941 264.029 61.3175 266.009C61.1409 267.988 59.345 288.508 59.345 296.405C59.345 304.303 60.4196 315.438 60.4196 315.438C60.4196 315.438 58.6237 318.485 58.9844 320.105C59.3467 321.458 59.5929 322.839 59.7204 324.234C59.7598 324.964 59.8807 325.687 60.081 326.39C60.081 326.39 62.7748 328.186 64.394 328.363C66.0132 328.539 69.2369 327.465 69.2369 326.927C69.2369 326.39 70.6721 321.003 70.6721 319.023C70.6721 317.043 70.6721 317.772 71.2167 315.078C71.7614 312.384 77.4948 275.164 78.2161 271.749C78.9374 268.334 80.0119 242.67 80.0119 242.67L81.2705 245.003C81.2705 245.003 84.3175 272.471 84.1409 275.525C83.9642 278.58 82.8823 290.245 83.4049 295.633C83.9274 301.02 85.0241 314.305 85.0241 315.74C85.0241 317.175 84.6634 320.406 84.6634 321.665C84.6634 322.924 83.5889 324.896 84.1262 325.794C84.5668 326.657 84.9265 327.558 85.2007 328.488C85.2007 328.488 91.6702 329.562 93.4586 329.562C95.2471 329.562 96.697 327.95 96.697 327.95V324.896C96.697 323.277 97.0503 321.842 97.0503 320.23C97.0503 318.618 97.2343 315.203 97.2343 312.686C97.3471 310.28 97.5928 307.881 97.9703 305.502C98.1543 303.891 100.664 285.042 101.025 278.035C101.385 271.028 102.997 255.219 102.997 252.724C102.997 250.229 102.821 226.692 102.821 226.692L102.46 222.379C102.46 222.379 83.611 224.896 74.6318 223.637C65.6526 222.379 58.2925 222.018 58.2925 222.018L57.7258 225.072Z" fill="#313E59" stroke="#313E59" stroke-linecap="round" stroke-linejoin="round"/>
    <path d="M69.9213 324.072C69.4963 324.443 68.9932 324.715 68.4493 324.867C67.4631 325.161 66.8669 325.36 66.0794 324.27C65.2919 323.181 63.7021 321.9 62.3994 322.489C61.0967 323.078 59.632 323.961 59.3376 324.697C59.0432 325.433 59.2346 332.609 59.2346 334C59.2346 335.391 61.9063 335.973 64.578 336.076C66.2627 336.097 67.9154 335.615 69.3252 334.692C69.3252 334.692 71.5994 334.884 72.3943 333.897C73.1892 332.911 72.7917 330.629 72.2912 329.842C71.7908 329.054 71.408 328.37 70.7088 326.972C70.2752 326.06 70.0084 325.078 69.9213 324.072V324.072Z" fill="white" stroke="#313E59" stroke-linecap="round" stroke-linejoin="round"/>
    <path d="M72.3942 333.868C72.659 333.489 72.8097 333.042 72.8285 332.58C71.5258 333.176 69.9875 332.801 69.4282 332.882C68.7363 332.977 67.1539 334.067 63.5917 333.868C62.0848 333.816 60.6014 333.478 59.2198 332.874C59.2198 333.36 59.2198 333.743 59.2198 333.971C59.2198 335.355 61.8915 335.943 64.5632 336.046C66.2479 336.067 67.9006 335.585 69.3104 334.663C69.3104 334.663 71.5994 334.854 72.3942 333.868Z" fill="#5F5AF6" stroke="#313E59" stroke-linecap="round" stroke-linejoin="round"/>
    <path d="M68.9277 334.663L69.3252 329.908" stroke="#313E59" stroke-linecap="round" stroke-linejoin="round"/>
    <path d="M66.8816 325.006C66.5468 324.841 66.2642 324.586 66.0647 324.27C65.2698 323.181 63.6874 321.9 62.3847 322.489C61.3448 322.927 60.3905 323.545 59.5658 324.315C59.9927 325.536 61.0378 327.693 63.0765 327.833C64.7693 327.95 66.0647 326.486 66.8816 325.006Z" fill="#5F5AF6" stroke="#313E59" stroke-linecap="round" stroke-linejoin="round"/>
    <path d="M96.8 326.331C96.8 326.331 95.328 326.729 94.5257 326.236C93.7235 325.742 92.5459 322.776 89.8742 323.071C87.2025 323.365 86.0176 325.838 85.4582 326.14C84.8989 326.442 84.7664 326.53 84.5677 326.832C84.3689 327.133 84.2733 335.141 84.3689 335.936C84.4646 336.731 90.1097 337.511 93.5763 337.121C97.0428 336.731 98.2204 335.237 98.5222 335.038C99.0099 334.847 99.4349 334.525 99.7495 334.106C100.064 333.688 100.256 333.19 100.303 332.668C100.502 330.887 99.9059 328.907 98.9123 328.215C98.2835 327.772 97.6904 327.28 97.1385 326.743L96.8 326.331Z" fill="white" stroke="#313E59" stroke-linecap="round" stroke-linejoin="round"/>
    <path d="M92.9728 334.839C90.0333 334.932 87.1017 334.483 84.3248 333.515C84.3248 334.707 84.3248 335.678 84.3248 335.936C84.4279 336.724 90.0656 337.511 93.5322 337.121C96.9988 336.731 98.1764 335.237 98.4781 335.038C98.9658 334.847 99.3908 334.525 99.7054 334.106C100.02 333.688 100.212 333.19 100.259 332.668C100.3 332.223 100.3 331.774 100.259 331.329C100.112 331.63 99.9428 331.954 99.7514 332.271C99.2068 333.257 97.72 334.744 92.9728 334.839Z" fill="#5F5AF6" stroke="#313E59" stroke-linecap="round" stroke-linejoin="round"/>
    <path d="M96.8589 331.461L96.2848 336.363" stroke="#313E59" stroke-linecap="round" stroke-linejoin="round"/>
    <path d="M90.176 328.907C91.9498 329.113 93.856 327.708 94.9159 326.397C94.7784 326.363 94.6469 326.309 94.5258 326.236C93.7309 325.742 92.546 322.776 89.8743 323.071C87.2026 323.365 86.0176 325.838 85.4583 326.14C85.4509 326.14 87.6295 328.613 90.176 328.907Z" fill="#5F5AF6" stroke="#313E59" stroke-linecap="round" stroke-linejoin="round"/>
    <path d="M79.9897 242.67L75.6768 240.514" stroke="#636363" stroke-linecap="round" stroke-linejoin="round"/>
    <path d="M89.1015 141.367C89.1015 141.367 90.1834 139.571 90.5735 141.904C90.9636 144.237 90.0289 146.747 88.7777 147.645C87.5265 148.543 86.9818 147.645 86.9818 146.747C86.9818 145.849 89.1015 141.367 89.1015 141.367Z" fill="white" stroke="#313E59" stroke-linecap="round" stroke-linejoin="round"/>
    <path d="M68.096 142.265C67.8546 142.174 67.5935 142.148 67.3389 142.19C67.0843 142.231 66.8451 142.339 66.6453 142.503C66.4455 142.666 66.2922 142.879 66.2006 143.12C66.109 143.361 66.0824 143.622 66.1235 143.877C66.1235 146.033 68.9939 149.088 70.2525 148.366C71.511 147.645 68.096 142.265 68.096 142.265Z" fill="white" stroke="#313E59" stroke-linecap="round" stroke-linejoin="round"/>
    <path d="M78.5105 121.252C78.5105 121.252 75.7063 125.918 72.7697 127.177C68.994 128.796 65.947 133.646 66.1457 137.591C66.3444 141.536 72.0705 154.468 72.9684 154.828C73.8663 155.189 85.1786 154.291 85.5393 153.754C85.8999 153.217 87.5117 147.829 88.9469 142.618C90.3821 137.407 90.3821 134.721 90.3821 134.721C90.9034 133.037 91.1519 131.28 91.1181 129.517C91.0083 127.394 90.1864 125.369 88.785 123.769L86.6285 126.463L87.3645 120.362C85.8707 120.183 84.3593 120.496 83.0589 121.252C81.7814 122.1 80.6335 123.129 79.6513 124.307L78.5105 121.252Z" fill="#313E59" stroke="#313E59" stroke-linecap="round" stroke-linejoin="round"/>
    <path d="M141.527 126.11C141.262 125.308 140.46 125.308 139.79 123.571C139.12 121.834 137.251 122.238 136.713 121.966C136.176 121.694 136.183 121.436 136.448 120.634C136.713 119.832 137.383 117.16 136.183 117.16C134.984 117.16 134.042 119.964 133.777 120.634C133.043 121.838 132.24 122.998 131.37 124.108C130.8 124.25 130.219 124.339 129.633 124.373C128.971 124.373 128.161 125.712 128.036 126.375C127.948 126.794 128.595 128.156 129.096 129.113C129.32 129.908 129.59 130.689 129.905 131.453C129.905 131.453 130.568 132.388 132.577 132.123C134.586 131.858 138.318 134.53 138.855 134.125C139.392 133.72 140.592 131.321 141.122 129.988C141.628 128.762 141.769 127.415 141.527 126.11V126.11Z" fill="white" stroke="#313E59" stroke-linecap="round" stroke-linejoin="round"/>
    <path d="M55.113 237.768C55.113 237.768 57.5418 241.448 57.6743 242.876C57.8067 244.304 57.7994 246.968 57.9245 247.859C58.0496 248.749 57.5418 249.397 56.9088 249.397C56.7003 249.377 56.4992 249.309 56.3216 249.198C56.144 249.087 55.9948 248.936 55.8858 248.757C55.9597 249.489 56.0876 250.215 56.2685 250.928C56.5187 251.826 57.9245 252.591 57.7994 253.482C57.6743 254.372 56.2685 254.763 54.3475 254.763C53.188 254.755 52.0573 254.4 51.1011 253.744C50.1448 253.089 49.4068 252.161 48.9821 251.083C47.8339 248.403 46.6858 240.734 46.6858 239.307C46.6858 237.879 53.8397 236.745 55.113 237.768Z" fill="white" stroke="#313E59" stroke-linecap="round" stroke-linejoin="round"/>
    <path d="M52.4339 242.493C52.4339 242.493 52.9417 243.642 51.9187 245.437C51.2269 246.499 50.7101 247.664 50.3878 248.889C50.6721 249.782 51.0573 250.638 51.536 251.443C52.0512 252.466 53.744 252.341 53.8397 253.239C53.9306 253.721 53.8388 254.22 53.5821 254.637" stroke="#313E59" stroke-linecap="round" stroke-linejoin="round"/>
    <path d="M54.0458 247.962C54.1613 248.966 54.391 249.954 54.7303 250.906C55.2455 252.187 57.9245 252.952 56.9383 254.358" stroke="#313E59" stroke-linecap="round" stroke-linejoin="round"/>
    <path d="M52.434 248.499C52.5565 249.33 52.7713 250.145 53.0743 250.928C53.457 251.664 56.0183 252.459 55.5031 254.505" stroke="#313E59" stroke-linecap="round" stroke-linejoin="round"/>
    <path d="M55.8857 248.757C55.8857 248.757 55.6281 246.711 55.503 245.945C55.4114 245.213 55.3671 244.475 55.3705 243.737" stroke="#313E59" stroke-linecap="round" stroke-linejoin="round"/>
    <path d="M97.8009 159.355C94.4407 156.73 90.5016 154.945 86.312 154.151C79.1286 152.716 69.6121 155.049 65.8438 157.559C64.7191 158.347 63.7711 159.36 63.0601 160.535C62.3492 161.71 61.891 163.02 61.7148 164.382L97.8009 159.355Z" fill="white" stroke="#313E59" stroke-linecap="round" stroke-linejoin="round"/>
    <path d="M127.425 137.452C127.233 136.748 127.233 136.006 127.425 135.302C127.786 134.566 127.962 132.425 128.499 131.887C129.037 131.35 132.989 129.194 135.859 130.452C138.73 131.711 140.172 137.076 140.71 138.349C141.247 139.623 139.635 142.478 138.914 142.839C138.193 143.2 137.479 140.683 136.757 139.969C136.036 139.255 129.92 136.377 127.425 137.452Z" fill="white" stroke="#313E59" stroke-linecap="round" stroke-linejoin="round"/>
    <path d="M80.0266 159.002C79.2906 159.178 65.6599 160.974 59.5584 162.77C53.457 164.566 48.4301 166.899 48.2461 169.232C48.0621 171.565 43.0941 215.055 42.9027 217.572C42.7114 220.09 44.5219 234.626 45.4199 235.163C46.3178 235.7 50.4467 236.061 51.8819 235.524C52.7744 235.175 53.5733 234.623 54.215 233.912L54.7523 221.878C54.7523 221.878 55.113 226.007 55.8269 226.191C64.7831 228.541 74.0775 229.331 83.3018 228.524C98.7578 227.266 105.205 224.932 106.456 224.035C107.708 223.137 107.538 220.443 107.538 220.443C107.538 220.443 107.715 218.47 107.715 216.491C107.715 214.511 101.952 174.796 101.952 174.796C101.952 174.796 125.651 168.334 127.447 166.178C129.243 164.021 137.861 140.506 137.861 138.71C137.861 136.914 133.909 134.22 131.039 134.044C128.168 133.867 121.162 148.028 119.55 149.124C117.938 150.221 102.489 156.308 96.7338 157.382C90.9783 158.457 80.0266 159.002 80.0266 159.002Z" fill="#5F5AF6" stroke="#313E59" stroke-linecap="round" stroke-linejoin="round"/>
    <path d="M74.3373 171.168C74.3373 171.168 76.7661 180.736 83.9053 184.644" stroke="#313E59" stroke-linecap="round" stroke-linejoin="round"/>
    <path d="M84.8474 188.883C85.3871 189.163 85.9391 189.435 86.5034 189.7" stroke="#313E59" stroke-linecap="round" stroke-linejoin="round"/>
    <path d="M74.3373 181.089C76.7085 183.497 79.3599 185.612 82.2346 187.389" stroke="#313E59" stroke-linecap="round" stroke-linejoin="round"/>
    <path d="M102.857 182.075L101.952 174.796L93.12 178.064L96.5424 179.47C94.8717 180.942 92.6858 183.017 94.04 182.774C95.8245 182.245 97.5393 181.503 99.1478 180.566L102.857 182.075Z" fill="#313E59" stroke="#313E59" stroke-linecap="round" stroke-linejoin="round"/>
    <path d="M53.1332 216.675C53.1332 213.444 54.7082 180.544 54.7082 180.544L54.1709 178.211L50.1892 171.867L52.3089 184.136C50.6234 183.613 47.2305 182.716 48.5111 184.43C49.6991 185.872 51.0473 187.173 52.5297 188.309L51.3226 212.641C51.2217 214.672 51.7181 216.689 52.7505 218.441L53.9869 220.546C53.4246 219.333 53.1333 218.012 53.1332 216.675V216.675Z" fill="#313E59" stroke="#313E59" stroke-linecap="round" stroke-linejoin="round"/>
    <path d="M53.9869 220.575C54.1837 221.035 54.4305 221.472 54.7229 221.878L53.9869 220.575Z" fill="#313E59" stroke="#313E59" stroke-linecap="round" stroke-linejoin="round"/>
    <path d="M106.817 219.545C79.3494 231.932 54.7523 221.878 54.7523 221.878C54.7523 221.878 55.113 226.007 55.8269 226.191C64.7831 228.541 74.0774 229.331 83.3018 228.524C98.7578 227.266 105.205 224.932 106.456 224.035C107.708 223.137 107.538 220.443 107.538 220.443C107.538 220.443 107.538 220.031 107.612 219.39L106.817 219.545Z" fill="white" stroke="#313E59" stroke-linecap="round" stroke-linejoin="round"/>
    <path d="M43.4401 233.367C43.4401 233.367 47.569 235.163 50.9841 234.103C54.3991 233.043 55.2897 231.947 55.8269 232.131C56.3642 232.315 56.3716 236.613 55.8269 237.871C55.2823 239.13 54.0311 240.028 50.2628 240.388C46.4945 240.749 44.522 238.917 44.1613 237.871C43.8257 236.387 43.5848 234.882 43.4401 233.367V233.367Z" fill="white" stroke="#313E59" stroke-linecap="round" stroke-linejoin="round"/>
    <path d="M28.5875 331.932C43.3387 331.932 55.2969 328.222 55.2969 323.645C55.2969 319.068 43.3387 315.357 28.5875 315.357C13.8363 315.357 1.87805 319.068 1.87805 323.645C1.87805 328.222 13.8363 331.932 28.5875 331.932Z" fill="#5F5AF6"/>
    <path opacity="0.5" d="M28.5875 331.932C43.3387 331.932 55.2969 328.222 55.2969 323.645C55.2969 319.068 43.3387 315.357 28.5875 315.357C13.8363 315.357 1.87805 319.068 1.87805 323.645C1.87805 328.222 13.8363 331.932 28.5875 331.932Z" fill="white"/>
    <path d="M32.8048 135.516C32.8048 135.516 35.0128 138.136 34.9024 139.196C34.8157 140.386 35.0985 141.573 35.712 142.596C36.2346 143.251 37.6772 143.774 37.6772 144.951C37.6282 145.747 37.3552 146.512 36.8896 147.159C36.8896 147.159 37.4196 152.407 36.8896 153.717C36.3597 155.027 34.2695 155.027 33.0919 155.027C31.9143 155.027 31.2592 154.895 30.8839 154.895C30.5085 154.895 28.1312 152.797 26.2986 148.212C24.466 143.627 26.5636 136.804 28.1312 135.891C29.6989 134.979 32.8048 135.516 32.8048 135.516Z" fill="white" stroke="#313E59" stroke-linecap="round" stroke-linejoin="round"/>
    <path d="M31.8922 143.516L37.265 140.499" stroke="#313E59" stroke-linecap="round" stroke-linejoin="round"/>
    <path d="M34.9025 139.976C34.9025 139.976 37.7876 139.188 36.7425 143.384" stroke="#313E59" stroke-linecap="round" stroke-linejoin="round"/>
    <path d="M27.0641 159.031L26.2471 168.783L15.8916 166.34V158.619C15.8916 158.619 23.2001 156.992 27.0641 159.031Z" fill="white" stroke="#313E59" stroke-linecap="round" stroke-linejoin="round"/>
    <path d="M25.9968 131.144C24.0755 131.639 22.0797 131.776 20.1088 131.549C17.0765 131.144 10.4083 131.954 8.5904 136.406C6.77248 140.859 8.9952 144.892 8.78912 146.107C8.58304 147.321 5.352 149.139 5.352 150.964C5.352 152.79 6.76512 154.402 6.1616 155.815C5.55808 157.228 4.5424 158.442 5.352 159.855C6.1616 161.268 9.4 158.847 9.768 160.26C10.136 161.673 13.2051 163.499 14.6256 163.499C16.0461 163.499 17.6579 160.466 18.4675 161.673C19.2771 162.88 20.889 164.102 22.5082 163.881C24.1274 163.66 24.9296 159.944 28.3962 161.452C31.8627 162.961 32.9667 159.804 32.8122 157.036C32.6944 154.402 29.5811 150.766 30.1846 148.742C30.7882 146.718 32.0026 145.305 31.5978 143.082C31.193 140.859 29.3898 140.05 30.3834 138.43C31.377 136.811 32.8122 136.819 33.217 134.795C33.6218 132.771 32.8122 130.143 29.7798 129.738C26.7475 129.333 25.9968 131.144 25.9968 131.144Z" fill="white" stroke="#313E59" stroke-linecap="round" stroke-linejoin="round"/>
    <path d="M7.74404 234.405C7.74404 234.405 10.5924 250.656 9.17188 266.303C8.5978 272.581 5.49188 274.23 4.697 282.554C3.90212 290.878 6.72836 307.747 5.30788 316.69C5.11652 317.911 3.68132 320.958 5.30788 322.578C6.93444 324.197 12.6237 323.188 14.2503 323.188C15.8768 323.188 19.7335 322.578 20.1383 321.562C20.5431 320.546 17.7021 319.531 15.8768 316.079C13.7993 312.128 12.6846 307.743 12.6237 303.28C12.6237 298.606 15.4647 285.402 17.7021 274.635C19.9396 263.867 21.154 257.972 21.154 251.877V232.741C21.154 231.726 15.6708 229.29 11.402 230.099C7.13316 230.909 7.74404 234.405 7.74404 234.405Z" fill="white" stroke="#313E59" stroke-linecap="round" stroke-linejoin="round"/>
    <path d="M15.8916 316.079C15.5751 315.49 15.2807 314.857 15.001 314.202C14.4711 315.321 14.265 316.66 13.2493 316.896C11.4167 317.3 5.3226 316.69 5.3226 316.69C5.12388 317.911 3.69604 320.958 5.3226 322.578C6.94916 324.197 12.6384 323.188 14.265 323.188C15.8916 323.188 19.7482 322.578 20.153 321.562C20.5578 320.546 17.7168 319.56 15.8916 316.079Z" fill="#313E59" stroke="#313E59" stroke-linecap="round" stroke-linejoin="round"/>
    <path d="M13.0873 307.902C12.7977 306.378 12.6474 304.831 12.6384 303.28C12.6384 298.606 15.4793 285.402 17.7168 274.635C19.9542 263.867 21.1686 257.972 21.1686 251.877V232.741C21.1686 231.726 15.6854 229.29 11.4166 230.099C7.14783 230.909 7.73663 234.368 7.73663 234.368C7.73663 234.368 10.5849 250.619 9.16447 266.266C8.59039 272.544 5.48447 274.193 4.68959 282.517C4.10079 288.567 5.42559 299.114 5.66847 307.865C8.10176 308.479 10.6481 308.492 13.0873 307.902V307.902Z" fill="#5F5AF6" stroke="#313E59" stroke-linecap="round" stroke-linejoin="round"/>
    <path d="M5.1239 304.104C6.66272 304.419 8.22213 304.623 9.79014 304.715C11.1095 304.626 12.41 304.353 13.6541 303.905L14.265 309.19C12.4121 309.738 10.5039 310.079 8.57574 310.205C7.54253 310.279 6.50527 310.139 5.5287 309.793C5.5287 309.793 5.1239 305.716 5.1239 304.104Z" fill="white" stroke="#313E59" stroke-linecap="round" stroke-linejoin="round"/>
    <path d="M5.53605 219.368C5.53605 219.368 4.31429 227.464 5.53605 231.556C6.75781 235.649 10.0036 241.316 10.8205 242.935C11.6375 244.554 12.6458 249.64 12.6458 250.656C12.6458 251.671 13.4554 263.661 12.241 269.755C11.0266 275.849 9.59877 279.323 9.59877 285.211C9.59877 291.099 12.4397 313.098 12.4397 316.955C12.4397 320.811 11.0192 325.691 12.0349 326.707C13.0506 327.722 30.5232 325.654 32.1498 325.043C32.4598 324.927 32.739 324.741 32.966 324.501C33.193 324.26 33.3616 323.97 33.459 323.653C33.5564 323.337 33.58 323.003 33.5278 322.676C33.4756 322.349 33.3492 322.038 33.1581 321.768C32.5472 320.958 25.2314 318.559 24.017 317.543C22.8026 316.528 21.9856 313.275 21.809 311.854C21.6324 310.434 22.2138 288.641 23.0308 283.768C23.8477 278.896 27.0935 269.343 28.9188 264.058C30.744 258.774 33.9972 240.087 33.9972 233.382C34.0001 229.378 33.7987 225.376 33.3936 221.392C33.3936 221.392 14.4637 222.82 5.53605 219.368Z" fill="white" stroke="#313E59" stroke-linecap="round" stroke-linejoin="round"/>
    <path d="M32.1425 325.028C32.4508 324.913 32.7286 324.728 32.9547 324.488C33.1808 324.249 33.3493 323.961 33.4472 323.646C33.5452 323.332 33.5701 322.999 33.52 322.674C33.4699 322.348 33.3461 322.038 33.1582 321.768C32.5473 320.958 25.2314 318.559 24.017 317.543C23.8246 317.376 23.6562 317.183 23.5166 316.969L23.0014 320.186C21.7312 321.209 20.1571 321.781 18.5265 321.812C16.4951 321.812 13.507 320.487 12.2337 319.876C11.8878 322.953 11.1665 326.029 12.0276 326.684C16.1566 329.864 30.5159 325.639 32.1425 325.028Z" fill="#313E59" stroke="#313E59" stroke-linecap="round" stroke-linejoin="round"/>
    <path d="M21.728 311.103C21.6692 307.217 22.2432 288.228 22.9866 283.776C23.7962 278.896 27.0493 269.35 28.8746 264.066C30.6999 258.781 33.953 240.094 33.953 233.389C33.956 229.385 33.7545 225.383 33.3495 221.4C33.3495 221.4 14.4637 222.82 5.53605 219.368C5.53605 219.368 4.31429 227.464 5.53605 231.556C6.75781 235.649 10.0036 241.316 10.8205 242.935C11.6375 244.554 12.6458 249.64 12.6458 250.656C12.6458 251.671 13.4554 263.661 12.241 269.755C11.0266 275.849 9.59877 279.323 9.59877 285.211C9.59877 289.384 11.0266 302.963 11.8583 310.338C14.1672 310.985 16.543 311.362 18.9386 311.464C19.8795 311.456 20.816 311.335 21.728 311.103V311.103Z" fill="#5F5AF6" stroke="#313E59" stroke-linecap="round" stroke-linejoin="round"/>
    <path d="M11.8288 312.877C13.1858 313.411 14.6322 313.68 16.0903 313.672C18.5264 313.672 22.1843 314.276 21.9783 313.061C21.9147 311.297 21.9812 309.531 22.177 307.777C22.177 307.777 17.7095 308.388 15.0672 307.983C12.425 307.578 10.8058 307.372 10.8058 307.372C10.8058 307.372 11.2179 311.663 11.8288 312.877Z" fill="white" stroke="#313E59" stroke-linecap="round" stroke-linejoin="round"/>
    <path d="M28.4845 171.013C26.3809 168.324 23.4546 166.398 20.153 165.53C14.6698 164.109 9.3853 172.235 7.96482 176.702C6.54434 181.17 6.33826 193.159 4.28482 199.253C2.23138 205.348 0.832977 217.543 1.64258 218.964C2.45218 220.384 19.9322 224.852 26.0263 224.852C32.1203 224.852 38.656 219.979 38.8474 217.543C39.0387 215.107 37.8317 198.856 36.816 190.112C35.8003 181.369 28.4845 171.013 28.4845 171.013Z" fill="#313E59" stroke="#313E59" stroke-linecap="round" stroke-linejoin="round"/>
    <path d="M25.776 238.6C25.776 238.6 25.7098 241.419 25.776 243.075C25.8157 244.59 25.6068 246.102 25.1578 247.55C24.8119 248.646 23.9876 249.404 23.9213 248.646C23.8551 247.888 24.1936 246.512 24.1936 245.894C24.1936 245.276 23.9875 242.457 23.9875 242.457C23.8321 243.475 23.6258 244.484 23.3693 245.482C22.9572 247.064 21.7869 248.713 21.2349 248.852C20.6829 248.992 20.337 248.507 20.6167 247.756C20.8963 247.005 21.5808 244.812 21.6471 244.311C21.7133 243.811 21.728 242.28 21.728 242.28C21.2072 243.853 20.5877 245.392 19.8733 246.887C19.3213 247.719 19.2551 248.131 18.7031 248.197C18.1511 248.264 18.2247 247.093 18.5632 246.203C18.9634 244.873 19.2635 243.515 19.4611 242.14C19.4611 241.868 18.8429 243.377 18.0848 244.208C17.3268 245.04 16.7748 245.717 16.4288 245.585C16.0829 245.452 16.5687 244.113 16.8484 243.516C17.1726 242.793 17.4026 242.031 17.5328 241.25V239.461C17.5328 239.461 16.9146 238.077 19.8071 237.599C22.6995 237.121 25.1578 236.569 25.776 238.6Z" fill="white" stroke="#313E59" stroke-linecap="round" stroke-linejoin="round"/>
    <path d="M15.6928 236.642C15.5167 237.148 15.5074 237.697 15.6664 238.208C15.8254 238.72 16.1442 239.166 16.576 239.483C18.0922 240.499 23.5018 241.316 25.2314 239.689C26.209 238.871 26.8294 237.704 26.961 236.436L15.6928 236.642Z" fill="white" stroke="#313E59" stroke-linecap="round" stroke-linejoin="round"/>
    <path d="M17.312 173.449C17.312 173.449 12.8445 180.765 12.8445 185.439C12.8445 190.112 10.401 222.82 10.2023 226.89C10.0036 230.96 10.401 234.199 12.8445 236.23C15.288 238.261 25.2314 238.261 27.8736 237.246C30.5159 236.23 32.952 231.556 32.952 228.311C32.952 225.065 29.905 201.079 29.272 196.412C28.6391 191.746 28.4551 179.345 26.6298 176.504C24.8045 173.663 24.1863 173.449 24.1863 173.449" fill="#313E59"/>
    <path d="M17.312 173.449C17.312 173.449 12.8445 180.765 12.8445 185.439C12.8445 190.112 10.401 222.82 10.2023 226.89C10.0036 230.96 10.401 234.199 12.8445 236.23C15.288 238.261 25.2314 238.261 27.8736 237.246C30.5159 236.23 32.952 231.556 32.952 228.311C32.952 225.065 29.905 201.079 29.272 196.412C28.6391 191.746 28.4551 179.345 26.6298 176.504C24.8045 173.663 24.1863 173.449 24.1863 173.449" stroke="#313E59" stroke-linecap="round" stroke-linejoin="round"/>
    <path d="M10.6365 219.53C10.6365 219.53 11.8803 191.216 12.8445 185.439C13.4829 181.798 14.6042 178.258 16.1786 174.914" stroke="#636363" stroke-linecap="round" stroke-linejoin="round"/>
    <path d="M25.4081 175.179C25.4081 175.179 28.9188 181.928 29.0881 189.163C29.2574 196.398 31.7303 219.523 31.7303 219.523" stroke="#636363" stroke-linecap="round" stroke-linejoin="round"/>
    <path d="M28.2858 182.186L28.8893 178.123" stroke="#636363" stroke-linecap="round" stroke-linejoin="round"/>
</svg>