<svg width="402" height="260" viewbox="0 0 402 260" fill="none" xmlns="http://www.w3.org/2000/svg">
    <path d="M124.4 112.88C124.144 112.586 123.871 112.309 123.58 112.05C123.318 111.762 123.041 111.488 122.75 111.23C122.75 111.23 122.75 111.23 122.75 111.23C122.492 110.939 122.218 110.662 121.93 110.4V110.4C121.671 110.109 121.394 109.835 121.1 109.58V109.58C120.84 109.29 120.56 109.01 120.28 108.75C120.027 108.457 119.753 108.183 119.46 107.93C119.198 107.639 118.921 107.361 118.63 107.1V107.1C118.377 106.807 118.103 106.533 117.81 106.28C117.548 105.992 117.271 105.718 116.98 105.46C116.98 105.46 116.98 105.46 116.98 105.46C116.133 104.527 115.145 103.734 114.05 103.11V20.47C114.05 20.03 113.84 19.81 113.84 19.37C113.894 18.9213 113.818 18.4664 113.62 18.06C113.62 17.84 113.41 17.4 113.41 17.18C113.29 16.7304 113.139 16.2894 112.96 15.86C112.729 15.6184 112.578 15.3109 112.53 14.98C112.278 14.585 111.983 14.2194 111.65 13.89C111.42 13.67 111.21 13.24 110.99 13.01L110.11 12.13C110.11 12 109.94 11.86 109.75 11.78L109.32 11.34H109.27C109.27 11.2 109.11 11.07 108.92 10.98L108.48 10.55C108.48 10.42 108.31 10.28 108.12 10.19L107.69 9.75999C107.69 9.61999 107.52 9.48999 107.33 9.39999L106.9 8.96C106.9 8.83 106.73 8.69 106.54 8.6L106.1 8.16999V8.11999C106.1 7.98999 105.93 7.86 105.74 7.77L105.31 7.32999H105.26C105.26 7.19999 105.1 7.05999 104.91 6.96999L104.47 6.53999V6.49C104.47 6.36 104.3 6.22999 104.11 6.13999L103.68 5.69999H103.63C103.63 5.55999 103.47 5.42999 103.28 5.33999L102.84 4.91C102.84 4.78 102.67 4.63999 102.48 4.55999L102 4.07999C102 3.85999 101.57 3.63999 101.34 3.63999C101.341 3.61158 101.337 3.5832 101.327 3.55656C101.317 3.52991 101.302 3.50556 101.282 3.48499C101.262 3.46442 101.239 3.44806 101.213 3.43688C101.186 3.42571 101.158 3.41996 101.13 3.41999C100.69 3.20999 100.46 2.97999 100.03 2.75999C99.6516 2.48566 99.2878 2.19194 98.9399 1.88C98.7199 1.88 98.2799 1.66999 98.0599 1.66999C97.6199 1.44999 96.9599 1.44999 96.7399 1.21999C96.361 1.25085 95.9808 1.17826 95.6399 1.00999H91.9199C91.6588 1.17762 91.3486 1.25166 91.0399 1.21999C90.3799 1.44999 89.9499 1.44999 89.7199 1.66999C89.2899 1.66999 89.0699 1.87999 88.8399 2.32999C88.3704 2.34093 87.9146 2.49054 87.5299 2.75999C87.3199 2.97999 86.8699 3.20999 86.6499 3.41999C86.3578 3.74043 85.9792 3.96962 85.5599 4.07999C85.396 4.4115 85.1723 4.70985 84.8999 4.96C84.6799 5.18 84.6799 5.38999 84.4699 5.38999L2.99991 106C1.07338 108.313 0.11178 111.28 0.314751 114.283C0.517722 117.287 1.86967 120.097 4.08991 122.13C4.34695 122.432 4.62785 122.713 4.92991 122.97C5.18102 123.271 5.45881 123.549 5.75991 123.8C6.01694 124.102 6.29785 124.383 6.59991 124.64C6.85347 124.942 7.13104 125.223 7.42991 125.48C7.68707 125.779 7.96798 126.056 8.26991 126.31C8.52347 126.612 8.80104 126.893 9.09991 127.15C9.35707 127.449 9.63798 127.726 9.93991 127.98C10.1935 128.282 10.471 128.563 10.7699 128.82C11.0271 129.119 11.308 129.396 11.6099 129.65C12.127 130.238 12.7034 130.771 13.3299 131.24C15.3894 133.03 18.0528 133.971 20.7799 133.87H81.4999V142.18C81.482 143.872 81.8219 145.548 82.4975 147.099C83.1731 148.65 84.169 150.041 85.4199 151.18V151.18C85.6799 151.46 85.9499 151.73 86.2199 151.98C86.4747 152.265 86.7451 152.535 87.0299 152.79V152.79C87.2899 153.07 87.5599 153.34 87.8399 153.59C88.0947 153.875 88.3651 154.145 88.6499 154.4V154.4C88.9099 154.68 89.1799 154.95 89.4599 155.21C89.7121 155.497 89.9827 155.768 90.2699 156.02V156.02C90.5199 156.3 90.7899 156.57 91.0699 156.83C91.3247 157.115 91.5951 157.385 91.8799 157.64V157.64C92.1299 157.91 92.3999 158.18 92.6799 158.44C94.3317 160.226 96.4829 161.473 98.8534 162.018C101.224 162.564 103.704 162.383 105.97 161.499C108.236 160.615 110.184 159.07 111.559 157.063C112.934 155.057 113.673 152.682 113.68 150.25V133.83H115.88C117.481 133.857 119.071 133.564 120.558 132.97C122.045 132.376 123.399 131.492 124.541 130.37C125.683 129.247 126.59 127.909 127.209 126.433C127.829 124.956 128.149 123.371 128.15 121.77C128.174 120.109 127.853 118.462 127.208 116.931C126.562 115.401 125.606 114.022 124.4 112.88V112.88ZM81.4799 65.88V101.32H52.9199L81.4799 65.88Z" fill="#5F5AF6"/>
    <path opacity="0.1" d="M124.4 112.88C124.144 112.586 123.871 112.309 123.58 112.05C123.318 111.762 123.041 111.488 122.75 111.23C122.75 111.23 122.75 111.23 122.75 111.23C122.492 110.939 122.218 110.662 121.93 110.4V110.4C121.671 110.109 121.394 109.835 121.1 109.58V109.58C120.84 109.29 120.56 109.01 120.28 108.75C120.027 108.457 119.753 108.183 119.46 107.93C119.198 107.639 118.921 107.361 118.63 107.1V107.1C118.377 106.807 118.103 106.533 117.81 106.28C117.548 105.992 117.271 105.718 116.98 105.46C116.98 105.46 116.98 105.46 116.98 105.46C116.133 104.527 115.145 103.734 114.05 103.11V20.47C114.05 20.03 113.84 19.81 113.84 19.37C113.894 18.9213 113.818 18.4664 113.62 18.06C113.62 17.84 113.41 17.4 113.41 17.18C113.29 16.7304 113.139 16.2894 112.96 15.86C112.729 15.6184 112.578 15.3109 112.53 14.98C112.278 14.585 111.983 14.2194 111.65 13.89C111.42 13.67 111.21 13.24 110.99 13.01L110.11 12.13C110.11 12 109.94 11.86 109.75 11.78L109.32 11.34H109.27C109.27 11.2 109.11 11.07 108.92 10.98L108.48 10.55C108.48 10.42 108.31 10.28 108.12 10.19L107.69 9.75999C107.69 9.61999 107.52 9.48999 107.33 9.39999L106.9 8.96C106.9 8.83 106.73 8.69 106.54 8.6L106.1 8.16999V8.11999C106.1 7.98999 105.93 7.86 105.74 7.77L105.31 7.32999H105.26C105.26 7.19999 105.1 7.05999 104.91 6.96999L104.47 6.53999V6.49C104.47 6.36 104.3 6.22999 104.11 6.13999L103.68 5.69999H103.63C103.63 5.55999 103.47 5.42999 103.28 5.33999L102.84 4.91C102.84 4.78 102.67 4.63999 102.48 4.55999L102 4.07999C102 3.85999 101.57 3.63999 101.34 3.63999C101.341 3.61158 101.337 3.5832 101.327 3.55656C101.317 3.52991 101.302 3.50556 101.282 3.48499C101.262 3.46442 101.239 3.44806 101.213 3.43688C101.186 3.42571 101.158 3.41996 101.13 3.41999C100.69 3.20999 100.46 2.97999 100.03 2.75999C99.6516 2.48566 99.2878 2.19194 98.9399 1.88C98.7199 1.88 98.2799 1.66999 98.0599 1.66999C97.6199 1.44999 96.9599 1.44999 96.7399 1.21999C96.361 1.25085 95.9808 1.17826 95.6399 1.00999H91.9199C91.6588 1.17762 91.3486 1.25166 91.0399 1.21999C90.3799 1.44999 89.9499 1.44999 89.7199 1.66999C89.2899 1.66999 89.0699 1.87999 88.8399 2.32999C88.3704 2.34093 87.9146 2.49054 87.5299 2.75999C87.3199 2.97999 86.8699 3.20999 86.6499 3.41999C86.3578 3.74043 85.9792 3.96962 85.5599 4.07999C85.396 4.4115 85.1723 4.70985 84.8999 4.96C84.6799 5.18 84.6799 5.38999 84.4699 5.38999L2.99991 106C1.07338 108.313 0.11178 111.28 0.314751 114.283C0.517722 117.287 1.86967 120.097 4.08991 122.13C4.34695 122.432 4.62785 122.713 4.92991 122.97C5.18102 123.271 5.45881 123.549 5.75991 123.8C6.01694 124.102 6.29785 124.383 6.59991 124.64C6.85347 124.942 7.13104 125.223 7.42991 125.48C7.68707 125.779 7.96798 126.056 8.26991 126.31C8.52347 126.612 8.80104 126.893 9.09991 127.15C9.35707 127.449 9.63798 127.726 9.93991 127.98C10.1935 128.282 10.471 128.563 10.7699 128.82C11.0271 129.119 11.308 129.396 11.6099 129.65C12.127 130.238 12.7034 130.771 13.3299 131.24C15.3894 133.03 18.0528 133.971 20.7799 133.87H81.4999V142.18C81.482 143.872 81.8219 145.548 82.4975 147.099C83.1731 148.65 84.169 150.041 85.4199 151.18V151.18C85.6799 151.46 85.9499 151.73 86.2199 151.98C86.4747 152.265 86.7451 152.535 87.0299 152.79V152.79C87.2899 153.07 87.5599 153.34 87.8399 153.59C88.0947 153.875 88.3651 154.145 88.6499 154.4V154.4C88.9099 154.68 89.1799 154.95 89.4599 155.21C89.7121 155.497 89.9827 155.768 90.2699 156.02V156.02C90.5199 156.3 90.7899 156.57 91.0699 156.83C91.3247 157.115 91.5951 157.385 91.8799 157.64V157.64C92.1299 157.91 92.3999 158.18 92.6799 158.44C94.3317 160.226 96.4829 161.473 98.8534 162.018C101.224 162.564 103.704 162.383 105.97 161.499C108.236 160.615 110.184 159.07 111.559 157.063C112.934 155.057 113.673 152.682 113.68 150.25V133.83H115.88C117.481 133.857 119.071 133.564 120.558 132.97C122.045 132.376 123.399 131.492 124.541 130.37C125.683 129.247 126.59 127.909 127.209 126.433C127.829 124.956 128.149 123.371 128.15 121.77C128.174 120.109 127.853 118.462 127.208 116.931C126.562 115.401 125.606 114.022 124.4 112.88V112.88ZM81.4799 65.88V101.32H52.9199L81.4799 65.88Z" fill="black"/>
    <path d="M120.06 113.41C120.059 115.012 119.739 116.598 119.118 118.075C118.498 119.552 117.59 120.891 116.447 122.013C115.304 123.136 113.949 124.02 112.461 124.613C110.973 125.207 109.382 125.498 107.78 125.47H105.59V142.14C105.59 145.339 104.319 148.406 102.058 150.668C99.7959 152.929 96.7283 154.2 93.5298 154.2C90.3313 154.2 87.2638 152.929 85.0021 150.668C82.7404 148.406 81.4698 145.339 81.4698 142.14V125.47H12.3998C9.68913 125.562 7.04449 124.622 4.99983 122.84C3.733 121.888 2.67231 120.688 1.88181 119.315C1.0913 117.941 0.587383 116.421 0.400466 114.847C0.213548 113.274 0.347513 111.678 0.794272 110.158C1.24103 108.637 1.99132 107.223 2.99983 106L84.0998 5.08999C84.3198 5.08999 84.3198 4.88 84.5398 4.66C84.8122 4.40985 85.0359 4.1115 85.1998 3.77999C85.6206 3.66626 86.0015 3.43774 86.2998 3.11999C86.5098 2.89999 86.9498 2.68 87.1698 2.46C87.5556 2.18401 88.0156 2.03068 88.4898 2.02C88.7098 1.59 88.9298 1.36999 89.3698 1.36999C89.5798 1.14999 90.0198 1.14999 90.6798 0.929993C90.9899 0.962913 91.3017 0.884974 91.5598 0.709991H95.2898C95.6237 0.888672 96.0028 0.965182 96.3798 0.929993C96.5998 1.14999 97.2598 1.14999 97.6998 1.36999C97.9198 1.36999 98.3598 1.58999 98.5798 1.58999C99.0098 2.01999 99.4498 2.24 99.6698 2.46C100.11 2.68 100.33 2.89999 100.77 3.11999C100.828 3.11999 100.884 3.14317 100.925 3.18443C100.967 3.22568 100.99 3.28164 100.99 3.33999C101.21 3.33999 101.65 3.55999 101.65 3.77999L102.52 4.66C102.74 4.88 102.96 5.30999 103.18 5.52999C103.515 5.86083 103.811 6.23005 104.06 6.63C104.115 6.96086 104.268 7.26749 104.5 7.50999C104.681 7.93347 104.824 8.37177 104.93 8.82C104.93 9.04 105.15 9.47999 105.15 9.69999C105.348 10.1099 105.424 10.568 105.37 11.02C105.37 11.45 105.59 11.67 105.59 12.11V101.35H107.78C111.004 101.334 114.103 102.592 116.403 104.851C118.703 107.11 120.018 110.186 120.06 113.41ZM81.4698 47.19L37.8398 101.35H81.4698V47.19Z" fill="#5F5AF6"/>
    <path d="M248.33 33.4C245.855 29.6331 242.978 26.146 239.75 23C239.631 22.8691 239.504 22.7456 239.37 22.63L239.26 22.52C239.16 22.41 239.06 22.3 238.95 22.2C238.67 21.9 238.37 21.62 238.08 21.33L238 21.26L237.7 20.96C237.666 20.9209 237.629 20.8841 237.59 20.85C237.49 20.74 237.39 20.63 237.28 20.53C237 20.23 236.7 19.95 236.41 19.66L236.33 19.59L236.03 19.29L235.92 19.18C235.82 19.07 235.72 18.96 235.61 18.86C235.33 18.56 235.03 18.28 234.74 17.99L234.66 17.92L234.36 17.62C234.36 17.62 234.29 17.54 234.25 17.51C234.151 17.3959 234.044 17.289 233.93 17.19C233.66 16.88 233.36 16.61 233.07 16.32L232.99 16.25C232.898 16.1426 232.797 16.0423 232.69 15.95C232.69 15.95 232.62 15.87 232.58 15.84C223.77 6.75999 212.29 0.749992 199.41 0.749992C182.08 0.749992 167.84 11.06 158.62 25.08C148.97 39.08 143.94 57.33 143.72 77.49C143.94 97.49 148.97 115.86 158.62 129.9C161.091 133.611 163.936 137.059 167.11 140.19L167.55 140.62V140.67L168.33 141.45C168.46 141.6 168.6 141.73 168.73 141.86L169.17 142.29L169.22 142.34L170 143.12L170.4 143.54L170.84 143.96C170.861 143.971 170.879 143.989 170.89 144.01L171.67 144.79L172.07 145.21L172.51 145.63C172.522 145.636 172.532 145.645 172.541 145.655C172.55 145.665 172.556 145.677 172.56 145.69L173.34 146.47L173.75 146.88L174.18 147.3L174.24 147.36L175.02 148.14C183.68 156.79 194.86 162.6 207.71 162.6C224.59 162.6 239.06 152.07 248.28 138.25C257.7 124.25 262.97 105.8 262.97 85.85C263 65.64 257.75 47.44 248.33 33.4ZM219.8 116.27C213.44 125.69 206.2 129.86 199.41 129.86C195.232 129.759 191.188 128.361 187.84 125.86C187.53 125.46 187.23 125.04 186.93 124.6C180.79 115.39 176.4 101.36 176.4 85.79C176.4 70 180.79 56.19 186.93 46.79C193.52 37.58 200.93 33.2 207.76 33.41C211.719 33.3919 215.578 34.6548 218.76 37.01C219.11 37.48 219.45 37.94 219.76 38.43C225.9 47.86 230.28 61.67 230.28 77.43C230.32 93 225.94 107.05 219.8 116.27Z" fill="#5F5AF6"/>
    <path opacity="0.1" d="M248.33 33.4C245.855 29.6331 242.978 26.146 239.75 23C239.631 22.8691 239.504 22.7456 239.37 22.63L239.26 22.52C239.16 22.41 239.06 22.3 238.95 22.2C238.67 21.9 238.37 21.62 238.08 21.33L238 21.26L237.7 20.96C237.666 20.9209 237.629 20.8841 237.59 20.85C237.49 20.74 237.39 20.63 237.28 20.53C237 20.23 236.7 19.95 236.41 19.66L236.33 19.59L236.03 19.29L235.92 19.18C235.82 19.07 235.72 18.96 235.61 18.86C235.33 18.56 235.03 18.28 234.74 17.99L234.66 17.92L234.36 17.62C234.36 17.62 234.29 17.54 234.25 17.51C234.151 17.3959 234.044 17.289 233.93 17.19C233.66 16.88 233.36 16.61 233.07 16.32L232.99 16.25C232.898 16.1426 232.797 16.0423 232.69 15.95C232.69 15.95 232.62 15.87 232.58 15.84C223.77 6.75999 212.29 0.749992 199.41 0.749992C182.08 0.749992 167.84 11.06 158.62 25.08C148.97 39.08 143.94 57.33 143.72 77.49C143.94 97.49 148.97 115.86 158.62 129.9C161.091 133.611 163.936 137.059 167.11 140.19L167.55 140.62V140.67L168.33 141.45C168.46 141.6 168.6 141.73 168.73 141.86L169.17 142.29L169.22 142.34L170 143.12L170.4 143.54L170.84 143.96C170.861 143.971 170.879 143.989 170.89 144.01L171.67 144.79L172.07 145.21L172.51 145.63C172.522 145.636 172.532 145.645 172.541 145.655C172.55 145.665 172.556 145.677 172.56 145.69L173.34 146.47L173.75 146.88L174.18 147.3L174.24 147.36L175.02 148.14C183.68 156.79 194.86 162.6 207.71 162.6C224.59 162.6 239.06 152.07 248.28 138.25C257.7 124.25 262.97 105.8 262.97 85.85C263 65.64 257.75 47.44 248.33 33.4ZM219.8 116.27C213.44 125.69 206.2 129.86 199.41 129.86C195.232 129.759 191.188 128.361 187.84 125.86C187.53 125.46 187.23 125.04 186.93 124.6C180.79 115.39 176.4 101.36 176.4 85.79C176.4 70 180.79 56.19 186.93 46.79C193.52 37.58 200.93 33.2 207.76 33.41C211.719 33.3919 215.578 34.6548 218.76 37.01C219.11 37.48 219.45 37.94 219.76 38.43C225.9 47.86 230.28 61.67 230.28 77.43C230.32 93 225.94 107.05 219.8 116.27Z" fill="black"/>
    <path d="M143.71 77.45C143.93 57.28 148.98 39.08 158.62 25.05C167.83 11.05 182.08 0.709991 199.41 0.709991C216.29 0.709991 230.76 11.02 239.97 25.05C249.4 39.05 254.66 57.28 254.66 77.45C254.66 97.45 249.4 115.83 239.97 129.86C230.76 143.67 216.29 154.2 199.41 154.2C182.08 154.2 167.83 143.67 158.62 129.86C149 115.83 143.93 97.41 143.71 77.45ZM230.32 77.45C230.32 61.67 225.94 47.85 219.8 38.45C213.44 29.24 206.21 24.86 199.41 25.08C192.61 24.86 185.15 29.24 178.58 38.45C172.44 47.88 168.05 61.7 168.05 77.45C168.05 93.02 172.44 107.06 178.58 116.26C185.15 125.69 192.58 129.86 199.41 129.86C206.24 129.86 213.41 125.69 219.8 116.26C225.94 107.06 230.32 93 230.32 77.45Z" fill="#5F5AF6"/>
    <path d="M397.71 112.88C397.45 112.59 397.17 112.31 396.89 112.05C396.62 111.76 396.34 111.49 396.06 111.23C395.79 110.94 395.52 110.66 395.24 110.4C394.97 110.11 394.69 109.83 394.41 109.58C394.14 109.29 393.87 109.01 393.59 108.75C393.32 108.46 393.04 108.18 392.76 107.93C392.49 107.64 392.21 107.36 391.94 107.1C391.682 106.812 391.408 106.538 391.12 106.28C391.12 106.28 391.12 106.28 391.12 106.28C390.85 105.99 390.57 105.72 390.29 105.46C389.442 104.524 388.45 103.73 387.35 103.11V20.47C387.35 20.03 387.14 19.81 387.14 19.37C387.194 18.9213 387.117 18.4664 386.92 18.06C386.92 17.84 386.71 17.4 386.71 17.18C386.589 16.7304 386.439 16.2894 386.26 15.86C386.033 15.6155 385.883 15.3093 385.83 14.98C385.581 14.5826 385.286 14.2166 384.95 13.89C384.72 13.67 384.51 13.24 384.29 13.01L383.41 12.13C383.41 12 383.24 11.86 383.05 11.78L382.62 11.34H382.57C382.57 11.2 382.41 11.07 382.22 10.98L381.78 10.55C381.78 10.42 381.61 10.28 381.42 10.19L380.99 9.75999C380.99 9.61999 380.82 9.48999 380.63 9.39999L380.2 8.96C380.2 8.83 380.03 8.69 379.84 8.6L379.4 8.16999V8.11999C379.4 7.98999 379.23 7.86 379.04 7.77L378.61 7.32999H378.56C378.56 7.19999 378.4 7.05999 378.21 6.96999L377.77 6.53999V6.49C377.77 6.36 377.6 6.22999 377.41 6.13999L376.98 5.69999H376.93C376.93 5.55999 376.77 5.42999 376.58 5.33999L376.14 4.91C376.14 4.78 375.97 4.63999 375.78 4.55999L375.3 4.07999C375.3 3.85999 374.87 3.63999 374.64 3.63999C374.64 3.6111 374.634 3.5825 374.623 3.55581C374.612 3.52912 374.596 3.50486 374.575 3.48443C374.555 3.464 374.531 3.4478 374.504 3.43674C374.477 3.42569 374.449 3.41999 374.42 3.41999C373.99 3.20999 373.76 2.97999 373.33 2.75999C372.951 2.48566 372.588 2.19194 372.24 1.88C372.02 1.88 371.58 1.66999 371.36 1.66999C370.92 1.44999 370.27 1.44999 370.04 1.21999C369.661 1.25187 369.28 1.17923 368.94 1.00999H365.22C364.959 1.17762 364.648 1.25166 364.34 1.21999C363.68 1.44999 363.25 1.44999 363.02 1.66999C362.59 1.66999 362.37 1.87999 362.14 2.32999C361.67 2.34211 361.215 2.49161 360.83 2.75999C360.62 2.97999 360.17 3.20999 359.96 3.41999C359.661 3.73775 359.28 3.96627 358.86 4.07999C358.692 4.40944 358.469 4.70723 358.2 4.96C357.98 5.18 357.98 5.38999 357.77 5.38999L276.28 106C274.353 108.313 273.392 111.28 273.595 114.283C273.798 117.287 275.149 120.097 277.37 122.13C277.627 122.432 277.908 122.713 278.21 122.97C278.461 123.271 278.739 123.549 279.04 123.8C279.297 124.102 279.578 124.383 279.88 124.64C280.718 125.472 281.551 126.308 282.38 127.15C282.943 127.7 283.5 128.257 284.05 128.82C284.307 129.119 284.588 129.396 284.89 129.65C285.407 130.238 285.983 130.771 286.61 131.24C288.669 133.03 291.333 133.971 294.06 133.87H354.78V142.18C354.762 143.872 355.102 145.548 355.777 147.099C356.453 148.65 357.449 150.041 358.7 151.18C358.7 151.18 358.7 151.18 358.7 151.18C358.96 151.47 359.24 151.74 359.51 151.99C359.76 152.27 360.03 152.53 360.31 152.79C360.568 153.075 360.842 153.345 361.13 153.6V153.6C361.39 153.88 361.65 154.14 361.93 154.4C362.19 154.69 362.47 154.96 362.75 155.22C363.01 155.5 363.27 155.77 363.55 156.02C363.81 156.31 364.09 156.58 364.37 156.84C364.63 157.12 364.89 157.39 365.17 157.64C365.424 157.928 365.695 158.202 365.98 158.46C367.632 160.246 369.784 161.493 372.156 162.039C374.527 162.584 377.008 162.402 379.274 161.517C381.541 160.632 383.489 159.085 384.863 157.077C386.237 155.069 386.975 152.693 386.98 150.26V133.83H389.18C390.782 133.858 392.374 133.567 393.862 132.973C395.351 132.38 396.707 131.496 397.85 130.374C398.994 129.252 399.903 127.913 400.525 126.436C401.146 124.959 401.467 123.373 401.47 121.77C401.493 120.109 401.17 118.461 400.523 116.93C399.876 115.4 398.918 114.021 397.71 112.88V112.88ZM354.78 65.88V101.32H326.22L354.78 65.88Z" fill="#5F5AF6"/>
    <path opacity="0.1" d="M397.71 112.88C397.45 112.59 397.17 112.31 396.89 112.05C396.62 111.76 396.34 111.49 396.06 111.23C395.79 110.94 395.52 110.66 395.24 110.4C394.97 110.11 394.69 109.83 394.41 109.58C394.14 109.29 393.87 109.01 393.59 108.75C393.32 108.46 393.04 108.18 392.76 107.93C392.49 107.64 392.21 107.36 391.94 107.1C391.682 106.812 391.408 106.538 391.12 106.28C391.12 106.28 391.12 106.28 391.12 106.28C390.85 105.99 390.57 105.72 390.29 105.46C389.442 104.524 388.45 103.73 387.35 103.11V20.47C387.35 20.03 387.14 19.81 387.14 19.37C387.194 18.9213 387.117 18.4664 386.92 18.06C386.92 17.84 386.71 17.4 386.71 17.18C386.589 16.7304 386.439 16.2894 386.26 15.86C386.033 15.6155 385.883 15.3093 385.83 14.98C385.581 14.5826 385.286 14.2166 384.95 13.89C384.72 13.67 384.51 13.24 384.29 13.01L383.41 12.13C383.41 12 383.24 11.86 383.05 11.78L382.62 11.34H382.57C382.57 11.2 382.41 11.07 382.22 10.98L381.78 10.55C381.78 10.42 381.61 10.28 381.42 10.19L380.99 9.75999C380.99 9.61999 380.82 9.48999 380.63 9.39999L380.2 8.96C380.2 8.83 380.03 8.69 379.84 8.6L379.4 8.16999V8.11999C379.4 7.98999 379.23 7.86 379.04 7.77L378.61 7.32999H378.56C378.56 7.19999 378.4 7.05999 378.21 6.96999L377.77 6.53999V6.49C377.77 6.36 377.6 6.22999 377.41 6.13999L376.98 5.69999H376.93C376.93 5.55999 376.77 5.42999 376.58 5.33999L376.14 4.91C376.14 4.78 375.97 4.63999 375.78 4.55999L375.3 4.07999C375.3 3.85999 374.87 3.63999 374.64 3.63999C374.64 3.6111 374.634 3.5825 374.623 3.55581C374.612 3.52912 374.596 3.50486 374.575 3.48443C374.555 3.464 374.531 3.4478 374.504 3.43674C374.477 3.42569 374.449 3.41999 374.42 3.41999C373.99 3.20999 373.76 2.97999 373.33 2.75999C372.951 2.48566 372.588 2.19194 372.24 1.88C372.02 1.88 371.58 1.66999 371.36 1.66999C370.92 1.44999 370.27 1.44999 370.04 1.21999C369.661 1.25187 369.28 1.17923 368.94 1.00999H365.22C364.959 1.17762 364.648 1.25166 364.34 1.21999C363.68 1.44999 363.25 1.44999 363.02 1.66999C362.59 1.66999 362.37 1.87999 362.14 2.32999C361.67 2.34211 361.215 2.49161 360.83 2.75999C360.62 2.97999 360.17 3.20999 359.96 3.41999C359.661 3.73775 359.28 3.96627 358.86 4.07999C358.692 4.40944 358.469 4.70723 358.2 4.96C357.98 5.18 357.98 5.38999 357.77 5.38999L276.28 106C274.353 108.313 273.392 111.28 273.595 114.283C273.798 117.287 275.149 120.097 277.37 122.13C277.627 122.432 277.908 122.713 278.21 122.97C278.461 123.271 278.739 123.549 279.04 123.8C279.297 124.102 279.578 124.383 279.88 124.64C280.718 125.472 281.551 126.308 282.38 127.15C282.943 127.7 283.5 128.257 284.05 128.82C284.307 129.119 284.588 129.396 284.89 129.65C285.407 130.238 285.983 130.771 286.61 131.24C288.669 133.03 291.333 133.971 294.06 133.87H354.78V142.18C354.762 143.872 355.102 145.548 355.777 147.099C356.453 148.65 357.449 150.041 358.7 151.18C358.7 151.18 358.7 151.18 358.7 151.18C358.96 151.47 359.24 151.74 359.51 151.99C359.76 152.27 360.03 152.53 360.31 152.79C360.568 153.075 360.842 153.345 361.13 153.6V153.6C361.39 153.88 361.65 154.14 361.93 154.4C362.19 154.69 362.47 154.96 362.75 155.22C363.01 155.5 363.27 155.77 363.55 156.02C363.81 156.31 364.09 156.58 364.37 156.84C364.63 157.12 364.89 157.39 365.17 157.64C365.424 157.928 365.695 158.202 365.98 158.46C367.632 160.246 369.784 161.493 372.156 162.039C374.527 162.584 377.008 162.402 379.274 161.517C381.541 160.632 383.489 159.085 384.863 157.077C386.237 155.069 386.975 152.693 386.98 150.26V133.83H389.18C390.782 133.858 392.374 133.567 393.862 132.973C395.351 132.38 396.707 131.496 397.85 130.374C398.994 129.252 399.903 127.913 400.525 126.436C401.146 124.959 401.467 123.373 401.47 121.77C401.493 120.109 401.17 118.461 400.523 116.93C399.876 115.4 398.918 114.021 397.71 112.88V112.88ZM354.78 65.88V101.32H326.22L354.78 65.88Z" fill="black"/>
    <path d="M393.36 113.41C393.359 115.012 393.039 116.598 392.419 118.075C391.798 119.552 390.89 120.891 389.747 122.013C388.604 123.136 387.249 124.02 385.761 124.613C384.273 125.207 382.682 125.498 381.08 125.47H378.89V142.14C378.89 145.339 377.619 148.406 375.358 150.668C373.096 152.929 370.028 154.2 366.83 154.2C363.631 154.2 360.564 152.929 358.302 150.668C356.041 148.406 354.77 145.339 354.77 142.14V125.47H285.7C282.972 125.575 280.307 124.634 278.25 122.84C276.977 121.887 275.911 120.686 275.117 119.309C274.323 117.932 273.817 116.408 273.63 114.829C273.443 113.25 273.579 111.65 274.029 110.125C274.479 108.601 275.235 107.184 276.25 105.96L357.4 5.08999C357.62 5.08999 357.62 4.88 357.84 4.66C358.112 4.40985 358.336 4.1115 358.5 3.77999C358.921 3.66626 359.302 3.43774 359.6 3.11999C359.82 2.89999 360.26 2.68 360.48 2.46C360.861 2.18252 361.319 2.02891 361.79 2.02C362.01 1.59 362.23 1.36999 362.66 1.36999C362.88 1.14999 363.32 1.14999 363.98 0.929993C364.29 0.962913 364.602 0.884974 364.86 0.709991H368.59C368.924 0.888672 369.303 0.965182 369.68 0.929993C369.9 1.14999 370.56 1.14999 371 1.36999C371.22 1.36999 371.66 1.58999 371.88 1.58999C372.32 2.01999 372.75 2.24 372.97 2.46C373.41 2.68 373.63 2.89999 374.07 3.11999C374.128 3.11999 374.184 3.14317 374.226 3.18443C374.267 3.22568 374.29 3.28164 374.29 3.33999C374.51 3.33999 374.94 3.55999 374.94 3.77999L375.82 4.66C376.04 4.88 376.26 5.30999 376.48 5.52999C376.816 5.86083 377.111 6.23005 377.36 6.63C377.415 6.96086 377.568 7.26749 377.8 7.50999C377.98 7.93473 378.127 8.3727 378.24 8.82C378.24 9.04 378.45 9.47999 378.45 9.69999C378.648 10.1099 378.724 10.568 378.67 11.02C378.67 11.45 378.89 11.67 378.89 12.11V101.35H381.08C384.304 101.334 387.403 102.592 389.703 104.851C392.004 107.11 393.318 110.186 393.36 113.41V113.41ZM354.77 47.19L311.14 101.35H354.77V47.19Z" fill="#5F5AF6"/>
    <path d="M207.91 131.942C207.938 132.122 207.9 132.306 207.804 132.463C207.708 132.619 207.558 132.738 207.382 132.8C206.528 132.926 205.488 133.059 204.335 133.217C200.898 125.996 197.388 120.309 198.38 122.558C199.894 126.093 200.886 129.816 201.329 133.618C199.988 133.791 196.86 134.161 195.3 134.342C191.709 121.457 187.753 111.987 188.216 114.96C190.101 126.955 189.768 130.873 189.337 135.065C174.77 136.78 155.637 138.809 141.768 139.966C139.501 132.886 137.381 125.146 137.186 125.713C135.667 129.921 135.699 135.868 136.081 140.43C131.661 140.768 128.119 140.949 125.95 140.949C125.95 140.949 124.325 134.955 124.032 132.973C123.162 127.901 123.212 122.721 124.178 117.666C125.178 112.506 127.306 107.865 129.297 103.122C129.303 103.092 129.311 103.063 129.321 103.035C130.641 99.9276 131.59 96.6841 132.149 93.3678C132.154 93.3419 132.154 93.3151 132.149 93.2892C132.52 90.8707 132.68 88.4262 132.628 85.9817C132.449 77.0303 136.593 68.9834 144.465 66.073C157.911 52.7717 176.378 58.8756 181.594 70.1239C183.634 75.166 185.657 81.7498 187.42 86.8234C187.415 86.8317 187.412 86.8412 187.412 86.8509C187.412 86.8605 187.415 86.87 187.42 86.8784V86.8784C188.085 88.8685 188.874 90.8176 189.784 92.715C194.618 101.777 203.929 106.449 207.91 131.942Z" fill="#BD0090"/>
    <path d="M141.224 68.7159C136.178 71.9488 133.302 76.3616 133.099 82.9218C132.969 86.7447 133.099 90.4653 131.986 94.1387C130.873 97.9301 128.858 101.124 126.77 104.309C123.463 109.375 121.286 114.346 121.294 120.765C121.302 127.184 122.302 134.924 124.975 140.815C124.975 140.855 125.04 140.815 125.023 140.815C122.748 134.798 121.92 126.318 122.383 119.821C122.895 112.679 126.339 107.975 129.801 102.335C132.589 97.858 134.132 92.7575 134.277 87.5313C134.375 84.2905 134.017 80.9475 134.992 77.8326C136.146 74.1198 138.908 71.6106 141.67 69.3688C142.036 69.0463 141.605 68.4721 141.224 68.7159Z" fill="#BD0090"/>
    <path d="M199.712 102.099C195.504 97.3087 191.206 93.2734 188.427 87.1537C185.901 81.5768 184.203 75.6222 181.643 70.061C181.643 69.9666 181.473 70.0138 181.513 70.1161C185.576 80.0272 187.135 90.2057 194.236 98.284C198.104 102.673 201.93 106.724 204.709 112.112C207.55 117.795 209.327 123.92 209.957 130.204C209.957 130.424 210.258 130.393 210.258 130.204C210.262 119.927 206.528 109.977 199.712 102.099V102.099Z" fill="#BD0090"/>
    <path d="M240.627 224.171C240.627 224.171 201.41 234.396 194.927 233.295C188.443 232.194 166.556 203.672 161.697 193.328C156.839 182.985 148.771 131.526 150.323 125.862C151.875 120.199 159.991 120.12 166.84 134.719C173.689 149.318 189.881 181.411 192.765 184.054C195.65 186.697 243.787 221.433 240.627 224.171Z" fill="#F6AD95"/>
    <path d="M198.331 229.913C204.343 226.869 211.663 219.483 216.651 218.712C217.872 218.48 219.136 218.636 220.259 219.154C221.381 219.672 222.301 220.527 222.883 221.591C222.883 221.591 225.174 216.659 229.821 216.682C232.202 216.682 234.282 220.395 234.282 220.395C234.282 220.395 236.305 216.517 240.424 216.785C243.714 216.997 245.298 220.678 245.298 220.678C245.298 220.678 249.019 217.831 252.302 219.105C258.948 221.646 260.053 248.996 249.816 253.621C245.047 255.776 245.152 249.082 245.152 249.082C245.152 249.082 242.601 258.679 236.784 259.04C230.967 259.402 231.641 250.718 231.641 250.718C231.641 250.718 229.082 259.992 223.013 259.78C216.692 259.567 218.902 250.986 218.902 250.986C218.902 250.986 214.888 257.231 210.282 256.036C202.669 254.069 210.851 239.265 209.128 233.311H199.566L198.331 229.913Z" fill="#F6AD95"/>
    <path d="M207.008 224.092C201.052 226.499 194.26 217.398 188.134 219.514C180.189 222.259 187.533 231.753 199.574 233.295H209.136L207.008 224.092Z" fill="#F6AD95"/>
    <path d="M245.648 221.221C245.648 221.202 245.655 221.184 245.669 221.171C245.683 221.158 245.701 221.15 245.721 221.15C245.74 221.15 245.759 221.158 245.773 221.171C245.786 221.184 245.794 221.202 245.794 221.221C248.418 230.133 248.491 240.705 245.201 249.468C245.095 249.751 244.559 249.711 244.616 249.373C246.225 239.682 246.858 230.983 245.648 221.221Z" fill="#BD0090"/>
    <path d="M234.339 220.238C234.339 220.128 234.51 220.104 234.542 220.238C237.199 229.441 236.979 241.342 231.918 251.017C231.747 251.348 231.244 251.473 231.414 251.08C234.25 244.41 235.476 229.04 234.339 220.238Z" fill="#BD0090"/>
    <path d="M218.317 251.56C222.761 242.121 223.631 232.233 223.013 221.96C223.013 221.827 223.2 221.827 223.241 221.96C224.955 226.908 224.638 233.492 223.948 238.597C223.407 243.334 221.595 247.853 218.691 251.701C218.545 251.867 218.22 251.764 218.317 251.56Z" fill="#BD0090"/>
    <path d="M187.663 218.79C191.563 217.532 195.568 220.552 198.85 222.243C199.901 222.849 201.008 223.357 202.157 223.762C204.757 224.548 206.682 224.045 207.844 223.345C209.664 222.22 215.343 216.729 219.446 218.554C220.861 219.196 222.073 220.192 222.956 221.441C224.207 219.239 225.808 216.84 228.578 216.399C229.188 216.299 229.814 216.325 230.413 216.475C231.013 216.626 231.572 216.897 232.055 217.272C232.572 217.658 233.031 218.111 233.42 218.617C233.806 219.072 234.123 219.578 234.363 220.12C234.364 220.101 234.364 220.083 234.363 220.065L234.452 219.899L234.623 219.561C234.855 219.108 235.184 218.708 235.589 218.389C235.667 218.313 235.759 218.253 235.861 218.212C235.963 218.172 236.072 218.152 236.183 218.153C236.2 218.153 236.216 218.16 236.229 218.172C236.241 218.183 236.248 218.199 236.248 218.216C236.248 218.233 236.241 218.249 236.229 218.261C236.216 218.272 236.2 218.279 236.183 218.279C235.992 218.367 235.838 218.513 235.744 218.696C235.614 218.885 235.492 219.081 235.354 219.262C235.216 219.443 235.086 219.632 234.948 219.813L234.745 220.104L234.655 220.253C234.616 220.302 234.573 220.346 234.525 220.387C234.514 220.402 234.499 220.414 234.482 220.422C234.465 220.43 234.447 220.434 234.428 220.434C234.409 220.434 234.39 220.43 234.373 220.422C234.356 220.414 234.342 220.402 234.33 220.387C234.33 220.387 234.33 220.387 234.33 220.387C233.912 220.027 233.534 219.627 233.201 219.191C232.792 218.731 232.337 218.309 231.844 217.933C231.376 217.582 230.836 217.331 230.261 217.195C229.686 217.06 229.087 217.043 228.505 217.146C226.019 217.618 224.443 219.758 223.118 221.669C223.118 221.669 223.118 221.669 223.078 221.669C223.118 221.732 223.029 221.787 222.98 221.74C221.615 220.584 220.315 219.286 218.431 219.018C216.399 218.727 214.474 219.671 212.792 220.662C211.95 221.142 211.136 221.667 210.355 222.236C209.664 222.755 209.006 223.337 208.267 223.809C205.106 225.736 201.645 224.241 200.784 223.887C199.086 223.147 197.438 222.301 195.853 221.355C194.258 220.32 192.46 219.615 190.572 219.286C189.704 219.162 188.819 219.253 187.998 219.55C187.177 219.847 186.447 220.341 185.876 220.985C185.283 221.724 184.527 223.109 186.079 226.263C186.079 226.263 186.079 226.326 186.03 226.302C185.218 225.484 182.634 220.419 187.663 218.79Z" fill="#BD0090"/>
    <path d="M153.402 173.656L190.409 167.929C190.409 167.929 172.73 134.035 162.112 124.202C151.631 114.496 146.529 124.438 148.073 139.431C149.779 156.052 153.402 173.656 153.402 173.656Z" fill="#E000AB"/>
    <path d="M154.605 166.985C155.644 166.749 156.709 166.6 157.749 166.372C158.789 166.144 159.788 166.002 160.812 165.853C162.9 165.538 164.996 165.255 167.084 164.979C171.211 164.429 175.338 163.823 179.482 163.406C181.838 163.155 184.178 162.808 186.542 162.62C186.615 162.62 186.623 162.73 186.542 162.745C182.439 163.674 178.263 164.319 174.103 165.019C169.944 165.719 165.849 166.285 161.705 166.718C160.544 166.844 159.374 166.985 158.212 167.04C157.05 167.095 155.815 167.205 154.621 167.221C154.588 167.223 154.557 167.213 154.532 167.192C154.508 167.172 154.493 167.142 154.491 167.111C154.489 167.08 154.499 167.049 154.521 167.025C154.542 167.002 154.572 166.987 154.605 166.985V166.985Z" fill="#BD0090"/>
    <path d="M174.006 233.61H76.0001C76.0001 233.61 116.736 135.726 137.446 121.426C143.661 117.131 153.565 116.651 160.243 125.272C165.719 132.351 180.92 160.472 181.611 170.588C182.301 180.703 174.104 190.701 174.104 190.701L174.006 233.61Z" fill="#B8008C"/>
    <path d="M141.557 167.284C141.305 167.221 141.061 167.19 140.818 167.143C140.603 167.095 140.38 167.096 140.165 167.143C139.95 167.191 139.749 167.284 139.576 167.417C139.404 167.55 139.265 167.719 139.169 167.911C139.073 168.103 139.023 168.314 139.022 168.527C139.028 168.717 138.984 168.905 138.892 169.073C138.801 169.241 138.667 169.384 138.502 169.487C138.318 169.599 138.109 169.669 137.893 169.691C137.644 169.726 137.397 169.773 137.153 169.833C137.397 169.896 137.641 169.927 137.893 169.974C138.165 170.027 138.447 170.002 138.705 169.903C138.98 169.79 139.214 169.6 139.377 169.358C139.541 169.116 139.626 168.832 139.623 168.543C139.628 168.354 139.682 168.169 139.78 168.005C139.878 167.841 140.017 167.704 140.184 167.607C140.377 167.505 140.59 167.443 140.809 167.426C141.061 167.378 141.305 167.347 141.557 167.284Z" fill="#E1E1F7"/>
    <path d="M179.043 167.284C178.799 167.221 178.555 167.19 178.312 167.143C178.097 167.095 177.874 167.096 177.659 167.143C177.444 167.191 177.243 167.284 177.071 167.417C176.898 167.55 176.759 167.719 176.663 167.911C176.567 168.103 176.517 168.314 176.516 168.527C176.521 168.717 176.474 168.906 176.382 169.074C176.29 169.242 176.154 169.384 175.988 169.487C175.805 169.601 175.596 169.671 175.379 169.691C175.135 169.738 174.891 169.762 174.648 169.833C174.891 169.896 175.135 169.927 175.379 169.974C175.651 170.025 175.933 170.001 176.191 169.903C176.464 169.787 176.696 169.597 176.859 169.355C177.022 169.114 177.109 168.831 177.109 168.543C177.114 168.354 177.168 168.169 177.266 168.005C177.364 167.841 177.503 167.704 177.67 167.607C177.863 167.504 178.076 167.442 178.296 167.426C178.555 167.378 178.799 167.347 179.043 167.284Z" fill="#E1E1F7"/>
    <path d="M127.94 214.433C127.696 214.37 127.444 214.338 127.201 214.291C126.986 214.247 126.763 214.249 126.55 214.298C126.336 214.348 126.136 214.442 125.965 214.576C125.794 214.709 125.655 214.878 125.56 215.069C125.465 215.261 125.414 215.471 125.413 215.683C125.415 215.873 125.368 216.061 125.276 216.228C125.184 216.396 125.049 216.539 124.885 216.643C124.7 216.753 124.492 216.82 124.276 216.84C124.032 216.887 123.78 216.918 123.536 216.981C123.78 217.052 124.032 217.083 124.276 217.131C124.549 217.18 124.831 217.153 125.088 217.052C125.363 216.938 125.598 216.748 125.762 216.506C125.927 216.264 126.015 215.981 126.014 215.691C126.016 215.502 126.068 215.317 126.167 215.155C126.265 214.992 126.406 214.857 126.575 214.763C126.763 214.656 126.975 214.594 127.193 214.582C127.444 214.535 127.696 214.503 127.94 214.433Z" fill="#E1E1F7"/>
    <path d="M110.992 169.833C110.749 169.762 110.497 169.738 110.253 169.691C110.039 169.644 109.816 169.644 109.601 169.691C109.387 169.739 109.186 169.833 109.015 169.966C108.843 170.099 108.704 170.268 108.609 170.46C108.514 170.652 108.465 170.863 108.466 171.076C108.469 171.266 108.422 171.453 108.329 171.621C108.237 171.789 108.102 171.931 107.938 172.035C107.755 172.149 107.545 172.217 107.328 172.232C107.085 172.287 106.833 172.31 106.589 172.381C106.833 172.444 107.085 172.476 107.328 172.523C107.6 172.576 107.883 172.551 108.141 172.452C108.416 172.338 108.65 172.148 108.815 171.906C108.98 171.664 109.067 171.381 109.067 171.091C109.068 170.902 109.121 170.715 109.219 170.551C109.318 170.387 109.458 170.251 109.628 170.155C109.817 170.052 110.028 169.99 110.245 169.974C110.497 169.896 110.749 169.896 110.992 169.833Z" fill="#E1E1F7"/>
    <path d="M154.321 145.849C154.069 145.787 153.825 145.755 153.581 145.708C153.311 145.65 153.029 145.67 152.769 145.763C152.487 145.865 152.243 146.047 152.071 146.286C151.898 146.525 151.804 146.809 151.802 147.1C151.803 147.29 151.755 147.477 151.663 147.644C151.571 147.812 151.437 147.954 151.274 148.06C151.087 148.166 150.88 148.233 150.665 148.256C150.413 148.304 150.169 148.335 149.925 148.398C150.169 148.469 150.413 148.492 150.665 148.547C150.938 148.593 151.219 148.566 151.477 148.469C151.756 148.354 151.992 148.16 152.156 147.913C152.32 147.666 152.403 147.378 152.395 147.084C152.399 146.896 152.452 146.712 152.55 146.55C152.649 146.387 152.788 146.252 152.956 146.156C153.147 146.048 153.361 145.983 153.581 145.967C153.825 145.944 154.069 145.92 154.321 145.849Z" fill="#E1E1F7"/>
    <path d="M127.648 145.307C127.404 145.244 127.16 145.212 126.908 145.165C126.638 145.11 126.356 145.129 126.096 145.22C125.814 145.324 125.571 145.506 125.397 145.744C125.224 145.983 125.127 146.266 125.121 146.557C125.125 146.748 125.078 146.936 124.986 147.104C124.893 147.272 124.758 147.414 124.593 147.517C124.408 147.628 124.2 147.695 123.984 147.714C123.74 147.761 123.496 147.792 123.244 147.855C123.496 147.926 123.74 147.958 123.984 148.005C124.257 148.055 124.539 148.027 124.796 147.926C125.071 147.812 125.306 147.622 125.47 147.38C125.635 147.138 125.722 146.855 125.722 146.565C125.725 146.377 125.778 146.192 125.876 146.03C125.975 145.867 126.115 145.732 126.283 145.637C126.471 145.53 126.683 145.468 126.9 145.456C127.152 145.419 127.401 145.369 127.648 145.307Z" fill="#E1E1F7"/>
    <path d="M144.912 120.521C144.669 120.458 144.417 120.427 144.173 120.379C143.959 120.332 143.736 120.332 143.521 120.38C143.307 120.427 143.106 120.521 142.934 120.654C142.763 120.787 142.624 120.956 142.529 121.148C142.434 121.341 142.385 121.551 142.386 121.764C142.39 121.954 142.344 122.143 142.251 122.311C142.159 122.479 142.023 122.621 141.858 122.724C141.674 122.837 141.465 122.907 141.248 122.928C141.004 122.975 140.753 122.999 140.509 123.07C140.753 123.133 141.004 123.164 141.248 123.211C141.52 123.264 141.803 123.239 142.061 123.14C142.336 123.026 142.57 122.837 142.735 122.595C142.9 122.353 142.987 122.069 142.987 121.78C142.988 121.59 143.041 121.404 143.139 121.24C143.237 121.076 143.378 120.939 143.547 120.844C143.737 120.74 143.948 120.679 144.165 120.663C144.417 120.615 144.669 120.584 144.912 120.521Z" fill="#E1E1F7"/>
    <path d="M160.861 187.012C160.617 186.949 160.373 186.918 160.129 186.87C159.859 186.813 159.577 186.832 159.317 186.925C159.035 187.026 158.79 187.206 158.616 187.444C158.442 187.681 158.347 187.964 158.342 188.255C158.346 188.445 158.3 188.633 158.208 188.802C158.115 188.97 157.98 189.112 157.814 189.214C157.631 189.329 157.422 189.399 157.205 189.419C156.961 189.466 156.717 189.498 156.473 189.56C156.717 189.631 156.961 189.655 157.205 189.702C157.477 189.753 157.759 189.729 158.017 189.631C158.29 189.515 158.522 189.325 158.685 189.083C158.848 188.841 158.935 188.559 158.935 188.27C158.94 188.081 158.994 187.897 159.091 187.733C159.189 187.569 159.328 187.432 159.496 187.334C159.689 187.233 159.902 187.171 160.121 187.154C160.373 187.106 160.617 187.083 160.861 187.012Z" fill="#E1E1F7"/>
    <path d="M131.759 230.22C131.515 230.149 131.263 230.117 131.019 230.07C130.805 230.026 130.582 230.028 130.368 230.077C130.155 230.127 129.955 230.221 129.784 230.355C129.613 230.488 129.474 230.657 129.379 230.848C129.283 231.04 129.233 231.25 129.232 231.462C129.234 231.652 129.187 231.84 129.095 232.008C129.002 232.175 128.868 232.318 128.704 232.422C128.521 232.535 128.311 232.603 128.095 232.619C127.851 232.666 127.599 232.697 127.355 232.76C127.599 232.831 127.851 232.862 128.095 232.91C128.368 232.959 128.65 232.932 128.907 232.831C129.183 232.718 129.418 232.528 129.583 232.286C129.747 232.044 129.835 231.76 129.833 231.47C129.835 231.282 129.887 231.097 129.985 230.934C130.084 230.771 130.225 230.636 130.394 230.542C130.582 230.435 130.794 230.373 131.011 230.361C131.288 230.314 131.539 230.282 131.759 230.22Z" fill="#E1E1F7"/>
    <path d="M146.098 206.999C145.855 206.936 145.611 206.905 145.367 206.858C145.096 206.804 144.815 206.823 144.555 206.913C144.272 207.014 144.027 207.196 143.853 207.435C143.679 207.674 143.584 207.958 143.58 208.25C143.583 208.44 143.537 208.628 143.445 208.796C143.352 208.964 143.217 209.106 143.052 209.21C142.868 209.322 142.659 209.389 142.442 209.406C142.199 209.453 141.955 209.485 141.703 209.548C141.955 209.619 142.199 209.642 142.442 209.697C142.716 209.742 142.996 209.715 143.255 209.619C143.528 209.503 143.76 209.312 143.923 209.07C144.086 208.829 144.173 208.546 144.173 208.258C144.178 208.07 144.232 207.886 144.33 207.724C144.428 207.562 144.567 207.426 144.733 207.33C144.923 207.218 145.138 207.156 145.359 207.149C145.57 207.094 145.855 207.07 146.098 206.999Z" fill="#E1E1F7"/>
    <path d="M172.592 211.223C172.34 211.153 172.097 211.121 171.853 211.074C171.638 211.029 171.416 211.032 171.202 211.081C170.988 211.13 170.788 211.225 170.617 211.358C170.446 211.492 170.308 211.66 170.212 211.852C170.117 212.044 170.067 212.253 170.066 212.466C170.068 212.656 170.021 212.844 169.928 213.011C169.836 213.179 169.702 213.322 169.537 213.426C169.354 213.539 169.145 213.606 168.928 213.622C168.676 213.67 168.433 213.701 168.189 213.764C168.432 213.826 168.679 213.876 168.928 213.913C169.201 213.963 169.483 213.936 169.741 213.835C170.016 213.722 170.251 213.532 170.416 213.29C170.581 213.048 170.668 212.764 170.667 212.474C170.668 212.286 170.72 212.102 170.817 211.939C170.913 211.777 171.052 211.641 171.219 211.546C171.411 211.44 171.625 211.379 171.845 211.365C172.097 211.318 172.34 211.286 172.592 211.223Z" fill="#E1E1F7"/>
    <path d="M133.904 187.578C133.66 187.515 133.416 187.484 133.172 187.437C132.957 187.392 132.734 187.395 132.52 187.444C132.306 187.493 132.106 187.588 131.934 187.721C131.762 187.854 131.623 188.023 131.527 188.214C131.43 188.406 131.379 188.616 131.377 188.829C131.381 189.019 131.334 189.207 131.242 189.375C131.149 189.543 131.014 189.685 130.849 189.789C130.665 189.901 130.456 189.968 130.239 189.985C129.996 190.032 129.752 190.064 129.508 190.127C129.752 190.198 129.996 190.221 130.239 190.276C130.512 190.324 130.794 190.297 131.052 190.198C131.325 190.082 131.557 189.891 131.72 189.649C131.883 189.408 131.97 189.125 131.97 188.837C131.975 188.649 132.029 188.465 132.127 188.303C132.225 188.141 132.364 188.005 132.531 187.909C132.721 187.8 132.935 187.738 133.156 187.728C133.384 187.673 133.66 187.649 133.904 187.578Z" fill="#E1E1F7"/>
    <path d="M100.032 219.365C99.7885 219.302 99.5366 219.27 99.2929 219.223C99.0222 219.166 98.7402 219.185 98.4804 219.278C98.1984 219.38 97.955 219.562 97.7823 219.801C97.6097 220.04 97.516 220.324 97.5136 220.615C97.5143 220.805 97.4665 220.992 97.3743 221.159C97.2822 221.327 97.1486 221.47 96.9855 221.575C96.7989 221.681 96.5913 221.748 96.3762 221.772C96.1243 221.819 95.8806 221.85 95.6369 221.913C95.8806 221.984 96.1243 222.008 96.3762 222.063C96.5922 222.101 96.8144 222.093 97.0266 222.038C97.2389 221.983 97.4358 221.883 97.6031 221.745C97.7704 221.607 97.9038 221.435 97.9937 221.241C98.0837 221.047 98.1278 220.836 98.123 220.623C98.1243 220.434 98.1768 220.249 98.2751 220.086C98.3735 219.924 98.5144 219.789 98.6836 219.695C98.871 219.586 99.0826 219.521 99.301 219.506C99.5366 219.451 99.7885 219.451 100.032 219.365Z" fill="#E1E1F7"/>
    <path d="M113.479 199.959C113.235 199.896 112.983 199.865 112.739 199.818C112.524 199.773 112.302 199.776 112.088 199.825C111.874 199.874 111.675 199.969 111.504 200.102C111.332 200.236 111.194 200.404 111.099 200.596C111.003 200.787 110.953 200.997 110.952 201.21C110.956 201.4 110.909 201.588 110.817 201.756C110.724 201.924 110.589 202.066 110.424 202.17C110.241 202.284 110.031 202.351 109.814 202.366C109.571 202.413 109.319 202.445 109.075 202.508C109.319 202.579 109.571 202.61 109.814 202.657C110.087 202.707 110.369 202.68 110.627 202.579C110.903 202.465 111.138 202.276 111.302 202.034C111.467 201.792 111.554 201.508 111.553 201.218C111.554 201.029 111.607 200.844 111.705 200.681C111.804 200.518 111.944 200.383 112.114 200.29C112.302 200.183 112.513 200.121 112.731 200.109C112.983 200.062 113.235 200.03 113.479 199.959Z" fill="#E1E1F7"/>
    <path d="M84.8965 228.237C84.6446 228.174 84.4009 228.143 84.1572 228.096C83.9423 228.051 83.7199 228.054 83.5062 228.103C83.2924 228.152 83.0927 228.247 82.9215 228.38C82.7503 228.514 82.612 228.682 82.5165 228.874C82.4211 229.066 82.3709 229.275 82.3698 229.488C82.3719 229.678 82.3247 229.865 82.2324 230.033C82.1401 230.201 82.0058 230.343 81.8417 230.448C81.6583 230.561 81.449 230.628 81.2323 230.644C80.9805 230.692 80.7367 230.723 80.493 230.786C80.7367 230.848 80.9834 230.898 81.2323 230.935C81.5053 230.985 81.7873 230.957 82.0448 230.857C82.3203 230.744 82.5548 230.554 82.7183 230.312C82.8819 230.07 82.967 229.785 82.9628 229.496C82.9681 229.308 83.0222 229.124 83.1202 228.962C83.2182 228.8 83.3569 228.664 83.5234 228.568C83.7151 228.462 83.929 228.4 84.149 228.387C84.4009 228.34 84.6365 228.308 84.8965 228.237Z" fill="#E1E1F7"/>
    <path d="M152.07 159.245C152.192 159.457 152.346 159.646 152.484 159.851C152.602 160.031 152.761 160.184 152.948 160.297C153.135 160.41 153.346 160.481 153.565 160.504C153.785 160.527 154.006 160.503 154.215 160.432C154.423 160.361 154.612 160.246 154.767 160.095C154.903 159.957 155.073 159.856 155.261 159.801C155.449 159.745 155.648 159.738 155.84 159.78C156.052 159.826 156.25 159.92 156.417 160.055C156.618 160.2 156.826 160.334 157.042 160.456C156.912 160.244 156.766 160.055 156.628 159.851C156.468 159.625 156.246 159.447 155.986 159.34C155.711 159.235 155.411 159.211 155.123 159.269C154.834 159.328 154.569 159.467 154.361 159.67C154.22 159.801 154.047 159.896 153.858 159.944C153.669 159.992 153.47 159.992 153.281 159.945C153.07 159.889 152.875 159.787 152.712 159.646C152.452 159.513 152.257 159.363 152.07 159.245Z" fill="#E1E1F7"/>
    <path d="M161.876 143.317C161.998 143.529 162.152 143.718 162.291 143.922C162.409 144.103 162.567 144.255 162.754 144.368C162.941 144.481 163.152 144.552 163.371 144.575C163.591 144.599 163.813 144.574 164.021 144.503C164.229 144.433 164.418 144.317 164.574 144.166C164.709 144.028 164.879 143.926 165.067 143.871C165.255 143.816 165.454 143.809 165.646 143.851C165.858 143.897 166.056 143.992 166.223 144.127C166.424 144.271 166.633 144.405 166.848 144.528C166.718 144.316 166.572 144.127 166.434 143.922C166.275 143.696 166.052 143.519 165.792 143.411C165.518 143.306 165.217 143.282 164.929 143.341C164.64 143.399 164.375 143.539 164.167 143.741C164.027 143.873 163.854 143.968 163.664 144.016C163.475 144.065 163.276 144.065 163.087 144.017C162.876 143.961 162.681 143.859 162.518 143.718C162.291 143.584 162.096 143.435 161.876 143.317Z" fill="#E1E1F7"/>
    <path d="M112.26 186.973C112.39 187.193 112.536 187.382 112.674 187.578C112.828 187.806 113.045 187.989 113.3 188.105C113.569 188.219 113.867 188.253 114.156 188.202C114.446 188.152 114.713 188.019 114.925 187.822C115.061 187.686 115.232 187.586 115.419 187.531C115.607 187.476 115.805 187.468 115.997 187.507C116.209 187.554 116.407 187.648 116.574 187.783C116.785 187.916 116.98 188.066 117.199 188.184C117.078 187.972 116.923 187.783 116.785 187.578C116.629 187.352 116.409 187.175 116.151 187.067C115.876 186.965 115.577 186.943 115.289 187.001C115.001 187.06 114.736 187.197 114.527 187.397C114.388 187.529 114.216 187.624 114.028 187.672C113.84 187.721 113.642 187.721 113.454 187.673C113.242 187.619 113.045 187.519 112.877 187.382C112.65 187.248 112.455 187.098 112.26 186.973Z" fill="#E1E1F7"/>
    <path d="M137.072 135.348C137.194 135.561 137.348 135.75 137.487 135.954C137.639 136.179 137.852 136.359 138.104 136.473C138.378 136.593 138.684 136.631 138.98 136.582C139.277 136.533 139.552 136.399 139.77 136.198C139.906 136.061 140.075 135.959 140.263 135.903C140.45 135.846 140.65 135.837 140.842 135.875C141.054 135.923 141.251 136.017 141.419 136.151C141.63 136.284 141.825 136.434 142.044 136.56C141.923 136.339 141.768 136.151 141.63 135.946C141.473 135.72 141.249 135.545 140.988 135.443C140.714 135.338 140.413 135.314 140.125 135.373C139.836 135.431 139.571 135.57 139.363 135.773C139.221 135.911 139.045 136.01 138.851 136.063C138.658 136.115 138.454 136.118 138.258 136.072C138.049 136.013 137.855 135.911 137.69 135.773C137.446 135.616 137.292 135.466 137.072 135.348Z" fill="#E1E1F7"/>
    <path d="M154.28 123.581C154.402 123.793 154.556 123.982 154.694 124.187C154.847 124.413 155.061 124.595 155.312 124.714C155.587 124.833 155.892 124.869 156.189 124.819C156.486 124.768 156.76 124.633 156.977 124.43C157.113 124.293 157.283 124.192 157.471 124.136C157.658 124.081 157.858 124.074 158.05 124.116C158.262 124.16 158.46 124.255 158.626 124.391C158.838 124.525 159.033 124.674 159.252 124.792C159.13 124.58 158.976 124.391 158.838 124.187C158.68 123.959 158.457 123.781 158.196 123.675C157.921 123.571 157.621 123.546 157.332 123.605C157.044 123.664 156.779 123.803 156.571 124.006C156.431 124.138 156.258 124.234 156.068 124.282C155.879 124.33 155.68 124.33 155.49 124.281C155.279 124.225 155.085 124.123 154.922 123.982C154.694 123.848 154.507 123.699 154.28 123.581Z" fill="#E1E1F7"/>
    <path d="M138.039 150.325C137.966 150.561 137.942 150.805 137.885 151.041C137.834 151.304 137.854 151.574 137.941 151.828C138.049 152.099 138.238 152.334 138.484 152.501C138.73 152.668 139.022 152.759 139.323 152.764C139.519 152.761 139.713 152.806 139.886 152.896C140.06 152.985 140.207 153.116 140.314 153.275C140.432 153.452 140.502 153.655 140.517 153.865C140.574 154.101 140.598 154.345 140.671 154.581C140.736 154.345 140.769 154.101 140.818 153.865C140.873 153.601 140.845 153.327 140.736 153.078C140.62 152.811 140.425 152.583 140.174 152.423C139.924 152.263 139.631 152.179 139.331 152.182C139.136 152.179 138.945 152.128 138.777 152.033C138.609 151.938 138.469 151.802 138.372 151.639C138.266 151.455 138.202 151.251 138.185 151.041C138.136 150.805 138.104 150.561 138.039 150.325Z" fill="#E1E1F7"/>
    <path d="M143.897 192.227C143.832 192.463 143.799 192.707 143.75 192.943C143.705 193.151 143.707 193.366 143.758 193.573C143.809 193.78 143.907 193.973 144.044 194.139C144.182 194.305 144.356 194.439 144.554 194.531C144.752 194.624 144.969 194.672 145.189 194.673C145.385 194.67 145.579 194.715 145.753 194.804C145.926 194.894 146.073 195.025 146.18 195.185C146.294 195.363 146.364 195.565 146.383 195.775C146.432 196.011 146.464 196.254 146.529 196.49C146.602 196.254 146.635 196.011 146.683 195.775C146.735 195.51 146.707 195.237 146.602 194.988C146.484 194.722 146.288 194.495 146.038 194.335C145.789 194.176 145.496 194.091 145.197 194.091C145.002 194.09 144.811 194.039 144.642 193.944C144.474 193.849 144.335 193.712 144.238 193.549C144.128 193.366 144.064 193.161 144.051 192.951C144.002 192.707 143.945 192.463 143.897 192.227Z" fill="#E1E1F7"/>
    <path d="M87.0737 211.64C87.0006 211.876 86.9681 212.112 86.9194 212.348C86.8736 212.557 86.8763 212.772 86.9271 212.98C86.9779 213.187 87.0757 213.381 87.2132 213.547C87.3508 213.713 87.5248 213.848 87.7227 213.941C87.9205 214.035 88.1373 214.084 88.3574 214.087C88.5539 214.083 88.7481 214.128 88.9216 214.218C89.0951 214.307 89.242 214.438 89.3486 214.598C89.4678 214.774 89.5378 214.977 89.5517 215.188C89.6004 215.424 89.633 215.66 89.6979 215.896C89.7711 215.66 89.8036 215.424 89.8523 215.188C89.902 214.923 89.8739 214.651 89.7711 214.401C89.652 214.136 89.4555 213.911 89.2057 213.753C88.956 213.595 88.6639 213.511 88.3655 213.512C88.1715 213.507 87.9819 213.455 87.8143 213.36C87.6467 213.265 87.5066 213.131 87.4068 212.97C87.2979 212.784 87.234 212.577 87.22 212.364C87.1631 212.112 87.1306 211.876 87.0737 211.64Z" fill="#E1E1F7"/>
    <path d="M113.397 156.13C113.332 156.366 113.3 156.602 113.251 156.846C113.194 157.108 113.214 157.381 113.308 157.633C113.415 157.905 113.603 158.141 113.85 158.309C114.096 158.477 114.388 158.57 114.689 158.577C114.886 158.573 115.08 158.618 115.253 158.708C115.427 158.797 115.574 158.928 115.68 159.088C115.795 159.266 115.864 159.468 115.884 159.678C115.932 159.914 115.965 160.15 116.03 160.394C116.103 160.15 116.127 159.914 116.184 159.678C116.224 159.469 116.215 159.253 116.159 159.048C116.102 158.843 115.998 158.652 115.856 158.49C115.714 158.328 115.536 158.199 115.335 158.112C115.135 158.025 114.917 157.982 114.697 157.987C114.503 157.984 114.312 157.932 114.144 157.837C113.976 157.742 113.837 157.607 113.739 157.444C113.625 157.263 113.561 157.057 113.552 156.846C113.495 156.602 113.471 156.366 113.397 156.13Z" fill="#E1E1F7"/>
    <path d="M113.397 223.384C113.332 223.62 113.3 223.856 113.251 224.092C113.205 224.3 113.208 224.516 113.259 224.723C113.31 224.931 113.407 225.125 113.545 225.291C113.683 225.457 113.857 225.592 114.054 225.685C114.252 225.778 114.469 225.828 114.689 225.83C114.886 225.827 115.08 225.872 115.253 225.961C115.427 226.051 115.574 226.182 115.68 226.342C115.796 226.52 115.866 226.722 115.883 226.932C115.932 227.168 115.965 227.404 116.03 227.64C116.103 227.404 116.127 227.168 116.184 226.932C116.23 226.667 116.202 226.396 116.103 226.145C115.983 225.881 115.786 225.656 115.537 225.498C115.287 225.34 114.995 225.256 114.697 225.256C114.503 225.251 114.314 225.199 114.146 225.104C113.978 225.009 113.838 224.875 113.739 224.713C113.624 224.53 113.559 224.322 113.552 224.108C113.495 223.88 113.471 223.644 113.397 223.384Z" fill="#E1E1F7"/>
    <path d="M100.032 184.88C99.9591 185.116 99.9347 185.36 99.8859 185.596C99.837 185.804 99.8372 186.019 99.8863 186.227C99.9355 186.435 100.032 186.629 100.17 186.795C100.307 186.962 100.482 187.096 100.68 187.188C100.879 187.28 101.096 187.327 101.316 187.327C101.512 187.324 101.706 187.369 101.879 187.459C102.053 187.548 102.2 187.678 102.307 187.838C102.425 188.015 102.495 188.218 102.51 188.428C102.567 188.664 102.591 188.908 102.665 189.144C102.729 188.908 102.762 188.664 102.811 188.428C102.866 188.164 102.838 187.889 102.729 187.641C102.614 187.375 102.42 187.148 102.171 186.988C101.922 186.828 101.63 186.744 101.332 186.744C101.136 186.743 100.944 186.692 100.774 186.597C100.605 186.502 100.464 186.366 100.365 186.202C100.259 186.018 100.195 185.814 100.178 185.604C100.13 185.36 100.073 185.116 100.032 184.88Z" fill="#E1E1F7"/>
    <path d="M167.758 193.729C167.685 193.965 167.661 194.201 167.612 194.437C167.563 194.645 167.564 194.861 167.613 195.069C167.662 195.277 167.759 195.472 167.896 195.639C168.033 195.806 168.207 195.941 168.406 196.034C168.604 196.127 168.822 196.175 169.042 196.176C169.239 196.171 169.433 196.216 169.607 196.306C169.78 196.395 169.927 196.527 170.033 196.687C170.152 196.863 170.222 197.067 170.236 197.277C170.293 197.513 170.318 197.749 170.391 197.985C170.456 197.749 170.488 197.513 170.537 197.277C170.59 197.013 170.562 196.739 170.456 196.49C170.339 196.226 170.144 196 169.895 195.842C169.647 195.684 169.356 195.6 169.058 195.602C168.863 195.597 168.672 195.545 168.503 195.45C168.334 195.355 168.192 195.221 168.091 195.059C167.984 194.873 167.92 194.666 167.905 194.453C167.856 194.201 167.823 193.965 167.758 193.729Z" fill="#E1E1F7"/>
    <path d="M166.442 156.13C166.381 156.366 166.332 156.605 166.296 156.846C166.236 157.107 166.253 157.38 166.345 157.633C166.452 157.905 166.64 158.141 166.886 158.309C167.132 158.477 167.425 158.57 167.726 158.577C167.922 158.572 168.117 158.617 168.291 158.707C168.464 158.796 168.611 158.927 168.717 159.088C168.835 159.265 168.905 159.468 168.92 159.678C168.977 159.914 169.001 160.15 169.074 160.394C169.139 160.15 169.172 159.914 169.221 159.678C169.275 159.414 169.25 159.141 169.148 158.891C169.03 158.625 168.834 158.398 168.584 158.238C168.334 158.079 168.041 157.994 167.742 157.994C167.546 157.991 167.355 157.94 167.186 157.845C167.016 157.75 166.875 157.615 166.775 157.452C166.669 157.268 166.605 157.064 166.588 156.854C166.54 156.602 166.507 156.366 166.442 156.13Z" fill="#E1E1F7"/>
    <path d="M152.273 131.691C152.208 131.927 152.176 132.163 152.127 132.407C152.07 132.669 152.09 132.941 152.184 133.193C152.291 133.466 152.479 133.701 152.725 133.87C152.971 134.038 153.264 134.131 153.565 134.137C153.761 134.133 153.956 134.179 154.129 134.268C154.303 134.357 154.45 134.488 154.556 134.648C154.67 134.827 154.74 135.029 154.759 135.238C154.808 135.474 154.84 135.71 154.905 135.954C154.979 135.71 155.003 135.474 155.06 135.238C155.11 134.974 155.081 134.701 154.979 134.452C154.859 134.187 154.662 133.963 154.412 133.805C154.163 133.647 153.871 133.563 153.573 133.563C153.379 133.56 153.188 133.509 153.02 133.413C152.852 133.318 152.712 133.183 152.614 133.02C152.501 132.839 152.437 132.634 152.428 132.422C152.371 132.139 152.346 131.927 152.273 131.691Z" fill="#E1E1F7"/>
    <path d="M156.075 169.471C156.01 169.715 155.978 169.951 155.929 170.187C155.883 170.395 155.886 170.611 155.937 170.818C155.987 171.025 156.085 171.219 156.223 171.385C156.36 171.552 156.534 171.686 156.732 171.78C156.93 171.873 157.147 171.923 157.367 171.925C157.563 171.921 157.758 171.967 157.931 172.056C158.105 172.145 158.252 172.276 158.358 172.436C158.474 172.614 158.544 172.817 158.561 173.026C158.61 173.262 158.642 173.498 158.707 173.734C158.781 173.498 158.813 173.262 158.862 173.026C158.912 172.762 158.883 172.489 158.781 172.24C158.661 171.975 158.464 171.751 158.214 171.593C157.965 171.435 157.673 171.351 157.375 171.351C157.181 171.346 156.991 171.293 156.824 171.198C156.656 171.104 156.516 170.969 156.416 170.808C156.307 170.622 156.244 170.415 156.229 170.202C156.181 169.951 156.132 169.715 156.075 169.471Z" fill="#E1E1F7"/>
    <path d="M121.928 174.552C121.863 174.788 121.831 175.032 121.782 175.268C121.736 175.476 121.738 175.691 121.789 175.898C121.84 176.105 121.938 176.299 122.076 176.464C122.213 176.63 122.388 176.764 122.586 176.856C122.783 176.949 123 176.997 123.22 176.999C123.416 176.996 123.61 177.042 123.783 177.132C123.956 177.221 124.103 177.351 124.211 177.51C124.324 177.689 124.394 177.891 124.414 178.1C124.463 178.336 124.495 178.58 124.56 178.816C124.633 178.58 124.658 178.336 124.715 178.1C124.766 177.835 124.738 177.562 124.633 177.313C124.516 177.047 124.32 176.82 124.07 176.66C123.82 176.501 123.527 176.416 123.228 176.416C123.033 176.415 122.842 176.364 122.674 176.269C122.505 176.174 122.366 176.038 122.269 175.874C122.156 175.693 122.091 175.487 122.082 175.276C122.009 175.032 122.009 174.788 121.928 174.552Z" fill="#E1E1F7"/>
    <path d="M153.492 216.981C153.427 217.225 153.394 217.461 153.346 217.697C153.297 217.905 153.297 218.121 153.346 218.329C153.395 218.537 153.492 218.732 153.629 218.899C153.767 219.065 153.941 219.2 154.139 219.293C154.338 219.386 154.555 219.435 154.775 219.435C154.972 219.43 155.167 219.474 155.341 219.563C155.515 219.653 155.662 219.785 155.767 219.947C155.884 220.122 155.956 220.321 155.978 220.529C156.014 220.77 156.063 221.009 156.124 221.245C156.189 221.009 156.222 220.773 156.27 220.529C156.324 220.265 156.299 219.992 156.197 219.742C156.08 219.476 155.884 219.25 155.634 219.091C155.384 218.933 155.091 218.85 154.792 218.853C154.596 218.849 154.405 218.797 154.236 218.702C154.067 218.607 153.926 218.472 153.825 218.311C153.72 218.123 153.656 217.917 153.638 217.705C153.589 217.461 153.557 217.225 153.492 216.981Z" fill="#E1E1F7"/>
    <path d="M127.786 162.557C127.656 162.344 127.501 162.156 127.363 161.951C127.214 161.724 126.999 161.543 126.746 161.432C126.477 161.318 126.179 161.284 125.89 161.333C125.602 161.382 125.334 161.512 125.121 161.707C124.983 161.844 124.812 161.946 124.623 162.002C124.434 162.059 124.234 162.068 124.04 162.03C123.831 161.982 123.637 161.887 123.472 161.754C123.26 161.613 123.065 161.471 122.838 161.345C122.968 161.566 123.122 161.754 123.26 161.959C123.417 162.182 123.637 162.357 123.894 162.462C124.169 162.565 124.469 162.588 124.757 162.53C125.045 162.471 125.31 162.333 125.519 162.132C125.659 162.002 125.831 161.909 126.019 161.861C126.206 161.813 126.403 161.812 126.591 161.857C126.801 161.916 126.995 162.018 127.16 162.156C127.363 162.289 127.558 162.439 127.786 162.557Z" fill="#E1E1F7"/>
    <path d="M147.699 180.027C147.577 179.815 147.423 179.626 147.285 179.421C147.167 179.241 147.008 179.089 146.821 178.975C146.634 178.862 146.423 178.792 146.204 178.768C145.985 178.745 145.763 178.769 145.555 178.84C145.347 178.911 145.158 179.026 145.002 179.177C144.867 179.316 144.697 179.417 144.509 179.473C144.321 179.528 144.121 179.535 143.929 179.492C143.717 179.446 143.519 179.352 143.353 179.217C143.152 179.072 142.943 178.938 142.727 178.816C142.857 179.028 143.003 179.217 143.141 179.421C143.266 179.597 143.429 179.745 143.619 179.852C143.81 179.959 144.023 180.024 144.242 180.041C144.462 180.058 144.683 180.028 144.889 179.952C145.095 179.876 145.28 179.757 145.432 179.602C145.572 179.471 145.744 179.376 145.931 179.328C146.119 179.28 146.317 179.28 146.505 179.327C146.714 179.386 146.908 179.488 147.074 179.626C147.285 179.76 147.48 179.909 147.699 180.027Z" fill="#E1E1F7"/>
    <path d="M161.202 205.764C161.072 205.544 160.917 205.355 160.779 205.159C160.661 204.978 160.503 204.826 160.316 204.713C160.128 204.6 159.917 204.529 159.698 204.505C159.479 204.482 159.257 204.507 159.049 204.578C158.841 204.648 158.652 204.764 158.496 204.915C158.36 205.051 158.19 205.152 158.002 205.207C157.814 205.262 157.615 205.27 157.424 205.229C157.212 205.183 157.014 205.089 156.847 204.954C156.646 204.81 156.437 204.676 156.221 204.553C156.351 204.765 156.498 204.954 156.636 205.159C156.759 205.335 156.922 205.482 157.111 205.589C157.301 205.696 157.513 205.761 157.732 205.778C157.951 205.795 158.172 205.765 158.377 205.689C158.582 205.613 158.767 205.494 158.919 205.34C159.059 205.208 159.232 205.113 159.422 205.065C159.611 205.016 159.81 205.016 159.999 205.064C160.21 205.117 160.405 205.217 160.568 205.355C160.779 205.497 161.007 205.638 161.202 205.764Z" fill="#E1E1F7"/>
    <path d="M155.369 232.501C155.239 232.288 155.084 232.1 154.946 231.895C154.797 231.668 154.582 231.487 154.329 231.376C154.059 231.264 153.763 231.231 153.474 231.28C153.186 231.329 152.918 231.458 152.704 231.651C152.568 231.789 152.399 231.891 152.211 231.947C152.023 232.004 151.824 232.013 151.631 231.974C151.419 231.925 151.221 231.828 151.055 231.691C150.851 231.557 150.656 231.415 150.429 231.289C150.559 231.51 150.705 231.698 150.843 231.895C151.002 232.121 151.225 232.299 151.485 232.406C151.76 232.509 152.06 232.532 152.348 232.474C152.636 232.415 152.901 232.277 153.11 232.076C153.25 231.947 153.422 231.853 153.61 231.805C153.797 231.757 153.994 231.756 154.182 231.801C154.392 231.86 154.586 231.962 154.751 232.1C154.946 232.233 155.141 232.383 155.369 232.501Z" fill="#E1E1F7"/>
    <path d="M129.248 203.114C129.126 202.901 128.972 202.712 128.834 202.508C128.682 202.283 128.468 202.103 128.216 201.989C127.942 201.869 127.637 201.831 127.34 201.88C127.044 201.929 126.769 202.063 126.551 202.264C126.415 202.402 126.246 202.504 126.058 202.56C125.87 202.617 125.671 202.626 125.479 202.587C125.268 202.537 125.071 202.443 124.902 202.311C124.699 202.177 124.504 202.028 124.276 201.902C124.406 202.122 124.552 202.311 124.69 202.516C124.848 202.742 125.071 202.917 125.332 203.019C125.607 203.124 125.907 203.148 126.196 203.089C126.485 203.031 126.749 202.891 126.957 202.689C127.099 202.559 127.273 202.466 127.461 202.418C127.65 202.37 127.848 202.368 128.038 202.413C128.247 202.472 128.441 202.574 128.606 202.712C128.834 202.846 129.029 202.996 129.248 203.114Z" fill="#E1E1F7"/>
    <path d="M111.277 213.764C111.155 213.552 111.001 213.363 110.862 213.158C110.709 212.935 110.495 212.755 110.245 212.639C109.976 212.528 109.679 212.494 109.39 212.543C109.102 212.592 108.834 212.721 108.62 212.915C108.484 213.052 108.314 213.153 108.127 213.21C107.939 213.266 107.74 213.275 107.548 213.237C107.336 213.189 107.139 213.095 106.971 212.962C106.76 212.828 106.565 212.679 106.345 212.553C106.467 212.773 106.622 212.962 106.76 213.166C106.915 213.394 107.139 213.57 107.401 213.67C107.676 213.774 107.976 213.799 108.265 213.74C108.554 213.681 108.818 213.542 109.026 213.339C109.168 213.21 109.342 213.117 109.53 213.069C109.719 213.021 109.917 213.019 110.107 213.064C110.316 213.123 110.51 213.225 110.676 213.363C110.862 213.497 111.057 213.646 111.277 213.764Z" fill="#E1E1F7"/>
    <path d="M141.508 221.85C141.386 221.638 141.232 221.449 141.094 221.245C140.944 221.017 140.73 220.837 140.476 220.725C140.202 220.605 139.897 220.568 139.6 220.617C139.303 220.666 139.028 220.799 138.811 221.001C138.675 221.138 138.505 221.24 138.318 221.297C138.13 221.353 137.931 221.362 137.738 221.323C137.526 221.274 137.328 221.177 137.161 221.04C136.958 220.906 136.763 220.765 136.536 220.639C136.666 220.859 136.812 221.048 136.95 221.245C137.107 221.473 137.331 221.651 137.592 221.756C137.867 221.86 138.167 221.885 138.456 221.826C138.744 221.767 139.009 221.628 139.217 221.425C139.359 221.296 139.532 221.203 139.721 221.155C139.91 221.107 140.108 221.105 140.298 221.15C140.507 221.209 140.701 221.311 140.866 221.449C141.094 221.583 141.289 221.732 141.508 221.85Z" fill="#E1E1F7"/>
    <path d="M102.51 232.501C102.381 232.288 102.234 232.1 102.096 231.895C101.944 231.669 101.731 231.49 101.479 231.376C101.204 231.256 100.899 231.218 100.602 231.267C100.306 231.316 100.031 231.45 99.8132 231.651C99.6771 231.788 99.5074 231.89 99.3199 231.946C99.1323 232.003 98.9331 232.012 98.7407 231.974C98.5291 231.926 98.3318 231.832 98.1639 231.698C97.9526 231.557 97.7577 231.415 97.5383 231.289C97.6602 231.51 97.8145 231.698 97.9527 231.903C98.1093 232.126 98.3294 232.301 98.5864 232.406C98.8611 232.51 99.161 232.534 99.4496 232.475C99.7381 232.416 100.003 232.278 100.211 232.076C100.352 231.947 100.524 231.854 100.711 231.806C100.899 231.758 101.095 231.756 101.284 231.801C101.497 231.858 101.694 231.96 101.861 232.1C102.104 232.233 102.299 232.383 102.51 232.501Z" fill="#E1E1F7"/>
    <path d="M98.115 203.719C97.9931 203.499 97.8387 203.31 97.7006 203.106C97.5468 202.882 97.3335 202.703 97.0832 202.587C96.8088 202.467 96.5037 202.429 96.207 202.478C95.9102 202.527 95.6354 202.661 95.4176 202.862C95.2816 202.999 95.1119 203.1 94.9244 203.157C94.7368 203.213 94.5376 203.223 94.3452 203.184C94.1337 203.137 93.9363 203.042 93.7684 202.909C93.5571 202.775 93.3622 202.626 93.1428 202.5C93.2647 202.72 93.419 202.909 93.5572 203.114C93.7127 203.341 93.9367 203.517 94.199 203.617C94.4736 203.721 94.7738 203.746 95.0625 203.687C95.3512 203.628 95.6159 203.489 95.8239 203.287C95.9647 203.158 96.1367 203.065 96.324 203.017C96.5113 202.969 96.708 202.967 96.8963 203.011C97.1091 203.068 97.3062 203.17 97.4731 203.31C97.7006 203.452 97.8956 203.601 98.115 203.719Z" fill="#E1E1F7"/>
    <path d="M169.334 225.539C169.204 225.319 169.058 225.13 168.92 224.926C168.766 224.702 168.553 224.523 168.303 224.407C168.028 224.287 167.723 224.249 167.426 224.298C167.13 224.347 166.855 224.481 166.637 224.682C166.501 224.819 166.331 224.921 166.144 224.977C165.956 225.033 165.757 225.043 165.565 225.004C165.353 224.957 165.156 224.863 164.988 224.729C164.777 224.595 164.582 224.446 164.362 224.32C164.484 224.54 164.639 224.729 164.777 224.934C164.931 225.159 165.152 225.334 165.41 225.437C165.685 225.541 165.985 225.564 166.274 225.506C166.562 225.447 166.827 225.308 167.035 225.107C167.176 224.977 167.348 224.885 167.536 224.838C167.723 224.791 167.92 224.792 168.108 224.839C168.321 224.89 168.519 224.99 168.685 225.13C168.92 225.264 169.131 225.413 169.334 225.539Z" fill="#E1E1F7"/>
    <path d="M171.569 180.633C171.447 180.42 171.292 180.231 171.154 180.027C171.001 179.801 170.788 179.619 170.537 179.5C170.262 179.381 169.956 179.344 169.659 179.395C169.363 179.445 169.088 179.581 168.871 179.783C168.736 179.921 168.566 180.022 168.378 180.077C168.19 180.132 167.99 180.139 167.799 180.098C167.585 180.057 167.386 179.962 167.222 179.822C167.011 179.689 166.816 179.539 166.596 179.421C166.723 179.63 166.861 179.832 167.011 180.027C167.167 180.253 167.387 180.43 167.644 180.538C167.919 180.642 168.219 180.666 168.508 180.607C168.796 180.548 169.061 180.41 169.269 180.208C169.409 180.077 169.581 179.983 169.769 179.935C169.956 179.887 170.154 179.886 170.342 179.933C170.555 179.989 170.752 180.092 170.919 180.231C171.146 180.365 171.341 180.515 171.569 180.633Z" fill="#E1E1F7"/>
    <path d="M145.058 120.718C145.359 122.189 152.216 131.872 159.106 131.785C161.348 131.746 161.705 119.884 161.705 119.884L161.941 119.019L165.191 106.842L150.624 97.112L148.511 95.822C148.511 95.822 147.853 99.2122 147.065 103.436C147.065 103.633 146.992 103.83 146.96 104.042C146.927 104.254 146.854 104.498 146.821 104.726C146.691 105.356 146.57 106.001 146.456 106.646C146.366 107.133 146.285 107.605 146.212 108.124C146.139 108.643 146.058 109.147 145.968 109.698C145.406 113.347 145.102 117.029 145.058 120.718V120.718Z" fill="#F6AD95"/>
    <path d="M147.065 103.436C148.229 106.923 150.162 110.122 152.731 112.813C155.3 115.504 158.443 117.621 161.941 119.019L165.191 106.842L150.624 97.112L148.511 95.822C148.511 95.822 147.853 99.2122 147.065 103.436Z" fill="#BD0090"/>
    <path d="M183.049 88.7584C183.65 110.83 170.05 113.67 165.175 113.788C160.715 113.898 145.505 113.725 142.548 91.8339C139.591 69.943 150.006 62.7299 160.195 61.9433C170.383 61.1568 182.448 66.6865 183.049 88.7584Z" fill="#F6AD95"/>
    <path d="M179.588 82.0802C179.051 81.9937 178.58 81.8363 178.06 81.7026C177.505 81.637 176.986 81.3998 176.581 81.0262C176.478 80.8843 176.426 80.7132 176.433 80.5396C176.44 80.366 176.507 80.1997 176.622 80.0665C176.893 79.838 177.221 79.6834 177.574 79.6184C177.926 79.5534 178.291 79.5805 178.629 79.6968C179.349 79.8285 179.992 80.2156 180.432 80.7823C180.525 80.9174 180.575 81.0754 180.577 81.2374C180.578 81.3993 180.532 81.5583 180.443 81.6954C180.354 81.8324 180.225 81.9416 180.074 82.0098C179.922 82.0781 179.753 82.1025 179.588 82.0802V82.0802Z" fill="#BD0090"/>
    <path d="M164.346 85.3052C164.87 85.2495 165.391 85.1654 165.906 85.0535C166.462 85.0389 166.999 84.8482 167.433 84.5108C167.55 84.3785 167.618 84.2126 167.626 84.039C167.635 83.8654 167.584 83.6938 167.482 83.5511C167.234 83.2998 166.92 83.117 166.575 83.0216C166.229 82.9262 165.864 82.9216 165.516 83.0084C164.786 83.081 164.111 83.4148 163.623 83.9444C163.516 84.0702 163.45 84.2233 163.432 84.3851C163.414 84.5468 163.446 84.7101 163.523 84.8547C163.6 84.9994 163.718 85.1191 163.865 85.1991C164.011 85.2792 164.178 85.3161 164.346 85.3052V85.3052Z" fill="#BD0090"/>
    <path d="M176.224 89.2618C176.224 89.2068 176.338 89.3405 176.338 89.4034C176.184 90.8979 176.265 92.6363 177.63 93.2262C177.678 93.2262 177.63 93.3206 177.63 93.3128C175.924 92.9667 175.834 90.6541 176.224 89.2618Z" fill="#BD0090"/>
    <path d="M177.719 87.783C180.221 87.783 180.083 92.6127 177.76 92.6363C175.436 92.6599 175.631 87.8066 177.719 87.783Z" fill="#BD0090"/>
    <path d="M178.751 88.137C179.141 88.4044 179.515 88.8764 179.994 88.9236C180.473 88.9707 180.961 88.4595 181.326 87.9639C181.326 87.9167 181.399 87.9639 181.399 88.019C181.399 88.9472 181.05 89.9068 180.132 90.0562C179.214 90.2057 178.694 89.3876 178.507 88.4831C178.45 88.2864 178.596 88.0268 178.751 88.137Z" fill="#BD0090"/>
    <path d="M166.028 102.107C166.41 102.445 166.8 102.893 167.369 102.949C167.936 102.912 168.489 102.762 168.993 102.508C169.005 102.503 169.017 102.501 169.029 102.504C169.041 102.506 169.052 102.512 169.061 102.521C169.069 102.53 169.074 102.541 169.075 102.553C169.076 102.565 169.073 102.577 169.067 102.587C168.855 102.891 168.561 103.134 168.218 103.289C167.874 103.444 167.494 103.506 167.117 103.468C166.796 103.402 166.503 103.243 166.276 103.013C166.05 102.783 165.901 102.491 165.849 102.178C165.882 102.091 165.971 102.06 166.028 102.107Z" fill="#BD0090"/>
    <path d="M173.795 96.0737C173.795 96.0737 173.974 98.3234 173.917 99.3774C171.789 99.2643 169.655 99.4444 167.58 99.9123C167.092 100.038 167.125 99.6527 167.677 99.3695C169.323 98.5393 171.188 98.2051 173.031 98.4099C173.129 98.1188 172.682 94.9489 172.852 94.9489C173.692 95.0683 174.512 95.2958 175.29 95.6253C175.046 90.9058 174.022 86.3121 173.852 81.6318C173.849 81.5975 173.86 81.5636 173.882 81.5363C173.903 81.509 173.934 81.4903 173.969 81.4835C174.004 81.4768 174.04 81.4825 174.071 81.4997C174.101 81.5168 174.125 81.5442 174.136 81.5768C175.566 86.3514 175.972 91.7474 176.354 96.5929C176.403 97.1907 174.217 96.2782 173.795 96.0737Z" fill="#BD0090"/>
    <path d="M162.949 89.3404C163.861 88.9941 164.859 88.9174 165.817 89.1202C166.33 89.2331 166.816 89.4415 167.247 89.7337C167.691 90.0549 168.055 90.469 168.311 90.9451L168.79 91.8025L167.807 91.7002C167.116 91.6293 166.419 91.6293 165.727 91.7002C165.006 91.7613 164.312 91.9995 163.712 92.3924C164.105 91.6976 164.765 91.1804 165.549 90.953C166.312 90.7086 167.12 90.6202 167.921 90.6934L167.417 91.48C166.997 90.7974 166.349 90.2732 165.581 89.9933C164.735 89.6707 163.851 89.4514 162.949 89.3404V89.3404Z" fill="#BD0090"/>
    <path d="M165.768 93.2498C166.503 93.0827 167.211 92.818 167.872 92.4632C168.026 92.3688 168.62 91.9362 168.587 91.8104C168.503 91.4446 168.372 91.0905 168.197 90.7563C168.47 91.0533 168.678 91.4013 168.806 91.7789C168.761 91.9868 168.669 92.1826 168.537 92.3525C168.405 92.5224 168.236 92.6622 168.043 92.7621C167.344 93.1214 166.558 93.2899 165.768 93.2498V93.2498Z" fill="#BD0090"/>
    <path d="M171.163 99.2201C171.163 99.2201 169.749 101.187 168.124 101.423C166.255 101.706 166.036 100.077 168.124 99.1493C169.18 98.6695 171.163 99.2201 171.163 99.2201Z" fill="#BD0090"/>
    <path d="M168.132 101.462C168.84 101.32 169.492 100.984 170.009 100.494C169.619 99.9359 168.725 99.3145 166.719 100.361C166.426 101.021 166.946 101.603 168.132 101.462Z" fill="#F6AD95"/>
    <path d="M142.686 92.361C146.44 92.8172 147.691 85.2108 147.691 85.2108C147.691 85.2108 155.344 85.5884 158.407 75.048C158.027 78.2324 156.694 81.2398 154.572 83.7006C154.572 83.7006 168.148 82.914 174.38 72.2714C174.38 72.2714 171.829 77.7382 169.602 79.6181C169.602 79.6181 175.347 78.3596 178.328 74.0333C178.328 74.0333 180.376 80.4598 182.106 82.2926C182.106 82.2926 182.699 59.3948 160.69 60.7949C160.69 60.7949 146.943 61.0309 141.492 71.3038C136.04 81.5768 142.686 92.361 142.686 92.361Z" fill="#BD0090"/>
    <path d="M146.196 93.4308C146.196 93.4308 141.655 86.2649 138.323 87.7909C134.992 89.3169 138.112 99.5111 141.809 101.092C142.269 101.328 142.773 101.47 143.291 101.512C143.809 101.554 144.331 101.494 144.824 101.335C145.318 101.176 145.773 100.922 146.162 100.588C146.552 100.255 146.867 99.8481 147.09 99.3931L146.196 93.4308Z" fill="#F6AD95"/>
    <path d="M139.29 90.6934C139.233 90.6934 139.217 90.7642 139.29 90.7878C141.882 91.9834 143.125 94.4455 143.954 96.9783C143.222 95.9793 142.183 95.4051 140.809 96.1917C140.736 96.231 140.809 96.3411 140.874 96.3333C141.349 96.2154 141.85 96.2437 142.307 96.4143C142.764 96.5849 143.155 96.8893 143.426 97.2851C143.88 97.9444 144.257 98.6516 144.547 99.3931C144.66 99.6291 145.091 99.5347 145.018 99.2673C145.023 99.2465 145.023 99.2251 145.018 99.2044C145.245 95.9557 142.906 91.2361 139.29 90.6934Z" fill="#BD0090"/>
    <path d="M143.945 99.9438C143.934 100.147 143.86 100.343 143.733 100.506C143.607 100.669 143.433 100.792 143.234 100.86C143.035 100.927 142.82 100.936 142.616 100.884C142.412 100.833 142.228 100.725 142.088 100.572C141.948 100.42 141.858 100.231 141.829 100.029C141.8 99.827 141.833 99.6211 141.925 99.4376C142.017 99.254 142.163 99.1009 142.345 98.9978C142.526 98.8947 142.736 98.8461 142.946 98.8583C143.086 98.8653 143.222 98.899 143.348 98.9575C143.474 99.016 143.587 99.0981 143.68 99.1991C143.773 99.3 143.844 99.4178 143.89 99.5457C143.935 99.6735 143.954 99.8088 143.945 99.9438V99.9438Z" fill="#E1E1F7"/>
    <path d="M141.394 98.2368C141.388 98.3676 141.341 98.4935 141.26 98.5986C141.18 98.7037 141.068 98.7831 140.941 98.8269C140.813 98.8707 140.675 98.8769 140.544 98.8446C140.413 98.8123 140.295 98.7431 140.205 98.6457C140.114 98.5482 140.056 98.427 140.037 98.2974C140.018 98.1677 140.039 98.0355 140.098 97.9176C140.156 97.7996 140.25 97.7012 140.367 97.6348C140.483 97.5684 140.617 97.537 140.752 97.5446C140.842 97.5487 140.929 97.5698 141.01 97.6069C141.091 97.644 141.163 97.6963 141.223 97.7607C141.283 97.8251 141.329 97.9004 141.358 97.9821C141.387 98.0639 141.4 98.1504 141.394 98.2368Z" fill="#E1E1F7"/>
    <path d="M215.326 141.165L227.125 143.82L218.638 179.187L206.839 176.533L215.326 141.165Z" fill="#EBEBEB"/>
    <path d="M244.088 47.2891C253.946 49.5097 262.903 54.51 269.826 61.6582C276.749 68.8063 281.328 77.7812 282.984 87.4485C284.64 97.1157 283.298 107.041 279.129 115.97C274.959 124.899 268.149 132.431 259.559 137.614C250.969 142.796 240.984 145.396 230.868 145.086C220.752 144.776 210.958 141.568 202.724 135.87C194.49 130.171 188.186 122.237 184.609 113.07C181.031 103.903 180.341 93.9155 182.626 84.3692C184.144 78.0258 186.939 72.0343 190.85 66.7371C194.761 61.4399 199.712 56.9409 205.42 53.4973C211.128 50.0536 217.481 47.7329 224.116 46.6676C230.751 45.6024 237.537 45.8136 244.088 47.2891V47.2891ZM223.354 133.712C231.143 135.466 239.294 134.944 246.777 132.213C254.26 129.481 260.737 124.662 265.391 118.366C270.044 112.069 272.664 104.578 272.92 96.8396C273.175 89.1011 271.055 81.4632 266.826 74.8918C262.598 68.3205 256.451 63.1109 249.164 59.922C241.877 56.7332 233.777 55.7084 225.888 56.9772C217.999 58.246 210.676 61.7514 204.846 67.0501C199.015 72.3487 194.938 79.2026 193.131 86.7447C190.709 96.853 192.533 107.479 198.2 116.286C203.867 125.093 212.915 131.361 223.354 133.712V133.712Z" fill="#ABA8FA"/>
    <path d="M211.3 166.524L219.213 168.304C221.954 168.921 223.659 171.571 223.022 174.224L212.901 216.403C212.264 219.056 209.526 220.707 206.786 220.091L198.872 218.311C196.132 217.694 194.426 215.044 195.063 212.391L205.185 170.212C205.822 167.559 208.559 165.908 211.3 166.524Z" fill="#BD0090"/>
    <g opacity="0.3">
        <path opacity="0.3" d="M193.131 86.729C191.325 94.2681 191.869 102.156 194.693 109.396C197.517 116.637 202.495 122.903 208.998 127.404C215.501 131.905 223.236 134.439 231.225 134.684C239.215 134.929 247.1 132.875 253.884 128.781C260.668 124.688 266.046 118.739 269.338 111.686C272.63 104.634 273.688 96.7945 272.379 89.1599C271.069 81.5252 267.451 74.4378 261.982 68.7939C256.512 63.15 249.437 59.203 241.651 57.4519C236.479 56.2878 231.121 56.1218 225.884 56.9634C220.646 57.8049 215.631 59.6375 211.125 62.3564C206.619 65.0753 202.71 68.6272 199.623 72.8092C196.536 76.9912 194.33 81.7212 193.131 86.729V86.729Z" fill="#E1E1F7"/>
        <path opacity="0.3" d="M192.14 97.757C192.736 108.059 197.509 117.717 205.42 124.631C213.331 131.545 223.741 135.156 234.387 134.68L192.14 97.757Z" fill="#EBEBEB"/>
        <path opacity="0.3" d="M210.737 62.6048L268.608 113.175C270.048 110.398 271.139 107.464 271.858 104.436C272.7 100.967 273.039 97.4005 272.865 93.8405L230.139 56.5008C223.239 56.8939 216.558 58.9957 210.737 62.6048V62.6048Z" fill="#EBEBEB"/>
        <path opacity="0.3" d="M194.244 82.9769L249.369 131.14C251.778 130.068 254.072 128.769 256.218 127.262L197.518 75.9762C196.184 78.1962 195.087 80.5419 194.244 82.9769V82.9769Z" fill="#EBEBEB"/>
        <path opacity="0.3" d="M206.292 65.7977L265.813 117.792C266.089 117.398 266.365 117.005 266.625 116.604L207.446 64.901C207.04 65.1841 206.658 65.4752 206.292 65.7977Z" fill="#EBEBEB"/>
        <path opacity="0.3" d="M243.616 57.9474L270.021 81.0104C269.574 79.917 269.07 78.8473 268.518 77.809L247.045 59.0408C245.932 58.6397 244.786 58.27 243.616 57.9474Z" fill="#EBEBEB"/>
    </g>
    <path d="M261.198 102.351C261.202 102.298 261.202 102.246 261.198 102.193C261.344 101.407 261.092 102.941 261.198 102.429C261.304 101.918 261.361 101.218 261.409 100.612C261.596 98.4766 261.596 96.3295 261.409 94.1937C261.409 93.887 261.352 93.5881 261.328 93.2892C261.328 93.1948 261.417 93.9971 261.328 93.36L261.255 92.8093C261.157 92.1014 261.036 91.3935 260.889 90.6934C260.581 89.1499 260.166 87.6284 259.646 86.139C259.524 85.7851 259.386 85.4311 259.256 85.0771C259.086 84.5973 259.484 85.6041 259.216 84.9749L258.948 84.3534C258.598 83.5669 258.216 82.7803 257.81 81.9937C257.404 81.2071 256.876 80.3654 256.364 79.5867C256.12 79.2249 255.877 78.8709 255.625 78.5169C255.194 77.9112 255.828 78.7608 255.495 78.336L255.015 77.7225C253.536 75.9218 251.882 74.2624 250.076 72.7669C250.076 72.7669 249.702 72.4759 249.978 72.6961C250.254 72.9164 249.832 72.5781 249.783 72.5388L248.971 71.9174C248.426 71.5241 247.874 71.1308 247.305 70.7847C246.114 70.0138 244.883 69.3023 243.617 68.653C243.277 68.4464 242.983 68.1772 242.752 67.8606C242.52 67.544 242.355 67.1863 242.266 66.808C242.177 66.4296 242.166 66.038 242.233 65.6554C242.3 65.2729 242.445 64.9069 242.658 64.5785C242.871 64.25 243.149 63.9654 243.476 63.741C243.803 63.5166 244.173 63.3567 244.564 63.2705C244.954 63.1843 245.359 63.1735 245.754 63.2386C246.149 63.3038 246.527 63.4437 246.866 63.6503C254.893 67.7956 261.491 74.3401 264.805 82.5915C267.05 88.1405 268.006 94.0993 267.608 100.046C267.527 101.367 267.353 102.681 267.088 103.979C266.857 104.728 266.329 105.357 265.619 105.73C264.91 106.103 264.077 106.189 263.302 105.969C262.54 105.726 261.903 105.211 261.521 104.528C261.139 103.845 261.041 103.046 261.247 102.296L261.198 102.351Z" fill="#E1E1F7"/>
    <path d="M258.501 110.72C258.333 111.269 258.336 111.853 258.511 112.4C258.686 112.947 259.025 113.431 259.484 113.791C259.943 114.152 260.502 114.373 261.091 114.426C261.679 114.478 262.271 114.361 262.791 114.089C263.311 113.816 263.735 113.401 264.011 112.894C264.287 112.388 264.402 111.814 264.341 111.245C264.28 110.676 264.046 110.137 263.669 109.696C263.292 109.255 262.788 108.933 262.222 108.769C261.845 108.659 261.45 108.623 261.059 108.662C260.667 108.7 260.288 108.814 259.942 108.995C259.596 109.176 259.291 109.422 259.043 109.718C258.796 110.014 258.612 110.355 258.501 110.72Z" fill="#E1E1F7"/>
    <path d="M129.216 135.521C121.904 161.117 118.394 186.815 122.44 200.069C125.023 208.517 131.255 214.228 135.22 216.116C144.49 220.552 175.241 214.26 195.276 210.358C200.199 209.398 188.59 170.989 183.642 173.026C176.33 176.023 153.947 180.066 153.329 180.263C152.005 180.703 149.267 152.929 147.333 136.646C144.66 113.961 133.432 120.741 129.216 135.521Z" fill="#F6AD95"/>
    <path d="M233.778 165.711C235.956 169.148 233.128 172.295 233.128 172.295C234.984 173.193 236.456 174.694 237.288 176.534C238.596 179.838 233.819 183.276 233.819 183.276C235.543 184.595 236.815 186.388 237.467 188.42C238.393 191.708 234.079 195.838 234.079 195.838C234.97 197.897 235.065 200.198 234.347 202.319C232.194 207.912 222.973 209.745 217.123 210.972C211.273 212.199 193.497 210.342 190.068 210.327L181.66 174.041C181.66 174.041 206.285 161.337 213.345 160.85C219.349 160.456 231.333 161.857 233.778 165.711Z" fill="#F6AD95"/>
    <path d="M232.738 171.768C226.238 170.737 219.852 171.603 213.393 172.114C213.363 172.114 213.334 172.125 213.313 172.146C213.292 172.167 213.28 172.195 213.28 172.224C213.28 172.253 213.292 172.281 213.313 172.302C213.334 172.322 213.363 172.334 213.393 172.334C219.82 171.752 226.279 172.405 232.705 172.074C232.743 172.071 232.778 172.055 232.804 172.029C232.831 172.004 232.847 171.97 232.851 171.934C232.855 171.898 232.846 171.862 232.825 171.831C232.805 171.801 232.774 171.779 232.738 171.768V171.768Z" fill="#BD0090"/>
    <path d="M233.583 182.827C232.093 182.727 230.596 182.819 229.131 183.103C227.566 183.302 226.003 183.527 224.443 183.779C221.318 184.303 218.209 184.883 215.116 185.517C214.978 185.517 214.986 185.753 215.116 185.73C218.236 185.234 221.356 184.786 224.484 184.416C226.052 184.227 227.62 184.062 229.196 183.897C230.687 183.838 232.167 183.619 233.608 183.244C233.652 183.227 233.689 183.197 233.715 183.158C233.74 183.119 233.753 183.073 233.75 183.027C233.747 182.981 233.73 182.937 233.7 182.901C233.67 182.865 233.629 182.839 233.583 182.827V182.827Z" fill="#BD0090"/>
    <path d="M233.949 195.853C232.681 195.641 231.203 196.081 229.952 196.309C228.53 196.569 227.116 196.813 225.694 197.057C222.851 197.544 220.007 198.024 217.147 198.418C217.009 198.418 217.026 198.654 217.147 198.63C220.056 198.252 222.964 197.906 225.865 197.505C227.287 197.308 228.717 197.096 230.138 196.884C231.349 196.703 232.876 196.608 233.957 195.995C233.97 195.988 233.981 195.977 233.989 195.964C233.996 195.951 234 195.936 233.999 195.922C233.998 195.907 233.993 195.893 233.984 195.88C233.975 195.868 233.963 195.859 233.949 195.853V195.853Z" fill="#BD0090"/>
    <path d="M225.751 161.951C228.701 162.321 232.08 162.95 233.99 165.381C234.872 166.412 235.307 167.734 235.2 169.07C235.032 170.316 234.382 171.455 233.38 172.255V172.255C234.559 172.623 235.607 173.305 236.403 174.224C237.199 175.142 237.712 176.259 237.881 177.447C237.931 178.042 237.853 178.64 237.653 179.204C237.453 179.768 237.136 180.287 236.72 180.727C236.313 181.191 235.85 181.6 235.403 182.025C234.957 182.45 234.461 182.811 233.998 183.181C234.499 183.56 234.969 183.975 235.403 184.424C235.891 184.878 236.329 185.378 236.711 185.919C237.502 186.989 237.949 188.261 237.995 189.576C237.928 190.883 237.458 192.14 236.646 193.187C235.987 194.268 235.056 195.172 233.941 195.814C233.927 195.82 233.911 195.822 233.896 195.818C233.881 195.814 233.868 195.805 233.859 195.793C233.85 195.781 233.846 195.766 233.848 195.751C233.85 195.736 233.857 195.722 233.868 195.712C234.745 194.937 235.488 194.031 236.07 193.029C236.772 191.961 237.157 190.725 237.183 189.458C237.075 188.257 236.656 187.102 235.964 186.099C235.62 185.556 235.246 185.031 234.843 184.526C234.442 184.114 234.067 183.678 233.722 183.221C233.722 183.221 234.688 182.229 235.03 181.805C235.371 181.38 235.704 180.924 236.013 180.46C236.667 179.579 236.957 178.493 236.825 177.415C236.634 176.41 236.162 175.474 235.46 174.71C234.778 173.923 233.892 173.302 233.177 172.531C233.152 172.49 233.135 172.444 233.128 172.397C233.121 172.35 233.124 172.302 233.137 172.255C234.762 169.801 234.558 167.473 232.82 165.656C231.934 164.775 230.898 164.048 229.757 163.508C228.444 162.931 227.085 162.454 225.695 162.085C225.638 162.077 225.662 161.943 225.751 161.951Z" fill="#BD0090"/>
    <path d="M171.886 214.802C173.616 214.283 175.444 214.016 177.215 213.638C178.986 213.261 180.774 212.907 182.561 212.561C184.349 212.214 186.209 211.868 188.029 211.538C189.849 211.208 191.547 210.838 193.318 210.633C195.028 210.473 196.752 210.51 198.453 210.743C200.17 210.932 201.892 211.066 203.62 211.145C207.101 211.307 210.589 211.234 214.06 210.924C217.986 210.571 221.875 209.9 225.686 208.919C225.767 208.919 225.792 209.013 225.686 209.037C219.079 211.172 212.153 212.235 205.188 212.183C203.465 212.183 201.735 212.081 200.021 211.916C198.308 211.68 196.583 211.538 194.853 211.491C193.025 211.608 191.21 211.871 189.426 212.277C187.631 212.6 185.843 212.93 184.048 213.237C182.017 213.583 179.986 213.937 177.946 214.244C175.907 214.551 173.884 214.991 171.886 215.133C171.739 215.101 171.731 214.842 171.886 214.802Z" fill="#BD0090"/>
    <path d="M146.651 181.852C149.251 180.994 151.997 180.46 154.67 179.838C157.343 179.217 160.048 178.619 162.737 178.029C167.872 176.904 173.072 175.952 178.174 174.576C179.514 174.214 180.839 173.789 182.147 173.364C182.805 173.136 183.447 172.885 184.089 172.578C184.73 172.271 185.47 172.082 186.103 171.791C186.177 171.744 186.233 171.854 186.16 171.901C185.648 172.208 185.177 172.578 184.649 172.877C184.121 173.176 183.479 173.475 182.878 173.742C181.779 174.228 180.653 174.656 179.506 175.024C177.118 175.811 174.632 176.354 172.194 176.904C166.832 178.092 161.462 179.264 156.083 180.389C154.572 180.703 153.053 181.018 151.534 181.309C150.014 181.6 148.357 181.962 146.748 182.135C146.71 182.145 146.67 182.141 146.635 182.123C146.6 182.105 146.573 182.075 146.561 182.038C146.548 182.002 146.551 181.962 146.567 181.928C146.584 181.893 146.614 181.866 146.651 181.852Z" fill="#BD0090"/>
    <path d="M155.108 172.334L117.947 177.227C117.947 177.227 124.739 139.824 131.961 127.435C139.087 115.212 146.951 123.29 149.949 138.078C153.313 154.47 155.108 172.334 155.108 172.334Z" fill="#E000AB"/>
    <path d="M120.733 171.807C121.773 171.571 122.838 171.422 123.878 171.201C124.918 170.981 125.917 170.832 126.941 170.674C129.029 170.36 131.125 170.077 133.221 169.801C137.348 169.251 141.467 168.645 145.611 168.228C147.967 167.976 150.315 167.638 152.671 167.441C152.688 167.441 152.705 167.448 152.717 167.46C152.729 167.472 152.736 167.488 152.736 167.504C152.736 167.521 152.729 167.537 152.717 167.549C152.705 167.561 152.688 167.567 152.671 167.567C148.568 168.496 144.384 169.188 140.224 169.841C136.064 170.493 131.97 171.107 127.826 171.547C126.664 171.665 125.502 171.815 124.333 171.87C123.163 171.925 121.936 172.027 120.742 172.051C120.708 172.052 120.676 172.04 120.651 172.018C120.627 171.996 120.613 171.965 120.612 171.933C120.61 171.901 120.623 171.869 120.646 171.846C120.668 171.822 120.7 171.808 120.733 171.807V171.807Z" fill="#BD0090"/>
</svg>