<svg xmlns="http://www.w3.org/2000/svg" width="540" height="368" fill="none" viewBox="0 0 540 368">
    <path fill="#5F5AF6" d="M415.998 287.996h-114.52a10.609 10.609 0 01-7.707-3.26 10.622 10.622 0 01-2.953-7.83l8.41-217.4a11.654 11.654 0 0111.51-11.09h114.52a10.623 10.623 0 019.987 6.872c.508 1.346.737 2.781.673 4.218l-8.41 217.4a11.652 11.652 0 01-11.51 11.09zM435.842 132.851l-.699 17.966 1.099.043.699-17.966-1.099-.043zM436.414 118.864l-.29 7.424 1.099.043.29-7.424-1.099-.043z"/>
    <path fill="#fff" d="M415.998 287.996h-114.52a10.609 10.609 0 01-7.707-3.26 10.622 10.622 0 01-2.953-7.83l8.41-217.4a11.654 11.654 0 0111.51-11.09h114.52a10.623 10.623 0 019.987 6.872c.508 1.346.737 2.781.673 4.218l-8.41 217.4a11.652 11.652 0 01-11.51 11.09z" opacity=".8"/>
    <path fill="#5F5AF6" d="M405.038 283.586h-101a9.313 9.313 0 01-6.755-2.859 9.302 9.302 0 01-2.595-6.861l7.87-203.6a10.22 10.22 0 0110.1-9.72h101a9.306 9.306 0 018.759 6.022 9.31 9.31 0 01.591 3.698l-7.87 203.6a10.23 10.23 0 01-10.1 9.72z"/>
    <path fill="#fff" d="M359.718 272.057c2.673-2.622 2.796-6.832.274-9.402-2.522-2.571-6.733-2.529-9.406.093-2.673 2.622-2.796 6.832-.274 9.402 2.522 2.571 6.733 2.529 9.406-.093z" opacity=".8"/>
    <path fill="#fff" d="M356.948 221.086a39.264 39.264 0 01-28.583-12.061 39.27 39.27 0 01-10.917-29.039l1.35-35.05h-.07a7.409 7.409 0 01-1.18-.1l-1.36 35.15a40.486 40.486 0 0024.705 39.165 40.478 40.478 0 0016.005 3.185 43.93 43.93 0 0031-13 5.467 5.467 0 01-.78-1 42.616 42.616 0 01-30.17 12.75zM361.788 95.776c-21.43 0-39.8 16-43.38 36.69.266-.015.534-.015.8 0h.47c3.54-20 21.33-35.42 42.06-35.42a39.29 39.29 0 0128.59 12.057 39.278 39.278 0 0110.92 29.043l-1.62 41.86a42.059 42.059 0 01-5.21 18.65 4.68 4.68 0 011.13.5 43.227 43.227 0 005.33-19.15l1.62-41.86a40.485 40.485 0 00-11.246-29.937 40.487 40.487 0 00-29.464-12.433z"/>
    <path fill="#fff" d="M361.458 104.336a34.904 34.904 0 0119 5.57c.179-.387.397-.756.65-1.1a36.102 36.102 0 00-19.64-5.72 38.466 38.466 0 00-22 7c.221.354.405.729.55 1.12a37.177 37.177 0 0121.44-6.87zM322.758 184.006a35.447 35.447 0 01-.34-6.47l1.43-37a37.282 37.282 0 017.58-21.05 5.152 5.152 0 01-1-.66 38.47 38.47 0 00-7.8 21.71l-1.43 37a37.032 37.032 0 00.36 6.77 6.349 6.349 0 011.2-.3zM390.128 117.106a5.957 5.957 0 01-1 .82 34.78 34.78 0 017.12 22.65l-1.43 37a38.002 38.002 0 01-37.61 36.21 34.832 34.832 0 01-21.33-7.17 5.774 5.774 0 01-1.16.7 35.995 35.995 0 0022.44 7.72 39.31 39.31 0 0038.91-37.46l1.43-37a36.006 36.006 0 00-7.37-23.47z"/>
    <path fill="#fff" d="M328.168 155.246l.47-12.22a32.87 32.87 0 0132.53-31.32 29.893 29.893 0 0129.66 24.72c.409-.073.824-.11 1.24-.11a31.097 31.097 0 00-30.88-25.86 34.167 34.167 0 00-33.83 32.57l-.45 12.31c.289-.036.579-.056.87-.06l.39-.03zM370.548 203.596a31.795 31.795 0 01-13 2.81 29.945 29.945 0 01-21.838-9.16 29.942 29.942 0 01-8.352-22.16l.29-7.36h-.39a5.891 5.891 0 01-.86-.06l-.29 7.4a31.123 31.123 0 008.655 23.015 31.132 31.132 0 0022.655 9.555 33.17 33.17 0 0013.75-3 5.284 5.284 0 01-.62-1.04zM391.588 148.836h-.53l-1 26.28a32.482 32.482 0 01-9.2 21.29c.25.342.462.711.63 1.1a33.749 33.749 0 009.82-22.39l1-26.29c-.23-.01-.47.01-.72.01z"/>
    <path fill="#fff" d="M372.098 120.186a26.99 26.99 0 00-11.16-2.39 29.052 29.052 0 00-28.76 27.68l-1.05 27.15a27.998 27.998 0 00.24 4.79 6.814 6.814 0 011.19-.87 25.423 25.423 0 01-.18-3.92l1.05-27.15a27.74 27.74 0 0127.46-26.43c3.639.005 7.236.786 10.55 2.29.183-.404.404-.789.66-1.15zM381.718 127.656c-.243.36-.521.695-.83 1a25.375 25.375 0 015.41 16.82l-1.05 27.15a27.736 27.736 0 01-26.29 26.38c-.131.448-.308.88-.53 1.29a29 29 0 0028.07-27.67l1.05-27.15a26.57 26.57 0 00-5.83-17.82z"/>
    <path fill="#fff" d="M355.648 126.966c.02-.438.08-.873.18-1.3a23.749 23.749 0 00-8.86 3.95 4.67 4.67 0 011.06.74 22.264 22.264 0 017.62-3.39zM379.478 175.766a22.63 22.63 0 01-21.4 16 20.595 20.595 0 01-19.435-13.374 20.582 20.582 0 01-1.285-8.216l.86-22.25c.107-2.63.69-5.218 1.72-7.64a5.095 5.095 0 01-.94-1 23.296 23.296 0 00-2 8.61l-.86 22.25a21.797 21.797 0 0013.303 21.086 21.792 21.792 0 008.617 1.714 23.996 23.996 0 0022.67-16.95 6.895 6.895 0 01-1.25-.23zM381.358 147.926l-.18 4.62c.33-.059.665-.093 1-.1h.27l.17-4.55a21.763 21.763 0 00-14.89-21.56c.04.446.04.894 0 1.34a20.55 20.55 0 0113.63 20.25z"/>
    <path fill="#fff" d="M360.358 132.466a18.8 18.8 0 00-18.6 17.92l-.19 4.94c.418.028.833.092 1.24.19l.2-5.13a17.477 17.477 0 0117.35-16.66 15.923 15.923 0 0114.997 10.323 15.925 15.925 0 011.003 6.337l-.67 17.34a17.522 17.522 0 01-14.08 16.34c.045.419.045.842 0 1.26a18.833 18.833 0 0015.34-17.6l.67-17.34a17.13 17.13 0 00-17.26-17.92z"/>
    <path fill="#fff" d="M348.678 147.167c.26-.016.52-.016.78 0a12.325 12.325 0 0110.58-6.14c1.308 0 2.607.223 3.84.66.14-.4.317-.785.53-1.15a12.609 12.609 0 00-4.32-.77 13.66 13.66 0 00-12 7.39c.197-.007.394-.004.59.01zM370.878 165.276a12.144 12.144 0 01-.94 4.16c.389.144.756.343 1.09.59a13.359 13.359 0 001.1-4.75l.48-12.44a13.002 13.002 0 00-.35-3.45 5.46 5.46 0 01-1.19.46c.23.982.327 1.991.29 3l-.48 12.43zM361.358 176.716c-.897.217-1.817.327-2.74.33a11.25 11.25 0 01-11.26-11.77l.22-5.63a6.451 6.451 0 01-1.24-.23l-.23 5.86a12.452 12.452 0 0012.52 13 13.303 13.303 0 003.11-.38 7.057 7.057 0 01-.38-1.18z"/>
    <path fill="#fff" d="M359.798 147.146a8.55 8.55 0 00-8.44 8.19l-.29 7.54a7.62 7.62 0 00.21 2.09c.318-.384.688-.72 1.1-1a6.503 6.503 0 01-.06-1.08l.29-7.54a7.229 7.229 0 017.16-6.88 6.567 6.567 0 014.765 2.025 6.579 6.579 0 011.825 4.845l-.29 7.54a7.236 7.236 0 01-4.28 6.26 7.44 7.44 0 01-.2 1.4 8.535 8.535 0 005.73-7.66l.3-7.54a7.772 7.772 0 00-4.732-7.573 7.784 7.784 0 00-3.088-.617z"/>
    <path fill="#5F5AF6" d="M380.828 57.236h-35.1a1.945 1.945 0 01-1.393-.589 1.942 1.942 0 01-.547-1.41 2.118 2.118 0 012.1-2h35.09a1.942 1.942 0 011.95 2 2.133 2.133 0 01-2.1 2z"/>
    <g>
      <path fill="#000" d="M325.928 92.336c-2.076.163-4.159.21-6.24.14a7.579 7.579 0 00-2.24-.14h-.23a83.57 83.57 0 01-17.33-3.13c-.58-.17-1.18-.37-1.79-.58l-4.86 125.87 32.48-21.67a11.112 11.112 0 005-8.78l3.26-84.15a7.286 7.286 0 00-2.289-5.628 7.286 7.286 0 00-5.761-1.932z" opacity=".2"/>
      <path fill="#5F5AF6" d="M318.098 82.946a55.751 55.751 0 01-6.23.15 7.929 7.929 0 00-2.24-.15h-.24a82.941 82.941 0 01-17.32-3.13 51.734 51.734 0 01-19.13-10.84 7.149 7.149 0 00-5-2h-8.48a7.749 7.749 0 00-5.14 2 56.705 56.705 0 01-20 10.84 86.252 86.252 0 01-17.56 3.13h-.24a8 8 0 00-2.25.15 55.525 55.525 0 01-6.22-.15 8.004 8.004 0 00-7.817 4.504 7.997 7.997 0 00-.783 3.076l-3.26 84.16a10.206 10.206 0 004.29 8.77l47.15 33.16a10.262 10.262 0 005.93 1.86h8.47a10.998 10.998 0 006.08-1.86l49.71-33.16a11.156 11.156 0 005-8.77l3.25-84.16a7.304 7.304 0 00-2.266-5.598 7.312 7.312 0 00-5.704-1.982z"/>
      <path fill="#fff" d="M318.098 82.946a55.751 55.751 0 01-6.23.15 7.929 7.929 0 00-2.24-.15h-.24a82.941 82.941 0 01-17.32-3.13 51.734 51.734 0 01-19.13-10.84 7.149 7.149 0 00-5-2h-8.48a7.749 7.749 0 00-5.14 2 56.705 56.705 0 01-20 10.84 86.252 86.252 0 01-17.56 3.13h-.24a8 8 0 00-2.25.15 55.525 55.525 0 01-6.22-.15 8.004 8.004 0 00-7.817 4.504 7.997 7.997 0 00-.783 3.076l-3.26 84.16a10.206 10.206 0 004.29 8.77l47.15 33.16a10.262 10.262 0 005.93 1.86h8.47a10.998 10.998 0 006.08-1.86l49.71-33.16a11.156 11.156 0 005-8.77l3.25-84.16a7.304 7.304 0 00-2.266-5.598 7.312 7.312 0 00-5.704-1.982z" opacity=".8"/>
      <path fill="#5F5AF6" d="M201.698 174.526l3.11-80.47a5.78 5.78 0 015.72-5.51h1.83a86.996 86.996 0 0023.37-3.5 63.248 63.248 0 0020-10.23 5.54 5.54 0 017 0 57.568 57.568 0 0019.22 10.24 84.193 84.193 0 0023.11 3.5h1.69a5.354 5.354 0 013.904 1.643 5.349 5.349 0 011.486 3.967l-3.11 80.37a5.77 5.77 0 01-2.57 4.54l-49.4 33a5.52 5.52 0 01-6.22 0l-46.86-33a5.274 5.274 0 01-2.28-4.55z"/>
      <path fill="#fff" d="M215.428 170.276l2.64-68.41c7.07-.56 14.065-1.829 20.88-3.79a78.169 78.169 0 0019.69-9.06 71.72 71.72 0 0019 9.06 101.564 101.564 0 0020.59 3.79l-2.65 68.41-41.14 27.44-39.01-27.44z" opacity=".2"/>
      <path fill="#fff" d="M229.258 163.126l1.91-49.41c3.66-.69 7.35-1.56 11-2.61a88.502 88.502 0 0015.83-6.38 82.227 82.227 0 0015.36 6.38 121.443 121.443 0 0010.83 2.61l-1.91 49.41-27.2 18.21-25.82-18.21z" opacity=".2"/>
    </g>
    <g>
      <path fill="#FF8B7B" d="M138.498 85.976c-1.87 3.88-3.76 7.86-5.58 11.78-.907 2-1.78 3.96-2.62 5.88a57.234 57.234 0 00-2.06 5.62 23 23 0 00-.56 5.56v6.45l.33 13.18-4.62.68a134.57 134.57 0 01-2.81-13.21c-.34-2.24-.68-4.49-.86-6.82-.1-1.16-.18-2.34-.2-3.58v-2c0-.34.05-.7.11-1.1.06-.4.12-.68.18-1a50.072 50.072 0 012-7c.77-2.18 1.61-4.31 2.48-6.4 1.75-4.19 3.63-8.23 5.73-12.28l8.48 4.24z"/>
      <path fill="#FF8B7B" d="M131.358 136.266l-3.84-4.42-4.34.22c-2 4.75 2.35 7.78 2.35 7.78l.77 2.6a1.86 1.86 0 001.843 1.306c.271-.011.536-.082.777-.206l2.44-1.21a2 2 0 001.12-1.82v-1.49a4.397 4.397 0 00-1.12-2.76z"/>
      <path fill="#5F5AF6" d="M119.138 333.806a10.122 10.122 0 01-2.07-1.24.217.217 0 01-.074-.098.212.212 0 01-.006-.122.228.228 0 01.18-.17c.37-.07 3.64-.67 4.42.19a.737.737 0 01.14.73 1.268 1.268 0 01-.8.94 2.552 2.552 0 01-1.79-.23zm-1.38-1.29c1.32.91 2.44 1.33 3 1.11a.84.84 0 00.51-.64.278.278 0 000-.32c-.42-.46-2.2-.33-3.51-.15z"/>
      <path fill="#5F5AF6" d="M117.108 332.596l-.09-.07a.235.235 0 010-.22c0-.1 1.14-2.56 2.41-3a1.076 1.076 0 011 .09.74.74 0 01.42.84c-.24 1.05-2.57 2.25-3.57 2.37a.194.194 0 01-.086.013.192.192 0 01-.084-.023zm3-2.87a.718.718 0 00-.52 0c-.76.26-1.55 1.56-2 2.36 1.08-.31 2.64-1.3 2.78-1.93 0-.11 0-.24-.22-.38l-.04-.05z"/>
      <path fill="#FF8B7B" d="M153.658 49.956c.83 5.48 2.7 17.43-1.29 21 0 0 1.24 5.57 11.39 5.77 11.17.22 5.59-5.44 5.59-5.44-6-1.57-5.67-6.08-4.41-10.3l-11.28-11.03z"/>
      <path fill="#455A64" d="M176.518 40.876l-.18-.09a.44.44 0 010-.61 4.432 4.432 0 013.65-1.69.427.427 0 01.367.312c.016.054.02.112.013.168a.452.452 0 01-.49.39 3.558 3.558 0 00-2.87 1.37.468.468 0 01-.49.15z"/>
      <path fill="#FF5652" d="M178.598 46.266a19.31 19.31 0 002 5 3.171 3.171 0 01-2.68.24l.68-5.24z"/>
      <path fill="#455A64" d="M178.088 44.926c-.09.74.23 1.38.71 1.43.48.05.94-.52 1-1.26.06-.74-.23-1.38-.71-1.43-.48-.05-.91.52-1 1.26z"/>
      <path fill="#455A64" d="M178.908 43.686l1.83-.34s-1.08 1.3-1.83.34z"/>
      <path fill="#FF8B7B" d="M186.998 337.466l9.74-3.08-.95-19.84-9.75 3.07.96 19.85zM107.048 330.376l8.77 2.48 7.35-20.31-8.78-2.48-7.34 20.31z"/>
      <path fill="#455A64" d="M116.938 331.106l-9.4-4a.74.74 0 00-.92.3l-4.41 7.15a1.448 1.448 0 00-.138 1.196 1.457 1.457 0 00.808.894c3.31 1.32 5 1.79 9.1 3.54 2.54 1.07 4.53 4.33 10.12 4.33 3.78 0 4.5-3.42 3-3.92-7-2.24-5.57-5.57-7-8.4a2.298 2.298 0 00-1.16-1.09z"/>
      <path fill="#5F5AF6" d="M200.218 335.756a11.64 11.64 0 01-2.45-.33.241.241 0 01-.17-.18.215.215 0 01.013-.123.216.216 0 01.077-.097c.31-.2 3-2 4.13-1.52a.782.782 0 01.46.61 1.218 1.218 0 01-.33 1.16 2.551 2.551 0 01-1.73.48zm-1.84-.64c1.61.32 2.82.26 3.27-.16a.813.813 0 00.2-.78.35.35 0 00-.19-.28c-.58-.26-2.16.53-3.3 1.22h.02z"/>
      <path fill="#5F5AF6" d="M197.818 335.426h-.11a.199.199 0 01-.11-.18c0-.12-.08-2.77.89-3.65a1.075 1.075 0 01.92-.29.805.805 0 01.75.6c.24 1-1.37 3-2.23 3.53a.197.197 0 01-.11-.01zm1.45-3.73a.733.733 0 00-.48.19c-.58.53-.73 2-.76 2.9.86-.7 1.85-2.19 1.7-2.82 0-.1-.08-.23-.36-.26l-.1-.01z"/>
      <path fill="#455A64" d="M197.008 334.146h-10.34a.697.697 0 00-.72.63l-.91 8.18a1.545 1.545 0 00.411 1.15 1.525 1.525 0 001.119.49c3.61-.06 5.34-.27 9.89-.27 2.8 0 6.89.29 10.76.29s3.94-3.82 2.32-4.17c-7.26-1.55-8.47-3.69-11-5.73a2.482 2.482 0 00-1.53-.57z"/>
      <path fill="#000" d="M195.778 314.546l.52 10.63-9.77 2.68-.49-10.23 9.74-3.08zM114.388 310.076l8.77 2.48-3.78 10.46-8.78-2.48 3.79-10.46z" opacity=".2"/>
      <path fill="#5F5AF6" d="M134.358 72.116c-3.84.9-8.06 14.73-8.06 14.73l10.71 11.33s9.1-13.07 7.31-17.79c-1.89-4.92-5.47-9.33-9.96-8.27z"/>
      <path fill="#000" d="M134.358 72.116c-3.84.9-8.06 14.73-8.06 14.73l10.71 11.33s9.1-13.07 7.31-17.79c-1.89-4.92-5.47-9.33-9.96-8.27z" opacity=".2"/>
      <path fill="#000" d="M140.288 80.786c2-1.8 3.26-1.3 4.14.1.84 4.07-4.85 13.29-7 16.57-.91-3.85-1.55-12.58 2.86-16.67z" opacity=".4"/>
      <path fill="#5F5AF6" d="M183.358 75.336c.53 4 .2 16.29-7.56 53.47l-37.39-.73c1.31-15.19 1.75-24.57-4.11-55.92a112.322 112.322 0 0116-1.77 119.386 119.386 0 0117 .33c5.41.6 11.34 1.78 14 2.35a2.65 2.65 0 012.06 2.27z"/>
      <path fill="#000" d="M183.358 75.336c.53 4 .2 16.29-7.56 53.47l-37.39-.73c1.31-15.19 1.75-24.57-4.11-55.92a112.322 112.322 0 0116-1.77 119.386 119.386 0 0117 .33c5.41.6 11.34 1.78 14 2.35a2.65 2.65 0 012.06 2.27z" opacity=".2"/>
      <path fill="#FF8B7B" d="M153.648 40.036c-.54 9.15-1 13 3.05 18.12 6 7.68 17.32 6 20.57-2.83 2.92-8 3.31-21.62-5.11-26.08-8.42-4.46-17.98 1.64-18.51 10.79z"/>
      <path fill="#455A64" d="M165.948 128.576s-5.43 66.76-12.59 102.19c-5.78 28.65-32 90.56-32 90.56l-11.41-4.82s13.21-70.12 22.14-87.17c10-58.81-6.19-78.86 6.34-101.26l27.52.5z"/>
      <path fill="#000" d="M155.778 165.086c-4.09 17.39-1.44 33.18 1.33 43.6 1.64-11.17 3.12-23.2 4.38-34.47-1.73-3.24-3.9-6.3-5.71-9.13z" opacity=".4"/>
      <path fill="#455A64" d="M175.818 128.766s14.2 65.19 16 93.06c1.9 29 5.71 97.7 5.71 97.7l-12.52 3.36s-14.08-70.81-13-92.12c-7-30.24-31.41-102.65-31.41-102.65l35.22.65z"/>
      <path fill="#5F5AF6" d="M199.418 322.706l-16.26 2.74-1.56-5.8 17.41-2.96.41 6.02zM123.408 321.896l-15.23-4.31.85-5.65 16.28 4.01-1.9 5.95z"/>
      <path fill="#fff" d="M137.968 125.836l-1.84 3.31c-.14.25.16.52.59.53l39.21.77c.34 0 .63-.15.66-.36l.49-3.34c0-.23-.25-.43-.62-.44l-37.87-.74a.677.677 0 00-.62.27z"/>
      <path fill="#455A64" d="M142.858 130.166h-1c-.2 0-.35-.12-.33-.24l.67-4.34c0-.12.2-.22.4-.22h1c.2 0 .35.11.33.24l-.67 4.33c-.01.13-.19.23-.4.23zM167.448 130.646h-1c-.2 0-.35-.11-.33-.24l.67-4.33c0-.13.2-.23.41-.23h1c.2 0 .35.11.33.24l-.67 4.33c-.03.13-.21.23-.41.23z"/>
      <path fill="#FF8B7B" d="M185.428 80.046c1.83 3.89 3.87 7.93 6 11.76a86.266 86.266 0 006.89 10.89c.32.41.64.83.9 1.13.26.3.59.66.93 1 .7.682 1.441 1.32 2.22 1.91a47.123 47.123 0 005.27 3.45 114.174 114.174 0 0011.85 5.81l-1.22 4.5a66.583 66.583 0 01-13.75-3.87 45.622 45.622 0 01-6.66-3.29 29.763 29.763 0 01-3.21-2.25c-.53-.42-1-.89-1.55-1.38-.55-.49-1-1-1.36-1.44-.86-.93-1.62-1.88-2.4-2.83-.78-.95-1.48-1.94-2.16-2.93-1.4-2-2.66-4-3.88-6a110.267 110.267 0 01-6.49-12.62l8.62-3.84z"/>
      <path fill="#5F5AF6" d="M180.738 72.886c8.76 1.91 10.88 15.68 10.88 15.68l-8.63 10.06s-13.71-13-13-20.07c.47-5.22 5.97-6.71 10.75-5.67z"/>
      <path fill="#000" d="M180.738 72.886c8.76 1.91 10.88 15.68 10.88 15.68l-8.63 10.06s-13.71-13-13-20.07c.47-5.22 5.97-6.71 10.75-5.67z" opacity=".2"/>
      <path fill="#FF8B7B" d="M229.618 119.536l-2.43-2.87s-7.84-1.83-11.31-.13l-1.07 3.23 8.76 4.54 1.83.86a1.997 1.997 0 002.52-.71l1.76-2.48a1.998 1.998 0 00-.06-2.44z"/>
      <path fill="#455A64" d="M179.218 90.586c1.53-4.08 2.38-9 2-11.35-.52 4.18-3.7 9.9-6.89 14.15a40.89 40.89 0 01-35.55-2.52c-2.63-5.32-4.81-13.63-3.43-18.59-1.69 2.52-2.94 9.41-2.14 14.27-2.69-2.75-4.26-5.84-4.27-8.88 0-14.61 17.61-13.72 17.85-24.38.24-10.66-4.1-32.45 17.64-27.8 14.24-.67 11.26 11.89 8.94 19.53-2.11 7.05 19.43 34.11 5.85 45.57z"/>
      <path fill="#455A64" d="M164.468 25.486c8.9-4.75 18 2.73 13.34 10.56-4.11-.18-7.44 2.43-4.22 7.65-9.55-6.02-15.4-17.68-9.12-18.21z"/>
      <path fill="#FF8B7B" d="M173.828 42.336a9 9 0 011.16 5.52c-.28 2.46-2.2 2.46-3.55 1-1.35-1.46-2.47-4.49-1.69-6.37a2.22 2.22 0 014.08-.15z"/>
    </g>
  </svg>
  