<svg xmlns="http://www.w3.org/2000/svg" width="444" height="384" fill="none" viewBox="0 0 444 384">
    <path fill="#746CEE" d="M400.27 337.199s1.35-11.84 7.24-21c5.89-9.16 14-14.92 21.53-15.52 7.53-.6 13.66 6.35 5.58 11.12s-22.44 9.64-29.05 27.49l-5.3-2.09z"/>
    <path fill="#000" d="M400.27 337.199s1.35-11.84 7.24-21c5.89-9.16 14-14.92 21.53-15.52 7.53-.6 13.66 6.35 5.58 11.12s-22.44 9.64-29.05 27.49l-5.3-2.09z" opacity=".3"/>
    <path fill="#fff" d="M402.48 334.119h-.08a.408.408 0 01-.22-.53c8-19.62 23.14-27.82 30.05-29.41a.388.388 0 01.308.046.403.403 0 01.132.56.409.409 0 01-.25.184c-6.77 1.55-21.65 9.61-29.49 28.93a.39.39 0 01-.45.22z"/>
    <path fill="#746CEE" d="M442.83 334.36c-.69 1.54-2.37 2.34-3.94 3-1.57.66-3.26 1.31-4.11 2.77-1.7 2.94 1.1 7.08-.73 9.95a5.324 5.324 0 01-3.6 2.09c-1.17.21-2.36.21-3.54.31a13.31 13.31 0 01-1.68-.13 7.642 7.642 0 00-4.88.52c-2.34 1.31-3.05 4.27-4.48 6.55a11.07 11.07 0 01-7.88 4.94c-1.05.14-3 .33-4.08-.27a1.74 1.74 0 01-.22-.14 4.925 4.925 0 01-.41-.49.165.165 0 010-.07c-.42-1.52.26-3.11.29-4.69v-.29c-.07-1.83-.12-3.65-.16-5.48-.09-3.37-.13-6.74-.1-10.11 0-2.18-.24-4.58.68-6.64 1-2.27 3.57-2.31 4.54-4.54.38-.88.59-1.83 1-2.73a7.854 7.854 0 016.67-4.66c4.45-.22 8.44 3.38 12.89 3.05a32.977 32.977 0 003.4-.65c3.61-.67 7.77.35 9.8 3.4a4.677 4.677 0 01.54 4.31z"/>
    <path fill="#000" d="M442.83 334.36c-.69 1.54-2.37 2.34-3.94 3-1.57.66-3.26 1.31-4.11 2.77-1.7 2.94 1.1 7.08-.73 9.95a5.324 5.324 0 01-3.6 2.09c-1.17.21-2.36.21-3.54.31a13.31 13.31 0 01-1.68-.13 7.642 7.642 0 00-4.88.52c-2.34 1.31-3.05 4.27-4.48 6.55a11.07 11.07 0 01-7.88 4.94c-1.05.14-3 .33-4.08-.27a1.74 1.74 0 01-.22-.14 4.925 4.925 0 01-.41-.49.165.165 0 010-.07c-.42-1.52.26-3.11.29-4.69v-.29c-.07-1.83-.12-3.65-.16-5.48-.09-3.37-.13-6.74-.1-10.11 0-2.18-.24-4.58.68-6.64 1-2.27 3.57-2.31 4.54-4.54.38-.88.59-1.83 1-2.73a7.854 7.854 0 016.67-4.66c4.45-.22 8.44 3.38 12.89 3.05a32.977 32.977 0 003.4-.65c3.61-.67 7.77.35 9.8 3.4a4.677 4.677 0 01.54 4.31z" opacity=".15"/>
    <path fill="#fff" d="M402.85 356.329a.377.377 0 01-.26-.47c6.14-23.06 30.44-26.39 36.13-26a.38.38 0 01.381.249.38.38 0 01-.441.501c-5.56-.4-29.33 2.86-35.34 25.43a.387.387 0 01-.317.299.395.395 0 01-.153-.009z"/>
    <path fill="#fff" d="M429.85 344.649a.434.434 0 01-.2-.11 20.21 20.21 0 00-16.53-4.66.389.389 0 01-.291-.061.382.382 0 01.171-.689 20.943 20.943 0 0117.19 4.87.378.378 0 01.083.409.39.39 0 01-.083.121.397.397 0 01-.34.12z"/>
    <g>
      <path fill="#746CEE" d="M51.16 345.5c-1.33-7.62-2.24-21.94-11-34-6.32-8.74-16.29-16.57-23.91-14.3-7.1 2.11-5.83 13.36 2.42 19.79s18.89 15.45 23.73 32l7.15 11.65 1.61-15.14z"/>
      <path fill="#000" d="M51.16 345.5c-1.33-7.62-2.24-21.94-11-34-6.32-8.74-16.29-16.57-23.91-14.3-7.1 2.11-5.83 13.36 2.42 19.79s18.89 15.45 23.73 32l7.15 11.65 1.61-15.14z" opacity=".3"/>
      <path fill="#fff" d="M49.48 351.299a.554.554 0 01-.53-.47c-2.87-21.82-13-38.6-29.39-48.5a.54.54 0 01.56-.92c16.65 10.08 27 27.12 29.9 49.28a.538.538 0 01-.46.61h-.08z"/>
      <path fill="#746CEE" d="M48.82 361.88a27.393 27.393 0 01-12.16 7.2c-7.94 2.34-12-1.07-12-1.07s2.2-8 6.53-10.76a45.708 45.708 0 00-13.33 7.61s-4.94.72-7.89-6.58c0 0 2.34-4.93 11.86-8.67 0 0-6.19-.73-14.53 2.6-.61.34-4.65-9.07-6.07-13.47s.4-4.59 3.79-6c3.39-1.41 15.28-3.54 17.73-1.9 2.45 1.64 4.42 8.16 4.42 8.16s1.61-4 .67-7.29a12.714 12.714 0 017.5-.79c4.13.86 5 3.54 5.9 6.28a20.911 20.911 0 011 8.8s2.11-5.18.69-9.78a16.53 16.53 0 016.83 5.19c2.64 3.59 3.44 13.95-.94 20.47z"/>
      <path fill="#000" d="M48.82 361.88a27.393 27.393 0 01-12.16 7.2c-7.94 2.34-12-1.07-12-1.07s2.2-8 6.53-10.76a45.708 45.708 0 00-13.33 7.61s-4.94.72-7.89-6.58c0 0 2.34-4.93 11.86-8.67 0 0-6.19-.73-14.53 2.6-.61.34-4.65-9.07-6.07-13.47s.4-4.59 3.79-6c3.39-1.41 15.28-3.54 17.73-1.9 2.45 1.64 4.42 8.16 4.42 8.16s1.61-4 .67-7.29a12.714 12.714 0 017.5-.79c4.13.86 5 3.54 5.9 6.28a20.911 20.911 0 011 8.8s2.11-5.18.69-9.78a16.53 16.53 0 016.83 5.19c2.64 3.59 3.44 13.95-.94 20.47z" opacity=".15"/>
      <path fill="#fff" d="M48.82 362.42a.52.52 0 01-.45-.24c-8.31-12.73-34.66-25.33-43.59-25.89a.537.537 0 01-.5-.57.512.512 0 01.57-.5c9.1.56 36 13.41 44.42 26.37a.552.552 0 01-.16.75.592.592 0 01-.29.08z"/>
    </g>
    <g>
      <path fill="#746CEE" d="M313.87 19l-5.13-3L47.19 167v193.25a3.857 3.857 0 001.59 3.54l5.12 3a3.828 3.828 0 003.87-.38L308.4 221.7a12.107 12.107 0 005.47-9.47V19z"/>
      <path fill="#000" d="M313.87 19l-5.13-3L47.19 167v193.25a3.857 3.857 0 001.59 3.54l5.12 3a3.828 3.828 0 003.87-.38L308.4 221.7a12.107 12.107 0 005.47-9.47V19z" opacity=".15"/>
      <path fill="#746CEE" d="M53.84 366.729l-5-2.94a3.849 3.849 0 01-1.6-3.54v-171.8l5.13 3v171.78a3.929 3.929 0 001.47 3.5z"/>
      <path fill="#fff" d="M53.84 366.729l-5-2.94a3.849 3.849 0 01-1.6-3.54v-171.8l5.13 3v171.78a3.929 3.929 0 001.47 3.5z" opacity=".65"/>
      <path fill="#000" d="M53.84 366.729l-5-2.94a3.849 3.849 0 01-1.6-3.54v-171.8l5.13 3v171.78a3.929 3.929 0 001.47 3.5z" opacity=".1"/>
      <path fill="#746CEE" d="M52.31 363.24c0 3.48 2.45 4.9 5.47 3.15L308.4 221.7a12.107 12.107 0 005.47-9.47V19L52.31 170v193.24z"/>
      <path fill="#fff" d="M52.31 363.24c0 3.48 2.45 4.9 5.47 3.15L308.4 221.7a12.107 12.107 0 005.47-9.47V19L52.31 170v193.24z" opacity=".75"/>
      <path fill="#746CEE" d="M52.31 170v21.41l261.55-151 .01-21.41L52.31 170z"/>
      <path fill="#FAFAFA" d="M263.41 56.59v5.09c0 1 .73 1.47 1.64.95l33.42-19.35V34.4l-33.42 19.35a3.646 3.646 0 00-1.64 2.84z"/>
      <path fill="#455A64" d="M307.1 29.42c.9-.52 1.64-.1 1.64.95v5.1a3.66 3.66 0 01-1.64 2.84l-8.62 5V34.4l8.62-4.98z"/>
      <path fill="#FAFAFA" d="M306.46 36.409l-1-.3c.099-.406.149-.823.15-1.24a2.276 2.276 0 00-.87-2.05 1.34 1.34 0 00-1.4.07 4.892 4.892 0 00-1.92 4 2.286 2.286 0 00.87 2.06c.186.106.396.161.61.16a1.59 1.59 0 00.79-.23 4.001 4.001 0 001.56-2.08l1 .3h.11a.358.358 0 00.34-.25.37.37 0 00-.24-.44zm-3.08 1.84a.659.659 0 01-.69.07 1.678 1.678 0 01-.52-1.44 4.311 4.311 0 011.56-3.38.881.881 0 01.44-.13.452.452 0 01.25.07 1.657 1.657 0 01.52 1.43 4.31 4.31 0 01-1.56 3.38zM73 163.11l-6.49 3.74a3.997 3.997 0 00-1.79 3.1v7.5c0 1.14.81 1.6 1.79 1l6.49-3.72a3.944 3.944 0 001.79-3.09v-7.5c-.03-1.14-.79-1.6-1.79-1.03zm-3.27 12.09c-2.11 1.21-3.82.23-3.82-2.2a8.413 8.413 0 013.82-6.61c2.1-1.22 3.81-.23 3.81 2.21a8.46 8.46 0 01-3.81 6.6z"/>
      <path fill="#FAFAFA" d="M67.26 172.22c0 1.57 1.1 2.21 2.47 1.42a5.457 5.457 0 002.46-4.27c0-1.57-1.1-2.21-2.46-1.42a5.43 5.43 0 00-2.47 4.27z"/>
      <path fill="#455A64" d="M79.88 162.43v.63c0 .69.49 1 1.08.63l18.15-10.48a2.373 2.373 0 001.08-1.87v-.63c0-.69-.48-1-1.08-.63L81 160.56a2.383 2.383 0 00-1.12 1.87zM161.12 117.929v.63c0 .69.49 1 1.08.63l14.09-8.13a2.383 2.383 0 001.08-1.87v-.63c0-.69-.48-1-1.08-.63l-14.09 8.13a2.383 2.383 0 00-1.08 1.87zM185.49 103.859v.63c0 .69.49 1 1.09.63l14.08-8.12a2.364 2.364 0 001.08-1.87v-.63c0-.69-.48-1-1.08-.63l-14.08 8.13a2.386 2.386 0 00-1.09 1.86z"/>
      <path fill="#FAFAFA" d="M209.87 89.79v.63c0 .69.48 1 1.08.62L225 82.92a2.365 2.365 0 001.08-1.87v-.63c0-.69-.48-1-1.08-.63l-14 8.13a2.373 2.373 0 00-1.13 1.87z"/>
      <path fill="#455A64" d="M234.24 75.72v.63c0 .69.48 1 1.08.62l14.08-8.12a2.375 2.375 0 001.09-1.85v-.63c0-.69-.49-1-1.09-.63l-14.08 8.12a2.397 2.397 0 00-1.08 1.86z"/>
      <path fill="#fff" d="M79.88 168.53v.47c0 .46.32.64.72.41l12.09-7a1.582 1.582 0 00.72-1.25v-.42c0-.46-.32-.65-.72-.42l-12.09 7a1.599 1.599 0 00-.72 1.21z" opacity=".7"/>
      <path fill="#263238" d="M307.19 1.06c-1-.61-2.38-.54-3.92.34L52.66 146.1a12.082 12.082 0 00-5.47 9.47V167l5.12 3L313.87 19V7.54a3.838 3.838 0 00-.313-1.987A3.837 3.837 0 00312.28 4c-.92-.52-4.2-2.4-5.09-2.94z"/>
      <path fill="#37474F" d="M52.31 158.55a12.078 12.078 0 015.47-9.47L308.4 4.39c3-1.75 5.47-.33 5.47 3.15V19L52.31 170v-11.45z"/>
      <path fill="#455A64" d="M312.34 4.05c-1-.62-2.39-.55-3.94.34L57.78 149.08a11.172 11.172 0 00-3.86 4.08l-5.14-3a11.172 11.172 0 013.88-4.09L303.27 1.4c1.54-.88 2.93-.95 3.92-.34.99.61 4.17 2.42 5.1 2.95a.1.1 0 00.05.04z"/>
      <path fill="#746CEE" d="M283.1 24.9a5.678 5.678 0 00-2.57 4.44c0 1.64 1.15 2.3 2.57 1.48a5.654 5.654 0 002.56-4.44c0-1.63-1.15-2.3-2.56-1.48zM292.07 19.729a5.674 5.674 0 00-2.56 4.45c0 1.63 1.14 2.29 2.56 1.48a5.67 5.67 0 002.56-4.45c0-1.63-1.14-2.29-2.56-1.48zM301 14.57a5.666 5.666 0 00-2.52 4.43c0 1.63 1.15 2.3 2.56 1.48a5.676 5.676 0 002.57-4.44c0-1.63-1.15-2.29-2.61-1.47z"/>
      <path fill="#FAFAFA" d="M64.69 192.109l236.77-136.83v158.34L64.69 350.459v-158.35z"/>
      <path fill="#E0E0E0" d="M218.18 122.61a3.328 3.328 0 01-1.71-.44c-1.22-.7-1.89-2.15-1.89-4.06a12.997 12.997 0 015.89-10.2c1.66-1 3.24-1.1 4.46-.39 1.22.71 1.89 2.14 1.89 4.06a12.995 12.995 0 01-5.89 10.19 5.54 5.54 0 01-2.75.84zm5-14.6a4.709 4.709 0 00-2.29.71 12.007 12.007 0 00-5.42 9.39 2.995 2.995 0 001.427 3.305 3 3 0 003.573-.445 12.007 12.007 0 005.42-9.39 3.56 3.56 0 00-1.42-3.26 2.485 2.485 0 00-1.25-.32l-.04.01zM230.21 108.999v.59c0 .64.45.9 1 .58l13.14-7.61a2.238 2.238 0 001-1.75v-.59c0-.64-.46-.9-1-.58l-13.14 7.61a2.222 2.222 0 00-1 1.75z"/>
      <path fill="#E0E0E0" d="M221 117.999a.09.09 0 01-.12 0 .215.215 0 010-.15v-1.13l-1.88 1.11a.098.098 0 01-.06.02.098.098 0 01-.06-.02.205.205 0 01-.05-.15v-.68a1.045 1.045 0 010-.25l.1-.27 1.85-4.63a.751.751 0 01.25-.38l.46-.26a.08.08 0 01.055-.021c.02 0 .04.007.055.021a.196.196 0 01.04.07.198.198 0 01.01.08v3.74l.52-.31a.098.098 0 01.06-.02c.022 0 .043.007.06.02a.212.212 0 01.05.15v.67a.509.509 0 01-.05.2.238.238 0 01-.12.14l-.52.3v1.13a.413.413 0 01-.05.21.322.322 0 01-.11.14l-.49.27zm-.16-2.45v-2l-1 2.6 1-.6z"/>
      <path fill="#746CEE" d="M171.43 149.61a3.312 3.312 0 01-1.7-.44c-1.22-.7-1.89-2.14-1.89-4.06a12.997 12.997 0 015.89-10.2c1.66-1 3.24-1.1 4.46-.39 1.22.71 1.89 2.14 1.89 4.06a12.984 12.984 0 01-1.724 5.805 12.99 12.99 0 01-4.166 4.395 5.64 5.64 0 01-2.76.83zm5-14.6a4.709 4.709 0 00-2.29.71 12.007 12.007 0 00-5.42 9.39 2.995 2.995 0 001.427 3.305 3 3 0 003.573-.445 12.007 12.007 0 005.42-9.39 3.541 3.541 0 00-1.43-3.26 2.432 2.432 0 00-1.23-.32l-.05.01zM183.46 135.999v.59c0 .64.46.9 1 .58l13.14-7.61a2.222 2.222 0 001-1.75v-.58c0-.65-.45-.91-1-.59l-13.14 7.61a2.254 2.254 0 00-1 1.75z"/>
      <path fill="#746CEE" d="M175.29 137.999a.092.092 0 01.055-.019c.02 0 .039.007.055.019a.204.204 0 010 .15v.66a.625.625 0 010 .22l-.08.2-.89 1.95c.156-.062.323-.089.49-.08a.644.644 0 01.38.17.997.997 0 01.25.42c.055.223.082.451.08.68a3.59 3.59 0 01-.12.94 3.914 3.914 0 01-.35.84 3.604 3.604 0 01-.52.7c-.19.201-.409.373-.65.51a1.63 1.63 0 01-.74.27.861.861 0 01-.52-.09.775.775 0 01-.32-.37 1.532 1.532 0 01-.12-.53.394.394 0 010-.21.575.575 0 01.12-.14l.48-.27h.1c.03.042.057.085.08.13a.404.404 0 00.1.15.267.267 0 00.16.08.443.443 0 00.25 0c.13-.036.254-.09.37-.16a1.91 1.91 0 00.6-.57c.146-.234.222-.504.22-.78 0-.28-.07-.44-.22-.48a.918.918 0 00-.6.17l-.5.29a.098.098 0 01-.06.02.098.098 0 01-.06-.02.209.209 0 01-.05-.15v-.7a.619.619 0 01.05-.22c.026-.068.056-.135.09-.2l.84-1.87-1.67 1a.08.08 0 01-.11 0 .171.171 0 01-.05-.15v-.66a.455.455 0 01.16-.35l2.7-1.55z"/>
      <path fill="#E0E0E0" d="M264.88 95.579a3.349 3.349 0 01-1.71-.44 4.426 4.426 0 01-1.88-4.06 12.992 12.992 0 015.88-10.2c1.66-1 3.25-1.1 4.47-.39 1.22.71 1.88 2.14 1.88 4.06a13.05 13.05 0 01-5.88 10.2 5.66 5.66 0 01-2.76.83zm5.05-14.6a4.709 4.709 0 00-2.29.71 12.005 12.005 0 00-5.42 9.39 3.001 3.001 0 004.95 2.86 12.004 12.004 0 005.42-9.39 3.543 3.543 0 00-1.42-3.26 2.46 2.46 0 00-1.24-.29v-.02z"/>
      <path fill="#E0E0E0" d="M266.1 85.589a.518.518 0 010-.2.35.35 0 01.12-.14l2.28-1.32a.09.09 0 01.11 0 .206.206 0 01.05.15v.66a.527.527 0 01-.05.21.327.327 0 01-.11.14l-1.7 1-.07 1.23c.094-.113.201-.214.32-.3.084-.066.175-.123.27-.17.189-.126.405-.204.63-.23a.67.67 0 01.5.13c.155.124.27.29.33.48.088.274.128.562.12.85.004.37-.037.74-.12 1.1-.075.31-.189.609-.34.89a2.815 2.815 0 01-.51.7 3.056 3.056 0 01-.61.48c-.217.14-.463.229-.72.26a.73.73 0 01-.5-.11.86.86 0 01-.29-.42 1.994 1.994 0 01-.12-.63.415.415 0 010-.21.278.278 0 01.12-.14l.49-.28a.112.112 0 01.11 0 .16.16 0 01.042.054c.011.02.017.043.018.066a.614.614 0 00.12.28.289.289 0 00.18.11.38.38 0 00.23 0 1.62 1.62 0 00.27-.13c.241-.142.433-.355.55-.61a2 2 0 00.22-.91.682.682 0 00-.22-.58c-.14-.11-.32-.1-.55 0a1.463 1.463 0 00-.29.21 1.02 1.02 0 00-.17.2l-.13.17a.417.417 0 01-.14.12l-.55.32a.09.09 0 01-.06.023.091.091 0 01-.06-.023.215.215 0 010-.15l.23-3.28zM276.91 81.999v.59c0 .64.45.9 1 .58l13.14-7.61a2.223 2.223 0 001-1.75v-.58c0-.65-.45-.91-1-.59l-13.14 7.61a2.236 2.236 0 00-1 1.75z"/>
      <path fill="#746CEE" d="M124.69 176.61a3.29 3.29 0 01-1.7-.44c-1.22-.7-1.89-2.14-1.89-4.06a13.052 13.052 0 015.88-10.2c1.66-1 3.25-1.1 4.47-.39 1.22.71 1.89 2.14 1.89 4.06a12.984 12.984 0 01-1.724 5.805 12.99 12.99 0 01-4.166 4.395 5.64 5.64 0 01-2.76.83zM136.72 162.999v.59c0 .64.46.9 1 .58l13.14-7.61a2.222 2.222 0 001-1.75v-.58c0-.65-.45-.91-1-.59l-13.14 7.61a2.254 2.254 0 00-1 1.75z"/>
      <path fill="#FAFAFA" d="M129.87 164.27a.752.752 0 00-1 .4l-2.84 6.75-.67-.66a.752.752 0 00-1.06 0 .754.754 0 000 1.06l1.47 1.42a.732.732 0 00.52.22h.15a.776.776 0 00.56-.46l3.26-7.76a.758.758 0 00-.39-.97z"/>
      <path fill="#746CEE" d="M78 203.62c-.6.005-1.19-.15-1.71-.45-1.21-.7-1.88-2.14-1.88-4.06a13.052 13.052 0 015.88-10.2c1.66-1 3.25-1.1 4.47-.39a4.43 4.43 0 011.89 4.06 13.06 13.06 0 01-5.89 10.2 5.647 5.647 0 01-2.76.84zM90 189.999v.59c0 .64.45.9 1 .58l13.14-7.61a2.217 2.217 0 001-1.74v-.59c0-.65-.45-.91-1-.59L91 188.289a2.22 2.22 0 00-1 1.71z"/>
      <path fill="#FAFAFA" d="M83.12 191.259a.75.75 0 00-1 .4l-2.84 6.75-.67-.66a.75.75 0 00-1 1.08l1.47 1.42a.738.738 0 00.52.22h.15a.755.755 0 00.54-.44l3.26-7.76a.765.765 0 00-.172-.848.755.755 0 00-.258-.162z"/>
      <path fill="#E0E0E0" d="M64.69 217.36L301.45 80.52v1.33L64.69 218.68v-1.32z"/>
      <path fill="#746CEE" d="M64.69 218.13v.55l141.08-81.42v-1.33L64.69 217.36v.77z"/>
    </g>
    <g>
      <path fill="#746CEE" d="M263.11 118a1.345 1.345 0 00-.731-.15 1.343 1.343 0 00-.699.26L102 210.34a4.314 4.314 0 00-2 3.38v103.84a1.365 1.365 0 00.56 1.25c.35.22 3.32 1.92 3.67 2.12a1.36 1.36 0 001.38-.13l159.73-92.2a4.298 4.298 0 001.41-1.447 4.3 4.3 0 00.59-1.933V121.39a1.369 1.369 0 00-.108-.706 1.37 1.37 0 00-.452-.554c-.41-.21-3.35-1.87-3.67-2.13z"/>
      <path fill="#fff" d="M266.73 120.129c-.36-.21-.72-.41-.11-.06a1.47 1.47 0 00-1.28.19l-159.73 92.2a4.066 4.066 0 00-1.38 1.46 3.907 3.907 0 00-.57 1.92v103.83a1.513 1.513 0 00.47 1.21l.1.05c.221.105.465.147.708.124.243-.022.475-.11.672-.254l159.73-92.2a4.29 4.29 0 002-3.38v-103.83a1.364 1.364 0 00-.61-1.26z" opacity=".9"/>
      <path fill="#fff" d="M103.66 215.841a3.9 3.9 0 01.57-1.92l-3.66-2.12a3.995 3.995 0 00-.57 1.92v103.84a1.36 1.36 0 00.56 1.25l3.57 2.07a1.507 1.507 0 01-.47-1.21v-103.83z" opacity=".8"/>
      <path fill="#fff" d="M263.11 118c.3.21 2.9 1.68 3.51 2a1.47 1.47 0 00-1.28.19l-159.73 92.2a3.999 3.999 0 00-1.37 1.46l-3.67-2.12a3.994 3.994 0 011.38-1.46l159.73-92.19a1.369 1.369 0 011.43-.08z" opacity=".95"/>
      <path fill="#746CEE" d="M290.11 135a1.345 1.345 0 00-.731-.15 1.343 1.343 0 00-.699.26L129 227.34c-.567.371-1.04.87-1.378 1.458a4.313 4.313 0 00-.572 1.922v103.84a1.36 1.36 0 00.56 1.25c.35.22 3.32 1.92 3.67 2.12a1.36 1.36 0 001.38-.13l159.73-92.2a4.286 4.286 0 002-3.38V138.39a1.369 1.369 0 00-.108-.706 1.37 1.37 0 00-.452-.554c-.46-.21-3.4-1.87-3.72-2.13z"/>
      <path fill="#fff" d="M293.73 137.129c-.36-.21-.72-.41-.11-.06a1.47 1.47 0 00-1.28.19l-159.73 92.2a4.061 4.061 0 00-1.38 1.461 3.9 3.9 0 00-.57 1.919v103.83a1.513 1.513 0 00.47 1.21l.1.05c.221.105.465.147.708.124.243-.022.475-.11.672-.254l159.73-92.2a4.29 4.29 0 002-3.38v-103.83a1.364 1.364 0 00-.61-1.26z" opacity=".7"/>
      <path fill="#fff" d="M130.66 232.841a3.9 3.9 0 01.57-1.92l-3.66-2.12a3.995 3.995 0 00-.57 1.92v103.84a1.357 1.357 0 00.56 1.25l3.57 2.07a1.507 1.507 0 01-.47-1.21v-103.83z" opacity=".6"/>
      <path fill="#fff" d="M290.11 135c.3.21 2.9 1.68 3.51 2a1.47 1.47 0 00-1.28.19l-159.73 92.2a3.999 3.999 0 00-1.37 1.46l-3.67-2.12a3.994 3.994 0 011.38-1.46l159.73-92.19a1.369 1.369 0 011.43-.08z" opacity=".8"/>
      <path fill="#746CEE" d="M319.11 151a1.345 1.345 0 00-.731-.15 1.343 1.343 0 00-.699.26L158 243.34c-.567.371-1.04.87-1.378 1.458a4.313 4.313 0 00-.572 1.922v103.84a1.36 1.36 0 00.56 1.25c.35.22 3.32 1.92 3.67 2.12a1.36 1.36 0 001.38-.13l159.73-92.2a4.286 4.286 0 002-3.38V154.39a1.369 1.369 0 00-.108-.706 1.37 1.37 0 00-.452-.554c-.46-.21-3.4-1.87-3.72-2.13z"/>
      <path fill="#746CEE" d="M319.11 151c.3.21 2.9 1.68 3.51 2a1.47 1.47 0 00-1.28.19l-159.73 92.2a3.999 3.999 0 00-1.37 1.46l-3.67-2.12a3.994 3.994 0 011.38-1.46l159.73-92.19a1.369 1.369 0 011.43-.08z"/>
      <path fill="#000" d="M319.11 151c.3.21 2.9 1.68 3.51 2a1.47 1.47 0 00-1.28.19l-159.73 92.2a3.999 3.999 0 00-1.37 1.46l-3.67-2.12a3.994 3.994 0 011.38-1.46l159.73-92.19a1.369 1.369 0 011.43-.08z" opacity=".2"/>
      <path fill="#000" d="M159.66 352.671a1.477 1.477 0 00.48 1.21l-3.58-2.06a1.388 1.388 0 01-.449-.555 1.388 1.388 0 01-.111-.705v-103.84c.021-.679.217-1.34.57-1.92l3.67 2.12a3.821 3.821 0 00-.58 1.92v103.83z" opacity=".35"/>
      <path fill="#FAFAFA" d="M181.39 242.401c1.32-.76 2.4-.14 2.4 1.39a5.281 5.281 0 01-2.4 4.14c-1.32.76-2.39.14-2.39-1.39a5.29 5.29 0 012.39-4.14z"/>
      <path fill="#455A64" d="M181.39 243.91c.6-.34 1.09-.06 1.09.63a2.419 2.419 0 01-1.09 1.88c-.6.34-1.08.06-1.08-.63a2.4 2.4 0 011.08-1.88z"/>
      <path fill="#FAFAFA" d="M186.14 242.18v.53c0 .59.41.83.92.53l12-6.9a2.054 2.054 0 00.92-1.6v-.53c0-.59-.41-.83-.92-.53l-12 6.9a2 2 0 00-.92 1.6zM278.84 186.08c1.32-.76 2.39-.14 2.39 1.39a5.266 5.266 0 01-2.39 4.14c-1.32.76-2.4.14-2.4-1.38a5.324 5.324 0 012.4-4.15z"/>
      <path fill="#fff" d="M283.58 185.86v.53c0 .59.41.83.92.54l12-6.91a2.007 2.007 0 00.92-1.59v-.54c0-.58-.41-.82-.92-.53l-12 6.91a1.995 1.995 0 00-.92 1.59z" opacity=".7"/>
      <path fill="#000" d="M159.66 265.711l81.24-46.9v1.56l-81.24 46.9v-1.56z" opacity=".3"/>
      <path fill="#fff" d="M240.9 218.81l82.39-47.57v1.55l-82.39 47.58v-1.56z" opacity=".7"/>
      <g opacity=".3">
        <path fill="#000" d="M175.91 266.83v.53c0 .59.41.83.92.54l12-6.91a2.055 2.055 0 00.92-1.59v-.54c0-.59-.41-.82-.92-.53l-12 6.91a2.004 2.004 0 00-.92 1.59zM224.65 238.69v.53c0 .59.41.83.92.53l12-6.9a2 2 0 00.92-1.6v-.53c0-.59-.41-.83-.92-.53l-12 6.9a2.006 2.006 0 00-.656.687 2.01 2.01 0 00-.264.913zM273.4 210.539v.54c0 .59.41.82.92.53l12-6.9a2.06 2.06 0 00.92-1.6v-.53c0-.59-.42-.83-.92-.53l-12 6.9a2.013 2.013 0 00-.92 1.59zM175.91 285.619v.53c0 .59.41.83.92.54l12-6.91a2.055 2.055 0 00.92-1.59v-.54c0-.58-.41-.82-.92-.53l-12 6.91a2.013 2.013 0 00-.92 1.59zM175.91 304.37v.53c0 .59.41.83.92.53l12-6.9a2.057 2.057 0 00.92-1.6v-.53c0-.59-.41-.83-.92-.53l-12 6.9a2.006 2.006 0 00-.656.687 2.01 2.01 0 00-.264.913zM224.65 257.479v.52c0 .59.41.83.92.53l12-6.9a1.995 1.995 0 00.92-1.59v-.54c0-.59-.41-.83-.92-.53l-12 6.9a2 2 0 00-.92 1.61zM273.4 229.328v.54c0 .59.41.82.92.53l12-6.9a2.06 2.06 0 00.92-1.6v-.53c0-.59-.42-.83-.92-.53l-12 6.9a2.007 2.007 0 00-.92 1.59z" opacity=".3"/>
      </g>
      <path fill="#fff" d="M176.81 270.709l32.69-18.87c.5-.29.92 0 .92.53v3.86a1.995 1.995 0 01-.92 1.59l-32.69 18.87c-.51.3-.92.06-.92-.53v-3.85a2.003 2.003 0 01.92-1.6zM225.55 242.569l32.69-18.87c.51-.29.92-.06.92.53v3.86a2.002 2.002 0 01-.92 1.59l-32.69 18.87c-.5.3-.92.06-.92-.53v-3.85a2.053 2.053 0 01.92-1.6zM274.3 214.429l32.7-18.87c.5-.3.92-.06.92.53v3.85a2.06 2.06 0 01-.272.908 2.054 2.054 0 01-.648.692l-32.7 18.87c-.51.29-.92.05-.92-.53v-3.88a1.996 1.996 0 01.92-1.57zM176.81 289.499l32.69-18.87c.5-.29.92-.05.92.53v3.84a2.002 2.002 0 01-.92 1.59l-32.69 18.87c-.51.3-.92.06-.92-.53v-3.83a2.003 2.003 0 01.92-1.6zM176.81 308.75L307 233.57c.5-.29.92-.05.92.53v24.76a2.05 2.05 0 01-.92 1.6l-130.19 75.18c-.51.29-.92.05-.92-.53v-24.77a2.007 2.007 0 01.92-1.59zM225.55 261.36l32.69-18.87c.51-.29.92-.06.92.53v3.86a1.999 1.999 0 01-.92 1.59l-32.69 18.87c-.5.3-.92.06-.92-.53V263a2.069 2.069 0 01.92-1.64zM274.3 233.22l32.7-18.87c.5-.3.92-.06.92.53v3.85a2.06 2.06 0 01-.272.908 2.054 2.054 0 01-.648.692l-32.7 18.87c-.51.29-.92.06-.92-.53v-3.86a2.002 2.002 0 01.92-1.59z" opacity=".7"/>
      <path fill="#263238" d="M318.1 272.72l-30.31 17.53a1.836 1.836 0 00-.83 1.44v14.57a1.797 1.797 0 00.83 1.42l1.95 1.11a1.83 1.83 0 001.66 0l30.31-17.53a1.803 1.803 0 00.83-1.43v-14.58a1.813 1.813 0 00-.83-1.43l-1.95-1.11a1.857 1.857 0 00-1.66.01z"/>
      <path fill="#455A64" d="M290.57 308.311v-14.57a1.843 1.843 0 01.83-1.44l30.31-17.53c.46-.26.83 0 .83.48v14.57a1.817 1.817 0 01-.83 1.43l-30.31 17.53c-.46.27-.83.05-.83-.47z"/>
      <path fill="#000" d="M291.4 308.79a1.936 1.936 0 01-1.66 0l-1.95-1.11a1.847 1.847 0 01-.83-1.43v-14.56c.011-.299.1-.588.26-.84l3.6 2.08a1.66 1.66 0 00-.25.81v14.57c0 .48.35.76.83.48z" opacity=".2"/>
      <path fill="#37474F" d="M322.53 275.101c-.06-.42-.4-.57-.82-.33l-30.31 17.53a1.725 1.725 0 00-.58.62l-3.6-2.08c.139-.24.335-.443.57-.59l30.31-17.53a1.855 1.855 0 011.66 0l1.95 1.11c.219.141.405.328.546.547.142.219.235.465.274.723z"/>
      <path fill="#746CEE" d="M300.53 299.8c-.11.06-.19.07-.24 0a.465.465 0 01-.12-.13l-2.59-4.42v5.86a.696.696 0 01-.07.31.462.462 0 01-.18.22l-.75.43a.143.143 0 01-.085.029.143.143 0 01-.085-.029.324.324 0 01-.07-.23v-9.19c0-.107.024-.213.07-.31a.535.535 0 01.17-.21l.65-.38c.1-.06.19-.06.24 0l.12.13 2.59 4.42v-5.85a.736.736 0 01.07-.32.483.483 0 01.18-.21l.74-.43a.14.14 0 01.18 0 .296.296 0 01.07.23v9.18a.739.739 0 01-.07.32.483.483 0 01-.18.21l-.64.37zM302.54 294.939a7.79 7.79 0 01.16-1.59 6.91 6.91 0 01.45-1.48c.184-.438.423-.851.71-1.23.26-.334.578-.619.94-.84.279-.18.608-.268.94-.25.276.026.531.159.71.37.222.256.38.561.46.89.113.421.167.855.16 1.29v.64a.69.69 0 01-.07.31.452.452 0 01-.18.22l-3.08 1.78a1.25 1.25 0 00.09.52.688.688 0 00.23.29c.105.052.224.07.34.05a.927.927 0 00.4-.14c.179-.097.341-.222.48-.37.121-.122.226-.26.31-.41.047-.087.1-.171.16-.25a.996.996 0 01.18-.15l.74-.42a.14.14 0 01.09-.032.14.14 0 01.09.032.294.294 0 01.07.23c-.027.202-.077.4-.15.59a4.92 4.92 0 01-.4.85 5.793 5.793 0 01-.66.89 3.649 3.649 0 01-.91.74 1.62 1.62 0 01-.94.26.996.996 0 01-.71-.38 2.166 2.166 0 01-.45-.95 5.786 5.786 0 01-.16-1.46zm2.26-3.43a1.522 1.522 0 00-.45.38c-.131.15-.239.319-.32.5a2.37 2.37 0 00-.2.54 2.498 2.498 0 00-.09.5l2.09-1.21c0-.13 0-.27-.07-.41a.866.866 0 00-.17-.33.421.421 0 00-.3-.13.876.876 0 00-.49.16zM310 291.999l-1.09 2.71a1.008 1.008 0 01-.19.33.678.678 0 01-.21.17l-.71.41a.14.14 0 01-.18 0 .399.399 0 01-.06-.25.81.81 0 010-.22l1.66-4.13-1.58-2.11a.307.307 0 010-.18.708.708 0 01.07-.32.409.409 0 01.17-.21l.71-.41a.418.418 0 01.22-.08.262.262 0 01.19.11l1 1.39 1-2.59c.049-.118.113-.228.19-.33a.865.865 0 01.22-.17l.71-.41h.17a.337.337 0 01.07.25.581.581 0 010 .22l-1.6 4 1.64 2.17a.29.29 0 010 .17.75.75 0 01-.07.33.46.46 0 01-.17.21l-.71.41a.401.401 0 01-.22.07.22.22 0 01-.19-.11l-1.04-1.43zM315 288.8a.946.946 0 00.15.61c.1.12.29.1.57-.06l.56-.33a.148.148 0 01.09-.03c.033 0 .064.01.09.03a.32.32 0 01.07.23v.94a.739.739 0 01-.07.32.483.483 0 01-.18.21l-.68.39c-.58.34-1 .38-1.33.13-.33-.25-.47-.83-.47-1.72v-3l-.61.35a.134.134 0 01-.085.032.134.134 0 01-.085-.032.318.318 0 01-.08-.23v-.94a.713.713 0 01.08-.31.405.405 0 01.17-.22l.61-.35v-2.32a.693.693 0 01.07-.31.43.43 0 01.18-.21l.7-.41a.14.14 0 01.18 0 .372.372 0 01.07.23v2.32l1.19-.69a.14.14 0 01.18 0 .296.296 0 01.07.23v.94a.696.696 0 01-.07.31.509.509 0 01-.18.22l-1.19.68v2.99z"/>
    </g>
    <g>
      <path fill="#746CEE" d="M382.897 71.255c4.48-7.713 4.5-16.063.044-18.651-4.456-2.588-11.699 1.566-16.179 9.279-4.48 7.712-4.5 16.063-.044 18.65 4.456 2.589 11.699-1.566 16.179-9.278z"/>
      <path fill="#fff" d="M382.897 71.255c4.48-7.713 4.5-16.063.044-18.651-4.456-2.588-11.699 1.566-16.179 9.279-4.48 7.712-4.5 16.063-.044 18.65 4.456 2.589 11.699-1.566 16.179-9.278z" opacity=".8"/>
      <path fill="#746CEE" d="M398.13 56.92a5.523 5.523 0 011.49-3l3.21-3.42a3.74 3.74 0 001-3l-1.15-6.67a1.112 1.112 0 00-1.264-1.046 1.11 1.11 0 00-.556.246l-3.21 1.82a1.78 1.78 0 01-2.45-.55 10.229 10.229 0 00-1.2-1.49 2.993 2.993 0 01-.71-2.91l1.44-4.65a1.555 1.555 0 00-.076-1.318 1.549 1.549 0 00-1.064-.782l-4.61-1a2.493 2.493 0 00-2.61 1.21l-2.65 4.47a4.521 4.521 0 01-2.62 2 21.47 21.47 0 00-2.84.94 1.589 1.589 0 01-2.18-1l-1-2.08a1.16 1.16 0 00-1.95-.61l-6.9 5.43a3.857 3.857 0 00-1.23 2.87l-.14 3.47a5.127 5.127 0 01-1.12 3.15c-1.12 1.36-2.2 2.77-3.2 4.25a3.514 3.514 0 01-2.81 1.42l-2-.23a2.823 2.823 0 00-2.52 1.56l-4.52 10.1a1.787 1.787 0 00.351 1.971c.164.17.361.306.579.4l1.47.79a2.247 2.247 0 011.23 2.48 39.79 39.79 0 00-.77 4.47 5.634 5.634 0 01-1.5 3l-3.19 3.46a3.684 3.684 0 00-1 3L347 92.4a1.103 1.103 0 001.266 1.046c.205-.032.397-.12.554-.257l3.2-1.87a1.778 1.778 0 012.45.55c.358.514.752 1.002 1.18 1.46.365.38.623.848.749 1.359a2.99 2.99 0 01-.029 1.551l-1.54 4.76a1.547 1.547 0 00.07 1.322 1.547 1.547 0 001.07.778l4.6 1a2.51 2.51 0 002.61-1.21l2.74-4.59a4.518 4.518 0 012.62-2 21.47 21.47 0 002.84-.94 1.56 1.56 0 012.17 1l.94 2.67a1.15 1.15 0 001.95.6l7.32-5.73c.78-.61 1.75-1.84 1.31-2.92l-.64-.72-5.16-6.19a29.154 29.154 0 01-4.43 3.18c-10 5.75-18 1.12-18-10.34s8.07-25.41 18-31.16 18-1.12 18 10.34A34.996 34.996 0 01389.13 71l4.89 5.87h.87a2.83 2.83 0 002.54-1.56l3.69-8.2a1.79 1.79 0 00.034-1.38 1.794 1.794 0 00-.964-.99l-1.6-.9a2.216 2.216 0 01-1.23-2.47c.336-1.468.593-2.954.77-4.45z"/>
      <path fill="#FAFAFA" d="M380.42 80.001l-7.26-8.78a1.912 1.912 0 01-.17-2l4.23-5.27a.805.805 0 01.674-.483.81.81 0 01.746.363l7.27 8.77-5.49 7.4z"/>
      <path fill="#455A64" d="M415.57 109.999l-4.22 5.27a.826.826 0 01-.68.482.817.817 0 01-.75-.362l-28.16-33.83 5.48-7.44L415.4 108a1.933 1.933 0 01.17 2z"/>
      <path fill="#746CEE" d="M404.18 23.36a.61.61 0 01-.22-.8l.28-.53a3.102 3.102 0 00-.9-4l-.48-.36a.607.607 0 01.204-1.082.62.62 0 01.446.052l.53.27a3.1 3.1 0 004-.9l.36-.48a.61.61 0 01.82-.15.62.62 0 01.21.81l-.28.52a3.11 3.11 0 00.91 4l.48.36a.612.612 0 01.15.82.62.62 0 01-.81.22l-.52-.28a3.109 3.109 0 00-4 .9l-.35.48a.601.601 0 01-.82.15h-.01zm1.16-4.82c.354.674.527 1.429.5 2.19a4.38 4.38 0 012.19-.5 4.28 4.28 0 01-.5-2.19 4.28 4.28 0 01-2.19.5zM339.18 103.231a.622.622 0 01.71.45l.16.57a3.11 3.11 0 003.37 2.28l.59-.06a.607.607 0 01.68.49.618.618 0 01-.44.71l-.58.16a3.097 3.097 0 00-2.28 3.37l.06.59a.62.62 0 01-.49.68.633.633 0 01-.71-.45l-.15-.57a3.11 3.11 0 00-3.38-2.28l-.59.06a.613.613 0 01-.715-.485.608.608 0 01.485-.715l.57-.16a3.118 3.118 0 002.29-3.37l-.07-.59a.631.631 0 01.49-.68zm2.45 4.32a4.424 4.424 0 01-1.86-1.26 4.322 4.322 0 01-1.26 1.86c.72.248 1.362.683 1.86 1.26a4.4 4.4 0 011.26-1.86zM414.24 82.39a.61.61 0 01-.72-.42l-.18-.57a3.09 3.09 0 00-3.45-2.15l-.59.09a.621.621 0 01-.28-1.2l.57-.18a3.1 3.1 0 002.16-3.45l-.09-.59a.611.611 0 01.47-.69.628.628 0 01.73.42l.17.56a3.114 3.114 0 003.46 2.16l.59-.09a.631.631 0 01.69.47.618.618 0 01-.42.73l-.57.17a3.13 3.13 0 00-2.16 3.46l.09.59a.601.601 0 01-.47.69zm-2.6-4.22c.731.22 1.39.631 1.91 1.19.22-.73.631-1.39 1.19-1.91a4.302 4.302 0 01-1.91-1.19 4.3 4.3 0 01-1.19 1.91zM347.49 45.89a.63.63 0 01-.84 0l-.43-.42a3.11 3.11 0 00-4.06-.26l-.48.36a.611.611 0 01-.83-.08.631.631 0 010-.84l.42-.42a3.12 3.12 0 00.25-4.07l-.36-.47a.64.64 0 01.09-.84.61.61 0 01.83 0l.43.42a3.119 3.119 0 004.07.26l.47-.36a.614.614 0 01.81.92l-.41.42a3.108 3.108 0 00-.26 4.07l.36.48a.602.602 0 01-.06.83zm-4.32-2.46a4.401 4.401 0 012.25.14 4.37 4.37 0 01.14-2.24 4.41 4.41 0 01-2.25-.14c.159.746.111 1.52-.14 2.24zM346.3 112.301a.96.96 0 100-1.92.96.96 0 000 1.92zM409 28.31a1 1 0 11-1.999 0 1 1 0 011.999 0zM407.68 72.59a1 1 0 11-1.999-.001 1 1 0 011.999 0zM344.13 52a1.006 1.006 0 01-.15.89 1 1 0 11.15-.89z"/>
    </g>
    <g>
      <path fill="#263238" d="M349.39 377.77c-.26.09-.3 1.56-.07 2.05.23.49 1.87 2.31 5.15 3 3.28.69 7.79 0 9.73-.12 3.347.117 6.685.414 10 .89 3 .41 5.39-.26 6.52-1.36a2.009 2.009 0 00.46-1.61c-.05-1.28-.17-1.54-.32-1.53l-31.47-1.32z"/>
      <path fill="#37474F" d="M380.33 375.229c.06.25.12.5.17.76.297 1.294.391 2.627.28 3.95a3.537 3.537 0 01-2.34 1.77c-2.139.65-4.417.695-6.58.13a45.624 45.624 0 00-7.72-.47c-2.239.27-4.495.38-6.75.33a15.841 15.841 0 01-5-1c-1.34-.57-2.7-1.3-3-2.68a4.527 4.527 0 012.51-4.51 10.21 10.21 0 015-1.09c1.89 0 3.32.25 5 .12a23.222 23.222 0 004.32-.6c1.26-.4 3.14-1.63 3.68-1.69 0 0 7.92-.19 8.72-.13.8.06 1.1 2.06 1.21 2.69.11.63.11 1 .24 1.48s.19.62.26.94z"/>
      <path fill="#FAFAFA" d="M364.82 372.228a5.722 5.722 0 00-2.07 3.56c.05 1-1.65 1-1.7.09a8.21 8.21 0 011.5-3.41 4.202 4.202 0 012.27-.24zM361 372.57a5.998 5.998 0 00-1.82 3.27c0 .72-1.51.65-1.49-.06a4.605 4.605 0 011.83-3.26c.48-.33 1.35-.23 1.48.05z"/>
      <path fill="#263238" d="M386.16 352.209c-.25 2.71-.32 3.44.35 5.22a10.89 10.89 0 003.8 4.72 19.13 19.13 0 013.36 3.92 16.766 16.766 0 003.52 4.21c1.09.91 4.1.93 5.54.29 1.44-.64 1.92-1.2 1.78-3.52-.14-2.32-7.18-3-7.18-3l-11.17-11.84z"/>
      <path fill="#37474F" d="M403.46 360.149c.61.22.78 1.36.92 3.63.1 1.72.88 4.22-1.47 5.35a5.8 5.8 0 01-6.29-1.2c-1.65-2-2.77-3.75-5.12-6.17-2-2.11-4.13-2.79-5.1-7.05-.63-2.74-.2-3.89 1.63-4.72 2.53-1.13 6.6 2.33 8.61 2.85 1.72.45 6.22 7.1 6.82 7.31z"/>
      <path fill="#FAFAFA" d="M396.64 352.839l-.35-.11a6.595 6.595 0 00-5.44 3.729c-.32.75.74 1.32 1.35.72a7.002 7.002 0 015.44-3.699 2.98 2.98 0 00-1-.64z"/>
      <path fill="#FAFAFA" d="M398.31 354.109a6.503 6.503 0 00-5.05 3.68c-.33.76.73 1.32 1.34.73a6.733 6.733 0 014.53-3.53c-.28-.31-.56-.62-.82-.88z"/>
      <path fill="#B16668" d="M406.72 316.488l-14.26 1.85s.38 8.78 1.25 18.37c.73 8 1.63 19.37 2.08 23 .016.387.063.771.14 1.15.24 2.13 7.53 2.78 7.53.31l.15-2.9c.6-8.64 3.83-28.87 3.11-41.78zM380.75 319.189l-11.85 1.65 1 48.46v.86c.08 2.15 1.25 2.86 4.23 3 3.61.13 5-1.43 5-2.61v-.36c1.27-11.26 3.18-29.89 3.44-36 .15-4.98-.57-11.54-1.82-15zM420.28 237.38c-4.86-28.09-10.08-33.23-18.55-36.86l2 15.66s7.22 18.4 8.13 24.83c.8 5.64 1.66 12.73 1.24 17.51a3.423 3.423 0 01-1.09 2.21c-1.66 1.57-2.18 2.94-3.3 4.72-.89 1.39-1.78 1.87-1.56 2.21a1.879 1.879 0 002.53.36 13.04 13.04 0 002.39-2 17.652 17.652 0 01-1.8 5.28c-2 3.79-1.72 5.81 3.65 4.78 3.37-.64 5.63-3.25 6.67-11.16.442-2.91.676-5.848.7-8.79-.18-7.57-.23-14.23-1.01-18.75z"/>
      <path fill="#263238" d="M421.65 247.439s0 6.4-.35 8.7c0 0-5 1.31-8.26-.19l-1-7.47 9.61-1.04z"/>
      <path fill="#37474F" d="M397.31 199.939c3.3-.11 10.6-.14 14.45 7.47a96.724 96.724 0 019.91 40.48s-5.18 1.5-9.6.59c0 0-1.29-9.38-3.75-15.49-2.06-5.14-6.64-18-7-19.88-.36-1.88-4.01-13.17-4.01-13.17z"/>
      <path fill="#746CEE" d="M407.23 317.849c-.34-8.28-1.22-8.46-2.55-14.94.67-7.89 1.3-14.52 1.58-23.07.3-9.24-.09-20.35-.09-30.17-10.11-.67-35.39-9-38.55 6.85-.92 12.83.36 38.23.5 55.71.14 17.48-.09 31.89.94 50.66 2.9 1.06 8.24 1.51 11.08-.39 2.29-11.74 3.58-23.57 4.4-30.85 1-8.89 0-12.46 0-16.51.49-7 1.1-14.59 1.64-21.42.54-6.83 2-21.07 2-21.07s1 16.57 1.6 24.89c.6 8.32 1.23 14.56 2.11 24.08.81 8.78 1.7 19 2.56 29.13 2.39 1.13 6.75 1.69 10-.17 2.22-9.58 3.12-24.45 2.78-32.73z"/>
      <path fill="#fff" d="M407.23 317.849c-.34-8.28-1.22-8.46-2.55-14.94.67-7.89 1.3-14.52 1.58-23.07.3-9.24-.09-20.35-.09-30.17-10.11-.67-35.39-9-38.55 6.85-.92 12.83.36 38.23.5 55.71.14 17.48-.09 31.89.94 50.66 2.9 1.06 8.24 1.51 11.08-.39 2.29-11.74 3.58-23.57 4.4-30.85 1-8.89 0-12.46 0-16.51.49-7 1.1-14.59 1.64-21.42.54-6.83 2-21.07 2-21.07.51 8.12 1 16.57 1.6 24.89.6 8.32 1.23 14.56 2.11 24.08.81 8.78 1.7 19 2.56 29.13 2.39 1.13 6.75 1.69 10-.17 2.22-9.58 3.12-24.45 2.78-32.73z" opacity=".5"/>
      <path fill="#000" d="M388.27 272.65c4.18-.37 6.53-1.77 9.48-5.07-.63 2.14-2.11 5.2-6.94 6.5-.18 1.1-1.25 19-1.25 19l-1.29-20.43z" opacity=".2"/>
      <path fill="#455A64" d="M405 206.32c-1.13-3.44-5.5-7.18-9.86-6.37a129.139 129.139 0 00-19.14 4.77c-4 1.43-7.64 4.89-8 18 0 0-2.67 32.67-.62 37a45.15 45.15 0 0025.62 2.22c12-2.63 13.46-7.61 13.46-7.61s.16-22.05-.2-31.57c-.36-8.09-.46-14.08-1.26-16.44z"/>
      <path fill="#B16668" d="M379.8 195.44l1.3 12.28 11.01.01-1.28-13.9-11.03 1.61z"/>
      <path fill="#37474F" d="M377.2 204.319c.8-1.67 1.42-3.9 3-4.18 0 0 5.4.8 8.07-.31s3.38-2.37 3.38-2.37a3.727 3.727 0 014 .72c1.6 1.71 6.4 4.54 7.66 9.55 1.26 5.01 2.29 14.28-3.5 16.07-8.49 2.62-14.53-1.36-16.55-8.39-2.26-7.69-1.67-9.7-6.06-11.09z"/>
      <path fill="#263238" d="M383.83 205c1.39 1.9 2.86 10.17 6.16 13.4 3.3 3.23 10.44 2.45 11.74-.84 0 0-.24 4.21-5.29 4.7-5.05.49-9.47-3.09-10.73-8-1.26-4.91-1.09-7.07-1.88-9.26z"/>
      <path fill="#9A4A4D" d="M371.05 181s-3.12 5-2.74 5.45c.38.45 2.77.85 2.77.85l-.03-6.3z"/>
      <path fill="#B16668" d="M378.68 168.859c-5.8 1.36-7.42 4-7.77 13.24-.35 9.69.71 12.71 2 14 .87.86 5.65.91 8 .19 3-.9 9.74-3.46 12.82-8.4 3.62-5.82 4.43-13.6.35-16.7-5.7-4.36-13.03-2.88-15.4-2.33z"/>
      <path fill="#263238" d="M370.45 172.809a4.999 4.999 0 003.59 1.11c-.26 0-.17 1.08-.14 1.23.107.447.352.85.7 1.15a2.234 2.234 0 002.62.45c-.79.65-.19 2.62.09 3.42.32 1 .45 2 1.53 2.41 0 0 .84-3.6 3.86-3.22 3.02.38 3.55 4.25 1.69 6.64-1.86 2.39-3.67 1.53-3.67 1.53s.21 5.12 2.54 8a16.57 16.57 0 007.7-.27 107.665 107.665 0 007.2-8.46c5.32-7.2 4.58-15.53-.68-17.61a23.65 23.65 0 00-.17-3.29 4.786 4.786 0 00-1.69-2.63 11.212 11.212 0 00-6.42-2.27c-2.65-.16-5.31.22-8 .21a26.426 26.426 0 01-8.54-1.48c-1.17-.4-2.61-.85-3.53 0a2.69 2.69 0 00-.591 1.133 2.69 2.69 0 00.001 1.277 7 7 0 002.64 4.51 2.577 2.577 0 01-1.73-.45 1.603 1.603 0 00-1.72-.06 1.626 1.626 0 00-.3 1.55 8.575 8.575 0 003.02 5.12z"/>
      <path fill="#263238" d="M397.6 170.41l3.44-2.14a2.027 2.027 0 00-2.79-.65 2.027 2.027 0 00-.65 2.79z"/>
      <path fill="#B16668" d="M327.71 227.499c1.88.83 24 17.2 27.47 15.29 3.47-1.91 21.16-22.6 21.16-22.6a14.283 14.283 0 000-15.52 11.992 11.992 0 00-10.1 5.29c-3.16 4.36-14.52 19.24-14.52 19.24-3.17-1.59-14.5-5.91-17-7.35a9.51 9.51 0 01-2-1.23c-1.25-1.24-1-4.24-1-5.87-.003-.761.033-1.523.11-2.28.11-.93.28-3.21-1.39-2.49-.32.155-.595.389-.8.68-.268.34-.471.727-.6 1.14-.32 1-.22 2.06-.51 3.06a.815.815 0 01-.2.39.73.73 0 01-.53.16c-2.44-.07-4.75-3.49-5.87-5.3a4.998 4.998 0 00-1.93-2.11c-1.34-.63-2.94.26-3.8 1.46a7.686 7.686 0 00-1.21 5.38 10.667 10.667 0 003.18 6.74 32.73 32.73 0 009.54 5.92z"/>
      <path fill="#263238" d="M343.81 225.82l-5.54-2.31a9.2 9.2 0 00-4.38 8.06l5.36 3.57 4.56-9.32z"/>
      <path fill="#37474F" d="M377.2 204.319s-5.38-.44-8.56 2.33c-3.18 2.77-17.08 21.79-17.08 21.79l-7.75-2.62s-5.18 3.52-4.56 9.32c0 0 5.45 4 8.42 5.78 2.97 1.78 5.92 2.83 7.24 2.76 1.32-.07 20.9-21.42 20.9-21.42s3.89-5 3.53-10c-.13-2.771-.86-5.48-2.14-7.94z"/>
    </g>
  </svg>
  