<svg width="109" height="200" viewbox="0 0 109 200" fill="none" xmlns="http://www.w3.org/2000/svg">
	<path d="M24.2481 12.12C23.1129 9.975 23.8125 6.3318 29.9175 6.279C36.0225 6.2262 42.9195 6.51 41.8635 0.952797C47.1435 1.8306 50.7735 6.5562 48.2259 9.6648C44.1405 14.6346 47.0049 18.1524 44.1273 20.0664C40.1211 22.746 38.8473 35.9064 30.0627 32.6658C30.8811 27.795 17.1531 16.5552 24.2481 12.12Z" fill="#263238"/>
	<path d="M52.6412 45.12C52.7864 46.6974 52.9778 48.42 53.2154 50.0634C53.453 51.7068 53.6906 53.3634 54.0206 55.0266C54.6217 58.2835 55.4644 61.4912 56.5418 64.623L56.9708 65.7582L57.1688 66.273C57.1688 66.306 57.1688 66.273 57.1226 66.273C56.9905 66.1491 56.8211 66.0725 56.6408 66.0552C56.5484 66.0552 56.6804 66.1014 56.885 66.0552C57.4963 65.894 58.081 65.645 58.6208 65.316C59.3072 64.9364 59.9686 64.5131 60.6008 64.0488C61.9538 63.0806 63.2558 62.0431 64.5014 60.9402C65.7752 59.838 67.0556 58.6764 68.2766 57.528L70.4678 59.376C68.408 62.3325 66.0408 65.0625 63.4058 67.5204C62.6976 68.1635 61.9527 68.7651 61.175 69.3222C60.2773 69.972 59.2873 70.4836 58.238 70.8402C57.4893 71.0837 56.6973 71.1647 55.9148 71.0778C55.3977 71.0165 54.8964 70.8599 54.4364 70.6158C53.969 70.368 53.5508 70.0369 53.2022 69.639C52.9057 69.303 52.6569 68.9276 52.463 68.5236C52.4258 68.4598 52.3928 68.3936 52.364 68.3256L52.2914 68.1672L52.1462 67.8504L51.5786 66.5832C50.1991 63.2218 49.1341 59.7396 48.3974 56.1816C48.0212 54.426 47.6846 52.6704 47.4404 50.9016C47.1962 49.1328 46.9784 47.3838 46.8662 45.5028L52.6412 45.12Z" fill="#FFC3BD"/>
	<path d="M50.4499 38.5596C52.4299 39.0744 53.5783 52.2942 53.5783 52.2942L48.2587 55.4952C48.2587 55.4952 45.0445 45.7272 45.5329 41.5098C45.8893 38.4408 48.9451 38.1768 50.4499 38.5596Z" fill="#FFC3BD"/>
	<path d="M68.2104 57.132L71.2662 52.3008L73.002 57.7854C73.002 57.7854 70.494 60.4254 68.2236 59.7654L68.2104 57.132Z" fill="#FFC3BD"/>
	<path d="M75.7543 50.697L76.9556 55.3764L73.0022 57.7854L71.2664 52.3008L75.7543 50.697Z" fill="#FFC3BD"/>
	<path d="M39.0847 193.963H44.7475L47.1499 173.167H39.3817L39.0847 193.963Z" fill="#FFC3BD"/>
	<path d="M3.52393 186.32L9.00853 187.739L17.4301 168.652L9.84013 166.507L3.52393 186.32Z" fill="#FFC3BD"/>
	<path d="M9.85999 186.829L4.00579 184.34C3.90597 184.294 3.7925 184.287 3.68754 184.32C3.58259 184.353 3.49369 184.424 3.43819 184.519L0.798192 188.868C0.736278 188.98 0.698568 189.103 0.687504 189.231C0.676441 189.358 0.692273 189.486 0.733976 189.607C0.775679 189.728 0.842319 189.838 0.929566 189.931C1.01681 190.025 1.12272 190.099 1.2404 190.148C3.2996 190.98 4.33579 191.277 6.90979 192.373C8.49379 193.033 10.7378 194.194 12.9224 195.125C15.107 196.055 16.1498 193.937 15.3182 193.356C11.609 190.716 11.477 189.257 10.5926 187.515C10.4359 187.208 10.1768 186.965 9.85999 186.829V186.829Z" fill="#263238"/>
	<path d="M44.9391 193.303H38.5767C38.4673 193.302 38.3613 193.341 38.2787 193.413C38.196 193.485 38.1424 193.584 38.1279 193.693L37.4019 198.728C37.389 198.856 37.4029 198.984 37.4428 199.105C37.4827 199.227 37.5478 199.338 37.6337 199.433C37.7196 199.528 37.8244 199.603 37.9414 199.655C38.0584 199.706 38.1849 199.732 38.3127 199.732C40.5303 199.692 41.6127 199.567 44.3979 199.567C46.1139 199.567 49.6779 199.745 52.0539 199.745C54.4299 199.745 54.5553 197.395 53.5653 197.177C49.1301 196.227 47.3811 194.907 45.8895 193.653C45.6232 193.429 45.287 193.305 44.9391 193.303V193.303Z" fill="#263238"/>
	<path d="M50.7799 38.553C50.7799 38.553 53.4727 39.5034 48.0739 72.7278H25.0993C25.4887 63.369 25.4953 57.6006 21.0271 38.4078C24.2445 37.7313 27.507 37.2902 30.7885 37.0878C34.2645 36.84 37.7537 36.84 41.2297 37.0878C45.7177 37.5102 50.7799 38.553 50.7799 38.553Z" fill="#263238"/>
	<path d="M31.8248 25.32C32.4848 28.6794 33.1448 34.8372 30.7886 37.0746C33.7258 40.192 37.1467 42.8152 40.9196 44.8428C44.18 39.5628 41.2298 37.0746 41.2298 37.0746C37.4876 36.1836 37.58 33.405 38.2334 30.7914L31.8248 25.32Z" fill="#FFC3BD"/>
	<path d="M32.0888 34.2498C34.0674 34.4192 36.0584 34.3793 38.0288 34.131C38.0478 34.1281 38.0674 34.1318 38.0841 34.1414C38.1009 34.1509 38.1139 34.1659 38.1212 34.1838C38.1806 34.3356 38.339 34.7514 38.4644 35.0352C38.4737 35.0536 38.4755 35.075 38.4693 35.0947C38.4632 35.1145 38.4495 35.131 38.4314 35.1408C37.7714 35.4774 34.5044 35.9064 31.8314 35.4048C31.8192 35.4026 31.8076 35.3978 31.7975 35.3908C31.7874 35.3837 31.7789 35.3745 31.7726 35.3639C31.7663 35.3532 31.7624 35.3413 31.7612 35.329C31.7599 35.3167 31.7614 35.3043 31.7654 35.2926C31.871 34.8966 31.9832 34.4742 32.0228 34.3158C32.0242 34.2988 32.0317 34.2829 32.0437 34.2708C32.0558 34.2587 32.0717 34.2513 32.0888 34.2498V34.2498Z" fill="#5F5AF6"/>
	<path opacity="0.2" d="M34.4384 27.5772L38.2334 30.8178C38.072 31.4232 37.9637 32.0416 37.91 32.6658C36.4778 32.4612 34.511 30.8904 34.3592 29.3658C34.2816 28.7695 34.3084 28.1643 34.4384 27.5772V27.5772Z" fill="black"/>
	<path d="M28.2805 19.182C29.6005 24.6468 30.0361 26.9832 33.3295 29.3262C38.2795 32.844 44.7013 30.0324 45.0445 24.2904C45.3547 19.116 43.1437 11.0508 37.3489 9.81C36.0724 9.52997 34.7454 9.58109 33.4942 9.9585C32.243 10.3359 31.1091 11.0271 30.2003 11.9663C29.2915 12.9055 28.6381 14.0615 28.302 15.3245C27.966 16.5874 27.9586 17.9154 28.2805 19.182V19.182Z" fill="#FFC3BD"/>
	<path d="M48.1003 72.7278C48.1003 72.7278 52.5619 116.347 52.1923 133.613C51.8095 151.578 48.2323 173.787 48.2323 173.787H38.3587C38.3587 173.787 38.7811 152.627 38.1013 134.986C37.3687 115.753 31.2571 72.7278 31.2571 72.7278H48.1003Z" fill="#5F5AF6"/>
	<path d="M37.5141 174.77H48.6483L49.4601 171.906L36.9927 171.556L37.5141 174.77Z" fill="#263238"/>
	<path opacity="0.2" d="M38.1805 83.5848C43.8235 94.9434 39.3091 115.674 37.3159 123.383C36.2929 111.8 34.5637 97.6428 33.2173 87.2478C34.0753 81.3672 35.5999 78.3444 38.1805 83.5848Z" fill="black"/>
	<path d="M42.0218 72.7278C42.0218 72.7278 36.8144 118.076 32.8808 132.636C28.208 149.915 18.6644 169.002 18.6644 169.002L8.7644 166.21C8.7644 166.21 14.315 142.912 17.8856 133.804C25.5086 114.374 18.9812 85.413 25.073 72.7278H42.0218Z" fill="#5F5AF6"/>
	<path d="M8.177 167.715L18.44 170.56L20.288 167.926L8.90301 164.131L8.177 167.715Z" fill="#263238"/>
	<path d="M37.5073 19.2942C37.5865 19.743 37.8901 20.0664 38.1673 20.0136C38.4445 19.9608 38.6359 19.5516 38.5567 19.1028C38.4775 18.654 38.1739 18.3306 37.8967 18.3834C37.6195 18.4362 37.4281 18.8454 37.5073 19.2942Z" fill="#263238"/>
	<path d="M42.5893 18.39C42.6751 18.8388 42.9721 19.1622 43.2493 19.1094C43.5265 19.0566 43.7179 18.654 43.6387 18.2052C43.5595 17.7564 43.2559 17.433 42.9787 17.4858C42.7015 17.5386 42.5101 17.9412 42.5893 18.39Z" fill="#263238"/>
	<path d="M42.8601 17.532L43.8897 17.0304C43.8897 17.0304 43.4739 17.9676 42.8601 17.532Z" fill="#263238"/>
	<path d="M41.1506 19.38C41.7336 20.3345 42.4441 21.205 43.2626 21.9672C43.0614 22.1702 42.8185 22.3273 42.5508 22.4276C42.283 22.5278 41.9968 22.5689 41.7116 22.548L41.1506 19.38Z" fill="#ED847E"/>
	<path d="M39.3356 24.66C39.5922 24.6596 39.8483 24.6375 40.1012 24.594C40.1187 24.5909 40.1353 24.5842 40.1502 24.5745C40.1651 24.5647 40.1778 24.5521 40.1877 24.5373C40.1976 24.5225 40.2043 24.5059 40.2076 24.4884C40.2109 24.4709 40.2106 24.453 40.2068 24.4356C40.2044 24.4184 40.1986 24.4018 40.1895 24.387C40.1804 24.3721 40.1684 24.3593 40.1541 24.3494C40.1398 24.3395 40.1236 24.3326 40.1066 24.3293C40.0895 24.3259 40.0719 24.3262 40.055 24.33C39.4971 24.4416 38.9208 24.4203 38.3727 24.2678C37.8247 24.1153 37.3202 23.8359 36.9002 23.4522C36.8884 23.4394 36.8741 23.4292 36.8582 23.4222C36.8423 23.4152 36.8251 23.4116 36.8078 23.4116C36.7904 23.4116 36.7732 23.4152 36.7573 23.4222C36.7414 23.4292 36.7271 23.4394 36.7154 23.4522C36.6907 23.478 36.677 23.5123 36.677 23.5479C36.677 23.5835 36.6907 23.6178 36.7154 23.6436C37.4247 24.3082 38.3636 24.6724 39.3356 24.66Z" fill="#263238"/>
	<path d="M26.4458 11.3478C29.693 12.945 32.9336 12.252 33.0986 16.2846C33.2636 20.3172 27.713 26.8446 26.4458 22.2246C25.1786 17.6046 26.4458 11.3478 26.4458 11.3478Z" fill="#263238"/>
	<path d="M27.416 13.44C31.607 15.1362 43.1504 15.5784 42.8996 10.404C42.6488 5.22959 32.6696 7.5198 29.8118 8.6286C26.954 9.7374 27.416 13.44 27.416 13.44Z" fill="#263238"/>
	<path d="M28.0497 23.3004C28.2568 23.7971 28.5599 24.248 28.9415 24.6274C29.3232 25.0068 29.7759 25.3072 30.2738 25.5114C31.5939 26.0526 32.4321 24.891 32.1945 23.5314C31.9767 22.3236 31.0263 20.5812 29.6205 20.6208C29.311 20.6323 29.0095 20.7215 28.7438 20.8804C28.478 21.0393 28.2566 21.2626 28.1 21.5297C27.9434 21.7968 27.8567 22.0991 27.8479 22.4086C27.8391 22.7181 27.9085 23.0248 28.0497 23.3004V23.3004Z" fill="#FFC3BD"/>
	<path d="M35.5406 16.2846C35.5768 16.2854 35.6128 16.2781 35.6459 16.2633C35.679 16.2485 35.7084 16.2264 35.732 16.1988C35.9582 15.9496 36.2395 15.7567 36.5534 15.6352C36.8674 15.5138 37.2053 15.4672 37.5404 15.4992C37.6101 15.5111 37.6818 15.4959 37.7408 15.4566C37.7997 15.4173 37.8413 15.357 37.8572 15.288C37.8689 15.2173 37.8527 15.1448 37.8121 15.0857C37.7715 15.0266 37.7096 14.9856 37.6394 14.9712C37.2159 14.9211 36.7865 14.9729 36.3871 15.1221C35.9876 15.2713 35.6295 15.5137 35.3426 15.8292C35.2933 15.8808 35.2659 15.9493 35.2659 16.0206C35.2659 16.0919 35.2933 16.1604 35.3426 16.212C35.3968 16.2607 35.4677 16.2867 35.5406 16.2846V16.2846Z" fill="#263238"/>
	<path d="M43.8633 15.5916C43.8974 15.5927 43.9314 15.5868 43.9631 15.5744C43.9949 15.5619 44.0238 15.543 44.0481 15.519C44.073 15.4944 44.0928 15.4652 44.1063 15.4329C44.1198 15.4006 44.1268 15.3659 44.1268 15.3309C44.1268 15.2959 44.1198 15.2612 44.1063 15.2289C44.0928 15.1966 44.073 15.1674 44.0481 15.1428C43.7625 14.8259 43.4044 14.5829 43.0044 14.4346C42.6044 14.2863 42.1744 14.2372 41.7513 14.2914C41.7169 14.2977 41.6842 14.3108 41.655 14.3299C41.6257 14.3489 41.6006 14.3736 41.5809 14.4024C41.5613 14.4313 41.5476 14.4637 41.5406 14.4979C41.5335 14.5321 41.5334 14.5673 41.54 14.6016C41.5529 14.6713 41.5926 14.7332 41.6506 14.7739C41.7087 14.8146 41.7803 14.8309 41.8502 14.8194C42.1823 14.7799 42.519 14.819 42.8332 14.9337C43.1473 15.0483 43.4301 15.2353 43.6587 15.4794C43.6826 15.5118 43.7132 15.5387 43.7486 15.5581C43.7839 15.5775 43.823 15.5889 43.8633 15.5916V15.5916Z" fill="#263238"/>
	<path d="M23.8982 46.6314C22.7564 49.6146 21.6608 52.7496 20.6906 55.8318C19.7221 58.8724 18.9701 61.9778 18.44 65.1246C18.3674 65.5074 18.3344 65.8836 18.2948 66.2598L18.2354 66.8208V67.0584C18.3011 67.4966 18.461 67.9154 18.704 68.286C19.4853 69.5586 20.3942 70.7483 21.4166 71.8368C23.5352 74.2062 25.9772 76.4568 28.3862 78.6876L26.7164 81.024C23.7229 79.295 20.8969 77.2909 18.275 75.0378C16.8541 73.839 15.5822 72.4741 14.4866 70.9722C13.748 69.976 13.2592 68.8172 13.061 67.593C13.0329 67.3741 13.0197 67.1536 13.0214 66.933C13.0214 66.7944 13.0214 66.7878 13.0214 66.7152V66.5436V65.8836C13.0214 65.4216 13.061 64.9596 13.1138 64.5174C13.4893 61.0321 14.1808 57.5882 15.1796 54.228C16.1079 50.9101 17.2273 47.6486 18.5324 44.46L23.8982 46.6314Z" fill="#FFC3BD"/>
	<path d="M21.08 38.388C18.8228 39.312 15.998 51.6606 15.998 51.6606L20.7962 55.6206C20.7962 55.6206 25.3172 46.3806 25.5152 42.1698C25.634 38.9556 23.06 37.5762 21.08 38.388Z" fill="#FFC3BD"/>
	<path d="M12.4603 188.611C12.5636 188.557 12.6538 188.481 12.7246 188.389C12.7953 188.297 12.8448 188.19 12.8695 188.076C12.895 187.999 12.8993 187.917 12.8818 187.838C12.8644 187.759 12.8259 187.686 12.7705 187.627C12.2821 187.093 10.2625 187.442 10.0315 187.482C10.0063 187.489 9.98334 187.502 9.96484 187.521C9.94633 187.539 9.93292 187.562 9.92592 187.588C9.91982 187.613 9.9216 187.64 9.93101 187.665C9.94043 187.69 9.95705 187.711 9.97872 187.726C10.5859 188.168 11.7079 188.881 12.3811 188.644C12.409 188.637 12.4357 188.626 12.4603 188.611V188.611ZM10.4011 187.68C11.2129 187.568 12.3151 187.515 12.5725 187.792C12.5919 187.823 12.6022 187.858 12.6022 187.894C12.6022 187.931 12.5919 187.966 12.5725 187.997C12.5581 188.082 12.522 188.162 12.4677 188.229C12.4133 188.296 12.3426 188.348 12.2623 188.38C11.9257 188.518 11.2327 188.261 10.4011 187.68Z" fill="#5F5AF6"/>
	<path d="M10.9755 187.442C11.5629 187.159 12.1635 186.723 12.2493 186.32C12.2704 186.216 12.2551 186.107 12.2059 186.012C12.1567 185.917 12.0765 185.842 11.9787 185.799C11.8897 185.747 11.7907 185.715 11.6882 185.705C11.5857 185.695 11.4822 185.706 11.3847 185.74C10.6125 186.004 9.95912 187.502 9.93272 187.561C9.92114 187.581 9.91504 187.604 9.91504 187.627C9.91504 187.65 9.92114 187.673 9.93272 187.693C9.94525 187.713 9.96316 187.728 9.98426 187.737C10.0054 187.747 10.0287 187.75 10.0515 187.746C10.3734 187.693 10.6852 187.591 10.9755 187.442V187.442ZM11.3913 186.03L11.4705 185.997C11.5318 185.974 11.5973 185.966 11.6623 185.971C11.7274 185.977 11.7903 185.997 11.8467 186.03C11.9919 186.116 11.9985 186.202 11.9853 186.261C11.9061 186.65 10.9557 187.244 10.2891 187.429C10.5275 186.874 10.9076 186.392 11.3913 186.03V186.03Z" fill="#5F5AF6"/>
	<path d="M47.0642 194.28C47.5505 194.325 48.0374 194.201 48.4436 193.93C48.5347 193.848 48.6042 193.745 48.6456 193.63C48.6871 193.515 48.6993 193.391 48.6812 193.27C48.6774 193.196 48.6549 193.123 48.6157 193.06C48.5764 192.996 48.5218 192.944 48.4568 192.907C47.7968 192.531 45.5066 193.686 45.2492 193.818C45.2239 193.83 45.2032 193.85 45.1901 193.875C45.1771 193.9 45.1723 193.929 45.1766 193.957C45.1811 193.984 45.1935 194.009 45.2123 194.029C45.2311 194.049 45.2554 194.063 45.2822 194.069C45.8686 194.192 46.465 194.263 47.0642 194.28V194.28ZM48.074 193.112C48.1601 193.107 48.2461 193.123 48.3248 193.158C48.352 193.171 48.3751 193.192 48.3914 193.218C48.4077 193.243 48.4166 193.273 48.4172 193.303C48.4296 193.382 48.4216 193.463 48.3939 193.538C48.3661 193.613 48.3196 193.68 48.2588 193.732C47.9156 194.042 46.985 194.095 45.731 193.891C46.4626 193.504 47.255 193.245 48.074 193.125V193.112Z" fill="#5F5AF6"/>
	<path d="M45.3086 194.095H45.368C46.028 193.792 47.348 192.571 47.2688 191.93C47.2688 191.779 47.1368 191.587 46.7672 191.548C46.6348 191.535 46.5013 191.549 46.3744 191.589C46.2475 191.629 46.1298 191.693 46.028 191.779C45.3152 192.373 45.1832 193.897 45.1766 193.963C45.1758 193.986 45.1808 194.009 45.1911 194.03C45.2015 194.051 45.217 194.069 45.236 194.082C45.2576 194.096 45.2836 194.1 45.3086 194.095V194.095ZM46.6286 191.798H46.7078C46.952 191.798 46.9718 191.917 46.9718 191.95C47.0378 192.34 46.1336 193.27 45.4406 193.712C45.4953 193.07 45.7491 192.461 46.1666 191.97C46.233 191.909 46.3112 191.862 46.3963 191.833C46.4815 191.803 46.5717 191.792 46.6616 191.798H46.6286Z" fill="#5F5AF6"/>
	<path d="M24.7563 71.3814L24.1689 73.4406C24.0897 73.599 24.2745 73.7574 24.5451 73.7574H48.2127C48.4173 73.7574 48.5889 73.6584 48.6021 73.5264L48.8133 71.4672C48.8133 71.3286 48.6483 71.2098 48.4173 71.2098H25.1325C25.0602 71.2031 24.9875 71.2154 24.9215 71.2455C24.8555 71.2756 24.7986 71.3225 24.7563 71.3814V71.3814Z" fill="#5F5AF6"/>
	<path opacity="0.8" d="M24.7563 71.3814L24.1689 73.4406C24.0897 73.599 24.2745 73.7574 24.5451 73.7574H48.2127C48.4173 73.7574 48.5889 73.6584 48.6021 73.5264L48.8133 71.4672C48.8133 71.3286 48.6483 71.2098 48.4173 71.2098H25.1325C25.0602 71.2031 24.9875 71.2154 24.9215 71.2455C24.8555 71.2756 24.7986 71.3225 24.7563 71.3814V71.3814Z" fill="white"/>
	<path d="M27.8845 73.9818H27.2575C27.1387 73.9818 27.0397 73.9224 27.0529 73.8432L27.3433 71.1636C27.3433 71.091 27.4621 71.025 27.5809 71.025H28.2409C28.3663 71.025 28.4587 71.091 28.4521 71.1636L28.1617 73.8432C28.1155 73.9224 28.0099 73.9818 27.8845 73.9818Z" fill="#5F5AF6"/>
	<path d="M46.4569 73.9818H45.8365C45.7111 73.9818 45.6187 73.9224 45.6253 73.8432L45.9157 71.1636C45.9157 71.091 46.0345 71.025 46.1599 71.025H46.7803C46.9057 71.025 46.9981 71.091 46.9915 71.1636L46.7011 73.8432C46.6945 73.9224 46.5823 73.9818 46.4569 73.9818Z" fill="#5F5AF6"/>
	<path d="M37.1709 73.9818H36.5505C36.4251 73.9818 36.3261 73.9224 36.3393 73.8432L36.6297 71.1636C36.6297 71.091 36.7485 71.025 36.8739 71.025H37.4943C37.6197 71.025 37.7121 71.091 37.7055 71.1636L37.4151 73.8432C37.4019 73.9224 37.2963 73.9818 37.1709 73.9818Z" fill="#5F5AF6"/>
	<path d="M27.7197 78.1926L33.8181 78.714L29.7459 82.7796C29.7459 82.7796 26.2545 81.7698 25.7859 79.4796L27.7197 78.1926Z" fill="#FFC3BD"/>
	<path d="M68.798 49.74L64.838 68.682C64.7868 68.9264 64.7842 69.1785 64.8305 69.424C64.8767 69.6694 64.9709 69.9033 65.1076 70.1123C65.2443 70.3213 65.4208 70.5013 65.6271 70.6421C65.8334 70.7828 66.0654 70.8815 66.3098 70.9326L102.372 78.4962C102.867 78.596 103.382 78.4968 103.804 78.2202C104.227 77.9435 104.523 77.5115 104.629 77.0178L108.589 58.0758C108.689 57.5817 108.591 57.0681 108.316 56.6458C108.04 56.2235 107.61 55.9264 107.118 55.8186L71.0552 48.2616C70.584 48.1675 70.0946 48.2522 69.6824 48.4992C69.4571 48.6335 69.2622 48.8132 69.11 49.0268C68.9577 49.2403 68.8515 49.4832 68.798 49.74V49.74Z" fill="#5F5AF6"/>
	<path opacity="0.5" d="M68.798 49.74L64.838 68.682C64.7868 68.9264 64.7842 69.1785 64.8305 69.424C64.8767 69.6694 64.9709 69.9033 65.1076 70.1123C65.2443 70.3213 65.4208 70.5013 65.6271 70.6421C65.8334 70.7828 66.0654 70.8815 66.3098 70.9326L102.372 78.4962C102.867 78.596 103.382 78.4968 103.804 78.2202C104.227 77.9435 104.523 77.5115 104.629 77.0178L108.589 58.0758C108.689 57.5817 108.591 57.0681 108.316 56.6458C108.04 56.2235 107.61 55.9264 107.118 55.8186L71.0552 48.2616C70.584 48.1675 70.0946 48.2522 69.6824 48.4992C69.4571 48.6335 69.2622 48.8132 69.11 49.0268C68.9577 49.2403 68.8515 49.4832 68.798 49.74V49.74Z" fill="black"/>
	<path d="M108.279 56.6106L102.583 59.508L91.2842 65.2434C89.7107 66.0472 87.9098 66.289 86.1801 65.9289C84.4503 65.5688 82.8955 64.6283 81.7736 63.2634L73.9526 53.7L69.6758 48.4926C70.0913 48.2481 70.5818 48.1636 71.0552 48.255L74.2034 48.915L102.821 54.9144L107.111 55.812C107.588 55.9204 108.005 56.2059 108.279 56.6106V56.6106Z" fill="#5F5AF6"/>
	<path d="M103.95 33.5634L102.821 54.9408L102.583 59.508L91.2842 65.2434C89.7108 66.0472 87.9099 66.289 86.1801 65.9289C84.4503 65.5688 82.8956 64.6283 81.7736 63.2634L73.9526 53.7L74.2034 48.915L75.0944 32.019C75.1217 31.5608 75.328 31.1318 75.6688 30.8243C76.0095 30.5169 76.4575 30.3557 76.916 30.3756L102.306 31.6956C102.538 31.7081 102.764 31.7667 102.972 31.8678C103.181 31.9689 103.367 32.1106 103.52 32.2845C103.673 32.4584 103.79 32.6611 103.864 32.8807C103.937 33.1003 103.967 33.3324 103.95 33.5634V33.5634Z" fill="#5F5AF6"/>
	<path opacity="0.9" d="M103.95 33.5634L102.821 54.9408L102.583 59.508L91.2842 65.2434C89.7108 66.0472 87.9099 66.289 86.1801 65.9289C84.4503 65.5688 82.8956 64.6283 81.7736 63.2634L73.9526 53.7L74.2034 48.915L75.0944 32.019C75.1217 31.5608 75.328 31.1318 75.6688 30.8243C76.0095 30.5169 76.4575 30.3557 76.916 30.3756L102.306 31.6956C102.538 31.7081 102.764 31.7667 102.972 31.8678C103.181 31.9689 103.367 32.1106 103.52 32.2845C103.673 32.4584 103.79 32.6611 103.864 32.8807C103.937 33.1003 103.967 33.3324 103.95 33.5634V33.5634Z" fill="white"/>
	<path opacity="0.1" d="M83.12 60.6234L74.0582 51.72L73.9526 53.7L81.8 63.2502C82.922 64.6151 84.4767 65.5556 86.2065 65.9157C87.9363 66.2759 89.7372 66.034 91.3106 65.2302L102.61 59.4948L102.722 57.3564L91.3304 62.1612C89.9635 62.7473 88.4533 62.9141 86.9915 62.6403C85.5296 62.3665 84.1821 61.6645 83.12 60.6234V60.6234Z" fill="black"/>
	<path d="M77.8401 38.4672L78.1173 33.2334L79.1733 33.2928L78.8961 38.52L77.8401 38.4672Z" fill="#5F5AF6"/>
	<path d="M79.9124 38.5794L80.1896 33.3456L81.2192 33.3984L83.1992 37.0086L83.3774 33.5106L84.3608 33.5634L84.0836 38.7972L83.0276 38.7444L81.074 35.22L80.8958 38.6322L79.9124 38.5794Z" fill="#5F5AF6"/>
	<path d="M86.5191 38.9292L84.9219 33.5964L86.0703 33.6558L87.1923 37.6158L88.6773 33.8142L89.7993 33.8736L87.6477 39.0084L86.5191 38.9292Z" fill="#5F5AF6"/>
	<path d="M90.0303 39.114L90.3075 33.8802L91.3635 33.933L91.0863 39.1668L90.0303 39.114Z" fill="#5F5AF6"/>
	<path d="M93.2707 39.2856L93.5017 34.9362L91.9507 34.8504L91.9969 33.966L96.1549 34.1838L96.1087 35.0682L94.5577 34.989L94.3267 39.3384L93.2707 39.2856Z" fill="#5F5AF6"/>
	<path d="M96.5576 39.4572L96.8348 34.2234L100.716 34.428L100.669 35.3124L97.8446 35.1606L97.7852 36.3222L100.425 36.4608L100.379 37.3452L97.739 37.2066L97.6664 38.6322L100.59 38.784L100.544 39.6684L96.5576 39.4572Z" fill="#5F5AF6"/>
	<path d="M37.3027 81.9546L33.7057 85.1754L28.8745 82.4562L33.8179 78.714L37.3027 81.9546Z" fill="#FFC3BD"/>
	<path d="M37.7715 18.4296L38.7945 17.928C38.7945 17.928 38.3919 18.8718 37.7715 18.4296Z" fill="#263238"/>
</svg>