<svg xmlns="http://www.w3.org/2000/svg" width="251" height="251" fill="none" viewBox="0 0 251 251">
    <path fill="#FAC8C2" d="M83.016 126.123c3.968 33.151 13.734 75.587 22.935 84.872 7.423 7.49 47.999 23.468 50.291 23.978 5.67 1.266 20.353-45.793 14.538-48.344-7.286-3.214-42.689-8.091-44.536-10.774-1.847-2.684-13.298-24.958-26.228-50.599-8.919-17.724-19.446-19.693-17 .867Z"/>
    <path fill="#FAC8C2" d="M151.855 231.871c.65.48 9.911 7.244 15.752 9.918 4.344 1.989 17.009 7.316 19.318 1.816 1.582-3.745-5.55-7.928-10.544-11.01-2.625-1.632-5.747-5.367-4.797-7.377 1.71-3.51 8.414.857 12.827 4.521 8.483 7.071 19.574 19.386 25.406 14.539 2.198-1.826.069-5.785-3.172-9.785 5.378 4.816 11.185 8.908 13.682 6.99 1.445-1.092 1.625-2.776 1.009-4.776 1.71.847 3.258.878 4.438-.377 2.001-2.122 1.343-5.612-.427-9.295.35-.014.692-.126 1-.326.307-.2.571-.483.77-.827 4.404-6.714-13.683-29.08-20.336-31.631-19.497-7.642-40.807-7.714-40.807-7.714-8.355 6.643-14.136 45.314-14.119 45.334Z"/>
    <path fill="#263238" d="M182.649 212.953c4.669 1.359 9.041 3.888 12.827 7.418 4.763 4.479 7.782 9.469 11.682 14.571.102.132-.069.336-.171.193-1.856-2.428-9.621-11.631-11.647-13.744-3.655-3.9-8.007-6.754-12.725-8.346l.034-.092ZM187.07 203.249c5.131 2.225 10.347 4.49 14.991 7.928 5.079 3.766 8.868 9.449 12.596 14.918a298.656 298.656 0 0 1 6.534 10.05c.085.143-.077.337-.171.194a352.933 352.933 0 0 0-11.759-16.54c-3.746-5.014-8.289-9.093-13.366-11.999-2.899-1.663-5.892-3.061-8.885-4.449-.025-.02 0-.132.06-.102ZM193.279 194.996c4.994 1.755 9.346 3.265 13.613 6.969 5.653 4.898 10.895 12.724 12.734 15.489 2.026 3.061 3.967 6.204 5.866 9.377.077.133-.111.296-.188.163a197.904 197.904 0 0 0-14.213-19.866c-2.382-3.021-5.142-5.582-8.183-7.591a55.407 55.407 0 0 0-9.638-4.5s-.017-.041.009-.041Z"/>
    <path fill="#000" d="M154.523 234.382c-8.26-3.01-41.902-16.641-48.555-23.386-9.201-9.285-18.967-51.721-22.935-84.872-1.53-12.795 1.967-16.867 6.978-13.846l64.512 122.104Z" opacity=".1"/>
    <path fill="#0EA5E9" d="m91.046 182.293 30.785-20.56s-11.972-25.396-24.26-44.538c-12.289-19.142-17.189-8.163-15.393 12.632 1.796 20.794 8.868 52.466 8.868 52.466Z"/>
    <path fill="#263238" d="M117.119 156.59a274.537 274.537 0 0 0-25.731 17.243c-.128.092 0 .337.128.255a274.192 274.192 0 0 0 25.757-17.213c.129-.102-.008-.367-.154-.285Z"/>
    <path fill="#000" d="m116.367 165.366-25.33 16.928s-7.166-31.713-8.876-52.466c-1.12-13.132.436-22.356 4.849-22.519l29.357 58.057Z" opacity=".1"/>
    <path fill="#0EA5E9" d="M4.497 239.779h116.436c1.463-1.306-12.023-95.433-29.169-127.931-3.207-6.122-18.573-15.367-30.605-4.367-36.293 33.253-58.03 130.257-56.662 132.298Z"/>
    <path fill="#FAC8C2" d="M57.84 111.399C30.178 148.825-4.91 218.535 1.154 232.361c7.696 17.489 60.827 14.285 73.226 10.816 5.293-1.47-12.998-56.119-18.676-54.732-4.952 1.245-9.219 2.49-9.407 1.674-.188-.817 14.615-26.886 23.61-64.425 6.15-25.58-6.2-22.243-12.065-14.295Z"/>
    <path fill="#263238" d="M22.523 207.311c3.335-5.153 13.417-14.53 23.773-16.989.24 0 .402.123.197.235-8.509 4.441-16.535 10.098-23.902 16.846-.042.051-.102-.041-.068-.092Z"/>
    <path fill="#455A64" d="M94.603 162.497s-6.61-9.122-1.026-13.989c5.584-4.867 10.86 5.408 10.86 5.408l-9.834 8.581Z"/>
    <path fill="#455A64" d="m146.143 221.943 1.471 11.714.504 3.846-2.941-1.714-8.877-5.214-41.902-68.363 9.834-8.581 41.902 68.363.009-.051Z"/>
    <path fill="#37474F" d="m147.614 233.615.504 3.847-2.95-1.714 2.446-2.133ZM104.796 152.454 93.31 162.477l1.666 2.717 11.486-10.022-1.666-2.718ZM106.638 155.462l-11.485 10.022 1.666 2.718 11.485-10.023-1.666-2.717Z"/>
    <path fill="#37474F" d="m96.827 168.192 3.702-3.235 13.127 26.539-1.42 1.092-15.41-24.396Z"/>
    <path fill="#FAC8C2" d="M130.708 191.558c-.12 6.907-14.358 5.101-14.358 5.101 2.046 1.705 3.529 4.21 4.19 7.082.966 5.101-5.336 9.183-5.336 9.183 1.811 2.293 3.003 5.183 3.42 8.295.513 5.01-5.361 10.203-5.361 10.203.684 3.21.381 6.606-.856 9.571-3.557 7.755-14.87 8.541-22.045 9.122-7.175.582-28.015-5.785-32.094-6.53l-3.472-54.986s31.59-13.551 40.115-12.806c7.149.633 35.993 5.214 35.797 15.765Z"/>
    <path fill="#263238" d="M116.23 196.475c-7.5-2.857-15.564-3.561-23.346-4.143a.126.126 0 0 0-.096.048.179.179 0 0 0-.04.115c0 .044.014.085.04.116.025.03.06.048.097.048 7.747.469 15.58 3.418 23.294 4.254a.171.171 0 0 0 .12-.056.237.237 0 0 0 .061-.137.252.252 0 0 0-.027-.151.192.192 0 0 0-.103-.094ZM115.007 212.231a17.142 17.142 0 0 0-5.345-.51h-5.712c-3.805.092-7.61.285-11.408.612-.17 0-.196.326 0 .326 3.797-.081 7.594-.102 11.391 0 1.898.051 3.797.133 5.695.215 1.786.222 3.588.205 5.371-.051a.3.3 0 0 0 .116-.118.374.374 0 0 0 .006-.351.302.302 0 0 0-.114-.123ZM113.109 231.401c-1.471-.581-3.31-.234-4.832-.163-1.71.095-3.446.17-5.208.225-3.472.132-6.935.255-10.407.234-.18 0-.188.317 0 .317 3.523 0 7.055.142 10.578.142h5.2c1.47 0 3.309.164 4.703-.51a.1.1 0 0 0 .067-.05.142.142 0 0 0 .018-.093.123.123 0 0 0-.042-.08.092.092 0 0 0-.077-.022Z"/>
    <path fill="#0EA5E9" d="m25.183 157.57 32.957 14.968s8.637-27.264 13.058-50.783c4.421-23.518-5.798-20.947-18.01-6.02-12.21 14.928-28.005 41.835-28.005 41.835Z"/>
    <path fill="#263238" d="M68.342 142.091a.11.11 0 0 0-.007-.056.087.087 0 0 0-.033-.04.069.069 0 0 0-.046-.01.076.076 0 0 0-.043.024c-.572 1.275-1.137 2.561-1.71 3.847a197.742 197.742 0 0 0 1.65-7.867c0-.082-.093-.133-.119-.051a1336.775 1336.775 0 0 0-4.917 17.08c-1.59 5.714-3.42 11.347-4.951 17.071-.95-.225-1.463-.408-2.172-.551-.163 0-.266.183-.112.275.852.549 1.76.96 2.703 1.225 2.086-5.48 3.78-11.632 5.404-17.346a181.91 181.91 0 0 0 2.198-8.469 56.124 56.124 0 0 0 2.155-5.132Z"/>
    <path fill="#263238" d="M58.43 164.947a256.758 256.758 0 0 0-27.578-12.499c-.137-.051-.214.214-.077.286 9 4.757 18.203 8.949 27.57 12.56.154 0 .24-.275.086-.347Z"/>
    <path fill="#0EA5E9" d="M250.462 242.074H120.377v3.816h130.085v-3.816Z"/>
    <path fill="#EBEBEB" d="M176.749 242.076v-5.683l-48.222 1.112-6.337 4.571h54.559Z"/>
    <path fill="#DBDBDB" d="M176.749 242.074v-5.683s15.683.327 18.454 0c2.77-.326 16.949-1.898 19.24-1.755 2.292.143 6.773 3.377 6.773 3.377v4.082l-44.467-.021ZM249.179 242.074l-1.12-3.235s-6.892.174-7.884 0c-.992-.173-10.347-3.387-12.366-2.948-2.018.438-6.576 2.122-6.576 2.122v4.081l27.946-.02Z"/>
    <path fill="#FAC8C2" d="M69.48 108.052c.102 2.265 6.644 18.275 15.05 19.611 2.736.429 5.379-17.284 5.379-17.284l.444-1.255 6.226-17.58L78.32 71.421s-8.867 35.712-8.842 36.63Z"/>
    <path fill="#263238" d="m96.579 91.553-6.234 17.56-.436 1.266s-.488 3.204-1.24 6.856c-11.049-4.479-14.7-15.784-15.897-23.304 2.548-10.265 5.55-22.51 5.55-22.51l18.257 20.132Z"/>
    <path fill="#FAC8C2" d="M123.482 62.953c-2.172 40.814-22.893 43.875-30.273 43.283-6.687-.521-29.425-3.296-30.785-44.14C61.064 21.25 77.637 9.558 92.996 9.772c15.358.215 32.666 12.387 30.486 53.18Z"/>
    <path fill="#263238" d="M115.016 69.484c3.779.49 2.676 9.48-.855 9.02-3.532-.46-2.309-9.428.855-9.02ZM97.554 67.341c-3.763-.663-4.593 8.357-1.112 8.97 3.48.611 4.259-8.388 1.112-8.97ZM118.128 64.218a19.524 19.524 0 0 1-2.232-.949c-.822-.199-1.565-.72-2.112-1.48a1.67 1.67 0 0 1-.154-.917 1.55 1.55 0 0 1 .351-.837 2.756 2.756 0 0 1 1.48-.677 2.597 2.597 0 0 1 1.564.31c1.066.361 1.98 1.183 2.566 2.305.121.265.174.567.154.867-.021.301-.114.588-.27.827a1.332 1.332 0 0 1-.604.515c-.239.098-.497.11-.743.036ZM94.911 61.83c.79-.017 1.577-.085 2.36-.204.842.062 1.677-.207 2.378-.765a1.58 1.58 0 0 0 .35-.843 1.703 1.703 0 0 0-.154-.922 3.143 3.143 0 0 0-1.285-1.114 2.594 2.594 0 0 0-1.58-.193c-1.102.017-2.16.523-2.967 1.419-.173.216-.29.488-.338.782a1.83 1.83 0 0 0 .074.876c.095.278.255.516.462.687.206.171.45.268.7.277ZM95.698 91.993c.445.765.855 1.776 1.659 2.04.851.185 1.726.15 2.565-.101a.073.073 0 0 1 .049.01c.014.01.027.024.035.041a.123.123 0 0 1 .011.057.13.13 0 0 1-.018.055 3.008 3.008 0 0 1-1.481.914c-.554.14-1.13.1-1.666-.118a2.699 2.699 0 0 1-1.064-1.163 3.412 3.412 0 0 1-.338-1.674c0-.153.18-.173.248-.06ZM106.516 83.665s0 4.204-.231 6.122c0 .184-.419.205-.984.154h-.06c-1.431.072-2.852-.326-4.107-1.152-1.255-.826-2.295-2.048-3.008-3.532-.094-.214.137-.377.274-.235 1.877 2.037 4.256 3.294 6.781 3.582.18-.52-.188-7.265.06-7.142 1.061.397 2.899 1.275 3.583 1.601.052-2.724-.119-10.468 0-15.437 0-.306.411-.347.437-.051a156.399 156.399 0 0 1 1.06 17.427c-.017.398-3.198-.949-3.805-1.337Z"/>
    <g opacity=".2">
      <path fill="#000" d="M83.495 73.138a.633.633 0 0 1-.208.285.482.482 0 0 1-.306.1.49.49 0 0 1-.3-.12.65.65 0 0 1-.195-.297.773.773 0 0 1-.025-.377.695.695 0 0 1 .155-.33.522.522 0 0 1 .282-.172.467.467 0 0 1 .315.043.629.629 0 0 1 .29.365.783.783 0 0 1-.008.503ZM94.33 77.973a.671.671 0 0 1-.12.212.549.549 0 0 1-.18.14.471.471 0 0 1-.419-.005.617.617 0 0 1-.293-.36.773.773 0 0 1 .007-.502.608.608 0 0 1 .302-.35.468.468 0 0 1 .42.008.547.547 0 0 1 .177.144c.05.061.09.134.116.214a.755.755 0 0 1-.01.5ZM89.002 80.513a.612.612 0 0 1-.305.346.473.473 0 0 1-.422-.01.556.556 0 0 1-.177-.143.676.676 0 0 1-.117-.213.766.766 0 0 1 .004-.5.595.595 0 0 1 .306-.311.473.473 0 0 1 .401.016c.128.065.23.185.288.336.057.15.065.321.022.479ZM85.582 68.27a.639.639 0 0 1-.204.29.485.485 0 0 1-.305.107.487.487 0 0 1-.303-.113.643.643 0 0 1-.2-.295.772.772 0 0 1-.028-.377.698.698 0 0 1 .152-.333.525.525 0 0 1 .281-.176.466.466 0 0 1 .316.04.553.553 0 0 1 .177.143c.05.061.09.134.117.213a.764.764 0 0 1-.003.5ZM89.37 74.248a.703.703 0 0 1-.115.237.573.573 0 0 1-.184.162.48.48 0 0 1-.449.006.568.568 0 0 1-.187-.158.7.7 0 0 1-.119-.234.783.783 0 0 1 .036-.533.703.703 0 0 1 .114-.237.573.573 0 0 1 .185-.162.48.48 0 0 1 .449-.006c.07.037.135.09.187.157a.696.696 0 0 1 .119.235.785.785 0 0 1-.036.533ZM118.65 78.87a.612.612 0 0 1-.304.353.472.472 0 0 1-.423-.005.551.551 0 0 1-.199-.137.68.68 0 0 1-.135-.22.775.775 0 0 1-.005-.535.678.678 0 0 1 .132-.224.542.542 0 0 1 .196-.141.472.472 0 0 1 .447.043c.135.07.241.2.295.362a.78.78 0 0 1-.004.505ZM113.451 80.28a.64.64 0 0 1-.204.29.485.485 0 0 1-.305.107.49.49 0 0 1-.303-.113.642.642 0 0 1-.199-.295.766.766 0 0 1-.029-.377.7.7 0 0 1 .152-.333.525.525 0 0 1 .281-.176.467.467 0 0 1 .316.04.565.565 0 0 1 .177.143c.05.061.09.133.117.213a.755.755 0 0 1-.003.5ZM113.032 84.788a.697.697 0 0 1-.115.237.57.57 0 0 1-.184.162.485.485 0 0 1-.449.006.559.559 0 0 1-.187-.157.704.704 0 0 1-.119-.235.798.798 0 0 1 .036-.533.595.595 0 0 1 .306-.311.473.473 0 0 1 .402.017c.128.065.23.184.287.335.058.151.066.322.023.48ZM117.478 83.778a.64.64 0 0 1-.203.29.488.488 0 0 1-.305.107.487.487 0 0 1-.303-.113.635.635 0 0 1-.199-.295.766.766 0 0 1-.029-.377.7.7 0 0 1 .152-.333.525.525 0 0 1 .281-.176.467.467 0 0 1 .316.04.562.562 0 0 1 .177.143c.05.061.09.134.117.213a.755.755 0 0 1-.004.5Z" opacity=".2"/>
    </g>
    <path fill="#263238" d="M63.733 65.953c6.533 1.02 11.03-17.979 11.03-17.979s8.664-.959 15.12-17.458c0 0 1.462 18.805 28.51 23.55 2.075-5.266 2.71-11.177 1.813-16.897a137.8 137.8 0 0 1 2.763 18.948s12.194-23.948-4.276-39.15c-6.559-6.051-17.958-8.97-37.353-4.46 0 0-.487-13.264-2.822-12.305-2.335.96-1.146 13.591-1.146 13.591s-6.841-5.204-8.551-3.745c-1.463 1.255 5.25 5.867 5.25 5.867s-12.476.633-14.178 17.05c-1.59 15.101.607 32.488 3.84 32.988Z"/>
    <path fill="#263238" d="M76.175 16.427c-3.284-1.208-6.824-.94-9.954.75-3.13 1.692-5.633 4.692-7.038 8.433-1.565 4.296-1.71 9.418-1.505 14.02a68.073 68.073 0 0 0 2.634 14.55c.077.265.41.091.334-.174a52.209 52.209 0 0 1-1.71-13.468c-.06-4.255.076-8.888 1.17-12.959 1.056-3.845 3.285-7.075 6.244-9.05 2.96-1.976 6.433-2.55 9.73-1.612.215.02.309-.419.095-.49ZM104.703 7.815a45.556 45.556 0 0 0-14.11 1.46c-4.44.92-8.718 2.734-12.648 5.367a.21.21 0 0 0-.095.123.259.259 0 0 0 .005.167.2.2 0 0 0 .103.114c.046.02.097.018.141-.007 7.936-3.754 16.82-4.969 25.321-5.101 7.953-.113 16.684 2.744 20.669 11.734a.11.11 0 0 0 .062.049.097.097 0 0 0 .075-.01.125.125 0 0 0 .052-.063.15.15 0 0 0 .007-.088c-3.3-9.122-11.724-13.194-19.582-13.745Z"/>
    <path fill="#455A64" d="M89.857 83.372c-2.17-.669-4.139-2.05-5.683-3.989-1.544-1.938-2.602-4.354-3.052-6.974-.45-2.62-.275-5.337.506-7.844.78-2.506 2.135-4.701 3.91-6.335 1.774-1.633 3.898-2.64 6.128-2.904 2.23-.265 4.478.223 6.487 1.407 2.009 1.185 3.7 3.018 4.879 5.293 1.179 2.274 1.799 4.897 1.79 7.571-.013 3.778-1.281 7.396-3.524 10.062-2.244 2.665-5.281 4.162-8.448 4.162a9.865 9.865 0 0 1-2.993-.45Zm5.593-25.794a8.543 8.543 0 0 0-2.566-.398c-2.64-.014-5.187 1.174-7.12 3.322-1.932 2.147-3.107 5.093-3.283 8.238-.176 3.144.658 6.25 2.334 8.686 1.676 2.436 4.067 4.018 6.686 4.424 2.62.406 5.27-.394 7.412-2.237 2.142-1.844 3.614-4.592 4.118-7.686.503-3.094-.001-6.3-1.409-8.966-1.409-2.666-3.616-4.591-6.172-5.383ZM116.085 87.338c-4.439-1.377-7.286-8.03-6.44-15.407.357-3.535 1.63-6.85 3.643-9.479.805-1.192 1.855-2.117 3.047-2.683a6.35 6.35 0 0 1 3.759-.552c1.272.205 2.478.799 3.502 1.723 1.023.924 1.829 2.148 2.34 3.553 1.346 3.177 1.822 6.778 1.36 10.295-.856 7.806-5.576 13.5-10.442 12.703a6.152 6.152 0 0 1-.769-.153Zm4.395-26.12a3.993 3.993 0 0 0-.599-.143 5.46 5.46 0 0 0-2.99.536c-.946.461-1.786 1.187-2.448 2.117-1.78 2.337-2.901 5.28-3.207 8.417-.778 6.755 1.821 12.785 5.832 13.438 4.011.653 7.867-4.316 8.646-11.07.418-3.135-.001-6.348-1.198-9.184a7.83 7.83 0 0 0-1.655-2.563 6.344 6.344 0 0 0-2.381-1.548Z"/>
    <path fill="#455A64" d="m104.395 71.188-.719-1.368c1.711-1.265 5.431-2.734 7.517.776l-1.103.928c-1.907-3.163-5.584-.449-5.695-.336ZM55.763 66.391l-1.103-.918c.367-.623 3.625-6 6.678-6.122 2.848-.082 20.524 4.856 21.276 5.101l-.308 1.572c-5.062-1.419-18.736-5.102-20.934-5.02-2.018.04-4.729 3.908-5.61 5.387Z"/>
    <path fill="#FAC8C2" d="M68.71 66.32s-5.79-13.948-10.99-11.673c-5.198 2.276-1.949 21.57 3.362 25.09.655.509 1.39.853 2.16 1.013.77.16 1.558.132 2.32-.081a5.418 5.418 0 0 0 2.106-1.162 6.641 6.641 0 0 0 1.555-2.055L68.71 66.32Z"/>
    <path fill="#263238" d="M58.764 60.197c-.085 0-.128.123-.051.174 3.711 2.622 5.233 7.367 6.114 12.152-.95-1.949-2.428-3.194-4.6-1.877-.112.06 0 .275.076.265a3.059 3.059 0 0 1 2.137.386c.662.389 1.206 1.014 1.558 1.787a23.21 23.21 0 0 1 1.377 4.082c.136.459.803.347.726-.164v-.112c.847-6.01-2-15.132-7.337-16.693Z"/>
  </svg>
  