<svg xmlns="http://www.w3.org/2000/svg" width="378" height="393" fill="none" viewBox="0 0 378 393">
    <path fill="#455A64" d="M286.58 230.141a1.211 1.211 0 0 0 1.21-1.21v-77.4a1.222 1.222 0 0 0-.311-.926 1.221 1.221 0 0 0-.894-.394 1.207 1.207 0 0 0-1.147.824c-.053.16-.073.328-.058.496v77.4a1.21 1.21 0 0 0 1.2 1.21ZM238.69 202.001a1.207 1.207 0 0 0 1.12-.76l23.74-60.08a1.197 1.197 0 0 0-.017-.921 1.205 1.205 0 0 0-1.584-.622 1.205 1.205 0 0 0-.639.663l-23.74 60.08a1.211 1.211 0 0 0 .68 1.56c.141.051.29.078.44.08Z"/>
    <path fill="#455A64" d="M241.54 194.752a1.23 1.23 0 0 0 .88-.38l44.16-46.74 44.09 46.54a1.198 1.198 0 0 0 .839.382 1.181 1.181 0 0 0 .861-.332 1.211 1.211 0 0 0 .05-1.7l-45-47.47a1.22 1.22 0 0 0-.88-.37 1.17 1.17 0 0 0-.87.37l-45 47.67a1.203 1.203 0 0 0-.28.609 1.216 1.216 0 0 0 1.15 1.391v.03Z"/>
    <path fill="#455A64" d="M334.47 202.001c.15-.002.299-.029.44-.08a1.207 1.207 0 0 0 .664-.639 1.191 1.191 0 0 0 .016-.921l-23.73-60.08a1.205 1.205 0 0 0-2.223-.041 1.21 1.21 0 0 0-.017.921l23.73 60.08a1.206 1.206 0 0 0 1.12.76Z"/>
    <path fill="#0EA5E9" d="m240.33 192.891-3.14 8.28a.739.739 0 0 0 0 .21v.15c.087.228.254.416.47.53a2.142 2.142 0 0 0 1.91 0 .879.879 0 0 0 .38-.39v-.11l2.91-7.77-2.53-.9ZM332.84 192.891l3.13 8.28c.01.069.01.14 0 .21.01.049.01.1 0 .15a1.004 1.004 0 0 1-.47.53 2.142 2.142 0 0 1-1.91 0 .857.857 0 0 1-.37-.39v-.11l-2.91-7.77 2.53-.9ZM285.19 222.941v6.85a.706.706 0 0 0 .41.57 2.174 2.174 0 0 0 2 0 .706.706 0 0 0 .41-.57v-6.85a2.922 2.922 0 0 0-2.82 0ZM232.75 132.452c0-2.15 1.89-4.45 5.89-7 7.38-4.79 28.86-16.78 39.18-22.5a.12.12 0 0 1 .09-.09c7.95-4.82 10.36-25.4 15.86-42.85 1.87-6 4.17-9.31 6.89-10.89.65-.38 3-1.69 3.56-2 5.4-3.23 12.48.65 21.3 5.48 8.13 4.4 14.48 10.09 15.75 25.2.78 9.2 0 26.77-1.83 40.1-2.71 22.26-6 22.3-10.85 26-8.3 6.41-27 15.42-34.85 18.52-14.29 5.62-26-3-34.66-7.34a202.645 202.645 0 0 1-23-13.66c-2.18-1.58-3.31-3.18-3.28-4.86-.03-.67-.05-3.41-.05-4.11Z"/>
    <path fill="#000" d="M232.75 132.452c0-2.15 1.89-4.45 5.89-7 7.38-4.79 28.86-16.78 39.18-22.5a.12.12 0 0 1 .09-.09c7.95-4.82 10.36-25.4 15.86-42.85 1.87-6 4.17-9.31 6.89-10.89.65-.38 3-1.69 3.56-2 5.4-3.23 12.48.65 21.3 5.48 8.13 4.4 14.48 10.09 15.75 25.2.78 9.2 0 26.77-1.83 40.1-2.71 22.26-6 22.3-10.85 26-8.3 6.41-27 15.42-34.85 18.52-14.29 5.62-26-3-34.66-7.34a202.645 202.645 0 0 1-23-13.66c-2.18-1.58-3.31-3.18-3.28-4.86-.03-.67-.05-3.41-.05-4.11Z" opacity=".5"/>
    <path fill="#0EA5E9" d="M259.09 150.941a202.35 202.35 0 0 1-23-13.66c-5-3.59-4.5-7.27 2.6-11.87 9.85-6.4 44.85-25.64 44.85-25.64s50.79 30 48.61 35.51c-2.18 5.51-28.45 19.1-38.35 23-14.34 5.62-26.01-3.04-34.71-7.34Z"/>
    <path fill="#000" d="M259.09 150.941a202.35 202.35 0 0 1-23-13.66c-5-3.59-4.5-7.27 2.6-11.87 9.85-6.4 44.85-25.64 44.85-25.64s50.79 30 48.61 35.51c-2.18 5.51-28.45 19.1-38.35 23-14.34 5.62-26.01-3.04-34.71-7.34Z" opacity=".3"/>
    <path fill="#0EA5E9" d="M301 48.89c5.34-2.8 12.29 1 20.89 5.72 5.5 3 10.19 6.59 13 13.29l3.63-2.1c-2.85-6.67-7.53-10.24-13-13.25-8.82-4.83-15.9-8.71-21.3-5.48L301 48.89Z"/>
    <path fill="#000" d="M301 48.89c5.34-2.8 12.29 1 20.89 5.72 5.5 3 10.19 6.59 13 13.29l3.63-2.1c-2.85-6.67-7.53-10.24-13-13.25-8.82-4.83-15.9-8.71-21.3-5.48L301 48.89Z" opacity=".3"/>
    <path fill="#0EA5E9" d="M321.87 54.61c-13.2-7.22-22.52-12.36-28.1 5.36-5.5 17.45-7.91 38-15.86 42.85 0 0-2.42.21 17.34 15.14 6.29 4.75 13.92 8.64 18.93 11.63 9.82 5.85 15.77 8.2 16.72 7.42 5.19-4.31 8-42 6.72-57.15-1.28-15.15-7.62-20.8-15.75-25.25Z"/>
    <path fill="#FFA8A7" d="M264.71 210.221h-9.45v16.17h9.45v-16.17ZM238.68 214.77l-9.45.32-.47-17.11 9.44-.33.48 17.12Z"/>
    <path fill="#26334D" d="M229.13 212.181c-.49 0-.89.71-2 1.88-1.31 1.42-4.23 2.9-6.34 3.95-3.54 1.77-12.8 4.15-15.91 5.55-2 .88-1.46 3.9 1.3 5.6 2.05 1.26 8.6 2.49 14.43 1.18 3.17-.71 8-2.91 10.37-3.28 2.58-.41 7.35-.91 9.28-2.24 1.93-1.33 1.16-4.17.61-6.61-.6-2.67-1.45-6.75-2.33-6.57v.84c-1.14 1.72-6.92 2.43-9.42 1.16l.01-1.46ZM255.26 221.812c-.5 0-.9.71-2 1.88-1.31 1.42-4.23 2.9-6.34 3.95-3.54 1.77-12.8 4.15-15.91 5.55-1.95.88-1.46 3.9 1.3 5.6 2.05 1.26 8.6 2.49 14.43 1.18 3.17-.71 8-2.91 10.37-3.28 2.58-.41 7.35-.91 9.28-2.24 1.93-1.33 1.16-4.17.61-6.61-.59-2.67-1.45-6.75-2.33-6.56v.83c-1.14 1.72-6.92 2.43-9.41 1.16v-1.46Z"/>
    <path fill="#455A64" d="M317.14 128.41c.54 11.38-.79 14.86-19.7 24.6-9.42 4.85-25.86 13.42-25.86 13.42s.73 3.66.83 14.12c.09 9.21-7.19 37.76-7.19 37.76s-7.69 4-10.78 0c0 0-.11-21.05 0-32.72.17-18.56-.8-23.59 0-27 .57-2.4 19.14-18.69 19.14-18.69l5-3.15-30.93 19.66s-.63 9-1.52 14.63c-2.13 13.2-7.45 34.96-7.45 34.96s-6.88 3.08-10.29.42c0 0-.71-53.33-.71-57.81 0-6.81 10.94-14.47 35.95-29.25 5.33-3.15 12.45-6.63 12.45-6.63l41.06 15.68Z"/>
    <path fill="#37474F" d="M278.54 136.77S274 134.52 270 126a21.644 21.644 0 0 0 2.77 8.75c1.8 2.82-25.16 21.69-25.16 21.69l30.93-19.67Z"/>
    <path fill="#FFA8A7" d="M269.86 64c-2.54 5.38-11.49 28.05-11.49 28.05l7.27 12.33c2.72-2.26 10.22-20.77 11.14-22.2 2.47-3.84 6.86-28.52 6.86-28.52-9.24.34-11.2 4.86-13.78 10.34Z"/>
    <path fill="#0EA5E9" d="M292.23 54.871a14.474 14.474 0 0 0-5.45-1.51c-8-1-12.72 1.53-15.55 6.08-3.77 6.07-11.3 26.42-11.3 26.42s4.57 7 13.21 8l13.38-23.08 5.71-15.91Z"/>
    <path fill="#000" d="M292.23 54.871a14.474 14.474 0 0 0-5.45-1.51c-8-1-12.72 1.53-15.55 6.08-3.77 6.07-11.3 26.42-11.3 26.42s4.57 7 13.21 8l13.38-23.08 5.71-15.91Z" opacity=".5"/>
    <path fill="#F5F5F5" d="M301.54 53.8c1.11.27 10.32 2.42 14.38 3.8v31.11l1.22 39.7c-6.7 7.29-42 2.69-46.13-12.8 0 0 .22-37.76.22-45.2 0-7.44 4.14-16.38 15.55-17l14.76.39Z"/>
    <path fill="#0EA5E9" d="M309 17.19a4.9 4.9 0 0 0-2.63-1.41l3.43-1.85a2.75 2.75 0 0 0-1.632-1.44 2.758 2.758 0 0 0-2.168.19 3 3 0 0 0-1.28 3.79l-1.2 13.33-1.13-.11-.47 7.75-.13 6.45c3.11-.08 5.43-3.13 7.21-13.55 1.4-7.87 1.77-11.34 0-13.15Z"/>
    <path fill="#000" d="M309 17.19a4.9 4.9 0 0 0-2.63-1.41l3.43-1.85a2.75 2.75 0 0 0-1.632-1.44 2.758 2.758 0 0 0-2.168.19 3 3 0 0 0-1.28 3.79l-1.2 13.33-1.13-.11-.47 7.75-.13 6.45c3.11-.08 5.43-3.13 7.21-13.55 1.4-7.87 1.77-11.34 0-13.15Z" opacity=".5"/>
    <path fill="#0EA5E9" d="M268.65 12.721c-1.71-1-2.16 1-1.22 2.66a8.003 8.003 0 0 0 6.49 4.32c.05-.24 1.6-4.36 1.6-4.36l-3.37-1.9a8.691 8.691 0 0 1-3.5-.72Z"/>
    <path fill="#000" d="M268.65 12.721c-1.71-1-2.16 1-1.22 2.66a8.003 8.003 0 0 0 6.49 4.32c.05-.24 1.6-4.36 1.6-4.36l-3.37-1.9a8.691 8.691 0 0 1-3.5-.72Z" opacity=".5"/>
    <path fill="#FFA8A7" d="M302.13 31c.83.5 2-1.1 3-2.17 1-1.07 4.36-2.53 6 1 1.64 3.53-1.47 8.31-4.1 9.14-4.54 1.42-5.22-1.49-5.22-1.49l-.34 16.36s-3 7.26-11 8.35c-8 1.09-6.39-5.54-3.75-8.79v-5a28.708 28.708 0 0 1-6.12.31c-3.33-.52-5.43-3.15-6.44-6.76-1.62-5.79-2.24-10.47-.86-21.88 1.51-12.49 16-12.62 23.89-7.68 7.89 4.94 4.94 18.61 4.94 18.61Z"/>
    <path fill="#0EA5E9" d="M302.13 32.38c.42 0 2-2.63 3-3.57 1.43-1.3-.42-13.1-.42-13.1s1.45-4.47-1.38-7.44c-2.83-2.97-8.31-2.47-12.32-2.61a36 36 0 0 1-14.34-2.88c-5.69-2.47-6.12-2.76-6.82-.26-.7 2.5-1 8.22 2.42 12.06l2.83 1s1.53 1.36 6.84 2c5.31.64 13.58-.12 14.71-.28 1.54-.21 1.87 1.29 2.7 5.36.77 3.62 1.38 9.69 2.78 9.72Z"/>
    <path fill="#000" d="M302.13 32.38c.42 0 2-2.63 3-3.57 1.43-1.3-.42-13.1-.42-13.1s1.45-4.47-1.38-7.44c-2.83-2.97-8.31-2.47-12.32-2.61a36 36 0 0 1-14.34-2.88c-5.69-2.47-6.12-2.76-6.82-.26-.7 2.5-1 8.22 2.42 12.06l2.83 1s1.53 1.36 6.84 2c5.31.64 13.58-.12 14.71-.28 1.54-.21 1.87 1.29 2.7 5.36.77 3.62 1.38 9.69 2.78 9.72Z" opacity=".5"/>
    <path fill="#F28F8F" d="M286.8 48.391s7.44-1.5 10-2.89a8.549 8.549 0 0 0 3.6-3.56 11.808 11.808 0 0 1-2 4.2c-1.91 2.43-11.6 4.23-11.6 4.23v-1.98Z"/>
    <path fill="#26334D" d="M285.67 29.05a1.49 1.49 0 1 0 1.49-1.55 1.513 1.513 0 0 0-1.066.466 1.532 1.532 0 0 0-.424 1.084Z"/>
    <path fill="#455A64" d="m287.25 23.42 3.19 1.76a1.911 1.911 0 0 0-.74-2.54 1.781 1.781 0 0 0-2.45.78Z"/>
    <path fill="#F28F8F" d="m285.47 39.352-3.41 1.28a1.79 1.79 0 0 0 2.32 1.13 1.909 1.909 0 0 0 1.09-2.41Z"/>
    <path fill="#455A64" d="m273.69 24.661 2.91-2.24a1.76 1.76 0 0 0-2.53-.39 1.942 1.942 0 0 0-.38 2.63Z"/>
    <path fill="#26334D" d="M274 28.14a1.49 1.49 0 1 0 1.49-1.55 1.513 1.513 0 0 0-1.066.466A1.53 1.53 0 0 0 274 28.14Z"/>
    <path fill="#F28F8F" d="m281.36 27.21-.49 8.97-4.68-1.6 5.17-7.37Z"/>
    <path fill="#FFA8A7" d="M312.55 56.932s5.94 1 8.67 6.42c1.64 3.23 7 11.65 10.34 17.32l3.1 5.31s20.34-10.78 21.47-12.19c1.13-1.41 1.07-4.27 1.24-5.81.29-2.57-.65-4.79-.79-5.71-.28-2 2.56-1.52 3.46-.74a8.51 8.51 0 0 1 1.46 2.12c.44.74 1.27 3.13 2.11 3.28.66.12 2-.82 2.51-1.23 2.24-1.68 3.62-4 5.33-6.16a3.15 3.15 0 0 1 1.23-1.07 3.002 3.002 0 0 1 2.5.66 5.724 5.724 0 0 1 1.82 1.63c.297.504.507 1.055.62 1.63.89 3.89-1.08 7.18-3.44 10.12a35.42 35.42 0 0 1-8.32 7.36c-1.85 1.21-4.3 2.28-6.39 3.42-2.09 1.14-26.24 21.71-29.47 19.58-1.3-.89-5.3-5.88-9.17-10.59a70.976 70.976 0 0 1-6.95-10c-8.75-7.79-1.33-25.35-1.33-25.35Z"/>
    <path fill="#0EA5E9" d="M311.14 79.921c-4.75-9.34-2.48-20.31.89-23.48 8.57 1.47 9.63 5.87 14 13.54 6.32 11.14 8.78 14.51 8.78 14.51-2.14 2.86-8.33 10.16-12.51 10.39l-11.16-14.96Z"/>
    <path fill="#000" d="M311.14 79.921c-4.75-9.34-2.48-20.31.89-23.48 8.57 1.47 9.63 5.87 14 13.54 6.32 11.14 8.78 14.51 8.78 14.51-2.14 2.86-8.33 10.16-12.51 10.39l-11.16-14.96Z" opacity=".5"/>
    <path fill="#455A64" d="M121.37 230.601a1.21 1.21 0 0 1-1.2-1.21v-77.39a1.206 1.206 0 0 1 1.205-1.101 1.209 1.209 0 0 1 1.205 1.101V229.4a1.211 1.211 0 0 1-1.21 1.201ZM169.27 202.421a1.192 1.192 0 0 1-1.12-.76l-23.74-60.07a1.208 1.208 0 0 1 .218-1.394 1.207 1.207 0 0 1 2.022.504l23.73 60.08a1.197 1.197 0 0 1-.008.921 1.183 1.183 0 0 1-.662.639c-.14.055-.29.082-.44.08Z"/>
    <path fill="#455A64" d="M166.41 195.211a1.197 1.197 0 0 1-.87-.38l-44.17-46.74-44.08 46.54a1.205 1.205 0 0 1-1.7.05 1.214 1.214 0 0 1-.377-.84 1.206 1.206 0 0 1 .327-.86l45-47.47a1.18 1.18 0 0 1 .87-.37 1.174 1.174 0 0 1 .87.38l45 47.66a1.214 1.214 0 0 1 .191 1.278 1.209 1.209 0 0 1-1.071.722l.01.03Z"/>
    <path fill="#455A64" d="M73.48 202.421a1.186 1.186 0 0 1-1.104-.718 1.2 1.2 0 0 1-.016-.922l23.74-60.08a1.209 1.209 0 1 1 2.24.89l-23.74 60.07a1.19 1.19 0 0 1-1.12.76Z"/>
    <path fill="#0EA5E9" d="m167.63 193.352 3.14 8.28a.81.81 0 0 1 0 .22v.15a1.056 1.056 0 0 1-.48.52 2.154 2.154 0 0 1-1.91 0 .91.91 0 0 1-.37-.39v-.11l-2.91-7.76 2.53-.91ZM75.12 193.352l-3.12 8.28a.78.78 0 0 0 0 .22v.15c.095.223.265.407.48.52a2.151 2.151 0 0 0 1.91 0c.16-.09.29-.226.37-.39v-.11l2.91-7.76-2.55-.91ZM122.76 223.401v6.85a.688.688 0 0 1-.4.57 2.2 2.2 0 0 1-2 0 .688.688 0 0 1-.4-.57v-6.85a3.009 3.009 0 0 1 2.8 0Z"/>
    <path fill="#26334D" d="M175.2 140.77c0-2.15-1.89-4.45-5.88-7-7.38-4.79-28.86-16.78-39.19-22.5a.105.105 0 0 0-.027-.057.109.109 0 0 0-.053-.033c-8-4.82-10.36-25.4-15.86-42.85-1.88-6-4.17-9.31-6.9-10.9-.64-.37-3-1.68-3.55-2-5.4-3.23-12.48.65-21.3 5.48-8.13 4.45-14.48 10.14-15.76 25.25-.77 9.2 0 26.77 1.84 40.1 2.71 22.26 6 22.3 10.85 26 8.29 6.41 27 15.42 34.85 18.52 14.28 5.62 26-3 34.65-7.34a202.601 202.601 0 0 0 23.06-13.66c2.18-1.58 3.3-3.18 3.28-4.86-.02-.71 0-3.45-.01-4.15Z"/>
    <path fill="#37474F" d="M148.86 159.262a202.749 202.749 0 0 0 23.06-13.66c5-3.59 4.49-7.27-2.6-11.87-9.86-6.4-44.86-25.64-44.86-25.64s-50.79 30-48.6 35.51c2.19 5.51 28.45 19.1 38.35 23 14.28 5.62 25.96-3.05 34.65-7.34Z"/>
    <path fill="#455A64" d="M107 57.211c-5.35-2.8-12.3 1-20.89 5.72-5.5 3-10.2 6.59-13.05 13.28l-3.62-2.09c2.85-6.67 7.53-10.24 13-13.25 8.82-4.83 15.9-8.71 21.3-5.48l3.26 1.82Z"/>
    <path fill="#37474F" d="M86.09 62.93c13.2-7.22 22.51-12.36 28.1 5.36 5.5 17.45 7.91 38 15.86 42.85 0 0 2.42.21-17.34 15.14-6.29 4.75-13.92 8.64-18.93 11.63-9.82 5.85-15.78 8.2-16.72 7.42-5.19-4.31-8-42-6.72-57.15 1.28-15.15 7.66-20.8 15.75-25.25Z"/>
    <path fill="#26334D" d="M136.63 187.15c-.78.67-1.68 1.45-1.68 2.39a9.46 9.46 0 0 0 2 5.55c1.73 2.32 2.6 6.48 2.68 9.26.08 2.78-.38 9.79 2.81 12.89 3.19 3.1 11.47 5.35 12 .25.53-5.1-7.53-25.71-7.53-25.71l-10.28-4.63Z"/>
    <path fill="#C78A8C" d="M141 190.912a74.972 74.972 0 0 1 2.28 11.29c.44 4.17 1.35 7.18 3.32 8.49 1.97 1.31 5.11 1.44 4.22-1.46-.89-2.9-3.89-17.45-3.89-17.45l-5.93-.87Z"/>
    <path fill="#0EA5E9" d="M125.12 113.65s18.76 7.09 26.37 12.23c7.61 5.14 11.57 8.73 12.81 12.38 1.32 3.86.56 9.11-4.07 22.79-1 3-6.85 21.88-6.85 21.88l-13.64-32L117 133.88l8.12-20.23Z"/>
    <path fill="#fff" d="M125.12 113.65s18.76 7.09 26.37 12.23c7.61 5.14 11.57 8.73 12.81 12.38 1.32 3.86.56 9.11-4.07 22.79-1 3-6.85 21.88-6.85 21.88l-13.64-32L117 133.88l8.12-20.23Z" opacity=".5"/>
    <path fill="#26334D" d="M153 217.74c-.73.38-.81 2.07-.87 3.31-.06 1.24-1.12 2.78.48 4.87 1.6 2.09 4.61 2.57 6.79 5.42 2.18 2.85 3.57 6.92 10.27 8 6.7 1.08 11.62-1.42 12.75-3.46 1.13-2.04-.09-3.85-4.46-6-4.63-2.32-6-3-6-3L153 217.74Z"/>
    <path fill="#F6CCCE" d="M159.39 203.73s3.7 8.67 5.87 12.62c2.17 3.95 3.57 6.5 7.18 9.9.79.74 2.54 2.09 3.18 2.69a1.278 1.278 0 0 1 .523.983 1.275 1.275 0 0 1-.453 1.017c-1.3 1.52-7.34 2.46-11 .26s-5.64-5.6-7.89-7.45c-1.12-.92-2.17-1.81-2.95-2.46a2.76 2.76 0 0 1-1-2.56c0-.27.09-.59.14-1 .27-2-3.15-9.81-3.15-9.81l9.55-4.19Z"/>
    <path fill="#0EA5E9" d="M79.36 117.23c-2.64 7.68-3.07 17.53 3.95 24 4.67 4.29 15 11.08 23.1 14.81 8.1 3.73 20.41 9.9 22.81 10.68 2.4.78 2.77 2.15 2.9 6.55.13 4.4 2.36 11.41 8.13 19.88 6.1 8.94 9.63 14.8 9.63 14.8a10.2 10.2 0 0 0 10-3.54s-11.22-46.54-13.75-52.06c-2.53-5.52-25.13-21.22-25.13-21.22a178.07 178.07 0 0 0 4.14-17.48l-45.78 3.58Z"/>
    <path fill="#fff" d="M79.36 117.23c-2.64 7.68-3.07 17.53 3.95 24 4.67 4.29 15 11.08 23.1 14.81 8.1 3.73 20.41 9.9 22.81 10.68 2.4.78 2.77 2.15 2.9 6.55.13 4.4 2.36 11.41 8.13 19.88 6.1 8.94 9.63 14.8 9.63 14.8a10.2 10.2 0 0 0 10-3.54s-11.22-46.54-13.75-52.06c-2.53-5.52-25.13-21.22-25.13-21.22a178.07 178.07 0 0 0 4.14-17.48l-45.78 3.58Z" opacity=".5"/>
    <path fill="#000" d="M150.05 155.08c-1.78-5.66-6.49-9.77-10.94-13.21-3.65-2.8-13-9.57-16.19-11.92a35.961 35.961 0 0 0 1.49-6.47s-2.18 5.21-3.43 7.65c0 0 22.7 15.86 25.15 21.2 1.41 3.07 5.05 19.73 8.8 32-.39-1.88-3.2-23.87-4.88-29.25Z" opacity=".2"/>
    <path fill="#F6CCCE" d="M62.4 100.211s-23.12-4.21-24.67-5.21c-1.55-1-2.37-3.82-3-5.26-1.08-2.42-.85-4.86-1-5.81-.33-2-2.95-.68-3.59.36a8.91 8.91 0 0 0-.76 2.51c-.2.86-.26 3.44-1 3.86-.6.32-2.17-.19-2.82-.42-2.7-1-4.77-2.8-7.1-4.35a3.11 3.11 0 0 0-1.53-.65 3 3 0 0 0-2.23 1.41 5.87 5.87 0 0 0-1.26 2.15 5.081 5.081 0 0 0-.1 1.78c.34 4.06 3.28 6.65 6.49 8.78a36.073 36.073 0 0 0 10.31 4.64c2.18.6 4.89.89 7.28 1.35 2.39.46 31 12 34 9.49 1.86-1.57 3.73-7.94 5.72-13.83A169.893 169.893 0 0 0 82 82.371a30.25 30.25 0 0 0-5-18.17s-5.47 1.11-7.6 9.22c-.93 3.57-4.16 14.11-5.63 20.67-.81 3.56-1.38 6.12-1.38 6.12"/>
    <path fill="#E0E0E0" d="M84.12 79.791c3-7 1.11-18.59-2.27-21.76-8.57 1.47-10.73 5.51-13.09 13.49-3.63 12.28-5.46 20.25-5.46 20.25 2.14 2.85 11.88 6.42 15.89 5.2l4.93-17.18ZM108.14 56.38a13.4 13.4 0 0 1 7.38-2.15c3.86.25 8.27 1.61 11.09 6.15 3.78 6.07 12.57 19.41 12.57 19.41a17.34 17.34 0 0 1-11.83 11.82l-13.51-19.33-5.7-15.9Z"/>
    <path fill="#F5F5F5" d="M122.54 87.192c.63 5.88 2.58 26.46 2.58 26.46-3.9 10-14.48 10.59-23 10.68-10.26.12-19.92-2.58-22.72-7.05a102.781 102.781 0 0 0 5.58-17.69l-3.76-16.44s9-8.19 0-24.94l11.9-3.56 14.18-1.16 8.26.74c4.66 3.41 7.75 10.35 9.24 14.17 1.49 3.82 4.51 10.83-2.26 18.79Z"/>
    <path fill="#EBEBEB" d="m83.2 106.421.37-1.29c.92-3.32 1.37-5.54 1.37-5.54l-3.76-16.44.38-.41c1.19-1.38 4.26-5.73 3.38-13.13 0 0 2.59 9.46-.77 14.38l3.18 14.25 4.59 6.68-5.57-2.19s-2 7.86-2.2 10.45c-.13 2 4.6 8.64 14.73 11.18-9.05-.4-17.1-3-19.61-7a97.016 97.016 0 0 0 3.91-10.94Z"/>
    <path fill="#26334D" d="M101.14 2.191a23.582 23.582 0 0 1 23.58 23.58v25.36H95.83a18.27 18.27 0 0 1-18.27-18.27v-7.1a23.58 23.58 0 0 1 23.58-23.57Z"/>
    <path fill="#0EA5E9" d="M92.77 31.821c20.76.22 22.58-19.46 22.58-19.46a76.82 76.82 0 0 1-22.58 19.46Z"/>
    <path fill="#37474F" d="M83.47 9.45a3 3 0 0 0-3.9-1.94l1.37 4.5a3.15 3.15 0 0 0-1.49-1.11 3 3 0 0 0-3.87 2l5.86 2.1a3.35 3.35 0 0 0 .08-1.57 3.26 3.26 0 0 0 1.95-3.98Z"/>
    <path fill="#F6CCCE" d="M115.35 12.361c2.53 1.4 5.78 7.58 5.84 20.72 0 11.14-3.49 14-5.28 14.83-1.79.83-5.3.46-8.71 0l.06 5.6s6.13 5.71 5.91 8.78c-.22 3.07-7.83 4.67-12.3 1.79-4.47-2.88-8.35-8.52-8.35-8.52l-.33-15.44s-1.94 2-5.41-.87c-2.87-2.37-3.92-6.47-1.8-8.75a4.87 4.87 0 0 1 7.79 1.34s5.43.05 12.53-4.11a20.242 20.242 0 0 0 10.05-15.37Z"/>
    <path fill="#26334D" d="M110.09 30.002a1.4 1.4 0 1 1-1.51-1.34 1.44 1.44 0 0 1 1.51 1.34Z"/>
    <path fill="#C78A8C" d="m109.32 40.05 3.27 1a1.667 1.667 0 0 1-2.694.894 1.77 1.77 0 0 1-.644-1.202c-.023-.232 0-.467.068-.691Z"/>
    <path fill="#26334D" d="m120 25.352-2.88-1.89a1.67 1.67 0 0 1 1.054-.771 1.665 1.665 0 0 1 1.286.23 1.807 1.807 0 0 1 .54 2.43ZM120.12 28.572a1.417 1.417 0 0 1-.315 1.043 1.406 1.406 0 0 1-.965.507 1.457 1.457 0 0 1-1.457-.748 1.46 1.46 0 1 1 2.737-.802Z"/>
    <path fill="#C78A8C" d="m113.69 28.412.16 9.12 4.4-1.49-4.56-7.63ZM107.2 47.89c-3.59-.37-11-2.29-12.24-5.17a7.54 7.54 0 0 0 2.68 3.65c2.26 1.82 9.59 3.75 9.59 3.75l-.03-2.23Z"/>
    <path fill="#455A64" d="M197.46 362.421a1.14 1.14 0 0 0 .68 1 3.752 3.752 0 0 0 3.39 0 1.215 1.215 0 0 0 .71-1l.06-97.53-4.78.07-.06 97.46Z"/>
    <path fill="#37474F" d="M200.09 363.811a3.392 3.392 0 0 0 1.44-.4 1.207 1.207 0 0 0 .71-1l.06-97.53h-2.14l-.07 98.93Z"/>
    <path fill="#26334D" d="M198.21 265.921a3.734 3.734 0 0 0 3.38 0c.94-.55 1-1.42 0-2a3.777 3.777 0 0 0-3.39 0c-.91.59-.92 1.47.01 2Z"/>
    <path fill="#455A64" d="M335.38 282.421a1.14 1.14 0 0 0 .68 1 3.705 3.705 0 0 0 3.38 0 1.177 1.177 0 0 0 .71-1l.06-97.53-4.78.07-.05 97.46Z"/>
    <path fill="#37474F" d="M338 283.811a3.16 3.16 0 0 0 1.43-.4 1.177 1.177 0 0 0 .71-1l.06-97.53h-2.15l-.05 98.93Z"/>
    <path fill="#26334D" d="M336.12 185.921a3.752 3.752 0 0 0 3.39 0c.94-.55.95-1.42 0-2a3.756 3.756 0 0 0-3.38 0c-.92.59-.93 1.47-.01 2Z"/>
    <path fill="#455A64" d="M55.88 280.25a1.119 1.119 0 0 0 .68 1 3.74 3.74 0 0 0 3.39 0 1.225 1.225 0 0 0 .71-1l.06-97.52-4.78.06-.06 97.46Z"/>
    <path fill="#37474F" d="M58.51 281.631a3.387 3.387 0 0 0 1.44-.39 1.233 1.233 0 0 0 .71-1l.06-97.52h-2.14l-.07 98.91Z"/>
    <path fill="#26334D" d="M56.63 183.751a3.758 3.758 0 0 0 3.38 0c.94-.54.95-1.42 0-1.95a3.753 3.753 0 0 0-3.39 0c-.91.54-.92 1.41.01 1.95Z"/>
    <path fill="#0EA5E9" d="M30.88 197.821v-.82a4.625 4.625 0 0 1 2.1-3.63l168.38-97.21a4.66 4.66 0 0 1 4.18 0L356 183.001a4.607 4.607 0 0 1 2.09 3.62v.84a4.618 4.618 0 0 1-2.09 3.62l-168.41 97.24a4.623 4.623 0 0 1-4.19 0L33 201.451a4.631 4.631 0 0 1-2.12-3.63Z"/>
    <path fill="#fff" d="M30.88 197.821v-.82a4.625 4.625 0 0 1 2.1-3.63l168.38-97.21a4.66 4.66 0 0 1 4.18 0L356 183.001a4.607 4.607 0 0 1 2.09 3.62v.84a4.618 4.618 0 0 1-2.09 3.62l-168.41 97.24a4.623 4.623 0 0 1-4.19 0L33 201.451a4.631 4.631 0 0 1-2.12-3.63Z" opacity=".7"/>
    <path fill="#0EA5E9" d="M185.5 283.16v5.67a4.459 4.459 0 0 1-2.1-.5L33 201.45a4.597 4.597 0 0 1-2.09-3.62V197a4.619 4.619 0 0 1 1.7-3.35c-.75.64-.63 1.55.39 2.14l150.4 86.87a4.234 4.234 0 0 0 2.1.5Z"/>
    <path fill="#fff" d="M185.5 283.16v5.67a4.459 4.459 0 0 1-2.1-.5L33 201.45a4.597 4.597 0 0 1-2.09-3.62V197a4.619 4.619 0 0 1 1.7-3.35c-.75.64-.63 1.55.39 2.14l150.4 86.87a4.234 4.234 0 0 0 2.1.5Z" opacity=".6"/>
    <path fill="#0EA5E9" d="m33 195.781 150.4 86.87a4.624 4.624 0 0 0 4.19 0L356 185.441a1.27 1.27 0 0 0 0-2.41l-150.46-86.88a4.66 4.66 0 0 0-4.18 0L33 193.361a1.28 1.28 0 0 0 0 2.42Z"/>
    <path fill="#fff" d="m33 195.781 150.4 86.87a4.624 4.624 0 0 0 4.19 0L356 185.441a1.27 1.27 0 0 0 0-2.41l-150.46-86.88a4.66 4.66 0 0 0-4.18 0L33 193.361a1.28 1.28 0 0 0 0 2.42Z" opacity=".8"/>
    <path fill="#000" d="M150.37 229.211a4.21 4.21 0 0 1-2.08-.52l-45.65-26.35a2.486 2.486 0 0 1-1.375-2.22 2.478 2.478 0 0 1 1.375-2.22l25.93-15a4.324 4.324 0 0 1 4.15 0l45.65 26.35a2.476 2.476 0 0 1 1.003 3.525c-.243.392-.59.709-1.003.915l-25.93 15a4.172 4.172 0 0 1-2.07.52Z" opacity=".1"/>
    <path fill="#37474F" d="M178.67 210.302a2.56 2.56 0 0 1-1.19 2l-25.92 15a2.63 2.63 0 0 1-2.38 0l-45.65-26.36a2.238 2.238 0 0 1-.873-.821 2.236 2.236 0 0 1 0-2.308 2.23 2.23 0 0 1 .873-.821l25.92-15a2.631 2.631 0 0 1 2.38 0l45.65 26.35a2.56 2.56 0 0 1 1.19 1.96Z"/>
    <path fill="#26334D" d="M150.37 225.002v2.57c.414.01.824-.087 1.19-.28l25.92-15a2.232 2.232 0 0 0 .12-3.88c.54.38.5.94-.12 1.3l-25.92 15a2.445 2.445 0 0 1-1.19.29Z"/>
    <path fill="#455A64" d="M179.79 208.371c.62-.36.58-1 .58-1.72v-35.81a2.625 2.625 0 0 0-1.19-2.06l-45.65-26.35a2.568 2.568 0 0 0-2.3-.05c-.62.36-.59 1-.59 1.72v35.81a2.644 2.644 0 0 0 1.19 2.06l45.65 26.35a2.572 2.572 0 0 0 2.31.05Z"/>
    <path fill="#26334D" d="M177.62 208.402a2.602 2.602 0 0 0 2.17 0c.62-.36.58-1 .58-1.72v-35.84a2.361 2.361 0 0 0-.35-1.17l-1.7 1c.217.352.338.756.35 1.17v35.81c0 .69-.46 1.01-1.05.75Z"/>
    <path fill="#37474F" d="M178.67 171.83v35.81c0 .76-.53 1.06-1.19.68L131.83 182a2.634 2.634 0 0 1-.839-.889 2.639 2.639 0 0 1-.351-1.171V144.1c0-.76.54-1.07 1.19-.69l45.65 26.36a2.63 2.63 0 0 1 1.19 2.06Z"/>
    <path fill="#455A64" d="m177.48 209.702-25.92 15a2.631 2.631 0 0 1-2.38 0l-45.65-26.36a.716.716 0 0 1-.498-.685.718.718 0 0 1 .498-.685l25.92-15a2.63 2.63 0 0 1 2.38 0l45.65 26.35a.733.733 0 0 1 .492.69.733.733 0 0 1-.492.69Z"/>
    <path fill="#0EA5E9" d="m176.84 171.142-44-25.4c-.39-.23-.71 0-.71.41v33a1.565 1.565 0 0 0 .71 1.23l44 25.41c.4.22.72 0 .72-.42v-33a1.566 1.566 0 0 0-.72-1.23Z"/>
    <path fill="#fff" d="m176.84 171.142-44-25.4c-.39-.23-.71 0-.71.41v33a1.565 1.565 0 0 0 .71 1.23l44 25.41c.4.22.72 0 .72-.42v-33a1.566 1.566 0 0 0-.72-1.23Z" opacity=".6"/>
    <path fill="#26334D" d="m174.19 208.392-42.37-24.46a1.332 1.332 0 0 0-1.2 0l-.7.39a.362.362 0 0 0-.186.56.365.365 0 0 0 .186.13l42.38 24.46a1.308 1.308 0 0 0 1.19 0l.7-.39a.36.36 0 0 0 0-.69ZM170.86 210.372l-42.37-24.46a1.202 1.202 0 0 0-1.09-.06l-11 6.37c-.28.15-.23.43.1.62l42.32 24.43a1.238 1.238 0 0 0 1.09.07l11.09-6.34c.24-.16.19-.44-.14-.63Z"/>
    <path fill="#0EA5E9" d="m134.34 196.192 1.27-.73v-.11l-1.33-.77a.208.208 0 0 0-.19 0l-1.27.74c-.05 0 0 .07 0 .11l1.33.76a.188.188 0 0 0 .095.025.188.188 0 0 0 .095-.025Zm1.55-2.66-1.27.73c-.05 0 0 .08 0 .11l1.33.77a.208.208 0 0 0 .19 0l1.27-.73c.05 0 .05-.08 0-.11l-1.32-.77a.23.23 0 0 0-.2 0Zm4.29 2.47-1.27.73v.11l2.25 1.3a.208.208 0 0 0 .19 0l1.27-.74c.05 0 0-.07 0-.11l-2.25-1.29a.188.188 0 0 0-.095-.025.188.188 0 0 0-.095.025Zm-2.35-1.35-1.27.73c-.05 0 0 .08 0 .11l1.33.77a.208.208 0 0 0 .19 0l1.27-.73v-.11l-1.33-.77a.208.208 0 0 0-.19 0Zm5.21 3-1.27.73c-.05 0-.05.08 0 .11l1.32.77a.243.243 0 0 0 .2 0l1.27-.74c.05 0 0-.07 0-.11l-1.33-.76a.19.19 0 0 0-.23 0h.04Zm1.94 1.12-1.27.73c-.05 0-.05.08 0 .11l1.32.77a.276.276 0 0 0 .2 0l1.27-.74c.05 0 0-.08 0-.11l-1.32-.76a.191.191 0 0 0-.18 0h-.02Zm-4.59 3 1.26-.73v-.11l-1.32-.77a.23.23 0 0 0-.2 0l-1.27.73v.11l1.32.77a.226.226 0 0 0 .105.025.223.223 0 0 0 .105-.025Zm1.93 1.12 1.27-.73v-.11l-1.32-.77a.23.23 0 0 0-.2 0l-1.27.73v.11l1.32.77a.206.206 0 0 0 .1.025.206.206 0 0 0 .1-.025Zm1.94 1.12 1.27-.73c.05 0 .05-.08 0-.11l-1.33-.77a.208.208 0 0 0-.19 0l-1.27.73v.11l1.33.77c.03.013.063.019.096.018a.223.223 0 0 0 .094-.028v.01Zm1.94 1.12 1.27-.73c.05 0 .05-.08 0-.11l-1.33-.77a.25.25 0 0 0-.19 0l-1.27.74v.11l1.33.76a.188.188 0 0 0 .095.025.188.188 0 0 0 .095-.025Zm-9.92-7.82 1.27-.73v-.12l-1.33-.76a.208.208 0 0 0-.19 0l-1.27.73c-.05 0-.05.08 0 .12l1.33.76a.208.208 0 0 0 .19 0Zm2.17 3.34 1.27-.73c.05 0 0-.08 0-.11l-1.22-.71c-.06 0-.06-.08 0-.11l1.63-.94c.05 0 .05-.08 0-.11l-1.53-.89a.208.208 0 0 0-.19 0l-3.09 1.78c-.05 0 0 .08 0 .11l3 1.71a.24.24 0 0 0 .13 0Zm8.46-.76-1.27.73v.11l1.32.77a.276.276 0 0 0 .2 0l1.26-.74c.05 0 .05-.08 0-.11l-1.32-.76a.208.208 0 0 0-.19 0Zm1.94 1.12-1.27.73c-.05 0 0 .08 0 .11l1.32.77a.25.25 0 0 0 .19 0l1.27-.74c.05 0 .05-.08 0-.11l-1.32-.76a.21.21 0 0 0-.19-.01v.01Zm12.15 11.22c.05 0 .05-.07 0-.11l-1.32-.76a.206.206 0 0 0-.1-.025.206.206 0 0 0-.1.025l-1.27.73c-.05 0 0 .08 0 .11l1.32.77a.243.243 0 0 0 .2 0l1.27-.74Zm3.32-2.27-1.26.74v.11l1.32.76a.206.206 0 0 0 .1.025.206.206 0 0 0 .1-.025l1.27-.73v-.11l-1.32-.77a.283.283 0 0 0-.17.04l-.04-.04Zm-1 1.52v-.11l-1.32-.77a.208.208 0 0 0-.19 0l-1.27.73v.11l1.33.77a.208.208 0 0 0 .19 0l1.26-.73Zm-6.43 1.94 1.27-.73v-.11l-1.33-.77a.208.208 0 0 0-.19 0l-1.27.73v.11l1.33.77a.206.206 0 0 0 .24 0h-.05Zm3.21.39v-.11l-1.33-.77a.208.208 0 0 0-.19 0l-1.27.73v.11l1.33.77a.208.208 0 0 0 .19 0l1.27-.73Zm2.28-5-1.27.74v.11l1.32.76a.206.206 0 0 0 .1.025.206.206 0 0 0 .1-.025l1.27-.73v-.11l-1.32-.77a.253.253 0 0 0-.15.03l-.05-.03Zm-9.7-5.59-1.27.73c-.05 0 0 .08 0 .11l1.33.77a.208.208 0 0 0 .19 0l1.27-.73c.05 0 .05-.08 0-.11l-1.33-.77a.209.209 0 0 0-.14.03l-.05-.03Zm7.76 4.48-1.27.73c-.05 0-.05.08 0 .11l1.33.77a.208.208 0 0 0 .19 0l1.27-.73v-.11l-1.33-.77a.209.209 0 0 0-.14.03l-.05-.03Zm-9.7-5.6-1.27.73c-.05 0 0 .08 0 .11l1.33.77a.208.208 0 0 0 .19 0l1.27-.73c.05 0 .05-.08 0-.11l-1.33-.77a.209.209 0 0 0-.14.03l-.05-.03Zm3.88 2.24-1.27.73c-.05 0 0 .08 0 .11l1.33.77a.208.208 0 0 0 .19 0l1.27-.73c.05 0 .05-.08 0-.11l-1.33-.77a.209.209 0 0 0-.14.03l-.05-.03Zm1.94 1.12-1.27.73c-.05 0-.05.08 0 .11l1.33.77a.208.208 0 0 0 .19 0l1.27-.73c.05 0 0-.08 0-.11l-1.33-.77a.209.209 0 0 0-.14.03l-.05-.03Zm1.94 1.12-1.27.73c-.05 0-.05.08 0 .11l1.33.77a.208.208 0 0 0 .19 0l1.27-.73v-.11l-1.33-.77a.209.209 0 0 0-.14.03l-.05-.03Zm-8.47.76 1.27-.73c.05 0 0-.08 0-.11l-1.33-.77a.208.208 0 0 0-.19 0l-1.27.74c-.05 0-.05.07 0 .11l1.33.76c.03.032.071.053.115.058a.185.185 0 0 0 .125-.028l-.05-.03Zm-18.47-16.32-1.27.73c-.05 0-.05.08 0 .12l1.33.76a.208.208 0 0 0 .19 0l1.27-.73c.05 0 0-.08 0-.12l-1.33-.76a.209.209 0 0 0-.14.03l-.05-.03Zm2.34 1.36-1.27.73c-.05 0 0 .08 0 .11l1.37.78a.23.23 0 0 0 .2 0l1.26-.73c.05 0 .05-.08 0-.11l-1.32-.77a.232.232 0 0 0-.14.02l-.1-.03Zm-4.28-2.48-1.27.73c-.05 0-.05.08 0 .12l1.33.76a.208.208 0 0 0 .19 0l1.27-.73c.05 0 0-.08 0-.12l-1.33-.76a.209.209 0 0 0-.14.03l-.05-.03Zm11.1 10 1.27-.73c.05 0 0-.08 0-.11l-1.33-.77a.25.25 0 0 0-.19 0l-1.27.74c-.05 0-.05.08 0 .11l1.33.76a.188.188 0 0 0 .24 0h-.05Zm-14.31-10.35c-.05 0-.05.07 0 .11l1.33.76a.208.208 0 0 0 .19 0l1.27-.73c.05 0 0-.08 0-.12l-1.33-.76a.208.208 0 0 0-.19 0l-1.27.74Zm21.68 16.7 1.27-.73c.05 0 .05-.08 0-.11l-1.33-.77a.208.208 0 0 0-.19 0l-1.27.74c-.05 0 0 .08 0 .11l1.33.76a.188.188 0 0 0 .24 0h-.05Zm-23.78-13.73 1.27-.73c.05 0 .05-.08 0-.11l-1.32-.77a.23.23 0 0 0-.2 0l-1.27.73c-.05 0 0 .08 0 .11l1.33.77a.206.206 0 0 0 .24 0h-.05Zm3.76.08 1.27-.74c.05 0 0-.08 0-.11l-1.32-.76a.206.206 0 0 0-.1-.025.206.206 0 0 0-.1.025l-1.26.73c-.05 0-.05.08 0 .11l1.32.77a.28.28 0 0 0 .24 0h-.05Zm-3.47-2c-.05 0-.05.08 0 .11l1.32.77a.276.276 0 0 0 .2 0l1.27-.74c.05 0 0-.08 0-.11l-1.32-.76a.188.188 0 0 0-.095-.025.188.188 0 0 0-.095.025l-1.28.73Zm.85-1.08-1.33-.76a.188.188 0 0 0-.095-.025.188.188 0 0 0-.095.025l-3.09 1.78v.11l1.32.77a.23.23 0 0 0 .2 0l3.08-1.78c.12-.05.11-.1.06-.13l-.05.01Zm4.29 2.59-1.27.73c-.05 0 0 .08 0 .11l1.32.77a.208.208 0 0 0 .19 0l1.27-.73c.05 0 .05-.08 0-.11l-1.25-.78a.223.223 0 0 0-.105-.025.226.226 0 0 0-.105.025l-.05.01Zm14.6 8.42-1.27.74c-.05 0-.05.07 0 .11l1.33.76a.188.188 0 0 0 .095.025.188.188 0 0 0 .095-.025l1.27-.73c.05 0 0-.08 0-.11l-1.33-.77a.21.21 0 0 0-.14-.01l-.05.01Zm-16.82-7.61c.05 0 .05-.08 0-.11l-1.33-.77a.208.208 0 0 0-.19 0l-1.27.73c-.05 0 0 .08 0 .11l1.33.77a.208.208 0 0 0 .19 0l1.27-.73Zm14.88 6.49-1.27.74c-.05 0-.05.08 0 .11l1.33.76a.188.188 0 0 0 .095.025.188.188 0 0 0 .095-.025l1.27-.73c.05 0 0-.08 0-.11l-1.33-.77a.248.248 0 0 0-.14-.01l-.05.01Zm16.66 11.71v-.11l-1.32-.76a.243.243 0 0 0-.2 0l-1.26.73c-.05 0-.05.08 0 .12l1.32.76a.243.243 0 0 0 .2 0l1.26-.74Zm.79-1.63-1.27.73v.11l1.33.77a.25.25 0 0 0 .19 0l1.27-.74v-.11l-1.33-.76a.189.189 0 0 0-.14-.01l-.05.01Zm-4 1.25 1.27-.73c.05 0 0-.08 0-.12l-1.33-.76a.208.208 0 0 0-.19 0l-1.27.73c-.05 0-.05.08 0 .12l1.32.76a.242.242 0 0 0 .25-.01l-.05.01Zm-1.85-1.13 1.27-.73c.05 0 0-.08 0-.12l-1.33-.76a.208.208 0 0 0-.19 0l-1.27.74c-.05 0-.05.07 0 .11l1.33.76a.208.208 0 0 0 .19 0Zm-2-1.12 1.27-.73c.05 0 0-.08 0-.11l-1.33-.77a.208.208 0 0 0-.19 0l-1.27.74c-.05 0-.05.07 0 .11l1.33.76a.188.188 0 0 0 .095.025.188.188 0 0 0 .095-.025Zm5.94-.13-1.27.73c-.05 0-.05.08 0 .11l1.33.8a.25.25 0 0 0 .19 0l1.27-.74v-.11l-1.33-.76a.191.191 0 0 0-.13-.03h-.06Zm-1.94-1.12-1.27.73c-.05 0 0 .08 0 .11l1.33.77a.208.208 0 0 0 .19 0l1.27-.74v-.11l-1.33-.76a.188.188 0 0 0-.095-.025.188.188 0 0 0-.095.025Zm-7.76-4.48-1.26.73c-.05 0-.05.08 0 .12l1.32.76a.243.243 0 0 0 .2 0l1.27-.73v-.12l-1.32-.76a.238.238 0 0 0-.19 0h-.02Zm1.94 1.12-1.27.73c-.05 0 0 .08 0 .12l1.32.76a.208.208 0 0 0 .19 0l1.27-.73c.05 0 .05-.08 0-.12l-1.32-.76a.237.237 0 0 0-.17 0h-.02Zm-3.87-2.24-1.27.74c-.05 0-.05.07 0 .11l1.32.76a.206.206 0 0 0 .1.025.206.206 0 0 0 .1-.025l1.27-.73v-.11l-1.32-.77a.215.215 0 0 0-.18 0h-.02Zm7.75 4.48-1.27.73c-.05 0 0 .08 0 .11l1.33.77a.208.208 0 0 0 .19 0l1.27-.74v-.11l-1.33-.76a.19.19 0 0 0-.17 0h-.02Zm-1.92-1.12-1.27.73c-.05 0 0 .08 0 .12l1.33.76a.208.208 0 0 0 .19 0l1.27-.74c.05 0 .05-.07 0-.11l-1.32-.76a.243.243 0 0 0-.2 0Zm2.86 7.31 1.27-.74v-.11l-1.33-.76a.188.188 0 0 0-.095-.025.188.188 0 0 0-.095.025l-1.27.73c-.05 0 0 .08 0 .11l1.33.77a.25.25 0 0 0 .19 0Zm10.05-.38 1.32.76c.03.018.065.027.1.027s.07-.009.1-.027l1.26-.73v-.11l-1.32-.77a.243.243 0 0 0-.2 0l-1.27.74c-.04.03-.04.07.01.11Zm-2.53.63 2 1.18a.208.208 0 0 0 .19 0l1.29-.74v-.11l-2-1.18a.208.208 0 0 0-.19 0l-1.27.73s-.08.09-.02.12Zm4.42-2.08 1.63.94a.206.206 0 0 0 .1.025.206.206 0 0 0 .1-.025l1.26-.73c.05 0 .05-.08 0-.11l-1.63-1a.208.208 0 0 0-.19 0l-1.27.73c-.06.09-.06.14 0 .17Zm0-1.57c.05 0 0-.08 0-.11l-1.32-.76a.188.188 0 0 0-.095-.025.188.188 0 0 0-.095.025l-1.27.73c-.05 0-.05.08 0 .11l1.32.77a.243.243 0 0 0 .2 0l1.26-.74Zm-6.76 4.4 2.56 1.48a.208.208 0 0 0 .19 0l1.27-.73v-.11l-2.55-1.47a.206.206 0 0 0-.1-.025.206.206 0 0 0-.1.025l-1.27.73c-.05.02-.04.07.01.1h-.01Zm-.89 1.58 1.63.94a.206.206 0 0 0 .1.025.206.206 0 0 0 .1-.025l1.26-.73c.05 0 .05-.08 0-.11l-1.63-.95a.208.208 0 0 0-.19 0l-1.27.73s-.05.09.01.12h-.01Zm-6.77-14.3c.05 0 0-.08 0-.11l-1.33-.77a.208.208 0 0 0-.19 0l-1.27.73v.11l1.33.77a.208.208 0 0 0 .19 0l1.27-.73Zm3.88 2.24c.05 0 0-.08 0-.11l-1.33-.77a.208.208 0 0 0-.19 0l-1.27.73c-.05 0-.05.08 0 .11l1.33.77a.208.208 0 0 0 .19 0l1.27-.73Zm8.6 5c.05 0 0-.07 0-.11l-1.33-.76a.188.188 0 0 0-.095-.025.188.188 0 0 0-.095.025l-1.27.73c-.05 0-.05.08 0 .11l1.33.77a.208.208 0 0 0 .19 0l1.27-.74Zm-10.54-6.08c.05 0 0-.08 0-.11l-1.33-.77a.208.208 0 0 0-.19 0l-1.27.73v.11l1.33.77a.208.208 0 0 0 .19 0l1.27-.73Zm3.88 2.24c.05 0 0-.08 0-.11l-1.33-.77a.25.25 0 0 0-.19 0l-1.27.74c-.05 0-.05.08 0 .11l1.32.76a.206.206 0 0 0 .1.025.206.206 0 0 0 .1-.025l1.27-.73Zm-1.28 11.64v.11l2 1.18a.208.208 0 0 0 .19 0l1.27-.74v-.11l-2-1.18a.208.208 0 0 0-.19 0l-1.27.74Zm4.06-10c.05 0 0-.08 0-.12l-1.33-.76a.208.208 0 0 0-.19 0l-1.27.73c-.05 0-.05.08 0 .12l1.33.76a.208.208 0 0 0 .19 0l1.27-.73Zm1.94 1.11c.05 0 0-.07 0-.11l-1.33-.76a.188.188 0 0 0-.095-.025.188.188 0 0 0-.095.025l-1.27.73c-.05 0-.05.08 0 .11l1.33.77a.208.208 0 0 0 .19 0l1.27-.74Zm-41.92-11.82c-.05 0-.05.08 0 .11l3.26 1.89a.23.23 0 0 0 .2 0l1.26-.73c.05 0 .05-.08 0-.11l-3.26-1.88a.188.188 0 0 0-.095-.025.188.188 0 0 0-.095.025l-1.27.72Zm4.28 2.48c-.05 0 0 .08 0 .11l1.33.76a.188.188 0 0 0 .095.025.188.188 0 0 0 .095-.025l1.27-.73c.05 0 .05-.08 0-.11l-1.33-.77a.208.208 0 0 0-.19 0l-1.27.74Zm27.63 13.86 1.27-.74v-.11l-1.33-.76a.188.188 0 0 0-.095-.025.188.188 0 0 0-.095.025l-1.27.73c-.05 0 0 .08 0 .11l1.33.77a.25.25 0 0 0 .2-.07l-.01.07Zm-23.75-11.62c-.05 0-.05.07 0 .11l1.33.76a.188.188 0 0 0 .095.025.188.188 0 0 0 .095-.025l1.27-.73v-.12l-1.33-.76a.208.208 0 0 0-.19 0l-1.27.74Zm-10.1-5.84c-.05 0-.05.08 0 .11l1.33.77a.208.208 0 0 0 .19 0l1.27-.74c.05 0 0-.08 0-.11l-1.33-.76a.188.188 0 0 0-.095-.025.188.188 0 0 0-.095.025l-1.27.73Zm-1.93-1 1.33.77a.208.208 0 0 0 .19 0l3.08-1.78c.05 0 .05-.08 0-.11l-1.33-.77a.208.208 0 0 0-.19 0l-3.08 1.78c-.05-.05-.05 0 .01.03l-.01.08Zm19.28 11c-.05 0-.05.08 0 .11l1.63.94a.188.188 0 0 0 .095.025.188.188 0 0 0 .095-.025l1.27-.73c.05 0 .05-.08 0-.12l-1.64-1a.23.23 0 0 0-.2 0l-1.25.8Zm-4.9-2.83v.11l2 1.18a.208.208 0 0 0 .19 0l1.27-.74c.05 0 .05-.07 0-.11l-2-1.18a.208.208 0 0 0-.19 0l-1.27.74Zm9.39 5.42c-.05 0-.05.08 0 .11l10.96 6.26a.208.208 0 0 0 .19 0l1.27-.73c.05 0 0-.08 0-.11l-10.92-6.31a.23.23 0 0 0-.2 0l-1.3.78Zm11.54 6.61c-.05 0-.05.08 0 .11l1.63.94a.188.188 0 0 0 .095.025.188.188 0 0 0 .095-.025l1.27-.73v-.11l-1.63-.95a.208.208 0 0 0-.19 0l-1.27.74Zm-13.78-8c-.05 0 0 .08 0 .12l1.63.94a.276.276 0 0 0 .2 0l1.27-.74c.05 0 0-.08 0-.11l-1.64-.94a.208.208 0 0 0-.19 0l-1.27.73Zm16 9.25v.12l1.64.94a.25.25 0 0 0 .19 0l1.27-.74v-.11l-1.64-.94a.208.208 0 0 0-.19 0l-1.27.73Zm-20.51-11.84c-.05 0 0 .08 0 .11l1.63.95a.23.23 0 0 0 .2 0l1.27-.73c.05 0 0-.08 0-.11l-1.63-.94a.188.188 0 0 0-.095-.025.188.188 0 0 0-.095.025l-1.28.72Zm-6.94-4c-.05 0 0 .07 0 .11l1.33.76a.188.188 0 0 0 .095.025.188.188 0 0 0 .095-.025l1.27-.73c.05 0 .05-.08 0-.11l-1.33-.77a.208.208 0 0 0-.19 0l-1.27.74Zm-2.88-3.76 1.27-.73c.05 0 0-.08 0-.12l-1.33-.76a.208.208 0 0 0-.19 0l-1.27.73c-.05 0-.05.08 0 .12l1.33.76a.21.21 0 0 0 .21.04l-.02-.04Zm7.91.38 1.27-.73c.05 0 .05-.08 0-.11l-1.33-.77a.208.208 0 0 0-.19 0l-1.27.74c-.05 0 0 .07 0 .11l1.33.76a.192.192 0 0 0 .21.04l-.02-.04Zm5.15 7.16 1.27-.73c.05 0 .05-.08 0-.11l-3.88-2.24a.188.188 0 0 0-.095-.025.188.188 0 0 0-.095.025l-1.27.73c-.05 0 0 .08 0 .11l3.88 2.24a.192.192 0 0 0 .21.04l-.02-.04Zm-9.85-7.15c.05 0 0-.08 0-.12l-1.33-.76a.208.208 0 0 0-.19 0l-1.27.73c-.05 0-.05.08 0 .12l1.33.76a.208.208 0 0 0 .19 0l1.27-.73Zm.54-.32 1.27-.73c.05 0 .05-.08 0-.11l-1.33-.77a.25.25 0 0 0-.19 0l-1.27.74c-.05 0 0 .08 0 .11l1.33.76a.192.192 0 0 0 .21.04l-.02-.04Zm11.25 8.59 1.27-.73c.05 0 .05-.08 0-.11l-1.33-.77a.208.208 0 0 0-.19 0l-1.27.74c-.05 0 0 .07 0 .11l1.33.76a.192.192 0 0 0 .21.04l-.02-.04Zm-7.51-5.8c.05 0 .05-.08 0-.11l-1.32-.77a.23.23 0 0 0-.2 0l-1.27.73c-.05 0 0 .08 0 .11l1.32.77a.208.208 0 0 0 .19 0l1.28-.73Zm17.23 11.49 1.26-.74c.05 0 .05-.07 0-.11l-1.32-.76a.206.206 0 0 0-.1-.025.206.206 0 0 0-.1.025l-1.27.73c-.05 0 0 .08 0 .11l1.32.77a.24.24 0 0 0 .21 0Zm-1.94-1.12 1.27-.74v-.11l-1.32-.76a.208.208 0 0 0-.19 0l-1.27.73c-.05 0-.05.08 0 .12l1.32.76a.225.225 0 0 0 .1-.005.231.231 0 0 0 .09-.045v.05Zm3.87 2.24 1.27-.74c.05 0 .05-.08 0-.11l-1.32-.76a.206.206 0 0 0-.1-.025.206.206 0 0 0-.1.025l-1.27.73c-.05 0 0 .08 0 .11l1.32.77a.208.208 0 0 0 .2-.05v.05Zm-7.75-4.48 1.27-.73c.05 0 0-.08 0-.12l-1.34-.79a.208.208 0 0 0-.19 0l-1.27.73c-.05 0-.05.08 0 .12l1.33.76a.201.201 0 0 0 .103.015.2.2 0 0 0 .097-.035v.05Zm1.94 1.12 1.27-.73v-.12l-1.33-.76a.208.208 0 0 0-.19 0l-1.27.73c-.05 0-.05.08 0 .12l1.33.76a.216.216 0 0 0 .101-.001.216.216 0 0 0 .089-.049v.05Zm-3.88-2.24 1.27-.73c.05 0 0-.08 0-.11l-1.33-.77a.208.208 0 0 0-.19 0l-1.27.74c-.05 0-.05.07 0 .11l1.33.76c.033.01.068.01.102.001a.183.183 0 0 0 .088-.051v.05ZM131 188.692v-.11l-1.32-.76a.206.206 0 0 0-.1-.025.206.206 0 0 0-.1.025l-.33.2v.11l1.32.76a.206.206 0 0 0 .1.025.206.206 0 0 0 .1-.025l.33-.2Zm10.57 5.57c.05 0 .05-.08 0-.11l-1.33-.77a.25.25 0 0 0-.19 0l-1.27.74v.11l1.33.76a.188.188 0 0 0 .095.025.188.188 0 0 0 .095-.025l1.27-.73Zm-3.89-2.26c.06 0 0-.08 0-.11l-1.32-.77a.23.23 0 0 0-.2 0l-1.26.73v.11l1.32.77a.23.23 0 0 0 .2 0l1.26-.73Zm6.25 3.61v-.12l-1.33-.76a.208.208 0 0 0-.19 0l-1.27.73v.12l1.33.76a.208.208 0 0 0 .19 0l1.27-.73Zm-4.31-2.49v-.11l-1.32-.77a.23.23 0 0 0-.2 0l-1.27.73v.11l1.32.77a.208.208 0 0 0 .19 0l1.28-.73Zm8.19 4.72c.05 0 0-.07 0-.11l-1.33-.76a.188.188 0 0 0-.095-.025.188.188 0 0 0-.095.025l-1.27.73v.11l1.33.77a.208.208 0 0 0 .19 0l1.27-.74Zm-1.94-1.12v-.11l-1.33-.76a.208.208 0 0 0-.19 0l-1.27.73v.12l1.33.76a.208.208 0 0 0 .19 0l1.27-.74Zm-11-5.81v-.11l-1.33-.76a.188.188 0 0 0-.095-.025.188.188 0 0 0-.095.025l-.34.19c-.05 0 0 .08 0 .12l1.33.76a.208.208 0 0 0 .19 0l.34-.2Zm-5.81-3.36c.05 0 0-.07 0-.11l-1.32-.76a.243.243 0 0 0-.2 0l-.33.2c-.05 0-.05.08 0 .11l1.32.76a.206.206 0 0 0 .1.025.206.206 0 0 0 .1-.025l.33-.2Zm-1.74 1c.05 0 .05-.08 0-.11l-1.32-.74a.208.208 0 0 0-.19 0l-1.27.74c-.05 0 0 .07 0 .11l1.33.76a.188.188 0 0 0 .095.025.188.188 0 0 0 .095-.025l1.26-.76Zm-4.77 5 1.27-.73c.05 0 0-.08 0-.11l-1.33-.77a.208.208 0 0 0-.19 0l-1.27.74c-.05 0 0 .07 0 .11l1.33.76c.027.02.059.032.092.036a.194.194 0 0 0 .098-.016v-.02Zm10.38-3.76v-.11l-1.32-.76a.206.206 0 0 0-.1-.025.206.206 0 0 0-.1.025l-.34.2c-.05 0 0 .07 0 .11l1.32.76a.243.243 0 0 0 .2 0l.34-.2Zm16.82 9.21c.05 0 0-.07 0-.11l-1.33-.76a.188.188 0 0 0-.095-.025.188.188 0 0 0-.095.025l-1.27.73v.11l1.33.77a.208.208 0 0 0 .19 0l1.27-.74Z"/>
    <path fill="#455A64" d="m134.34 196.192 1.27-.73v-.11l-1.33-.77a.208.208 0 0 0-.19 0l-1.27.74c-.05 0 0 .07 0 .11l1.33.76a.188.188 0 0 0 .095.025.188.188 0 0 0 .095-.025Zm1.55-2.66-1.27.73c-.05 0 0 .08 0 .11l1.33.77a.208.208 0 0 0 .19 0l1.27-.73c.05 0 .05-.08 0-.11l-1.32-.77a.23.23 0 0 0-.2 0Zm4.29 2.47-1.27.73v.11l2.25 1.3a.208.208 0 0 0 .19 0l1.27-.74c.05 0 0-.07 0-.11l-2.25-1.29a.188.188 0 0 0-.095-.025.188.188 0 0 0-.095.025Zm-2.35-1.35-1.27.73c-.05 0 0 .08 0 .11l1.33.77a.208.208 0 0 0 .19 0l1.27-.73v-.11l-1.33-.77a.208.208 0 0 0-.19 0Zm5.21 3-1.27.73c-.05 0-.05.08 0 .11l1.32.77a.243.243 0 0 0 .2 0l1.27-.74c.05 0 0-.07 0-.11l-1.33-.76a.19.19 0 0 0-.23 0h.04Zm1.94 1.12-1.27.73c-.05 0-.05.08 0 .11l1.32.77a.276.276 0 0 0 .2 0l1.27-.74c.05 0 0-.08 0-.11l-1.32-.76a.191.191 0 0 0-.18 0h-.02Zm-4.59 3 1.26-.73v-.11l-1.32-.77a.23.23 0 0 0-.2 0l-1.27.73v.11l1.32.77a.226.226 0 0 0 .105.025.223.223 0 0 0 .105-.025Zm1.93 1.12 1.27-.73v-.11l-1.32-.77a.23.23 0 0 0-.2 0l-1.27.73v.11l1.32.77a.206.206 0 0 0 .1.025.206.206 0 0 0 .1-.025Zm1.94 1.12 1.27-.73c.05 0 .05-.08 0-.11l-1.33-.77a.208.208 0 0 0-.19 0l-1.27.73v.11l1.33.77c.03.013.063.019.096.018a.223.223 0 0 0 .094-.028v.01Zm1.94 1.12 1.27-.73c.05 0 .05-.08 0-.11l-1.33-.77a.25.25 0 0 0-.19 0l-1.27.74v.11l1.33.76a.188.188 0 0 0 .095.025.188.188 0 0 0 .095-.025Zm-9.92-7.82 1.27-.73v-.12l-1.33-.76a.208.208 0 0 0-.19 0l-1.27.73c-.05 0-.05.08 0 .12l1.33.76a.208.208 0 0 0 .19 0Zm2.17 3.34 1.27-.73c.05 0 0-.08 0-.11l-1.22-.71c-.06 0-.06-.08 0-.11l1.63-.94c.05 0 .05-.08 0-.11l-1.53-.89a.208.208 0 0 0-.19 0l-3.09 1.78c-.05 0 0 .08 0 .11l3 1.71a.24.24 0 0 0 .13 0Zm8.46-.76-1.27.73v.11l1.32.77a.276.276 0 0 0 .2 0l1.26-.74c.05 0 .05-.08 0-.11l-1.32-.76a.208.208 0 0 0-.19 0Zm1.94 1.12-1.27.73c-.05 0 0 .08 0 .11l1.32.77a.25.25 0 0 0 .19 0l1.27-.74c.05 0 .05-.08 0-.11l-1.32-.76a.21.21 0 0 0-.19-.01v.01Zm12.15 11.22c.05 0 .05-.07 0-.11l-1.32-.76a.206.206 0 0 0-.1-.025.206.206 0 0 0-.1.025l-1.27.73c-.05 0 0 .08 0 .11l1.32.77a.243.243 0 0 0 .2 0l1.27-.74Zm3.32-2.27-1.26.74v.11l1.32.76a.206.206 0 0 0 .1.025.206.206 0 0 0 .1-.025l1.27-.73v-.11l-1.32-.77a.283.283 0 0 0-.17.04l-.04-.04Zm-1 1.52v-.11l-1.32-.77a.208.208 0 0 0-.19 0l-1.27.73v.11l1.33.77a.208.208 0 0 0 .19 0l1.26-.73Zm-6.43 1.94 1.27-.73v-.11l-1.33-.77a.208.208 0 0 0-.19 0l-1.27.73v.11l1.33.77a.206.206 0 0 0 .24 0h-.05Zm3.21.39v-.11l-1.33-.77a.208.208 0 0 0-.19 0l-1.27.73v.11l1.33.77a.208.208 0 0 0 .19 0l1.27-.73Zm2.28-5-1.27.74v.11l1.32.76a.206.206 0 0 0 .1.025.206.206 0 0 0 .1-.025l1.27-.73v-.11l-1.32-.77a.253.253 0 0 0-.15.03l-.05-.03Zm-9.7-5.59-1.27.73c-.05 0 0 .08 0 .11l1.33.77a.208.208 0 0 0 .19 0l1.27-.73c.05 0 .05-.08 0-.11l-1.33-.77a.209.209 0 0 0-.14.03l-.05-.03Zm7.76 4.48-1.27.73c-.05 0-.05.08 0 .11l1.33.77a.208.208 0 0 0 .19 0l1.27-.73v-.11l-1.33-.77a.209.209 0 0 0-.14.03l-.05-.03Zm-9.7-5.6-1.27.73c-.05 0 0 .08 0 .11l1.33.77a.208.208 0 0 0 .19 0l1.27-.73c.05 0 .05-.08 0-.11l-1.33-.77a.209.209 0 0 0-.14.03l-.05-.03Zm3.88 2.24-1.27.73c-.05 0 0 .08 0 .11l1.33.77a.208.208 0 0 0 .19 0l1.27-.73c.05 0 .05-.08 0-.11l-1.33-.77a.209.209 0 0 0-.14.03l-.05-.03Zm1.94 1.12-1.27.73c-.05 0-.05.08 0 .11l1.33.77a.208.208 0 0 0 .19 0l1.27-.73c.05 0 0-.08 0-.11l-1.33-.77a.209.209 0 0 0-.14.03l-.05-.03Zm1.94 1.12-1.27.73c-.05 0-.05.08 0 .11l1.33.77a.208.208 0 0 0 .19 0l1.27-.73v-.11l-1.33-.77a.209.209 0 0 0-.14.03l-.05-.03Zm-8.47.76 1.27-.73c.05 0 0-.08 0-.11l-1.33-.77a.208.208 0 0 0-.19 0l-1.27.74c-.05 0-.05.07 0 .11l1.33.76c.03.032.071.053.115.058a.185.185 0 0 0 .125-.028l-.05-.03Zm-18.47-16.32-1.27.73c-.05 0-.05.08 0 .12l1.33.76a.208.208 0 0 0 .19 0l1.27-.73c.05 0 0-.08 0-.12l-1.33-.76a.209.209 0 0 0-.14.03l-.05-.03Zm2.34 1.36-1.27.73c-.05 0 0 .08 0 .11l1.37.78a.23.23 0 0 0 .2 0l1.26-.73c.05 0 .05-.08 0-.11l-1.32-.77a.232.232 0 0 0-.14.02l-.1-.03Zm-4.28-2.48-1.27.73c-.05 0-.05.08 0 .12l1.33.76a.208.208 0 0 0 .19 0l1.27-.73c.05 0 0-.08 0-.12l-1.33-.76a.209.209 0 0 0-.14.03l-.05-.03Zm11.1 10 1.27-.73c.05 0 0-.08 0-.11l-1.33-.77a.25.25 0 0 0-.19 0l-1.27.74c-.05 0-.05.08 0 .11l1.33.76a.188.188 0 0 0 .24 0h-.05Zm-14.31-10.35c-.05 0-.05.07 0 .11l1.33.76a.208.208 0 0 0 .19 0l1.27-.73c.05 0 0-.08 0-.12l-1.33-.76a.208.208 0 0 0-.19 0l-1.27.74Zm21.68 16.7 1.27-.73c.05 0 .05-.08 0-.11l-1.33-.77a.208.208 0 0 0-.19 0l-1.27.74c-.05 0 0 .08 0 .11l1.33.76a.188.188 0 0 0 .24 0h-.05Zm-23.78-13.73 1.27-.73c.05 0 .05-.08 0-.11l-1.32-.77a.23.23 0 0 0-.2 0l-1.27.73c-.05 0 0 .08 0 .11l1.33.77a.206.206 0 0 0 .24 0h-.05Zm3.76.08 1.27-.74c.05 0 0-.08 0-.11l-1.32-.76a.206.206 0 0 0-.1-.025.206.206 0 0 0-.1.025l-1.26.73c-.05 0-.05.08 0 .11l1.32.77a.28.28 0 0 0 .24 0h-.05Zm-3.47-2c-.05 0-.05.08 0 .11l1.32.77a.276.276 0 0 0 .2 0l1.27-.74c.05 0 0-.08 0-.11l-1.32-.76a.188.188 0 0 0-.095-.025.188.188 0 0 0-.095.025l-1.28.73Zm.85-1.08-1.33-.76a.188.188 0 0 0-.095-.025.188.188 0 0 0-.095.025l-3.09 1.78v.11l1.32.77a.23.23 0 0 0 .2 0l3.08-1.78c.12-.05.11-.1.06-.13l-.05.01Zm4.29 2.59-1.27.73c-.05 0 0 .08 0 .11l1.32.77a.208.208 0 0 0 .19 0l1.27-.73c.05 0 .05-.08 0-.11l-1.25-.78a.223.223 0 0 0-.105-.025.226.226 0 0 0-.105.025l-.05.01Zm14.6 8.42-1.27.74c-.05 0-.05.07 0 .11l1.33.76a.188.188 0 0 0 .095.025.188.188 0 0 0 .095-.025l1.27-.73c.05 0 0-.08 0-.11l-1.33-.77a.21.21 0 0 0-.14-.01l-.05.01Zm-16.82-7.61c.05 0 .05-.08 0-.11l-1.33-.77a.208.208 0 0 0-.19 0l-1.27.73c-.05 0 0 .08 0 .11l1.33.77a.208.208 0 0 0 .19 0l1.27-.73Zm14.88 6.49-1.27.74c-.05 0-.05.08 0 .11l1.33.76a.188.188 0 0 0 .095.025.188.188 0 0 0 .095-.025l1.27-.73c.05 0 0-.08 0-.11l-1.33-.77a.248.248 0 0 0-.14-.01l-.05.01Zm16.66 11.71v-.11l-1.32-.76a.243.243 0 0 0-.2 0l-1.26.73c-.05 0-.05.08 0 .12l1.32.76a.243.243 0 0 0 .2 0l1.26-.74Zm.79-1.63-1.27.73v.11l1.33.77a.25.25 0 0 0 .19 0l1.27-.74v-.11l-1.33-.76a.189.189 0 0 0-.14-.01l-.05.01Zm-4 1.25 1.27-.73c.05 0 0-.08 0-.12l-1.33-.76a.208.208 0 0 0-.19 0l-1.27.73c-.05 0-.05.08 0 .12l1.32.76a.242.242 0 0 0 .25-.01l-.05.01Zm-1.85-1.13 1.27-.73c.05 0 0-.08 0-.12l-1.33-.76a.208.208 0 0 0-.19 0l-1.27.74c-.05 0-.05.07 0 .11l1.33.76a.208.208 0 0 0 .19 0Zm-2-1.12 1.27-.73c.05 0 0-.08 0-.11l-1.33-.77a.208.208 0 0 0-.19 0l-1.27.74c-.05 0-.05.07 0 .11l1.33.76a.188.188 0 0 0 .095.025.188.188 0 0 0 .095-.025Zm5.94-.13-1.27.73c-.05 0-.05.08 0 .11l1.33.8a.25.25 0 0 0 .19 0l1.27-.74v-.11l-1.33-.76a.191.191 0 0 0-.13-.03h-.06Zm-1.94-1.12-1.27.73c-.05 0 0 .08 0 .11l1.33.77a.208.208 0 0 0 .19 0l1.27-.74v-.11l-1.33-.76a.188.188 0 0 0-.095-.025.188.188 0 0 0-.095.025Zm-7.76-4.48-1.26.73c-.05 0-.05.08 0 .12l1.32.76a.243.243 0 0 0 .2 0l1.27-.73v-.12l-1.32-.76a.238.238 0 0 0-.19 0h-.02Zm1.94 1.12-1.27.73c-.05 0 0 .08 0 .12l1.32.76a.208.208 0 0 0 .19 0l1.27-.73c.05 0 .05-.08 0-.12l-1.32-.76a.237.237 0 0 0-.17 0h-.02Zm-3.87-2.24-1.27.74c-.05 0-.05.07 0 .11l1.32.76a.206.206 0 0 0 .1.025.206.206 0 0 0 .1-.025l1.27-.73v-.11l-1.32-.77a.215.215 0 0 0-.18 0h-.02Zm7.75 4.48-1.27.73c-.05 0 0 .08 0 .11l1.33.77a.208.208 0 0 0 .19 0l1.27-.74v-.11l-1.33-.76a.19.19 0 0 0-.17 0h-.02Zm-1.92-1.12-1.27.73c-.05 0 0 .08 0 .12l1.33.76a.208.208 0 0 0 .19 0l1.27-.74c.05 0 .05-.07 0-.11l-1.32-.76a.243.243 0 0 0-.2 0Zm2.86 7.31 1.27-.74v-.11l-1.33-.76a.188.188 0 0 0-.095-.025.188.188 0 0 0-.095.025l-1.27.73c-.05 0 0 .08 0 .11l1.33.77a.25.25 0 0 0 .19 0Zm10.05-.38 1.32.76c.03.018.065.027.1.027s.07-.009.1-.027l1.26-.73v-.11l-1.32-.77a.243.243 0 0 0-.2 0l-1.27.74c-.04.03-.04.07.01.11Zm-2.53.63 2 1.18a.208.208 0 0 0 .19 0l1.29-.74v-.11l-2-1.18a.208.208 0 0 0-.19 0l-1.27.73s-.08.09-.02.12Zm4.42-2.08 1.63.94a.206.206 0 0 0 .1.025.206.206 0 0 0 .1-.025l1.26-.73c.05 0 .05-.08 0-.11l-1.63-1a.208.208 0 0 0-.19 0l-1.27.73c-.06.09-.06.14 0 .17Zm0-1.57c.05 0 0-.08 0-.11l-1.32-.76a.188.188 0 0 0-.095-.025.188.188 0 0 0-.095.025l-1.27.73c-.05 0-.05.08 0 .11l1.32.77a.243.243 0 0 0 .2 0l1.26-.74Zm-6.76 4.4 2.56 1.48a.208.208 0 0 0 .19 0l1.27-.73v-.11l-2.55-1.47a.206.206 0 0 0-.1-.025.206.206 0 0 0-.1.025l-1.27.73c-.05.02-.04.07.01.1h-.01Zm-.89 1.58 1.63.94a.206.206 0 0 0 .1.025.206.206 0 0 0 .1-.025l1.26-.73c.05 0 .05-.08 0-.11l-1.63-.95a.208.208 0 0 0-.19 0l-1.27.73s-.05.09.01.12h-.01Zm-6.77-14.3c.05 0 0-.08 0-.11l-1.33-.77a.208.208 0 0 0-.19 0l-1.27.73v.11l1.33.77a.208.208 0 0 0 .19 0l1.27-.73Zm3.88 2.24c.05 0 0-.08 0-.11l-1.33-.77a.208.208 0 0 0-.19 0l-1.27.73c-.05 0-.05.08 0 .11l1.33.77a.208.208 0 0 0 .19 0l1.27-.73Zm8.6 5c.05 0 0-.07 0-.11l-1.33-.76a.188.188 0 0 0-.095-.025.188.188 0 0 0-.095.025l-1.27.73c-.05 0-.05.08 0 .11l1.33.77a.208.208 0 0 0 .19 0l1.27-.74Zm-10.54-6.08c.05 0 0-.08 0-.11l-1.33-.77a.208.208 0 0 0-.19 0l-1.27.73v.11l1.33.77a.208.208 0 0 0 .19 0l1.27-.73Zm3.88 2.24c.05 0 0-.08 0-.11l-1.33-.77a.25.25 0 0 0-.19 0l-1.27.74c-.05 0-.05.08 0 .11l1.32.76a.206.206 0 0 0 .1.025.206.206 0 0 0 .1-.025l1.27-.73Zm-1.28 11.64v.11l2 1.18a.208.208 0 0 0 .19 0l1.27-.74v-.11l-2-1.18a.208.208 0 0 0-.19 0l-1.27.74Zm4.06-10c.05 0 0-.08 0-.12l-1.33-.76a.208.208 0 0 0-.19 0l-1.27.73c-.05 0-.05.08 0 .12l1.33.76a.208.208 0 0 0 .19 0l1.27-.73Zm1.94 1.11c.05 0 0-.07 0-.11l-1.33-.76a.188.188 0 0 0-.095-.025.188.188 0 0 0-.095.025l-1.27.73c-.05 0-.05.08 0 .11l1.33.77a.208.208 0 0 0 .19 0l1.27-.74Zm-41.92-11.82c-.05 0-.05.08 0 .11l3.26 1.89a.23.23 0 0 0 .2 0l1.26-.73c.05 0 .05-.08 0-.11l-3.26-1.88a.188.188 0 0 0-.095-.025.188.188 0 0 0-.095.025l-1.27.72Zm4.28 2.48c-.05 0 0 .08 0 .11l1.33.76a.188.188 0 0 0 .095.025.188.188 0 0 0 .095-.025l1.27-.73c.05 0 .05-.08 0-.11l-1.33-.77a.208.208 0 0 0-.19 0l-1.27.74Zm27.63 13.86 1.27-.74v-.11l-1.33-.76a.188.188 0 0 0-.095-.025.188.188 0 0 0-.095.025l-1.27.73c-.05 0 0 .08 0 .11l1.33.77a.25.25 0 0 0 .2-.07l-.01.07Zm-23.75-11.62c-.05 0-.05.07 0 .11l1.33.76a.188.188 0 0 0 .095.025.188.188 0 0 0 .095-.025l1.27-.73v-.12l-1.33-.76a.208.208 0 0 0-.19 0l-1.27.74Zm-10.1-5.84c-.05 0-.05.08 0 .11l1.33.77a.208.208 0 0 0 .19 0l1.27-.74c.05 0 0-.08 0-.11l-1.33-.76a.188.188 0 0 0-.095-.025.188.188 0 0 0-.095.025l-1.27.73Zm-1.93-1 1.33.77a.208.208 0 0 0 .19 0l3.08-1.78c.05 0 .05-.08 0-.11l-1.33-.77a.208.208 0 0 0-.19 0l-3.08 1.78c-.05-.05-.05 0 .01.03l-.01.08Zm19.28 11c-.05 0-.05.08 0 .11l1.63.94a.188.188 0 0 0 .095.025.188.188 0 0 0 .095-.025l1.27-.73c.05 0 .05-.08 0-.12l-1.64-1a.23.23 0 0 0-.2 0l-1.25.8Zm-4.9-2.83v.11l2 1.18a.208.208 0 0 0 .19 0l1.27-.74c.05 0 .05-.07 0-.11l-2-1.18a.208.208 0 0 0-.19 0l-1.27.74Zm9.39 5.42c-.05 0-.05.08 0 .11l10.96 6.26a.208.208 0 0 0 .19 0l1.27-.73c.05 0 0-.08 0-.11l-10.92-6.31a.23.23 0 0 0-.2 0l-1.3.78Zm11.54 6.61c-.05 0-.05.08 0 .11l1.63.94a.188.188 0 0 0 .095.025.188.188 0 0 0 .095-.025l1.27-.73v-.11l-1.63-.95a.208.208 0 0 0-.19 0l-1.27.74Zm-13.78-8c-.05 0 0 .08 0 .12l1.63.94a.276.276 0 0 0 .2 0l1.27-.74c.05 0 0-.08 0-.11l-1.64-.94a.208.208 0 0 0-.19 0l-1.27.73Zm16 9.25v.12l1.64.94a.25.25 0 0 0 .19 0l1.27-.74v-.11l-1.64-.94a.208.208 0 0 0-.19 0l-1.27.73Zm-20.51-11.84c-.05 0 0 .08 0 .11l1.63.95a.23.23 0 0 0 .2 0l1.27-.73c.05 0 0-.08 0-.11l-1.63-.94a.188.188 0 0 0-.095-.025.188.188 0 0 0-.095.025l-1.28.72Zm-6.94-4c-.05 0 0 .07 0 .11l1.33.76a.188.188 0 0 0 .095.025.188.188 0 0 0 .095-.025l1.27-.73c.05 0 .05-.08 0-.11l-1.33-.77a.208.208 0 0 0-.19 0l-1.27.74Zm-2.88-3.76 1.27-.73c.05 0 0-.08 0-.12l-1.33-.76a.208.208 0 0 0-.19 0l-1.27.73c-.05 0-.05.08 0 .12l1.33.76a.21.21 0 0 0 .21.04l-.02-.04Zm7.91.38 1.27-.73c.05 0 .05-.08 0-.11l-1.33-.77a.208.208 0 0 0-.19 0l-1.27.74c-.05 0 0 .07 0 .11l1.33.76a.192.192 0 0 0 .21.04l-.02-.04Zm5.15 7.16 1.27-.73c.05 0 .05-.08 0-.11l-3.88-2.24a.188.188 0 0 0-.095-.025.188.188 0 0 0-.095.025l-1.27.73c-.05 0 0 .08 0 .11l3.88 2.24a.192.192 0 0 0 .21.04l-.02-.04Zm-9.85-7.15c.05 0 0-.08 0-.12l-1.33-.76a.208.208 0 0 0-.19 0l-1.27.73c-.05 0-.05.08 0 .12l1.33.76a.208.208 0 0 0 .19 0l1.27-.73Zm.54-.32 1.27-.73c.05 0 .05-.08 0-.11l-1.33-.77a.25.25 0 0 0-.19 0l-1.27.74c-.05 0 0 .08 0 .11l1.33.76a.192.192 0 0 0 .21.04l-.02-.04Zm11.25 8.59 1.27-.73c.05 0 .05-.08 0-.11l-1.33-.77a.208.208 0 0 0-.19 0l-1.27.74c-.05 0 0 .07 0 .11l1.33.76a.192.192 0 0 0 .21.04l-.02-.04Zm-7.51-5.8c.05 0 .05-.08 0-.11l-1.32-.77a.23.23 0 0 0-.2 0l-1.27.73c-.05 0 0 .08 0 .11l1.32.77a.208.208 0 0 0 .19 0l1.28-.73Zm17.23 11.49 1.26-.74c.05 0 .05-.07 0-.11l-1.32-.76a.206.206 0 0 0-.1-.025.206.206 0 0 0-.1.025l-1.27.73c-.05 0 0 .08 0 .11l1.32.77a.24.24 0 0 0 .21 0Zm-1.94-1.12 1.27-.74v-.11l-1.32-.76a.208.208 0 0 0-.19 0l-1.27.73c-.05 0-.05.08 0 .12l1.32.76a.225.225 0 0 0 .1-.005.231.231 0 0 0 .09-.045v.05Zm3.87 2.24 1.27-.74c.05 0 .05-.08 0-.11l-1.32-.76a.206.206 0 0 0-.1-.025.206.206 0 0 0-.1.025l-1.27.73c-.05 0 0 .08 0 .11l1.32.77a.208.208 0 0 0 .2-.05v.05Zm-7.75-4.48 1.27-.73c.05 0 0-.08 0-.12l-1.34-.79a.208.208 0 0 0-.19 0l-1.27.73c-.05 0-.05.08 0 .12l1.33.76a.201.201 0 0 0 .103.015.2.2 0 0 0 .097-.035v.05Zm1.94 1.12 1.27-.73v-.12l-1.33-.76a.208.208 0 0 0-.19 0l-1.27.73c-.05 0-.05.08 0 .12l1.33.76a.216.216 0 0 0 .101-.001.216.216 0 0 0 .089-.049v.05Zm-3.88-2.24 1.27-.73c.05 0 0-.08 0-.11l-1.33-.77a.208.208 0 0 0-.19 0l-1.27.74c-.05 0-.05.07 0 .11l1.33.76c.033.01.068.01.102.001a.183.183 0 0 0 .088-.051v.05ZM131 188.692v-.11l-1.32-.76a.206.206 0 0 0-.1-.025.206.206 0 0 0-.1.025l-.33.2v.11l1.32.76a.206.206 0 0 0 .1.025.206.206 0 0 0 .1-.025l.33-.2Zm10.57 5.57c.05 0 .05-.08 0-.11l-1.33-.77a.25.25 0 0 0-.19 0l-1.27.74v.11l1.33.76a.188.188 0 0 0 .095.025.188.188 0 0 0 .095-.025l1.27-.73Zm-3.89-2.26c.06 0 0-.08 0-.11l-1.32-.77a.23.23 0 0 0-.2 0l-1.26.73v.11l1.32.77a.23.23 0 0 0 .2 0l1.26-.73Zm6.25 3.61v-.12l-1.33-.76a.208.208 0 0 0-.19 0l-1.27.73v.12l1.33.76a.208.208 0 0 0 .19 0l1.27-.73Zm-4.31-2.49v-.11l-1.32-.77a.23.23 0 0 0-.2 0l-1.27.73v.11l1.32.77a.208.208 0 0 0 .19 0l1.28-.73Zm8.19 4.72c.05 0 0-.07 0-.11l-1.33-.76a.188.188 0 0 0-.095-.025.188.188 0 0 0-.095.025l-1.27.73v.11l1.33.77a.208.208 0 0 0 .19 0l1.27-.74Zm-1.94-1.12v-.11l-1.33-.76a.208.208 0 0 0-.19 0l-1.27.73v.12l1.33.76a.208.208 0 0 0 .19 0l1.27-.74Zm-11-5.81v-.11l-1.33-.76a.188.188 0 0 0-.095-.025.188.188 0 0 0-.095.025l-.34.19c-.05 0 0 .08 0 .12l1.33.76a.208.208 0 0 0 .19 0l.34-.2Zm-5.81-3.36c.05 0 0-.07 0-.11l-1.32-.76a.243.243 0 0 0-.2 0l-.33.2c-.05 0-.05.08 0 .11l1.32.76a.206.206 0 0 0 .1.025.206.206 0 0 0 .1-.025l.33-.2Zm-1.74 1c.05 0 .05-.08 0-.11l-1.32-.74a.208.208 0 0 0-.19 0l-1.27.74c-.05 0 0 .07 0 .11l1.33.76a.188.188 0 0 0 .095.025.188.188 0 0 0 .095-.025l1.26-.76Zm-4.77 5 1.27-.73c.05 0 0-.08 0-.11l-1.33-.77a.208.208 0 0 0-.19 0l-1.27.74c-.05 0 0 .07 0 .11l1.33.76c.027.02.059.032.092.036a.194.194 0 0 0 .098-.016v-.02Zm10.38-3.76v-.11l-1.32-.76a.206.206 0 0 0-.1-.025.206.206 0 0 0-.1.025l-.34.2c-.05 0 0 .07 0 .11l1.32.76a.243.243 0 0 0 .2 0l.34-.2Zm16.82 9.21c.05 0 0-.07 0-.11l-1.33-.76a.188.188 0 0 0-.095-.025.188.188 0 0 0-.095.025l-1.27.73v.11l1.33.77a.208.208 0 0 0 .19 0l1.27-.74Z"/>
    <path fill="#26334D" d="m142.74 209.72-.27.15-7.23 4.17-12.85-7.41-.26-.16 7.49-4.32 13.12 7.57Z"/>
    <path fill="#37474F" d="m142.47 209.871-7.23 4.17-12.85-7.41 7.23-4.17 12.85 7.41Z"/>
    <path fill="#26334D" d="m142.47 209.871-7.23 4.17-12.85-7.41 7.23-4.17 12.85 7.41Z" opacity=".5"/>
    <path fill="#0EA5E9" d="M179.79 208.361a1.382 1.382 0 0 1-.37.16 1.75 1.75 0 0 0 .37-.15l.11-.08a.41.41 0 0 1-.11.07Z"/>
    <path fill="#000" d="M219.48 159.841a3.36 3.36 0 0 1-1.69-.44l-25.62-14.79 36.62-21.14 23.34 13.47a2.618 2.618 0 0 1 0 4.59l-31 17.87a3.361 3.361 0 0 1-1.65.44Z" opacity=".1"/>
    <path fill="#26334D" d="m227.75 126.111 23.49 12.37.48.75v.62a.874.874 0 0 1-.48.76l-30.95 17.87a1.734 1.734 0 0 1-1.62 0l-23-13.26v-.61l32.08-18.5Z"/>
    <path fill="#455A64" d="M219.48 158.07c.283.004.562-.065.81-.2L251.24 140a.825.825 0 0 0 .485-.755.832.832 0 0 0-.485-.755l-22.45-13-33.08 19.1 23 13.26c.235.136.499.211.77.22Z"/>
    <path fill="#EBEBEB" d="m228.79 123.721 22.21 12.81.23.32v2.38a.39.39 0 0 1-.23.32l-31 17.88a1.246 1.246 0 0 1-1.1 0l-22.2-12.82v-2.38l32.09-18.51Z"/>
    <path fill="#F0F0F0" d="m196.73 142.232.27.16 3.62 2.08.67.39 17.64 10.14a1.198 1.198 0 0 0 1.1 0l31-17.87a.337.337 0 0 0 .163-.125.336.336 0 0 0-.163-.515l-.3-.17-21.9-12.64-31.83 18.39h-.06l-.21.16Z"/>
    <path fill="#E0E0E0" d="M219.48 155.182v2.38c.191 0 .379-.044.55-.13l31-17.88a.368.368 0 0 0 .22-.32v-2.38a.384.384 0 0 1-.22.32L220 155.002a1.1 1.1 0 0 1-.52.18Z"/>
    <path fill="#FAFAFA" d="m196.73 141.91 4 2.31.63.36 17.58 10.14a1.186 1.186 0 0 0 1.1 0l27.72-16 .7-.4a6.676 6.676 0 0 0 2.24-2l.06-.08a.479.479 0 0 0-.32-.72 10.508 10.508 0 0 1-2.09-.88l-19.56-11.24-32.06 18.51Z"/>
    <path fill="#000" d="M200.86 141.631a.312.312 0 0 1 .151.117.313.313 0 0 1 0 .365.32.32 0 0 1-.151.118 1.182 1.182 0 0 1-1 0c-.29-.17-.29-.44 0-.6a1.075 1.075 0 0 1 1 0Z" opacity=".1"/>
    <path fill="#26334D" d="M196.84 141.311c-.01.17-.01.34 0 .51l.36-.21v-.3a1.427 1.427 0 0 1 .52-1.28.785.785 0 0 1 .37-.1c.224.01.441.079.63.2a3.854 3.854 0 0 1 1.55 2.22c.126.021.254.021.38 0a4.28 4.28 0 0 0-1.74-2.5 1.34 1.34 0 0 0-1.38-.1 1.76 1.76 0 0 0-.69 1.56ZM196.92 142a.272.272 0 0 0 0 .09h.06l-.06-.09Z"/>
    <path fill="#000" d="M204 139.841a.308.308 0 0 1 0 .59 1.1 1.1 0 0 1-1 0 .308.308 0 0 1-.155-.113.308.308 0 0 1 .155-.477 1.1 1.1 0 0 1 1 0Z" opacity=".1"/>
    <path fill="#26334D" d="M200 139.51a4.51 4.51 0 0 0 0 .52l.37-.21a1.605 1.605 0 0 1 0-.31 1.404 1.404 0 0 1 .52-1.27.689.689 0 0 1 .37-.1c.223.01.439.075.63.19a3.9 3.9 0 0 1 1.56 2.22c.126.024.254.024.38 0A4.359 4.359 0 0 0 202 138a1.356 1.356 0 0 0-1.38-.09 1.77 1.77 0 0 0-.62 1.6Z"/>
    <path fill="#000" d="M207.07 138.05a.308.308 0 0 1 0 .59 1.1 1.1 0 0 1-1 0 .308.308 0 0 1-.155-.113.308.308 0 0 1 .155-.477 1.1 1.1 0 0 1 1 0Z" opacity=".1"/>
    <path fill="#26334D" d="M203.05 137.721a3.224 3.224 0 0 0 0 .52l.36-.21v-.31a1.395 1.395 0 0 1 .52-1.27.7.7 0 0 1 .37-.1c.225.011.445.076.64.19a3.927 3.927 0 0 1 1.55 2.22c.125.024.254.024.38 0a4.352 4.352 0 0 0-1.74-2.51 1.344 1.344 0 0 0-1.39-.09 1.76 1.76 0 0 0-.69 1.56Z"/>
    <path fill="#000" d="M210.17 136.261c.28.16.29.43 0 .59a1.1 1.1 0 0 1-1 0 .308.308 0 0 1-.155-.113.308.308 0 0 1 .155-.477 1.1 1.1 0 0 1 1 0Z" opacity=".1"/>
    <path fill="#26334D" d="M206.15 135.931a3.224 3.224 0 0 0 0 .52l.36-.21v-.31a1.375 1.375 0 0 1 .53-1.27.653.653 0 0 1 .37-.1c.222.012.438.078.63.19a3.881 3.881 0 0 1 1.55 2.22c.125.024.254.024.38 0a4.293 4.293 0 0 0-1.74-2.51 1.38 1.38 0 0 0-1.39-.1 1.781 1.781 0 0 0-.545.697 1.779 1.779 0 0 0-.145.873Z"/>
    <path fill="#000" d="M213.27 134.461c.29.17.29.44 0 .6a1.075 1.075 0 0 1-1 0c-.29-.16-.29-.43 0-.6a1.141 1.141 0 0 1 1 0Z" opacity=".1"/>
    <path fill="#26334D" d="M209.25 134.14c-.01.17-.01.34 0 .51l.36-.2v-.31a1.424 1.424 0 0 1 .52-1.28.758.758 0 0 1 .37-.09c.223.006.441.072.63.19a3.854 3.854 0 0 1 1.55 2.22c.126.021.254.021.38 0a4.267 4.267 0 0 0-1.74-2.51 1.362 1.362 0 0 0-1.38-.1 1.77 1.77 0 0 0-.69 1.57Z"/>
    <path fill="#000" d="M216.38 132.671a.318.318 0 0 1 .209.3.318.318 0 0 1-.209.3 1.167 1.167 0 0 1-1 0c-.29-.17-.29-.43 0-.6a1.167 1.167 0 0 1 1 0Z" opacity=".1"/>
    <path fill="#26334D" d="M212.36 132.351c-.015.169-.015.34 0 .51l.36-.21c-.01-.1-.01-.201 0-.3a1.427 1.427 0 0 1 .52-1.28.77.77 0 0 1 .37-.09c.223.005.441.07.63.19a3.857 3.857 0 0 1 1.56 2.22c.125.024.254.024.38 0a4.336 4.336 0 0 0-1.75-2.5 1.362 1.362 0 0 0-1.38-.1 1.772 1.772 0 0 0-.69 1.56Z"/>
    <path fill="#000" d="M219.48 130.88a.318.318 0 0 1 .209.3.318.318 0 0 1-.209.3 1.167 1.167 0 0 1-1 0 .324.324 0 0 1-.209-.3.318.318 0 0 1 .209-.3 1.167 1.167 0 0 1 1 0Z" opacity=".1"/>
    <path fill="#26334D" d="M215.46 130.561c-.015.169-.015.34 0 .51l.36-.21v-.3a1.427 1.427 0 0 1 .52-1.28.805.805 0 0 1 .37-.09c.226.006.447.071.64.19a3.898 3.898 0 0 1 1.55 2.22c.125.024.254.024.38 0a4.319 4.319 0 0 0-1.74-2.5 1.36 1.36 0 0 0-1.39-.1 1.772 1.772 0 0 0-.69 1.56Z"/>
    <path fill="#000" d="M222.58 129.091c.29.17.29.43 0 .6a1.167 1.167 0 0 1-1 0 .32.32 0 0 1-.151-.118.313.313 0 0 1 0-.365.312.312 0 0 1 .151-.117 1.167 1.167 0 0 1 1 0Z" opacity=".1"/>
    <path fill="#26334D" d="M218.56 128.771c-.01.17-.01.34 0 .51l.36-.21v-.3a1.427 1.427 0 0 1 .53-1.28.763.763 0 0 1 .37-.1c.224.01.441.079.63.2a3.854 3.854 0 0 1 1.55 2.22.999.999 0 0 0 .38-.05 4.283 4.283 0 0 0-1.74-2.5 1.34 1.34 0 0 0-1.38-.1 1.765 1.765 0 0 0-.7 1.61Z"/>
    <path fill="#000" d="M225.68 127.3a.32.32 0 0 1 .151.118.313.313 0 0 1 0 .365.312.312 0 0 1-.151.117 1.168 1.168 0 0 1-1 0c-.29-.17-.29-.44 0-.6a1.086 1.086 0 0 1 1 0Z" opacity=".1"/>
    <path fill="#26334D" d="M221.66 127.001a4.51 4.51 0 0 0 0 .52l.36-.21v-.31a1.404 1.404 0 0 1 .52-1.27.763.763 0 0 1 .37-.1c.224.011.441.08.63.2a3.854 3.854 0 0 1 1.55 2.22c.129.005.257-.012.38-.05a4.283 4.283 0 0 0-1.74-2.5 1.35 1.35 0 0 0-.676-.242 1.35 1.35 0 0 0-.704.142 1.75 1.75 0 0 0-.69 1.6Z"/>
    <path fill="#000" d="M228.79 125.511a.308.308 0 0 1 0 .59 1.1 1.1 0 0 1-1 0 .308.308 0 0 1-.155-.113.308.308 0 0 1 .155-.477 1.1 1.1 0 0 1 1 0Z" opacity=".1"/>
    <path fill="#26334D" d="M224.77 125.18a3.237 3.237 0 0 0 0 .521l.36-.21a1.616 1.616 0 0 1 0-.311 1.404 1.404 0 0 1 .52-1.269.68.68 0 0 1 .37-.1c.224.008.442.078.63.199a3.836 3.836 0 0 1 1.56 2.22c.126.021.254.021.38 0a4.389 4.389 0 0 0-1.74-2.509 1.384 1.384 0 0 0-1.39-.09 1.767 1.767 0 0 0-.69 1.549Z"/>
    <path fill="#EBEBEB" d="M222.58 151.471a.33.33 0 0 1-.14 0l-17.08-9.86a.267.267 0 0 1-.084-.073.282.282 0 0 1-.016-.317.293.293 0 0 1 .39-.11l17.07 9.87a.276.276 0 0 1 .138.167.268.268 0 0 1-.028.213.265.265 0 0 1-.25.11ZM224.65 150.27a.239.239 0 0 1-.14 0l-17.08-9.86a.284.284 0 0 1-.138-.285.282.282 0 0 1 .418-.205l17.08 9.86a.28.28 0 0 1 .138.171.27.27 0 0 1-.028.219.311.311 0 0 1-.113.08.305.305 0 0 1-.137.02ZM226.72 149.081a.239.239 0 0 1-.14 0l-17.08-9.86a.29.29 0 0 1-.132-.171.273.273 0 0 1 .027-.214.277.277 0 0 1 .281-.14.262.262 0 0 1 .104.035l17.08 9.86a.267.267 0 0 1 .084.073.282.282 0 0 1 .016.317.276.276 0 0 1-.24.1ZM228.79 147.882a.33.33 0 0 1-.14 0l-17.08-9.88a.273.273 0 0 1-.146-.276.269.269 0 0 1 .036-.104.275.275 0 0 1 .072-.087.27.27 0 0 1 .212-.06.274.274 0 0 1 .106.037l17.08 9.86a.267.267 0 0 1 .084.073.282.282 0 0 1 .016.317.271.271 0 0 1-.24.12ZM230.86 146.69a.273.273 0 0 1-.15 0l-17.08-9.86a.293.293 0 0 1-.083-.074.308.308 0 0 1-.048-.1.287.287 0 0 1 .205-.346.26.26 0 0 1 .111-.006.28.28 0 0 1 .105.036l17.08 9.82c.064.04.11.103.129.175a.293.293 0 0 1-.029.215.267.267 0 0 1-.101.102.271.271 0 0 1-.139.038ZM232.92 145.501a.411.411 0 0 1-.14 0l-17.08-9.899a.296.296 0 0 1-.129-.175.293.293 0 0 1 .029-.215.265.265 0 0 1 .072-.087.27.27 0 0 1 .212-.06.274.274 0 0 1 .106.037l17.08 9.899c.064.04.11.103.129.175a.293.293 0 0 1-.029.215.285.285 0 0 1-.25.11ZM235 144.3a.256.256 0 0 1-.14 0l-17.08-9.86a.286.286 0 0 1 .29-.49l17.08 9.86a.29.29 0 0 1 .1.39.29.29 0 0 1-.25.1ZM237.06 143.11a.33.33 0 0 1-.14 0l-17.08-9.86a.288.288 0 0 1-.133-.174.277.277 0 0 1-.005-.111.266.266 0 0 1 .038-.105.29.29 0 0 1 .39-.11l17.07 9.87c.033.017.063.04.086.069a.261.261 0 0 1 .06.207.274.274 0 0 1-.036.104.283.283 0 0 1-.111.086.277.277 0 0 1-.139.024ZM239.13 141.91a.239.239 0 0 1-.14 0L221.91 132a.287.287 0 0 1-.105-.385.274.274 0 0 1 .171-.132.271.271 0 0 1 .214.027l17.08 9.86a.28.28 0 0 1 .138.171.267.267 0 0 1 .009.112.294.294 0 0 1-.143.214.292.292 0 0 1-.144.043ZM241.2 140.72a.223.223 0 0 1-.14 0l-17.06-9.9a.286.286 0 0 1-.132-.171.268.268 0 0 1-.008-.109.286.286 0 0 1 .206-.237.292.292 0 0 1 .11-.008.298.298 0 0 1 .104.035l17.08 9.86c.066.038.114.1.134.173a.287.287 0 0 1-.024.217.299.299 0 0 1-.27.14ZM243.27 139.52a.301.301 0 0 1-.14 0l-17.08-9.87a.265.265 0 0 1-.146-.276.29.29 0 0 1 .426-.214l17.08 9.84a.284.284 0 0 1 .138.286.274.274 0 0 1-.14.202.267.267 0 0 1-.138.032ZM245.34 138.331a.273.273 0 0 1-.15 0l-17.08-9.86a.29.29 0 0 1-.027-.474.277.277 0 0 1 .212-.054.266.266 0 0 1 .105.038l17.08 9.86a.29.29 0 0 1 .1.39.273.273 0 0 1-.108.079.27.27 0 0 1-.132.021ZM247.4 137.141a.411.411 0 0 1-.14 0l-17.08-9.86a.29.29 0 0 1-.1-.39.287.287 0 0 1 .171-.138.27.27 0 0 1 .113-.008.273.273 0 0 1 .106.036l17.08 9.86c.064.04.11.102.129.175a.293.293 0 0 1-.029.215.283.283 0 0 1-.111.086.279.279 0 0 1-.139.024Z"/>
    <path fill="#0EA5E9" d="M220.48 152.661a.239.239 0 0 1-.14 0l-18.07-10.45a.285.285 0 0 1-.128-.17.275.275 0 0 1 .028-.21.275.275 0 0 1 .072-.087.27.27 0 0 1 .212-.06.274.274 0 0 1 .106.037l18.06 10.45a.28.28 0 0 1 .138.171.267.267 0 0 1 .009.112.29.29 0 0 1-.037.107.297.297 0 0 1-.113.079.293.293 0 0 1-.137.021Z"/>
    <g opacity=".25">
      <path fill="#455A64" d="M211.86 140.071c.362-.224.664-.533.88-.9a.775.775 0 0 1 .38-.09c.5.07.08.26 0 .45s0 .12.09.11c.35-.06 1.19-.26 1 .3a.078.078 0 0 0 .005.06.077.077 0 0 0 .045.04c.11 0 .58.1.53.22a.078.078 0 0 0-.006.037.092.092 0 0 0 .013.036c.006.011.016.02.027.026.011.006.023.01.036.011.37-.025.74-.025 1.11 0 .168 0 .335.016.5.05.11.14-.07.42-.12.51a.086.086 0 0 0-.021.029.115.115 0 0 0-.007.036c0 .012.003.024.007.035a.102.102 0 0 0 .021.03c.19.08.34.19.21.4a.076.076 0 0 0-.02.027.072.072 0 0 0-.007.033.078.078 0 0 0 .027.06c.47.13 1.32-.26 1.45.31.08.34 0 .42.46.39.08 0 .14-.16 0-.16-.46 0-.12-.52-.38-.7-.26-.18-.88.16-1.17 0-.29-.16.05-.19-.12-.4 0-.05-.16 0-.18-.08-.02-.08-.07-.07-.09-.07a.405.405 0 0 0 0-.13c0-.09.06-.08.07-.14.11-.52-.74-.4-1.08-.43a4.277 4.277 0 0 1-.62 0v-.15c0-.02-.49-.18-.5-.2-.01-.02.11-.2.05-.31-.13-.27-.72-.12-.94-.12h-.16a.18.18 0 0 0 .14-.15c0-.07.05-.11 0-.2a.43.43 0 0 0-.31-.19 1.172 1.172 0 0 0-.45.08.81.81 0 0 0 .07-.47c-.13-.52-.71-.14-1 0-.07 0-.1.17 0 .14.212-.099.438-.163.67-.19.27.05.07.46-.09.71l-.34.18a1.458 1.458 0 0 0-.7.44c-.14.39.19.5.52.33Zm.19-.55.26-.13c-.1.191-.253.351-.44.46 0 0-.37.14-.26 0a.993.993 0 0 1 .44-.33ZM219.23 144.191a.048.048 0 0 0-.014.035c0 .013.005.025.014.035.4.13.78-.34.92-.81.15 0 .46-.07.52.16 0 0-.08.21-.09.25-.01.04 0 .07.08.08.22 0 .92-.26.81.12a.08.08 0 0 0 0 .09c.19.12.59-.09.64.19 0 .13-.24.25-.1.44.14.19.32.05.45 0s.16-.11.25-.08 0 .09.05.13c.05.04.05.1.1.13s.14 0 .2 0 .1-.08.15-.08c.094.006.185.03.27.07 0 0 .4.18.36.11.06.11-.18.29-.06.46.12.17.71 0 .88 0 .17 0 .14-.17 0-.17h-.41c-.36-.15-.26-.26-.2-.44s0-.11-.06-.1c-.24 0-.41-.22-.59-.22a2.742 2.742 0 0 0-.29.11c-.28 0-.15-.09-.15-.28a.069.069 0 0 0-.034-.057.064.064 0 0 0-.033-.01.064.064 0 0 0-.033.007c-.16.06-.58.39-.59 0 0-.06.17-.16.19-.24.02-.08-.06-.23-.23-.27a.851.851 0 0 0-.35.05c-.44.07-.07 0-.22-.12a.422.422 0 0 0-.188-.12.419.419 0 0 0-.222-.01 1.755 1.755 0 0 1-.29 0c-.24-.06-.08 0-.09-.16-.01-.16.09-.19 0-.31s-.19-.2-.39-.16a1.456 1.456 0 0 0-.39.13c0-.32-.05-.59-.36-.58-.09 0-.16.15-.05.16.11.01.22.3.15.55-.21.28-.58.6-.6.91Zm.39-.29a.995.995 0 0 1 .28-.28v.11c-.09.06-.36.4-.28.17ZM214.2 146.19c.359-.225.658-.534.87-.9a.788.788 0 0 1 .39-.09c.5.07.08.26 0 .45a.073.073 0 0 0-.007.046.078.078 0 0 0 .02.043c.01.011.025.02.04.024a.093.093 0 0 0 .047-.003c.35-.06 1.19-.26 1 .3a.063.063 0 0 0-.016.023.076.076 0 0 0 0 .054.087.087 0 0 0 .016.023c.1 0 .58.1.53.22a.078.078 0 0 0-.006.037.092.092 0 0 0 .013.036.075.075 0 0 0 .027.026c.011.006.023.01.036.011a8.076 8.076 0 0 1 1.1 0c.171 0 .342.017.51.05.11.14-.07.42-.12.51a.086.086 0 0 0-.021.029.115.115 0 0 0-.007.036c0 .012.003.024.007.035a.102.102 0 0 0 .021.03c.19.08.33.19.21.4a.068.068 0 0 0-.02.027.072.072 0 0 0-.007.033.078.078 0 0 0 .027.06c.48.13 1.32-.26 1.46.31.08.34 0 .42.46.39.07 0 .13-.16 0-.16-.45 0-.12-.52-.38-.7-.26-.18-.88.16-1.16 0-.28-.16 0-.19-.12-.4 0 0-.16 0-.19-.08s.07-.06.07-.06a.405.405 0 0 0 0-.13c0-.09.05-.08.06-.14.12-.52-.73-.4-1.07-.43a4.277 4.277 0 0 1-.62 0v-.15c0-.02-.5-.18-.51-.2-.01-.02.11-.2.06-.31-.14-.27-.73-.12-.94-.12h-.16a.18.18 0 0 0 .14-.15c0-.07.05-.11 0-.2-.05-.09-.18-.17-.32-.19a1.256 1.256 0 0 0-.45.08.743.743 0 0 0 .07-.47c-.12-.52-.7-.14-1 0-.07 0-.09.17 0 .14s.5-.22.66-.19c.16.03.07.46-.09.71l-.33.18a1.458 1.458 0 0 0-.7.44c-.27.38.07.49.4.32Zm.19-.55.26-.13a1.222 1.222 0 0 1-.44.46s-.37.14-.27 0c.118-.149.273-.262.45-.33ZM207.77 142.379c.001.016.006.03.015.043a.077.077 0 0 0 .035.027c.41.12.78-.35.92-.82.15 0 .47-.07.52.17a1.689 1.689 0 0 0-.08.24c0 .05 0 .07.07.08.22 0 .92-.26.81.12a.08.08 0 0 0 0 .09c.18.12.58-.09.64.19 0 .13-.25.26-.1.44s.31 0 .45 0 .16-.12.25-.09 0 .09 0 .13c0 .04.06.11.1.13.04.02.14 0 .21 0 .07 0 .09-.08.14-.08.096.012.19.035.28.07 0 0 .39.18.35.11.06.11-.18.3-.06.46.12.16.72 0 .88 0 .16 0 .15-.17 0-.17s-.4.06-.41.05c-.35-.15-.26-.26-.19-.43.07-.17 0-.12-.07-.11-.24 0-.4-.22-.59-.22-.19 0-.25.11-.29.11-.28 0-.14-.08-.15-.28a.075.075 0 0 0-.01-.032.062.062 0 0 0-.024-.024.064.064 0 0 0-.033-.01.063.063 0 0 0-.033.006c-.16.06-.58.39-.59 0 0 0 .18-.16.19-.24.01-.08-.06-.23-.22-.27a.851.851 0 0 0-.35.05c-.45.07-.07 0-.22-.12a.449.449 0 0 0-.42-.13.877.877 0 0 1-.28 0c-.25-.06-.08 0-.09-.16-.01-.16.09-.19.05-.31-.04-.12-.2-.2-.4-.16a1.96 1.96 0 0 0-.38.13c0-.32-.06-.59-.37-.58-.08 0-.16.15-.05.17.11.02.22.3.16.54-.27.24-.63.56-.66.88Zm.39-.3c.077-.112.175-.207.29-.28a.357.357 0 0 1-.06.11c-.04.09-.31.41-.23.17ZM224.48 133.1c.359-.225.658-.534.87-.9a.698.698 0 0 1 .39-.09c.5.07.08.26 0 .45a.104.104 0 0 0 0 .043.095.095 0 0 0 .021.038c.01.011.022.019.036.024a.09.09 0 0 0 .043.005c.35-.06 1.19-.27 1 .3a.067.067 0 0 0-.007.031c0 .011.002.022.007.031a.072.072 0 0 0 .05.038c.1 0 .58.1.53.22a.078.078 0 0 0-.001.034.07.07 0 0 0 .013.032c.006.01.015.018.025.023.01.006.021.01.033.011.366-.02.734-.02 1.1 0 .171.008.342.028.51.06.11.13-.07.42-.12.51a.076.076 0 0 0-.02.027.075.075 0 0 0-.007.033.078.078 0 0 0 .027.06c.19.09.33.2.21.4a.081.081 0 0 0-.021.03.104.104 0 0 0-.007.035c0 .012.003.024.007.035a.102.102 0 0 0 .021.03c.48.13 1.32-.26 1.46.3.08.35 0 .43.46.39.07 0 .13-.15 0-.15-.45 0-.12-.52-.38-.7-.26-.18-.88.16-1.16 0-.28-.16 0-.2-.12-.4s-.16 0-.19-.08-.07-.07-.08-.07a.405.405 0 0 0 0-.13c0-.09.05-.08.06-.14.12-.53-.73-.4-1.07-.43h-.62c-.06 0 0-.13 0-.15 0-.02-.5-.19-.51-.21-.01-.02.12-.19.06-.3-.14-.27-.73-.13-.94-.12H226a.158.158 0 0 0 .094-.046.153.153 0 0 0 .046-.094c0-.07.05-.11 0-.21-.05-.1-.17-.17-.32-.18a1.066 1.066 0 0 0-.45.08.68.68 0 0 0 .07-.47c-.12-.52-.7-.14-1 0-.07 0-.09.18 0 .15s.5-.23.66-.2c.16.03.07.47-.09.72-.12.06-.23.13-.33.17-.271.08-.514.236-.7.45-.17.37.17.48.5.31Zm.19-.55.26-.14a1.33 1.33 0 0 1-.44.47s-.37.13-.27 0a.999.999 0 0 1 .45-.33ZM231.84 137.219a.08.08 0 0 0 .015.042.08.08 0 0 0 .035.028c.41.13.78-.35.92-.82.15 0 .47-.06.53.17a2.036 2.036 0 0 0-.09.24.076.076 0 0 0 .002.03c.003.01.008.019.015.026a.055.055 0 0 0 .024.018.072.072 0 0 0 .029.006c.23 0 .93-.26.81.13a.059.059 0 0 0-.015.04c0 .015.005.029.015.04.18.13.58-.08.64.2 0 .12-.25.25-.1.44s.32 0 .45 0 .16-.12.25-.09 0 .1 0 .14c0 .04.06.1.11.13s.13 0 .2 0 .09-.07.14-.08c.096.015.19.042.28.08 0 0 .39.18.35.11.06.1-.17.29 0 .45.17.16.71 0 .87 0 .16 0 .15-.18.05-.17h-.42c-.35-.16-.26-.26-.19-.44a.068.068 0 0 0 .013-.039.07.07 0 0 0-.01-.04.076.076 0 0 0-.032-.027.072.072 0 0 0-.041-.004c-.24 0-.4-.22-.58-.21-.099.03-.196.067-.29.11-.29 0-.15-.09-.16-.28a.097.097 0 0 0-.01-.033.082.082 0 0 0-.024-.025.07.07 0 0 0-.032-.013.078.078 0 0 0-.034.001c-.16.06-.57.4-.58 0 0 0 .17-.16.18-.24.01-.08-.06-.23-.22-.26a1.028 1.028 0 0 0-.35 0c-.45.08-.07 0-.22-.11s-.17-.14-.42-.13h-.28c-.24-.07-.08 0-.09-.16-.01-.16.09-.19 0-.31s-.2-.2-.4-.16c-.132.025-.26.069-.38.13 0-.33-.06-.6-.37-.59-.08 0-.16.16-.05.17.11.01.22.3.16.55-.31.32-.67.64-.7.95Zm.39-.29a.856.856 0 0 1 .29-.29.357.357 0 0 1-.06.11c-.03.07-.31.41-.23.18ZM226.82 139.219c.357-.227.655-.536.87-.9a.69.69 0 0 1 .38-.09c.5.07.08.26 0 .45a.078.078 0 0 0-.006.043.074.074 0 0 0 .018.039.08.08 0 0 0 .078.028c.35-.06 1.19-.27 1 .3a.073.073 0 0 0-.016.023.08.08 0 0 0-.005.027.08.08 0 0 0 .005.027.073.073 0 0 0 .016.023c.11 0 .59.1.53.22a.078.078 0 0 0-.001.034.07.07 0 0 0 .013.032c.007.01.015.018.025.024a.09.09 0 0 0 .033.01c.37-.02.74-.02 1.11 0a3.5 3.5 0 0 1 .5.06c.11.13-.07.42-.12.51a.07.07 0 0 0-.025.026.067.067 0 0 0-.009.034c0 .012.003.024.009.034a.07.07 0 0 0 .025.026c.18.09.33.2.2.4a.081.081 0 0 0-.021.03.104.104 0 0 0-.007.035.09.09 0 0 0 .028.065c.47.13 1.32-.26 1.45.3.09.35 0 .43.46.39.08 0 .14-.15 0-.15-.46 0-.12-.52-.38-.7-.26-.18-.88.16-1.17 0-.29-.16 0-.2-.11-.4-.05 0-.16 0-.19-.08s-.07-.07-.08-.07c-.01 0 0-.05 0-.13s.06-.08.07-.14c.11-.53-.73-.4-1.08-.43h-.62c-.07 0 0-.13 0-.15 0-.02-.49-.19-.5-.21-.01-.02.11-.19.05-.3-.13-.27-.72-.13-.94-.12h-.16a.168.168 0 0 0 .15-.14v-.21c0-.1-.17-.17-.31-.18a1.007 1.007 0 0 0-.45.08.81.81 0 0 0 .07-.47c-.13-.52-.71-.14-1 0-.07 0-.09.18 0 .15s.49-.23.66-.2c.17.03.07.47-.09.72l-.34.17c-.271.08-.514.237-.7.45-.09.37.25.48.58.31Zm.18-.55.26-.14c-.1.195-.252.358-.44.47 0 0-.36.13-.26 0a1 1 0 0 1 .44-.33ZM220.39 135.4s0 .06.05.07c.4.13.78-.34.92-.81.15 0 .47-.07.52.16 0 0-.08.21-.09.25-.01.04 0 .07.08.08.22 0 .92-.27.81.12a.1.1 0 0 0 0 .09c.19.12.59-.09.64.19 0 .12-.24.25-.1.44.14.19.32 0 .45 0s.16-.12.25-.08c.09.04 0 .09.05.13.05.04.05.1.1.13s.14 0 .2 0 .1-.07.15-.07c.094.006.185.03.27.07 0 0 .4.18.36.11.06.1-.18.29-.06.45.12.16.71 0 .88 0 .17 0 .14-.17 0-.17l-.41.05c-.36-.15-.26-.26-.2-.44s0-.11-.06-.1c-.24 0-.41-.22-.59-.22a2.742 2.742 0 0 0-.29.11c-.28 0-.15-.09-.15-.28a.069.069 0 0 0-.034-.057.064.064 0 0 0-.033-.01.064.064 0 0 0-.033.007c-.16.06-.58.39-.59 0 0-.06.17-.16.19-.25.02-.09-.06-.23-.23-.26a.826.826 0 0 0-.35 0c-.44.07-.07 0-.22-.12s-.17-.14-.41-.13h-.29c-.24-.07-.08 0-.09-.16-.01-.16.09-.19.05-.31-.04-.12-.19-.2-.39-.16a1.456 1.456 0 0 0-.39.13c0-.33-.05-.59-.36-.58-.09 0-.16.15-.05.16.11.01.22.3.16.55-.32.28-.69.6-.71.91Zm.39-.29c0-.07.15-.18.28-.28l-.05.11c-.01.06-.31.4-.23.17ZM225.52 143.43c.357-.227.655-.536.87-.9a.698.698 0 0 1 .39-.09c.5.07.08.26 0 .45a.073.073 0 0 0-.007.046.078.078 0 0 0 .02.043.079.079 0 0 0 .087.021c.35-.06 1.19-.27 1 .3v.1c0 .01.59.1.54.22a.075.075 0 0 0-.007.036.071.071 0 0 0 .013.034.065.065 0 0 0 .028.024.074.074 0 0 0 .036.006h1.1c.171.008.342.028.51.06.11.14-.07.42-.13.51a.076.076 0 0 0-.02.027.075.075 0 0 0-.007.033c0 .011.002.023.007.033.005.01.011.019.02.027.19.09.33.2.21.4a.081.081 0 0 0-.021.03.104.104 0 0 0-.007.035.09.09 0 0 0 .028.065c.48.13 1.32-.26 1.46.3.08.35 0 .43.46.4.07 0 .13-.16 0-.16-.45 0-.12-.52-.38-.7-.26-.18-.88.16-1.16 0-.28-.16 0-.19-.12-.4 0 0-.16 0-.19-.08s-.07-.07-.08-.07a.405.405 0 0 0 0-.13c0-.09.05-.08.06-.14.11-.53-.73-.4-1.07-.43-.21.015-.42.015-.63 0v-.15c0-.02-.5-.19-.51-.21-.01-.02.11-.19.06-.3-.14-.27-.73-.13-.94-.12h-.17a.168.168 0 0 0 .15-.14.423.423 0 0 0 0-.2c0-.17-.18-.18-.32-.19a1.069 1.069 0 0 0-.45.08.743.743 0 0 0 .07-.47c-.12-.52-.7-.14-1 0-.07 0-.09.17 0 .14s.5-.23.66-.2c.16.03.07.47-.09.72-.12.06-.23.13-.33.17a1.57 1.57 0 0 0-.7.45c-.11.38.23.49.56.32Zm.19-.55.25-.13c-.102.187-.25.345-.43.46 0 0-.37.13-.27 0 .12-.146.275-.26.45-.33ZM220.18 139.999a.08.08 0 0 0 .015.042.08.08 0 0 0 .035.028c.41.13.78-.35.92-.82.15 0 .47-.06.52.17a2.328 2.328 0 0 0-.08.24c0 .05 0 .07.07.08.22 0 .92-.26.81.13a.073.073 0 0 0-.013.04c0 .014.005.028.013.04.18.13.58-.08.64.19.06.27-.25.26-.1.45s.31 0 .45 0 .16-.12.25-.09 0 .09 0 .14c0 .05.06.1.1.13.04.03.14 0 .21 0 .07 0 .09-.08.14-.08.096.015.19.042.28.08 0 0 .39.18.35.11.06.1-.18.29-.06.45.12.16.72 0 .88 0 .16 0 .15-.18 0-.18l-.41.06c-.35-.16-.26-.26-.19-.44a.078.078 0 0 0 .006-.037.092.092 0 0 0-.013-.036.068.068 0 0 0-.027-.026.089.089 0 0 0-.036-.011c-.24 0-.4-.22-.59-.21-.19.01-.25.11-.29.1-.28 0-.14-.08-.15-.28-.01-.2 0-.07-.1-.06-.1.01-.58.39-.59 0 0-.05.18-.16.19-.24.01-.08-.06-.23-.22-.27a1.028 1.028 0 0 0-.35 0c-.45.07-.07 0-.22-.12a.422.422 0 0 0-.42-.12 1.31 1.31 0 0 1-.28 0c-.25-.06-.08 0-.09-.15-.01-.15.09-.19.05-.32-.04-.13-.2-.19-.4-.16a1.96 1.96 0 0 0-.38.13c0-.32-.06-.59-.37-.58-.08 0-.16.15 0 .17.16.02.22.3.16.55-.32.26-.68.59-.71.9Zm.39-.3c.077-.112.175-.207.29-.28a.357.357 0 0 1-.06.11c-.04.07-.31.41-.23.17ZM216.21 136.05c.035.164.035.335 0 .5 0 .021.008.041.023.056a.082.082 0 0 0 .057.024c.22 0 .92-.26.81.13a.08.08 0 0 0-.011.04c0 .014.004.027.011.04.19.13.59-.08.64.2 0 .12-.24.25-.1.44.14.19.32 0 .45 0s.16-.12.25-.09 0 .09.05.14c.05.05.05.1.1.13s.14 0 .2 0 .1-.08.15-.08c.093.014.184.041.27.08 0 0 .4.18.36.11.06.1-.18.29-.06.45.12.16.71 0 .88 0 .17 0 .14-.18 0-.18l-.41.06c-.36-.16-.26-.26-.2-.44s0-.11-.06-.11c-.24 0-.41-.22-.59-.21-.18.01-.26.11-.29.1-.28 0-.15-.08-.15-.28 0 0-.06-.07-.1-.06-.04.01-.58.4-.59 0 0-.05.17-.16.19-.24.02-.08-.06-.23-.23-.27a1.038 1.038 0 0 0-.35.05c-.44.07-.07 0-.22-.11s-.17-.14-.41-.13h-.29c-.24-.07-.08 0-.09-.16-.01-.16.09-.19.05-.32-.04-.13-.32-.32-.39-.08a.139.139 0 0 0 0 .09.36.36 0 0 0 .05.12Z" opacity=".25"/>
    </g>
    <path fill="#000" d="M193.49 256.691a2.843 2.843 0 0 1-1.37-.33l-22.87-13.2a1.14 1.14 0 0 1 0-2.1l4.08-2.35-2-1.13a1.261 1.261 0 0 1-.7-1.05 1.231 1.231 0 0 1 .7-1l33.67-19.47a2.92 2.92 0 0 1 2.74 0l22.87 13.2a1.221 1.221 0 0 1 .7 1 1.253 1.253 0 0 1-.7 1.05l-4.08 2.36 1.95 1.13a1.216 1.216 0 0 1 .7 1 1.254 1.254 0 0 1-.69 1.05l-33.66 19.43a2.825 2.825 0 0 1-1.34.41Z" opacity=".05"/>
    <path fill="#EBEBEB" d="M228.77 234.111a.795.795 0 0 0-.48-.66l-22.86-13.21a2.578 2.578 0 0 0-2.3 0l-33.66 19.43a.83.83 0 0 0-.47.67v1a.806.806 0 0 0 .47.66l22.87 13.2a2.514 2.514 0 0 0 2.3 0l33.65-19.43a.781.781 0 0 0 .329-.259.782.782 0 0 0 .151-.391v-1.01Z"/>
    <path fill="#fff" d="m169.47 239.671 33.66-19.43a2.578 2.578 0 0 1 2.3 0l22.86 13.21a.69.69 0 0 1 0 1.32l-33.65 19.43a2.514 2.514 0 0 1-2.3 0l-22.87-13.2a.698.698 0 0 1-.348-1.075.694.694 0 0 1 .348-.255Z"/>
    <path fill="#E0E0E0" d="M193.49 254.48v1c-.4.013-.797-.08-1.15-.27L169.48 242a.797.797 0 0 1-.48-.66v-1a.803.803 0 0 0 .48.66l22.86 13.2c.352.193.749.289 1.15.28Z"/>
    <path fill="#EBEBEB" d="M230.9 228.53a.795.795 0 0 0-.48-.66l-22.87-13.2a2.526 2.526 0 0 0-2.3 0L171.6 234.1a.797.797 0 0 0-.48.66v1a.816.816 0 0 0 .48.66l22.87 13.2a2.514 2.514 0 0 0 2.3 0l33.65-19.43a.828.828 0 0 0 .48-.65v-1.01Z"/>
    <path fill="#fff" d="m171.6 234.1 33.65-19.43a2.526 2.526 0 0 1 2.3 0l22.87 13.2c.14.046.262.135.348.255a.695.695 0 0 1 0 .821.698.698 0 0 1-.348.254l-33.65 19.43a2.579 2.579 0 0 1-2.3 0l-22.87-13.21a.696.696 0 0 1-.338-1.064.705.705 0 0 1 .338-.256Z"/>
    <path fill="#E0E0E0" d="M195.62 248.901v1a2.325 2.325 0 0 1-1.16-.28l-22.86-13.15a.818.818 0 0 1-.326-.271.82.82 0 0 1-.144-.399v-1a.769.769 0 0 0 .47.66l22.86 13.21c.362.171.76.25 1.16.23Z"/>
    <path fill="#000" d="M272 212.772a2.718 2.718 0 0 1-1.31-.32l-36.8-21.25a1.514 1.514 0 0 1-.81-1.26 1.53 1.53 0 0 1 .76-1.3l30.39-19.32a2.904 2.904 0 0 1 2.76-.06l10.94 6.33a1.998 1.998 0 0 1 .78 2.62l-.44.87a.36.36 0 0 0 .13.47l22.06 12.84a1.438 1.438 0 0 1 .61 2.018 1.444 1.444 0 0 1-.56.542l-27.07 17.43a2.696 2.696 0 0 1-1.44.39Z" opacity=".1"/>
    <path fill="#0EA5E9" d="m272.53 210.591 27.57-16a.594.594 0 0 0 .304-.917.59.59 0 0 0-.304-.213l-37.81-21.46a2.174 2.174 0 0 0-2 0L233 187.771a.6.6 0 0 0 0 1.14l37.56 21.68a2.188 2.188 0 0 0 1.97 0Z"/>
    <path fill="#455A64" d="m272.53 210.591 27.57-16a.594.594 0 0 0 .304-.917.59.59 0 0 0-.304-.213l-37.81-21.46a2.174 2.174 0 0 0-2 0L233 187.771a.6.6 0 0 0 0 1.14l37.56 21.68a2.188 2.188 0 0 0 1.97 0Z" opacity=".2"/>
    <path fill="#0EA5E9" d="m233 187.731 31-19.73a2.05 2.05 0 0 1 2 0l11.17 6.45a1.207 1.207 0 0 1 .46 1.58l-.45.89a1.21 1.21 0 0 0 .46 1.58l22.51 13.1a.64.64 0 0 1 0 1.19l-27.65 17.75a2.007 2.007 0 0 1-1.93.05L233 188.911a.633.633 0 0 1-.409-.59.628.628 0 0 1 .409-.59Z"/>
    <path fill="#000" d="m242.89 165.959-34.87 20.09 4.19 2.42 34.63-20.23" opacity=".1"/>
    <path fill="#F28F8F" d="m246.29 167.001 4.15-4.93a.205.205 0 0 0 .042-.111.201.201 0 0 0-.232-.209l-6.33 1.4 2.37 3.85Z"/>
    <path fill="#FFA8A7" d="m250.28 161.699-6.33 1.4 1.25 2 .68-.41 4.42-2.79-.02-.2Z"/>
    <path fill="#26334D" d="M250.25 161.7a.197.197 0 0 1 .204.095c.02.035.03.075.028.115a.202.202 0 0 1-.042.11l-.81 1a1.083 1.083 0 0 0-.64-.93l-.1-.05 1.36-.34Z"/>
    <path fill="#37474F" d="m215.29 180.38.51-.31.61-.38 27.51-16.59c.71.154 1.336.572 1.75 1.17a2.99 2.99 0 0 1 .62 2.68l-27.5 16.59-1.17.71c.73-.51-1.62-4.37-2.33-3.87Z"/>
    <path fill="#455A64" d="m215.29 180.38.51-.31.61-.38 27.51-16.59a3.003 3.003 0 0 1 2 1.57l-28.69 17.51v.11c-.62-1.1-1.53-2.19-1.94-1.91Z"/>
    <path fill="#EBEBEB" d="m217.23 179.2 1.14-.69c.32-.21 1 .37 1.52 1.14.75 1 1.22 2.46.8 2.74l-.85.51-.3.18c.43-.28 0-1.73-.79-2.75-.54-.74-1.15-1.3-1.49-1.15l-.03.02Z"/>
    <path fill="#37474F" d="M217.51 179c.75-.49 3.07 3.39 2.32 3.88l-1.14.69c.75-.49-1.57-4.37-2.32-3.88l1.14-.69Z"/>
    <path fill="#EBEBEB" d="m215.29 180.379 1.12-.69c.74-.48 3 3.25 2.38 3.85l-1.14.68c.7-.48-1.65-4.34-2.36-3.84Z"/>
    <path fill="#FFA8A7" d="M250.45 161.779Z"/>
    <path fill="#F28F8F" d="m210.51 183.27 4.78-2.89c.32-.21.95.35 1.51 1.11.76 1 1.24 2.47.82 2.76l-4.79 2.9c-1 .58-2.36-1.22-2.66-2.62a1.158 1.158 0 0 1 .34-1.26Z"/>
    <path fill="#000" d="M212 183.749a3.516 3.516 0 0 1 1.14 2.89.776.776 0 0 1-.44.58c-1 .31-2.22-1.36-2.5-2.69a1.159 1.159 0 0 1 .33-1.24c.32-.22.88-.07 1.47.46Z" opacity=".1"/>
    <path fill="#F6CCCE" d="M288.92 316.841c0-.16.95-9.79.95-9.79s-.69 1-6.24.49a30.666 30.666 0 0 1-6.2-1.43l-.37 7c-1 2.83-5.87 2.44-11.12 2.74-.88.05-1.79.06-2.71.06h-.05c-2.81.32-5.31 2.47-2 4.34 3.31 1.87 8.21 2 12.73 2 5.44.03 14.96-.01 15.01-5.41Z"/>
    <path fill="#26334D" d="M251.86 322.352a5.405 5.405 0 0 0 .1 2.89c.27 1 3.4 4.05 8.24 5.41 4.84 1.36 10.4.56 13.12.86 2.72.3 5.35 1.38 8.53 1.6 3.18.22 6.27.1 9-2.44.42-1 .7-3.08.48-3.24-.59-.43-39.47-5.08-39.47-5.08Z"/>
    <path fill="#37474F" d="M276.41 314.121c-1.74 1.7-6 1.46-10.47 1.71-4.23.24-9.15-.42-11.81 1s-3.11 4.76 1.43 8.37a19.616 19.616 0 0 0 4.22 3c4.76 1.87 9.76.9 12.94 1.13 4.14.3 6.61 1.68 10.35 1.48 4.84-.26 7.64-2 8.24-3.4.6-1.4-.38-11.77-2.38-11.21 0 0-.29 3.46-8.6 1.57-3.63-.77-3.93-2.88-3.92-3.65Z"/>
    <path fill="#FAFAFA" d="M259.78 328.222s-1.61-10.76 4.47-12.34h.79s-.12-.73-2.53-.92c-4.62-.36-7.53.22-9.48 2.21a5.993 5.993 0 0 0-1.21 5.1c.6 2.06 2.98 4.45 7.96 5.95ZM264.18 321.871s-.3-4.4 2.7-6.09a1.697 1.697 0 0 1 1.8-.07s-2.89.94-3 6.17c0 0-.1.36-.76.36-.22-.01-.71-.01-.74-.37ZM271.46 315.582s0-.14-.8-.15a1.371 1.371 0 0 0-.86.24s-2.2 1.44-1.88 6a.83.83 0 0 0 .86.57.647.647 0 0 0 .514-.126.668.668 0 0 0 .256-.464s-.32-4.8 1.91-6.07ZM274 315.242s-.18-.25-.74-.15c-.71.12-.82.42-.82.42s-1.4 2-.78 5.81c0 0 0 .65.94.56.94-.09.65-.79.65-.79s-.48-4.85.75-5.85Z"/>
    <path fill="#37474F" d="M276.56 254.611c-.4 9.64-.07 54.44-.07 54.44s5.91 5 13.38 2.4l4.64-51.45-17.95-5.39Z"/>
    <path fill="#F6CCCE" d="M262.41 333.352c0-.16 1.76-9.36 1.76-9.36s-1.75 1.17-7.32.85a24.598 24.598 0 0 1-5.5-1l-.9 6.77c-.88 2.86-5.79 2.62-11 3.08-.88.07-1.8.11-2.71.14h-.06c-2.79.41-5.22 2.63-1.88 4.4 3.34 1.77 8.27 1.71 12.79 1.61 5.41-.14 14.94-1.09 14.82-6.49Z"/>
    <path fill="#26334D" d="M225.54 340.602a5.588 5.588 0 0 0 .19 2.89c.31 1 3.53 3.94 8.41 5.16 4.88 1.22 10.41.24 13.13.46 2.72.22 5.39 1.22 8.58 1.34 3.19.12 6.27-.09 8.9-2.71.39-1 .61-3.1.39-3.26-.59-.42-39.6-3.88-39.6-3.88Z"/>
    <path fill="#37474F" d="M249.83 331.641c-1.68 1.75-5.92 1.63-10.4 2-4.23.36-9.17-.14-11.78 1.4-2.61 1.54-3 4.85 1.68 8.32a19.627 19.627 0 0 0 4.31 2.85c4.81 1.73 9.78.6 13 .74 4.14.17 6.65 1.48 10.39 1.17 4.83-.41 7.58-2.23 8.14-3.66.56-1.43-.74-11.75-2.73-11.13 0 0-.18 3.46-8.55 1.83-3.68-.69-4.04-2.76-4.06-3.52Z"/>
    <path fill="#FAFAFA" d="M233.64 346.232s-1.94-10.71 4.09-12.47l.79-.05s-.14-.73-2.55-.85c-4.64-.22-7.53.45-9.41 2.49a6.006 6.006 0 0 0-1.05 5.14c.65 2.07 3.11 4.39 8.13 5.74ZM237.84 339.752s-.42-4.39 2.52-6.17a1.728 1.728 0 0 1 1.8-.12s-2.86 1-2.81 6.26c0 0-.08.36-.75.37-.22.01-.71.02-.76-.34ZM244.93 333.242s0-.14-.8-.13a1.326 1.326 0 0 0-.85.28s-2.16 1.5-1.7 6.08a.814.814 0 0 0 .87.54.684.684 0 0 0 .512-.141.67.67 0 0 0 .248-.469s-.47-4.82 1.72-6.16ZM247.49 332.822s-.19-.24-.75-.12-.8.45-.8.45-1.34 2.06-.6 5.82c0 0 .06.65 1 .54.94-.11.62-.81.62-.81s-.7-4.84.53-5.88Z"/>
    <path fill="#455A64" d="M253.08 273.332c-1.13 10-2.19 38.86-2.93 53.29a19.91 19.91 0 0 0 14.4 1.6l10.28-51.83-21.75-3.06ZM317.76 391.572a1.21 1.21 0 0 1-1.2-1.21v-77.36a1.225 1.225 0 0 1 .311-.926 1.208 1.208 0 0 1 1.382-.291 1.208 1.208 0 0 1 .717 1.217v77.4a1.21 1.21 0 0 1-1.21 1.17ZM365.65 363.392a1.203 1.203 0 0 1-1.12-.76l-23.73-60.08a1.213 1.213 0 0 1 .67-1.56 1.217 1.217 0 0 1 1.57.68l23.73 60.08a1.183 1.183 0 0 1-.012.923 1.181 1.181 0 0 1-.668.637c-.14.056-.289.083-.44.08Z"/>
    <path fill="#455A64" d="M362.8 356.181a1.178 1.178 0 0 1-.87-.38l-44.17-46.74-44.09 46.54a1.201 1.201 0 0 1-2.005-.311 1.195 1.195 0 0 1-.006-.942c.063-.149.155-.284.271-.397l45-47.47c.112-.118.247-.212.396-.276.15-.063.311-.095.474-.094a1.185 1.185 0 0 1 .88.38l45 47.66a1.208 1.208 0 0 1-.24 1.794c-.189.128-.411.2-.64.206v.03Z"/>
    <path fill="#455A64" d="M269.87 363.392c-.151.003-.3-.024-.44-.08a1.202 1.202 0 0 1-.68-1.56l23.74-60.08a1.2 1.2 0 0 1 1.56-.68 1.187 1.187 0 0 1 .663.639 1.205 1.205 0 0 1 .017.921L271 362.632a1.204 1.204 0 0 1-1.13.76Z"/>
    <path fill="#0EA5E9" d="M269.29 286.411c-.86-4.85 3.09-8.64 10.53-13.66a175.975 175.975 0 0 1 21.57-12.12c6.22-2.86 12.59-2.59 20.56 1.5 11.08 5.69 44.4 25.9 44.4 25.9s-49.82 28.13-59.41 26.87c-9.59-1.26-33.54-16.84-35.44-22.33-1.9-5.49-2.21-6.16-2.21-6.16Z"/>
    <path fill="#0EA5E9" d="M311.76 309.002c-7.16 6.48-14.63.9-26.46-6.77-13.39-8.69-16-15.8-16-15.8s0 5.33 1 7.83 3.16 5.32 12.81 12 16.65 10 23.14 11.22l5.12-.71"/>
    <path fill="#000" d="M285.3 302.212c-13.39-8.69-16-15.8-16-15.8s0 5.33 1 7.83 3.16 5.32 12.81 12 16.65 10 23.14 11.22l5.12-.71.4-7.75c-7.17 6.46-14.64.88-26.47-6.79Z" opacity=".5"/>
    <path fill="#0EA5E9" d="m364 354.322 3.13 8.28c.01.07.01.141 0 .21a.43.43 0 0 1 0 .16 1 1 0 0 1-.47.52 2.142 2.142 0 0 1-1.91 0 .847.847 0 0 1-.37-.39v-.11l-2.91-7.76 2.53-.91ZM271.51 354.322l-3.14 8.28a.739.739 0 0 0 0 .21v.19a1 1 0 0 0 .47.52 2.142 2.142 0 0 0 1.91 0 .874.874 0 0 0 .38-.39v-.11l2.91-7.76-2.53-.94ZM319.15 384.372v6.85a.7.7 0 0 1-.41.57 2.186 2.186 0 0 1-2 0 .7.7 0 0 1-.41-.57v-6.85a2.989 2.989 0 0 1 1.41-.352c.492 0 .976.12 1.41.352Z"/>
    <path fill="#37474F" d="M350.72 267.161s-40-12.06-46.92-14c-6.92-1.94-20.28-5.11-24.17-3.37-3.89 1.74-5.88 3.77-6.23 9.39-.08 1.06 0 6.2 0 6.2s20.24 8.24 36.07 8.24c15.83 0 41.25-6.46 41.25-6.46Z"/>
    <path fill="#455A64" d="M350.85 262.151c2.51 8.56 3.3 16.93-2.7 23.1-4.35 4.49-22.42 20.51-38.25 15.66-17.7-5.43-38.83-20.79-38.83-20.79s-13.66.42-13.73-3.59c0-1-4.32-2.2-4.27-3.26.56-11.78 8.48-16.68 20.29-14.54 12.39 2.25 40.1 10.15 40.1 10.15l37.39-6.73Z"/>
    <path fill="#37474F" d="M331.08 297.782c3-10.87 6.54-24.68 6.54-24.68l-16.33 5.15c-3.38 10.68-5.08 16.47-13.51 15.1-8.43-1.37-36.71-13.23-36.71-13.23s21.13 15.36 38.83 20.79c7.1 2.17 14.62.16 21.18-3.13Z" opacity=".5"/>
    <path fill="#F6CCCE" d="M347.25 199.211c5.4-1.21 11.27 2.7 14.62 11.19 3.35 8.49 11.33 29.5 12.7 35.16.61 2.54-20.2 25.33-19.51 25 .21-.1-6.11-11-6.11-11l10.58-14.1-6.71-15.76-5.57-30.49Z"/>
    <path fill="#455A64" d="M345.71 198.362c4.84-.11 10.69.79 14.52 8a139.823 139.823 0 0 1 11.33 27.8s-14.69 10.32-24.11 6.85l-1.74-42.65Z"/>
    <path fill="#F6CCCE" d="m324.71 192.502 2.58 16.26 14.65-.73-1.71-19.03-15.52 3.5Z"/>
    <path fill="#F5F5F5" d="M357.42 207.192c-1.35-4.44-6.16-8.95-11.88-8.82l-4.46.09c-.67 2.74-7.6 5.79-14.78 4.1a97.548 97.548 0 0 0-5.95 1.75c-5.16 1.71-9.92 6-10.72 22.86 0 0-2 38.66-2.24 46.25 7.32 9.31 25.14 8 32.56 6.59 15.46-3 17.87-11.31 17.87-11.31s.84-28.23.65-40.43c-.16-10.37-.12-18.03-1.05-21.08Z"/>
    <path fill="#C78A8C" d="M313.86 172.541s-3.84 5.83-3.4 6.41c.44.58 3.26 1.09 3.26 1.09l.14-7.5Z"/>
    <path fill="#F6CCCE" d="M324.54 156.412c-7.78 1.64-10 5.06-10.76 17.41-.77 12.92.55 17 2.25 18.71 1.14 1.18 7.51 1.39 10.72.5 4-1.11 13.09-4.32 17.34-10.82 5-7.64 6.32-18 1-22.24-7.57-5.97-17.39-4.23-20.55-3.56Z"/>
    <path fill="#26334D" d="M312.05 161.741a17.69 17.69 0 0 0 7.51 2.36 15.301 15.301 0 0 0 1.25 6.14c.48 1.37 2.2 5.68 3.92 3.25 1.24-1.75 2.36-3.35 4.82-3 4.05.61 4.59 5.77 2 8.9-2.59 3.13-4.93 1.94-4.93 1.94s.13 6.82 3.15 10.68c0 0 3.44 1.11 9.76-.24 3.89-.83 9.39-5.69 11.7-10.83 4.89-10.89 5.23-20.68-1.72-23.62-.75-5-4.7-7.27-9.2-8.3-6.24-1.43-12.6 2.61-18.66.17-1.27-.51-2.45-1.25-3.76-1.69a2.537 2.537 0 0 0-2.23.06 2.68 2.68 0 0 0-.92 1.73 4.801 4.801 0 0 0 .32 3.58 10.418 10.418 0 0 0-2.84-1 3.545 3.545 0 0 0-2.84.71 3.688 3.688 0 0 0-1.09 2.51 7.66 7.66 0 0 0 3.76 6.65Z"/>
    <path fill="#26334D" d="m349.7 159.001 4.66-2.75a2.707 2.707 0 0 0-3.628-.824 2.71 2.71 0 0 0-1.032 3.574Z"/>
    <path fill="#F6CCCE" d="M254.51 233.472c2.5 1.18 32.74 25.18 37.44 22.72 4.7-2.46 28.58-30.61 28.58-30.61a19.67 19.67 0 0 0 .08-21.33s-7.67 1.24-11.8 7.19c-4.13 5.95-21.88 27.21-21.88 27.21a885.434 885.434 0 0 1-12.6-6.78c-3.45-1.88-6.9-3.76-10.28-5.78a12.878 12.878 0 0 1-2.64-1.72c-1.65-1.7-1.27-5.73-1.19-7.92 0-1 .08-2 .22-3.06.17-1.25.48-4.31-1.79-3.39a2.846 2.846 0 0 0-1.1.88 4.986 4.986 0 0 0-.84 1.52c-.46 1.32-.35 2.77-.77 4.1a1.12 1.12 0 0 1-.29.52 1 1 0 0 1-.72.2c-3.28-.17-6.28-4.84-7.73-7.31a6.726 6.726 0 0 0-2.43-2.9c-1.77-.88-4 .28-5.15 1.86a10.413 10.413 0 0 0-1.79 7.19 14.421 14.421 0 0 0 4.08 9.17 44.208 44.208 0 0 0 12.6 8.24Z"/>
    <path fill="#455A64" d="M323.08 203.451c-3.13.29-8.33.41-13.55 6.06-6.1 6.6-14.19 17.43-14.19 17.43a17.376 17.376 0 0 0 13.42 13.21s11-10.75 14.1-16.73c3.1-5.98 3.82-15.81.22-19.97Z"/>
    <path fill="#0EA5E9" d="M311.36 316.732c4.07-.2 7.26-3.19 16.94-7.23 17.88-7.45 31.29-13.41 36.4-22.77 5.11-9.36 8.73-36.4 7.45-48.11a15.737 15.737 0 0 0-.87-3.88l1.25-.19-3.25-2.77c-3.35-2.73-8.78-.3-12.88 1.93-11.71 6.37-20.86 12.56-28.1 34.91-5.44 16.81-9 32.15-16.54 40.35"/>
    <path fill="#000" d="m371.28 234.742 1.25-.19-3.25-2.77c-3.35-2.73-8.78-.3-12.88 1.93-11.71 6.37-20.86 12.56-28.1 34.91-5.44 16.81-9 32.15-16.54 40.35l-.4 7.75c4.07-.2 7.26-3.19 16.94-7.23 17.88-7.45 31.29-13.41 36.4-22.77 5.11-9.36 8.73-36.4 7.45-48.11a15.751 15.751 0 0 0-.87-3.87Z" opacity=".3"/>
    <path fill="#0EA5E9" d="M359.79 236.601c-11.7 6.37-20.86 12.56-28.09 34.91-7.23 22.35-11.2 42.1-25.46 45.93 0 0 6.45 2.56 26.21-5.8 6.29-2.65 13.91-7.5 18.93-10.32 9.82-5.51 15.77-10 16.71-11.72 5.2-9.32 8.73-36.39 7.45-48.1-1.28-11.71-9.88-8.09-15.75-4.9Z"/>
    <path fill="#26334D" d="M98 312.529c1 2.71 5.73 2.22 10.81 2.38 4.1.13 8.84-.63 11.44.72 2.6 1.35 3.13 4.53-1.18 8.13-5.38 4.49-12.5 4-16.49 4.38-3.99.38-6.35 1.79-10 1.68-4.69-.14-7.44-1.75-8.05-3.1-.61-1.35.09-11.38 2-10.89 0 0-.2-.31 6.68-.55 4.92-.16 4.79-2.75 4.79-2.75Z"/>
    <path fill="#FFA8A7" d="M86.66 316.429c0-.15-1.15-9.44-1.15-9.44s.19-.81 5.77-1c2.74-.09 5.94-2.38 6.24-.21.3 2.17.52 6.75.52 6.75 1 2.71 5.73 2.22 10.81 2.38h2.67c2.72.25 5.19 2.26 2 4.15-3.19 1.89-7.89 2.09-12.26 2.23-5.26.17-14.43.37-14.6-4.86Z"/>
    <path fill="#0EA5E9" d="M99.4 253.119c.42 10.12-1 57.91-1 57.91s-4.82 2.33-12.67-.37l-5.22-51.86 18.89-5.68Z"/>
    <path fill="#000" d="M99.4 253.119c.42 10.12-1 57.91-1 57.91s-4.82 2.33-12.67-.37l-5.22-51.86 18.89-5.68Z" opacity=".15"/>
    <path fill="#26334D" d="M123.93 333.879c.92 2.75 5.66 2.42 10.73 2.75 4.09.27 8.86-.33 11.41 1.11 2.55 1.44 3 4.64-1.45 8.08-5.53 4.31-12.63 3.57-16.63 3.83-4 .26-6.41 1.57-10 1.34-4.69-.3-7.38-2-7.95-3.37-.57-1.37.48-11.37 2.41-10.82 0 0-.19-.32 6.7-.32 4.79 0 4.78-2.6 4.78-2.6Z"/>
    <path fill="#FFA8A7" d="M112.43 337.399c0-.15-.83-9.47-.83-9.47s.21-.8 5.8-.8c2.74 0 6-2.18 6.24 0 .24 2.18.29 6.75.29 6.75.92 2.75 5.66 2.42 10.73 2.75.85.06 1.73.07 2.62.08h.05c2.71.34 5.11 2.44 1.91 4.22-3.2 1.78-8 1.82-12.33 1.82-5.27 0-14.48-.12-14.48-5.35Z"/>
    <path fill="#0EA5E9" d="M123.2 271.059c1.19 10.49.88 47.15 1 58.35a23.427 23.427 0 0 1-12.82.08s-9.09-39.35-8.41-50.56c.36-5.33 20.23-7.87 20.23-7.87Z"/>
    <path fill="#455A64" d="M58.18 389.481a1.21 1.21 0 0 0 1.21-1.21v-77.4a1.21 1.21 0 1 0-2.41 0v77.4a1.21 1.21 0 0 0 1.2 1.21ZM10.29 361.3a1.19 1.19 0 0 0 1.12-.76l23.74-60.08a1.202 1.202 0 1 0-2.24-.88L9.17 359.66a1.199 1.199 0 0 0 1.12 1.64Z"/>
    <path fill="#455A64" d="M13.14 354.091a1.232 1.232 0 0 0 .88-.38l44.16-46.71 44.09 46.54a1.201 1.201 0 0 0 1.999-1.253 1.21 1.21 0 0 0-.249-.397l-45-47.47a1.223 1.223 0 0 0-.88-.37 1.184 1.184 0 0 0-.87.37l-45 47.67a1.206 1.206 0 0 0-.194 1.273 1.214 1.214 0 0 0 1.064.727Z"/>
    <path fill="#455A64" d="M106.07 361.3a1.186 1.186 0 0 0 1.001-.519 1.195 1.195 0 0 0 .119-1.121l-23.73-60.08a1.197 1.197 0 0 0-.64-.663 1.208 1.208 0 0 0-1.315.236 1.208 1.208 0 0 0-.285 1.307L105 360.54a1.197 1.197 0 0 0 1.07.76Z"/>
    <path fill="#455A64" d="M106.65 284.32c.87-4.85-3.09-8.64-10.53-13.66a175.844 175.844 0 0 0-21.56-12.12C68.33 255.68 62 256 54 260c-11.07 5.69-44.4 25.9-44.4 25.9s49.83 28.13 59.41 26.87c9.58-1.26 33.55-16.84 35.45-22.33 1.9-5.49 2.19-6.12 2.19-6.12Z"/>
    <path fill="#26334D" d="M64.19 306.89c7.15 6.48 14.63.9 26.46-6.77 13.38-8.69 16-15.8 16-15.8s0 5.33-1 7.83-3.17 5.32-12.82 12-16.64 10-23.13 11.22l-5.12-.71"/>
    <path fill="#0EA5E9" d="m11.93 352.23-3.14 8.28a.76.76 0 0 0 0 .21v.15c.09.23.26.419.48.53a2.139 2.139 0 0 0 1.91 0 .897.897 0 0 0 .37-.39v-.11l2.9-7.76-2.52-.91ZM104.44 352.23l3.14 8.28c.005.07.005.141 0 .21.01.05.01.101 0 .15 0 .17-.24.39-.47.53a2.142 2.142 0 0 1-1.91 0 .9.9 0 0 1-.37-.39v-.11l-2.91-7.76 2.52-.91ZM56.8 382.281v6.85a.69.69 0 0 0 .4.57 2.175 2.175 0 0 0 2 0 .686.686 0 0 0 .41-.57v-6.85a3.005 3.005 0 0 0-2.81 0ZM22.82 265.851s42-12.67 49.31-14.67c7.31-2 21.31-5.37 25.4-3.53 4.09 1.84 6.17 4 6.55 9.86.08 1.11 0 6.52 0 6.52s-20.31 6.28-36.94 6.28-44.32-4.46-44.32-4.46Z"/>
    <path fill="#000" d="M22.82 265.851s42-12.67 49.31-14.67c7.31-2 21.31-5.37 25.4-3.53 4.09 1.84 6.17 4 6.55 9.86.08 1.11 0 6.52 0 6.52s-20.31 6.28-36.94 6.28-44.32-4.46-44.32-4.46Z" opacity=".15"/>
    <path fill="#0EA5E9" d="M22.67 260.59c-2.63 9-3.46 17.79 2.84 24.28 4.58 4.72 12.85 18.86 38 17.79 11.36-.47 43.18-22.68 43.18-22.68s15.51-2.32 15.58-6.54c0-1 1.18-1.28 1-2.38-1.73-9.22-7.5-14.42-15.59-14.91-12.81-.77-47.91 8.37-47.91 8.37l-37.1-3.93Z"/>
    <path fill="#FFA8A7" d="m55.24 188.019-4.17 18.53-14.39-2.22 3.94-20.47 14.62 4.16ZM34.77 193.58c-6.7-.23-11.34 2.92-14.93 12s-14.65 31-14.93 37.23c-.29 6.46 20.2 26.41 19.46 26.06-.23-.11 6.54-11.77 6.54-11.77l-10.17-15.21 6-16.74 8.03-31.57Z"/>
    <path fill="#455A64" d="M35 193.61a12.114 12.114 0 0 0-11.22 4.3c-4.15 4.88-11.17 22.78-11.17 22.78s3.35 8.75 14.4 8.75L37 208l-2-14.39Z"/>
    <path fill="#F0F0F0" d="M20.83 257.651a102.098 102.098 0 0 1 7.85-15.45c-4.54-19.77-6.53-27.76-5-37 1-6.06 5.14-12.62 11.22-11.57 1.58.27 2.2.25 3.69.53-.84 3.09 9.84 5.59 14.69 2.46 2.18.52 8.76 1.45 8.76 1.45 2.81 1 12.78 16.22 14.47 25.49 1.74 9.57-6.79 15.5-6.79 15.5.43 8 .13 16.55-.06 31.14 0 0-5.2 10-28.35 7.37-20.58-2.3-23.23-11.11-23.23-11.11a70.314 70.314 0 0 1 2.75-8.81Z"/>
    <path fill="#FFA8A7" d="M134.56 205.241a20.515 20.515 0 0 0-5.25 3.76c-.15.13-1.56 1.58-2.23 1.39a.703.703 0 0 1-.43-.47c-.24-.77.93-3.09 1-3.88.07-.79-.41-1.84-1.19-1.69-.285.074-.54.235-.73.46a16.331 16.331 0 0 0-4 7.33 34.163 34.163 0 0 1-1.52 4.88c-1.18 2.56-23 18-23.41 18.3 0 0-13.15-15.64-20.54-25.48-8-10.66-11-10.05-17.29-11.78-4.92 17.37 9.31 30.44 9.31 30.44s11.83 12.16 19.21 17.61c4.74 3.5 7.51 5.8 10 5.8s4.55-1.28 6.58-2.79c4.8-3.58 19.28-18.14 20.87-19.75 2.73-2.76 5.65-5.29 8.31-8.08l8.83-9.25a13.158 13.158 0 0 0 2-2.51 3.886 3.886 0 0 0 .153-4.147 3.882 3.882 0 0 0-3.683-1.913c-1.817.021-3.6.491-5.19 1.37l-.8.4Z"/>
    <path fill="#455A64" d="M57.31 197.32s6.94-.07 10.57 2.77c2.76 2.15 21.51 25 21.51 25s.88 8.48-11.74 14L62 222.68s-8-11.81-4.69-25.36Z"/>
    <path fill="#0EA5E9" d="M67.66 171.62s5.24-9.08 1.38-16.24c-4.54-8.43-14.26-11.39-26.21-9.1-5.92 1.14-15.45 6.67-17 17.77-1.18 8.55 22.33 16.63 21.35 22.48l20.48-14.91Z"/>
    <path fill="#000" d="M67.66 171.62s5.24-9.08 1.38-16.24c-4.54-8.43-14.26-11.39-26.21-9.1-5.92 1.14-15.45 6.67-17 17.77-1.18 8.55 22.33 16.63 21.35 22.48l20.48-14.91Z" opacity=".5"/>
    <path fill="#F28F8F" d="M68.65 170.77s3.43 6 2.93 6.46c-.5.46-3.25.8-3.25.8l.32-7.26Z"/>
    <path fill="#FFA8A7" d="M59.93 153.531c3.12 2 8.49 5.74 8.74 18 .26 12.59-1.78 16.78-3.64 18.24-1.26 1-9.5.85-11.75 0-3.79-1.43-11.27-7.16-14.54-14-3.85-8-3.8-18.17 1.91-21.58 8.04-4.78 16.64-2.37 19.28-.66Z"/>
    <path fill="#0EA5E9" d="M63.26 156.32c-.11-.42-.25-1.43-.6-1.75A28 28 0 0 0 39 148.88a16.259 16.259 0 0 0-9.23 5.65l.16-3.82a2.723 2.723 0 0 0-2.74 2.56 2.431 2.431 0 0 0 1 2.11H27a14.34 14.34 0 0 0-14.33 14.33v25.59A14.33 14.33 0 0 0 27 181l.48-5.41a22.006 22.006 0 0 0 2.74 4.74c9.06 11.85 20.82 7.6 20.82 7.6 5.61-2 6.34-8.22 6.34-8.22a5.72 5.72 0 0 1-5.81-1.86c-2.76-2.91-2.6-8 1.36-8.95 2.82-.66 4.66 1.6 5.64 3.86.16.37.37.77.75.88.59.16 1.07-.49 1.32-1.05a34.3 34.3 0 0 0 3.1-11.31 14.888 14.888 0 0 0-.48-4.96Z"/>
    <path fill="#000" d="M63.26 156.32c-.11-.42-.25-1.43-.6-1.75A28 28 0 0 0 39 148.88a16.259 16.259 0 0 0-9.23 5.65l.16-3.82a2.723 2.723 0 0 0-2.74 2.56 2.431 2.431 0 0 0 1 2.11H27a14.34 14.34 0 0 0-14.33 14.33v25.59A14.33 14.33 0 0 0 27 181l.48-5.41a22.006 22.006 0 0 0 2.74 4.74c9.06 11.85 20.82 7.6 20.82 7.6 5.61-2 6.34-8.22 6.34-8.22a5.72 5.72 0 0 1-5.81-1.86c-2.76-2.91-2.6-8 1.36-8.95 2.82-.66 4.66 1.6 5.64 3.86.16.37.37.77.75.88.59.16 1.07-.49 1.32-1.05a34.3 34.3 0 0 0 3.1-11.31 14.888 14.888 0 0 0-.48-4.96Z" opacity=".5"/>
    <path fill="#37474F" d="M64.59 314.64c-4.08-.2-7.26-3.19-17-7.23C29.76 300 16.35 294 11.24 284.64c-5.11-9.36-8.72-36.4-7.45-48.11.123-1.326.419-2.631.88-3.88l-1.26-.19 3.26-2.77c3.34-2.73 8.78-.3 12.87 1.93 11.71 6.37 20.87 12.56 28.1 34.91 5.45 16.81 9 32.15 16.55 40.35"/>
    <path fill="#455A64" d="M16.15 234.509c11.71 6.37 20.86 12.56 28.1 34.91 7.24 22.35 11.2 42.1 25.46 45.93 0 0-6.45 2.56-26.21-5.8-6.29-2.65-13.92-7.5-18.93-10.32-9.82-5.51-15.78-10-16.72-11.72-5.19-9.32-8.73-36.39-7.45-48.1 1.28-11.71 9.89-8.09 15.75-4.9Z"/>
    <path fill="#F6CCCE" d="M189.07 115.06c-2.89 4.05-7.69 5.47-18.78 2.08-3.18-1-7.66-2.6-11.55-4.25-9.21-3.9-13.81-5.44-19.69-8.58-1.25-.67-5.57-6.51-10.27-13.19A17.321 17.321 0 0 0 139 80.5l8.75 12.86c1.51 1.11 12.08 7.69 18.64 10a5 5 0 0 0 3.58-.11c3.06-1.24 5.19-1.11 8.22-1.52 2.37-.32 3.54-1.22 3.86-.71a2.72 2.72 0 0 1-1 3.55 19.528 19.528 0 0 1-4.08 1.95c2.626.7 5.347.974 8.06.81 6.13-.33 8.63 1.25 4.04 7.73Z"/>
    <path fill="#FFA8A7" d="M258.37 92c-4.167 2.133-8.33 4.273-12.49 6.42-4.16 2.147-8.307 4.29-12.44 6.43-3.59 1.88-7.83 3.34-10.6 6.35a18.11 18.11 0 0 0-4.16 5.95 9.71 9.71 0 0 0 .2 6.8 11.002 11.002 0 0 0 4.43 5.19 2.926 2.926 0 0 0 2.32.57.846.846 0 0 0 .41-.26c.104-.168.156-.363.15-.56.11-1.58 0-3.16 0-4.75 0-1.37.15-5.07 2.14-4.76l4.63-1.94c.09-2.13 1.09-1.9 2.81-2.46l3.26-1.06c2.993-.967 5.973-1.95 8.94-2.95 3.82-1.28 7.62-2.58 11.4-4 1.93-.71 4.63-1.32 6.25-2.67L258.37 92ZM227 132.311l4.08 5.8a.212.212 0 0 0 .348.018.211.211 0 0 0 .042-.128l.3-7.12-4.77 1.43Z"/>
    <path fill="#F28F8F" d="m231.41 138.001.3-7.12-2.52.76.24.84 1.73 5.48.25.04Z"/>
    <path fill="#26334D" d="M231.42 138.001a.211.211 0 0 1-.153.204.212.212 0 0 1-.237-.094l-.8-1.13a1.235 1.235 0 0 0 1.18-.41l.07-.1-.06 1.53Z"/>
    <path fill="#455A64" d="m223.31 102.189.18.63.23.76 8 27.3a3.196 3.196 0 0 1-1.74 1.53 3.217 3.217 0 0 1-3-.1l-7.98-27.31-.42-1.45c.28.95 5.04-.43 4.73-1.36Z"/>
    <path fill="#37474F" d="m223.31 102.189.18.63.23.76 8 27.3a3.348 3.348 0 0 1-2.25 1.69l-8.63-28.81c-.09 0-.12 0-.1-.07 1.33-.32 2.74-.98 2.57-1.5Z"/>
    <path fill="#EBEBEB" d="m224 104.58.41 1.41c.13.4-.66.92-1.64 1.3-1.3.51-3 .61-3.14.07l-.31-1-.1-.38c.18.54 1.85.45 3.14-.07.94-.36 1.71-.86 1.64-1.25v-.08Z"/>
    <path fill="#37474F" d="M224.12 104.939c.3.93-4.47 2.3-4.78 1.37l-.42-1.41c.31.94 5.09-.43 4.78-1.37l.42 1.41Z"/>
    <path fill="#EBEBEB" d="m223.31 102.189.41 1.39c.31.92-4.29 2.28-4.76 1.45v-.05l-.4-1.4c.3.92 5.06-.46 4.75-1.39Z"/>
    <path fill="#FFA8A7" d="M231.28 138.189a.222.222 0 0 0 .13-.15.199.199 0 0 1-.13.15Z"/>
    <path fill="#F28F8F" d="m221.57 96.3 1.74 5.89c.13.4-.65.91-1.62 1.3-1.29.51-3 .62-3.15.09l-1.73-5.91c-.35-1.18 2-2.16 3.52-2.09a1.268 1.268 0 0 1 1.24.72Z"/>
    <path fill="#000" d="M220.66 97.71a3.82 3.82 0 0 1-3.39.39.891.891 0 0 1-.51-.63c-.06-1.09 2.08-2 3.56-1.9a1.3 1.3 0 0 1 1.24.7c.13.45-.19 1-.9 1.44Z" opacity=".1"/>
    <path fill="#FFA8A7" d="M228.35 119.401c-.06 1.1-.36 2.88-.32 4a4.524 4.524 0 0 0 1.13 3 1.616 1.616 0 0 0 1.83.49 2.114 2.114 0 0 0 .86-1.43 35.394 35.394 0 0 0 1.13-7.87v-.15l-4.63 1.96Z"/>
  </svg>
  