<svg xmlns="http://www.w3.org/2000/svg" width="408" height="425" fill="none" viewBox="0 0 408 425">
    <path fill="#EBEBEB" d="M204 424.959c87.493 0 158.42-9.496 158.42-21.21s-70.927-21.21-158.42-21.21c-87.493 0-158.42 9.496-158.42 21.21s70.927 21.21 158.42 21.21z"/>
    <path fill="#263238" d="M.98 373.81l50.76-.24 50.75-.09 101.51-.16 101.51.16 50.75.09 50.75.24-50.75.25-50.75.09-101.51.16-101.51-.16-50.75-.09-50.76-.25z"/>
    <path fill="#263238" d="M288.51 16.92h-169a17.258 17.258 0 00-17.11 17.42v348a17.269 17.269 0 0017.11 17.42h169a17.283 17.283 0 0017.13-17.42v-348a17.271 17.271 0 00-17.13-17.42zm6.43 354.67c0 9.16-6.86 16.57-15.31 16.57H128.39c-8.49 0-15.34-7.41-15.34-16.57V47.53c0-18.66 6.85-19.57 15.34-19.57h30.29c1.76 0 3.2 2 3.2 4.48v1.07c0 5.81 3.18 5.83 7.09 5.83h70c4 0 7.09 0 7.09-5.83v-1.07c0-2.48 1.42-4.48 3.22-4.48h30.3c8.45 0 15.31 2.48 15.31 19.57l.05 324.06z"/>
    <path fill="#FFFBD8" d="M213.55 32.08h-19.11a1.178 1.178 0 01-1.18-1.18 1.177 1.177 0 011.18-1.18h19.11a1.178 1.178 0 011.18 1.18 1.177 1.177 0 01-1.18 1.18z"/>
    <path fill="#FFFBD8" d="M294.94 47.529v324.06c0 9.16-6.86 16.57-15.31 16.57H128.39c-8.49 0-15.34-7.41-15.34-16.57V47.529c0-18.66 6.85-19.57 15.34-19.57h30.29c1.76 0 3.2 2 3.2 4.48v1.07c0 5.81 3.18 5.83 7.09 5.83h70c4 0 7.09 0 7.09-5.83v-1.07c0-2.48 1.42-4.48 3.22-4.48h30.3c8.5.04 15.36 2.48 15.36 19.57z"/>
    <path fill="#EBEBEB" d="M139.34 49.77h-14.48V39.66h2.79l.63-2.44h7.64l.63 2.44h2.79v10.11zm-13.48-1h12.48v-8.11h-2.56l-.63-2.44h-6.1l-.63 2.44h-2.56v8.11z"/>
    <path fill="#EBEBEB" d="M132.1 47.61a3.517 3.517 0 01-3.26-2.168 3.522 3.522 0 012.566-4.804 3.52 3.52 0 11.694 6.972zm0-6a2.52 2.52 0 102.51 2.52 2.51 2.51 0 00-2.51-2.55v.03zM276.56 49.689c-.15-.11-3.75-2.55-5.29-5.39-1.08-2-1.23-4.21-.37-5.65a2.832 2.832 0 012.5-1.43 3.9 3.9 0 013.44 2.43 3.9 3.9 0 013.44-2.43 2.826 2.826 0 012.5 1.43 5.996 5.996 0 01-.37 5.65c-1.55 2.84-5.14 5.28-5.29 5.39h-.56zm-3.16-11.47a1.84 1.84 0 00-1.64.94 4.996 4.996 0 00.39 4.66 17.455 17.455 0 004.69 4.84 17.611 17.611 0 004.69-4.84 4.998 4.998 0 00.39-4.66 1.841 1.841 0 00-1.64-.94c-2.28 0-2.93 2.89-2.95 3h-1c-.01-.11-.65-3-2.93-3z"/>
    <path fill="#DBDBDB" d="M140.39 75.19a9.927 9.927 0 01-2.93 1.23 10.17 10.17 0 112.93-1.23z"/>
    <path fill="#FFFBD8" d="M138.14 65.4a3.087 3.087 0 01-1.908 2.855 3.088 3.088 0 01-4.213-2.252 3.09 3.09 0 116.121-.602z"/>
    <path fill="#FFFBD8" d="M140.39 73.92v1.27a9.927 9.927 0 01-2.93 1.23 10.109 10.109 0 01-7.74-1.23v-1.27a5.344 5.344 0 013.238-5.142 5.34 5.34 0 017.432 5.143z"/>
    <path fill="#FF9800" d="M148.31 74.63a4.66 4.66 0 11-9.32.002 4.66 4.66 0 019.32-.001z"/>
    <path fill="#FFFBD8" d="M144.3 71.81h-1.29v5.63h1.29v-5.63z"/>
    <path fill="#FFFBD8" d="M146.47 75.27v-1.29h-5.63v1.29h5.63z"/>
    <path fill="#000" d="M126 82.69l-.94-1.28a.111.111 0 010-.14.1.1 0 01.14 0l.87 1.2.88-1.2a.1.1 0 01.14 0 .111.111 0 010 .14l-.94 1.27v1.26a.1.1 0 01-.026.068.097.097 0 01-.064.033.11.11 0 01-.1-.1l.04-1.25zM128 82.08a.999.999 0 110 1.998.999.999 0 010-1.998zm0 1.76a.772.772 0 00.74-.78.783.783 0 00-.74-.8.767.767 0 00-.73.8.76.76 0 00.73.78zM129.53 82.17a.1.1 0 01.137-.092.08.08 0 01.03.022c.009.01.015.02.019.033a.095.095 0 01.004.037v1.07a.612.612 0 001.008.38.612.612 0 00.202-.38v-1.07a.103.103 0 01.029-.07.114.114 0 01.033-.022.1.1 0 01.13.054.101.101 0 01.008.038v1.07a.797.797 0 01-.501.742.798.798 0 01-.309.058.79.79 0 01-.79-.8v-1.07zM132 82.18a.1.1 0 01.2 0v.43a1.001 1.001 0 01.79-.48.09.09 0 01.037.008.08.08 0 01.03.022c.009.01.015.02.019.033a.095.095 0 01.004.037c0 .024-.01.047-.026.064a.09.09 0 01-.064.026.707.707 0 00-.57.32c-.1.142-.18.297-.24.46v.89a.103.103 0 01-.029.07.1.1 0 01-.171-.07l.02-1.81zM134.9 83.51a.079.079 0 01.06-.028.08.08 0 01.06.028c.259.217.582.344.92.36a1 1 0 00.61-.18.522.522 0 00.24-.42.426.426 0 00-.22-.38 1.892 1.892 0 00-.65-.23 1.712 1.712 0 01-.66-.24.584.584 0 01-.29-.49.646.646 0 01.3-.52 1.11 1.11 0 01.67-.2c.312.018.612.129.86.32a.092.092 0 01.035.02.09.09 0 01.028.073.088.088 0 01-.013.039.085.085 0 01-.028.029.091.091 0 01-.078.01.09.09 0 01-.034-.021 1.35 1.35 0 00-.77-.3.998.998 0 00-.57.17.48.48 0 00-.22.38.389.389 0 00.21.34c.182.114.387.189.6.22a2 2 0 01.72.25.638.638 0 01.3.53.693.693 0 01-.31.56 1.212 1.212 0 01-.72.22 1.73 1.73 0 01-1-.4.092.092 0 01-.062-.057.09.09 0 01-.004-.043.084.084 0 01.016-.04zM138.31 82.17a.109.109 0 01-.09.1H138v1.43a.16.16 0 00.15.14c.026 0 .052.01.071.03a.103.103 0 01.029.07.103.103 0 01-.029.07.102.102 0 01-.071.03.337.337 0 01-.323-.208.336.336 0 01-.027-.132v-1.43h-.24c-.1 0-.1 0-.1-.1s0-.09.1-.09h.24v-.73a.1.1 0 01.2 0v.73h.26c.016.01.029.022.037.038a.095.095 0 01.013.052zM140 82.08a1.003 1.003 0 01.979.558 1 1 0 11-.979-.559zm0 1.76a.772.772 0 00.74-.78.783.783 0 00-.74-.8.767.767 0 00-.73.8.76.76 0 00.73.78zM141.59 82.18a.09.09 0 01.004-.04.095.095 0 01.056-.055.09.09 0 01.04-.004.09.09 0 01.086.062.095.095 0 01.004.038v.43a.995.995 0 01.78-.48c.026 0 .052.01.071.029a.103.103 0 01.029.07.1.1 0 01-.1.09.74.74 0 00-.57.32 1.928 1.928 0 00-.23.46v.86a.095.095 0 01-.004.038.085.085 0 01-.019.033.09.09 0 01-.067.03.09.09 0 01-.096-.06c-.004-.013-.006-.027-.004-.04l.02-1.78z"/>
    <path fill="#FF9800" d="M173 75.19a10.169 10.169 0 01-15.012-5.44 10.173 10.173 0 015.704-12.575 10.172 10.172 0 0113.751 12.079A10.17 10.17 0 01173 75.19z"/>
    <path fill="#FF9800" d="M167.66 78.78a12.224 12.224 0 01-9.743-4.83 12.218 12.218 0 015.248-18.758A12.218 12.218 0 01174 56.12a12.21 12.21 0 01.08 20.83 11.837 11.837 0 01-3.52 1.47c-.949.235-1.922.355-2.9.36zm.05-23.44a11.216 11.216 0 00-8.369 3.776A11.21 11.21 0 00170.35 77.45a11 11 0 003.23-1.35 11.22 11.22 0 00-5.87-20.76z"/>
    <path fill="#FFFBD8" d="M170.78 65.4a3.087 3.087 0 01-1.908 2.855 3.088 3.088 0 01-4.213-2.252 3.09 3.09 0 116.121-.602z"/>
    <path fill="#FFFBD8" d="M173 73.92v1.27c-.902.563-1.888.978-2.92 1.23a10.13 10.13 0 01-7.75-1.23v-1.27a5.344 5.344 0 013.238-5.142A5.34 5.34 0 01173 73.921z"/>
    <path fill="#000" d="M162.05 82.17v1.77a.1.1 0 01-.026.067.097.097 0 01-.064.033.11.11 0 01-.1-.1v-.29a.907.907 0 01-.73.39 1 1 0 110-2 .901.901 0 01.73.38v-.29a.096.096 0 01.033-.065.098.098 0 01.067-.025.09.09 0 01.09.13zm-.19.89a.77.77 0 00-.73-.8.78.78 0 00-.74.8.749.749 0 00.208.543.758.758 0 00.532.237.754.754 0 00.684-.489.762.762 0 00.046-.291zM165.69 82.88a.608.608 0 00-1.167-.233.598.598 0 00-.043.233V84.05h-.14v-1.06a.6.6 0 00-.147-.48.61.61 0 00-1.063.48v1.06a.08.08 0 01.011.04.08.08 0 01-.011.04H163a.11.11 0 01-.08-.08v-1.79a.09.09 0 01.09-.09.09.09 0 01.09.09v.19a1.68 1.68 0 002-.28.801.801 0 01.8.8v1.06a.1.1 0 01-.1.1.097.097 0 01-.064-.033.1.1 0 01-.026-.067l-.02-1.15zM167.53 82.08a.999.999 0 110 1.998.999.999 0 010-1.998zm0 1.76a.76.76 0 00.73-.78.77.77 0 00-.73-.8.78.78 0 00-.74.8.77.77 0 00.74.78zM170.59 82.879a.598.598 0 00-.368-.563.608.608 0 00-.842.563v1.12a.1.1 0 01-.07 0 .086.086 0 01-.037-.022.083.083 0 01-.023-.038v-1.78a.09.09 0 01.004-.04.093.093 0 01.056-.056.09.09 0 01.04-.004c.013 0 .025.003.037.008a.08.08 0 01.03.022c.009.01.015.02.019.032a.095.095 0 01.004.038v.18a.79.79 0 011.4.52v1.06a.096.096 0 01-.004.038.085.085 0 01-.019.032.08.08 0 01-.03.022.09.09 0 01-.037.008.087.087 0 01-.04-.004.093.093 0 01-.056-.056.09.09 0 01-.004-.04l-.06-1.04zM171.8 83.64a.188.188 0 01.145.056.21.21 0 01.043.067.208.208 0 01.012.078.198.198 0 01-.059.141.198.198 0 01-.282 0 .198.198 0 01-.059-.141.208.208 0 01.012-.078.192.192 0 01.188-.122zM174.1 81.409l-.72.75a.913.913 0 01.75.92 1 1 0 01-.95 1 .998.998 0 01-.67-.28.098.098 0 01-.034-.115.101.101 0 01.059-.059.1.1 0 01.115.034.77.77 0 001.06 0 .753.753 0 00.22-.54.749.749 0 00-.74-.74.1.1 0 01-.08 0 .11.11 0 01-.03-.075.11.11 0 01.03-.075l.7-.71h-1.07a.1.1 0 01-.1-.1.09.09 0 01.004-.04.094.094 0 01.056-.056.09.09 0 01.04-.004H174a.092.092 0 01.04.004.094.094 0 01.056.056.09.09 0 01.004.04s.01-.02 0-.01zM174.85 83.86l1.3-1.18a.697.697 0 00.24-.53.719.719 0 00-.18-.48.719.719 0 00-1 0l-.14.12a.09.09 0 01-.13 0 .102.102 0 01-.029-.07c0-.027.011-.052.029-.07l.14-.13a1 1 0 01.62-.23.869.869 0 01.67.3.887.887 0 01.24.61.93.93 0 01-.3.68l-1.12 1h1.32a.1.1 0 01.071.028.103.103 0 01.029.071.11.11 0 01-.1.1h-1.57a.11.11 0 01-.08 0 .122.122 0 01-.055-.042.125.125 0 01-.006-.131.121.121 0 01.051-.047z"/>
    <path fill="#455A64" d="M205.78 75.19a10.172 10.172 0 01-14.622-12.844 10.173 10.173 0 0112.727-5.36 10.172 10.172 0 016.338 12.268 10.17 10.17 0 01-4.443 5.936z"/>
    <path fill="#FF9800" d="M200.42 78.78a12.22 12.22 0 116.45-1.83 11.905 11.905 0 01-3.53 1.47c-.955.238-1.936.358-2.92.36zm.05-23.44a11.21 11.21 0 105.87 20.76 11.22 11.22 0 00-5.87-20.76z"/>
    <path fill="#FFFBD8" d="M203.53 65.4a3.09 3.09 0 11-3.08-3.09 3.08 3.08 0 013.08 3.09z"/>
    <path fill="#FFFBD8" d="M205.78 73.92v1.27c-.902.563-1.888.978-2.92 1.23a10.13 10.13 0 01-7.75-1.23v-1.27a5.344 5.344 0 013.238-5.142 5.34 5.34 0 017.432 5.143z"/>
    <path fill="#000" d="M193.1 82.18a.1.1 0 01.2 0v.43a1.001 1.001 0 01.79-.48.09.09 0 01.037.008.08.08 0 01.03.022c.009.01.015.02.019.033a.095.095 0 01.004.037c0 .024-.01.047-.026.064a.09.09 0 01-.064.026.732.732 0 00-.57.32c-.1.142-.18.297-.24.46v.89a.103.103 0 01-.029.07.1.1 0 01-.142 0 .099.099 0 01-.029-.07l.02-1.81zM194.86 81.53a.096.096 0 01.033-.064.098.098 0 01.067-.026.087.087 0 01.037.004c.013.004.024.01.033.019.01.008.017.019.022.03a.094.094 0 01.008.037v.09a.097.097 0 01-.005.041.088.088 0 01-.021.036.093.093 0 01-.033.025.102.102 0 01-.041.008.109.109 0 01-.071-.035.109.109 0 01-.029-.075v-.09zm0 .64a.096.096 0 01.033-.064.098.098 0 01.067-.026.087.087 0 01.037.004.08.08 0 01.033.019c.01.008.017.019.022.03a.094.094 0 01.008.037v1.77a.1.1 0 01-.1.1.108.108 0 01-.068-.032.105.105 0 01-.032-.068v-1.77zM196 82.18a.1.1 0 01.2 0v.43a1.001 1.001 0 01.79-.48.09.09 0 01.037.008.08.08 0 01.03.022c.009.01.015.02.019.033a.095.095 0 01.004.037c0 .024-.01.047-.026.064a.09.09 0 01-.064.026.732.732 0 00-.57.32c-.1.142-.18.297-.24.46v.89a.103.103 0 01-.029.07.1.1 0 01-.171-.07l.02-1.81zM197.74 81.53a.096.096 0 01.033-.064.098.098 0 01.067-.026.093.093 0 01.038.004c.012.004.023.01.032.019.01.008.017.019.022.03a.094.094 0 01.008.037v.09a.097.097 0 01-.005.041.088.088 0 01-.021.036.093.093 0 01-.033.025.102.102 0 01-.041.008.109.109 0 01-.071-.035.109.109 0 01-.029-.075v-.09zm0 .64a.096.096 0 01.033-.064.098.098 0 01.067-.026.093.093 0 01.038.004c.012.004.023.01.032.019.01.008.017.019.022.03a.094.094 0 01.008.037v1.77a.1.1 0 01-.1.1.11.11 0 01-.1-.1v-1.77zM198.4 84.59a.09.09 0 01.08-.09h2.42a.09.09 0 01.064.026c.016.017.026.04.026.064a.087.087 0 01-.03.057.089.089 0 01-.06.023h-2.42a.087.087 0 01-.054-.026.087.087 0 01-.026-.054zM201.31 81.33a.09.09 0 01.09-.09h1.45a.09.09 0 01.09.09.096.096 0 01-.004.038.085.085 0 01-.019.032.08.08 0 01-.03.023.09.09 0 01-.037.007h-1.35v1.11h1.18a.1.1 0 01.071.03.103.103 0 01.029.07.11.11 0 01-.1.1h-1.18v1.2a.1.1 0 01-.1.1.097.097 0 01-.064-.032.1.1 0 01-.026-.068v-2.61zM203.48 83.06a.998.998 0 011-1 .997.997 0 01.94.91.094.094 0 01-.03.068.082.082 0 01-.033.019.085.085 0 01-.037.004h-1.6a.763.763 0 00.76.75.737.737 0 00.63-.35.08.08 0 01.12 0 .102.102 0 01.024.064.103.103 0 01-.024.066.943.943 0 01-.79.45 1.001 1.001 0 01-.96-.98zm.21-.16h1.48a.748.748 0 00-1.225-.45.748.748 0 00-.255.45zM206 82.17a.09.09 0 01.09-.09.087.087 0 01.037.004c.013.004.024.01.033.02.01.008.017.018.022.03a.094.094 0 01.008.037v1.06a.598.598 0 00.6.61.607.607 0 00.564-.377.622.622 0 00.046-.233v-1.06h.05v1.71a.932.932 0 01-.93.92 1 1 0 01-.4-.09.092.092 0 01-.021-.03.106.106 0 01-.007-.035c0-.013.003-.025.007-.036a.091.091 0 01.021-.03.101.101 0 01.12-.05.69.69 0 00.32.08.74.74 0 00.74-.73v-.13a.818.818 0 01-.61.28.793.793 0 01-.733-.494.798.798 0 01-.057-.305l.1-1.06z"/>
    <path fill="#A6A6A6" d="M238.54 75.19a9.927 9.927 0 01-2.93 1.23 10.17 10.17 0 112.93-1.23z"/>
    <path fill="#FF9800" d="M233.18 78.78a12.001 12.001 0 01-6.4-1.84 12.214 12.214 0 01-5.319-13.722 12.208 12.208 0 0119.103-6.404 12.208 12.208 0 014.026 14.157 12.214 12.214 0 01-4.96 5.97 11.905 11.905 0 01-3.53 1.47c-.955.24-1.935.365-2.92.37zm.05-23.44a11.21 11.21 0 105.87 20.76 11.22 11.22 0 00-5.87-20.76z"/>
    <path fill="#FFFBD8" d="M236.29 65.4a3.087 3.087 0 01-1.908 2.855 3.088 3.088 0 01-4.213-2.252 3.09 3.09 0 116.121-.602z"/>
    <path fill="#FFFBD8" d="M238.54 73.92v1.27a9.927 9.927 0 01-2.93 1.23 10.109 10.109 0 01-7.74-1.23v-1.27a5.344 5.344 0 013.238-5.142 5.34 5.34 0 017.432 5.143z"/>
    <path fill="#000" d="M222.46 83.09v-.92a.1.1 0 01.2 0v.29a.919.919 0 01.74-.38 1 1 0 010 1.94.915.915 0 01-.74-.38v1.12a.103.103 0 01-.029.071.1.1 0 01-.171-.07v-1.67zm.2 0a.753.753 0 00.486.672.75.75 0 10.254-1.452.772.772 0 00-.74.78zM225.94 82.08a.999.999 0 110 1.998.999.999 0 010-1.998zm0 1.76a.758.758 0 00.73-.78.77.77 0 00-.73-.8.78.78 0 00-.74.8.77.77 0 00.74.78zM227.47 83.63a.079.079 0 01.03-.02.088.088 0 01.07 0 .079.079 0 01.03.02c.172.134.382.211.6.22a.531.531 0 00.37-.12.279.279 0 00.15-.24c0-.09 0-.15-.14-.24a1.001 1.001 0 00-.41-.14 1.324 1.324 0 01-.45-.16.408.408 0 01-.21-.35.483.483 0 01.21-.38.85.85 0 01.48-.13 1 1 0 01.59.21.109.109 0 01.021.065.109.109 0 01-.021.065.101.101 0 01-.07.029.101.101 0 01-.07-.029.86.86 0 00-.48-.19.58.58 0 00-.37.11.278.278 0 00-.12.22.23.23 0 00.11.2.89.89 0 00.4.13c.165.026.324.08.47.16a.473.473 0 01.164.63.473.473 0 01-.164.17.821.821 0 01-.49.16 1.29 1.29 0 01-.72-.28.085.085 0 01-.009-.058.088.088 0 01.029-.052zM231 82.85a.617.617 0 00-.62-.62.62.62 0 00-.62.62v1.09l-.06.05a.12.12 0 01-.08 0v-2.64a.094.094 0 01.03-.067.085.085 0 01.032-.019.093.093 0 01.038-.004c.025 0 .049.01.067.026.019.017.031.04.033.064v1a.811.811 0 01.62-.28.773.773 0 01.81.77v1.09a.1.1 0 01-.026.068.097.097 0 01-.064.032.1.1 0 01-.038-.007.112.112 0 01-.033-.022.102.102 0 01-.021-.032.101.101 0 01-.008-.039l-.06-1.08zM232.71 82.17a.11.11 0 01-.1.1h-.25v1.43c.002.036.018.07.044.096.025.026.06.042.096.044a.1.1 0 110 .2.338.338 0 01-.34-.34v-1.43h-.25c-.09 0-.09 0-.09-.1s0-.09.09-.09h.25v-.73a.109.109 0 01.09-.1c.028 0 .054.01.074.029a.11.11 0 01.036.071v.73h.25c.025 0 .049.009.067.026.019.016.031.04.033.064zM233.34 82.18a.103.103 0 01.029-.07.112.112 0 01.033-.022.1.1 0 01.075 0 .08.08 0 01.03.022c.009.01.015.02.019.033a.095.095 0 01.004.037v.43a1.001 1.001 0 01.79-.48.09.09 0 01.086.063.095.095 0 01.004.037.089.089 0 01-.09.09.708.708 0 00-.57.32c-.1.142-.18.297-.24.46v.86a.095.095 0 01-.004.038.086.086 0 01-.019.032.08.08 0 01-.03.022.09.09 0 01-.037.008.1.1 0 01-.038-.008.114.114 0 01-.033-.021.103.103 0 01-.029-.07l.02-1.78zM234.76 83.06a.95.95 0 011.89-.07.09.09 0 01-.003.037.08.08 0 01-.02.03.073.073 0 01-.031.02.078.078 0 01-.036.003H235a.768.768 0 00.76.75.728.728 0 00.63-.35.09.09 0 01.13 0 .103.103 0 01.024.065.103.103 0 01-.024.065.943.943 0 01-.79.45 1 1 0 01-.97-1zm.2-.16h1.48a.751.751 0 00-.73-.63.76.76 0 00-.71.63h-.04zM238.73 82.88a.598.598 0 00-1.029-.43.625.625 0 00-.181.43V84a.08.08 0 01-.07 0 .112.112 0 01-.042-.023.114.114 0 01-.028-.038v-1.78a.09.09 0 01.004-.04.094.094 0 01.056-.055.089.089 0 01.04-.005.09.09 0 01.067.03c.009.01.015.02.019.033a.095.095 0 01.004.037v.18a.82.82 0 01.61-.28.801.801 0 01.8.8v1.06a.103.103 0 01-.029.07.1.1 0 01-.171-.07l-.05-1.04zM241.27 83.66a.922.922 0 01-.75.38 1 1 0 110-2 .928.928 0 01.75.38v-1.13a.096.096 0 01.033-.065.098.098 0 01.067-.025.093.093 0 01.038.004c.012.003.023.01.032.018.01.009.017.02.022.03a.094.094 0 01.008.038v2.61a.103.103 0 01-.029.07.102.102 0 01-.071.03.108.108 0 01-.068-.032.106.106 0 01-.032-.068v-.24zm0-.57V83a.747.747 0 00-.502-.649.752.752 0 00-.985.583.755.755 0 00.327.752c.122.08.264.123.41.124a.759.759 0 00.75-.72zM242.18 82.17a.096.096 0 01.029-.06.099.099 0 01.099-.026c.012.004.023.01.032.02.01.008.017.018.022.03a.094.094 0 01.008.037v1.06a.601.601 0 00.147.48.608.608 0 001.041-.224.601.601 0 00.022-.256v-1.06h.05v1.71a.918.918 0 01-.93.92 1.056 1.056 0 01-.4-.09.092.092 0 01-.021-.03.106.106 0 01-.007-.035c0-.013.003-.025.007-.036a.091.091 0 01.021-.03.101.101 0 01.12-.05.72.72 0 00.84-.133.743.743 0 00.22-.516v-.13a.79.79 0 01-1.4-.52l.1-1.06z"/>
    <path fill="#263238" d="M271.3 75.19a9.927 9.927 0 01-2.93 1.23 10.148 10.148 0 01-11.653-14.064A10.15 10.15 0 11271.3 75.19z"/>
    <path fill="#FF9800" d="M265.93 78.78a12.261 12.261 0 01-11.83-9.32 12.211 12.211 0 0116.528-14.141 12.211 12.211 0 011.752 21.68 11.724 11.724 0 01-3.52 1.47c-.961.222-1.944.326-2.93.31zm.06-23.44a11.206 11.206 0 00-10.813 8.134 11.213 11.213 0 0010.788 14.288 11.23 11.23 0 005.895-1.672 11.223 11.223 0 004.876-12.58A11.216 11.216 0 00266 55.34h-.01z"/>
    <path fill="#FFFBD8" d="M269.05 65.4a3.087 3.087 0 01-1.908 2.855 3.088 3.088 0 01-4.213-2.252 3.09 3.09 0 116.121-.602z"/>
    <path fill="#FFFBD8" d="M271.3 73.92v1.27a9.927 9.927 0 01-2.93 1.23 10.109 10.109 0 01-7.74-1.23v-1.27a5.344 5.344 0 013.238-5.142 5.34 5.34 0 017.432 5.143z"/>
    <path fill="#000" d="M258.26 83.09v-.92a.09.09 0 01.09-.09.093.093 0 01.038.004c.012.004.023.01.032.02.01.008.017.018.022.03a.094.094 0 01.008.037v.29a.923.923 0 01.75-.38 1 1 0 010 1.94.928.928 0 01-.75-.38v1.12a.095.095 0 01-.03.067.085.085 0 01-.032.019.091.091 0 01-.038.004.09.09 0 01-.09-.09v-1.67zm.19 0a.75.75 0 10.75-.78.77.77 0 00-.75.78zM260.72 83.06a.95.95 0 011.89-.07.075.075 0 01-.004.037.067.067 0 01-.019.03.073.073 0 01-.031.02.078.078 0 01-.036.003h-1.61a.768.768 0 00.76.75.728.728 0 00.63-.35.09.09 0 01.13 0 .103.103 0 01.024.065.103.103 0 01-.024.065.943.943 0 01-.79.45 1.001 1.001 0 01-.92-1zm.2-.16h1.48a.751.751 0 00-.73-.63.76.76 0 00-.75.63zM263.82 82.17a.11.11 0 01-.1.1h-.25v1.43c.004.036.02.069.046.094a.158.158 0 00.094.046c.026 0 .052.01.071.03a.103.103 0 01.029.07.103.103 0 01-.029.07.102.102 0 01-.071.03.338.338 0 01-.34-.34v-1.43H263c-.1 0-.1 0-.1-.1s0-.09.1-.09h.24v-.73a.109.109 0 01.09-.1.11.11 0 01.11.1v.73h.25a.1.1 0 01.13.09zM264.76 81.33a.1.1 0 01.2 0v2.61a.103.103 0 01-.029.071.1.1 0 01-.171-.07v-2.61zM266.56 82.08a1.003 1.003 0 01.979.558 1 1 0 11-.979-.559zm0 1.76a.772.772 0 00.74-.78.783.783 0 00-.74-.8.769.769 0 00-.73.8.76.76 0 00.73.78zM268.74 84l-.73-1.76a.09.09 0 010-.12.09.09 0 01.12.05l.65 1.55.65-1.55a.1.1 0 01.181 0 .085.085 0 01.006.034.085.085 0 01-.007.035l-.74 1.74h-.12l-.01.02zM270.18 83.06a.95.95 0 011.89-.07.09.09 0 01-.003.037.08.08 0 01-.02.03.073.073 0 01-.031.02.078.078 0 01-.036.003h-1.61a.768.768 0 00.76.75.728.728 0 00.63-.35.09.09 0 01.13 0 .098.098 0 01.024.065.097.097 0 01-.024.065.943.943 0 01-.79.45 1.001 1.001 0 01-.92-1zm.2-.16h1.48a.751.751 0 00-.73-.63.76.76 0 00-.75.63zM272.67 82.18a.09.09 0 01.004-.04.095.095 0 01.056-.055.09.09 0 01.04-.004.09.09 0 01.086.062.095.095 0 01.004.038v.43a.995.995 0 01.78-.48.1.1 0 01.1.1.1.1 0 01-.1.09.707.707 0 00-.56.32 1.7 1.7 0 00-.24.46v.86a.095.095 0 01-.004.037.085.085 0 01-.019.033.09.09 0 01-.067.03.09.09 0 01-.1-.1l.02-1.78z"/>
    <path fill="#37474F" d="M131.57 111.14a5.192 5.192 0 01-7.667-2.748 5.188 5.188 0 012.886-6.43 5.187 5.187 0 016.636 2.377 5.194 5.194 0 01-1.855 6.801z"/>
    <path fill="#FFFBD8" d="M130.43 106.17a1.567 1.567 0 01-.969 1.45 1.565 1.565 0 01-1.711-.34 1.575 1.575 0 01-.341-1.711 1.577 1.577 0 011.451-.969 1.57 1.57 0 011.57 1.57z"/>
    <path fill="#FFFBD8" d="M131.57 110.499v.64a4.993 4.993 0 01-1.48.63 5.126 5.126 0 01-3.94-.63v-.64a2.713 2.713 0 011.673-2.504 2.713 2.713 0 013.541 1.467c.136.329.206.681.206 1.037z"/>
    <path fill="#000" d="M139.68 105.779a.23.23 0 01-.23.22h-.1v1.12a.22.22 0 01.22.22.208.208 0 01-.061.159.203.203 0 01-.073.047.195.195 0 01-.086.014.436.436 0 01-.311-.129.436.436 0 01-.129-.311v-1.12h-.12a.22.22 0 010-.44h.12v-.56a.211.211 0 01.22-.21.213.213 0 01.155.058.211.211 0 01.065.152v.58h.1a.232.232 0 01.23.2zM140.5 107.271a1.005 1.005 0 01-.27-.7c-.004-.26.093-.511.27-.7a.928.928 0 01.69-.31.883.883 0 01.368.083c.116.053.219.13.302.227a.997.997 0 01.28.7 1 1 0 01-.28.7.9.9 0 01-.67.31.939.939 0 01-.69-.31zm.16-.7a.6.6 0 00.15.42.532.532 0 00.38.15.505.505 0 00.37-.15.66.66 0 000-.84.554.554 0 00-.37-.15.554.554 0 00-.38.15.597.597 0 00-.15.42zM144.49 106.39v.95a.21.21 0 01-.21.21.22.22 0 01-.22-.21v-.95a.409.409 0 00-.81 0v.95a.237.237 0 01-.2.12.203.203 0 01-.123-.074.208.208 0 01-.047-.136V105.68a.21.21 0 01.4-.1.938.938 0 01.43-.12.838.838 0 01.63.28.818.818 0 01.62-.28.851.851 0 01.84.84v.95a.212.212 0 01-.065.152.208.208 0 01-.155.058.213.213 0 01-.149-.061.213.213 0 01-.061-.149v-.95a.41.41 0 00-.41-.41.43.43 0 00-.365.128.432.432 0 00-.098.173.432.432 0 00-.007.199zM146.87 106.999a.3.3 0 11.107.59.3.3 0 01-.107-.59zM147.32 106.57a1 1 0 011-1c.229-.001.451.077.63.22a.22.22 0 01.05.3.202.202 0 01-.15.063.202.202 0 01-.15-.063.622.622 0 00-.38-.13.59.59 0 00-.59.58.586.586 0 00.177.408.595.595 0 00.413.162.646.646 0 00.38-.13.21.21 0 01.157-.038.209.209 0 01.138.083.215.215 0 01.039.157.214.214 0 01-.084.138.997.997 0 01-.63.21.996.996 0 01-1-.96zM149.87 107.271a1 1 0 01-.28-.7.997.997 0 01.28-.7.928.928 0 01.69-.31.883.883 0 01.368.083c.116.053.219.13.302.227a.997.997 0 01.28.7 1 1 0 01-.28.7.9.9 0 01-.67.31.939.939 0 01-.69-.31zm.16-.7a.64.64 0 00.14.42.556.556 0 00.59.112.513.513 0 00.17-.112.66.66 0 000-.84.554.554 0 00-.76 0 .641.641 0 00-.17.42h.03zM152.37 107.271a1 1 0 01-.28-.7.997.997 0 01.28-.7.928.928 0 01.69-.31.883.883 0 01.368.083c.116.053.219.13.302.227a.997.997 0 01.28.7 1 1 0 01-.28.7.9.9 0 01-.67.31.939.939 0 01-.69-.31zm.16-.7a.64.64 0 00.14.42.556.556 0 00.59.112.513.513 0 00.17-.112.66.66 0 000-.84.554.554 0 00-.76 0 .637.637 0 00-.14.42zM154.69 108.101V105.781a.218.218 0 01.013-.084.212.212 0 01.114-.12.227.227 0 01.303.154.991.991 0 01.54-.17 1 1 0 110 2 .926.926 0 01-.53-.16v.7a.204.204 0 01-.021.083.215.215 0 01-.124.114.223.223 0 01-.085.013.21.21 0 01-.148-.062.207.207 0 01-.062-.148zm.44-1.53a.546.546 0 00.15.4.494.494 0 00.38.17.537.537 0 00.34-.14.602.602 0 00.15-.4.633.633 0 00-.15-.41.57.57 0 00-.38-.16.519.519 0 00-.38.16.592.592 0 00-.11.38zM160.87 105.781a.21.21 0 01-.21.21.395.395 0 00-.24.07.596.596 0 00-.19.2 1.343 1.343 0 00-.16.33v.76a.205.205 0 01-.137.197.213.213 0 01-.083.013.206.206 0 01-.148-.062.207.207 0 01-.062-.148v-1.57a.21.21 0 01.21-.21.208.208 0 01.22.21l.08-.08a.924.924 0 01.51-.15c.029 0 .058.006.085.017.027.012.051.03.071.051a.215.215 0 01.054.162zM278.22 106.17a.49.49 0 01.48.49.48.48 0 01-.48.48.47.47 0 01-.48-.48.48.48 0 01.48-.49zM279.71 106.17a.49.49 0 01.452.676.464.464 0 01-.265.26.48.48 0 01-.187.034.47.47 0 01-.48-.48.48.48 0 01.48-.49zM281.2 106.17a.49.49 0 01.49.49.5.5 0 11-.849-.353.479.479 0 01.359-.137z"/>
    <path fill="#DBDBDB" d="M131.57 379.39a5.192 5.192 0 01-7.667-2.748 5.188 5.188 0 012.886-6.43 5.187 5.187 0 016.636 2.377 5.194 5.194 0 01-1.855 6.801z"/>
    <path fill="#FFFBD8" d="M130.43 374.42a1.567 1.567 0 01-.969 1.45 1.565 1.565 0 01-1.711-.34 1.575 1.575 0 01-.341-1.711 1.577 1.577 0 011.451-.969 1.57 1.57 0 011.57 1.57z"/>
    <path fill="#FFFBD8" d="M131.57 378.749v.64a4.993 4.993 0 01-1.48.63 5.126 5.126 0 01-3.94-.63v-.64a2.713 2.713 0 011.673-2.504 2.713 2.713 0 013.541 1.467c.136.329.206.681.206 1.037z"/>
    <path fill="#000" d="M138.78 375.59v-2.36a.215.215 0 01.014-.087.203.203 0 01.047-.075.219.219 0 01.315-.004.224.224 0 01.064.156v1.39l.82-.82a.22.22 0 01.362.159.22.22 0 01-.052.151l-.6.6.62.74a.22.22 0 01-.31.31l-.59-.71-.22.22v.35a.224.224 0 01-.064.156.224.224 0 01-.156.064.222.222 0 01-.099-.008.234.234 0 01-.084-.051.22.22 0 01-.067-.181zM147.54 375.6a.22.22 0 01-.356.163.21.21 0 01-.074-.123.914.914 0 01-.54.17 1.002 1.002 0 01-.707-1.707.997.997 0 01.707-.293.995.995 0 01.53.17v-.75a.22.22 0 11.44 0v2.37zm-1-1.35a.537.537 0 00-.38.16.577.577 0 00-.16.41c0 .072.014.144.041.211a.566.566 0 00.119.179.494.494 0 00.38.17.51.51 0 00.37-.17.566.566 0 00.119-.179.566.566 0 00.041-.211.577.577 0 00-.16-.41.519.519 0 00-.34-.16h-.03zM150.06 374.821v.78a.207.207 0 01-.062.148.21.21 0 01-.148.062.21.21 0 01-.21-.17.886.886 0 01-.53.17.916.916 0 01-.68-.29 1.003 1.003 0 010-1.41.903.903 0 01.68-.3.885.885 0 01.53.18.208.208 0 01.359-.113.222.222 0 01.061.153v.79zm-.43 0a.6.6 0 00-.15-.41.49.49 0 00-.37-.17.502.502 0 00-.38.17.6.6 0 00-.15.41.623.623 0 00.15.41c.05.049.109.088.175.113a.514.514 0 00.205.037.505.505 0 00.37-.15.623.623 0 00.15-.41zM151.15 373c.058 0 .114.023.156.064a.224.224 0 01.064.156v2.36a.224.224 0 01-.064.156.224.224 0 01-.312 0 .224.224 0 01-.064-.156v-2.36c0-.058.023-.114.064-.156a.224.224 0 01.156-.064zM152.14 373a.234.234 0 01.087.014c.028.01.054.026.075.047a.203.203 0 01.05.073.21.21 0 01.018.086v2.36a.219.219 0 01-.143.206.2.2 0 01-.087.014.22.22 0 01-.22-.22v-2.36a.22.22 0 01.22-.22zM152.42 376.26a.191.191 0 01.19-.18H155c.048 0 .094.019.127.053a.179.179 0 01.053.127.175.175 0 01-.011.072.173.173 0 01-.098.103.17.17 0 01-.071.015h-2.42a.186.186 0 01-.115-.065.185.185 0 01-.045-.125zM156.52 374a.207.207 0 01-.062.148.21.21 0 01-.148.062.395.395 0 00-.24.07.484.484 0 00-.18.2c-.074.1-.132.211-.17.33v.76a.211.211 0 01-.22.21.21.21 0 01-.21-.21V374c0-.056.022-.109.061-.149a.213.213 0 01.149-.061.222.222 0 01.155.057.208.208 0 01.065.153l.09-.08a.865.865 0 01.5-.15.211.211 0 01.21.23zM157.13 375.521a1 1 0 01-.28-.7.997.997 0 01.28-.7.928.928 0 01.69-.31.883.883 0 01.368.083c.116.053.219.13.302.227a.997.997 0 01.28.7 1 1 0 01-.28.7.9.9 0 01-.67.31.939.939 0 01-.69-.31zm.16-.7a.64.64 0 00.14.42.556.556 0 00.59.112.513.513 0 00.17-.112.66.66 0 000-.84.554.554 0 00-.76 0 .637.637 0 00-.14.42zM159.35 375.24a.202.202 0 01.15-.063.202.202 0 01.15.063.674.674 0 00.44.17.512.512 0 00.27-.07.149.149 0 00.07-.12 1.038 1.038 0 00-.32-.11 1.582 1.582 0 01-.35-.11.618.618 0 01-.28-.23.523.523 0 01-.07-.25.585.585 0 01.24-.44.91.91 0 01.49-.15c.218.011.427.088.6.22a.217.217 0 01.096.135.222.222 0 01-.026.165.217.217 0 01-.138.09.215.215 0 01-.162-.03.649.649 0 00-.37-.15.395.395 0 00-.24.07c-.05 0-.06.07-.06.09 0 .02 0 0 0 0a.697.697 0 00.29.1c.128.023.253.063.37.12.12.047.221.131.29.24a.59.59 0 01.07.26.59.59 0 01-.07.26.595.595 0 01-.18.2.893.893 0 01-.52.16 1.122 1.122 0 01-.71-.27.222.222 0 01-.088-.268.227.227 0 01.058-.082zM278.22 374.42a.49.49 0 01.48.49.48.48 0 01-.48.48.47.47 0 01-.48-.48.48.48 0 01.48-.49zM279.71 374.42a.499.499 0 01.346.143.5.5 0 01.144.347.476.476 0 01-.144.343.473.473 0 01-.346.137.47.47 0 01-.48-.48.48.48 0 01.48-.49zM281.2 374.42a.49.49 0 01.49.49.5.5 0 11-.849-.353.479.479 0 01.359-.137z"/>
    <path fill="#DBDBDB" d="M130.91 356.299a3.937 3.937 0 01-3.56.298 3.937 3.937 0 01-2.253-4.839 3.925 3.925 0 015.23-2.436 3.927 3.927 0 012.428 3.31 3.927 3.927 0 01-1.845 3.667z"/>
    <path fill="#FFFBD8" d="M130 352.511a1.196 1.196 0 01-.741 1.108 1.2 1.2 0 11-.459-2.308 1.174 1.174 0 01.851.348 1.18 1.18 0 01.349.852z"/>
    <path fill="#FFFBD8" d="M130.91 355.81v.49a3.905 3.905 0 01-4.14 0v-.49a2.069 2.069 0 014.14 0z"/>
    <path fill="#A6A6A6" d="M137.83 352.88h-1.28l-.24.66a.119.119 0 01-.036.047.118.118 0 01-.054.023.1.1 0 01-.06-.12l1-2.6a.107.107 0 01.041-.046.103.103 0 01.059-.018c.021 0 .042.006.059.018a.107.107 0 01.041.046l1 2.6c.013.018.02.039.02.06a.098.098 0 01-.02.06.097.097 0 01-.056-.021.095.095 0 01-.034-.049l-.44-.66zm-1.2-.19h1.13l-.57-1.51-.56 1.51zM140.31 353.229a1 1 0 110-1.2v-1.12a.091.091 0 01.004-.04.095.095 0 01.022-.034.075.075 0 01.034-.021c.013-.005.026-.006.04-.005.013 0 .025.003.037.008a.084.084 0 01.03.022.094.094 0 01.023.07v2.6a.101.101 0 01-.026.068.097.097 0 01-.064.032.099.099 0 01-.1-.1v-.28zm0-.57v-.06a.768.768 0 00-.188-.593.766.766 0 00-.567-.254.76.76 0 00-.755.847.761.761 0 101.51 0v.06zM143 353.229a1.005 1.005 0 01-1.116.349.997.997 0 01-.684-.949.995.995 0 01.684-.948.997.997 0 011.116.348v-1.12a.091.091 0 01.004-.04.095.095 0 01.022-.034.075.075 0 01.034-.021c.013-.005.026-.006.04-.005.013 0 .025.003.037.008a.093.093 0 01.049.055.094.094 0 01.004.037v2.6a.101.101 0 01-.026.068.097.097 0 01-.064.032.099.099 0 01-.1-.1v-.28zm0-.57v-.06a.768.768 0 00-.188-.593.766.766 0 00-.567-.254.76.76 0 00-.755.847.761.761 0 101.51 0v.06zM146.86 351.751v1.76a.097.097 0 01-.026.067.098.098 0 01-.064.033.1.1 0 01-.038-.008.115.115 0 01-.033-.021.115.115 0 01-.021-.033.1.1 0 01-.008-.038v-.29a.93.93 0 01-.74.39 1.002 1.002 0 01-.707-1.707.997.997 0 01.707-.293.918.918 0 01.74.38v-.28a.087.087 0 01.026-.074.087.087 0 01.074-.026.092.092 0 01.052.006.088.088 0 01.054.084.09.09 0 01-.016.05zm-.19.88a.743.743 0 00-.49-.647.735.735 0 00-.788.191.737.737 0 00.538 1.246.755.755 0 00.535-.24.758.758 0 00.205-.55zM148.75 352.619a1 1 0 011-1c.227.002.447.076.63.21a.102.102 0 01.018.061.094.094 0 01-.022.059.102.102 0 01-.053.035.105.105 0 01-.063-.005.824.824 0 00-.51-.17.778.778 0 00-.306.054.78.78 0 00-.442 1.035.793.793 0 00.439.433.83.83 0 00.819-.122.07.07 0 01.03-.02.085.085 0 01.035-.008c.012 0 .024.003.035.008a.07.07 0 01.03.02.103.103 0 01.029.07.103.103 0 01-.029.07.995.995 0 01-.62.21.997.997 0 01-1.02-.94zM152 351.65a1 1 0 11.161 1.994 1 1 0 01-.161-1.994zm0 1.77a.795.795 0 00.79-.79.79.79 0 10-.79.79zM156.42 352.45a.619.619 0 00-.61-.61.612.612 0 00-.6.61v1.07l-.05.06H155v-1.07a.605.605 0 00-.37-.554.605.605 0 00-.46 0 .591.591 0 00-.324.324.605.605 0 00-.046.23v1.07a.08.08 0 01-.015.042.08.08 0 01-.035.028.104.104 0 01-.049-.025.101.101 0 01-.031-.045v-1.79a.092.092 0 01.053-.092.095.095 0 01.037-.008.087.087 0 01.074.026.087.087 0 01.026.074v.18a.78.78 0 01.6-.28.789.789 0 001.4 0 .8.8 0 01.8.8v1.07a.093.093 0 01-.033.064.097.097 0 01-.067.026.095.095 0 01-.061-.029.095.095 0 01-.029-.061l-.05-1.11zM160.23 352.45a.633.633 0 00-.61-.61.619.619 0 00-.61.61V353.58h-.14v-1.07a.608.608 0 00-1.188-.256.6.6 0 00-.022.256v1.07a.085.085 0 01.008.035.085.085 0 01-.008.035h-.07a.138.138 0 01-.08-.07v-1.79c0-.025.009-.049.026-.067a.098.098 0 01.104-.029.087.087 0 01.034.022.087.087 0 01.026.074v.18a.797.797 0 01.309-.223.8.8 0 01.736.08.788.788 0 01.255.283.833.833 0 01.298-.306.798.798 0 01.974.121.779.779 0 01.228.565v1.07a.09.09 0 01-.026.064.09.09 0 01-.064.026.09.09 0 01-.064-.026.09.09 0 01-.026-.064l-.09-1.11zM161.09 352.631a.953.953 0 01.913-.894.952.952 0 01.977.824.078.078 0 01-.027.06.077.077 0 01-.063.02h-1.61a.771.771 0 00.76.76.726.726 0 00.63-.36.081.081 0 01.03-.021.084.084 0 01.035-.007.09.09 0 01.065.028.102.102 0 01.024.065.106.106 0 01-.024.065.94.94 0 01-.79.45 1.001 1.001 0 01-.92-.99zm.2-.15h1.48a.753.753 0 00-.73-.64.76.76 0 00-.75.64zM165.06 352.45a.611.611 0 00-.6-.61.631.631 0 00-.61.61v1.08a.109.109 0 01-.033.053.105.105 0 01-.057.027.146.146 0 01-.06-.05v-1.79a.1.1 0 01.008-.038.115.115 0 01.021-.033.115.115 0 01.033-.021.1.1 0 01.038-.008.098.098 0 01.064.033.097.097 0 01.026.067v.19a.751.751 0 01.271-.216.798.798 0 01.901.161.779.779 0 01.228.565v1.06a.099.099 0 01-.004.038.08.08 0 01-.019.032.073.073 0 01-.03.022.095.095 0 01-.037.008.099.099 0 01-.1-.1l-.04-1.08zM166.8 351.75a.108.108 0 01-.035.062.106.106 0 01-.065.028h-.25v1.43a.158.158 0 00.14.14.1.1 0 01.1.1.103.103 0 01-.029.071.1.1 0 01-.071.029.34.34 0 01-.34-.34v-1.43H166c-.1 0-.1 0-.1-.09s0-.1.1-.1h.24v-.73a.1.1 0 01.1-.1.1.1 0 01.1.1v.73h.25c.027 0 .054.01.074.029a.109.109 0 01.036.071zM167.87 353.209a.2.2 0 01.185.123.2.2 0 11-.385.077c0-.053.021-.104.059-.141a.197.197 0 01.141-.059zM168.79 353.209a.2.2 0 01.185.123.2.2 0 11-.385.077c0-.053.021-.104.059-.141a.197.197 0 01.141-.059zM169.71 353.209a.2.2 0 01.185.123.2.2 0 11-.385.077c0-.053.021-.104.059-.141a.197.197 0 01.141-.059zM127 361.461h-1.58a.103.103 0 01-.029-.07.1.1 0 01.029-.07l1.62-2a.081.081 0 01.03-.021.084.084 0 01.035-.007c.012 0 .024.002.035.007a.081.081 0 01.03.021.052.052 0 01.007.025.055.055 0 01-.007.025v1.93h.19a.099.099 0 01.1.1.1.1 0 01-.1.1h-.19v.48a.1.1 0 01-.1.1.1.1 0 01-.1-.1l.03-.52zm0-.2v-1.63l-1.32 1.63H127zM130.85 360.839a.623.623 0 00-.209-.393.627.627 0 00-.833 0 .627.627 0 00-.208.393v1.1a.102.102 0 01-.06 0 .105.105 0 01-.07 0v-2.64c0-.025.009-.049.026-.067a.098.098 0 01.064-.033c.026 0 .052.011.071.029a.105.105 0 01.029.071v1a.841.841 0 01.62-.29.786.786 0 01.754.465c.042.096.065.2.066.305v1.1a.09.09 0 01-.008.037.084.084 0 01-.055.049.077.077 0 01-.037.004.09.09 0 01-.064-.026.09.09 0 01-.026-.064l-.06-1.04zM132.69 360.07a1 1 0 11.161 1.994 1 1 0 01-.161-1.994zm0 1.77a.793.793 0 00.771-.444.785.785 0 00-.131-.88.788.788 0 00-1.232.089.793.793 0 00-.138.445.772.772 0 00.201.546.762.762 0 00.529.244zM134.26 360.169a.099.099 0 01.004-.038.08.08 0 01.019-.032.073.073 0 01.03-.022.095.095 0 01.037-.008.1.1 0 01.038.008.115.115 0 01.033.021c.009.01.016.021.021.033a.1.1 0 01.008.038v1.06a.597.597 0 00.6.6.597.597 0 00.6-.6v-1.06a.1.1 0 01.008-.038.115.115 0 01.021-.033.115.115 0 01.033-.021.1.1 0 01.038-.008.087.087 0 01.074.026c.01.009.017.021.022.034.004.013.006.026.004.04v1.06a.8.8 0 01-1.105.739.779.779 0 01-.485-.739v-1.06zM136.75 360.171a.09.09 0 01.008-.037.084.084 0 01.022-.031.094.094 0 01.032-.019.098.098 0 01.038-.003.099.099 0 01.09.09v.39a.928.928 0 01.78-.48c.025 0 .049.009.067.025.019.017.031.04.033.065a.111.111 0 01-.1.1.7.7 0 00-.57.32 1.57 1.57 0 00-.23.45v.86a.097.097 0 01-.029.061.106.106 0 01-.061.029.099.099 0 01-.038-.004.08.08 0 01-.032-.019.08.08 0 01-.022-.03.099.099 0 01-.008-.037l.02-1.73zM138.37 361.63a.081.081 0 01.03-.021.084.084 0 01.035-.007.09.09 0 01.065.028c.171.137.381.217.6.23a.588.588 0 00.37-.12.28.28 0 00.15-.24.285.285 0 00-.041-.137.288.288 0 00-.099-.103 1.001 1.001 0 00-.41-.14 1.142 1.142 0 01-.45-.15.412.412 0 01-.21-.35.475.475 0 01.21-.38.844.844 0 01.48-.14c.215.008.422.085.59.22a.107.107 0 01.021.065.11.11 0 01-.021.065.111.111 0 01-.14 0 .792.792 0 00-.48-.2.576.576 0 00-.37.12.28.28 0 00-.12.22c0 .04.01.079.03.114a.236.236 0 00.08.086c.125.065.26.109.4.13.166.021.326.075.47.16a.483.483 0 01.22.4.515.515 0 01-.22.4.818.818 0 01-.49.15 1.163 1.163 0 01-.72-.28.092.092 0 01-.016-.031.078.078 0 01-.002-.034.098.098 0 01.013-.032.092.092 0 01.025-.023zM143.31 360.171v1.77a.09.09 0 01-.09.09.097.097 0 01-.067-.026.096.096 0 01-.033-.064v-.3a.895.895 0 01-.73.39 1.002 1.002 0 01-.707-1.707.997.997 0 01.707-.293.889.889 0 01.73.39v-.29a.099.099 0 01.1-.1.092.092 0 01.052.006c.016.007.03.019.04.034.01.015.015.032.014.05a.09.09 0 01-.016.05zm-.19.88a.766.766 0 00-.201-.547.76.76 0 00-.529-.243.792.792 0 00-.79.79.79.79 0 00.79.79.78.78 0 00.289-.069.78.78 0 00.395-.428.77.77 0 00.046-.293zM146 361.88a.931.931 0 01-.93.92.9.9 0 01-.4-.1.09.09 0 010-.12.08.08 0 01.017-.033.065.065 0 01.03-.022.08.08 0 01.037-.006.089.089 0 01.036.011.68.68 0 00.32.07.724.724 0 00.681-.441.742.742 0 00.059-.279v-.24a.92.92 0 01-.74.38 1.002 1.002 0 01-.778-.975 1 1 0 01.778-.975.905.905 0 01.74.39v-.29c0-.026.01-.052.029-.07a.1.1 0 01.071-.03.112.112 0 01.09.1l-.04 1.71zm-.19-.84a.73.73 0 10-1.461.001.73.73 0 001.461-.001zM147.76 360.071a.999.999 0 01.292 1.972.99.99 0 01-.587-.044.993.993 0 01-.635-.928.998.998 0 01.93-1zm0 1.77a.793.793 0 00.771-.444.785.785 0 00-.131-.88.79.79 0 00-1.37.534.77.77 0 00.201.546.765.765 0 00.529.244z"/>
    <path fill="#000" d="M126.15 334.001a.22.22 0 01-.22.22h-.1v1.12a.22.22 0 010 .44.447.447 0 01-.45-.44v-1.12h-.11a.22.22 0 010-.44h.11v-.58c0-.03.006-.06.018-.087a.212.212 0 01.125-.12.214.214 0 01.087-.013.22.22 0 01.22.22v.58h.1a.22.22 0 01.22.22zM127 335.499a1.002 1.002 0 01-.27-.7c-.004-.259.093-.51.27-.7a.999.999 0 01.69-.31.874.874 0 01.67.31.999.999 0 01.28.7.999.999 0 01-.28.7.853.853 0 01-.67.3.935.935 0 01-.69-.3zm.16-.7a.651.651 0 00.15.42.524.524 0 00.38.15.504.504 0 00.37-.15.63.63 0 000-.84.56.56 0 00-.37-.15.558.558 0 00-.38.15.65.65 0 00-.18.42h.03zM131 334.619v.95a.205.205 0 01-.061.149.211.211 0 01-.149.061.22.22 0 01-.22-.21v-.95a.393.393 0 00-.254-.372.408.408 0 00-.439.096.41.41 0 00-.117.286v1a.21.21 0 01-.08.097.202.202 0 01-.12.033.23.23 0 01-.17-.21V333.999a.222.222 0 01.21-.22.203.203 0 01.19.12.938.938 0 01.43-.12.856.856 0 00.63.28.855.855 0 00.63-.28.84.84 0 01.83.84v.95c0 .056-.022.11-.061.149a.213.213 0 01-.149.061.222.222 0 01-.155-.057.208.208 0 01-.065-.153v-.95a.41.41 0 00-.4-.41.425.425 0 00-.44.238.413.413 0 00-.04.172zM133.35 335.221a.308.308 0 01.3.3.301.301 0 01-.3.3.299.299 0 01-.28-.184.29.29 0 01-.02-.116.299.299 0 01.3-.3zM133.79 334.801a.997.997 0 011-1 .997.997 0 01.63.22.22.22 0 01.05.3.199.199 0 01-.069.046.203.203 0 01-.162 0 .199.199 0 01-.069-.046.601.601 0 00-1 .45.588.588 0 00.59.57.622.622 0 00.38-.13.206.206 0 01.075-.035.205.205 0 01.159.024.22.22 0 01.096.13.21.21 0 01-.08.221.997.997 0 01-.63.21 1.004 1.004 0 01-.97-.96zM136.34 335.499a1.002 1.002 0 01-.27-.7c-.004-.259.093-.51.27-.7a.925.925 0 01.69-.31.899.899 0 01.67.31.999.999 0 01.28.7.999.999 0 01-.28.7.875.875 0 01-.303.222.874.874 0 01-.367.078.921.921 0 01-.69-.3zm.16-.7a.599.599 0 00.15.42.524.524 0 00.38.15.504.504 0 00.37-.15.663.663 0 000-.84.56.56 0 00-.37-.15.558.558 0 00-.38.15.6.6 0 00-.15.42zM138.84 335.499a1.002 1.002 0 01-.27-.7c-.004-.259.093-.51.27-.7a.925.925 0 01.69-.31.899.899 0 01.67.31.999.999 0 01.28.7.999.999 0 01-.28.7.875.875 0 01-.303.222.874.874 0 01-.367.078.921.921 0 01-.69-.3zm.16-.7a.599.599 0 00.15.42.524.524 0 00.38.15.504.504 0 00.37-.15.663.663 0 000-.84.56.56 0 00-.37-.15.558.558 0 00-.38.15.6.6 0 00-.15.42zM141.16 336.329v-2.33a.216.216 0 01.058-.155.209.209 0 01.152-.065.24.24 0 01.139.048.236.236 0 01.081.122 1 1 0 11.54 1.83.911.911 0 01-.53-.16v.7a.204.204 0 01-.021.084.215.215 0 01-.209.126.212.212 0 01-.21-.2zm.44-1.53a.54.54 0 00.15.4.498.498 0 00.38.17.51.51 0 00.38-.17.6.6 0 00.16-.4.652.652 0 00-.16-.41.531.531 0 00-.76 0 .59.59 0 00-.15.41zM147.34 334a.207.207 0 01-.062.148.21.21 0 01-.148.062.395.395 0 00-.24.07.477.477 0 00-.18.2c-.074.1-.132.211-.17.33v.76a.211.211 0 01-.22.21.21.21 0 01-.21-.21V334c0-.056.022-.109.061-.149a.213.213 0 01.149-.061.222.222 0 01.155.057.208.208 0 01.065.153l.09-.08a.865.865 0 01.5-.15.211.211 0 01.21.23zM150.63 334.999h-.4a.09.09 0 01-.064-.026.094.094 0 01-.026-.064.09.09 0 01.09-.09h.43l.17-.95h-.44a.09.09 0 01-.064-.026.09.09 0 010-.127.09.09 0 01.064-.027h.47l.11-.66a.102.102 0 01.1-.09c.014 0 .027.003.04.009a.093.093 0 01.032.024.091.091 0 01.018.077l-.11.64h.83l.11-.66a.102.102 0 01.1-.09c.014 0 .027.003.04.009a.093.093 0 01.032.024.091.091 0 01.018.077l-.11.64h.4a.09.09 0 01.09.09.09.09 0 01-.026.064.09.09 0 01-.064.026H152l-.16.95h.43a.09.09 0 01.09.09.09.09 0 01-.026.064.09.09 0 01-.064.026h-.47l-.11.68a.114.114 0 01-.035.063.105.105 0 01-.065.027.079.079 0 01-.043-.008.088.088 0 01-.051-.068.093.093 0 01.004-.044l.11-.65h-.83l-.11.68a.114.114 0 01-.035.063.105.105 0 01-.065.027.079.079 0 01-.043-.008.088.088 0 01-.051-.068.093.093 0 01.004-.044l.15-.65zm1.05-.18l.17-.95H151l-.16.95h.84zM153.89 333.19h-.84a.099.099 0 01-.1-.1.104.104 0 01.032-.068.109.109 0 01.068-.032h1.88a.098.098 0 01.064.033.097.097 0 01.026.067.097.097 0 01-.004.038.08.08 0 01-.019.032.096.096 0 01-.03.023.094.094 0 01-.037.007h-.85v2.51c0 .024-.01.047-.026.064a.09.09 0 01-.064.026.101.101 0 01-.067-.025.098.098 0 01-.033-.065v-2.51zM155.76 333.09a.1.1 0 01.1-.1h.62a.71.71 0 01.7.7.717.717 0 01-.27.55.81.81 0 01.55.75.803.803 0 01-.8.8h-.81a.09.09 0 01-.064-.026.09.09 0 01-.026-.064v-2.61zm.72 1.1a.5.5 0 100-1H156v1h.48zm.18 1.41a.612.612 0 00.38-1.008.612.612 0 00-.38-.202H156v1.21h.66zM158.78 333.19h-.84a.09.09 0 01-.074-.025.09.09 0 01-.026-.075.1.1 0 01.1-.1h1.88a.098.098 0 01.064.033.097.097 0 01.026.067.097.097 0 01-.004.038.08.08 0 01-.019.032.086.086 0 01-.03.023.094.094 0 01-.037.007H159v2.51c0 .024-.01.047-.026.064a.09.09 0 01-.064.026.083.083 0 01-.038-.004.078.078 0 01-.032-.018.084.084 0 01-.022-.031.09.09 0 01-.008-.037l-.03-2.51zM163.05 333.09c0-.025.009-.049.026-.067a.098.098 0 01.064-.033h1.44a.1.1 0 01.1.1.09.09 0 01-.026.075.09.09 0 01-.074.025h-1.34v1.11h1.18c.013 0 .025.003.037.008a.084.084 0 01.03.022.094.094 0 01.023.07.09.09 0 01-.026.064.09.09 0 01-.064.026h-1.18v1.11h1.34a.09.09 0 01.04.005.075.075 0 01.034.021c.01.01.017.021.022.034.004.013.006.027.004.04a.09.09 0 01-.008.037.084.084 0 01-.022.031.078.078 0 01-.032.018c-.013.004-.025.006-.038.004h-1.44a.09.09 0 01-.064-.026.09.09 0 01-.026-.064v-2.61zM166.78 334.63a.601.601 0 00-.61-.6.625.625 0 00-.61.6v1.07a.056.056 0 01.005.025.053.053 0 01-.005.025.072.072 0 01-.035.008.072.072 0 01-.035-.008l-.07-.05v-1.79a.09.09 0 01.09-.09.09.09 0 01.09.09v.19a.816.816 0 01.61-.28.8.8 0 01.8.79v1.07a.102.102 0 01-.033.065.101.101 0 01-.067.025.09.09 0 01-.064-.026.09.09 0 01-.026-.064l-.04-1.05zM167.53 336.359a.147.147 0 00.103-.04.152.152 0 00.047-.1v-2.29a.1.1 0 01.1-.1.102.102 0 01.09.1v2.29a.34.34 0 01-.34.34.084.084 0 01-.067-.029.092.092 0 01-.023-.071.1.1 0 01.09-.1zm.15-3.07a.12.12 0 01.1-.1.1.1 0 01.1.1v.09a.099.099 0 01-.1.1.12.12 0 01-.1-.1v-.09zM169.66 333.831a.999.999 0 01.292 1.972.999.999 0 11-.292-1.972zm0 1.77a.79.79 0 00.83-.912.788.788 0 00-1.433-.322.789.789 0 00-.137.444.771.771 0 00.74.79zM171.34 333.931a.097.097 0 01.004-.038.08.08 0 01.019-.032.086.086 0 01.03-.023.094.094 0 01.037-.007.091.091 0 01.074.025c.01.01.017.022.022.035.004.013.006.026.004.04v1.07a.612.612 0 001.008.38.612.612 0 00.202-.38v-1.06-.05h.05v1.71a.917.917 0 01-.575.853.937.937 0 01-.355.067.928.928 0 01-.4-.1.078.078 0 01-.027-.06c0-.012.002-.023.007-.033a.068.068 0 01.02-.027.098.098 0 01.06-.02c.022 0 .043.007.06.02.1.048.209.072.32.07a.744.744 0 00.519-.207.732.732 0 00.221-.513v-.13a.79.79 0 01-1.4-.52l.1-1.07zM173.86 333.289a.1.1 0 01.1-.1c.026.003.05.014.068.032.018.019.03.043.032.068v.09c0 .028-.01.055-.029.075a.108.108 0 01-.071.035.084.084 0 01-.041-.008.1.1 0 01-.059-.102v-.09zm0 .64a.091.091 0 01.004-.04.104.104 0 01.022-.034.085.085 0 01.034-.021c.013-.005.026-.006.04-.005a.1.1 0 01.1.1v1.77a.098.098 0 01-.033.065.096.096 0 01-.067.025.082.082 0 01-.07-.022.084.084 0 01-.022-.031.09.09 0 01-.008-.037v-1.77zM176.38 334.631a.6.6 0 00-.6-.6.607.607 0 00-.61.6v1.12a.12.12 0 01-.07 0s-.05 0-.06-.05v-1.79a.09.09 0 01.008-.037.084.084 0 01.022-.031.082.082 0 01.07-.022.09.09 0 01.064.026.09.09 0 01.026.064v.19a.786.786 0 01.88-.241.792.792 0 01.52.751v1.07a.09.09 0 01-.09.09.099.099 0 01-.038-.004.08.08 0 01-.032-.019.077.077 0 01-.022-.031.09.09 0 01-.008-.036l-.06-1.05zM179.14 335.641a.92.92 0 01-.92.92 1.006 1.006 0 01-.41-.1.1.1 0 010-.12c0-.06.08-.08.13 0a.68.68 0 00.32.07.723.723 0 00.674-.442.719.719 0 00.056-.278v-.24a.89.89 0 01-.73.38 1.003 1.003 0 01-.778-.975 1.002 1.002 0 01.778-.975.898.898 0 01.73.39v-.29a.104.104 0 01.032-.068.104.104 0 01.068-.032.097.097 0 01.064.032.101.101 0 01.026.068l-.04 1.66zm-.19-.84a.729.729 0 10-1.458 0 .729.729 0 001.458 0zM182.67 334.631a.6.6 0 00-1.025-.423.619.619 0 00-.185.423v1.12a.104.104 0 01-.035.007.104.104 0 01-.035-.007s-.05 0-.06-.05v-1.79c0-.013.002-.026.008-.037a.084.084 0 01.022-.031.082.082 0 01.07-.022.09.09 0 01.064.026c.016.017.026.04.026.064v.19a.786.786 0 01.88-.241.785.785 0 01.379.293.78.78 0 01.141.458v1.07a.09.09 0 01-.09.09.097.097 0 01-.067-.026.098.098 0 01-.033-.064l-.06-1.05zM185.37 333.929v1.77a.098.098 0 01-.033.065.096.096 0 01-.067.025.09.09 0 01-.064-.026.09.09 0 01-.026-.064v-.3a.902.902 0 01-.74.39 1 1 0 110-2 .93.93 0 01.74.39v-.29a.094.094 0 01.023-.07.084.084 0 01.03-.022.095.095 0 01.037-.008.106.106 0 01.05.009c.016.008.03.019.04.033.01.014.016.031.018.048a.095.095 0 01-.008.05zm-.19.88a.742.742 0 00-.913-.669.732.732 0 00-.365.214.74.74 0 00.538 1.245.77.77 0 00.74-.79zM186.88 333.93a.101.101 0 01-.026.068.097.097 0 01-.064.032h-.25v1.42a.15.15 0 00.14.15.106.106 0 01.09.014.103.103 0 01.041.081.104.104 0 01-.011.046.092.092 0 01-.03.035.09.09 0 01-.043.018.094.094 0 01-.047-.004.315.315 0 01-.132-.023.32.32 0 01-.185-.185.331.331 0 01-.023-.132V334h-.25c-.09 0-.09 0-.09-.1s0-.1.09-.1h.25v-.72a.1.1 0 01.09-.1.12.12 0 01.11.1v.72h.25a.108.108 0 01.077.043.098.098 0 01.013.087zM187.76 333.931a.09.09 0 01.06-.096.09.09 0 01.04-.004c.013 0 .025.002.037.007a.086.086 0 01.03.023.08.08 0 01.019.032.097.097 0 01.004.038v1.07a.6.6 0 00.147.48.604.604 0 00.916 0 .604.604 0 00.147-.48v-1.06a.099.099 0 01.1-.1.1.1 0 01.071.029.103.103 0 01.029.071v1.06a.795.795 0 01-.238.569.812.812 0 01-.877.17.806.806 0 01-.428-.434.798.798 0 01-.057-.305v-1.07zM190.25 333.93a.093.093 0 01.033-.064.097.097 0 01.067-.026.09.09 0 01.064.026c.016.017.026.04.026.064v.44-.05a1.003 1.003 0 01.79-.48.09.09 0 01.064.026.09.09 0 01.026.064.094.094 0 01-.023.07.073.073 0 01-.03.022.095.095 0 01-.037.008.685.685 0 00-.57.32c-.099.139-.18.29-.24.45v.86a.09.09 0 01-.09.09.097.097 0 01-.067-.026.093.093 0 01-.033-.064l.02-1.73zM191.67 334.82a.945.945 0 01.215-.738.952.952 0 011.675.668.09.09 0 01-.026.064.094.094 0 01-.064.026h-1.61a.768.768 0 00.76.75.735.735 0 00.63-.36.11.11 0 01.065-.021.11.11 0 01.065.021.111.111 0 010 .14.932.932 0 01-.79.44 1.003 1.003 0 01-.92-.99zm.2-.16h1.49a.761.761 0 00-1.49 0zM194.24 333.09a.109.109 0 01.032-.068.109.109 0 01.068-.032.1.1 0 01.1.1v2a.099.099 0 01-.1.1.104.104 0 01-.068-.032.109.109 0 01-.032-.068v-2zm0 2.51a.109.109 0 01.032-.068.109.109 0 01.068-.032.1.1 0 01.1.1v.1a.09.09 0 01-.008.037.084.084 0 01-.022.031.078.078 0 01-.032.018.083.083 0 01-.038.004.101.101 0 01-.067-.025.098.098 0 01-.033-.065v-.1z"/>
    <path fill="#A6A6A6" d="M126.61 343.71l-1.08-2.57a.097.097 0 01-.024-.065c0-.023.008-.047.024-.065a.102.102 0 01.065-.024c.024 0 .047.009.065.024l1 2.39 1-2.39a.093.093 0 01.06-.023c.022 0 .043.009.06.023a.108.108 0 01.034.021.09.09 0 01.023.032.102.102 0 01.01.038.1.1 0 01-.007.039l-1.09 2.55a.08.08 0 01.011.04.08.08 0 01-.011.04h-.08a.059.059 0 01-.042-.017.058.058 0 01-.018-.043zM128.57 341.27a.099.099 0 01.1-.1c.026.002.05.013.068.032.018.018.03.042.032.068v.09a.105.105 0 01-.029.071.105.105 0 01-.071.029.087.087 0 01-.074-.026.087.087 0 01-.022-.034c-.004-.013-.006-.027-.004-.04v-.09zm0 .64a.087.087 0 01.026-.074.087.087 0 01.074-.026.1.1 0 01.071.029.103.103 0 01.029.071v1.77a.098.098 0 01-.033.064.097.097 0 01-.067.026.099.099 0 01-.038-.004.08.08 0 01-.032-.019.08.08 0 01-.022-.03.08.08 0 01-.008-.037v-1.77zM129.55 342.801a1 1 0 01.95-1c.24.013.467.113.639.28.173.167.28.39.301.63a.09.09 0 01-.09.09h-1.61a.768.768 0 00.76.75.735.735 0 00.63-.36.11.11 0 01.065-.021.11.11 0 01.065.021.111.111 0 010 .14.923.923 0 01-.79.44 1.003 1.003 0 01-.92-.97zm.2-.16h1.49a.77.77 0 00-.74-.64.783.783 0 00-.75.64zM132.68 343.749l-.73-1.75a.09.09 0 010-.12.102.102 0 01.13.05l.65 1.54.45-1.07a.115.115 0 01.037-.042.124.124 0 01.053-.018.111.111 0 01.1.06l.45 1.07.65-1.54a.085.085 0 01.049-.05.077.077 0 01.036-.007c.012 0 .024.002.035.007a.09.09 0 010 .12l-.73 1.74v.05a.106.106 0 01-.048-.019.107.107 0 01-.032-.041l-.46-1.09-.45 1.08a.09.09 0 01-.09.06l-.1-.03zM138.31 341.909v1.77a.09.09 0 01-.026.064.09.09 0 01-.064.026.097.097 0 01-.067-.026.093.093 0 01-.033-.064v-.3a.895.895 0 01-.73.39.997.997 0 01-1-1 .997.997 0 011-1 .889.889 0 01.73.39v-.29c0-.026.011-.052.029-.071a.103.103 0 01.071-.029.092.092 0 01.052.006c.016.007.03.019.04.034.01.015.015.032.014.05a.09.09 0 01-.016.05zm-.19.88a.77.77 0 00-.201-.546.765.765 0 00-.529-.244.792.792 0 00-.79.79.79.79 0 00.79.79.76.76 0 00.73-.79zM139.23 341.071a.099.099 0 01.1-.1c.026.002.05.013.068.032.018.018.03.042.032.068v2.61a.102.102 0 01-.1.09.099.099 0 01-.038-.004.08.08 0 01-.032-.019.08.08 0 01-.022-.03.099.099 0 01-.008-.037v-2.61zM140.23 341.071c0-.025.009-.049.026-.068a.097.097 0 01.064-.032.099.099 0 01.1.1v2.61a.099.099 0 01-.008.037.08.08 0 01-.022.03.092.092 0 01-.07.023.09.09 0 01-.09-.09v-2.61zM142.24 343.6l1.3-1.18a.721.721 0 00.24-.54.712.712 0 00-.119-.389.714.714 0 00-.714-.315.717.717 0 00-.367.174l-.14.13a.102.102 0 01-.117-.022.107.107 0 01-.026-.057.101.101 0 01.013-.061l.14-.13a.908.908 0 011.29.06.919.919 0 01.163.982.92.92 0 01-.223.308l-1.12 1h1.32a.1.1 0 01.038.008.115.115 0 01.033.021c.009.01.016.021.021.033a.1.1 0 01.008.038.093.093 0 01-.033.064.097.097 0 01-.067.026h-1.57a.11.11 0 01-.08 0 .112.112 0 01-.025-.077.112.112 0 01.035-.073zM146.08 343.199h-1.58a.095.095 0 01-.025-.031.105.105 0 01-.008-.039c0-.013.003-.027.008-.039a.095.095 0 01.025-.031l1.61-2a.081.081 0 01.03-.021.104.104 0 01.035-.007.09.09 0 01.065.028.106.106 0 010 .05v1.89h.19c.026 0 .052.011.071.029a.103.103 0 01.029.071.103.103 0 01-.029.071.105.105 0 01-.071.029h-.19v.48a.095.095 0 01-.008.037.073.073 0 01-.022.03.08.08 0 01-.032.019c-.013.004-.025.005-.038.004a.097.097 0 01-.067-.026.093.093 0 01-.033-.064l.04-.48zm0-.2v-1.64l-1.32 1.64h1.32zM147.45 341.58a1.128 1.128 0 011-.6s.09 0 .09.09a.092.092 0 01-.053.093.079.079 0 01-.037.007 1.006 1.006 0 00-.82.51 2.005 2.005 0 00-.2.56.937.937 0 01.7-.32.93.93 0 11-.93.82 2.335 2.335 0 01.25-1.16zm-.07 1.28a.122.122 0 000 .06.741.741 0 00.73.64.726.726 0 00.674-.45.726.726 0 00-.158-.796.731.731 0 00-1.246.516v.03zM150.92 342.789a.997.997 0 011.62-.78.09.09 0 01.028.065.104.104 0 01-.007.035.081.081 0 01-.021.03.081.081 0 01-.03.021.104.104 0 01-.035.007.104.104 0 01-.035-.007.081.081 0 01-.03-.021.792.792 0 00-1.29.61.79.79 0 00.79.79.82.82 0 00.5-.17.102.102 0 01.065-.024.102.102 0 01.09.055.105.105 0 01.008.039.105.105 0 01-.008.039.095.095 0 01-.025.031.995.995 0 01-1.049.119 1 1 0 01-.571-.889v.05zM154.12 341.809a1 1 0 01.972.566c.087.181.117.384.087.583a1.005 1.005 0 01-.767.824.994.994 0 01-1.047-.411.996.996 0 01.093-1.245.998.998 0 01.662-.317zm0 1.77a.792.792 0 00.79-.79.792.792 0 00-1.58 0 .79.79 0 00.79.79zM158.58 342.61a.608.608 0 00-1.188-.256.6.6 0 00-.022.256v1.07a.12.12 0 01-.05.05h-.08v-1.07a.608.608 0 00-1.188-.256.6.6 0 00-.022.256v1.07a.085.085 0 01.008.035.085.085 0 01-.008.035.087.087 0 01-.051-.022.083.083 0 01-.029-.048v-1.79a.095.095 0 01.029-.061.1.1 0 01.061-.029.092.092 0 01.092.053.095.095 0 01.008.037v.19a.76.76 0 01.267-.21.764.764 0 01.333-.07.768.768 0 01.7.41.807.807 0 01.71-.41.79.79 0 01.79.79v1.07c0 .024-.01.047-.026.064a.09.09 0 01-.064.026.083.083 0 01-.038-.004.078.078 0 01-.032-.018.084.084 0 01-.022-.031.08.08 0 01-.008-.037l-.17-1.1zM162.39 342.61a.623.623 0 00-.61-.61.608.608 0 00-.6.61v1.07a.106.106 0 010 .05h-.07v-1.07a.608.608 0 00-1.188-.256.598.598 0 00-.022.256v1.07a.073.073 0 010 .07.078.078 0 01-.053-.02.078.078 0 01-.027-.05v-1.79a.09.09 0 01.026-.064.09.09 0 01.064-.026.09.09 0 01.064.026.09.09 0 01.026.064v.19a.759.759 0 01.61-.28.804.804 0 00.7.412.803.803 0 00.7-.412.776.776 0 01.565.228.775.775 0 01.235.562v1.07a.099.099 0 01-.008.037.08.08 0 01-.022.03.08.08 0 01-.032.019.099.099 0 01-.038.004.09.09 0 01-.09-.09l-.23-1.1zM163.25 342.799a.956.956 0 01.212-.738.947.947 0 01.689-.339.947.947 0 01.989.997c0 .024-.01.047-.026.064a.09.09 0 01-.064.026h-1.61a.766.766 0 00.76.75.735.735 0 00.63-.36.117.117 0 01.065-.021c.023 0 .046.008.065.021.016.02.025.045.025.07a.109.109 0 01-.025.07.926.926 0 01-.79.44.995.995 0 01-.92-.98zm.2-.16h1.49a.774.774 0 00-.74-.64.778.778 0 00-.75.64zM167.22 342.61a.605.605 0 00-.37-.555.604.604 0 00-.655.133.615.615 0 00-.185.422v1.07a.051.051 0 01.005.025.056.056 0 01-.005.025.085.085 0 01-.035.008.085.085 0 01-.035-.008.206.206 0 01-.07 0v-1.79a.09.09 0 01.026-.064.09.09 0 01.064-.026.09.09 0 01.064.026.09.09 0 01.026.064v.19a.822.822 0 01.61-.28.802.802 0 01.8.79v1.07a.1.1 0 01-.1.1.1.1 0 01-.1-.1l-.04-1.1zM169 341.91a.102.102 0 01-.033.065.096.096 0 01-.067.025h-.25v1.43a.16.16 0 00.15.15.106.106 0 01.09.014.103.103 0 01.041.081.104.104 0 01-.011.046.092.092 0 01-.03.035.09.09 0 01-.043.018.094.094 0 01-.047-.004.331.331 0 01-.35-.34V342h-.24c-.1 0-.1 0-.1-.09s0-.1.1-.1h.24v-.73a.1.1 0 01.1-.1.1.1 0 01.1.1v.73h.25c.026.003.05.014.068.032.018.019.03.043.032.068zM169.74 343.361a.106.106 0 01.14 0c.169.14.38.221.6.23a.615.615 0 00.37-.12.31.31 0 00.15-.24.31.31 0 00-.043-.136.302.302 0 00-.097-.104 1.066 1.066 0 00-.42-.14 1.092 1.092 0 01-.44-.15.412.412 0 01-.21-.35.505.505 0 01.21-.39.84.84 0 01.48-.13c.21.012.411.085.58.21a.1.1 0 010 .14.102.102 0 01-.065.024.102.102 0 01-.065-.024.854.854 0 00-.48-.2.626.626 0 00-.37.11.32.32 0 00-.13.23.233.233 0 00.12.19c.119.073.252.121.39.14.169.022.331.077.48.16a.483.483 0 01.22.4.497.497 0 01-.23.4.84.84 0 01-.48.15 1.161 1.161 0 01-.73-.28.09.09 0 01-.013-.064.082.082 0 01.033-.056z"/>
    <path fill="#000" d="M126.65 327.781a1 1 0 01-.7 1.7.999.999 0 01-.7-.29.225.225 0 01-.085-.268.226.226 0 01.237-.15.23.23 0 01.168.098.561.561 0 00.76 0 .546.546 0 000-.77.586.586 0 00-.38-.16.173.173 0 01-.16-.07.219.219 0 010-.32l.41-.42h-.65a.234.234 0 01-.193-.047.228.228 0 01.091-.402.234.234 0 01.102-.001h1.18a.215.215 0 01.159.068.203.203 0 01.047.075.212.212 0 01.014.087.28.28 0 010 .1v.06l-.51.52c.079.052.15.116.21.19zM127.94 328.919a.3.3 0 11.107.59.3.3 0 01-.107-.59zM128.42 328.079c-.01-.336.084-.668.27-.95a.9.9 0 01.74-.44.879.879 0 01.74.44c.181.284.275.614.27.95.013.353-.081.702-.27 1a.902.902 0 01-.74.44.912.912 0 01-.74-.44 1.668 1.668 0 01-.27-1zm1.58 0a1.275 1.275 0 00-.2-.71.474.474 0 00-.37-.24.518.518 0 00-.38.24 1.347 1.347 0 00-.19.71c-.005.25.061.496.19.71a.495.495 0 00.38.25.444.444 0 00.217-.077.448.448 0 00.153-.173c.137-.21.207-.458.2-.71zM133.4 328.74a.214.214 0 01-.018.086.203.203 0 01-.05.073.232.232 0 01-.075.047.234.234 0 01-.087.014v.3a.206.206 0 01-.014.085.2.2 0 01-.047.073.22.22 0 01-.073.048.228.228 0 01-.086.014.22.22 0 01-.22-.22V329h-1.26a.182.182 0 01-.13 0 .221.221 0 010-.31l1.48-1.84h.18v1.73a.218.218 0 01.265-.083.224.224 0 01.111.097.224.224 0 01.024.146zm-.71-1.21l-.79 1h.79v-1zM135.39 327.79a.996.996 0 01.29.699 1 1 0 01-.29.701 1.007 1.007 0 01-.7.29.933.933 0 01-.69-.29.227.227 0 01-.055-.072.226.226 0 01-.019-.089c0-.03.007-.06.019-.088a.227.227 0 01.055-.072.234.234 0 01.073-.051.233.233 0 01.087-.018c.03 0 .06.007.087.018.028.012.052.03.073.051a.52.52 0 00.586.119.547.547 0 00.334-.499.548.548 0 00-.092-.298.548.548 0 00-.552-.228.55.55 0 00-.276.146.222.222 0 01-.16.07.222.222 0 01-.16-.07l-.05-.05v-.13l.12-1a.237.237 0 01.1-.15.17.17 0 01.1 0h1.18a.234.234 0 01.087.014.212.212 0 01.125.12.23.23 0 01-.212.317h-1l-.05.389h.27a1 1 0 01.72.171zM137.89 326.69a.214.214 0 01.212.133.215.215 0 01.018.087v2.35a.214.214 0 01-.018.086.203.203 0 01-.05.073.232.232 0 01-.075.047.234.234 0 01-.243-.051.22.22 0 01-.064-.155v-2.35a.22.22 0 01.22-.22zM139.08 326.999a.216.216 0 01-.044.185.216.216 0 01-.266.061.216.216 0 01-.076-.061.216.216 0 01-.044-.185v-.09c0-.055.022-.109.062-.148a.21.21 0 01.148-.062.233.233 0 01.083.013.208.208 0 01.137.197v.09zm0 .72v1.56a.212.212 0 01-.065.153.222.222 0 01-.303-.004.208.208 0 01-.062-.149v-1.56a.216.216 0 01.058-.155.216.216 0 01.152-.065.233.233 0 01.083.013.208.208 0 01.137.197v.01zM139.77 329.259v-2.35a.22.22 0 11.44 0v1.38l.82-.82a.223.223 0 01.151-.051.218.218 0 01.146.064.223.223 0 01.065.146.224.224 0 01-.052.151l-.6.6.62.74a.221.221 0 010 .31.19.19 0 01-.065.04.192.192 0 01-.075.01.18.18 0 01-.091-.018.172.172 0 01-.069-.062l-.59-.71-.22.22v.35a.226.226 0 01-.064.156.22.22 0 01-.156.064.227.227 0 01-.097-.003.232.232 0 01-.085-.045.21.21 0 01-.058-.077.208.208 0 01-.02-.095zM141.77 328.48a1 1 0 011-1 1.005 1.005 0 011 .93v.06a.2.2 0 01-.21.16h-1.27c.022.098.07.188.14.26a.565.565 0 00.38.18.655.655 0 00.42-.1.235.235 0 01.15-.055c.055 0 .108.02.15.055a.192.192 0 010 .26 1.003 1.003 0 01-.72.26.995.995 0 01-1.04-1.01zm.43-.19h1.13a.665.665 0 00-.59-.43.56.56 0 00-.54.43z"/>
    <path fill="#EBEBEB" d="M294.95 118.42h-181.9v181.9h181.9v-181.9zM130.16 319.339h-.56c-.15-.1-3.74-2.55-5.28-5.39a5.906 5.906 0 01-.37-5.65 2.809 2.809 0 012.49-1.43 3.904 3.904 0 013.44 2.43 3.933 3.933 0 013.44-2.43 2.829 2.829 0 012.5 1.43 5.941 5.941 0 01-.36 5.65c-1.56 2.84-5.15 5.29-5.3 5.39zm-3.72-11.47a1.817 1.817 0 00-1.63.94 5.007 5.007 0 00.38 4.66 17.444 17.444 0 004.69 4.84 17.452 17.452 0 004.7-4.84 5 5 0 00.38-4.65 1.813 1.813 0 00-1.64-.95c-2.28 0-2.92 2.89-2.95 3h-1c0-.11-.64-3-2.93-3zM172.61 320.05l-.89-.17-1.8-6.73-4.17-4.55.36-.84h14.72l.4.8-8.62 11.49zm-5.36-11.29l3.49 3.81.11.2 1.57 5.86 7.41-9.87h-12.58z"/>
    <path fill="#EBEBEB" d="M181.075 307.62l-11.371 5.046.406.914 11.37-5.046-.405-.914zM150.39 319.419a6.275 6.275 0 01-5.803-3.879 6.279 6.279 0 1112.083-2.391 6.453 6.453 0 01-.26 1.79l.94 3.86-.6.61-3.3-.78a6.3 6.3 0 01-3.06.79zm0-11.55a5.284 5.284 0 00-5.194 4.283 5.274 5.274 0 001.256 4.525 5.28 5.28 0 006.658.992l.37-.06 2.71.64-.79-3.25v-.27a5.272 5.272 0 00-5-6.9l-.01.04zM273.13 319.33l-.79-.41v-10.66l.5-.5h8.66l.5.5v10.66l-.79.41-4-3.67-4.08 3.67zm.21-10.57v9.18l3.54-3.3h.58l3.54 3.3v-9.18h-7.66zM294.42 88.08H113.05v.25h181.37v-.25z"/>
    <path fill="#C7C7C7" d="M174 214.64c-.85 1.55-3.07 1.92-4.73 2.38-2.44.69-4.88 1.39-7.33 2.07l-14.3 4c-2.41.68-4.81 1.43-7.24 2-1.72.42-4.88-1.31-4.63-1.21-1.12-3.59-.75-7.75 2.39-10.44.27-.23 1-.55 1.14-.82.34-.58-.16-1.45-.37-2a36.898 36.898 0 00-1.55-3.55 13.586 13.586 0 00-.85-1.61c-.47-.72-1.18-.64-2-.58a3.858 3.858 0 01-2.57-.5c-1.45-1.07-.43-2.38.54-3.36a17.561 17.561 0 014.56-3.3 17 17 0 0111.25-1.42c4.11.92 7 3.55 9.58 6.46.72.82 1.21 1.56 2.45 1.75 1.07.18 2.14.27 3.21.46a19.49 19.49 0 016.07 2c2.46 1.51 5.95 4.77 4.38 7.67z"/>
    <path fill="#DBDBDB" d="M172.75 218.39c-1.86 1.26-4.15 1.63-6.4 2a19.998 19.998 0 00-3.95 1 22.947 22.947 0 00-3.36 1.76 31.324 31.324 0 01-6.6 3 29.905 29.905 0 01-7.24 1.31c-2.28.13-4.92.17-7-.8a3.84 3.84 0 01-2.5-4 4.004 4.004 0 011.28-2.19c.73-.65 2.31-1.13 2.33-2.2 0-1.34-6-3.49-8.37-7.94-1-1.91-1.63-4.28-.58-6.29 1.05-2.01 3.38-3 5.69-3.37a25.471 25.471 0 017.44.32 35.194 35.194 0 017.46 2.09c2.35.95 4.55 2.16 6.86 3.18a29.165 29.165 0 007.56 2.14c3.77.55 9.24 1.61 9.73 5.83a4.57 4.57 0 01-2.35 4.16z"/>
    <path fill="#C7C7C7" d="M138.89 221.139a1 1 0 00-.78.67.887.887 0 00-.06.54.67.67 0 000 .2.999.999 0 001.89.24 1.094 1.094 0 00-.022-1.145 1.102 1.102 0 00-1.028-.505zM168.38 217.001v-.08a.581.581 0 00-.16-.57.668.668 0 00-.14-.09.509.509 0 00-.438-.1.515.515 0 00-.352.28c-.28.53.39 1.24.9.79a.515.515 0 00.13-.17l.06-.06zM134.92 203.209v-.08a.573.573 0 00-.16-.56.48.48 0 00-.14-.09.52.52 0 00-.79.18c-.28.53.4 1.24.9.79a.615.615 0 00.14-.18s.05-.05.05-.06zM142.86 220.829a.418.418 0 00-.52.17.247.247 0 000 .22.4.4 0 00.76.13.397.397 0 00-.01-.311.41.41 0 00-.23-.209zM155 211.11a.418.418 0 00-.52.17.226.226 0 000 .22.4.4 0 00.76.13.397.397 0 00-.104-.438.402.402 0 00-.136-.082zM170.51 217a.43.43 0 00-.53.17.247.247 0 000 .22.395.395 0 00.106.232.398.398 0 00.654-.102.402.402 0 00-.23-.52zM213 136.679c-.12 1.63-2.21 2.12-3.5 2.48-3.87 1.09-8 .68-11.89.15-4.23-.56-8.64-1.35-12.86-.37a12.002 12.002 0 00-7.9 5.31c25.23-3.09 32.31 15.89 30.7 16.61-1.8.82-7.34 3.28-9.3 3.48-4.31.44-8.68-.05-13-.22-4.53-.19-9.06-.29-13.59-.42a248.89 248.89 0 01-26.76-1.82 108.023 108.023 0 01-13.23-2.61c-3.14-.83-8.39-1.4-8.07-4.89.58-6.24 6.15-15.91 20.63-14.84a21.13 21.13 0 0117.36-20.86 21.548 21.548 0 0117.51 5 18.395 18.395 0 0124.2 5.87 8.31 8.31 0 018.24 3.17 6.267 6.267 0 011.46 3.96z"/>
    <path fill="#DBDBDB" d="M216.4 138.321c-1 2.6-3.6 4.2-6.09 5.16-6.3 2.44-13.21 1-19.71.41a37.703 37.703 0 00-9.79.09c-3 .5-6.9 1.71-8.64 4.38-1.22 1.87.25 3.84 2.15 4.38 1.75.5 3.66 0 5.42-.17a93.215 93.215 0 0111.71-.82c5.81 0 13 .77 15.54 6.91a7.287 7.287 0 01-1 7.39 14.944 14.944 0 01-5.3 4.51 9.815 9.815 0 01-7.05 2.43c-4.61-.1-9-1.9-13.52-2.75a21.125 21.125 0 00-6.54-.35 45.871 45.871 0 00-6.1 1.59 21.475 21.475 0 01-11.84-.12c-3.85-1.16-7.31-3.28-11.18-4.41-3.6-1-7.31-1.71-10.86-2.92-3.17-1.09-6.59-2.69-8.67-5.42a5.795 5.795 0 01-1.267-4.296 5.786 5.786 0 012.177-3.914 17.108 17.108 0 0110.79-3.73c10.71 0 11.29-5.14 10.71-6.54a9.261 9.261 0 01.13-8.06 11.646 11.646 0 015.84-5.08 16.243 16.243 0 019.24-.6c3.57.68 6.73 2.33 10.16 3.42 3.93 1.25 7.7 0 11.51-1a58.599 58.599 0 0110.57-2.07 38.432 38.432 0 0110.66.37c3.09.57 6.4 1.5 8.77 3.67 2.04 1.84 3.23 4.85 2.18 7.54z"/>
    <path fill="#C7C7C7" d="M194.15 165.66a.999.999 0 00-.77.68.82.82 0 00-.07.54.518.518 0 000 .2.999.999 0 001.89.24 1.118 1.118 0 00-.471-1.539 1.117 1.117 0 00-.579-.121zM132.37 155.611v-.08a.581.581 0 00-.16-.57.562.562 0 00-.13-.08.524.524 0 00-.44-.104.521.521 0 00-.36.274c-.28.54.4 1.25.9.79a.76.76 0 00.14-.17s.05-.05.05-.06zM206.75 132.429a.136.136 0 000-.08.582.582 0 00-.16-.57.415.415 0 00-.13-.08.538.538 0 00-.44-.103.533.533 0 00-.36.273c-.28.54.4 1.25.9.8a.493.493 0 00.14-.18l.05-.06zM132.65 152.219a.434.434 0 00-.52.17.269.269 0 000 .23.398.398 0 00.631.292.406.406 0 00.165-.367.406.406 0 00-.236-.325h-.04zM170.38 132.44a.422.422 0 00-.52.17.25.25 0 000 .22.394.394 0 00.225.336.396.396 0 00.403-.031.396.396 0 00.169-.367.395.395 0 00-.237-.328h-.04zM210.6 131.429a.41.41 0 00-.52.16.245.245 0 000 .23.391.391 0 00.424.354.393.393 0 00.353-.426.394.394 0 00-.227-.318h-.03zM159.07 186.191c-1.7 3.54-6.28 2.57-9.21 1.63-4.37-1.4-8.71-2.88-13.16-4a47.013 47.013 0 00-13.77-1.52c-1.7.1-3.93.78-5.46-.28a2.223 2.223 0 01-.82-2.91c-.27-3.25 2.55-5.66 5.59-6.66a2.785 2.785 0 001.72-1.19c.26-.41.46-.85.72-1.26a14.945 14.945 0 011.76-2.27 15.822 15.822 0 014.54-3.33 15.357 15.357 0 0118.55 4.29c.59.74 1 1.59 1.61 2.35a8.731 8.731 0 002.47 2 13.103 13.103 0 013.61 3.55 13.297 13.297 0 012.06 4.89 7.829 7.829 0 01-.21 4.71z"/>
    <path fill="#DBDBDB" d="M158.09 188.389a7.842 7.842 0 01-5.17 3.15c-4.26.66-7.91-1.7-11.37-3.83a8.692 8.692 0 00-6.46-1.46 43.973 43.973 0 01-5.6.89c-3.6.14-7.85-.6-10.79-2.82-2.41-1.82-3.33-5.37-.61-7.37a12.259 12.259 0 015.07-1.78 24.075 24.075 0 006.13-1.9 22.875 22.875 0 0121.87.53 20.44 20.44 0 017.5 7.36c1.25 2.28 1.51 5.47-.57 7.23z"/>
    <path fill="#C7C7C7" d="M151.7 181.539a.999.999 0 00-.77.68.82.82 0 00-.07.54.836.836 0 000 .2.999.999 0 001.89.24 1.118 1.118 0 00-.471-1.539 1.12 1.12 0 00-.579-.121zM155.4 184.63a.268.268 0 000-.08.539.539 0 00-.16-.56.438.438 0 00-.13-.09.538.538 0 00-.44-.103.533.533 0 00-.36.273c-.28.54.4 1.25.91.8a.597.597 0 00.13-.18l.05-.06zM133.53 184.72a.18.18 0 000-.08.586.586 0 00-.17-.57.434.434 0 00-.13-.08.538.538 0 00-.44-.103.533.533 0 00-.36.273c-.28.54.4 1.25.91.79a.674.674 0 00.13-.17l.06-.06zM155.68 181.24a.428.428 0 00-.53.17.246.246 0 00-.025.11c0 .038.008.076.025.11a.4.4 0 00.76.13.41.41 0 00-.23-.52zM136.31 173a.43.43 0 00-.53.17.25.25 0 000 .22.398.398 0 00.331.354.393.393 0 00.252-.04.395.395 0 00.177-.184.402.402 0 00-.23-.52zM121.69 183a.411.411 0 00-.52.17.244.244 0 000 .22.392.392 0 00.593.33.395.395 0 00.167-.21.392.392 0 00-.105-.432.373.373 0 00-.135-.078z"/>
    <path fill="#FFFBD8" d="M200.24 300h-29.37s14.55-17 20.52-31.15a30.056 30.056 0 002.47-9c.33-4.47.79-9.42.69-14.43-.21-10.32-2.83-20.86-13.93-27.69a37.433 37.433 0 00-3.57-1.93c-11.21-5.29-20 2.45-22.09 4.1-.47.39-1.19 1-2.08 1.59-2.94 2.1-7.75 4.82-11.87 3.2-1-.41 3 .23 5.88-1.23s8.94-7.2 12.68-8.66a21.274 21.274 0 01-20.16-9.94c.48.6 8.29 11.12 21.8 8.11 4.1-.91 10.94-1.54 15.5.1 0 0 1.46-9.94-17.6-18.88-19.06-8.94-20.19-19.19-19.72-20.19.4-.84 2.48 4.31 5.77 8.41a19.637 19.637 0 002.19 2.35c2.89 2.59 8.11 5 13.43 7.69 6.46 3.3 13.05 7.07 15.75 12.28 0 0-.16-4.15 0-9.21.06-1.61.14-3.32.27-5 .36-4.56-2.65-14.91-10.22-21a21.607 21.607 0 00-16.4-4.61c-2.56.28-1-1.45 3.64-1.82a23.738 23.738 0 019.58 1.74 19.15 19.15 0 01-1.9-2.65 17.843 17.843 0 01-2.65-7.65 18 18 0 00-2-6.77c-.9-1.81-1.73-3-1.54-3.45.37-.9 3.28 1.1 4.56 7.12a86.652 86.652 0 013.1-8.48c1.1-2.1-1-6.93 0-7.12 1-.19 3 4 0 11.86-3 7.86-.18 13.13 3.28 16.14s10.65 11.33 12.47 19.45c0 0 .52-5.1 1.4-14.89.64-7.17 5-12.95 6.1-12.49 1.1.46-4.19 6.74-4.46 13.49-.09 2.18 0 4.42.08 6.63.2 4.65.51 9.22-.39 13a30.808 30.808 0 00-.8 8c.045 1.743.236 3.479.57 5.19a22.763 22.763 0 004.64 10.51c2.58 3 8.13 7.12 12.27 13.9a34.51 34.51 0 015.06 17.29c.51 18-7.51 48.64-2.95 56.09z"/>
    <path fill="#EBEBEB" d="M201.61 240.931c-.61-4.55-3.29-9.23-5.63-13.19-.06-.09-.2 0-.14.08 4.25 7.59 4.72 16.59 3.91 25.07-.89 9.29-4.22 18.32-4.84 27.64-.33 5 .72 10.19 2.11 15a.235.235 0 00.285.165.228.228 0 00.141-.109.23.23 0 00.024-.176c-2-9.44-.77-18.84.85-28.23 1.51-8.7 4.49-17.36 3.29-26.25zM192.8 271.76a146.905 146.905 0 01-7.1 14.82c-1.3 2.5-2.53 5-3.67 7.6-.86 1.93-1.63 3.9-2.44 5.85h-3.33c1.81-5.29 5.29-9.84 8.43-14.42a80.035 80.035 0 005.23-8.66c1.61-3.14 2.81-6.41 4.13-9.67a.106.106 0 01.054-.056.11.11 0 01.078-.007.112.112 0 01.078.123 37.428 37.428 0 01-1.48 4.41l.02.01zM194.21 275.34c-.48 1.89-1 3.76-1.53 5.62 0 .15-.07.3-.1.46a46.547 46.547 0 00-.82 6.55c-.12 2.099-.09 4.205.09 6.3.278 1.908.425 3.832.44 5.76h-6c.3-4.21 2-8.2 3.51-12.11.77-2 1.5-3.92 2.15-5.92.18-.54.35-1.08.52-1.62.27-1.09.57-2.16.91-3.22.1-.518.271-1.02.51-1.49.05-.12.09-.25.13-.38.04-.13.22-.07.19.05z"/>
    <path fill="#EBEBEB" d="M197.5 248.209a.143.143 0 01-.05.075.144.144 0 01-.17 0 .143.143 0 01-.05-.075 50.495 50.495 0 00-1.4-10.11 44.467 44.467 0 00-3.51-9.21c-2.75-5.27-6.9-10.44-12-13.61a29.006 29.006 0 016.44 4.82 22.103 22.103 0 019 13.62c.34 1.63.61 3.32.8 5 .673 3.118.988 6.302.94 9.49zM195.71 260.92c-.73 3.07-2.53 5.47-4.32 8a30.064 30.064 0 002.47-9c.33-4.47.79-9.42.69-14.43 1.11 5.11 2.39 10.23 1.16 15.43zM198.1 226.57a49.122 49.122 0 00-3.58-3.65c-2.46-2.24-5.37-4-7.69-6.35a19.95 19.95 0 01-5.64-14.41 22.763 22.763 0 004.64 10.51c2.58 2.96 8.17 7.12 12.27 13.9zM160.78 192.46a37.015 37.015 0 01-7.31-2.31 21.366 21.366 0 01-5.93-4.82 21.992 21.992 0 01-2.38-2.91 19.637 19.637 0 002.19 2.35c2.89 2.59 8.11 4.98 13.43 7.69zM176.8 190.51c.36-4.56-2.65-14.91-10.22-21a21.41 21.41 0 015.74 5 25.984 25.984 0 014.15 6.33c2 4.73.94 9.77.06 14.66.06-1.59.14-3.3.27-4.99zM180.62 217.79a37.21 37.21 0 00-3.57-1.93c-11.21-5.29-20 2.45-22.09 4.1-.47.39-1.19 1-2.08 1.59a24.247 24.247 0 0113.57-8.37 13.453 13.453 0 018.36.63 16.993 16.993 0 015.81 3.98zM172.74 201.529c-2.81-3.92-7.51-6.15-11.9-7.82 0 0-.05 0 0 .06 4.15 2.38 8.3 4.48 11.68 7.95.1.12.32-.04.22-.19z"/>
    <path fill="#EBEBEB" d="M184.45 215.91c-1.72-2.39-3.55-5-4.19-7.91-.71-3.19-.62-6.43-.9-9.66a.1.1 0 00-.1-.1.1.1 0 00-.071.03.097.097 0 00-.029.07 39.51 39.51 0 00-.09 5.33 23.371 23.371 0 00.46 4.72c.73 3.11 2.62 5.37 4.68 7.71.11.12.34-.05.24-.19zM181.42 188.999a30.808 30.808 0 00-.8 8v-.05c-1.32-4.15-.8-8.78 0-13 .48-2.666.9-5.333 1.26-8 .12 4.68.44 9.25-.46 13.05zM173.75 174a33.31 33.31 0 00-4.79-5.61 26.591 26.591 0 01-5.06-5.95c-.06-.11-.22 0-.17.1a24.16 24.16 0 004.41 6 77.49 77.49 0 015.39 5.62c.1.13.3-.03.22-.16zM161.49 162.141a17.852 17.852 0 01-2.65-7.65 17.99 17.99 0 00-2-6.77 17.704 17.704 0 012.84 5.42c.323 1.37.487 2.772.49 4.18a14.198 14.198 0 001.32 4.82z"/>
    <path fill="#C7C7C7" d="M275.82 209.619a4.24 4.24 0 01-2.32.11c-1-.07-2-.12-3-.14-4.167-.031-8.334.162-12.48.58-4.15.35-8.31.75-12.48.84a50.948 50.948 0 01-6.19-.14 3.303 3.303 0 01-2.94-1.69.15.15 0 01-.076.001.146.146 0 01-.068-.034.16.16 0 01-.056-.137 6.12 6.12 0 011.64-4.15 6.672 6.672 0 011.77-1.4 5.355 5.355 0 011.07-.46 7.517 7.517 0 001.11-.24c.41-.26.66-1.42.91-1.89a15.43 15.43 0 011.44-2.31 15.694 15.694 0 013.52-3.43 13.098 13.098 0 0115.94.48 11.37 11.37 0 011.69 1.77c.18.23.32.52.51.74.19.22.4.26.82.25a11.01 11.01 0 014.89.94 9.008 9.008 0 015.31 7.1c.08 1.07.1 2.64-1.01 3.21z"/>
    <path fill="#DBDBDB" d="M273.94 211.999a8 8 0 01-5-.27c-1.15-.35-2.07-.89-3.25-.32-.82.39-1.65.76-2.5 1.08a36.787 36.787 0 01-10.61 2.42c-3.66.312-7.346.038-10.92-.81-2.42-.59-5.15-2.14-5.43-4.69a1.833 1.833 0 01-.07-.41c-.14-1.55 1.24-2.64 2.5-3.21a12.45 12.45 0 012.67-.81 15.467 15.467 0 011.53-.23c.4 0 1.25.07 1.58-.14.33-.21.46-.7.66-1 .2-.3.44-.61.68-.9a11.337 11.337 0 011.82-1.71c5.64-4.1 12.84-2.46 18.55.53 1.79.94 3.51 2.43 5.56 2.6a6.284 6.284 0 014.19 1.87c2.03 2.13.56 5.13-1.96 6z"/>
    <path fill="#C7C7C7" d="M275.23 209.48a.151.151 0 000-.06.496.496 0 00-.13-.49.496.496 0 00-.12-.07.452.452 0 00-.68.15c-.24.46.34 1.07.77.68a.427.427 0 00.12-.15s.04-.05.04-.06zM254.21 200.301a.151.151 0 000-.06.5.5 0 00-.13-.49l-.12-.07a.44.44 0 00-.376-.086.448.448 0 00-.304.236c-.24.46.34 1.07.77.68a.436.436 0 00.12-.15l.04-.06zM243.51 206.85a.361.361 0 00-.45.14.209.209 0 000 .2.334.334 0 00.196.278.337.337 0 00.339-.031.333.333 0 00.142-.309.335.335 0 00-.197-.278h-.03zM273 210.179a.348.348 0 00-.45.15.188.188 0 00-.025.095c0 .034.008.066.025.095a.34.34 0 00.65.11.35.35 0 00-.2-.45zM288.66 169.06c-3 1.35-6.63 1.34-9.88 1.58-14.66 1.08-29.37 1.18-44 2-7.35.44-14.69 1.06-22 2.1-3.43.48-7 1.47-10.52.85a7.538 7.538 0 01-5.77-4.14l-.1.34c0 .08-.15.06-.13 0 .02-.06.09-.36.14-.54a.21.21 0 01.08-.27 57.644 57.644 0 012.57-8.25c1.81-4.34 4.71-8.47 9-10.61 4.29-2.14 9.27-1.91 13.81-.83a35.768 35.768 0 011.19-4.07c2.08-5.78 5.83-11.11 11.34-14a18.539 18.539 0 018.47-2.28c13.44-.11 18.22 10.1 18.73 11.41.44 1.13 1.75.56 2.63.41a25.637 25.637 0 0126.06 12c1.46 2.4 3 5.38 2.94 8.25-.06 2.87-2.1 4.99-4.56 6.05z"/>
    <path fill="#DBDBDB" d="M294 164.35c-.65 4.53-3.63 9.16-7.91 11a21.424 21.424 0 01-6.86 1.43c-2.775.21-5.559.26-8.34.15a73.898 73.898 0 01-8.4-.81c-2.77-.44-5.48-1.24-8.26-1.59-2.78-.35-5.63.39-8.38 1.11a28.122 28.122 0 00-7 2.6 1.584 1.584 0 001.65.07.236.236 0 01.109-.034.232.232 0 01.113.02.247.247 0 01.138.174c3.55-1.22 7.67-1.81 10.56.87a7.52 7.52 0 011 9.53c-2.09 2.95-6 3.45-9.33 3.15a26.503 26.503 0 01-3.17-.48 11.32 11.32 0 00-3.21-.52c-1.13.11-2 .94-3.05 1.28a4.77 4.77 0 01-2.7 0c-2.09-.55-3.64-2.06-5.35-3.29a7.998 7.998 0 00-3.57-1.54 15.515 15.515 0 00-3.85.17 17.12 17.12 0 01-6.84-.28 26.9 26.9 0 01-6.69-3.09c-3.41-2-7.41-4.36-8.29-8.58a13.665 13.665 0 01.48-6.44 16.087 16.087 0 012.8-5.67 15.203 15.203 0 0110.09-5.17c4.67-.5 9.33.94 13.4 3.15a5.827 5.827 0 01.85-2.38c2.48-4 7.51-4.35 11.71-3.72.71.11 1.42.28 2.13.37.71.09.88-.27 1.34-.65a28.802 28.802 0 018.35-4.65 30.994 30.994 0 0112.53-1.75c2.156.139 4.29.522 6.36 1.14 2.27.68 4.33 1.84 6.56 2.64a8.661 8.661 0 004.43.38 27.24 27.24 0 013.83-.44 14.766 14.766 0 017.3 1.63 10.09 10.09 0 015.47 10.22z"/>
    <path fill="#C7C7C7" d="M285.87 165.74a.854.854 0 00.66-.58.71.71 0 00.06-.46c.01-.06.01-.12 0-.18a.903.903 0 00-1.244-.536.905.905 0 00-.376.336 1.004 1.004 0 00.422 1.294.99.99 0 00.478.126zM210.3 167.92a.885.885 0 00.67-.58.741.741 0 000-.47v-.17a.9.9 0 00-1.63-.21.993.993 0 00.072.989 1.004 1.004 0 00.888.441zM282.7 163.091v.07a.495.495 0 00.14.48l.11.08a.467.467 0 00.38.086.46.46 0 00.31-.236c.24-.46-.34-1.07-.78-.69a.564.564 0 00-.11.16s-.05.04-.05.05zM218.79 182.999a.273.273 0 000 .07.485.485 0 00.14.48l.11.08a.469.469 0 00.18.086.465.465 0 00.51-.236c.24-.46-.34-1.07-.78-.69a.421.421 0 00-.11.16l-.05.05zM282.45 166a.36.36 0 00.45-.14.185.185 0 00.025-.095.188.188 0 00-.025-.095.34.34 0 00-.65-.11.333.333 0 00.084.372.31.31 0 00.116.068zM250 183a.36.36 0 00.45-.14.185.185 0 00.025-.095.188.188 0 00-.025-.095.34.34 0 00-.65-.11.333.333 0 00.084.372.31.31 0 00.116.068zM246.4 154.379a.349.349 0 00.45-.15.185.185 0 00.025-.095.188.188 0 00-.025-.095.34.34 0 00-.65-.11.35.35 0 00.2.45zM215.49 183.87a.368.368 0 00.45-.14.26.26 0 000-.19.342.342 0 00-.082-.217.343.343 0 00-.43-.071.337.337 0 00-.148.178.34.34 0 00.21.44z"/>
    <path fill="#FFFBD8" d="M275.23 168c-.86 2.46-4.81 11.75-17.41 12.82-6.08.52-12.37 1.65-17.81 4.07-5.81 2.57-10.65 6.61-13.24 12.89-1.59 3.85-2.24 8.58-2.51 13.64-.1 1.86-.15 3.75-.18 5.67a43.483 43.483 0 0118-8.27 18.311 18.311 0 0011.63-6.72c1-.86 2.56-1.07 2.67 0 .11 1.07-4.14 6.5-12.1 9.23-.912.312-1.84.576-2.78.79-7.12 1.63-14 7.42-17.47 10.79v1.56a92.161 92.161 0 01-.94 15.13 29.753 29.753 0 01-.88 3.75c-.37 1.19-.75 2.39-1.15 3.59-3.82 11.39-8.92 23-8.77 31.15.08 4.59 1.52 8.29 3 11.83 1.43 3.37 2.91 6.6 3.32 10.32h-27.7s8.75-2.35 9.82-7.48c1.07-5.13-2.14-13 1.49-23.48a147.068 147.068 0 016.34-14c3.32-6.92 6.52-14.34 6.89-22 .33-6.68-.65-14.55-.06-22.52a41.126 41.126 0 013.3-14 30.952 30.952 0 00-.16-4.13 30.408 30.408 0 00-5.07-14.14 7.242 7.242 0 00-.92-1.11c-1.39-1.28-2.56-4.67.32-2.32 5.34 4.35 7.52 12.71 8.32 17.14a34.02 34.02 0 013.24-4.17c12.81-14.08 26-18.68 27.86-27.21 1.86-8.53 1.81-9.82 2.45-10.14.64-.32 1.28 7.14-.85 11.84.2-.18 6.86-6.32 14.2-5.44 1.57.19-2.17 1-6.58 3-3.06 1.41-6.44 3.43-8.58 6.27a54.947 54.947 0 01-9.27 9c-4.06 3.28-8 6.1-9.73 8.13a45.027 45.027 0 018.55-3.44 51.93 51.93 0 018.52-1.79c7.21-.87 14.63-.65 19.62-6.86a21.851 21.851 0 003.53-6.79c.66-2.07 1.94.92 1.09 3.4z"/>
    <path fill="#EBEBEB" d="M203.56 286.83c-.47-4.49-1.4-8.83-.79-13.35 0-.13-.19-.15-.22 0-1 4-.27 8.32.21 12.34.273 2.055.377 4.128.31 6.2-.1 2.09-.37 4.77-1.9 6.35a.08.08 0 00-.021.059.08.08 0 00.084.077c.022 0 .042-.01.057-.026a8.38 8.38 0 002.29-5.22 25.86 25.86 0 00-.02-6.43zM212.38 300.219h-4.9a29.137 29.137 0 00-.48-8c-.59-2.71-1.39-5.35-1.8-8.11a42.4 42.4 0 01-.42-7.8c.2-5.05 1.26-10.52 3.76-15a.155.155 0 01.059-.06.152.152 0 01.081-.022c.029 0 .057.007.081.022a.155.155 0 01.059.06.153.153 0 010 .15 44.423 44.423 0 00-2.2 9.45 40.278 40.278 0 00-.09 8.36 27.658 27.658 0 002.29 8.43c1.73 4 3.89 8.19 3.56 12.52z"/>
    <path fill="#EBEBEB" d="M212.31 278.07c.08 4.59 1.52 8.29 3 11.83a28.141 28.141 0 01-4.67-9.43c-1.68-7.17 1.48-14.47 4.28-20.93 1.86-4.28 3.89-8.51 6.14-12.62-3.8 11.39-8.9 23.08-8.75 31.15zM216.82 239.059a55.176 55.176 0 01-4.49 9.4c-1.25 2.26-2.49 4.52-3.77 6.77 3.32-6.92 6.52-14.34 6.89-22 .33-6.68-.65-14.55-.06-22.52.28 2.44.71 4.86 1.14 7.29 1.24 6.88 2.47 14.19.29 21.06z"/>
    <path fill="#EBEBEB" d="M219.67 244.08a29.487 29.487 0 01-5.3 7.15A22.503 22.503 0 00212 256h-.07c1.22-4.77 4.71-8.44 6.64-12.89a26.996 26.996 0 001.57-15.72c0-.19.27-.28.3-.08 1.37 9.91.45 14.24-.77 16.77zM250.85 205.781a20.867 20.867 0 01-5.18 3.13 55.686 55.686 0 01-6.46 1.92.058.058 0 00-.057.005.058.058 0 00-.027.05c0 .01.002.02.007.028a.07.07 0 00.02.022.067.067 0 00.028.01c.01 0 .02-.001.029-.005a29 29 0 007.12-1.63 10.802 10.802 0 004.73-3.29c.13-.14-.06-.35-.21-.24zM244.3 211.311c-.912.312-1.84.575-2.78.79-7.12 1.63-14 7.42-17.47 10.79v.32a.231.231 0 01-.07-.2.118.118 0 010-.1c2.72-3.79 5.91-7.64 10.3-9.52a33.024 33.024 0 018.18-1.83c.62-.09 1.23-.18 1.84-.25zM240 184.859c-5.81 2.57-10.65 6.61-13.24 12.89-1.59 3.85-2.24 8.58-2.51 13.64a29.518 29.518 0 01-.31-8.85 20.682 20.682 0 016.35-12.83 20.22 20.22 0 016.47-3.73c1.06-.39 2.14-.79 3.24-1.12zM221.93 224.22c0 .1-.15.12-.17 0-.87-4.48-2.26-8.85-2.71-13.42a23.511 23.511 0 012-12.73c.06-.12.26 0 .22.09-.3.86-.58 1.71-.83 2.57a24.436 24.436 0 00-.21 4.1c.08 1.69.33 3.36.56 5 .53 3.172.64 6.399.33 9.6 0-.11 0-.22-.07-.34v.35c0 .12.07.05.08 0 .32 1.61.6 3.19.8 4.78z"/>
    <path fill="#EBEBEB" d="M221.15 219.481c0 .05-.09.06-.08 0 .01-.06 0-.23 0-.35.03.13.06.24.08.35zM218.53 192.531a30.404 30.404 0 00-5.07-14.14 18 18 0 014.48 7.71c.571 2.092.771 4.268.59 6.43zM237.24 184.249c-5.27 1.44-10.89 4.13-12.68 9.68 0 .013.005.026.015.035.009.01.022.015.035.015a.047.047 0 00.035-.015.047.047 0 00.015-.035 13.568 13.568 0 015.23-5.8 60.681 60.681 0 017.46-3.67c.14-.03.04-.25-.11-.21zM242.91 172.849c-2.06 1.72-3.86 3.69-6 5.28-1.83 1.34-3.77 2.39-5.11 4.27-.09.12.11.28.21.16 1.58-1.84 3.94-2.84 5.84-4.32a31.64 31.64 0 005.26-5.22c.06-.12-.11-.28-.2-.17zM270.62 171.25c-.37.55-.78 1.1-1.19 1.63a13.536 13.536 0 01-2.43 2.64c-.93.663-1.938 1.21-3 1.63a27.472 27.472 0 01-7.23 1.95c-4.75.61-9.53.26-14.28.8a51.93 51.93 0 018.52-1.79c7.2-.87 14.62-.65 19.61-6.86zM261.5 160c-3.06 1.41-6.44 3.43-8.58 6.27a54.947 54.947 0 01-9.27 9c5.12-5.63 9.97-13.79 17.85-15.27z"/>
    <g>
      <path fill="#263238" d="M87.83 301.93c-.05-.68-.07-1.36-.07-2h.75c0 .64 0 1.3.06 2h-.74zM165.3 359.999h-.13v-.75h.14c1.27 0 2.56 0 3.85-.09v.75c-1.26.09-2.57.09-3.86.09zm-5.15-.16c-1.34-.08-2.69-.2-4-.35l.08-.75c1.31.15 2.65.27 4 .35l-.08.75zm14.06-.32l-.08-.75c1.31-.14 2.64-.31 4-.51l.12.74c-1.38.22-2.72.4-4.04.54v-.02zm-23.05-.74a83.4 83.4 0 01-3.95-.78l.17-.73c1.3.29 2.62.55 3.91.77l-.13.74zm32-.71l-.16-.73c1.3-.28 2.6-.59 3.88-.93l.19.72c-1.31.37-2.62.68-3.93.96l.02-.02zm-40.8-1.32c-1.28-.36-2.57-.77-3.84-1.2l.24-.71c1.26.43 2.54.83 3.81 1.19l-.21.72zm49.53-1l-.23-.71c1.24-.4 2.51-.85 3.77-1.31l.26.7c-1.29.45-2.57.9-3.82 1.3l.02.02zm-58.08-1.91c-1.23-.5-2.48-1-3.69-1.6l.31-.68c1.21.55 2.44 1.09 3.66 1.58l-.28.7zm66.54-1.29l-.3-.69c1.22-.53 2.43-1.1 3.6-1.69l.34.67c-1.21.58-2.43 1.16-3.66 1.69l.02.02zm-74.76-2.55a67.2 67.2 0 01-3.5-2l.38-.65c1.13.67 2.3 1.33 3.48 2l-.36.65zm82.77-1.59l-.39-.65c1.14-.68 2.26-1.4 3.36-2.15l.42.62c-1.1.77-2.25 1.47-3.39 2.16v.02zm-90.52-3.07c-1.12-.75-2.22-1.54-3.29-2.33l.45-.6c1.06.79 2.15 1.56 3.26 2.31l-.42.62zm98-2.09l-.46-.59c1-.82 2.06-1.68 3.05-2.55l.5.56c-1.05.86-2.09 1.73-3.14 2.56l.05.02zm-105.18-3.36c-1-.86-2.05-1.76-3-2.66l.51-.55c1 .89 2 1.78 3 2.64l-.51.57zm111.94-2.65l-.53-.53c.92-.91 1.85-1.88 2.77-2.87l.55.51c-.97.98-1.91 1.95-2.84 2.87l.05.02zm-118.6-3.56c-.92-1-1.83-2-2.7-3l.57-.48c.86 1 1.76 2 2.68 3l-.55.48zm124.64-3.13l-.57-.48c.84-1 1.68-2.06 2.49-3.12l.6.46c-.83 1.07-1.67 2.12-2.52 3.14zm-130.48-3.78c-.81-1.09-1.59-2.2-2.31-3.31l.62-.41c.72 1.1 1.49 2.2 2.29 3.27l-.6.45zm136-3.39l-.61-.43c.76-1.08 1.52-2.18 2.27-3.29l.62.42c-.753 1.12-1.517 2.22-2.29 3.3h.01zm-140.89-4.24c-.65-1.2-1.26-2.41-1.8-3.61l.69-.31a49.05 49.05 0 001.77 3.56l-.66.36zm145.9-3.27l-.64-.4c.71-1.13 1.4-2.26 2.09-3.41l.65.38c-.7 1.16-1.4 2.3-2.11 3.43h.01zm-149.53-5a39.822 39.822 0 01-1.07-3.9l.73-.16c.28 1.25.63 2.54 1.05 3.82l-.71.24zm154.16-2.72l-.65-.37c.65-1.15 1.31-2.32 1.95-3.49l.66.36c-.66 1.14-1.31 2.35-1.97 3.46l.01.04zm4.35-7.91l-.67-.35c.63-1.17 1.25-2.36 1.87-3.54l.66.34c-.63 1.15-1.25 2.31-1.87 3.51l.01.04zm4.16-8l-.67-.34c.6-1.18 1.21-2.37 1.81-3.57l.67.34-1.81 3.57zm4.05-8.05l-.67-.34 1.79-3.58.68.33-1.8 3.59zm4-8.07l-.67-.33c.59-1.19 1.2-2.39 1.8-3.58l.67.34a226.142 226.142 0 00-1.77 3.52l-.03.05zm4.08-8l-.67-.35 1.84-3.56.67.35c-.59 1.11-1.21 2.29-1.81 3.44l-.03.12zm4.18-8l-.66-.36c.63-1.17 1.27-2.34 1.91-3.51l.66.36c-.61 1.11-1.25 2.28-1.88 3.45l-.03.06zm4.38-7.92l-.65-.37c.66-1.15 1.32-2.31 2-3.46l.65.38c-.68 1.15-1.34 2.3-2 3.45zm4.57-7.72l-.64-.39c.7-1.14 1.41-2.27 2.13-3.39l.63.4c-.69 1.12-1.42 2.25-2.12 3.38zm4.85-7.55l-.62-.41c.74-1.11 1.5-2.22 2.27-3.31l.61.43c-.76 1.09-1.52 2.19-2.26 3.29zm5.19-7.34l-.6-.45c.79-1.07 1.61-2.14 2.43-3.19l.59.46c-.82 1.05-1.63 2.11-2.42 3.18zm5.55-7.07l-.57-.48c.85-1 1.72-2 2.6-3.05l.57.5c-.88 1-1.76 2.01-2.6 3.03zm5.95-6.73l-.55-.51c.92-1 1.85-1.94 2.79-2.89l.53.53c-.94.95-1.88 1.9-2.77 2.87zm6.36-6.34l-.51-.55c.973-.906 1.973-1.806 3-2.7l.5.57c-1.04.88-2.02 1.77-2.99 2.68zm6.76-5.9l-.47-.59c1-.84 2.11-1.68 3.16-2.48l.45.6c-1.04.79-2.1 1.62-3.14 2.47zm7.17-5.41l-.43-.62c1.08-.76 2.2-1.52 3.32-2.25l.41.63c-1.11.73-2.22 1.48-3.3 2.24zm7.53-4.89l-.39-.64c1.15-.69 2.32-1.36 3.48-2l.37.66c-1.16.63-2.32 1.3-3.46 1.98zM335 188.81l-.33-.67 1.79-.89.33.68-1.79.88z"/>
      <path fill="#FF9800" d="M325.65 181.89l-5.48 15.05 11.5-8.99L375.65 172l-50 9.89z"/>
      <path fill="#17153E" d="M325.65 181.89l-5.48 15.05 11.5-8.99L375.65 172l-50 9.89z" opacity=".1"/>
      <path fill="#263238" d="M333.14 191.459l-12.97 5.48 11.5-8.99 1.47 3.51z"/>
      <path fill="#FF9800" d="M331.67 187.95L375.65 172l-36.08 35.21-7.9-19.26zM325.65 181.89l-18.28-11.8 68.28 1.91-50 9.89z"/>
    </g>
    <g>
      <path fill="#37474F" d="M210 280.92c-.72 1.23-73.47 14.69-77.1 14.17a2.135 2.135 0 01-.51-.13c-4.59-1.42-27.1-17-28.81-18.31-4.22-3.27 7.36-32.06 11.62-37.15 2.83-3.38 8.68-5.37 8.68-5.37s10.15-51.28 19.18-63c2.26-2.93 47.52-10.25 56.15-7.68 3.69 1.1 13.34 8.55 13.78 10.07.5 2.26-2.31 106.16-2.99 107.4z"/>
      <path fill="#263238" d="M210 280.921c-.72 1.23-73.47 14.69-77.1 14.17a2.135 2.135 0 01-.51-.13c4.38-19.94 25-113.53 25.84-114.23.84-.7 44.27-6.48 54.76-7.17.5 2.22-2.31 106.12-2.99 107.36z"/>
      <path fill="#37474F" d="M167.33 171.451c-.83-.59-2.7-10.47-1.63-12.64 1.2-2.43 18.76-3.75 20.05-2 1.29 1.75 3.17 11.62 2.69 12.05-.48.43-3.33 1.18-3.81.6s-1.6-8.81-2-9.2c-.4-.39-12.67.51-13 1.2-.33.69 1.85 8.85 1.41 9.28-.44.43-2.9 1.26-3.71.71z"/>
      <path fill="#F7A9A0" d="M200.09 184.261c12.67 28.28 43.3 75.29 57 63.65 20.5-17.4 34.36-55.9 39.85-71.47 3.09-8.72-41.34-23.32-44.06-15.4-3.87 11.26-9.94 34.77-13.46 38.1-1.86 1.75-16.39-18.68-27.41-28.37-15.88-13.96-16.01 4.46-11.92 13.49z"/>
      <path fill="#F7A9A0" d="M308.06 163.33c-4 8.9-19.18 23.94-24.24 26.16-5.06 2.22-31.78-22-31.22-27.59.56-5.59 16.5-35.44 25.33-40 8.83-4.56 34.23 32.21 30.13 41.43z"/>
      <path fill="#F7A9A0" d="M254.69 155.639s.64-12.65-2.56-23.35c-2.68-9-7.68-22-2.9-23.67 9.82-3.34 22.28 29.22 22.28 29.22s3.19 15.25-6.24 19.41c-5.92 2.62-10.58-1.61-10.58-1.61z"/>
      <path fill="#F7A9A0" d="M265.76 131.641c.65 5.12 6.31 1.43 6.31 1.43s-6.87 7.28-4.17 12.3c2.63 4.84 9.31.13 9.8-.2-.36.39-6.5 7.25-3.26 12 3.37 4.95 9.27-.92 9.65-1.3-.23.47-3.1 6.78.19 9.85 5.65 5.25 13.43-10.68 19.42-12.46 0 0 4.18 9.8 4.36 10.06 0 0 7.71-15 4.86-23a5.38 5.38 0 00-5.7-3.61s3-4.57.58-8.4c-1.25-2-5.51-1.7-5.51-1.7s2.27-3.76-.11-7c-1.89-2.62-5.86-2-5.86-2s.5-4.61-2.3-6.66c-5.63-4.08-29.63 9.73-28.26 20.69z"/>
      <path fill="#263238" d="M295.67 117.69c.08 0 .05-.16-.05-.13-9 2.61-18.09 8.24-23.88 15.68-.19.24.13.66.39.43 7.43-6.53 14.55-11.73 23.54-15.98zM302.38 126.551c.1-.05 0-.21-.08-.18-9.26 2.75-19.33 9.37-25 18.73-.2.32-.05.8.2.45 4.25-5.94 16.77-15.22 24.88-19zM283.92 156.67c5.78-8.77 13.79-14.8 22.9-19.81.12-.07 0-.23-.1-.2-5.12 1.24-10.6 5-14.61 8.36a27.601 27.601 0 00-8.5 11.45c-.07.18.19.39.31.2z"/>
      <path fill="#263238" d="M271.89 133.061c-.22.3.46.31.24.61-.92 1.26-5.8 9.34-3.56 11.85 1.79 2 5.74 1 7.11 0l3.43-2.48-2.36 3.52a17.36 17.36 0 00-2.37 5.09 6.158 6.158 0 00.46 5 3.535 3.535 0 001.797 1.536 3.537 3.537 0 002.363.064 10.728 10.728 0 004.46-3l3.47-3.62-2.08 4.53a16.122 16.122 0 00-1.25 4 6.664 6.664 0 00.3 3.86 3.157 3.157 0 002.76 1.9 7.013 7.013 0 003.66-1.47 55.966 55.966 0 006.47-5.8c1-1 2.11-2.06 3.21-3a10.386 10.386 0 013.7-2.38 11.337 11.337 0 00-3.42 2.67c-1 1.06-2 2.16-2.95 3.26a47.973 47.973 0 01-6.3 6.27 8.264 8.264 0 01-4.33 1.91 4.53 4.53 0 01-4.19-2.65 8.191 8.191 0 01-.51-4.73c.25-1.527.694-3.016 1.32-4.43l1.39.91a12.337 12.337 0 01-5.24 3.57 5.195 5.195 0 01-3.47-.13 5.767 5.767 0 01-2.59-2.25 7.785 7.785 0 01-.59-6.38 18.914 18.914 0 012.69-5.55l1.07 1c-1.77 1.2-6.06 2.82-9.24.05-3.6-4.24 3.21-12.33 4.55-13.73z"/>
      <path fill="#263238" d="M272.07 133.07c-.983.4-2.022.643-3.08.72a2.378 2.378 0 01-2.21-1 4.896 4.896 0 01-.51-2.72c.06-1 .17-2.13.33-3.25a8.273 8.273 0 00-1.44 3.09 4.841 4.841 0 00.41 3.68 3.514 3.514 0 001.62 1.26 3.71 3.71 0 001.95.07 5.614 5.614 0 002.93-1.85z"/>
      <path fill="#FF9800" d="M250.19 161.9l46.24 32.2s-27.62 57.23-44.69 57.07c-17.07-.16-41.73-43-50.27-61.54-8.54-18.54-3.42-34.23 13.78-17.33s23.36 23.83 23.92 23.6c1.08-.44 11.02-34 11.02-34z"/>
      <path fill="#FF9800" d="M296.43 194.1S277.28 233.79 261 247c-3.26 2.65-6.41 4.23-9.27 4.2-17.07-.15-41.73-43-50.27-61.54-5.29-11.47-5.34-21.86-.53-24.09 3-1.38 7.76.32 14.31 6.76 17.3 17 23.36 23.83 23.92 23.6 1.08-.44 11-34 11-34l46.27 32.17z"/>
      <path fill="#263238" d="M285.49 198.251c-1.22-1-2.45-2-3.69-3l-7.56-5.94c-5-3.93-10.15-7.7-15.32-11.42-2.94-2.12-5.82-4.34-8.84-6.33a.14.14 0 00-.17.22c2.4 2.12 5 4.06 7.47 6.07 2.47 2.01 5 4 7.5 6a633.342 633.342 0 0015.26 11.5c1.44 1.06 2.85 2.18 4.34 3.17.76.51 1.48 1.07 2.25 1.57s1.58.94 2.34 1.47a.082.082 0 00.115-.015.082.082 0 00-.015-.115c-1.25-1.01-2.42-2.14-3.68-3.18zM239.56 194.861a116.868 116.868 0 00-4.34 14.59c-.6 2.45-1.08 4.92-1.55 7.39a57.909 57.909 0 00-1 7.42c0 .09.13.1.16 0 .76-2.38 1.32-4.86 1.88-7.3.56-2.44 1.16-4.89 1.71-7.35 1.11-4.91 2.4-9.78 3.36-14.72a.118.118 0 00-.1-.089.118.118 0 00-.12.059z"/>
      <path fill="#000" d="M261 247c-3.26 2.65-6.41 4.23-9.27 4.2-17.07-.15-41.73-43-50.27-61.54-5.29-11.47-5.34-21.86-.53-24.09L261 247z" opacity=".1"/>
      <path fill="#FF9800" d="M129.28 300.29h116c-.77-5.42-24-114-33.88-130.55-4.69-7.87-23.94-13.05-36.87-.56-24.7 23.89-46.19 130.04-45.25 131.11z"/>
      <path fill="#263238" d="M230.87 232.57c-.3-1.49-.62-3-1-4.45-.67-2.91-1.4-5.8-2.17-8.69-1.09-4.06-2.26-8.12-3.48-12.16-.06-.64-.18-1.29-.27-1.93-.12-.87-.23-1.74-.37-2.61-.27-1.75-.56-3.5-.82-5.25a.079.079 0 00-.023-.056.082.082 0 00-.057-.024.082.082 0 00-.057.024.079.079 0 00-.023.056c.041 1.793.178 3.582.41 5.36 0 .29.08.58.13.87-.15-.48-.29-1-.44-1.46-.51-1.6-1.08-3.18-1.61-4.77-.53-1.59-1-3.29-1.67-4.88a.075.075 0 00-.095-.045.072.072 0 00-.042.038.071.071 0 00-.003.057c.32 1.48.78 2.92 1.17 4.38.39 1.46.74 2.85 1.1 4.28.74 2.89 1.59 5.76 2.36 8.64 1.55 5.76 3 11.56 4.62 17.3.44 1.57.88 3.14 1.34 4.71.46 1.57.91 3.32 1.54 4.91 0 .08.17.07.16 0a41.1 41.1 0 00-.7-4.3zM211.3 173.761a9.89 9.89 0 01-3.88 5.52c-2.1 1.3-4.74 1.28-7.09 1-5-.51-9.66-2.86-13.77-5.85-1.17-.86-2.3-1.78-3.42-2.71a33.135 33.135 0 01-3.14-2.9c-.07-.07-.17 0-.1.11.95 1 1.84 2.1 2.8 3.12a33.738 33.738 0 003 2.77 31.02 31.02 0 006.8 4.33 24.397 24.397 0 007.58 2.13c2.48.27 5.28.22 7.45-1.23a10.071 10.071 0 004-6.29.112.112 0 00-.009-.044.105.105 0 00-.025-.037.105.105 0 00-.037-.025.112.112 0 00-.088 0 .105.105 0 00-.037.025.105.105 0 00-.025.037.112.112 0 00-.009.044z"/>
      <path fill="#F7A9A0" d="M203.48 175.33c-4.47 1.22-16.58-2.73-21-10.05-.3-.5.27-5.94.66-12.58.21-4 .36-8.53.2-12.64 0-.84 26 5.25 26 5.25s-2.19 8.72-1.87 15.88c.034.566.118 1.128.25 1.68v.28c.74 3.18 1.19 10.71-4.24 12.18z"/>
      <path fill="#263238" d="M207.77 162.87a1.87 1.87 0 000 .28c-.876.147-1.762.227-2.65.24-14.35.25-19.7-17.29-21.12-23.39 4 .33 24.51 5.12 25.31 5.3 0 0-2.19 8.71-1.87 15.88.06.572.171 1.137.33 1.69z"/>
      <path fill="#F7A9A0" d="M180 110.349c-2.85 9.13 1.84 35.58 8.31 41.5 9.38 8.6 24.82 9.5 32.14-1.8 7.09-11 .38-45.31-6.86-50.7-10.66-7.95-29.4-2.49-33.59 11z"/>
      <path fill="#263238" d="M206.53 126.54c0-.06-.13.11-.11.18.36 1.78.48 3.87-1 4.74v.09c1.92-.61 1.74-3.39 1.11-5.01z"/>
      <path fill="#263238" d="M204.61 125c-2.9.28-2.14 6.07.56 5.81 2.7-.26 1.88-6.09-.56-5.81zM216.1 125.231c0-.07.16.06.16.14.18 1.8.69 3.83 2.39 4.21.06 0 .06.11 0 .1-2.01-.01-2.65-2.68-2.55-4.45z"/>
      <path fill="#263238" d="M217.46 123.139c2.85-.6 3.84 5.16 1.2 5.71-2.64.55-3.59-5.2-1.2-5.71zM202 122.611c.76-.31 1.41-.71 2.14-1.09a3.883 3.883 0 002-1.52 1.252 1.252 0 00-.4-1.46 3.086 3.086 0 00-3.1.09 4.53 4.53 0 00-2.31 2.27 1.326 1.326 0 00.292 1.386 1.318 1.318 0 001.378.324zM219.31 119.93a20.922 20.922 0 01-2.38-.29 3.892 3.892 0 01-2.37-.76 1.256 1.256 0 01-.315-.734 1.256 1.256 0 01.195-.776 3.05 3.05 0 011.334-.9 3.055 3.055 0 011.606-.1 4.537 4.537 0 012.95 1.35 1.327 1.327 0 01.224 1.444 1.32 1.32 0 01-1.244.766zM206.22 143.17c.49.37 1 .89 1.65.86a4.74 4.74 0 001.87-.71.062.062 0 01.041-.02.064.064 0 01.044.015.062.062 0 01.02.042.057.057 0 01-.015.043 2.447 2.447 0 01-2.15 1.28 2 2 0 01-1.62-1.4c-.06-.1.09-.16.16-.11z"/>
      <path fill="#FFFBD8" d="M213.14 139.001a7.358 7.358 0 01-2.61 2.63 3.25 3.25 0 01-2 .39c-1.48-.19-1.69-1.5-1.58-2.66a7.755 7.755 0 01.42-1.81 9.425 9.425 0 005.77 1.45z"/>
      <path fill="#263238" d="M207.4 137.55a6.15 6.15 0 004.44 2.18 7.536 7.536 0 002.21-.19c.14-.018.277-.051.41-.1l.38-.11a.447.447 0 00.31-.45c.004-.06.004-.12 0-.18v-.16c-.14-1.38-.55-3.47-.55-3.47.53.19 3.26 1 3.12.29-1.14-5.92-2.42-12.51-4.81-18.17a.17.17 0 00-.196-.084.171.171 0 00-.093.065.176.176 0 00-.031.109c.88 5.74 2.75 11.29 3.73 17a10.65 10.65 0 00-3-.5c-.19.08.87 4 .88 4.64v.07c-2.28.6-4.13.13-6.58-1.13-.22-.07-.35.07-.22.19zM184.05 131.561c5.17 0 4.13-22 4.13-22s5.28 2.48 9.62 2.79c3.392.206 6.797.031 10.15-.52.72-.2-8.28-3.72-8.28-3.72s11.89.72 15.2-1.24c3.31-1.96 3-2.8 2.79-4-.21-1.2-8.74-11.08-24.1-8.23a17.999 17.999 0 00-13.56 10.3s-4.53 7.81-4.27 11.43c.39 4.86 2.83 15.19 8.32 15.19z"/>
      <path fill="#F7A9A0" d="M186.56 132.22s-6.1-8.46-9.95-6.27c-3.85 2.19.83 14.5 5.41 16.13a4.61 4.61 0 005.162-1.018 4.62 4.62 0 00.998-1.562l-1.62-7.28z"/>
      <path fill="#263238" d="M178 129.451c-.07 0-.09.09 0 .12 3.21 1.24 4.93 4.18 6.15 7.23-1-1.17-2.27-1.8-3.83-.64-.08.06 0 .19.09.17a2.85 2.85 0 013.15.94c.595.785 1.108 1.63 1.53 2.52.16.28.67.12.56-.21v-.07c.01-4.07-3.23-9.72-7.65-10.06z"/>
      <path fill="#FF9800" d="M203.74 94a36.807 36.807 0 00-10.47-2.59c-4-.32-16.6 1.25-19.5 3.92-2.9 2.67-3.14 14.6-3.14 16.34 0 1.74 1.27 12.22 5.2 14.57 3.93 2.35 3.44-15.51 9.17-21.72C190.73 98.31 203.74 94 203.74 94z"/>
      <path fill="#000" d="M203.74 94s-13 4.32-18.73 10.53c-5.73 6.21-5.26 24.07-9.19 21.72-1.73-1-2.62-2.66-3.44-5.42.55-5.26 2.28-13.45 6.36-19.26 3.83-5.45 10.71-8.44 18.17-9.64a42.797 42.797 0 016.83 2.07z" opacity=".1"/>
      <path fill="#FF9800" d="M177.37 136.77c.11-4.78 4.35-17.74 9.08-25.28C191.18 103.95 205.9 99 208 99c5.08.05 6.87 1.5 7.65 1 .78-.5-4.61-4-6.08-4.84-1.47-.84-5.39-2.62-7.59-2.46-2.2.16-15.71 2.15-20.37 8.17s-10.88 22.58-9.4 26.67c.35 1 1.71 1.56 2.2 2.95.64 1.83 1.13 4 1.75 5.23.49 1.04 1.2 1.46 1.21 1.05z"/>
      <path fill="#263238" d="M187.46 108.149a23.23 23.23 0 01-3.4-2.26 17.093 17.093 0 01-3-2.87c-.06-.08-.19 0-.13.08a13.29 13.29 0 002.72 3.26 11.249 11.249 0 003.68 2c.18.09.26-.13.13-.21zM177.1 132c-.15-.34-.39-.63-.57-1a5.896 5.896 0 01-.5-1.15 10.71 10.71 0 00-.65-2.29 8.32 8.32 0 00-1.19-1.53 3.203 3.203 0 01-1-1.89c0-.1-.16-.09-.16 0 .07 1.44 1.09 2.42 1.77 3.6.326.79.583 1.606.77 2.44.228.773.702 1.45 1.35 1.93.08.13.23.02.18-.11zM178.5 126.799c-.48-.53-1-1-1.42-1.56a14.048 14.048 0 01-1.1-1.73c-.33-.59-.61-1.2-.93-1.8-.32-.6-.83-1.37-1.17-2.09 0-.09-.18 0-.14.09.35.74.58 1.55.9 2.31.295.653.629 1.287 1 1.9.347.592.753 1.148 1.21 1.66.437.534.978.973 1.59 1.29.05.02.09-.04.06-.07zM180 122.059a13.646 13.646 0 01-2.73-2.8c-.74-1-1.43-2.13-2.09-3.21-.05-.08-.18 0-.15.06a16.223 16.223 0 001.81 3.54 8.405 8.405 0 001.29 1.44 8.785 8.785 0 001.77 1.11c.1.04.18-.08.1-.14zM181.68 117.52a4.763 4.763 0 01-1.32-1.21c-.44-.52-.86-1-1.27-1.58-.41-.58-.8-1-1.19-1.54a4.758 4.758 0 01-.94-1.7.08.08 0 00-.029-.038.086.086 0 00-.046-.014.086.086 0 00-.046.014.08.08 0 00-.029.038c.084.649.298 1.275.63 1.84.337.636.728 1.241 1.17 1.81.438.558.908 1.089 1.41 1.59.41.489.962.838 1.58 1 .12.01.2-.15.08-.21zM182.77 111.81c-.46-.41-.92-.83-1.34-1.27-.42-.44-.84-.92-1.23-1.39-.39-.47-.85-1-1.23-1.5a.085.085 0 00-.052-.037.087.087 0 00-.063.012.075.075 0 00-.036.052.083.083 0 00.011.063c.288.586.622 1.147 1 1.68.352.522.743 1.016 1.17 1.48.433.464.894.902 1.38 1.31.459.435.999.775 1.59 1a.12.12 0 00.065-.006.114.114 0 00.052-.04.11.11 0 00.024-.06.118.118 0 00-.011-.064 9.22 9.22 0 00-1.33-1.23zM191 105.281a19.808 19.808 0 00-1.53-1.63 18.9 18.9 0 00-1.76-1.46 19.785 19.785 0 00-3.81-2.31c-.08 0-.17.06-.09.12 2.34 1.82 4.76 3.55 7.08 5.39.11.06.16-.04.11-.11zM193.67 101.07a9.806 9.806 0 00-1.69-1.46 20.883 20.883 0 00-4.18-2.07.08.08 0 00-.118.091.08.08 0 00.038.049c1.27.76 2.56 1.5 3.79 2.33.61.405 1.197.842 1.76 1.31.56.48 1 1.07 1.54 1.57 0 0 .12 0 .1-.06a5.56 5.56 0 00-1.24-1.76zM197.54 99a9.767 9.767 0 00-1.56-1.46 12.093 12.093 0 00-3.57-1.88c-.09 0-.14.1-.06.15a23.816 23.816 0 013.39 2.22c.53.42 1 .87 1.56 1.3.56.43 1 1 1.51 1.39a.054.054 0 00.039.013.05.05 0 00.036-.018.052.052 0 00.013-.038.053.053 0 00-.018-.037c-.391-.59-.839-1.14-1.34-1.64zM200.29 96.51c-.52-.38-1-.74-1.59-1.09a5.89 5.89 0 00-1.7-.85c-.09 0-.13.1-.06.14 1 .73 2 1.48 3 2.23.869.756 1.657 1.6 2.35 2.52 0 0 .11 0 .09-.05a6.002 6.002 0 00-2.09-2.9zM203.83 95.57a9.744 9.744 0 00-3.27-1.82c-.09 0-.14.11-.06.14a11.733 11.733 0 013 2 16.764 16.764 0 012.41 2.71c0 .05.13 0 .1 0a8.166 8.166 0 00-2.18-3.03zM208.6 97.48a5.194 5.194 0 00-.44-.7 7.807 7.807 0 00-1.12-1.25 17.089 17.089 0 00-2.8-1.95c-.08-.05-.16.09-.07.14.953.56 1.836 1.232 2.63 2 .386.384.747.791 1.08 1.22.16.21.31.43.45.65.122.234.266.455.43.66.012.01.026.016.04.018.015.002.03 0 .044-.007a.082.082 0 00.033-.028.077.077 0 00.013-.042 1.994 1.994 0 00-.29-.71zM211.48 97.6a11.1 11.1 0 00-.92-1c-.312-.325-.647-.629-1-.91-.37-.28-.76-.56-1.12-.86-.08-.07-.18.06-.09.13.376.288.727.606 1.05.95l.94 1 .94 1c.295.35.609.685.94 1 .05.05.13 0 .1-.08a6.66 6.66 0 00-.84-1.23z"/>
      <path fill="#455A64" d="M172.76 169.21c-2.23-.23 7.79-6.82 10.2-4.89 2.41 1.93 14.52 31.86 10.58 64.34-3.94 32.48-62.27 70.39-64.64 65.53-1-2-.31-6.9 1.26-8.72 2.22-2.57 43.15-34.5 47.76-54.64 4.08-17.91.32-61.06-5.16-61.62z"/>
      <path fill="#F7A9A0" d="M152.44 186.231c-36.91 38.89-70.25 105.61-50.13 109.08 17.39 3 72-12.85 85.45-18.57 5.88-2.49-9.48-52-15.59-48.92-5.29 2.63-12.23 5.52-13.06 5.46-1.77-.12 5.56-23.91 12-44.18 9.43-29.95-4.81-17.47-18.67-2.87z"/>
      <path fill="#F7A9A0" d="M227.86 209.18c3.61 3.87.92 8.64.92 8.64a11.294 11.294 0 016.29 4.39c2.5 3.92-2.56 9.55-2.56 9.55a14.004 14.004 0 015.9 5.7c2 4-2.28 10.4-2.28 10.4a12.144 12.144 0 012 8.27c-1.21 7.74-12.22 12.43-19.18 15.49-6.96 3.06-29.59 5.19-33.86 6l-20-44.55s27.34-22.59 36-25c7.41-2.02 22.72-3.23 26.77 1.11z"/>
      <path fill="#263238" d="M228.15 217.239c-8.31.3-16.09 3.05-24 5.35a.142.142 0 00-.084.068.142.142 0 00.057.191.138.138 0 00.107.011c7.85-2.38 16.06-3.17 24-5.23a.201.201 0 00.137-.231.203.203 0 00-.217-.159zM232.11 231.24a21.575 21.575 0 00-5.48 1.49c-1.9.65-3.78 1.34-5.66 2.06a243.514 243.514 0 00-11.17 4.6c-.16.07-.09.34.09.27 3.75-1.42 7.52-2.8 11.32-4.07a687.8 687.8 0 015.73-1.86 25.804 25.804 0 005.33-2 .29.29 0 00-.018-.424.296.296 0 00-.142-.066zM236 247.91c-1.63 0-3.36 1-4.86 1.6-1.69.69-3.4 1.38-5.1 2.05-3.42 1.34-6.83 2.69-10.29 3.91-.17.06-.09.34.09.27 3.52-1.22 7.05-2.4 10.56-3.66l5.16-1.88c1.45-.54 3.34-1.05 4.52-2.12a.112.112 0 00.008-.107.115.115 0 00-.036-.043.107.107 0 00-.052-.02z"/>
      <path fill="#FF9800" d="M171.25 225.521l16.75 55.23s-76.55 24-89.31 14.76c-12.76-9.24 14.31-72.92 63.65-119.51 17.3-16.35 14.42 2.59 8.58 21.49-6.76 21.89-9.25 33.74-9.25 33.74l9.58-5.71z"/>
      <path fill="#263238" d="M171.17 225.51c-1.75.76-22.94 13.12-24.42 14.09a8.211 8.211 0 00-2.21.58c-.85.29-1.7.57-2.54.88-1.62.61-3.24 1.21-4.84 1.85a69.954 69.954 0 01-9.76 3.56c-.18 0-.09.31.09.27a90.178 90.178 0 0010.18-2.74c1.68-.53 3.35-1.1 5-1.68l-1.76 1.16c-6.88 4.56-13.65 9.3-20.49 13.92-3.89 2.63-7.76 5.3-11.69 7.87a.145.145 0 00-.063.088.14.14 0 00.213.152c13.81-9 61-37.84 62.63-39.38.25-.27-.02-.75-.34-.62z"/>
      <path fill="#263238" d="M172.6 209.82c-1.25 1.59-2.73 3-4 4.53-.07.09-.14.17-.2.26 1.78-4.8 3.43-9.64 5.07-14.48a.076.076 0 00-.011-.048.09.09 0 00-.037-.033.083.083 0 00-.092.021c-2.62 5.93-5.27 11.85-7.6 17.9-1.18 3-5.33 13.85-5.09 14.25.14.23.37.33.55.1 0-.06 3.52-8.23 3.75-8.8a473.767 473.767 0 002.16-5.5l.09-.17c.26-.36.56-.68.83-1 .56-.72 1.09-1.45 1.64-2.18 1.12-1.49 2-3.14 3.13-4.62.12-.17-.08-.37-.19-.23zM188.43 280.911a6.126 6.126 0 00-.26-.87c-.11-.33-.23-.66-.35-1a6.726 6.726 0 01-.31-1c-.07-.34-.15-.69-.22-1 0-.18-.32-.1-.27.08.08.33.17.65.26 1 .08.329.137.663.17 1 0 .33.08.66.14 1 0 .15 0 .31.07.46.07.15.05.3.09.44-3.62.79-7.2 2-10.79 2.91-3.59.91-7.46 2-11.2 2.93-7.55 1.92-15.1 3.87-22.68 5.67-4.33 1-8.64 2.12-13 3-.18 0-.1.31.08.27 7.66-1.53 15.36-2.81 23-4.56 7.64-1.75 15.16-3.66 22.63-5.89 4.23-1.27 8.65-2.36 12.74-4a.232.232 0 00.141-.1.221.221 0 00.031-.082.218.218 0 00-.038-.168.219.219 0 00-.146-.092.218.218 0 00-.088.002z"/>
      <path fill="#263238" d="M177.17 276.091c-.39-1.54-.81-3.06-1.24-4.59-.85-3.09-1.72-6.17-2.6-9.26-1.75-6.13-3.66-12.2-5.65-18.25-1.13-3.44-2.14-6.94-3.41-10.32a.142.142 0 00-.068-.084.147.147 0 00-.107-.011.142.142 0 00-.084.068.138.138 0 00-.011.107c.7 3.13 1.63 6.21 2.46 9.3.83 3.09 1.63 6.2 2.52 9.29 1.75 6.12 3.62 12.21 5.55 18.28.54 1.7 1 3.44 1.64 5.12.31.86.56 1.74.89 2.6.33.86.72 1.69 1 2.56a.084.084 0 00.029.038c.014.009.03.014.046.014a.086.086 0 00.046-.014.084.084 0 00.029-.038c-.36-1.63-.64-3.23-1.04-4.81z"/>
    </g>
    <g>
      <path fill="#FF9800" d="M353.92.36h-67.68v38.21h67.68V.36zM297.69 38.58l-11.45 11.74V38.58h11.45z"/>
      <path fill="#FFFBD8" d="M336.2 8.04h-40.18v1.18h40.18V8.04zM323.56 11.648h-27.54v1.18h27.54v-1.18zM344.13 15.26h-48.11v1.18h48.11v-1.18zM312.57 18.879h-16.55v1.18h16.55v-1.18zM333.77 22.49h-37.75v1.18h37.75v-1.18zM336.2 26.11h-40.18v1.18h40.18v-1.18zM326.12 29.719h-30.1v1.18h30.1v-1.18z"/>
      <path fill="#455A64" d="M299.59 78.58h67.68V50.62h-67.68v27.96zM355.82 78.58l11.45 11.74V78.58h-11.45z"/>
      <path fill="#FFFBD8" d="M346.46 56.549h-36.44v1.22h36.44v-1.22zM356.4 60.27h-46.38v1.22h46.38v-1.22zM343.73 63.99h-33.71v1.22h33.71v-1.22zM352.42 67.709h-42.4v1.22h42.4v-1.22zM337.82 71.43h-27.8v1.22h27.8v-1.22z"/>
    </g>
    <g>
      <path fill="#FFFBD8" d="M219.23 211.509c-5.69 11.49-19.23 18.29-19.23 18.29s-13.54-6.81-19.22-18.29c-4.74-9.58-1.74-19.93 5.75-22.19 10.72-3.24 13.47 15.44 13.47 15.44s2.76-18.68 13.49-15.44c7.51 2.26 10.51 12.61 5.74 22.19z"/>
      <path fill="#455A64" d="M85.99 111.66H34.16v51.83h51.83v-51.83z"/>
      <path fill="#FFFBD8" d="M55.26 143.069h-7v-8h6.82c0-.61.06-1.08.07-1.56 0-2.09 0-4.2.16-6.28.43-4.58 3.24-7.81 7.77-8.44 2.83-.39 5.75-.07 8.7-.07v7.28h-3.14a14.423 14.423 0 00-2.8.18 2.629 2.629 0 00-2.22 2.53c-.08 2 0 4.08 0 6.29h7.93c-.34 2.61-.62 5-1 7.44 0 .24-.64.53-1 .54-1.92.06-3.83 0-5.9 0v20.47h-8.44l.05-20.38z"/>
      <path fill="#FF9800" d="M350.98 233.82h-51.83v51.83h51.83v-51.83z"/>
      <path fill="#FFFBD8" d="M344.13 249.21c0-5.19-3.27-8.55-8.41-8.6-7.12-.074-14.237-.074-21.35 0-5 .06-8.29 3.39-8.37 8.41-.05 3.55 0 7.11 0 10.66v10.43c0 5.31 3.28 8.7 8.53 8.75 7.04.08 14.08.08 21.12 0 5.15-.06 8.44-3.44 8.47-8.57.04-7.027.043-14.054.01-21.08zm-3.41 21.14c0 3.28-1.8 5.1-5.08 5.12-7.04.04-14.08.04-21.12 0-3.3 0-5.08-1.83-5.1-5.1v-21.3c0-3.25 1.83-5.12 5.08-5.15 7.04-.04 14.08-.04 21.12 0 3.26 0 5.07 1.89 5.1 5.13v10.65c0 3.55.04 7.1 0 10.65z"/>
      <path fill="#FFFBD8" d="M325.09 249.729a9.997 9.997 0 00-9.299 6.078 10.001 10.001 0 0017.453 9.568 9.999 9.999 0 00-8.154-15.646zm-.13 16.6a6.716 6.716 0 01-4.574-1.977 6.713 6.713 0 01-1.956-4.583 6.64 6.64 0 0113.28 0 6.728 6.728 0 01-6.71 6.56h-.04zM338 249.5a2.066 2.066 0 01-1.488 1.998 2.07 2.07 0 01-.882.062 2.095 2.095 0 01-1.69-.718 2.1 2.1 0 01-.48-1.772 2.21 2.21 0 012.4-2.12 2.233 2.233 0 012.075 1.621c.086.301.109.618.065.929z"/>
      <path fill="#FF9800" d="M94.27 102.76c1.14 7.39-3 15.19-3 15.19s-8.75 1.3-15.32-2.27c-5.48-3-7.52-8.92-4.71-12.52 4-5.15 11.62 2.84 11.62 2.84s-5-9.84 1.25-11.9c4.29-1.44 9.2 2.5 10.16 8.66zM104.81 81.78c-3.31 4.4-9.56 6.21-9.56 6.21s-5.18-3.94-6.68-9.24c-1.25-4.42.84-8.55 4.17-8.91 4.79-.53 4.48 7.58 4.48 7.58s2.63-7.68 6.91-5.46c2.98 1.54 3.44 6.15.68 9.82z"/>
    </g>
  </svg>
  