<svg xmlns="http://www.w3.org/2000/svg" width="501" height="501" fill="none" viewBox="0 0 501 501">
  <g clip-path="url(#a)">
    <path fill="#fff" d="M0 0h501v501H0z"/>
    <path fill="#171E54" d="M500.723 1.45h-500v499.999h500v-500Z"/>
    <path fill="url(#b)" d="M250.727 550.289c165.044 0 298.839-133.795 298.839-298.839S415.771-47.389 250.727-47.389-48.111 86.406-48.111 251.45 85.683 550.289 250.727 550.289Z"/>
    <path fill="#3451A3" d="m274.198 55.165 31.356-30.151V-7.621a8.611 8.611 0 1 0-2.905 0v31.386L271.293 53.93v68.668h-2.571v39.49h8.046v-39.49h-2.57V55.165Zm24.196-71.282a5.725 5.725 0 0 1 3.536-5.288 5.722 5.722 0 1 1 2.172 11.01 5.712 5.712 0 0 1-5.278-3.534 5.706 5.706 0 0 1-.43-2.188ZM231.309 53.93l-31.415-30.165V-7.621a8.625 8.625 0 0 0 4.385-14.857A8.627 8.627 0 1 0 196.99-7.62v32.635l31.356 30.15v67.434h-2.57v39.49h8.046v-39.49h-2.571l.058-68.668Zm-38.531-70.047a5.724 5.724 0 0 1 6.86-5.608 5.722 5.722 0 0 1-1.196 11.33 5.708 5.708 0 0 1-5.664-5.722ZM251.294-56a8.611 8.611 0 0 0-6.843 13.899 8.616 8.616 0 0 0 5.39 3.21v161.488h-2.57v39.49h8.046v-39.49h-2.571V-38.891A8.613 8.613 0 0 0 251.294-56Zm0 14.335a5.722 5.722 0 1 1 0-11.444 5.722 5.722 0 0 1 0 11.444Zm82.726 86.11a8.615 8.615 0 0 0-7.68 4.683 8.614 8.614 0 0 0 .68 8.969l-34.16 33.404v31.081h-2.701v39.49h8.046v-39.475h-2.454V92.736l33.404-32.606a8.483 8.483 0 0 0 4.924 1.554 8.625 8.625 0 0 0 8.289-12.002 8.61 8.61 0 0 0-4.881-4.686 8.625 8.625 0 0 0-3.408-.551h-.059Zm0 14.335a5.72 5.72 0 0 1-5.611-6.844 5.727 5.727 0 0 1 4.504-4.493 5.72 5.72 0 0 1 6.83 5.629 5.726 5.726 0 0 1-5.723 5.708ZM209.872 91.516l-34.174-33.404a8.525 8.525 0 0 0 1.641-5.025 8.625 8.625 0 0 0-17.087-1.703 8.632 8.632 0 0 0 3.666 8.86 8.625 8.625 0 0 0 4.794 1.455 8.484 8.484 0 0 0 4.924-1.554l33.404 32.606v29.861h-2.643v39.489h8.046v-39.504h-2.571v-31.08Zm-41.16-32.736a5.72 5.72 0 0 1-5.611-6.844 5.72 5.72 0 0 1 7.811-4.16 5.723 5.723 0 0 1-2.2 11.004Z"/>
    <path fill="#22DAF9" d="M204.382 122.584v39.49h8.046v-39.49h-8.046Zm21.452 0v39.49h8.046v-39.49h-8.046Zm21.437 0v39.49h8.046v-39.49h-8.046Zm21.437.014v39.49h8.046v-39.49h-8.046Zm21.451-.014v39.49h8.046v-39.49h-8.046Z"/>
    <path fill="#3451A3" d="M121.597 212.527h39.49v-8.046h-39.49v2.571h-29.86L59.13 173.648a8.715 8.715 0 1 0-2.033 2.062l33.404 34.174h31.081l.014 2.643Zm-63.816-43.73a5.72 5.72 0 0 1-3.536 5.288 5.72 5.72 0 0 1-6.238-1.247 5.724 5.724 0 0 1 4.066-9.764 5.723 5.723 0 0 1 5.708 5.723Zm63.817 65.226h39.489v-8.046h-39.489v2.57H54.164l-30.166-31.414h-32.62a8.611 8.611 0 0 0-14.832-4.374 8.61 8.61 0 0 0 5.614 14.408 8.617 8.617 0 0 0 9.218-7.129h31.328l30.166 31.356h68.667l.059 2.629Zm-132.994-35.438a5.721 5.721 0 0 1-9.768 4.046 5.718 5.718 0 0 1-1.24-6.236 5.727 5.727 0 0 1 5.286-3.532 5.723 5.723 0 0 1 5.722 5.722Zm-14.349 105.601a8.625 8.625 0 0 0 7.898 8.553 8.628 8.628 0 0 0 9.225-7.101h32.62l30.166-31.356h67.434v2.57h39.489v-7.973h-39.489v2.571H52.93l-30.224 31.284H-8.622a8.627 8.627 0 0 0-17.123 1.452Zm2.905 0a5.721 5.721 0 0 1 11.335-1.116 5.722 5.722 0 1 1-11.335 1.116ZM-57 251.451a8.61 8.61 0 0 0 7.884 8.624 8.614 8.614 0 0 0 9.225-7.172h161.488v2.571h39.49v-8.047h-39.49v2.571H-39.891A8.613 8.613 0 0 0-57 251.451Zm2.905 0a5.721 5.721 0 1 1 5.708 5.722 5.703 5.703 0 0 1-5.278-3.534 5.708 5.708 0 0 1-.43-2.188Zm97.541 82.655a8.626 8.626 0 1 0 15.685-4.924l32.606-33.332h29.86v2.44h39.49v-8.046h-39.49v2.702h-31.08l-33.405 34.159a8.612 8.612 0 0 0-13.652 7.001h-.014Zm2.904 0a5.724 5.724 0 0 1 6.84-5.613 5.726 5.726 0 0 1 4.495 4.496 5.72 5.72 0 0 1-9.654 5.159 5.738 5.738 0 0 1-1.68-4.042Z"/>
    <path fill="#22DAF9" d="M160.971 204.48h-39.49v8.047h39.49v-8.047Zm0 21.438h-39.49v8.046h39.49v-8.046Zm0 21.436h-39.49v8.046h39.49v-8.046Zm0 21.455h-39.49v8.046h39.49v-8.046Zm0 21.435h-39.49v8.046h39.49v-8.046Z"/>
    <path fill="#3451A3" d="M379.857 209.957h31.081l33.404-34.174a8.526 8.526 0 0 0 5.025 1.641 8.714 8.714 0 1 0-7.058-3.703l-32.606 33.404h-29.846v-2.571h-39.49v8.047h39.49v-2.644Zm69.525-46.882a5.722 5.722 0 1 1-5.708 5.722 5.739 5.739 0 0 1 5.708-5.722Zm-69.525 68.318h68.668l30.224-31.357h31.385a8.628 8.628 0 1 0 0-2.904h-32.678l-30.166 31.356h-67.433v-2.57h-39.49v8.104h39.49v-2.629Zm138.716-38.531a5.721 5.721 0 1 1-5.723 5.722 5.739 5.739 0 0 1 5.723-5.722Zm0 102.711a8.629 8.629 0 0 0-8.497 7.161h-31.327l-30.166-31.357h-68.726v-2.498h-39.49v8.046h39.49v-2.571h67.433l30.166 31.357h32.62a8.63 8.63 0 0 0 11.068 6.8 8.624 8.624 0 0 0 5.99-7.095 8.628 8.628 0 0 0-8.561-9.77v-.073Zm0 14.335a5.722 5.722 0 1 1 5.722-5.722 5.739 5.739 0 0 1-5.722 5.722Zm31.342-67.172a8.714 8.714 0 0 0-8.569 7.262H379.857v-2.571h-39.49v8.047h39.49v-2.571h161.489a8.613 8.613 0 0 0 15.056 3.996 8.612 8.612 0 0 0-6.487-14.163Zm0 14.335a5.717 5.717 0 0 1-5.297-3.522 5.72 5.72 0 1 1 11.004-2.2 5.738 5.738 0 0 1-5.707 5.751v-.029Zm-100.533 68.451a8.608 8.608 0 0 0-5.025 1.626l-33.405-34.159h-31.08v-2.702h-39.505v8.046h39.49v-2.44h29.861l32.605 33.332a8.617 8.617 0 0 0 .623 10.612 8.611 8.611 0 1 0 6.436-14.315Zm0 14.349a5.727 5.727 0 0 1-5.287-3.533 5.72 5.72 0 0 1 1.241-6.236 5.721 5.721 0 0 1 9.768 4.047 5.72 5.72 0 0 1-5.722 5.678v.044Z"/>
    <path fill="#22DAF9" d="M379.857 204.48h-39.49v8.047h39.49v-8.047Zm0 21.438h-39.49v8.046h39.49v-8.046Zm0 21.436h-39.49v8.046h39.49v-8.046Zm0 21.455h-39.49v8.046h39.49v-8.046Zm0 21.435h-39.49v8.046h39.49v-8.046Z"/>
    <path fill="#3451A3" d="M274.198 380.306h2.57v-39.49h-8.046v39.49h2.571v68.668l31.356 30.166v31.385a8.626 8.626 0 0 0-7.143 9.233 8.625 8.625 0 0 0 8.596 7.898 8.625 8.625 0 0 0 6.823-13.906 8.628 8.628 0 0 0-5.371-3.225v-32.634l-31.356-30.151v-67.434Zm29.904 132.993a5.723 5.723 0 1 1-5.708 5.723 5.739 5.739 0 0 1 5.708-5.723Zm-72.793-132.993h2.571v-39.49h-8.046v39.49h2.57v67.434l-31.414 30.151v32.634a8.617 8.617 0 0 0-7.13 9.218 8.611 8.611 0 0 0 8.582 7.884 8.613 8.613 0 0 0 1.453-17.102V479.14l31.414-30.166v-68.668Zm-32.867 132.993a5.72 5.72 0 0 1 5.287 3.533 5.72 5.72 0 0 1-4.17 7.802 5.724 5.724 0 0 1-5.163-9.659 5.721 5.721 0 0 1 4.046-1.676Zm61.479 36.992a8.625 8.625 0 0 0-7.175-8.496V380.306h2.571v-39.49h-8.046v39.49h2.57v161.489a8.607 8.607 0 0 0-6.846 6.234 8.615 8.615 0 0 0 7.172 10.789 8.614 8.614 0 0 0 9.754-8.527Zm-2.905 0a5.727 5.727 0 0 1-3.532 5.287 5.724 5.724 0 0 1-7.477-7.477 5.72 5.72 0 0 1 9.333-1.856 5.721 5.721 0 0 1 1.676 4.046Zm85.632-100.46a8.719 8.719 0 0 0-8.628-8.613 8.484 8.484 0 0 0-4.923 1.554l-33.346-32.605v-29.861h2.44v-39.49h-8.046v39.49h2.701v31.081l34.16 33.404a8.623 8.623 0 0 0-1.195 7.737 8.63 8.63 0 0 0 5.554 5.518 8.628 8.628 0 0 0 11.268-8.23l.015.015Zm-2.905 0a5.715 5.715 0 0 1-.958 3.183 5.716 5.716 0 0 1-5.872 2.446 5.729 5.729 0 0 1-4.504-4.493 5.727 5.727 0 0 1 2.431-5.878 5.716 5.716 0 0 1 3.18-.966 5.737 5.737 0 0 1 5.723 5.708Zm-129.871-69.525h2.571v-39.49h-8.046v39.49h2.571v29.861l-33.405 32.605a8.484 8.484 0 0 0-4.923-1.554 8.633 8.633 0 0 0-7.972 5.329 8.626 8.626 0 0 0 15.152 8.081 8.629 8.629 0 0 0 1.447-4.797 8.524 8.524 0 0 0-1.642-5.025l34.175-33.405.072-31.095Zm-35.437 69.525a5.73 5.73 0 0 1-3.523 5.297 5.725 5.725 0 0 1-6.241-1.231 5.72 5.72 0 0 1 .861-8.808 5.716 5.716 0 0 1 3.18-.966 5.739 5.739 0 0 1 5.723 5.708Z"/>
    <path fill="#22DAF9" d="M204.397 340.83v39.49h8.046v-39.49h-8.046Zm21.451-.015v39.49h8.046v-39.49h-8.046Zm21.437 0v39.49h8.046v-39.49h-8.046Zm21.437.015v39.49h8.046v-39.49h-8.046Zm21.452-.015v39.49h8.046v-39.49h-8.046Zm77.251-175.881a29.393 29.393 0 0 1-28.836-35.104 29.391 29.391 0 0 1 23.057-23.114 29.394 29.394 0 0 1 35.175 28.75 29.415 29.415 0 0 1-18.132 27.22 29.424 29.424 0 0 1-11.264 2.248Zm20.856-28.219h-5.81c-.348 0-.45.087-.464.45a54.248 54.248 0 0 1-1.453 11.532c-.087.363 0 .45.363.436h9.731a.626.626 0 0 0 .654-.393 28.764 28.764 0 0 0 1.757-3.848 27.965 27.965 0 0 0 1.583-7.64c0-.45-.116-.537-.537-.537h-5.824Zm-41.698 0h-5.707c-.639 0-.625-.116-.581.61a26.99 26.99 0 0 0 3.384 11.517c.145.276.348.276.581.276h9.73c.436 0 .451-.16.364-.494a54.218 54.218 0 0 1-1.453-11.444c0-.392-.116-.494-.508-.494l-5.81.029Zm41.698-2.222h5.809c.392 0 .494-.087.48-.494a27.6 27.6 0 0 0-2.76-10.457.51.51 0 0 0-.523-.305h-10.166c-.407 0-.436.145-.363.479a57.802 57.802 0 0 1 1.176 10.341c0 .378.131.436.465.436 1.946-.073 3.936-.058 5.896-.058l-.014.058Zm-41.712 0h5.896c.276 0 .422 0 .422-.378a57.232 57.232 0 0 1 1.205-10.428c.073-.334 0-.45-.363-.45h-9.252c-1.045 0-1.612.29-1.844 1.278v.087a26.658 26.658 0 0 0-2.309 9.47c0 .392.116.464.479.45 1.903-.102 3.834-.087 5.78-.087l-.014.058Zm21.96 8.438v5.563c0 .624 0 .624.595.624h8.409c.421 0 .596-.116.697-.537a51.468 51.468 0 0 0 1.453-10.733c0-.363.203-.843 0-1.075-.204-.232-.726 0-1.104 0h-9.571c-.421 0-.465.131-.465.465.015 1.786 0 3.703 0 5.635l-.014.058Zm-2.208 0v-5.809c0-.233 0-.378-.305-.378h-10.588c-.261 0-.334.087-.334.363a52.588 52.588 0 0 0 1.54 11.619c.087.378.232.508.624.508h8.598c.378 0 .465-.116.465-.479 0-2.091.015-4.009.015-5.926l-.015.102Zm0-13.957v-5.243c0-.291 0-.45-.407-.45h-9.062c-.305 0-.422.101-.48.377a54.283 54.283 0 0 0-1.278 10.472c0 .319.073.421.392.406h10.385c.348 0 .465-.072.45-.464-.014-1.801 0-3.501 0-5.2v.102Zm7.828 5.562h5.156c.363 0 .465-.087.465-.464a54.115 54.115 0 0 0-1.235-10.428.436.436 0 0 0-.508-.407h-8.976c-.334 0-.464 0-.464.45v10.385c0 .334 0 .435.406.421 1.685-.073 3.428-.058 5.185-.058l-.029.101Zm-13.347-25.169a26.94 26.94 0 0 0-16.31 11.691h9.92c.319 0 .392-.159.45-.406a33.178 33.178 0 0 1 1.336-3.878 23.788 23.788 0 0 1 3.805-6.536l.799-.871Zm29.469 11.749v-.145a27.381 27.381 0 0 0-16.194-11.851.766.766 0 0 0 .276.421 19.993 19.993 0 0 1 3.021 4.357 30.692 30.692 0 0 1 2.57 6.507.64.64 0 0 0 .77.581h5.083l4.474.13Zm-23.95-6.245v-5.519c0-.842 0-.857-.799-.552a9.514 9.514 0 0 0-4.095 3.225 26.803 26.803 0 0 0-4.256 8.714c-.116.348 0 .348.305.348h8.438c.334 0 .422-.101.422-.421-.015-2.019 0-3.965-.015-5.896v.101Zm2.222 0v5.81c0 .305.073.406.392.406h8.497c.319 0 .377-.087.276-.377-.32-.843-.567-1.699-.886-2.527a22.36 22.36 0 0 0-3.864-6.768 8.82 8.82 0 0 0-3.936-2.745c-.377-.116-.479 0-.479.348.015 1.859 0 3.791 0 5.723v.13Zm-23.238 36.498a25.632 25.632 0 0 0 5.65 5.882 26.538 26.538 0 0 0 9.891 4.779 1.454 1.454 0 0 0-.349-.48 17.678 17.678 0 0 1-2.179-2.904 28.338 28.338 0 0 1-3.035-6.885.482.482 0 0 0-.373-.404.465.465 0 0 0-.193-.002h-7.262l-2.15.014Zm28.714 10.704a27.597 27.597 0 0 0 15.598-10.834h-9.484c-.276 0-.378.101-.45.363a36.27 36.27 0 0 1-1.177 3.18 25.272 25.272 0 0 1-2.904 5.258c-.509.639-1.046 1.205-1.627 1.902l.044.131Zm-7.654-4.996v-5.243c0-.232 0-.45-.349-.45h-8.177c-.29 0-.348.087-.247.348.247.639.451 1.278.712 1.903a20.146 20.146 0 0 0 4.357 6.913 7.976 7.976 0 0 0 3.326 2.077c.349.102.436 0 .436-.319-.102-1.859-.102-3.602-.102-5.36l.044.131Zm2.222 0v5.243c0 .421.116.465.479.349a8.573 8.573 0 0 0 3.907-2.716 23.68 23.68 0 0 0 4.357-8.075c.131-.378 0-.451-.32-.451h-7.988c-.363 0-.435.117-.435.465a273.948 273.948 0 0 0-.044 5.011l.044.174Z"/>
    <path fill="#000" d="m389.602 85.475 27.813 27.828v44.486l-27.813 27.813h-44.471l-27.827-27.813v-44.486l27.827-27.828h44.486-.015Zm2.426-5.809h-49.322l-1.7 1.714-27.827 27.813-1.714 1.699V160.2l1.714 1.699 27.813 27.813 1.699 1.699h49.308l1.699-1.699 27.813-27.813 1.699-1.699v-49.308l-1.699-1.699-27.798-27.813-1.7-1.714h.015Z" opacity=".15" style="mix-blend-mode:multiply"/>
    <path stroke="#22DAF9" stroke-miterlimit="10" stroke-width="2" d="M389.603 85.49h-44.486l-27.828 27.813v44.486l27.828 27.827h44.486l27.812-27.827v-44.486L389.603 85.49Z"/>
    <path stroke="#22DAF9" stroke-miterlimit="10" d="M386.248 93.041h-37.777l-23.615 23.615v37.777l23.615 23.615h37.777l23.615-23.615v-37.777l-23.615-23.615Z"/>
    <path fill="#fff" d="m402.532 98.263-7.939-7.939-72.299 72.299 7.938 7.939 72.3-72.3Zm-67.694 76.909 4.622 4.621 72.299-72.299-4.621-4.622-72.3 72.3Z" opacity=".15"/>
    <path fill="#000" d="m159.969 85.475 27.813 27.828v44.486l-27.813 27.813h-44.5l-27.813-27.813v-44.486l27.813-27.828h44.5Zm2.396-5.809h-49.293l-1.699 1.714-27.828 27.813-1.699 1.699V160.2l1.7 1.699 27.827 27.813 1.699 1.699h49.293l1.714-1.699 27.813-27.813 1.699-1.699v-49.308l-1.699-1.699-27.813-27.813-1.714-1.714Z" opacity=".15" style="mix-blend-mode:multiply"/>
    <path stroke="#22DAF9" stroke-miterlimit="10" stroke-width="2" d="M159.969 85.49h-44.501l-27.812 27.813v44.486l27.812 27.827h44.501l27.813-27.827v-44.486L159.969 85.49Z"/>
    <path stroke="#22DAF9" stroke-miterlimit="10" d="M156.614 93.041h-37.776l-23.615 23.615v37.777l23.615 23.615h37.776l23.615-23.615v-37.777l-23.615-23.615Z"/>
    <path stroke="#22DAF9" stroke-miterlimit="10" d="M146.288 153.707v8.714a4.607 4.607 0 0 1-4.503 4.59h-7.261a4.701 4.701 0 0 1-2.208-.61 4.64 4.64 0 0 1-2.28-3.602v-8.758a25.45 25.45 0 0 0 7.349.959h.784a27.26 27.26 0 0 0 8.119-1.293Z"/>
    <path stroke="#22DAF9" stroke-miterlimit="10" stroke-width=".75" d="M141.234 166.953v1.06a3.08 3.08 0 0 1-6.144 0v-1.06h6.144Z"/>
    <path fill="#22DAF9" stroke="#22DAF9" stroke-miterlimit="10" stroke-width=".5" d="M134.785 100.013v.755a5.43 5.43 0 0 1 2.614.509v52.924a21.512 21.512 0 0 1-8.917-1.641c-3.501-1.685-5.345-4.662-5.65-9.136v-.639h-.639a13.301 13.301 0 0 1-7.262-2.483 10.95 10.95 0 0 1-3.834-6.608 9.86 9.86 0 0 1 .784-6.26v-.087l.262-.509a11.332 11.332 0 0 1 5.039-4.807l.625-.334-.291-.639c-1.452-3.108-1.234-5.635.465-7.959a6.917 6.917 0 0 1 5.969-2.905c.486.002.971.036 1.453.102l.915.102-.073-.915a7.624 7.624 0 0 1 1.801-6.057 9.418 9.418 0 0 1 6.71-2.658v-.755h.029Zm3.326 1.351v-.45a1.27 1.27 0 0 0-.407-.305 6.123 6.123 0 0 0-2.905-.596c-4.008 0-9.847 2.339-9.266 9.528a14.675 14.675 0 0 0-1.583-.087 7.632 7.632 0 0 0-6.579 3.166 8.173 8.173 0 0 0-.537 8.714 12.13 12.13 0 0 0-5.36 5.127l-.305.624a11.044 11.044 0 0 0-1.045 4.619c.001.707.074 1.413.218 2.106a11.617 11.617 0 0 0 4.095 7.058 14.02 14.02 0 0 0 7.654 2.629c.45 6.39 3.951 9.237 7.959 10.501 2.39.676 4.866.999 7.349.958h.755v-2.585c.015-13.478.015-38.647-.014-51.007h-.029Z"/>
    <path fill="#22DAF9" stroke="#22DAF9" stroke-miterlimit="10" stroke-width=".5" d="M157.369 108.568a27.008 27.008 0 0 0-19.2-7.959h-.726v54.333h.784a27.136 27.136 0 0 0 19.213-7.946 27.135 27.135 0 0 0 7.946-19.213 26.935 26.935 0 0 0-8.017-19.215Zm-11.081 44.356a26.364 26.364 0 0 1-8.119 1.278v-52.837a26.414 26.414 0 0 1 26.098 22.309 26.422 26.422 0 0 1-17.979 29.25Z"/>
    <path stroke="#22DAF9" stroke-miterlimit="10" stroke-width=".75" d="M146.288 153.693v4.27l-16.223 4.779a2.98 2.98 0 0 1 0-.378v-3.863l16.223-4.808Zm0 8.539-13.943 4.111"/>
    <path fill="#22DAF9" stroke="#22DAF9" stroke-miterlimit="10" stroke-width=".5" d="M125.054 128.522a.348.348 0 0 1-.363-.32c-.871-5.969-7.189-6.318-7.465-6.318a.376.376 0 0 1-.349-.392.364.364 0 0 1 .378-.363c.073 0 7.262.378 8.162 6.972a.363.363 0 0 1-.305.421h-.058Zm7.436-12.678a7.063 7.063 0 0 1-6.928-6.856.383.383 0 0 1 .079-.313.38.38 0 0 1 .292-.138.371.371 0 0 1 .292.138.39.39 0 0 1 .078.313 6.258 6.258 0 0 0 6.245 6.115.37.37 0 0 1 .258.121c.033.037.058.08.073.127a.351.351 0 0 1 .018.144.365.365 0 0 1-.407.349Z"/>
    <path fill="#22DAF9" stroke="#22DAF9" stroke-miterlimit="10" stroke-width=".25" d="M122.759 145.952a.38.38 0 0 1-.348-.276 9.869 9.869 0 0 1 .741-6.826 7.016 7.016 0 0 1 4.531-3.224.366.366 0 0 1 .459.404.366.366 0 0 1-.27.307 6.359 6.359 0 0 0-4.067 2.905 9.37 9.37 0 0 0-.682 6.274.369.369 0 0 1-.132.388.34.34 0 0 1-.13.062l-.102-.014Z"/>
    <path fill="#22DAF9" stroke="#22DAF9" stroke-miterlimit="10" stroke-width=".5" d="M130.646 130.469a.38.38 0 0 1-.32-.422 10.573 10.573 0 0 0-4.56-10.95.367.367 0 0 1-.194-.37.367.367 0 0 1 .276-.307.382.382 0 0 1 .281.037 11.466 11.466 0 0 1 4.938 11.619.378.378 0 0 1-.26.376.383.383 0 0 1-.161.017Zm-2.266 15.714a.345.345 0 0 1-.17-.035.353.353 0 0 1-.135-.11.379.379 0 0 1 0-.523 7.265 7.265 0 0 0 3.079-7.436.372.372 0 0 1 .254-.457.37.37 0 0 1 .458.254 8.035 8.035 0 0 1-3.341 8.235.325.325 0 0 1-.145.072Z"/>
    <path fill="#22DAF9" stroke="#22DAF9" stroke-miterlimit="10" stroke-width=".25" d="M117.458 136.713a.352.352 0 0 1-.305-.174 8.021 8.021 0 0 1 .639-8.86.38.38 0 0 1 .627.004.353.353 0 0 1 .047.285.373.373 0 0 1-.064.133 7.257 7.257 0 0 0-.639 8.031.378.378 0 0 1-.101.523.485.485 0 0 1-.204.058Z"/>
    <path fill="#22DAF9" stroke="#22DAF9" stroke-miterlimit="10" stroke-width=".5" d="M141.321 154.142c0-.189-.189-17.109 0-24.007h-3.341v-.683h3.341v-.639c.13-3.341 1.263-4.473 2.352-5.141a2.685 2.685 0 0 1 3.355.174 2.761 2.761 0 0 1 .233 3.456 6.994 6.994 0 0 1-5.229 2.905c-.159 6.826 0 23.863 0 24.037l-.711-.102Zm4.008-30.282c-.449.014-.885.15-1.263.392-.915.567-1.874 1.54-2.005 4.532v.537a6.294 6.294 0 0 0 4.575-2.454 2.033 2.033 0 0 0-.116-2.542 1.702 1.702 0 0 0-1.191-.407v-.058Z"/>
    <path stroke="#22DAF9" stroke-linecap="round" stroke-linejoin="round" stroke-width=".75" d="M157.645 118.341a17.652 17.652 0 0 0-3.747-5.49 17.841 17.841 0 0 0-4.706-3.384m9.906 15.963a18.725 18.725 0 0 0-.378-3.733"/>
    <path fill="#fff" d="m172.897 98.259-7.938-7.939-72.3 72.3 7.939 7.938 72.299-72.3Zm-67.691 76.893 4.621 4.621 72.3-72.299-4.622-4.621-72.299 72.299Z" opacity=".15"/>
    <path stroke="#22DAF9" stroke-miterlimit="10" d="m388.833 362.078-1.162 4.139 3.558 3.631-2.164 3.674-4.72-1.234-3.094 3.093 1.453 4.735-3.965 2.338-3.108-3.195a.23.23 0 0 0-.248-.047.233.233 0 0 0-.144.207l-.117 3.805a9.39 9.39 0 0 1-7.334 1.844v-53.185h2.033l1.336 5.272 3.864 1.234 3.732-3.863 3.965 2.455-1.452 4.851 3.035 2.904 4.662-1.35 2.397 4.269-3.5 3.21.929 4.139 4.909 1.162v4.503l-4.865 1.409Z"/>
    <path stroke="#22DAF9" stroke-miterlimit="10" d="M379.436 358.448a11.618 11.618 0 0 1-11.619 11.619v-23.282a11.607 11.607 0 0 1 8.231 3.419 11.62 11.62 0 0 1 3.388 8.244Zm-11.663 24.703v1.917a26.14 26.14 0 0 1-3.558-.232c-.973-.131-2.905-.552-2.905-.552s-1.365-.392-2.469-.755a9.7 9.7 0 0 1-.856-.305 26.562 26.562 0 0 1-7.184-45.162 26.567 26.567 0 0 1 16.929-6.107c.029 12.127.014 38.008.043 51.196Z"/>
    <path stroke="#22DAF9" stroke-miterlimit="10" d="M375.195 383.15v10.065a4.584 4.584 0 0 1-1.349 3.251 4.608 4.608 0 0 1-1.494.994 4.605 4.605 0 0 1-1.761.345h-7.117a4.517 4.517 0 0 1-2.294-.61 4.583 4.583 0 0 1-2.295-3.617 3.14 3.14 0 0 1 0-.363v-9.76c1.104.364 2.469.756 2.469.756s1.888.421 2.905.552a26.13 26.13 0 0 0 3.558.232v-1.845 1.918a9.384 9.384 0 0 0 7.349-1.816l.029-.102Z"/>
    <path stroke="#22DAF9" stroke-miterlimit="10" d="M367.033 402.715a3.645 3.645 0 0 1-3.646-3.646v-2.381h7.262v2.439a3.647 3.647 0 0 1-3.616 3.588Zm8.162-18.225v4.357l-16.31 4.808a3.405 3.405 0 0 1 0-.378v-3.907l16.31-4.88Z"/>
    <path stroke="#22DAF9" stroke-miterlimit="10" d="M375.195 388.787v4.285l-14.015 4.139a4.64 4.64 0 0 1-2.295-3.617l16.31-4.807Zm-7.959-28.277h-2.905c-4.575 0-8.307-3.195-5.272-5.504 1.932-1.453 4.357.261 4.357 4.502v25.562"/>
    <path fill="#000" d="m389.472 317.245 27.827 27.813v44.5l-27.827 27.813h-44.486l-27.813-27.813v-44.5l27.813-27.813h44.486Zm2.411-5.809h-49.308l-1.699 1.699-27.813 27.813-1.699 1.713v49.294l1.699 1.699 27.813 27.827 1.699 1.7h49.308l1.699-1.7 27.827-27.827 1.7-1.699v-49.294l-1.7-1.713-27.827-27.813-1.699-1.699Z" opacity=".15" style="mix-blend-mode:multiply"/>
    <path stroke="#22DAF9" stroke-miterlimit="10" stroke-width="2" d="M389.472 317.244h-44.486l-27.813 27.813v44.5l27.813 27.813h44.486l27.827-27.813v-44.5l-27.827-27.813Z"/>
    <path stroke="#22DAF9" stroke-miterlimit="10" d="M386.117 324.809h-37.776l-23.616 23.615v37.761l23.616 23.631h37.776l23.615-23.631v-37.761l-23.615-23.615Z"/>
    <path fill="#fff" d="m402.406 330.034-7.939-7.938-72.299 72.299 7.939 7.938 72.299-72.299Zm-67.699 76.891 4.622 4.622 72.299-72.299-4.622-4.622-72.299 72.299Z" opacity=".15"/>
    <path stroke="#22DAF9" stroke-miterlimit="10" stroke-width="1.25" d="M174.769 374.901a10.936 10.936 0 0 1-10.937 10.936h-16.644v-6.956a1.19 1.19 0 0 1 1.177-1.191h3.877a1.175 1.175 0 0 0 1.169-1.371 1.18 1.18 0 0 0-.297-.605l-14.219-15.337a1.181 1.181 0 0 0-1.336-.279c-.148.065-.282.16-.392.279l-14.161 15.352a1.17 1.17 0 0 0-.215 1.267c.09.209.24.388.431.513.19.126.413.194.641.195h3.893a1.19 1.19 0 0 1 1.176 1.191v6.957H117.11a16.46 16.46 0 0 1-15.832-11.79 16.46 16.46 0 0 1 6.876-18.504 16.462 16.462 0 0 1 13.545-1.949 13.597 13.597 0 0 1-.276-2.788 13.844 13.844 0 0 1 13.393-13.263 13.838 13.838 0 0 1 14.202 12.391 14.328 14.328 0 0 1 2.905-.319 13.843 13.843 0 0 1 9.797 4.058 13.862 13.862 0 0 1 4.058 9.798v.682a10.931 10.931 0 0 1 8.991 10.733Z"/>
    <path stroke="#22DAF9" stroke-miterlimit="10" stroke-width="1.25" d="M152.242 377.661h-3.877a1.19 1.19 0 0 0-1.177 1.191v17.646a1.191 1.191 0 0 1-1.191 1.191h-15.816a1.191 1.191 0 0 1-1.176-1.191v-17.646a1.193 1.193 0 0 0-1.177-1.191h-3.892a1.183 1.183 0 0 1-.642-.194 1.183 1.183 0 0 1-.215-1.781l14.146-15.308a1.175 1.175 0 0 1 1.336-.279c.149.065.282.16.392.279l14.161 15.352a1.183 1.183 0 0 1 .171 1.239 1.175 1.175 0 0 1-1.043.692Z"/>
    <path fill="#000" d="m159.969 317.245 27.813 27.813v44.5l-27.813 27.813h-44.5l-27.813-27.813v-44.5l27.813-27.813h44.5Zm2.396-5.809h-49.293l-1.699 1.699-27.828 27.813-1.699 1.713v49.294l1.7 1.699 27.827 27.827 1.699 1.7h49.293l1.714-1.7 27.813-27.827 1.699-1.699v-49.294l-1.699-1.713-27.813-27.813-1.714-1.699Z" opacity=".15" style="mix-blend-mode:multiply"/>
    <path stroke="#22DAF9" stroke-miterlimit="10" stroke-width="2" d="M159.969 317.244h-44.501l-27.812 27.813v44.5l27.812 27.813h44.501l27.813-27.813v-44.5l-27.813-27.813Z"/>
    <path stroke="#22DAF9" stroke-miterlimit="10" d="M156.614 324.809h-37.776l-23.615 23.615v37.761l23.615 23.631h37.776l23.615-23.631v-37.761l-23.615-23.615Z"/>
    <path fill="#fff" d="m172.883 330.028-7.939-7.938-72.3 72.299 7.939 7.939 72.3-72.3Zm-67.687 76.892 4.621 4.621 72.3-72.299-4.622-4.622-72.299 72.3Z" opacity=".15"/>
    <path fill="#000" d="m299.135 171.164 32.504 32.504v95.565l-32.504 32.504h-95.551l-32.504-32.504v-95.565l32.504-32.504h95.551Zm1.815-4.357h-99.167l-1.278 1.278-32.562 32.533-1.279 1.278v99.167l1.279 1.278 32.503 32.504 1.279 1.278h99.167l1.264-1.278 32.562-32.562 1.278-1.278v-99.138l-1.278-1.278-32.504-32.504-1.264-1.278Z" opacity=".15" style="mix-blend-mode:multiply"/>
    <path fill="#22DAF9" d="m296.738 176.974 29.048 29.047v90.744l-29.048 29.047h-90.744l-29.047-29.047v-90.686l29.047-29.047h90.744v-.058Zm2.397-5.752h-95.551l-32.504 32.446v95.566l32.504 32.504h95.551l32.504-32.504v-95.566l-32.504-32.504v.058Z"/>
    <path fill="#22DAF9" d="M199.255 194.809a3.527 3.527 0 0 0-3.477 4.208 3.523 3.523 0 0 0 2.769 2.781 3.521 3.521 0 0 0 3.627-1.498 3.526 3.526 0 0 0 .596-1.962 3.51 3.51 0 0 0-3.515-3.529Zm104.208 0a3.527 3.527 0 0 0-2.515 6.019 3.52 3.52 0 0 0 1.806.97 3.533 3.533 0 0 0 4.223-3.46 3.529 3.529 0 0 0-3.514-3.529ZM199.255 301.063a3.534 3.534 0 0 0-3.272 2.171 3.529 3.529 0 1 0 6.787 1.343 3.53 3.53 0 0 0-.267-1.345 3.526 3.526 0 0 0-1.902-1.902 3.513 3.513 0 0 0-1.346-.267Zm104.208 0a3.535 3.535 0 0 0-1.967.588 3.529 3.529 0 1 0 1.967-.588Z"/>
    <path fill="#fff" d="M231.27 227.2v46.48h-5.447l-25.328-36.494h-.454v36.494h-5.629V227.2h5.447l25.419 36.585h.454V227.2h5.538Zm11.262 46.48V227.2h27.87v4.993h-22.241v15.705h20.153v4.993h-20.153v20.789h-5.629Zm34.968-41.487V227.2h34.86v4.993h-14.616v41.487h-5.628v-41.487H277.5Z"/>
    <path fill="#fff" d="m311.874 188.724-13.946-13.947-124.162 124.162 13.947 13.946 124.161-124.161ZM195.809 320.963l8.123 8.123 124.162-124.162-8.124-8.123-124.161 124.162Z" opacity=".25"/>
    <path fill="#5BEDFC" d="m328.458 167.025 4.633 1.874 1.888 4.633-19.331 19.331-4.633-1.888-1.874-4.633 19.317-19.317Z"/>
    <path fill="url(#c)" d="m333.091 168.898 1.888 4.633-19.331 19.331-4.633-1.888"/>
    <path fill="#5BEDFC" d="m187.753 307.744 4.633 1.874 1.873 4.633-19.331 19.316-4.633-1.873-1.873-4.633 19.331-19.317Z"/>
    <path fill="url(#d)" d="m192.386 309.619 1.873 4.633-19.331 19.317-4.633-1.874"/>
    <path fill="#5BEDFC" d="m194.855 187.881-1.888 4.633-4.633 1.873-19.317-19.316 1.874-4.633 4.633-1.874 19.331 19.317Z"/>
    <path fill="url(#e)" d="m192.967 192.515-4.633 1.874-19.317-19.316 1.874-4.634"/>
    <path fill="#5BEDFC" d="m333.193 328.106-1.874 4.633-4.633 1.874-19.331-19.317 1.874-4.633 4.647-1.888 19.317 19.331Z"/>
    <path fill="url(#f)" d="m331.319 332.742-4.633 1.874-19.331-19.317 1.874-4.633"/>
  </g>
  <defs>
    <linearGradient id="c" x1="309.034" x2="335.177" y1="179.149" y2="174.231" gradientUnits="userSpaceOnUse">
      <stop offset=".83" stop-color="#29AFD9"/>
      <stop offset=".94" stop-color="#29AFD9"/>
    </linearGradient>
    <linearGradient id="d" x1="169.313" x2="195.456" y1="318.871" y2="313.953" gradientUnits="userSpaceOnUse">
      <stop offset=".83" stop-color="#29AFD9"/>
      <stop offset=".94" stop-color="#29AFD9"/>
    </linearGradient>
    <linearGradient id="e" x1="184.116" x2="189.034" y1="170.05" y2="196.193" gradientUnits="userSpaceOnUse">
      <stop offset=".83" stop-color="#29AFD9"/>
      <stop offset=".94" stop-color="#29AFD9"/>
    </linearGradient>
    <linearGradient id="f" x1="321.478" x2="326.399" y1="309.295" y2="335.453" gradientUnits="userSpaceOnUse">
      <stop offset=".83" stop-color="#29AFD9"/>
      <stop offset=".94" stop-color="#29AFD9"/>
    </linearGradient>
    <radialGradient id="b" cx="0" cy="0" r="1" gradientTransform="translate(250.727 251.45) scale(298.839)" gradientUnits="userSpaceOnUse">
      <stop stop-color="#1FADD1" stop-opacity=".92"/>
      <stop offset=".67" stop-color="#151C53" stop-opacity=".5"/>
      <stop offset="1" stop-color="#151C53" stop-opacity="0"/>
    </radialGradient>
    <clipPath id="a">
      <path fill="#fff" d="M0 0h501v501H0z"/>
    </clipPath>
  </defs>
</svg>
