<svg xmlns="http://www.w3.org/2000/svg" width="500" height="500" fill="none" viewBox="0 0 500 500">
    <g clip-path="url(#clip0_1509_9431)">
      <path fill="#3C5077" d="M496.382 404.84c0 .102-111.574.189-249.18.189C109.595 405.029-2 404.942-2 404.84c0-.102 111.551-.19 249.202-.19 137.65 0 249.18.08 249.18.19z"/>
      <path fill="#3C5077" d="M416.855 122.332H103.742a9.767 9.767 0 00-9.77 9.77v221.159a9.766 9.766 0 006.03 9.033 9.771 9.771 0 003.74.744h120.171s7.651 29.571-16.052 41.802h112.374s-26.762-15.106-19.882-41.802h116.48c2.593 0 5.08-1.03 6.913-2.864a9.774 9.774 0 002.864-6.913V132.102a9.767 9.767 0 00-9.755-9.77z"/>
      <path fill="#455A64" d="M264.506 339.778c4.259 6.086-2.409 12.755-8.495 8.496a2.27 2.27 0 01-.525-.524c-4.251-6.086 2.41-12.748 8.496-8.496.203.144.38.322.524.524z"/>
      <path fill="#FAFAFA" d="M422.351 126.395H99.36v196.181H422.35V126.395z"/>
      <path fill="#5F5AF6" d="M384.561 277.454h-9.486v13.06h9.486v-13.06z"/>
      <path fill="#fff" fill-opacity=".8" d="M384.561 277.454h-9.486v13.06h9.486v-13.06z" opacity=".79"/>
      <path fill="#5F5AF6" d="M364.534 269.767h-9.486v20.748h9.486v-20.748z"/>
      <path fill="#fff" fill-opacity=".8" d="M364.534 269.767h-9.486v20.748h9.486v-20.748z" opacity=".79"/>
      <path fill="#5F5AF6" d="M342.926 263.521h-9.485v26.652h9.485v-26.652z"/>
      <path fill="#fff" fill-opacity=".8" d="M342.926 263.521h-9.485v26.652h9.485v-26.652z" opacity=".79"/>
      <path fill="#5F5AF6" d="M142.559 272.161h-9.486v18.011h9.486v-18.011z"/>
      <path fill="#fff" fill-opacity=".8" d="M142.559 272.161h-9.486v18.011h9.486v-18.011z" opacity=".79"/>
      <path fill="#5F5AF6" d="M163.147 279.529h-9.486v10.644h9.486v-10.644z"/>
      <path fill="#fff" fill-opacity=".8" d="M163.147 279.529h-9.486v10.644h9.486v-10.644z" opacity=".79"/>
      <path fill="#5F5AF6" d="M182.279 266.083h-9.486v24.424h9.486v-24.424z"/>
      <path fill="#fff" fill-opacity=".8" d="M182.279 266.083h-9.486v24.424h9.486v-24.424z" opacity=".79"/>
      <path fill="#5F5AF6" d="M202.306 277.454h-9.486v12.718h9.486v-12.718z"/>
      <path fill="#fff" fill-opacity=".8" d="M202.306 277.454h-9.486v12.718h9.486v-12.718z" opacity=".79"/>
      <path fill="#5F5AF6" d="M221.998 266.083h-9.485v24.082h9.485v-24.082zM241.501 235.288h-9.485v54.884h9.485v-54.884zM261.827 212.764h-9.486v77.401h9.486v-77.401zM282.073 244.52h-9.486v45.645h9.486V244.52z"/>
      <path fill="#fff" fill-opacity=".8" d="M241.501 235.288h-9.485v54.884h9.485v-54.884zM282.073 244.52h-9.486v45.645h9.486V244.52z" opacity=".79"/>
      <path fill="#455A64" d="M321.749 236.999h-9.486v53.166h9.486v-53.166z"/>
      <path fill="#5F5AF6" d="M302.275 220.83h-9.486v69.342h9.486V220.83z"/>
      <path fill="#3C5077" d="M126.645 203.366h-1.456v-.728h3.778v.728h-1.456v3.771h-.83l-.036-3.771zM128.865 205.426a1.82 1.82 0 011.067-1.726 1.815 1.815 0 012.517 1.271 1.81 1.81 0 01-1.771 2.194 1.711 1.711 0 01-1.813-1.739zm2.825 0a1.012 1.012 0 10-1.012 1.062.986.986 0 001.012-1.062zM136.582 202.397v4.74h-.764v-.437a1.409 1.409 0 01-1.121.48 1.74 1.74 0 010-3.479 1.39 1.39 0 011.092.458v-1.747l.793-.015zm-.779 3.029a1.015 1.015 0 00-1.239-.935 1.016 1.016 0 00-.767.806 1.013 1.013 0 00.994 1.192 1.006 1.006 0 00.739-.31.999.999 0 00.273-.753zM140.477 205.127v2.009h-.728v-.415a1.202 1.202 0 01-1.07.459c-.779 0-1.267-.422-1.267-1.019s.379-1.012 1.412-1.012h.874v-.051c0-.459-.277-.728-.845-.728a1.667 1.667 0 00-1.026.335l-.313-.575a2.362 2.362 0 011.456-.423c.939-.021 1.507.445 1.507 1.42zm-.801.932v-.379h-.815c-.546 0-.692.204-.692.452 0 .247.248.473.648.473a.867.867 0 00.859-.546zM144.612 203.723l-1.587 3.676a1.317 1.317 0 01-1.31 1.005 1.393 1.393 0 01-.91-.313l.313-.583a.87.87 0 00.589.233c.277 0 .444-.131.597-.473l.058-.131-1.456-3.414h.83l1.071 2.519 1.07-2.519h.735z"/>
      <path fill="#E0E0E0" d="M125.939 305.519v2.271h-.233v-2.068h-.539v-.203h.772zM138.206 307.6v.211h-1.595v-.211l.947-.924c.254-.255.305-.408.305-.561 0-.262-.182-.429-.531-.429a.73.73 0 00-.619.254l-.167-.138a1.006 1.006 0 01.808-.328c.458 0 .728.233.728.612a.929.929 0 01-.371.728l-.772.728 1.267.058zM149.846 307.135c0 .378-.276.669-.822.669-.3.013-.592-.092-.816-.291l.11-.182a.981.981 0 00.728.262c.378 0 .582-.174.582-.458 0-.284-.189-.452-.612-.452h-.16v-.174l.626-.787h-1.157v-.203h1.456v.16l-.641.808c.466.029.706.284.706.648zM161.705 307.193h-.415v.597h-.211v-.597h-1.164v-.175l1.092-1.499h.24l-1.056 1.456h.896v-.525h.203v.525h.415v.218zM173.244 307.12c0 .386-.269.684-.822.684a1.17 1.17 0 01-.816-.291l.117-.182a.976.976 0 00.728.262c.386 0 .589-.189.589-.466 0-.276-.182-.473-.728-.473h-.487l.116-1.135h1.245v.203h-1.041l-.073.728h.291c.626 0 .881.262.881.67zM185.023 307.105a.732.732 0 01-.479.686.727.727 0 01-.292.042c-.605 0-.932-.415-.932-1.135 0-.721.422-1.172 1.034-1.172.187-.01.373.033.538.123l-.087.19a.796.796 0 00-.444-.11c-.488 0-.808.314-.808.932a1.841 1.841 0 000 .182.73.73 0 01.691-.386.693.693 0 01.533.152.69.69 0 01.246.496zm-.225 0c0-.298-.226-.487-.576-.487a.495.495 0 00-.557.275.502.502 0 00.557.707.49.49 0 00.398-.113.501.501 0 00.178-.374v-.008zM196.635 305.518v.16l-.947 2.111h-.254l.932-2.067h-1.165v.422h-.233v-.633l1.667.007z"/>
      <path fill="#3C5077" d="M125.939 216.462v2.271h-.233v-2.06h-.539v-.211h.772zM126.477 217.598c0-.728.386-1.151.91-1.151.525 0 .903.43.903 1.151 0 .72-.378 1.157-.903 1.157-.524 0-.91-.429-.91-1.157zm1.58 0c0-.605-.276-.94-.67-.94-.393 0-.669.335-.669.94 0 .604.269.946.669.946.401 0 .67-.335.67-.946zM128.596 218.573a.175.175 0 01.175-.175c.046 0 .09.019.123.052a.172.172 0 01.051.123.184.184 0 01-.05.126.183.183 0 01-.124.056.181.181 0 01-.175-.182zM129.244 217.598c0-.728.378-1.151.903-1.151.524 0 .91.43.91 1.151 0 .72-.379 1.157-.91 1.157-.532 0-.903-.429-.903-1.157zm1.572 0c0-.605-.269-.94-.669-.94-.401 0-.663.335-.663.94 0 .604.27.946.663.946s.669-.335.669-.946zM131.391 217.598c0-.728.379-1.151.903-1.151s.91.43.91 1.151c0 .72-.386 1.157-.91 1.157s-.903-.429-.903-1.157zm1.573 0c0-.605-.269-.94-.67-.94-.4 0-.662.335-.662.94 0 .604.269.946.662.946s.67-.335.67-.946zM133.539 217.598c0-.728.379-1.151.903-1.151s.91.43.91 1.151c0 .72-.386 1.157-.91 1.157s-.903-.429-.903-1.157zm1.573 0c0-.605-.27-.94-.67-.94-.401 0-.67.335-.67.94 0 .604.277.946.67.946s.67-.335.67-.946z"/>
      <path fill="#E0E0E0" d="M208.385 307.157c0 .4-.342.648-.888.648s-.874-.248-.874-.648a.574.574 0 01.437-.561.514.514 0 01-.357-.502c0-.364.313-.597.794-.597.48 0 .808.233.808.597a.51.51 0 01-.364.502.574.574 0 01.444.561zm-.24 0c0-.277-.241-.451-.648-.451-.408 0-.634.174-.634.451s.233.459.634.459c.4 0 .648-.182.648-.466v.007zm-.648-.641c.356 0 .567-.153.567-.4 0-.248-.225-.415-.567-.415-.343 0-.561.16-.561.408 0 .247.211.4.561.4v.007zM220.004 306.632c0 .772-.423 1.172-1.034 1.172a1.022 1.022 0 01-.539-.124l.088-.189a.81.81 0 00.444.109c.487 0 .808-.313.808-.932.003-.06.003-.121 0-.182a.729.729 0 01-.692.386.685.685 0 01-.764-.677.736.736 0 01.228-.531.733.733 0 01.543-.197c.59.029.918.444.918 1.165zm-.321-.451a.53.53 0 00-.597-.488.504.504 0 00-.515.29.501.501 0 00-.045.205c0 .298.226.488.575.488a.526.526 0 00.582-.495zM230.611 305.519v2.271h-.233v-2.068h-.539v-.203h.772zM231.149 306.655c0-.728.386-1.158.91-1.158s.903.43.903 1.158-.379 1.15-.903 1.15-.91-.43-.91-1.15zm1.573 0c0-.612-.27-.947-.663-.947s-.669.335-.669.947c0 .611.269.939.669.939.401 0 .663-.335.663-.939zM241.938 305.519v2.271h-.233v-2.068h-.495v-.203h.728zM243.125 305.519v2.271h-.233v-2.068h-.531v-.203h.764zM253.645 305.519v2.271h-.233v-2.068h-.554v-.203h.787zM255.77 307.6v.211h-1.594v-.211l.946-.924c.255-.255.299-.408.299-.561 0-.262-.182-.429-.532-.429a.768.768 0 00-.618.254l-.161-.138a.997.997 0 01.801-.328c.459 0 .728.233.728.612a.927.927 0 01-.371.728l-.772.728 1.274.058zM265.191 305.519v2.271h-.212v-2.068h-.473v-.203h.685zM267.054 307.135a.668.668 0 01-.728.669 1 1 0 01-.728-.291l.102-.182a.884.884 0 00.641.262c.342 0 .531-.174.531-.458 0-.284-.167-.452-.553-.452h-.153v-.174l.575-.787h-1.055v-.203h1.332v.16l-.59.808a.626.626 0 01.453.189.607.607 0 01.173.459zM277.006 305.519v2.271h-.233v-2.068h-.531v-.203h.764zM279.481 307.193h-.458v.597h-.233v-.597h-1.282v-.175l1.209-1.499h.255l-1.158 1.456h.983v-.525h.226v.525h.458v.218zM288.618 305.519v2.271h-.233v-2.068h-.532v-.203h.765zM290.714 307.12c0 .386-.269.684-.822.684-.3.013-.592-.092-.816-.291l.117-.182a.976.976 0 00.728.262c.386 0 .589-.189.589-.466 0-.276-.182-.473-.728-.473h-.524l.117-1.135h1.245v.203h-1.041l-.073.728h.291c.648 0 .917.262.917.67zM300.338 305.519v2.271h-.233v-2.068h-.538v-.203h.771zM302.581 307.106a.72.72 0 01-.229.531.733.733 0 01-.543.197c-.604 0-.932-.415-.932-1.136 0-.72.422-1.172 1.041-1.172.188-.007.374.036.539.124l-.095.189a.793.793 0 00-.444-.109c-.488 0-.808.313-.808.932-.003.06-.003.121 0 .182a.726.726 0 01.692-.386.69.69 0 01.533.152.676.676 0 01.246.496zm-.226 0c0-.299-.226-.488-.575-.488a.526.526 0 00-.582.495c0 .248.211.488.604.488a.49.49 0 00.39-.117.49.49 0 00.17-.371l-.007-.007zM311.935 305.519v2.271h-.233v-2.068h-.531v-.203h.764zM314.083 305.518v.16l-.954 2.111h-.254l.939-2.067h-1.172v.422h-.226v-.633l1.667.007zM323.664 305.519v2.271h-.233v-2.068h-.532v-.203h.765zM325.957 307.157c0 .4-.342.648-.888.648s-.874-.248-.874-.648a.563.563 0 01.437-.561.514.514 0 01-.357-.502c0-.364.313-.597.794-.597.48 0 .8.233.8.597a.507.507 0 01-.356.502.574.574 0 01.444.561zm-.24 0c0-.277-.241-.451-.648-.451-.408 0-.634.174-.634.451s.233.459.634.459c.4 0 .648-.182.648-.466v.007zm-.648-.641c.356 0 .567-.153.567-.4 0-.248-.225-.415-.567-.415-.343 0-.561.16-.561.408 0 .247.211.4.561.4v.007zM334.613 305.519v2.271h-.219v-2.068h-.531v-.203h.75zM336.797 306.632c0 .772-.423 1.172-1.041 1.172a1.05 1.05 0 01-.539-.123l.095-.19c.134.08.288.118.444.11.487 0 .8-.313.8-.932a1.382 1.382 0 000-.182.724.724 0 01-.691.386.73.73 0 01-.772-.677.729.729 0 01.779-.728c.597.029.925.444.925 1.164zm-.321-.451c0-.247-.211-.488-.604-.488a.5.5 0 00-.511.291.497.497 0 00-.042.204c0 .299.218.488.575.488a.525.525 0 00.582-.495zM346.486 307.6v.211h-1.594v-.211l.946-.924c.255-.255.306-.408.306-.561 0-.262-.189-.429-.531-.429a.724.724 0 00-.619.254l-.167-.138a1.005 1.005 0 01.808-.328c.458 0 .728.233.728.612a.958.958 0 01-.372.728l-.771.728 1.266.058zM346.77 306.655c0-.728.386-1.158.91-1.158s.903.43.903 1.158-.379 1.15-.903 1.15-.91-.43-.91-1.15zm1.573 0c0-.612-.27-.947-.663-.947s-.67.335-.67.947c0 .611.27.939.67.939.401 0 .656-.335.656-.939h.007zM357.435 307.6v.211h-1.594v-.211l.947-.924c.254-.255.305-.408.305-.561 0-.262-.189-.429-.531-.429a.724.724 0 00-.619.254l-.167-.138a1.006 1.006 0 01.808-.328c.458 0 .728.233.728.612a.958.958 0 01-.372.728l-.771.728 1.266.058zM358.36 305.519v2.271h-.233v-2.068h-.539v-.203h.772zM368.385 307.6v.211h-1.595v-.211l.947-.924c.254-.255.305-.408.305-.561 0-.262-.189-.429-.531-.429a.73.73 0 00-.619.254l-.167-.138a1.008 1.008 0 01.808-.328c.459 0 .728.233.728.612a.958.958 0 01-.371.728l-.736.786h1.231zM370.226 307.6v.211h-1.616v-.211l.947-.924c.254-.255.305-.408.305-.561 0-.262-.189-.429-.531-.429a.73.73 0 00-.619.254l-.167-.138a1.008 1.008 0 01.808-.328c.459 0 .728.233.728.612a.958.958 0 01-.371.728l-.772.728 1.288.058zM379.334 307.601v.211h-1.595v-.211l.947-.925c.255-.255.306-.407.306-.56 0-.262-.19-.43-.532-.43a.73.73 0 00-.619.255l-.167-.138a1.012 1.012 0 01.801-.328c.466 0 .728.233.728.612a.948.948 0 01-.379.728l-.75.786h1.26zM381.125 307.135c0 .378-.27.669-.823.669a1.15 1.15 0 01-.815-.291l.116-.182a.976.976 0 00.728.262c.379 0 .582-.174.582-.458 0-.284-.189-.452-.611-.452h-.16v-.174l.626-.787h-1.158v-.203h1.456v.16l-.64.808c.458.029.699.284.699.648zM385.514 301.886c0 .101-58.29.189-130.18.189-71.89 0-130.196-.088-130.196-.189 0-.102 58.284-.19 130.196-.19 71.911 0 130.18.08 130.18.19z"/>
      <path fill="#fff" fill-opacity=".8" d="M302.275 220.83h-9.486v69.342h9.486V220.83z" opacity=".3"/>
      <path fill="#fff" fill-opacity=".8" d="M221.998 266.083h-9.485v24.082h9.485v-24.082z" opacity=".79"/>
      <path fill="#3C5077" d="M143.949 218.093a12.713 12.713 0 01-4.368 0 12.664 12.664 0 014.368 0zM161.341 218.093a25.505 25.505 0 01-4.368.19 25.616 25.616 0 01-4.368-.19 25.514 25.514 0 014.368-.189 25.505 25.505 0 014.368.189zM178.733 218.093a25.409 25.409 0 01-4.368.19 25.413 25.413 0 01-4.368-.19 25.514 25.514 0 014.368-.189 25.51 25.51 0 014.368.189zM196.133 218.093a50.154 50.154 0 01-8.7 0 49.957 49.957 0 018.7 0zM213.546 218.093a49.976 49.976 0 01-8.736 0 50.172 50.172 0 018.736 0zM230.931 218.093a50.154 50.154 0 01-8.7 0 49.957 49.957 0 018.7 0zM248.33 218.093a50.154 50.154 0 01-8.7 0 49.957 49.957 0 018.7 0zM265.722 218.093a50.154 50.154 0 01-8.7 0 49.957 49.957 0 018.7 0zM283.121 218.093a50.143 50.143 0 01-8.699 0 49.945 49.945 0 018.699 0zM300.513 218.093c-2.892.252-5.8.252-8.692 0 2.892-.253 5.8-.253 8.692 0zM317.912 218.093a50.143 50.143 0 01-8.699 0 49.945 49.945 0 018.699 0zM335.312 218.093a50.154 50.154 0 01-8.7 0 49.957 49.957 0 018.7 0zM352.711 218.093a50.154 50.154 0 01-8.7 0 49.957 49.957 0 018.7 0zM370.117 218.093a50.172 50.172 0 01-8.736 0 50.172 50.172 0 018.736 0zM383.17 218.093a12.713 12.713 0 01-4.368 0 12.664 12.664 0 014.368 0z"/>
      <path fill="#5F5AF6" d="M142.552 280.73a59.281 59.281 0 01-4.587 4.856 58.852 58.852 0 01-4.855 4.594 57.957 57.957 0 014.586-4.856 58.706 58.706 0 014.856-4.594zM163.081 280.891a59.246 59.246 0 01-4.586 4.855 57.115 57.115 0 01-4.863 4.587 59.866 59.866 0 014.594-4.856 59.246 59.246 0 014.855-4.586zM202.284 280.723a58.684 58.684 0 01-4.594 4.855 57.408 57.408 0 01-4.855 4.594 57.973 57.973 0 014.593-4.863 59.421 59.421 0 014.856-4.586zM142.428 272.344a59.025 59.025 0 01-4.594 4.856 58.108 58.108 0 01-4.855 4.586 58.527 58.527 0 014.593-4.856 57.957 57.957 0 014.856-4.586zM182.417 280.868a59.269 59.269 0 01-4.586 4.856 57.957 57.957 0 01-4.856 4.586 60.789 60.789 0 014.586-4.855 59.443 59.443 0 014.856-4.587zM182.293 272.481a58.694 58.694 0 01-4.593 4.856 59.606 59.606 0 01-4.856 4.587 59.098 59.098 0 014.586-4.856 58.87 58.87 0 014.863-4.587zM179.33 266.104a55.386 55.386 0 01-6.493 6.494 57.047 57.047 0 016.493-6.494z"/>
      <path fill="#fff" fill-opacity=".8" d="M261.871 280.723a59.418 59.418 0 01-4.586 4.855 58.697 58.697 0 01-4.856 4.594 58.69 58.69 0 014.586-4.863 59.26 59.26 0 014.856-4.586zM261.74 272.336a57.652 57.652 0 01-4.587 4.856 59.418 59.418 0 01-4.855 4.586 59.421 59.421 0 014.586-4.856 60.812 60.812 0 014.856-4.586zM261.74 262.989a57.64 57.64 0 01-4.587 4.855 59.43 59.43 0 01-4.855 4.587 116.733 116.733 0 019.464-9.464l-.022.022zM261.871 253.947a59.269 59.269 0 01-4.586 4.856 59.421 59.421 0 01-4.856 4.586 59.246 59.246 0 014.586-4.855 57.814 57.814 0 014.856-4.587zM261.74 245.553a57.64 57.64 0 01-4.587 4.855 58.684 58.684 0 01-4.855 4.594 58.112 58.112 0 014.586-4.856 60.029 60.029 0 014.856-4.593zM261.74 236.206a57.652 57.652 0 01-4.587 4.856 57.79 57.79 0 01-4.855 4.586 60.792 60.792 0 014.586-4.856 60.812 60.812 0 014.856-4.586z" opacity=".6"/>
      <path fill="#5F5AF6" d="M281.905 280.723a58.672 58.672 0 01-4.593 4.855 58.539 58.539 0 01-4.856 4.594 114.213 114.213 0 019.464-9.464l-.015.015zM281.774 272.336a59.26 59.26 0 01-4.586 4.856 60.812 60.812 0 01-4.856 4.586 57.814 57.814 0 014.587-4.856 59.418 59.418 0 014.855-4.586zM281.774 262.989a59.246 59.246 0 01-4.586 4.855 60.645 60.645 0 01-4.856 4.587 117.055 117.055 0 019.464-9.464l-.022.022zM281.905 253.947a58.527 58.527 0 01-4.593 4.856 59.26 59.26 0 01-4.856 4.586 59.418 59.418 0 014.586-4.855 57.265 57.265 0 014.863-4.587zM281.774 245.553a59.246 59.246 0 01-4.586 4.855 59.866 59.866 0 01-4.856 4.594 56.722 56.722 0 014.587-4.856 58.84 58.84 0 014.855-4.593z"/>
      <path fill="#3C5077" d="M321.669 280.723a59.43 59.43 0 01-4.587 4.855 58.684 58.684 0 01-4.855 4.594 58.69 58.69 0 014.586-4.863 59.098 59.098 0 014.856-4.586zM321.545 272.336a58.697 58.697 0 01-4.594 4.856 59.418 59.418 0 01-4.855 4.586 58.685 58.685 0 014.593-4.856 57.957 57.957 0 014.856-4.586zM321.545 262.988a58.539 58.539 0 01-4.594 4.856 59.246 59.246 0 01-4.855 4.586 58.672 58.672 0 014.593-4.855 56.722 56.722 0 014.856-4.587zM321.669 253.947a59.281 59.281 0 01-4.587 4.856 59.246 59.246 0 01-4.855 4.586 59.246 59.246 0 014.586-4.855 57.814 57.814 0 014.856-4.587zM321.545 245.553a58.684 58.684 0 01-4.594 4.855 58.684 58.684 0 01-4.855 4.594 57.409 57.409 0 014.593-4.856 57.409 57.409 0 014.856-4.593zM321.545 237.553a58.684 58.684 0 01-4.594 4.855 59.43 59.43 0 01-4.855 4.587 58.527 58.527 0 014.593-4.856 57.957 57.957 0 014.856-4.586z"/>
      <path fill="#5F5AF6" d="M241.443 280.723a59.246 59.246 0 01-4.586 4.855 58.539 58.539 0 01-4.856 4.594 58.858 58.858 0 014.586-4.863 59.421 59.421 0 014.856-4.586zM241.319 272.336a58.685 58.685 0 01-4.593 4.856 57.957 57.957 0 01-4.856 4.586 58.865 58.865 0 014.594-4.856 57.944 57.944 0 014.855-4.586zM241.319 262.988a58.527 58.527 0 01-4.593 4.856 57.957 57.957 0 01-4.856 4.586 58.852 58.852 0 014.594-4.855 56.71 56.71 0 014.855-4.587zM222.224 280.723a59.418 59.418 0 01-4.586 4.855 57.976 57.976 0 01-4.863 4.594 57.973 57.973 0 014.593-4.863 59.26 59.26 0 014.856-4.586zM222.093 272.336a59.269 59.269 0 01-4.586 4.856 59.421 59.421 0 01-4.856 4.586 117.055 117.055 0 019.464-9.464l-.022.022zM219.079 266.003a28.383 28.383 0 01-3.079 3.349 27.579 27.579 0 01-3.349 3.079 54.352 54.352 0 016.428-6.428zM241.443 253.947a59.063 59.063 0 01-4.601 4.878 59.246 59.246 0 01-4.855 4.586 59.246 59.246 0 014.586-4.855 57.935 57.935 0 014.87-4.609zM241.443 237.13a59.421 59.421 0 01-4.586 4.856 58.527 58.527 0 01-4.856 4.593 58.858 58.858 0 014.586-4.863 59.594 59.594 0 014.856-4.586zM241.319 245.553a58.672 58.672 0 01-4.593 4.855 57.26 57.26 0 01-4.856 4.594 57.42 57.42 0 014.594-4.856 57.397 57.397 0 014.855-4.593zM302.362 280.723a57.79 57.79 0 01-4.586 4.855 58.539 58.539 0 01-4.856 4.594 58.702 58.702 0 014.587-4.863 60.609 60.609 0 014.855-4.586zM302.26 272.336a59.26 59.26 0 01-4.586 4.856 60.812 60.812 0 01-4.856 4.586 56.418 56.418 0 014.587-4.856 59.418 59.418 0 014.855-4.586zM302.26 262.988a59.098 59.098 0 01-4.586 4.856 60.453 60.453 0 01-4.856 4.586 56.406 56.406 0 014.587-4.855 57.802 57.802 0 014.855-4.587zM302.362 253.947a57.802 57.802 0 01-4.586 4.856 59.098 59.098 0 01-4.856 4.586 59.43 59.43 0 014.587-4.855 59.097 59.097 0 014.855-4.587zM302.26 245.553a59.246 59.246 0 01-4.586 4.855 59.866 59.866 0 01-4.856 4.594 55.237 55.237 0 014.587-4.856 58.84 58.84 0 014.855-4.593zM302.26 236.206a59.26 59.26 0 01-4.586 4.856 59.098 59.098 0 01-4.856 4.586 57.652 57.652 0 014.587-4.856 59.418 59.418 0 014.855-4.586zM302.26 227.71a59.26 59.26 0 01-4.586 4.856 60.632 60.632 0 01-4.856 4.586 56.418 56.418 0 014.587-4.856 59.418 59.418 0 014.855-4.586zM300.644 220.83a40.733 40.733 0 01-3.778 4.048 40.74 40.74 0 01-4.048 3.778 39.848 39.848 0 013.779-4.048 39.723 39.723 0 014.047-3.778z"/>
      <path fill="#fff" fill-opacity=".8" d="M261.871 226.705a58.12 58.12 0 01-4.586 4.856 58.865 58.865 0 01-4.856 4.594 59.098 59.098 0 014.586-4.856 58.865 58.865 0 014.856-4.594zM261.74 218.318a57.652 57.652 0 01-4.587 4.856 57.802 57.802 0 01-4.855 4.587 60.453 60.453 0 014.586-4.856 60.645 60.645 0 014.856-4.587zM257.954 212.764a20.96 20.96 0 01-2.693 2.963 21.326 21.326 0 01-2.956 2.686 21.084 21.084 0 012.694-2.956c.9-.987 1.889-1.889 2.955-2.693z" opacity=".6"/>
      <path fill="#5F5AF6" d="M342.97 281.065a57.11 57.11 0 01-4.594 4.856 57.57 57.57 0 01-4.855 4.594 120.385 120.385 0 019.464-9.464l-.015.014zM342.839 272.656a59.269 59.269 0 01-4.586 4.856 57.802 57.802 0 01-4.856 4.586 60.97 60.97 0 014.586-4.855 59.606 59.606 0 014.856-4.587zM342.788 263.382a59.447 59.447 0 01-4.564 4.826 57.98 57.98 0 01-4.827 4.565 115.899 115.899 0 019.391-9.391zM364.548 281.064a56.562 56.562 0 01-4.586 4.856 58.865 58.865 0 01-4.856 4.594 59.269 59.269 0 014.586-4.856 60.208 60.208 0 014.856-4.594zM364.424 272.657a59.246 59.246 0 01-4.586 4.855 59.11 59.11 0 01-4.856 4.587 117.055 117.055 0 019.464-9.464l-.022.022zM357.974 269.781c.037.037-.102.24-.349.539-.124.145-.277.32-.452.509-.174.19-.182.197-.276.284l-.146.153-.073.08-.043.037-.27-.262.27.269-.044.036-.073.081-.153.145-.291.277-.509.451c-.299.248-.495.379-.532.342-.036-.036.095-.24.342-.531a8.15 8.15 0 01.452-.51l.276-.291.146-.153.073-.08.043-.036.27.269c-.532-.531-.146-.146-.27-.262v-.036l.073-.073.153-.153.291-.269.51-.452c.342-.262.539-.4.582-.364zM384.539 281.064a57.966 57.966 0 01-4.586 4.856 60.375 60.375 0 01-4.856 4.594 59.098 59.098 0 014.586-4.856 58.865 58.865 0 014.856-4.594zM379.53 277.563a14.036 14.036 0 01-2.184 2.41 13.643 13.643 0 01-2.417 2.148 14.14 14.14 0 012.148-2.41 13.282 13.282 0 012.453-2.148z"/>
      <path fill="#3C5077" d="M422.351 144.296c0 .109-72.305.189-161.485.189s-161.506-.08-161.506-.189 72.297-.19 161.506-.19 161.485.088 161.485.19z"/>
      <path fill="#5F5AF6" d="M211.027 166.317h-60.999a3.379 3.379 0 00-3.378 3.378v15.907a3.378 3.378 0 003.378 3.378h60.999a3.378 3.378 0 003.378-3.378v-15.907a3.378 3.378 0 00-3.378-3.378z"/>
      <path fill="#fff" fill-opacity=".8" d="M161.196 182.21l-1.9-3.218-.728.874a.727.727 0 01-1.289-.422l-.458-5.897a.726.726 0 011.113-.684l4.922 3.021a.732.732 0 01.349.728.729.729 0 01-.517.611l-1.041.321 2.257 3.043-2.708 1.623zm-1.784-4.455l2.031 3.451 1.362-.83-2.403-3.24 2.031-.619-4.943-3.035h-.378.364l.466 5.896 1.47-1.623z"/>
      <path fill="#fff" fill-opacity=".8" d="M171.927 187.328c-.102 0-.19-4.441-.19-9.916 0-5.474.088-9.915.19-9.915.101 0 .189 4.441.189 9.915 0 5.475-.066 9.916-.189 9.916z" opacity=".4"/>
      <path fill="#fff" fill-opacity=".8" d="M175.69 173.132a1.267 1.267 0 01.384-.922 1.256 1.256 0 01.934-.352 1.206 1.206 0 01.917.364l-.167.167a1.006 1.006 0 00-.728-.291 1.033 1.033 0 00-.424.053 1.033 1.033 0 00-.704.984 1.043 1.043 0 001.128 1.038.973.973 0 00.728-.299l.167.168a1.188 1.188 0 01-.917.371 1.26 1.26 0 01-1.318-1.281zM178.442 171.727h.255v2.649h-.255v-2.649zM179.33 171.909a.193.193 0 01.058-.13.191.191 0 01.132-.052c.047 0 .092.018.126.05a.183.183 0 01.056.124.186.186 0 01-.04.157.189.189 0 01-.146.07.189.189 0 01-.146-.07.186.186 0 01-.04-.157v.008zm.059.597h.254v1.87h-.254v-1.87zM180.189 173.445a.92.92 0 01.969-.954.828.828 0 01.728.372l-.19.131a.64.64 0 00-.241-.212.727.727 0 10-.312 1.384.634.634 0 00.553-.277l.19.131a.834.834 0 01-.728.371.93.93 0 01-.691-.262.937.937 0 01-.278-.684zM183.072 173.445l-.451.407v.524h-.255v-2.664h.255v1.805l1.128-1.026h.321l-.809.772.881 1.113h-.313l-.757-.931zM184.208 174.173l.116-.196c.197.137.43.211.67.211.357 0 .51-.124.51-.306 0-.495-1.223-.109-1.223-.852 0-.313.262-.538.728-.538.235-.006.467.055.669.174l-.116.204a.939.939 0 00-.553-.16c-.342 0-.488.131-.488.313 0 .51 1.223.124 1.223.852 0 .32-.291.531-.779.531a1.23 1.23 0 01-.757-.233zM177.751 177.871v5.496h-1.02v-4.622h-1.164v-.874h2.184zM178.843 180.616c0-1.806.99-2.825 2.293-2.825 1.303 0 2.3 1.019 2.3 2.825 0 1.805-.99 2.832-2.3 2.832-1.311 0-2.293-1.027-2.293-2.832zm3.567 0c0-1.325-.517-1.937-1.274-1.937s-1.267.612-1.267 1.937c0 1.325.524 1.943 1.267 1.943.742 0 1.274-.611 1.274-1.943zM183.997 182.77a.65.65 0 01.4-.599.646.646 0 01.706.141.649.649 0 01-.458 1.106.634.634 0 01-.648-.648zM189.945 181.657c0 .968-.728 1.769-2.184 1.769a3.439 3.439 0 01-2.068-.641l.437-.793c.461.36 1.031.553 1.616.546.728 0 1.165-.32 1.165-.845 0-.524-.342-.851-1.456-.851h-1.332l.283-2.992h3.233v.895h-2.366l-.117 1.274h.524c1.609-.022 2.265.684 2.265 1.638zM190.527 180.616c0-1.806.99-2.825 2.293-2.825 1.303 0 2.301 1.019 2.301 2.825 0 1.805-.983 2.832-2.301 2.832s-2.293-1.027-2.293-2.832zm3.567 0c0-1.325-.517-1.937-1.274-1.937s-1.259.612-1.259 1.937c0 1.325.517 1.943 1.259 1.943.743 0 1.274-.611 1.274-1.943zM195.812 180.616c0-1.806.99-2.825 2.293-2.825 1.304 0 2.301 1.019 2.301 2.825 0 1.805-.99 2.832-2.301 2.832-1.31 0-2.293-1.027-2.293-2.832zm3.567 0c0-1.325-.524-1.937-1.274-1.937-.749 0-1.266.612-1.266 1.937 0 1.325.517 1.943 1.266 1.943.75 0 1.274-.611 1.274-1.943z"/>
      <path fill="#5F5AF6" d="M292.469 166.317h-63.707a2.024 2.024 0 00-2.024 2.024v18.615c0 1.118.906 2.024 2.024 2.024h63.707a2.024 2.024 0 002.024-2.024v-18.615a2.024 2.024 0 00-2.024-2.024z"/>
      <path fill="#fff" fill-opacity=".8" d="M292.01 166.317h-62.79a2.483 2.483 0 00-2.482 2.483v17.698a2.482 2.482 0 002.482 2.482h62.79a2.483 2.483 0 002.483-2.482V168.8a2.483 2.483 0 00-2.483-2.483z" opacity=".3"/>
      <path fill="#fff" fill-opacity=".8" d="M257.954 172.739c0 .539-.386.859-1.026.859h-.677v.779h-.262v-2.512h.939c.655.015 1.026.328 1.026.874zm-.262 0c0-.401-.269-.626-.771-.626h-.67v1.252h.67c.516 0 .786-.233.786-.626h-.015zM260.138 173.525h-1.579a.725.725 0 00.728.655.731.731 0 00.582-.247l.138.167a.923.923 0 01-.728.306.935.935 0 01-.99-.961.93.93 0 01.239-.706.93.93 0 01.682-.301.925.925 0 01.921 1.007s.007.051.007.08zm-1.579-.189h1.339a.643.643 0 00-.42-.585.647.647 0 00-.25-.041.663.663 0 00-.684.626h.015zM261.594 172.491v.248h-.058a.614.614 0 00-.641.728v.91h-.254v-1.886h.225v.364a.734.734 0 01.728-.364zM262.38 172.28v.226h.583v.211h-.575v1.66h-.255v-1.674h-.335v-.212h.335v-.233a.52.52 0 01.35-.533.506.506 0 01.225-.027.58.58 0 01.371.116l-.087.19a.422.422 0 00-.277-.095c-.218.015-.335.138-.335.371zM263.087 173.444a.96.96 0 11.961.961.92.92 0 01-.899-.587.935.935 0 01-.062-.374zm1.66 0a.727.727 0 10-.728.728.686.686 0 00.683-.443.694.694 0 00.045-.285zM266.479 172.491v.248h-.058a.61.61 0 00-.641.728v.91h-.254v-1.886h.247v.364a.731.731 0 01.706-.364zM270.054 173.299v1.078h-.255v-1.071c0-.4-.204-.604-.539-.604a.606.606 0 00-.633.684v.991h-.255v-1.071c0-.4-.204-.604-.546-.604a.604.604 0 00-.475.196.605.605 0 00-.158.488v.991h-.255v-1.886h.247v.342a.725.725 0 01.295-.278.72.72 0 01.397-.079.682.682 0 01.67.394.828.828 0 01.728-.394.734.734 0 01.75.502.743.743 0 01.029.321zM272.172 173.219v1.157h-.24v-.291a.725.725 0 01-.648.306c-.43 0-.692-.219-.692-.546 0-.328.19-.532.728-.532h.597v-.116c0-.328-.182-.502-.531-.502a.938.938 0 00-.626.225l-.117-.189c.218-.171.488-.261.765-.255a.666.666 0 01.566.182.667.667 0 01.198.561zm-.255.604v-.306h-.589c-.364 0-.481.139-.481.335 0 .197.175.357.473.357a.598.598 0 00.597-.386zM274.604 173.299v1.078h-.255v-1.07c0-.401-.204-.604-.561-.604a.624.624 0 00-.492.186.612.612 0 00-.17.498v.99h-.255v-1.886h.24v.35a.793.793 0 01.728-.364.731.731 0 01.737.506c.032.102.042.21.028.316zM275.12 173.445a.93.93 0 01.595-.894.933.933 0 01.374-.06.834.834 0 01.728.372l-.19.131a.644.644 0 00-.553-.284.727.727 0 100 1.456.627.627 0 00.553-.277l.19.131a.823.823 0 01-.728.371.93.93 0 01-.69-.262.925.925 0 01-.279-.684zM278.943 173.525h-1.58a.73.73 0 00.728.655.73.73 0 00.575-.247l.146.167a.922.922 0 01-.728.306.937.937 0 01-.923-.581.934.934 0 01-.068-.38.909.909 0 01.562-.885.923.923 0 01.363-.069.91.91 0 01.664.277.894.894 0 01.246.677l.015.08zm-1.58-.189h1.339a.66.66 0 00-.669-.626.644.644 0 00-.465.174.668.668 0 00-.148.205.66.66 0 00-.057.247zM260.4 181.788c0 1.019-.888 1.66-2.256 1.66-1.369 0-2.235-.641-2.235-1.66a1.368 1.368 0 01.881-1.311 1.258 1.258 0 01-.685-1.157c0-.939.823-1.529 2.039-1.529 1.215 0 2.06.59 2.06 1.529a1.277 1.277 0 01-.728 1.157 1.38 1.38 0 01.924 1.311zm-1.026 0c0-.546-.473-.881-1.23-.881-.758 0-1.209.335-1.209.881s.459.888 1.209.888c.749 0 1.266-.364 1.266-.917l-.036.029zm-2.264-2.388c0 .466.393.728 1.034.728.64 0 1.055-.299 1.055-.728 0-.43-.422-.779-1.055-.779-.634 0-1.034.255-1.034.75v.029zM261.106 182.77a.654.654 0 01.778-.635.653.653 0 01.507.513.65.65 0 01-1.24.371.662.662 0 01-.045-.249zM267.047 181.657c0 .968-.728 1.769-2.184 1.769a3.415 3.415 0 01-2.06-.641l.429-.793c.461.36 1.031.553 1.616.546.728 0 1.165-.32 1.165-.845 0-.524-.342-.851-1.456-.851h-1.325l.277-2.992h3.232v.895h-2.38l-.117 1.274h.524c1.631-.022 2.279.684 2.279 1.638zM267.637 180.616c0-1.806.983-2.825 2.293-2.825s2.3 1.019 2.3 2.825c0 1.805-.99 2.832-2.3 2.832-1.31 0-2.293-1.027-2.293-2.832zm3.56 0c0-1.325-.517-1.937-1.267-1.937-.75 0-1.267.612-1.267 1.937 0 1.325.517 1.943 1.267 1.943.75 0 1.267-.611 1.267-1.943zM272.915 180.616c0-1.806.99-2.825 2.293-2.825 1.303 0 2.3 1.019 2.3 2.825 0 1.805-.99 2.832-2.3 2.832-1.311 0-2.293-1.027-2.293-2.832zm3.567 0c0-1.325-.517-1.937-1.274-1.937s-1.267.612-1.267 1.937c0 1.325.524 1.943 1.267 1.943.742 0 1.274-.611 1.274-1.943zM237.636 182.305a.894.894 0 01-.481-.146.881.881 0 01-.371-.83l.357-2.599a.165.165 0 00-.044-.116l-1.936-1.762a.863.863 0 01-.226-.855.853.853 0 01.648-.601l2.577-.466a.14.14 0 00.061-.027.14.14 0 00.041-.053l1.077-2.388a.87.87 0 01.756-.499.87.87 0 01.788.448l1.237 2.308a.136.136 0 00.109.065l2.599.292c.16.018.312.08.438.18a.857.857 0 01.278.383.875.875 0 01.035.473.878.878 0 01-.219.42l-1.813 1.892a.167.167 0 000 .124l.532 2.563a.86.86 0 01-.313.851.84.84 0 01-.903.102l-2.381-1.179a.144.144 0 00-.124 0l-2.278 1.296a.819.819 0 01-.444.124zm2.49-9.646a.122.122 0 00-.117.072l-1.085 2.374a.864.864 0 01-.633.495l-2.577.466a.12.12 0 00-.102.094.128.128 0 00-.004.075.134.134 0 00.04.064l1.937 1.761a.871.871 0 01.276.728l-.356 2.592a.142.142 0 00.013.073c.01.023.025.043.045.058a.155.155 0 00.146 0l2.271-1.303a.86.86 0 01.801 0l2.358 1.143a.163.163 0 00.146 0 .148.148 0 00.044-.138l-.532-2.563a.88.88 0 01.018-.414.88.88 0 01.208-.358l1.805-1.892a.13.13 0 00-.08-.226l-2.599-.284a.88.88 0 01-.669-.451l-1.238-2.308a.117.117 0 00-.05-.046.118.118 0 00-.066-.012z"/>
      <path fill="#455A64" d="M371.93 166.317h-62.455a2.65 2.65 0 00-2.65 2.65v17.363a2.65 2.65 0 002.65 2.65h62.455a2.65 2.65 0 002.65-2.65v-17.363a2.65 2.65 0 00-2.65-2.65z"/>
      <path fill="#fff" fill-opacity=".8" d="M332.101 187.328c-.102 0-.189-4.441-.189-9.916 0-5.474.087-9.915.189-9.915.102 0 .189 4.441.189 9.915 0 5.475-.08 9.916-.189 9.916z" opacity=".4"/>
      <path fill="#fff" fill-opacity=".8" d="M336.091 171.88h1.019a1.245 1.245 0 01.951.332 1.257 1.257 0 01-.951 2.179h-1.019v-2.511zm1.004 2.278a1.027 1.027 0 001.026-.61 1.03 1.03 0 000-.825 1.018 1.018 0 00-.607-.559 1.027 1.027 0 00-.419-.051h-.728v2.045h.728zM338.813 173.444a.959.959 0 011.149-.942.96.96 0 01-.188 1.903.938.938 0 01-.374-.062.938.938 0 01-.524-.525.918.918 0 01-.063-.374zm1.66 0a.727.727 0 10-.728.728.693.693 0 00.527-.201.69.69 0 00.201-.527zM343.967 172.506l-.728 1.885h-.24l-.597-1.543-.597 1.543h-.24l-.728-1.885h.248l.589 1.601.605-1.601h.218l.604 1.601.597-1.601h.269zM346.093 173.3v1.077h-.255v-1.07c0-.401-.203-.604-.567-.604a.62.62 0 00-.656.684v.99h-.254v-1.886h.225v.35a.79.79 0 01.728-.364.723.723 0 01.75.502.712.712 0 01.029.321zM346.77 171.727h.255v2.649h-.255v-2.649zM347.564 173.444a.96.96 0 11.961.961.92.92 0 01-.898-.587.918.918 0 01-.063-.374zm1.66 0a.727.727 0 10-.728.728.682.682 0 00.728-.728zM351.422 173.219v1.158h-.247v-.292a.727.727 0 01-.648.306c-.423 0-.685-.218-.685-.546 0-.328.182-.531.728-.531h.568v-.117c0-.327-.182-.502-.531-.502a.956.956 0 00-.634.226l-.116-.19c.221-.17.493-.259.772-.255a.676.676 0 01.587.169.669.669 0 01.206.574zm-.255.604v-.306h-.589c-.372 0-.488.139-.488.335 0 .197.175.357.48.357a.6.6 0 00.568-.386h.029zM353.846 171.726v2.65h-.247v-.371a.81.81 0 01-.728.386.96.96 0 010-1.915.84.84 0 01.728.372v-1.136l.247.014zm-.254 1.719a.73.73 0 00-.87-.714.724.724 0 00-.572.572.728.728 0 00.714.87.686.686 0 00.526-.202.693.693 0 00.202-.526zM340.415 181.657a1.83 1.83 0 01-.616 1.329 1.842 1.842 0 01-1.393.454c-1.5 0-2.381-.968-2.381-2.737 0-1.886 1.099-2.912 2.694-2.912a2.785 2.785 0 011.456.349l-.379.772a1.858 1.858 0 00-1.041-.262c-1.041 0-1.689.641-1.689 1.885a1.868 1.868 0 011.456-.575 1.723 1.723 0 011.893 1.697zm-.99.043c0-.575-.43-.932-1.099-.932a1.001 1.001 0 00-1.012.547c-.06.123-.095.256-.102.393 0 .524.407.931 1.143.931a.944.944 0 00.742-.227.952.952 0 00.328-.704v-.008zM340.997 182.77a.647.647 0 11.641.648.634.634 0 01-.641-.648zM346.938 181.657c0 .968-.728 1.769-2.184 1.769a3.436 3.436 0 01-2.061-.641l.43-.793c.461.36 1.031.553 1.616.546.728 0 1.165-.32 1.165-.845 0-.524-.335-.851-1.456-.851h-1.318l.284-2.992h3.225v.895h-2.366l-.116 1.274h.524c1.609-.022 2.257.684 2.257 1.638zM347.498 180.616c0-1.806.99-2.825 2.293-2.825 1.304 0 2.301 1.019 2.301 2.825 0 1.805-.99 2.832-2.301 2.832-1.31 0-2.293-1.027-2.293-2.832zm3.56 0c0-1.325-.517-1.937-1.267-1.937-.749 0-1.266.612-1.266 1.937 0 1.325.517 1.943 1.266 1.943.75 0 1.296-.611 1.296-1.943h-.029zM352.805 180.616c0-1.806.991-2.825 2.294-2.825s2.3 1.019 2.3 2.825c0 1.805-.99 2.832-2.3 2.832-1.311 0-2.294-1.027-2.294-2.832zm3.568 0c0-1.325-.517-1.937-1.274-1.937s-1.26.612-1.26 1.937c0 1.325.517 1.943 1.26 1.943.742 0 1.274-.611 1.274-1.943zM320.344 183.731a5.194 5.194 0 01-4.796-3.204 5.19 5.19 0 016.782-6.782 5.196 5.196 0 013.205 4.795 5.198 5.198 0 01-5.191 5.191zm0-9.653a4.463 4.463 0 10-.001 8.926 4.463 4.463 0 00.001-8.926z"/>
      <path fill="#fff" fill-opacity=".8" d="M320.315 181.708a.331.331 0 01-.277-.131l-2.184-2.657a.383.383 0 01-.077-.269.374.374 0 01.128-.248.365.365 0 01.51.051l1.9 2.3 1.74-2.424a.36.36 0 01.652.151.368.368 0 01-.063.271l-2.009 2.81a.365.365 0 01-.284.146h-.036z"/>
      <path fill="#fff" fill-opacity=".8" d="M320.286 181.613a.363.363 0 01-.364-.364v-5.096a.364.364 0 01.364-.364.371.371 0 01.364.364v5.096a.371.371 0 01-.364.364z"/>
      <path fill="#3C5077" d="M117.137 137.023a1.95 1.95 0 10.001-3.9 1.95 1.95 0 00-.001 3.9zM123.929 137.023a1.951 1.951 0 10.002-3.902 1.951 1.951 0 00-.002 3.902zM130.722 137.023a1.951 1.951 0 100-3.902 1.951 1.951 0 000 3.902zM375.912 86.456l-.036-.015.415-1.441.036.015-.415 1.441z"/>
      <path fill="#455A64" d="M404.894 363.103c0 .102-64.334.19-143.671.19-79.337 0-143.685-.088-143.685-.19 0-.102 64.318-.189 143.685-.189s143.671.087 143.671.189z"/>
      <g>
        <path fill="#3C5077" d="M451.413 367.1c-.102 0-.233-17.065-.291-38.104-.058-21.039 0-38.103.08-38.103s.233 17.057.291 38.103c.058 21.047.022 38.104-.08 38.104zM462.966 324.402a2.044 2.044 0 01-.138.401c-.124.284-.277.655-.466 1.099l-.335.801-.349.968c-.124.342-.255.728-.401 1.107-.145.378-.247.822-.378 1.266a50.709 50.709 0 00-1.456 6.349 77.71 77.71 0 00-.808 7.942c-.186 4.838-.05 9.682.407 14.502a144.1 144.1 0 00.459 4.368c.058.488.102.881.131 1.194.019.137.019.277 0 .415a1.646 1.646 0 01-.095-.408l-.196-1.179a81.869 81.869 0 01-.575-4.368 96.35 96.35 0 01-.524-14.56c.133-2.683.413-5.356.837-8.008a49.558 49.558 0 011.536-6.37c.146-.444.269-.874.415-1.267.145-.393.291-.765.429-1.107.139-.342.255-.669.372-.968.116-.298.262-.546.371-.786l.531-1.078c.066-.112.144-.217.233-.313z"/>
        <path fill="#3C5077" d="M461.641 310.607a4.06 4.06 0 01-.167.561l-.539 1.587c-.124.349-.255.728-.393 1.143-.138.415-.269.888-.422 1.376-.299.99-.655 2.111-.968 3.371-.161.633-.335 1.288-.517 1.972-.182.685-.321 1.413-.488 2.184-.364 1.456-.626 3.094-.954 4.783a155.628 155.628 0 00-1.456 11.081c-.378 3.945-.466 7.731-.517 11.174-.051 3.444 0 6.552.175 9.129.044 1.304.124 2.476.197 3.502.073 1.027.123 1.922.189 2.65s.095 1.252.124 1.667a3.06 3.06 0 010 .59 3.58 3.58 0 01-.095-.583c-.051-.415-.116-.968-.196-1.667a71.29 71.29 0 01-.255-2.635c-.08-1.027-.19-2.184-.248-3.509-.174-2.599-.247-5.7-.255-9.151-.007-3.451.161-7.229.496-11.197.334-3.967.859-7.716 1.456-11.116.349-1.689.618-3.305.997-4.79.175-.728.342-1.456.509-2.184l.546-1.973c.328-1.26.728-2.381 1.02-3.364l.451-1.376c.153-.407.298-.786.422-1.135l.612-1.565c.074-.184.167-.36.276-.525zM448.137 370.113a.538.538 0 010-.196c0-.153 0-.35-.051-.59l-.153-2.257c-.124-1.994-.306-4.826-.524-8.313-.444-7.011-1.099-16.708-2.279-27.366a341.594 341.594 0 00-2.031-14.975c-.386-2.293-.728-4.47-1.135-6.501-.408-2.031-.729-3.916-1.122-5.635-.393-1.718-.728-3.268-1.026-4.63-.299-1.361-.59-2.526-.83-3.479-.24-.954-.408-1.668-.539-2.184a28.137 28.137 0 00-.131-.576c-.036-.152-.036-.196-.036-.196a.539.539 0 01.073.189c.043.146.094.335.167.561l.604 2.184c.262.946.575 2.111.896 3.472.32 1.362.728 2.912 1.084 4.623.357 1.711.787 3.596 1.165 5.635.379 2.038.772 4.208 1.165 6.494.728 4.593 1.456 9.66 2.06 14.996 1.187 10.666 1.798 20.384 2.184 27.388.19 3.516.328 6.355.408 8.321 0 .961.058 1.718.08 2.264v.589c0 .161-.029.182-.029.182z"/>
        <path fill="#5F5AF6" d="M450.991 299.091c-.226-2.417-2.665-4.237-5.096-4.266-2.432-.029-4.689 1.456-6.174 3.356a19.326 19.326 0 00-2.97 6.595c-1.638 5.693-2.533 11.648-1.834 17.56.698 5.911 3.086 11.648 7.28 15.834.684.677 1.572 1.347 2.518 1.15a2.955 2.955 0 001.325-.823 39.303 39.303 0 0012.755-29.848c-.066-2.242-.357-4.571-1.594-6.435-1.238-1.864-4.128-3.837-6.239-3.094M432.863 279.733l-3.414 6.195c-.08.139-.189.306-.349.321-.16.014-.313-.161-.415-.306l-9.035-13.876 2.082-1.179 11.131 8.845z"/>
        <path fill="#000" d="M432.863 279.733l-3.414 6.195c-.08.139-.189.306-.349.321-.16.014-.313-.161-.415-.306l-9.035-13.876 2.082-1.179 11.131 8.845z" opacity=".2"/>
        <path fill="#5F5AF6" d="M451.202 290.893l-30.831-18.2c-.32-.189-.663-.408-.728-.728a1.457 1.457 0 01.553-1.238 21.24 21.24 0 0116.475-6.472 18.815 18.815 0 0114.895 9.261c2.977 5.321 3.072 12.376-.335 17.399"/>
        <path fill="#3C5077" d="M424.812 266.891c.131-.033.265-.051.4-.051.27 0 .663-.058 1.165-.058a23.447 23.447 0 014.281.342 24.988 24.988 0 0119.954 18.055c.388 1.38.644 2.793.765 4.222.032.3.049.601.051.903a1.455 1.455 0 01-.241.669 5.153 5.153 0 00.051-1.558 26.771 26.771 0 00-.873-4.164 25.22 25.22 0 00-19.751-17.872 26.44 26.44 0 00-4.237-.451c-.983-.022-1.565-.008-1.565-.037z"/>
        <path fill="#3C5077" d="M447.023 278.335a7.445 7.445 0 01-1.558.728c-.983.386-2.351.881-3.887 1.369-1.536.487-2.912.88-3.968 1.128a7.406 7.406 0 01-1.682.32 8.663 8.663 0 011.609-.575l3.931-1.223 3.91-1.267a8.337 8.337 0 011.645-.48zM442.175 265.289c.268 1.128.39 2.285.364 3.443a13.093 13.093 0 01-.197 3.451 22.386 22.386 0 01-.175-3.443 20.188 20.188 0 01.008-3.451zM420.102 272.351a14.109 14.109 0 012.235-.786 98.838 98.838 0 015.525-1.5 89.333 89.333 0 015.606-1.179c.773-.175 1.56-.282 2.351-.321-.752.246-1.521.438-2.3.576-1.456.32-3.4.728-5.569 1.281-2.17.553-4.121 1.026-5.541 1.398-.755.232-1.526.409-2.307.531z"/>
        <path fill="#5F5AF6" d="M438.192 293.849c-2.649-2.009-5.452-2.41-8.779-2.279a27.04 27.04 0 00-9.61 2.483c-5.198 2.278-10.083 5.635-13.191 10.381-3.109 4.747-4.186 11.044-1.864 16.22.18.542.557.997 1.056 1.274.576.17 1.195.124 1.74-.131 5.911-1.929 11.866-3.873 17.304-6.894 5.438-3.021 10.381-7.222 13.301-12.718a10.973 10.973 0 001.405-4.216 5.26 5.26 0 00-1.362-4.12"/>
        <path fill="#3C5077" d="M438.243 293.223a1.73 1.73 0 01-.422.174l-1.237.43-.896.298c-.327.117-.677.262-1.048.408-.728.299-1.616.604-2.534 1.048l-1.456.663c-.502.226-1.004.517-1.536.786-1.077.524-2.184 1.201-3.312 1.878a52.068 52.068 0 00-13.046 11.481c-.822 1.055-1.631 2.046-2.286 3.043-.335.495-.684.954-.975 1.42l-.845 1.354c-.553.851-.968 1.674-1.361 2.38-.189.357-.379.677-.539.99l-.407.852c-.241.48-.437.866-.583 1.172a2.13 2.13 0 01-.226.4c.036-.149.09-.293.161-.429l.517-1.209.378-.866c.153-.313.335-.648.517-1.004.378-.728.779-1.551 1.318-2.417.269-.437.538-.896.83-1.376.291-.481.633-.939.961-1.456.655-1.012 1.456-2.017 2.278-3.087a54.956 54.956 0 016.064-6.348 55.782 55.782 0 017.062-5.205c1.172-.677 2.264-1.34 3.349-1.864.538-.262 1.048-.546 1.558-.772l1.456-.64c.924-.43 1.805-.728 2.562-1.005.379-.138.728-.269 1.063-.379l.91-.269 1.26-.364c.152-.043.308-.072.465-.087zM417.532 304.441a62.121 62.121 0 01-6.45 2.082 60.974 60.974 0 01-6.552 1.719 63.18 63.18 0 016.45-2.097 63.99 63.99 0 016.552-1.704z"/>
        <path fill="#3C5077" d="M417.262 318.673a10.73 10.73 0 01-.138-2.009c0-1.238-.044-2.956 0-4.856s.153-3.64.255-4.848a9.854 9.854 0 01.255-1.995 11.62 11.62 0 010 2.009c-.044 1.361-.095 3.014-.153 4.849-.058 1.834-.088 3.479-.117 4.841a11.64 11.64 0 01-.102 2.009zM429.457 312.463c-.102 0-.423-3.48-.728-7.797-.306-4.317-.459-7.811-.357-7.818.102-.008.422 3.48.728 7.797s.458 7.811.357 7.818z"/>
        <path fill="#3C5077" d="M414.278 296.513a11.511 11.511 0 012.067-.066c1.274 0 3.036.044 4.98.11 1.943.065 3.705.145 4.972.218.691.007 1.381.075 2.06.204-.684.079-1.373.099-2.06.058-1.281 0-3.036-.044-4.987-.109a222.13 222.13 0 01-4.972-.219 12.272 12.272 0 01-2.06-.196zM443.551 338.978a1.492 1.492 0 01-.044-.415c0-.306 0-.728-.058-1.18a60.577 60.577 0 010-4.368c.058-1.842.16-4.04.378-6.472.219-2.431.59-5.096 1.085-7.862.495-2.767 1.128-5.387 1.754-7.746a79.01 79.01 0 011.922-6.195c.619-1.74 1.151-3.145 1.558-4.092.189-.451.35-.808.473-1.099.051-.129.112-.253.182-.371-.02.138-.06.272-.116.4-.102.291-.24.663-.4 1.121-.364.961-.867 2.374-1.456 4.121-.59 1.747-1.216 3.851-1.85 6.202-.633 2.352-1.208 4.965-1.718 7.724-.509 2.76-.851 5.417-1.106 7.834a93.794 93.794 0 00-.459 6.442 134.888 134.888 0 00-.102 4.368v1.187a2.246 2.246 0 01-.043.401z"/>
        <path fill="#3C5077" d="M445.174 318.79a8.362 8.362 0 01-1.23 1.354 69.44 69.44 0 01-3.218 2.992 68.648 68.648 0 01-3.4 2.803 8.536 8.536 0 01-1.456 1.048c.399-.46.846-.878 1.332-1.245l3.313-2.912 3.29-2.912c.42-.418.878-.796 1.369-1.128zM454.936 326.652a13.637 13.637 0 01-1.31-1.812l-3.05-4.448-3.109-4.405a14.113 14.113 0 01-1.245-1.856 13.427 13.427 0 011.456 1.703 89.759 89.759 0 013.204 4.368c1.208 1.755 2.242 3.335 2.962 4.514.417.614.782 1.262 1.092 1.936zM449.819 301.929c.058.088-3.182 2.272-7.237 4.878-4.055 2.606-7.382 4.645-7.44 4.557-.058-.087 3.189-2.264 7.28-4.87 4.092-2.606 7.346-4.652 7.397-4.565zM458.962 311.794a59.424 59.424 0 01-4.899-4.528 61.383 61.383 0 01-4.645-4.761 122.013 122.013 0 019.552 9.326l-.008-.037z"/>
        <path fill="#5F5AF6" d="M461.263 311.597l2.781-.233a13.654 13.654 0 005.62-1.718 21.912 21.912 0 012.621-1.317c3.436-1.376 7.28-1.129 10.978-1.318a45.378 45.378 0 0017.472-4.47c.307-.148.561-.387.728-.684.568-1.041-.495-1.973-1.405-2.534-4.688-2.912-9.464-5.824-14.778-7.28-5.315-1.456-11.35-1.194-15.893 1.93-5.321 3.64-7.28 11.196-8.161 17.595"/>
        <path fill="#3C5077" d="M501.558 301.515a3.337 3.337 0 01-.466-.226l-1.325-.684c-1.143-.605-2.789-1.493-4.871-2.49a44.75 44.75 0 00-7.542-2.912 24.832 24.832 0 00-9.769-.794 16.746 16.746 0 00-8.911 3.822 19.938 19.938 0 00-4.645 6.552 53.999 53.999 0 00-2.016 5.096l-.495 1.398a2.863 2.863 0 01-.197.488c.031-.172.072-.343.124-.51.109-.357.255-.83.429-1.456a47.112 47.112 0 011.922-5.132 19.67 19.67 0 014.652-6.669 16.95 16.95 0 019.086-3.938c3.327-.393 6.7-.108 9.915.837a43.188 43.188 0 017.564 2.999 88.577 88.577 0 014.827 2.592l1.288.728c.154.083.298.183.43.299z"/>
        <path fill="#3C5077" d="M494.875 305.103c-.051.08-3.691-2.271-8.125-5.256-4.433-2.985-8.008-5.482-7.928-5.569.08-.088 3.698 2.271 8.132 5.256 4.433 2.985 7.979 5.482 7.921 5.569zM490.994 294.088a14.184 14.184 0 01-5.35.437 17.988 17.988 0 012.671-.269 17.917 17.917 0 012.679-.168zM475.058 292.014a6.836 6.836 0 01-1.193 1.863 8.02 8.02 0 01-1.507 1.718 6.915 6.915 0 011.193-1.863 7.82 7.82 0 011.507-1.718zM478.32 307.243a9.13 9.13 0 01-1.747-.946 57.955 57.955 0 01-3.99-2.679 110.95 110.95 0 01-3.822-2.912 10.94 10.94 0 01-1.514-1.296c.592.306 1.153.669 1.674 1.085l3.873 2.817c1.515 1.1 2.912 2.068 3.917 2.759.568.346 1.106.738 1.609 1.172z"/>
        <path fill="#5F5AF6" d="M465.361 323.42c-2.657-.728-5.824 1.886-6.37 4.572-.546 2.686.466 5.446 1.646 7.921a40.35 40.35 0 0010.978 14.363c4.754 3.786 10.702 6.21 16.744 6.181-1.121-5.213.298-10.658-.328-15.958a20.742 20.742 0 00-18.374-18.2c-1.697-.182-3.64-.451-4.368 1.114"/>
        <path fill="#3C5077" d="M488.395 356.457a2.306 2.306 0 01-.378-.182 6.526 6.526 0 01-.99-.663 10.38 10.38 0 01-2.621-3.509c-.422-.823-.896-1.711-1.361-2.701-.466-.99-.925-2.045-1.456-3.152a30.03 30.03 0 00-1.755-3.378 25.523 25.523 0 00-2.417-3.283c-1.813-2.133-3.764-3.982-5.453-5.744a37.522 37.522 0 01-4.164-4.994 18.414 18.414 0 01-2.031-3.88 12.728 12.728 0 01-.357-1.143 1.537 1.537 0 01-.08-.408s.182.546.568 1.456a20.284 20.284 0 002.119 3.793 39.09 39.09 0 004.186 4.899c1.703 1.747 3.64 3.589 5.496 5.744a26.498 26.498 0 012.446 3.334 30.736 30.736 0 011.755 3.422c.487 1.114.953 2.184 1.397 3.174.444.99.903 1.878 1.311 2.708a10.642 10.642 0 002.482 3.516c.801.707 1.325.954 1.303.991z"/>
        <path fill="#3C5077" d="M474.673 352.125a7.903 7.903 0 01.24-1.791 54.682 54.682 0 011.012-4.229 50.485 50.485 0 011.347-4.136 7.872 7.872 0 01.728-1.645 9.358 9.358 0 01-.474 1.733c-.327 1.063-.779 2.526-1.237 4.149-.459 1.624-.837 3.109-1.114 4.186a9.846 9.846 0 01-.502 1.733zM487.893 339.327a11.004 11.004 0 01-1.871-.429c-1.143-.299-2.723-.728-4.477-1.107-1.755-.378-3.364-.728-4.521-.917a11.837 11.837 0 01-1.878-.415 8.773 8.773 0 011.914.153c1.18.153 2.796.422 4.565.822 1.769.401 3.341.852 4.47 1.216a9.461 9.461 0 011.798.677zM464.823 343.047c.024-.697.12-1.39.284-2.068a71.338 71.338 0 011.099-4.914c.495-1.9 1.026-3.64 1.456-4.826.188-.672.444-1.324.764-1.944a12.84 12.84 0 01-.509 2.024 167.245 167.245 0 00-1.333 4.841c-.495 1.929-.91 3.64-1.208 4.87-.131.686-.316 1.36-.553 2.017zM481.807 328.181a73.66 73.66 0 01-7.404-.604c-4.077-.429-7.374-.859-7.36-.961.015-.102 3.32.168 7.397.597 2.47.199 4.929.522 7.367.968z"/>
        <path fill="#455A64" d="M479.288 361.269h-51.855v7.127h51.855v-7.127z"/>
        <path fill="#455A64" d="M479.383 368.483h-52.038v-7.28h52.038v7.28zm-51.863-.182h51.688v-6.945H427.52v6.945z"/>
        <path fill="#455A64" d="M432.237 366.022l7.47 36.823h27.62l7.215-34.449-42.305-2.374z"/>
        <path fill="#455A64" d="M432.237 399.365l3.983 5.475h33.575l4.747-5.475h-42.305z"/>
        <path fill="#3C5077" d="M479.375 368.367c0 .102-11.648.182-26.011.182s-26.019-.08-26.019-.182 11.648-.189 26.019-.189c14.371 0 26.011.087 26.011.189z"/>
        <path fill="#FAFAFA" d="M471.258 383.356c0 .102-7.848.182-17.53.182-9.682 0-17.53-.08-17.53-.182s7.848-.189 17.53-.189c9.682 0 17.53.087 17.53.189zM470.967 385.496c0 .102-7.709.182-17.224.182s-17.218-.08-17.218-.182c0-.101 7.71-.182 17.218-.182 9.507 0 17.224.081 17.224.182zM471.579 381.587c0 .102-8.118.182-18.128.182s-18.134-.08-18.134-.182 8.117-.182 18.134-.182c10.018 0 18.128.08 18.128.182z"/>
      </g>
      <g>
        <path fill="#FAFAFA" d="M490.448 185.872H356.729v61.815h133.719v-61.815z"/>
        <path fill="#3C5077" d="M490.456 247.693v-1.106-3.211c0-2.824 0-6.974-.037-12.317 0-10.68-.044-26.121-.073-45.187l.139.138-133.712.051.189-.189v61.821l-.182-.182 96.009.088 27.737.043h9.981-9.901l-27.664.044-96.213.219h-.174v-.175-62.011h.203l133.712.051h.138v.138c0 19.103-.058 34.573-.08 45.267v15.477c0 .728-.072 1.041-.072 1.041z"/>
        <path fill="#3C5077" d="M366.142 228.576v1.951h-.204v-1.776h-.458v-.175h.662zM366.608 229.552c0-.626.328-.997.779-.997.452 0 .779.371.779.997s-.327.99-.779.99c-.451 0-.779-.371-.779-.99zm1.354 0c0-.524-.233-.808-.575-.808-.342 0-.575.284-.575.808s.233.808.575.808c.342 0 .575-.291.575-.808zM366.929 218.209v.182h-1.369v-.146l.815-.793c.219-.218.262-.349.262-.481 0-.131-.16-.364-.458-.364a.657.657 0 00-.532.219l-.145-.124a.868.868 0 01.691-.284c.401 0 .648.204.648.532a.815.815 0 01-.32.611l-.663.648h1.071zM367.154 217.416c0-.626.328-.997.779-.997.452 0 .779.371.779.997s-.327.99-.779.99c-.451 0-.779-.349-.779-.99zm1.354 0c0-.524-.24-.808-.575-.808-.335 0-.575.284-.575.808s.233.808.575.808c.342 0 .597-.291.597-.808h-.022zM366.892 205.681c0 .327-.24.575-.728.575a1.024 1.024 0 01-.728-.248l.095-.16c.165.149.381.23.604.226.328 0 .502-.153.502-.393 0-.241-.16-.386-.524-.386h-.138v-.153l.539-.677h-.998v-.175h1.252v.138l-.546.728c.459.008.67.226.67.525zM367.154 205.281c0-.627.328-.998.779-.998.452 0 .779.371.779.998 0 .626-.327.99-.779.99-.451 0-.779-.372-.779-.99zm1.354 0c0-.525-.24-.809-.575-.809-.335 0-.575.284-.575.809 0 .524.233.808.575.808.342 0 .597-.292.597-.808h-.022zM374.755 235.951c0-.619.327-.99.779-.99.451 0 .778.371.778.99s-.327.997-.778.997c-.452 0-.779-.371-.779-.997zm1.354 0c0-.517-.233-.808-.575-.808-.343 0-.576.291-.576.808 0 .517.233.808.576.808.342 0 .575-.284.575-.808zM389.205 234.976v1.951h-.211v-1.769h-.458v-.182h.669zM404.428 236.752v.174h-1.369v-.138l.816-.794c.218-.218.262-.349.262-.487 0-.139-.16-.364-.459-.364a.645.645 0 00-.531.218l-.146-.124a.89.89 0 01.728-.276c.393 0 .648.196.648.524a.803.803 0 01-.32.611l-.663.656h1.034zM418.842 236.366c0 .328-.233.582-.728.582a1.029 1.029 0 01-.728-.254l.102-.16a.844.844 0 00.604.225c.321 0 .503-.145.503-.393 0-.247-.168-.386-.532-.386h-.138v-.145l.546-.677h-.997v-.182h1.252v.145l-.554.692c.445.022.67.24.67.553zM433.628 236.417h-.393v.51h-.204v-.51h-1.085v-.16l1.034-1.296h.226l-1.012 1.296h.844v-.452h.197v.452h.393v.16zM447.722 236.352c0 .334-.226.596-.728.596a1.017 1.017 0 01-.728-.254l.095-.161a.858.858 0 00.604.226c.328 0 .51-.16.51-.4 0-.24-.161-.401-.656-.401h-.415l.102-.982h1.063v.182h-.888l-.066.618h.248c.641 0 .859.233.859.576zM462.304 236.344a.626.626 0 01-.204.447.618.618 0 01-.466.157c-.517 0-.801-.364-.801-.982 0-.619.364-1.005.896-1.005a.88.88 0 01.458.102l-.08.167a.622.622 0 00-.378-.094c-.423 0-.692.269-.692.801v.16a.629.629 0 01.597-.335.583.583 0 01.616.339.582.582 0 01.054.243zm-.197 0c0-.255-.189-.422-.495-.422a.454.454 0 00-.502.43c0 .211.182.414.517.414a.42.42 0 00.332-.101.436.436 0 00.148-.313v-.008zM476.645 234.976v.145l-.815 1.806h-.204l.808-1.769h-1.004v.364h-.204v-.546h1.419zM476.755 229.646c0 .102-22.568.19-50.451.19-27.882 0-50.457-.088-50.457-.19 0-.102 22.568-.189 50.457-.189 27.89 0 50.451.08 50.451.189zM476.755 217.445c0 .102-22.568.189-50.451.189-27.882 0-50.457-.087-50.457-.189 0-.102 22.568-.189 50.457-.189 27.89 0 50.451.073 50.451.189zM476.755 205.244c0 .109-22.568.189-50.451.189-27.882 0-50.457-.08-50.457-.189s22.568-.189 50.457-.189c27.89 0 50.451.087 50.451.189z"/>
        <path fill="#5F5AF6" d="M375.847 229.464a.642.642 0 01-.11.36.645.645 0 01-.996.098.644.644 0 01.098-.996.642.642 0 01.818.08.65.65 0 01.19.458zM390.356 229.464a.642.642 0 01-.11.36.645.645 0 01-.997.098.65.65 0 01-.14-.706.645.645 0 01.239-.29.642.642 0 01.818.08.65.65 0 01.19.458zM404.857 229.464a.648.648 0 11-1.297 0 .648.648 0 011.297 0zM419.366 229.464a.648.648 0 11-1.297 0 .648.648 0 011.297 0zM433.875 229.464a.648.648 0 11-1.297 0 .648.648 0 011.297 0zM462.894 229.464a.642.642 0 01-.11.36.645.645 0 01-.997.098.65.65 0 01-.14-.706.645.645 0 01.239-.29.64.64 0 01.36-.11.652.652 0 01.648.648zM448.384 229.464a.648.648 0 11-1.297 0 .648.648 0 011.297 0zM477.403 229.464a.642.642 0 01-.11.36.645.645 0 01-.996.098.644.644 0 01.098-.996.642.642 0 01.818.08.65.65 0 01.19.458z"/>
        <path fill="#E0E0E0" d="M382.442 229.646a.427.427 0 01-.267.398.432.432 0 01-.469-.097.426.426 0 01-.088-.47.434.434 0 01.565-.227.423.423 0 01.259.396zM397.002 229.646a.425.425 0 01-.123.299.425.425 0 01-.299.123.427.427 0 01-.447-.248.434.434 0 01.108-.5.428.428 0 01.339-.103.423.423 0 01.422.429zM411.155 230.068a.422.422 0 100-.844.422.422 0 000 .844zM425.722 230.068a.422.422 0 100-.844.422.422 0 000 .844zM440.282 230.068a.422.422 0 100-.844.422.422 0 000 .844zM455.242 229.646a.43.43 0 01-.429.423.43.43 0 010-.852c.114 0 .223.045.303.126.081.08.126.189.126.303zM469.802 229.646a.427.427 0 01-.267.398.432.432 0 01-.469-.097.426.426 0 01-.088-.47.434.434 0 01.565-.227.423.423 0 01.259.396z"/>
        <path fill="#5F5AF6" d="M391.295 224.252a1.598 1.598 0 01-.981 1.479 1.592 1.592 0 01-1.495-2.8 1.598 1.598 0 012.009.201c.297.297.465.7.467 1.12zM403.955 216.782a1.593 1.593 0 01-.98 1.478 1.588 1.588 0 01-1.739-.34 1.594 1.594 0 112.719-1.138zM419.665 217.445a1.6 1.6 0 01-.979 1.479 1.599 1.599 0 01-2.179-1.158 1.591 1.591 0 01.677-1.638 1.591 1.591 0 011.496-.151c.194.079.369.196.517.344a1.573 1.573 0 01.468 1.124zM434.997 203.867a1.591 1.591 0 01-.98 1.467 1.59 1.59 0 01-2.164-1.157 1.59 1.59 0 01.675-1.629 1.583 1.583 0 012.348.712c.079.193.121.399.121.607zM449.324 212.502a1.583 1.583 0 01-.98 1.466 1.59 1.59 0 01-1.73-.344 1.582 1.582 0 01-.344-1.729 1.585 1.585 0 011.467-.98 1.569 1.569 0 011.124.463 1.593 1.593 0 01.463 1.124zM463.833 214.802a1.583 1.583 0 01-.98 1.466 1.585 1.585 0 01-1.489-2.786 1.59 1.59 0 01.882-.267 1.597 1.597 0 011.587 1.587z"/>
        <path fill="#5F5AF6" d="M477.403 224.252c-.126.01-.253.01-.379 0a9.258 9.258 0 01-1.077-.145 8.25 8.25 0 01-3.779-1.791 7.9 7.9 0 01-1.849-2.417 18.397 18.397 0 00-1.973-3.007 6.458 6.458 0 00-3.283-2.286 4.163 4.163 0 00-2.184.08 5.82 5.82 0 00-2.009 1.136c-1.238 1.034-2.148 2.504-3.349 3.837a6.647 6.647 0 01-2.184 1.696c-.9.398-1.908.48-2.861.233a3.607 3.607 0 01-2.184-2.002 13.69 13.69 0 01-.939-2.912 16.863 16.863 0 00-.867-2.912 2.334 2.334 0 00-.924-1.114 3.11 3.11 0 00-1.456-.284 24.45 24.45 0 00-3.189.568 9.8 9.8 0 01-1.682.189 3.785 3.785 0 01-1.71-.335 3.553 3.553 0 01-1.362-1.135 8.533 8.533 0 01-.83-1.544c-.458-1.077-.764-2.184-1.179-3.283a7.807 7.807 0 00-.772-1.536 2.788 2.788 0 00-1.252-1.063c-.131-.036-.262-.087-.393-.116l-.422-.044a1.457 1.457 0 00-.772.16 3.23 3.23 0 00-1.165 1.216 15.063 15.063 0 00-1.346 3.334 68.675 68.675 0 00-.918 3.574c-.466 2.002-.881 3.997-1.39 5.948a29.93 29.93 0 01-.896 2.912 7.559 7.559 0 01-1.507 2.621 2.085 2.085 0 01-1.456.633 2.906 2.906 0 01-1.456-.444 6.932 6.932 0 01-2.06-2.082 25.64 25.64 0 01-2.49-5.052 11.637 11.637 0 00-2.781-4.477 5.192 5.192 0 00-4.659-1.136 7.864 7.864 0 00-2.184.976c-.682.415-1.329.885-1.936 1.405a25.736 25.736 0 00-3.24 3.254 34.44 34.44 0 01-4.79 3.982 23.188 23.188 0 01-4.907 2.657 10.699 10.699 0 01-4.805.801 16.476 16.476 0 01-4.004-.968 37.881 37.881 0 01-5.198-2.374c-.575-.313-1.004-.567-1.295-.728a4.376 4.376 0 01-.43-.284l.451.241 1.318.728a40.367 40.367 0 005.213 2.293 16.47 16.47 0 003.96.924c1.61.087 3.218-.195 4.703-.822a22.77 22.77 0 004.834-2.657 34.517 34.517 0 004.732-3.961 25.503 25.503 0 013.268-3.312 16.03 16.03 0 011.973-1.456 8.12 8.12 0 012.308-1.019 5.538 5.538 0 014.972 1.194 12.086 12.086 0 012.912 4.601 25.121 25.121 0 002.454 4.979 6.636 6.636 0 001.951 1.973c.384.243.826.379 1.281.393a1.748 1.748 0 001.172-.531 7.19 7.19 0 001.412-2.483c.343-.917.619-1.878.881-2.846.51-1.937.918-3.931 1.384-5.941.283-1.208.575-2.409.924-3.596a15.345 15.345 0 011.391-3.422 3.51 3.51 0 011.317-1.354c.295-.15.624-.218.954-.196l.48.043c.153 0 .306.095.459.139.593.241 1.1.654 1.456 1.186.333.505.604 1.048.808 1.616.422 1.107.728 2.228 1.179 3.269.452 1.041 1.005 2.075 2.002 2.497a5.234 5.234 0 003.175.117 25.114 25.114 0 013.246-.561 3.301 3.301 0 011.638.335c.486.297.863.74 1.078 1.267a16.9 16.9 0 01.873 3.006c.202.974.507 1.923.91 2.832a3.282 3.282 0 001.981 1.849 4.086 4.086 0 002.65-.218 6.364 6.364 0 002.082-1.609c1.186-1.303 2.111-2.781 3.392-3.844a6.14 6.14 0 012.111-1.179 4.5 4.5 0 012.301-.066 6.611 6.611 0 013.385 2.388c.751.95 1.403 1.975 1.944 3.058a7.672 7.672 0 001.791 2.38 8.31 8.31 0 003.691 1.835c.352.08.71.138 1.07.175l.306.014z"/>
        <path fill="#3C5077" d="M391.448 196.887c0 .109-5.635.189-12.58.189s-12.58-.08-12.58-.189c0-.11 5.635-.19 12.58-.19s12.58.088 12.58.19z"/>
      </g>
      <g>
        <path fill="#5F5AF6" d="M94.533 385.373l.728 12.915s13.228 2.49 13.599 4.863l-24.796 3.458-2.01-20.078 12.479-1.158z"/>
        <path fill="#EBEBEB" d="M87.471 397.939a1.026 1.026 0 00-.597 1.23.993.993 0 001.216.605 1.095 1.095 0 00.626-1.311 1.02 1.02 0 00-1.34-.48M84.064 406.609l-.196-2.002 23.572-2.817s1.456.633 1.514 1.42l-24.89 3.399z"/>
        <path fill="#3C5077" d="M95.69 398.121c0 .124-.597.233-1.157.684-.56.452-.837.998-.954.954-.116-.044 0-.728.692-1.289.691-.56 1.434-.465 1.42-.349zM98.413 398.957c.044.117-.466.372-.837.925-.371.553-.43 1.114-.553 1.121-.124.007-.263-.677.203-1.361.466-.685 1.172-.801 1.187-.685zM100.204 401.95c-.109 0-.342-.553-.087-1.252.254-.699.793-1.02.851-.925.059.095-.255.488-.451 1.063-.197.575-.197 1.092-.313 1.114zM95.188 395.195c0 .116-.612 0-1.296.116s-1.208.379-1.281.284c-.073-.095.408-.582 1.216-.728.808-.146 1.412.233 1.361.328zM94.991 392.595c-.399.151-.832.189-1.252.109a5.39 5.39 0 01-2.075-.589 1.46 1.46 0 01-.407-.255.54.54 0 01-.117-.648.67.67 0 01.51-.328c.157-.023.316-.023.473 0 .272.042.54.105.8.19.441.152.856.371 1.231.648.626.487.874.924.83.946-.044.022-.371-.306-.997-.692a4.986 4.986 0 00-1.18-.524 4.752 4.752 0 00-.728-.153c-.269-.043-.495 0-.553.095-.058.095 0 .066.044.138.089.079.19.143.298.19.236.12.479.225.728.313.406.155.825.272 1.252.349a8.69 8.69 0 011.143.211z"/>
        <path fill="#3C5077" d="M94.882 392.777c-.044 0-.327-.393-.444-1.179a4.085 4.085 0 010-1.383 5.23 5.23 0 01.248-.794 1.048 1.048 0 01.728-.728.601.601 0 01.553.299c.08.141.14.293.175.451a2.859 2.859 0 01-.335 2.184c-.422.728-.917.888-.932.845-.015-.044.357-.328.67-.99.179-.379.276-.79.284-1.209a2.456 2.456 0 00-.095-.728c-.066-.262-.182-.466-.277-.429-.094.036-.32.225-.4.451-.106.234-.19.478-.248.728-.097.415-.139.841-.123 1.267.05.757.196 1.215.196 1.215z"/>
        <path fill="#5F5AF6" d="M38.36 383.714l-2.912 15.972-5.926 11.976a1.663 1.663 0 00.301 1.891 1.659 1.659 0 002.073.256c2.912-1.834 13.548-8.626 13.693-9.806.168-1.368 4.157-16.649 4.157-16.649l-11.386-3.64z"/>
        <path fill="#EBEBEB" d="M30.41 413.933l15.427-11.007-.139.677a2.483 2.483 0 01-.902 1.456c-1.252.983-4.769 3.64-12.82 8.736a1.668 1.668 0 01-1.566.116v.022zM43.624 398.274a1.003 1.003 0 00-.539 1.23.966.966 0 001.223.539 1.065 1.065 0 00.553-1.311.997.997 0 00-1.325-.415"/>
        <path fill="#3C5077" d="M35.463 407.73a4.851 4.851 0 00-1.143-1.521 4.985 4.985 0 00-1.755-.728c0-.044.219-.124.605-.102.5.044.975.234 1.368.546.4.305.704.72.874 1.194.116.364.095.604.05.611zM33.898 409.623c-.088.058-.495-.568-1.267-.969-.494-.203-1-.376-1.514-.516a1.836 1.836 0 011.682.203c.88.452 1.186 1.26 1.099 1.282zM38.098 405.43a15.557 15.557 0 00-1.856-1.631A17.593 17.593 0 0034 402.766a4.549 4.549 0 014.098 2.664zM39.416 400.647c-.066.087-.866-.459-2.002-.728-1.136-.27-2.097-.182-2.111-.292.7-.272 1.472-.29 2.184-.05.748.121 1.43.5 1.929 1.07zM40.377 395.98a8.184 8.184 0 00-2.06-.822 8.158 8.158 0 00-2.184.102c0-.037.196-.204.604-.343a3.597 3.597 0 011.674-.109c.56.09 1.09.315 1.544.655.327.263.451.488.422.517zM38.528 394.277a1.322 1.322 0 01.102-.605 4.124 4.124 0 01.793-1.456c.239-.34.581-.596.976-.728a.683.683 0 01.728.299c.126.236.162.511.102.772a2.35 2.35 0 01-2.468 1.674 2.726 2.726 0 01-2.337-1.936.973.973 0 01.109-.779.67.67 0 01.728-.204c.376.166.7.43.94.764.36.432.64.925.83 1.456.087.187.132.391.13.597a7.411 7.411 0 00-1.15-1.893 2.19 2.19 0 00-.837-.64.335.335 0 00-.219-.013.335.335 0 00-.182.122.638.638 0 00-.043.517 2.418 2.418 0 002.096 1.674 2.038 2.038 0 002.104-1.456.78.78 0 00-.05-.539.366.366 0 00-.387-.174 1.756 1.756 0 00-.837.597 6.224 6.224 0 00-1.128 1.951z"/>
        <path fill="#3C5077" d="M39.365 275.831c-.168 0-5.467 120.943-5.467 120.943h16.168l7.863-65.52 4.07-50.072 8.386 46.876 10.192 66.721 16.27-3.495-11.043-119.173-23.07-12.784-23.37 16.504z"/>
        <path fill="#FFBE9D" d="M53.102 190.094l15.288-1.223c.095-1.783 0-8.685 0-8.685s6.356-.99 6.436-7.353c.08-6.362-1.056-20.959-1.056-20.959a22.098 22.098 0 00-22.204 2.788l-.946.728 2.482 34.704z"/>
        <path fill="#EB996E" d="M68.368 180.092a14.78 14.78 0 01-8.291-2.359s1.958 4.58 8.306 4.004l-.014-1.645z"/>
        <path fill="#FFBE9D" d="M51.406 162.001c-.11-.051-4.368-1.296-4.23 3.05.139 4.347 4.478 3.313 4.478 3.189 0-.124-.248-6.239-.248-6.239z"/>
        <path fill="#EB996E" d="M50.27 166.616s-.072.051-.196.117a.729.729 0 01-.568 0 1.87 1.87 0 01-.917-1.653 2.42 2.42 0 01.174-1.092.865.865 0 01.554-.597.39.39 0 01.451.19c.066.123 0 .211.058.218.059.007.095-.08.051-.255a.497.497 0 00-.175-.269.58.58 0 00-.422-.095 1.06 1.06 0 00-.771.728 2.543 2.543 0 00-.226 1.216 1.97 1.97 0 001.165 1.842.805.805 0 00.728-.138c.094-.11.116-.204.094-.212z"/>
        <path fill="#3C5077" d="M72.489 162.285a.904.904 0 01-.874.917.875.875 0 01-.931-.822.904.904 0 01.873-.917.86.86 0 01.848.488.87.87 0 01.084.334zM72.569 160.821c-.11.117-.8-.393-1.776-.393s-1.697.495-1.799.372c-.101-.124.059-.262.372-.495a2.506 2.506 0 011.456-.444 2.42 2.42 0 011.412.458c.291.226.393.444.335.502zM62.989 162.285a.914.914 0 01-.874.917.867.867 0 01-.643-.214.871.871 0 01-.296-.609.917.917 0 01.873-.917.87.87 0 01.855.487c.05.105.08.219.084.336zM62.967 161.003c-.117.117-.808-.393-1.784-.393-.975 0-1.689.495-1.798.372-.11-.124.065-.263.379-.488a2.494 2.494 0 012.853 0c.299.24.4.451.35.509zM66.49 168.247a6.687 6.687 0 011.587-.284c.248 0 .48-.073.524-.247a1.228 1.228 0 00-.167-.728l-.728-1.901a32.848 32.848 0 01-1.66-4.972 31.8 31.8 0 012.053 4.827l.728 1.907c.155.303.199.651.124.983a.636.636 0 01-.408.364c-.137.038-.28.058-.422.058a6.225 6.225 0 01-1.63-.007zM63.636 168.924c.153 0 .16 1.048 1.063 1.805.903.758 2.039.634 2.046.787.007.153-.248.203-.728.218a2.655 2.655 0 01-1.703-.597 2.301 2.301 0 01-.83-1.514c-.044-.444.094-.706.152-.699zM63.214 157.175c-.094.262-1.07.138-2.184.276-1.114.139-2.067.452-2.184.212-.073-.117.088-.364.466-.619a3.693 3.693 0 011.645-.583 3.786 3.786 0 011.74.204c.35.175.56.379.517.51zM72.212 157.99c-.174.225-.844 0-1.66 0-.815 0-1.492.153-1.652-.08-.066-.11.043-.335.342-.546a2.383 2.383 0 012.664.087c.284.182.408.429.306.539z"/>
        <path fill="#3C5077" d="M76.871 147.856a2.357 2.357 0 00-.866-2.097 1.676 1.676 0 00-2.184.161 1.947 1.947 0 00-.909-2.095 1.945 1.945 0 00-.765-.257c-1.034-.065-1.922.728-2.912.99a4.696 4.696 0 01-2.963-.342c-.947-.378-1.828-.903-2.774-1.252a8.133 8.133 0 00-10.403 4.776 3.635 3.635 0 00-3.83 1.456 5.939 5.939 0 00-.91 4.171c.137.975.382 1.932.729 2.854v.247c.065 3.495.466 7.601 1.958 7.622 2.599.044 1.98-4.855 1.98-4.855 3.189-1.231 2.002-6.014 2.796-6.742.793-.728 2.468-2.409 9.15 1.005a12.934 12.934 0 007.929.859h.262a5.803 5.803 0 001.71-.728 3.379 3.379 0 001.413-1.565 1.862 1.862 0 00-.364-1.995c.536-.623.869-1.395.953-2.213z"/>
        <path fill="#FFBE9D" d="M111.575 240.501c.058.054.111.113.16.175.277.364.728 1.296.255 2.912a54.344 54.344 0 01-2.096 5.278s.509 2.184 0 2.686c-.51.502-8.802 0-8.802 0s-1.456-.794-.335-1.456h5.824"/>
        <path fill="#5F5AF6" d="M37.028 193.116s-7.17 2.272-10.512 16.431c-2.46 10.396-9.413 31.079-7.651 34.376 2.184 4.092 27.54 10.622 27.54 10.622l2.184-9.683-12.726-8.604 6.8-22.991s.771-19.088-5.635-20.151z"/>
        <path fill="#5F5AF6" d="M39.037 219.513c0 1.085 3.233 22.663 3.233 22.663l-6.421 35.075 24.868 1.31 2.767-15.128 3.428 15.128 22.38-5.438-5.737-23.93 2.183-30.765-2.402-25.56-9.202-3.13-4.732-5.555-7.68 4.79-9.464-5.678-3 4.091-12.208 5.73c-1.238 2.227 1.987 26.397 1.987 26.397z"/>
        <path fill="#fff" fill-opacity=".8" d="M52.236 183.295l-.313 6.799 13.104 34.792 5.285-34.18-1.718-6.552-6.858 4.834-9.5-5.693z"/>
        <path fill="#5F5AF6" d="M83.322 192.876s6.268 5.096 8.393 11.051c2.126 5.955 5.628 13.89 5.628 13.89H85.695l-2.373-24.941z"/>
        <path fill="#3C5077" d="M64.707 226.203a1.71 1.71 0 01-.313-.371l-.816-1.121c-.728-1.027-1.776-2.439-3.043-4.172l-9.908-13.832-1.638-2.3-.073-.109.073-.11c.896-1.295 1.77-2.548 2.599-3.756l.036.247-5.765-4.302-.088-.066v-.109c1.027-2.671 1.871-4.87 2.483-6.45l.728-1.762c.073-.212.165-.416.276-.611a3.657 3.657 0 01-.189.641c-.16.451-.371 1.048-.626 1.798-.582 1.587-1.383 3.8-2.359 6.493l-.05-.174 5.823 4.259.139.101-.095.146-2.584 3.757v-.175l1.638 2.3 9.813 13.891 2.912 4.237.786 1.164c.09.122.171.251.24.386z"/>
        <path fill="#3C5077" d="M63.578 262.465a1.715 1.715 0 010-.379v-1.085c0-.997.066-2.344.11-3.982.116-3.407.276-8.008.444-13.104.167-5.096.298-9.719.4-13.104.044-1.638.08-2.985.11-3.982v-1.077a1.32 1.32 0 01.043-.379 1.57 1.57 0 010 .379V230.818c0 3.357-.117 8.008-.291 13.104a766.713 766.713 0 01-.554 13.104c-.094 1.638-.174 2.978-.233 3.975 0 .43-.058.787-.08 1.078.037.125.055.255.051.386zM65.253 225.192a1.46 1.46 0 01.123-.401c.117-.291.255-.655.43-1.106.415-1.005.975-2.381 1.66-4.055l5.584-13.323 1.339-3.145v.197l-3.043-3.64-.102-.124.11-.109 4.41-4.565v.139c-.589-1.697-1.062-3.08-1.411-4.099-.153-.451-.27-.823-.364-1.121a2.326 2.326 0 01-.11-.401c.075.119.133.246.175.379l.437 1.092c.379 1.005.895 2.381 1.522 4.062v.073l-.059.066-4.368 4.615v-.233l3.058 3.64.08.087-.044.102-1.34 3.153c-2.183 5.161-4.214 9.828-5.685 13.271-.728 1.66-1.332 3.014-1.769 4.011l-.495 1.078a3.58 3.58 0 01-.138.357z"/>
        <path fill="#000" d="M45.924 196.261l3.851 4.31-2.664 4.775 16.46 19.54-14.45-20.581 2.584-3.764-5.78-4.28zM65.631 224.267l9.173-17.981-.24-3.051-8.933 21.032z" opacity=".3"/>
        <path fill="#3C5077" d="M21.696 246.15c0-.036.597.314 1.748.772 1.15.459 2.832 1.121 4.986 1.864a543.738 543.738 0 0017.545 5.591l-.226.124c.852-3.174 1.777-6.618 2.73-10.192l.088.211-.415-.262-12.376-7.855-.11-.066v-.124a8223.674 8223.674 0 014.442-15.251c.546-1.842.982-3.305 1.295-4.368.146-.481.27-.859.357-1.151.034-.132.08-.262.138-.385-.01.137-.04.271-.087.4a75.58 75.58 0 01-.306 1.165c-.284 1.048-.728 2.519-1.2 4.368a8236.55 8236.55 0 01-4.31 15.288l-.073-.197 12.376 7.826.414.262.117.073v.131c-.968 3.575-1.9 7.011-2.752 10.192l-.05.182-.183-.058c-7.134-2.184-13.235-4.172-17.516-5.722a78.631 78.631 0 01-4.957-1.958c-.581-.24-1.141-.528-1.675-.86zM36.788 196.661c.183.083.353.193.502.328.434.32.84.675 1.216 1.063a14.798 14.798 0 014.23 9.624 11.81 11.81 0 01-.037 1.616 1.732 1.732 0 01-.109.59c-.066 0 0-.852-.124-2.184a16.372 16.372 0 00-4.15-9.464c-.91-.99-1.572-1.515-1.528-1.573zM84.829 214.214c-.102 0-.46-3.953-.787-8.853-.327-4.899-.517-8.874-.415-8.881.102-.008.459 3.96.794 8.859.335 4.9.517 8.867.407 8.875zM70.247 190.822a2.516 2.516 0 01-.393.437c-.263.27-.656.663-1.172 1.158a33.075 33.075 0 01-4.565 3.72l-.24.16v-.291a12.081 12.081 0 00-.59-3.873 10.12 10.12 0 00-.94-1.937c-.198-.31-.41-.616-.632-.917l-.08-.116-.044-.059.233.051a.644.644 0 00-.168.175 3.231 3.231 0 00-.284.459 13.469 13.469 0 00-.91 3.319 85.106 85.106 0 00-.524 3.189l-.043.299-.233-.19-5.555-4.426-1.558-1.281a3.528 3.528 0 01-.539-.488c.216.11.419.245.605.4l1.623 1.209 5.635 4.317-.277.109c.138-1.019.299-2.089.502-3.203.159-1.178.475-2.328.94-3.422.087-.186.194-.361.32-.524.066-.093.144-.176.233-.247h.044l.24.051.043.058.088.116c.233.313.451.634.648.954a10.4 10.4 0 01.968 2.009 12.38 12.38 0 01.568 3.982l-.255-.131a38.928 38.928 0 004.623-3.581l1.23-1.092c.138-.148.292-.28.459-.394z"/>
        <path fill="#3C5077" d="M64.685 224.565c-.11 0-.86-7.898-1.682-17.668s-1.405-17.69-1.303-17.698c.102-.007.859 7.899 1.682 17.669.822 9.77 1.405 17.69 1.303 17.697z"/>
        <path fill="#000" d="M41.68 216.783s-.64 17.13-.633 17.166l-1.493-10.119 2.126-7.047z" opacity=".3"/>
        <path fill="#455A64" d="M54.318 242.809l6.552 7.28h45.74l15.179-29.171a2.124 2.124 0 00-.065-2.081 2.121 2.121 0 00-1.813-1.021H75.139a2.121 2.121 0 00-1.958 1.311l-9.239 22.226-8.852-.233a1.011 1.011 0 00-.772 1.689z"/>
        <path fill="#3C5077" d="M54.354 241.433c.18.133.347.284.495.452l1.333 1.332 4.703 4.841-.255.044a858.67 858.67 0 004.593-10.287 742.506 742.506 0 005.693-13.38c.728-1.682 1.274-3.058 1.697-4.063l.473-1.106c.045-.132.109-.257.19-.371a1.767 1.767 0 01-.117.4c-.11.298-.248.67-.408 1.128-.364.976-.903 2.381-1.587 4.114a391.99 391.99 0 01-5.591 13.431 445.255 445.255 0 01-4.66 10.265l-.094.211-.16-.167-4.616-4.936c-.517-.575-.939-1.041-1.266-1.391a3.41 3.41 0 01-.423-.517z"/>
        <path fill="#fff" fill-opacity=".8" d="M93.463 236.112a2.558 2.558 0 01-3.32-1.99 2.556 2.556 0 014.82-1.548 2.736 2.736 0 01-1.5 3.538z"/>
        <path fill="#FFBE9D" d="M48.669 244.847l4.142-.386s7.447-2.482 8.692-2.264a1.848 1.848 0 01-.953 2.046c-1.31.801-3.284 1.754-3.284 1.754l2.97 3.393a2.037 2.037 0 001.53.728h9.74a2.382 2.382 0 01-1.383 1.529c-1.027.291-8.125 2.409-8.125 2.409l-15.411-1.623 2.082-7.586z"/>
      </g>
    </g>
    <defs>
      <clipPath id="clip0_1509_9431">
        <path fill="#fff" d="M0 0h500v500H0z"/>
      </clipPath>
    </defs>
  </svg>
  