<svg width="658" height="444" viewbox="0 0 658 444" fill="none" xmlns="http://www.w3.org/2000/svg">
    <path d="M658 384.238H0V384.567H658V384.238Z" fill="#EBEBEB"/>
    <path d="M435.886 408.992H424.449V409.321H435.886V408.992Z" fill="#EBEBEB"/>
    <path d="M103.253 396.767H69.0374V397.096H103.253V396.767Z" fill="#EBEBEB"/>
    <path d="M375.428 393.2H304.233V393.529H375.428V393.2Z" fill="#EBEBEB"/>
    <path d="M194.623 408.992H104.569V409.321H194.623V408.992Z" fill="#EBEBEB"/>
    <path d="M603.741 399.688H529.164V400.017H603.741V399.688Z" fill="#EBEBEB"/>
    <path d="M517.451 399.688H487.091V400.017H517.451V399.688Z" fill="#EBEBEB"/>
    <path d="M411.632 401.228H339.831V401.557H411.632V401.228Z" fill="#EBEBEB"/>
    <path d="M200.243 384.067H351.688L351.688 36.1039H200.243L200.243 384.067Z" fill="#F0F0F0"/>
    <path d="M64.6024 384.067L349.938 384.067L349.938 36.1039L64.6024 36.1039L64.6024 384.067Z" fill="#F5F5F5"/>
    <path d="M342.239 376.185V44.0129L208.152 44.0129L208.152 376.185H342.239Z" fill="#F0F0F0"/>
    <path d="M210.192 376.171L210.192 43.9998H208.139L208.139 376.171H210.192Z" fill="#F0F0F0"/>
    <path d="M226.049 202.433C229.763 202.433 232.774 199.422 232.774 195.708C232.774 191.994 229.763 188.984 226.049 188.984C222.335 188.984 219.325 191.994 219.325 195.708C219.325 199.422 222.335 202.433 226.049 202.433Z" fill="#E0E0E0"/>
    <path d="M223.417 201.038C227.131 201.038 230.142 198.027 230.142 194.313C230.142 190.599 227.131 187.589 223.417 187.589C219.703 187.589 216.693 190.599 216.693 194.313C216.693 198.027 219.703 201.038 223.417 201.038Z" fill="white"/>
    <path d="M206.401 376.171L206.401 43.9998L72.3142 43.9998L72.3142 376.171H206.401Z" fill="#F0F0F0"/>
    <path d="M193.755 202.433C197.469 202.433 200.479 199.422 200.479 195.708C200.479 191.994 197.469 188.984 193.755 188.984C190.041 188.984 187.03 191.994 187.03 195.708C187.03 199.422 190.041 202.433 193.755 202.433Z" fill="#E0E0E0"/>
    <path d="M191.123 201.038C194.837 201.038 197.847 198.027 197.847 194.313C197.847 190.599 194.837 187.589 191.123 187.589C187.409 187.589 184.398 190.599 184.398 194.313C184.398 198.027 187.409 201.038 191.123 201.038Z" fill="white"/>
    <path d="M365.795 207.368H431.451V36.1038H365.795V207.368Z" fill="#E6E6E6"/>
    <path d="M362.979 207.368H428.648V36.1038H362.979V207.368Z" fill="#F5F5F5"/>
    <path d="M423.62 199.84V43.6444H368.019V199.84H423.62Z" fill="white"/>
    <path d="M370.138 199.84V43.6444H368.019V199.84H370.138Z" fill="#E6E6E6"/>
    <path d="M365.072 164.716H426.568V154.596H365.072V164.716Z" fill="#F5F5F5"/>
    <path d="M446.769 207.368H512.424V36.1038H446.769V207.368Z" fill="#E6E6E6"/>
    <path d="M443.953 207.368H509.621V36.1038H443.953V207.368Z" fill="#F5F5F5"/>
    <path d="M504.581 199.84V43.6444H448.98V199.84H504.581Z" fill="white"/>
    <path d="M451.112 199.841V43.6445H448.993V199.841H451.112Z" fill="#E6E6E6"/>
    <path d="M446.045 164.716H507.542V154.596H446.045V164.716Z" fill="#F5F5F5"/>
    <path d="M527.742 207.368H593.398V36.1038H527.742V207.368Z" fill="#E6E6E6"/>
    <path d="M524.926 207.368H590.594V36.1038H524.926V207.368Z" fill="#F5F5F5"/>
    <path d="M585.554 199.84V43.6444H529.953V199.84H585.554Z" fill="white"/>
    <path d="M532.072 199.841V43.6445H529.953V199.841H532.072Z" fill="#E6E6E6"/>
    <path d="M527.005 164.716H588.502V154.596H527.005V164.716Z" fill="#F5F5F5"/>
    <path d="M161.105 17.3508L162.96 18.2983H253.435V0.177002L161.105 17.3508Z" fill="#E0E0E0"/>
    <path d="M249.935 17.3508H161.105L164.605 0.177002H253.435L249.935 17.3508Z" fill="#F5F5F5"/>
    <path d="M504.502 273.392H435.886V384.238H504.502V273.392Z" fill="#F0F0F0"/>
    <path d="M504.502 273.392L549.93 245.243V384.238H504.502V273.392Z" fill="#E0E0E0"/>
    <path d="M435.886 273.392L481.314 245.243H549.93L504.502 273.392H435.886Z" fill="#EBEBEB"/>
    <path d="M450.309 269.444L482.998 249.191H535.507L502.817 269.444H450.309Z" fill="#E0E0E0"/>
    <path d="M482.998 269.444V249.191H535.507L502.817 269.444H482.998Z" fill="#E6E6E6"/>
    <path d="M329 443.669C469.921 443.669 584.159 436.999 584.159 428.772C584.159 420.544 469.921 413.875 329 413.875C188.079 413.875 73.8408 420.544 73.8408 428.772C73.8408 436.999 188.079 443.669 329 443.669Z" fill="#F5F5F5"/>
    <path d="M160.381 45.9211C157.749 49.777 158.578 52.58 160.802 60.2392C161.723 63.4107 163.145 66.5691 167.514 61.8973C171.883 57.2255 176.133 48.3425 170.527 46.8423C167.226 45.9409 163.791 45.629 160.381 45.9211V45.9211Z" fill="#263238"/>
    <path d="M160.262 416.467H150.498L150.077 393.819H159.855L160.262 416.467Z" fill="#FFC3BD"/>
    <path d="M218.969 416.467H209.191L204.835 393.819H214.613L218.969 416.467Z" fill="#FFC3BD"/>
    <path d="M208.52 415.296H219.509C219.7 415.295 219.885 415.36 220.034 415.48C220.183 415.6 220.285 415.767 220.325 415.954L222.049 424.653C222.085 424.867 222.074 425.086 222.017 425.296C221.96 425.505 221.857 425.699 221.717 425.865C221.576 426.031 221.401 426.163 221.204 426.254C221.007 426.345 220.792 426.391 220.575 426.39C216.732 426.39 214.876 426.1 210.047 426.1C207.073 426.1 200.953 426.403 196.887 426.403C192.82 426.403 192.347 422.35 194.031 421.981C201.611 420.336 204.559 418.033 206.967 415.888C207.399 415.515 207.949 415.305 208.52 415.296V415.296Z" fill="#263238"/>
    <path d="M150.59 415.296H161.263C161.454 415.295 161.639 415.36 161.788 415.48C161.936 415.6 162.039 415.767 162.079 415.954L163.789 424.653C163.83 424.865 163.824 425.084 163.77 425.294C163.716 425.503 163.616 425.698 163.477 425.864C163.339 426.031 163.165 426.164 162.969 426.255C162.772 426.346 162.558 426.392 162.342 426.39C158.499 426.39 152.932 426.1 148.089 426.1C142.431 426.1 137.561 426.403 130.903 426.403C126.955 426.403 125.875 422.35 127.56 421.981C135.245 420.31 141.496 420.126 148.208 416.059C148.916 415.589 149.741 415.325 150.59 415.296V415.296Z" fill="#263238"/>
    <path d="M153.13 107.234L139.786 102.957C139.786 102.957 125.994 134.883 121.362 136.87C115.084 139.502 106.306 148.095 100.069 153.294C99.8712 154.939 100.635 159.268 101.622 160.4C112.873 157.768 126.902 151.32 131.495 147.069C141.996 137.37 153.13 107.234 153.13 107.234Z" fill="#FFC3BD"/>
    <path d="M156.249 99.8904C159.999 108.444 144.931 135.607 144.931 135.607L124.994 126.395C127.444 118.113 130.756 110.112 134.877 102.522C141.141 91.5601 152.13 90.4942 156.249 99.8904Z" fill="#EC4899"/>
    <path opacity="0.7" d="M156.249 99.8904C159.999 108.444 144.931 135.607 144.931 135.607L124.994 126.395C127.444 118.113 130.756 110.112 134.877 102.522C141.141 91.5601 152.13 90.4942 156.249 99.8904Z" fill="white"/>
    <path opacity="0.2" d="M139.496 114.787C137.563 120.077 136.053 125.511 134.982 131.04L144.931 135.646C144.931 135.646 155.538 116.538 156.775 105.378C150.972 101.509 143.128 105.154 139.496 114.787Z" fill="black"/>
    <path d="M101.424 152.346L89.7907 154.202L92.8043 166.48C96.8719 164.741 100.649 162.389 104.003 159.505L101.424 152.346Z" fill="#FFC3BD"/>
    <path d="M79.7233 159.4L83.9608 166.164L92.8043 166.48L89.7907 154.202L79.7233 159.4Z" fill="#FFC3BD"/>
    <path opacity="0.2" d="M150.077 393.832L150.287 405.505H160.065L159.855 393.832H150.077Z" fill="black"/>
    <path opacity="0.2" d="M214.613 393.832H204.835L207.086 405.505H216.864L214.613 393.832Z" fill="black"/>
    <path d="M143.444 94.3368C143.444 94.3368 131.179 127.934 140.812 182.917H193.097C193.649 174.889 189.57 131.659 198.242 93.8367C192.48 92.7194 186.651 91.9809 180.792 91.6258C173.389 91.1978 165.968 91.1978 158.565 91.6258C153.463 92.1413 148.407 93.0476 143.444 94.3368V94.3368Z" fill="#EC4899"/>
    <path opacity="0.7" d="M143.444 94.3368C143.444 94.3368 131.179 127.934 140.812 182.917H193.097C193.649 174.889 189.57 131.659 198.242 93.8367C192.48 92.7194 186.651 91.9809 180.792 91.6258C173.389 91.1978 165.968 91.1978 158.565 91.6258C153.463 92.1413 148.407 93.0476 143.444 94.3368V94.3368Z" fill="white"/>
    <path opacity="0.2" d="M186.661 103.18C185.648 109.405 187.24 124.236 192.741 141.502C193.006 126.76 194.565 112.07 197.4 97.6004V97.5215C194.005 97.1793 187.648 97.3372 186.661 103.18Z" fill="black"/>
    <path d="M178.41 70.833C176.831 77.992 175.923 86.8487 180.805 91.6258C180.805 91.6258 177.752 98.877 164.461 98.877C152.314 98.877 158.578 91.6258 158.578 91.6258C166.592 89.7176 166.474 79.8608 165.158 74.3072L178.41 70.833Z" fill="#FFC3BD"/>
    <path d="M163.829 98.3112L160.96 101.496C160.857 101.605 160.786 101.739 160.754 101.885C160.721 102.031 160.729 102.183 160.776 102.325L161.697 105.128C161.748 105.285 161.846 105.422 161.978 105.521C162.11 105.62 162.269 105.675 162.434 105.681L165.526 105.839C165.674 105.846 165.821 105.815 165.953 105.748C166.084 105.681 166.196 105.581 166.277 105.457L168.132 102.733C168.246 102.589 168.309 102.41 168.309 102.226C168.309 102.042 168.246 101.864 168.132 101.72L165.132 98.298C165.053 98.2002 164.953 98.1215 164.84 98.0679C164.727 98.0143 164.602 97.9871 164.477 97.9883C164.352 97.9896 164.228 98.0193 164.116 98.0752C164.004 98.1312 163.905 98.2118 163.829 98.3112V98.3112Z" fill="#263238"/>
    <path d="M164.5 97.6005C165.967 100.071 166.782 102.874 166.869 105.747C166.869 105.747 183.661 99.8772 183.095 91.2706C183.095 91.2706 180.766 89.8624 179.292 88.7175C179.266 88.7307 178.568 94.1921 164.5 97.6005Z" fill="white"/>
    <path d="M164.5 97.6004C162.915 99.9227 161.752 102.507 161.065 105.233C161.065 105.233 153.643 100.127 156.117 91.6258C157.515 91.0755 158.954 90.6354 160.42 90.3098C160.42 90.3098 159.236 95.758 164.5 97.6004Z" fill="white"/>
    <path d="M163.184 104.049C162.71 103.891 156.696 139.16 157.367 145.516C157.63 151.381 158.861 157.162 161.013 162.624C161.013 162.624 163.645 156.123 163.881 145.082C163.881 134.185 164 110.418 164.961 104.286L163.184 104.049Z" fill="#263238"/>
    <path opacity="0.2" d="M165.158 74.3073C166.145 78.1751 166.027 82.2423 164.816 86.046C166.073 85.8751 167.298 85.5158 168.448 84.98C173.001 82.8613 175.291 79.5318 177.726 74.5705C177.936 73.2545 178.173 72.0701 178.45 70.8594L165.158 74.3073Z" fill="black"/>
    <path d="M153.854 66.556C154.229 67.7012 154.834 68.7581 155.63 69.6629C156.426 70.5677 157.398 71.3016 158.486 71.82C161.381 73.136 163.408 70.6488 163.079 67.6089C162.789 64.8584 160.92 60.8446 157.815 60.7788C157.126 60.7828 156.449 60.9535 155.841 61.2761C155.233 61.5987 154.712 62.0637 154.323 62.6314C153.934 63.1991 153.688 63.8526 153.606 64.536C153.524 65.2195 153.609 65.9126 153.854 66.556V66.556Z" fill="#FFC3BD"/>
    <path opacity="0.2" d="M153.854 66.556C154.229 67.7012 154.834 68.7581 155.63 69.6629C156.426 70.5677 157.398 71.3016 158.486 71.82C161.381 73.136 163.408 70.6488 163.079 67.6089C162.789 64.8584 160.92 60.8446 157.815 60.7788C157.126 60.7828 156.449 60.9535 155.841 61.2761C155.233 61.5987 154.712 62.0637 154.323 62.6314C153.934 63.1991 153.688 63.8526 153.606 64.536C153.524 65.2195 153.609 65.9126 153.854 66.556V66.556Z" fill="black"/>
    <path d="M184.424 62.1211C181.595 71.491 180.476 77.1235 174.515 80.9662C165.645 86.7435 155.091 79.8739 155.091 69.8987C155.091 60.9235 159.723 47.1056 169.803 45.3158C172.015 44.908 174.295 45.0837 176.417 45.8257C178.54 46.5676 180.433 47.8501 181.909 49.5466C183.385 51.2432 184.393 53.2952 184.834 55.5003C185.275 57.7054 185.134 59.9873 184.424 62.1211Z" fill="#FFC3BD"/>
    <path d="M178.976 50.4745C176.344 54.3304 177.186 57.1335 179.41 64.7926C180.331 67.9642 181.753 71.1226 186.109 66.4508C190.465 61.779 194.742 52.896 189.122 51.3957C185.821 50.4943 182.386 50.1825 178.976 50.4745V50.4745Z" fill="#263238"/>
    <path d="M180.042 53.3961C173.988 52.6591 158.986 51.3957 160.105 43.5787C161.223 35.7617 171.396 38.1173 171.396 38.1173C171.396 38.1173 166.356 40.7493 176.936 42.7891C187.517 44.8289 192.873 51.0931 188.096 53.6066C186.878 54.3571 185.468 54.7367 184.038 54.6994C182.607 54.662 181.219 54.2091 180.042 53.3961V53.3961Z" fill="#263238"/>
    <path d="M186.188 73.5177C184.448 75.2769 182.082 76.2753 179.608 76.2944C176.383 76.2944 175.66 73.2019 177.37 70.5962C178.871 68.2405 182.358 65.398 185.266 66.6482C188.175 67.8984 188.293 71.3463 186.188 73.5177Z" fill="#FFC3BD"/>
    <path d="M154.222 69.9118C153.946 74.7942 154.406 81.3611 158.17 82.6639C161.934 83.9667 171.804 83.5456 174.936 81.8348C179.831 79.2028 182.016 68.0037 184.293 65.8849C186.569 63.7661 182.266 62.7528 182.266 62.7528C182.266 62.7528 179.371 69.9118 174.646 70.2408C169.922 70.5698 154.564 63.7398 154.222 69.9118Z" fill="#263238"/>
    <path d="M175.186 182.917C175.186 182.917 174.146 195.208 172.83 211.869C171.317 230.753 169.461 255.297 168.356 273.944C168.356 274.05 168.356 274.129 168.356 274.208C168.145 277.748 167.961 281.077 167.803 284.117C166.329 314.583 163.276 403.242 163.276 403.242H146.695C146.695 403.242 138.364 312.767 138.009 281.762C137.68 251.941 140.812 182.917 140.812 182.917H175.186Z" fill="#EC4899"/>
    <path d="M164.5 398.188C164.566 398.188 164.355 403.597 164.355 403.597H145.273L144.615 397.517L164.5 398.188Z" fill="#263238"/>
    <path opacity="0.2" d="M172.83 211.869C171.317 230.753 169.461 255.297 168.356 273.945C168.356 274.05 168.356 274.129 168.356 274.208C164.303 256.494 162.658 234.465 163.237 198.196L172.83 211.869Z" fill="black"/>
    <path d="M159.368 182.917C159.368 182.917 168.58 253.56 174.041 281.617C179.963 312.266 202.585 403.307 202.585 403.307H220.496C220.496 403.307 206.362 314.74 203.296 284.394C199.979 251.494 193.11 182.983 193.11 182.983L159.368 182.917Z" fill="#EC4899"/>
    <path d="M220.601 398.57C220.68 398.57 221.378 403.571 221.378 403.571H201.638L200.032 397.833L220.601 398.57Z" fill="#263238"/>
    <path opacity="0.3" d="M213.534 392.661C213.495 392.658 213.458 392.643 213.43 392.616C213.401 392.59 213.382 392.555 213.376 392.516C213.245 391.608 200.506 312.74 197.755 285.473C194.768 255.876 188.543 190.273 188.543 189.615C188.539 189.572 188.552 189.529 188.579 189.494C188.606 189.46 188.645 189.438 188.688 189.431C188.71 189.427 188.732 189.428 188.754 189.434C188.775 189.439 188.795 189.449 188.812 189.462C188.83 189.476 188.844 189.493 188.854 189.513C188.865 189.532 188.871 189.554 188.872 189.576C188.938 190.234 195.15 255.836 198.084 285.433C200.835 312.688 213.574 391.555 213.705 392.463C213.709 392.508 213.697 392.553 213.67 392.59C213.644 392.626 213.605 392.651 213.56 392.661H213.534Z" fill="white"/>
    <path d="M169.553 61.6737C169.369 62.4501 168.816 62.9897 168.316 62.8844C167.816 62.7792 167.566 62.0554 167.751 61.2921C167.935 60.5288 168.487 59.9761 168.988 60.0814C169.488 60.1866 169.764 60.9104 169.553 61.6737Z" fill="#263238"/>
    <path d="M160.92 59.8049C160.736 60.5682 160.184 61.1209 159.683 61.0025C159.183 60.8841 158.92 60.1866 159.104 59.4101C159.289 58.6337 159.841 58.0941 160.341 58.1994C160.842 58.3047 161.092 59.0285 160.92 59.8049Z" fill="#263238"/>
    <path d="M163.566 60.7788C162.082 62.9506 160.311 64.9117 158.302 66.6087C158.737 67.0989 159.275 67.4865 159.878 67.7436C160.481 68.0008 161.134 68.121 161.789 68.0957L163.566 60.7788Z" fill="#ED847E"/>
    <path d="M163.552 73.3861C163.523 73.3799 163.494 73.3678 163.47 73.3503C163.445 73.3329 163.423 73.3106 163.407 73.2847C163.391 73.2588 163.381 73.23 163.376 73.1999C163.372 73.1698 163.374 73.1391 163.381 73.1097C163.389 73.0794 163.403 73.0509 163.421 73.0259C163.44 73.0008 163.464 72.9798 163.491 72.9639C163.517 72.948 163.547 72.9375 163.578 72.9332C163.609 72.9289 163.641 72.9307 163.671 72.9386C164.621 73.1888 165.616 73.2143 166.578 73.0133C167.539 72.8123 168.441 72.3903 169.211 71.7805C169.255 71.7379 169.314 71.7141 169.376 71.7141C169.437 71.7141 169.496 71.7379 169.54 71.7805C169.58 71.8261 169.602 71.8845 169.602 71.945C169.602 72.0055 169.58 72.064 169.54 72.1095C168.717 72.7848 167.743 73.2531 166.701 73.4751C165.66 73.6972 164.58 73.6667 163.552 73.3861Z" fill="#FFC3BD"/>
    <path d="M172.83 59.4232C172.76 59.4125 172.695 59.3838 172.639 59.3399C172.584 59.2961 172.541 59.2386 172.514 59.1732C172.299 58.6372 171.957 58.1618 171.517 57.788C171.076 57.4142 170.552 57.1534 169.988 57.0281C169.929 57.0186 169.872 56.9973 169.821 56.9655C169.77 56.9337 169.726 56.892 169.692 56.8429C169.658 56.7938 169.634 56.7383 169.621 56.6797C169.609 56.6211 169.608 56.5606 169.619 56.5017C169.639 56.3805 169.705 56.2717 169.803 56.198C169.901 56.1244 170.024 56.0917 170.146 56.1069C170.856 56.2482 171.52 56.5622 172.08 57.0212C172.64 57.4803 173.079 58.0702 173.357 58.7389C173.406 58.8525 173.409 58.9809 173.364 59.0964C173.32 59.212 173.232 59.3057 173.12 59.3574C173.034 59.4117 172.931 59.4349 172.83 59.4232V59.4232Z" fill="#263238"/>
    <path d="M157.762 55.8569C157.697 55.8366 157.638 55.8004 157.591 55.7516C157.507 55.6655 157.459 55.5498 157.459 55.4292C157.459 55.3087 157.507 55.1929 157.591 55.1068C158.073 54.5429 158.683 54.1019 159.369 53.8204C160.056 53.5389 160.8 53.425 161.539 53.4881C161.599 53.496 161.657 53.5161 161.71 53.5473C161.762 53.5784 161.807 53.6199 161.843 53.6691C161.879 53.7184 161.904 53.7744 161.918 53.8338C161.931 53.8932 161.932 53.9547 161.921 54.0145C161.898 54.1368 161.83 54.2458 161.729 54.3192C161.629 54.3926 161.504 54.4248 161.381 54.4093V54.4093C160.796 54.3677 160.21 54.4653 159.67 54.6941C159.13 54.9228 158.652 55.2762 158.275 55.7253C158.214 55.7974 158.131 55.8488 158.04 55.8723C157.948 55.8959 157.851 55.8905 157.762 55.8569Z" fill="#263238"/>
    <path d="M189.715 109.984L203.296 105.562C203.296 105.562 215.798 137.409 220.404 139.265C226.707 141.779 239.512 148.477 247.474 150.083C248.382 151.399 249.606 155.557 249.224 157.018C237.814 159.979 214.587 153.728 210.007 149.622C199.611 140.252 189.715 109.984 189.715 109.984Z" fill="#FFC3BD"/>
    <path d="M198.255 93.8367C207.467 95.1527 217.285 127.237 217.285 127.237L197.545 138.212C197.545 138.212 189.359 122.96 185.424 111.642C181.332 99.785 188.372 92.3891 198.255 93.8367Z" fill="#EC4899"/>
    <path opacity="0.7" d="M198.255 93.8367C207.467 95.1527 217.285 127.237 217.285 127.237L197.545 138.212C197.545 138.212 189.359 122.96 185.424 111.642C181.332 99.785 188.372 92.3891 198.255 93.8367Z" fill="white"/>
    <path d="M205.296 417.033C204.632 417.088 203.968 416.917 203.414 416.546C203.244 416.392 203.115 416.199 203.037 415.983C202.959 415.768 202.935 415.536 202.967 415.309C202.972 415.174 203.014 415.042 203.088 414.929C203.162 414.815 203.266 414.724 203.388 414.664C204.467 414.112 207.586 416.046 207.941 416.27C207.976 416.298 208.003 416.334 208.02 416.376C208.036 416.417 208.04 416.463 208.033 416.507C208.025 416.55 208.004 416.591 207.974 416.623C207.944 416.656 207.905 416.679 207.862 416.691C207.021 416.896 206.161 417.011 205.296 417.033ZM203.888 415.02C203.788 414.998 203.685 414.998 203.585 415.02C203.537 415.048 203.497 415.088 203.469 415.136C203.441 415.185 203.427 415.24 203.427 415.296C203.403 415.451 203.418 415.609 203.471 415.756C203.524 415.903 203.613 416.034 203.73 416.138C204.82 416.634 206.058 416.695 207.191 416.309C206.174 415.66 205.038 415.222 203.848 415.02H203.888Z" fill="#EC4899"/>
    <path d="M207.757 416.691C207.723 416.702 207.686 416.702 207.652 416.691C206.651 416.138 204.756 414.059 205.02 412.914C205.061 412.742 205.158 412.589 205.297 412.48C205.435 412.37 205.606 412.31 205.783 412.309C205.957 412.283 206.134 412.296 206.302 412.346C206.47 412.396 206.625 412.482 206.757 412.598C207.875 413.533 208.073 416.349 208.073 416.467C208.08 416.509 208.074 416.552 208.055 416.59C208.036 416.628 208.005 416.659 207.967 416.678C207.936 416.697 207.901 416.708 207.864 416.711C207.827 416.713 207.79 416.706 207.757 416.691V416.691ZM205.888 412.743H205.783C205.48 412.743 205.454 412.914 205.441 412.967C205.296 413.612 206.507 415.23 207.494 415.993C207.45 414.886 207.074 413.818 206.415 412.927C206.268 412.801 206.082 412.731 205.888 412.73V412.743Z" fill="#EC4899"/>
    <path d="M146.471 417.033C145.641 417.109 144.81 416.9 144.115 416.441C143.962 416.298 143.845 416.121 143.774 415.924C143.703 415.728 143.68 415.517 143.707 415.309C143.717 415.182 143.758 415.058 143.827 414.95C143.896 414.842 143.99 414.753 144.102 414.691C145.313 414.033 149.195 416.007 149.629 416.257C149.672 416.278 149.706 416.313 149.727 416.356C149.749 416.398 149.756 416.447 149.748 416.494C149.741 416.541 149.719 416.586 149.686 416.621C149.653 416.656 149.611 416.681 149.563 416.691C148.545 416.896 147.51 417.01 146.471 417.033V417.033ZM144.76 415.02C144.611 415.013 144.463 415.04 144.326 415.099C144.28 415.123 144.242 415.159 144.214 415.203C144.186 415.247 144.171 415.297 144.168 415.349C144.148 415.486 144.161 415.625 144.207 415.756C144.253 415.887 144.33 416.004 144.431 416.099C145.023 416.625 146.629 416.717 148.8 416.362C147.54 415.688 146.173 415.234 144.76 415.02V415.02Z" fill="#EC4899"/>
    <path d="M149.511 416.691H149.419C148.247 416.151 145.971 414.059 146.168 412.94C146.168 412.677 146.418 412.348 147.05 412.296C147.285 412.259 147.525 412.275 147.753 412.344C147.98 412.412 148.19 412.531 148.366 412.69C149.577 413.704 149.787 416.336 149.787 416.454C149.793 416.496 149.785 416.538 149.767 416.576C149.748 416.613 149.718 416.644 149.682 416.665C149.656 416.68 149.628 416.691 149.599 416.695C149.57 416.7 149.54 416.698 149.511 416.691ZM147.221 412.743H147.089C146.668 412.743 146.642 412.94 146.629 412.993C146.497 413.664 148.05 415.322 149.261 416.046C149.185 414.939 148.761 413.884 148.05 413.033C147.821 412.832 147.525 412.724 147.221 412.73V412.743Z" fill="#EC4899"/>
    <path d="M248.369 157.176L257.673 157.623L252.738 147.477C252.738 147.477 244.579 147.359 243.249 153.623L248.369 157.176Z" fill="#FFC3BD"/>
    <path d="M265.213 152.715L260.278 143.753L252.738 147.477L257.673 157.623L265.213 152.715Z" fill="#FFC3BD"/>
    <path d="M274.939 77.4656C274.004 70.6487 255.791 65.3847 247.303 73.1754C235.854 83.6376 237.683 116.432 237.683 134.198C254.633 130.027 280.4 131.027 284.901 133.488C285.862 125.315 285.638 79.4659 274.939 77.4656Z" fill="#263238"/>
    <path d="M239.828 140.976C239.644 144.082 239.301 146.911 238.92 149.846C238.538 152.78 238.025 155.649 237.459 158.544C236.321 164.353 234.76 170.071 232.787 175.652C232.287 177.061 231.695 178.455 231.155 179.85C230.616 181.245 229.971 182.601 229.221 184.035C227.727 186.791 225.964 189.392 223.957 191.8C220.15 196.388 215.792 200.49 210.981 204.012L207.375 200.064C210.815 195.797 214.009 191.337 216.943 186.707C218.315 184.531 219.508 182.247 220.509 179.877C220.996 178.745 221.456 177.429 221.943 176.205C222.43 174.981 222.799 173.665 223.259 172.389C224.818 167.162 226.075 161.85 227.023 156.478C227.484 153.767 227.892 151.043 228.273 148.306C228.655 145.569 228.958 142.779 229.181 140.213L239.828 140.976Z" fill="#FFB573"/>
    <path d="M233.182 128.224C229.484 129.171 227.405 153.636 227.405 153.636L237.235 159.558C237.235 159.558 243.184 141.476 242.276 133.672C241.618 128 235.972 127.513 233.182 128.224Z" fill="#FFB573"/>
    <path d="M206.612 200.156L198.15 206.513L208.533 208.895C208.533 208.895 213.008 203.881 211.521 199.788L206.612 200.156Z" fill="#FFB573"/>
    <path d="M195.9 215.014L204.704 216.54L208.573 208.895L198.19 206.513L195.9 215.014Z" fill="#FFB573"/>
    <path d="M252.948 415.743H244.5L239.288 377.277H253.672L252.948 415.743Z" fill="#FFB573"/>
    <path opacity="0.2" d="M253.291 397.201H241.986L239.288 377.277H253.672L253.291 397.201Z" fill="black"/>
    <path d="M318.367 401.873L310.208 403.978L293.652 368.92L307.694 364.946L318.367 401.873Z" fill="#FFB573"/>
    <path opacity="0.2" d="M313.34 384.462L302.18 386.976L293.652 368.92L307.694 364.946L313.34 384.462Z" fill="black"/>
    <path d="M308.247 402.544L319.091 397.951C319.273 397.865 319.482 397.851 319.675 397.912C319.867 397.973 320.03 398.104 320.13 398.28L325.013 406.321C325.127 406.527 325.197 406.756 325.218 406.991C325.238 407.227 325.209 407.464 325.132 407.687C325.055 407.91 324.932 408.115 324.771 408.288C324.61 408.461 324.414 408.597 324.197 408.69C320.393 410.229 318.472 410.782 313.669 412.809C310.747 414.059 306.589 416.178 302.535 417.902C298.482 419.626 296.574 415.704 298.113 414.625C304.97 409.795 305.22 407.045 306.852 403.82C307.157 403.247 307.649 402.797 308.247 402.544V402.544Z" fill="#263238"/>
    <path d="M243.381 414.533H255.146C255.35 414.531 255.548 414.603 255.703 414.736C255.858 414.869 255.96 415.054 255.988 415.256L257.304 424.561C257.328 424.796 257.302 425.034 257.229 425.26C257.155 425.485 257.035 425.692 256.876 425.868C256.718 426.044 256.524 426.185 256.307 426.282C256.091 426.378 255.857 426.429 255.62 426.429C251.514 426.35 249.54 426.113 244.368 426.113C241.183 426.113 234.59 426.442 230.195 426.442C225.799 426.442 225.562 422.1 227.392 421.705C235.603 419.941 238.841 417.507 241.604 415.125C242.107 414.723 242.737 414.513 243.381 414.533V414.533Z" fill="#263238"/>
    <path d="M232.537 128.211C232.537 128.211 227.536 129.961 237.538 191.444H280.084C279.374 174.126 279.347 163.44 287.625 127.908C281.669 126.672 275.629 125.876 269.556 125.526C263.125 125.065 256.669 125.065 250.237 125.526C241.947 126.276 232.537 128.211 232.537 128.211Z" fill="#EC4899"/>
    <path d="M263.871 149.925C263.871 149.925 263.779 149.925 263.766 149.846C261.134 145.292 254.449 141.713 254.383 141.673C254.363 141.664 254.346 141.65 254.331 141.633C254.317 141.617 254.307 141.597 254.301 141.576C254.294 141.555 254.293 141.533 254.295 141.511C254.298 141.489 254.306 141.468 254.317 141.45C254.348 141.423 254.388 141.408 254.429 141.408C254.47 141.408 254.51 141.423 254.541 141.45C254.541 141.45 261.121 145.029 263.937 149.569C266.727 147.122 275.676 136.041 274.597 126.513C274.595 126.492 274.597 126.471 274.603 126.451C274.61 126.432 274.62 126.413 274.633 126.397C274.647 126.381 274.663 126.368 274.682 126.359C274.7 126.349 274.721 126.344 274.741 126.342V126.342C274.762 126.34 274.783 126.342 274.803 126.349C274.823 126.355 274.841 126.365 274.857 126.379C274.873 126.392 274.886 126.409 274.895 126.427C274.905 126.446 274.911 126.466 274.912 126.487C276.018 136.317 266.622 147.753 263.99 149.951C263.969 149.955 263.948 149.955 263.927 149.951C263.907 149.946 263.888 149.937 263.871 149.925Z" fill="white"/>
    <path d="M241.802 148.148C241.768 148.161 241.73 148.161 241.697 148.148C240.715 147.032 240.201 145.58 240.262 144.095C239.907 138.936 242.026 130.395 245.381 126.71C245.413 126.68 245.456 126.663 245.5 126.663C245.544 126.663 245.586 126.68 245.618 126.71C245.633 126.725 245.645 126.742 245.653 126.762C245.661 126.781 245.665 126.801 245.665 126.822C245.665 126.843 245.661 126.864 245.653 126.883C245.645 126.902 245.633 126.919 245.618 126.934C242.315 130.579 240.236 138.989 240.578 144.042C240.542 145.369 240.959 146.669 241.762 147.727C243.947 144.766 250.053 141.147 250.316 141.028C250.335 141.01 250.358 140.996 250.383 140.988C250.408 140.98 250.435 140.978 250.461 140.982C250.487 140.986 250.512 140.996 250.534 141.011C250.555 141.026 250.573 141.046 250.586 141.069C250.598 141.093 250.605 141.118 250.606 141.145C250.607 141.171 250.602 141.197 250.591 141.221C250.581 141.245 250.565 141.267 250.544 141.283C250.524 141.3 250.5 141.312 250.474 141.318C250.408 141.318 243.894 145.134 241.92 148.069C241.892 148.109 241.85 148.137 241.802 148.148V148.148Z" fill="white"/>
    <path d="M267.648 103.772C266.424 109.984 265.213 121.381 269.556 125.526C269.556 125.526 271.965 140.147 252.132 140.147C235.748 140.147 250.237 125.526 250.237 125.526C257.173 123.868 256.988 118.722 255.791 113.893L267.648 103.772Z" fill="#FFB573"/>
    <path opacity="0.2" d="M262.805 107.905L255.791 113.932C256.088 115.053 256.286 116.198 256.383 117.354C259.015 116.972 262.674 114.064 262.963 111.3C263.128 110.168 263.074 109.016 262.805 107.905V107.905Z" fill="black"/>
    <path d="M274.202 92.3627C271.767 102.47 270.951 106.839 264.858 111.129C255.646 117.643 243.802 112.445 243.184 101.812C242.618 92.2442 246.697 77.3208 257.423 75.0178C259.785 74.5019 262.239 74.5982 264.554 75.2976C266.868 75.9969 268.965 77.2762 270.646 79.0139C272.327 80.7516 273.536 82.89 274.159 85.2263C274.781 87.5626 274.796 90.0191 274.202 92.3627V92.3627Z" fill="#FFB573"/>
    <path d="M266.293 80.5582C267.464 90.4282 267.938 100.377 274.939 97.9557C281.94 95.5343 275.623 80.5582 275.623 80.5582H266.293Z" fill="#263238"/>
    <path d="M243.565 83.7692C253.609 80.6341 264.427 81.0664 274.189 84.9931C272.873 80.1766 272.07 76.2943 266.135 74.4651C260.2 72.6359 246.539 74.781 243.565 83.7692Z" fill="#263238"/>
    <path d="M237.538 191.444C237.538 191.444 229.274 272.141 229.958 304.094C230.668 337.323 238.209 390.818 238.209 390.818L255.317 390.279C255.317 390.279 254.778 339.271 256.028 306.634C257.344 271.102 268.701 191.444 268.701 191.444H237.538Z" fill="#263238"/>
    <path d="M257.12 393.253H236.525L235.011 387.95L258.081 387.305L257.12 393.253Z" fill="#EC4899"/>
    <path opacity="0.2" d="M255.896 211.513C245.434 232.569 253.791 270.891 257.489 285.209C259.384 263.772 262.581 237.583 265.069 218.343C263.49 207.368 260.713 201.828 255.896 211.513Z" fill="black"/>
    <path d="M248.724 191.444C248.724 191.444 258.357 275.339 265.635 302.278C274.281 334.257 297.587 381.856 297.587 381.856L313.498 377.277C313.498 377.277 299.943 321.294 293.336 304.449C279.229 268.496 291.31 214.961 280.032 191.444H248.724Z" fill="#263238"/>
    <path d="M316.432 379.33L297.442 384.594L294.021 379.724L315.09 372.697L316.432 379.33Z" fill="#EC4899"/>
    <path d="M257.133 92.5732C256.975 93.4023 256.423 93.9945 255.883 93.8892C255.343 93.7839 255.014 93.0338 255.159 92.2047C255.304 91.3756 255.87 90.7834 256.475 90.8887C257.081 90.994 257.278 91.731 257.133 92.5732Z" fill="#263238"/>
    <path d="M247.724 90.902C247.579 91.731 247.013 92.3364 246.408 92.218C245.802 92.0995 245.539 91.3757 245.684 90.5466C245.829 89.7176 246.395 89.1122 246.934 89.2306C247.474 89.3491 247.869 90.0729 247.724 90.902Z" fill="#263238"/>
    <path d="M247.237 89.3096L245.342 88.3752C245.342 88.3752 246.092 90.1255 247.237 89.3096Z" fill="#263238"/>
    <path d="M250.395 92.6786C249.302 94.4468 247.974 96.0582 246.447 97.4688C246.819 97.8455 247.268 98.137 247.763 98.3233C248.259 98.5096 248.788 98.5863 249.316 98.548L250.395 92.6786Z" fill="#ED893E"/>
    <path d="M253.751 102.47C253.274 102.469 252.799 102.425 252.33 102.338C252.297 102.333 252.266 102.322 252.238 102.305C252.21 102.287 252.186 102.264 252.167 102.237C252.149 102.21 252.136 102.179 252.13 102.146C252.124 102.114 252.125 102.081 252.132 102.048C252.145 101.984 252.183 101.927 252.237 101.891C252.291 101.854 252.357 101.839 252.422 101.851C253.453 102.053 254.516 102.012 255.528 101.731C256.54 101.45 257.473 100.937 258.252 100.232C258.272 100.202 258.299 100.177 258.33 100.159C258.362 100.14 258.397 100.129 258.433 100.125C258.469 100.121 258.505 100.126 258.54 100.137C258.574 100.149 258.605 100.169 258.631 100.194C258.658 100.219 258.678 100.249 258.691 100.283C258.704 100.317 258.71 100.353 258.708 100.39C258.705 100.426 258.695 100.461 258.678 100.493C258.66 100.525 258.636 100.553 258.607 100.575C257.296 101.812 255.554 102.492 253.751 102.47Z" fill="#263238"/>
    <path d="M274.636 99.9823C273.859 101.838 272.378 103.31 270.517 104.075C268.043 105.075 266.569 102.93 266.964 100.443C267.359 98.2057 269.122 94.9946 271.728 95.0604C272.295 95.0845 272.848 95.25 273.335 95.5419C273.822 95.8338 274.229 96.2428 274.518 96.7318C274.807 97.2209 274.969 97.7744 274.99 98.3421C275.01 98.9097 274.889 99.4735 274.636 99.9823V99.9823Z" fill="#FFB573"/>
    <path d="M260.779 87.0066C260.71 87.0063 260.642 86.9922 260.578 86.9651C260.515 86.938 260.458 86.8984 260.41 86.8487C259.997 86.3806 259.478 86.0172 258.897 85.7885C258.316 85.5597 257.689 85.472 257.067 85.5327C256.937 85.5521 256.804 85.5206 256.696 85.4446C256.588 85.3686 256.514 85.2541 256.488 85.1247C256.477 85.0607 256.479 84.995 256.493 84.9317C256.508 84.8683 256.535 84.8085 256.573 84.7557C256.611 84.703 256.659 84.6584 256.715 84.6246C256.77 84.5907 256.832 84.5684 256.896 84.5588C257.678 84.4608 258.471 84.5533 259.209 84.8283C259.947 85.1032 260.607 85.5526 261.134 86.138C261.225 86.2314 261.276 86.3565 261.276 86.4868C261.276 86.617 261.225 86.7422 261.134 86.8355C261.042 86.9364 260.915 86.9978 260.779 87.0066V87.0066Z" fill="#263238"/>
    <path d="M245.381 85.7301C245.318 85.7303 245.254 85.7175 245.195 85.6927C245.137 85.6678 245.084 85.6313 245.039 85.5854C244.948 85.492 244.898 85.3669 244.898 85.2366C244.898 85.1064 244.948 84.9812 245.039 84.8879C245.568 84.3028 246.232 83.8548 246.972 83.582C247.712 83.3093 248.508 83.22 249.29 83.3218C249.355 83.331 249.418 83.3538 249.474 83.3886C249.53 83.4234 249.578 83.4696 249.615 83.5241C249.652 83.5786 249.678 83.6403 249.69 83.7052C249.702 83.77 249.7 83.8367 249.685 83.9009C249.674 83.9653 249.65 84.0269 249.614 84.082C249.579 84.137 249.533 84.1844 249.479 84.2212C249.425 84.2581 249.364 84.2837 249.3 84.2965C249.236 84.3093 249.17 84.309 249.106 84.2957C248.484 84.235 247.857 84.3227 247.276 84.5515C246.695 84.7802 246.176 85.1436 245.763 85.6117C245.711 85.6573 245.651 85.6914 245.585 85.7118C245.519 85.7323 245.45 85.7385 245.381 85.7301V85.7301Z" fill="#263238"/>
    <path d="M292.231 139.107C294.653 145.002 296.723 151.035 298.429 157.176C300.28 163.394 301.557 169.768 302.246 176.218C302.351 177.034 302.39 177.89 302.417 178.732V180.048V180.364C302.417 180.495 302.417 180.508 302.417 180.772C302.418 181.168 302.392 181.564 302.338 181.956C301.982 184.223 301.078 186.368 299.706 188.207C297.678 190.98 295.327 193.502 292.705 195.721C287.85 199.894 282.616 203.604 277.071 206.802L273.991 202.486C278.452 198.393 282.966 194.195 286.888 189.813C288.776 187.79 290.46 185.586 291.915 183.233C292.362 182.55 292.654 181.777 292.771 180.969C292.771 180.969 292.771 180.969 292.771 180.969V180.522L292.652 179.482C292.586 178.784 292.52 178.1 292.389 177.389C291.404 171.56 290.005 165.808 288.204 160.176C286.414 154.478 284.388 148.674 282.269 143.16L292.231 139.107Z" fill="#FFB573"/>
    <path d="M287.585 127.908C291.757 129.605 296.982 152.451 296.982 152.451L288.112 159.729C288.112 159.729 279.755 142.7 279.387 134.843C279.097 128.947 283.901 126.394 287.585 127.908Z" fill="#FFB573"/>
    <path d="M303.47 405.847C303.278 405.75 303.111 405.611 302.981 405.44C302.851 405.269 302.762 405.07 302.719 404.86C302.673 404.718 302.665 404.566 302.697 404.42C302.73 404.274 302.801 404.14 302.904 404.031C303.812 403.044 307.536 403.689 307.97 403.768C308.017 403.776 308.061 403.798 308.096 403.831C308.131 403.864 308.156 403.906 308.168 403.952C308.175 403.999 308.168 404.048 308.15 404.092C308.131 404.136 308.101 404.174 308.062 404.202C306.944 405.031 304.878 406.347 303.614 405.913L303.47 405.847ZM307.286 404.149C305.786 403.939 303.746 403.847 303.272 404.36C303.237 404.415 303.218 404.479 303.218 404.544C303.218 404.609 303.237 404.673 303.272 404.728C303.296 404.888 303.362 405.038 303.464 405.164C303.566 405.289 303.7 405.384 303.851 405.439C304.457 405.676 305.746 405.202 307.286 404.149Z" fill="#EC4899"/>
    <path d="M306.233 403.689C305.141 403.163 304.022 402.373 303.864 401.61C303.827 401.417 303.856 401.216 303.946 401.042C304.037 400.867 304.185 400.729 304.364 400.649C304.528 400.554 304.711 400.495 304.899 400.477C305.088 400.459 305.278 400.482 305.457 400.544C306.904 401.017 308.089 403.794 308.089 403.913C308.108 403.949 308.119 403.99 308.119 404.031C308.119 404.072 308.108 404.113 308.089 404.15C308.066 404.187 308.033 404.217 307.993 404.236C307.953 404.255 307.909 404.261 307.865 404.255C307.296 404.148 306.746 403.957 306.233 403.689V403.689ZM305.457 401.057L305.299 400.991C305.187 400.953 305.068 400.938 304.95 400.95C304.831 400.961 304.717 400.998 304.615 401.057C304.338 401.215 304.325 401.373 304.351 401.491C304.509 402.215 306.26 403.307 307.483 403.649C307.045 402.627 306.346 401.738 305.457 401.07V401.057Z" fill="#EC4899"/>
    <path d="M239.512 416.362C238.617 416.442 237.721 416.215 236.972 415.717C236.802 415.572 236.671 415.386 236.593 415.176C236.515 414.967 236.491 414.741 236.525 414.519C236.532 414.381 236.575 414.247 236.648 414.129C236.722 414.012 236.824 413.915 236.946 413.848C238.262 413.151 242.407 415.283 242.868 415.533C242.917 415.551 242.957 415.586 242.982 415.632C243.006 415.679 243.012 415.732 242.999 415.783C242.992 415.834 242.97 415.882 242.934 415.919C242.899 415.957 242.853 415.983 242.802 415.993C241.719 416.216 240.618 416.339 239.512 416.362ZM237.643 414.204C237.486 414.196 237.329 414.223 237.183 414.283C237.133 414.31 237.091 414.35 237.061 414.398C237.031 414.447 237.014 414.502 237.012 414.559C236.991 414.704 237.007 414.852 237.058 414.99C237.108 415.128 237.192 415.251 237.301 415.349C237.933 415.928 239.657 416.02 241.986 415.638C240.609 414.912 239.118 414.427 237.577 414.204H237.643Z" fill="#EC4899"/>
    <path d="M242.697 415.994H242.591C241.275 415.428 238.867 413.164 239.065 412.045C239.065 411.756 239.315 411.414 239.999 411.348C240.235 411.327 240.473 411.354 240.699 411.426C240.925 411.499 241.134 411.615 241.315 411.769C242.631 412.861 242.881 415.717 242.894 415.809C242.898 415.844 242.894 415.878 242.883 415.911C242.872 415.944 242.854 415.974 242.83 415.999C242.807 416.024 242.778 416.044 242.745 416.057C242.713 416.069 242.679 416.075 242.644 416.072L242.697 415.994ZM240.196 411.756H240.052C239.591 411.756 239.565 411.98 239.551 412.045C239.446 412.756 241.118 414.533 242.394 415.309C242.298 414.121 241.839 412.99 241.078 412.072C240.833 411.862 240.519 411.75 240.196 411.756V411.756Z" fill="#EC4899"/>
    <path d="M280.729 188.944L281.808 192.747C281.966 193.05 281.611 193.353 281.124 193.353H237.327C236.946 193.353 236.63 193.155 236.604 192.918L236.222 189.115C236.222 188.852 236.525 188.628 236.946 188.628H280.032C280.165 188.616 280.3 188.639 280.422 188.694C280.544 188.75 280.65 188.836 280.729 188.944V188.944Z" fill="#EC4899"/>
    <path opacity="0.8" d="M280.729 188.944L281.808 192.747C281.966 193.05 281.611 193.353 281.124 193.353H237.327C236.946 193.353 236.63 193.155 236.604 192.918L236.222 189.115C236.222 188.852 236.525 188.628 236.946 188.628H280.032C280.165 188.616 280.3 188.639 280.422 188.694C280.544 188.75 280.65 188.836 280.729 188.944V188.944Z" fill="#263238"/>
    <path d="M274.939 193.761H276.097C276.321 193.761 276.492 193.642 276.478 193.497L275.939 188.549C275.939 188.404 275.728 188.286 275.491 188.286H274.333C274.11 188.286 273.939 188.404 273.952 188.549L274.491 193.497C274.504 193.642 274.702 193.761 274.939 193.761Z" fill="#EC4899"/>
    <path d="M240.565 193.761H241.723C241.96 193.761 242.131 193.642 242.118 193.497L241.578 188.549C241.578 188.404 241.354 188.286 241.131 188.286H239.973C239.736 188.286 239.565 188.404 239.578 188.549L240.117 193.497C240.144 193.642 240.341 193.761 240.565 193.761Z" fill="#EC4899"/>
    <path d="M257.752 193.761H258.91C259.134 193.761 259.318 193.642 259.291 193.497L258.752 188.549C258.752 188.404 258.541 188.286 258.304 188.286H257.16C256.923 188.286 256.752 188.404 256.765 188.549L257.304 193.497C257.318 193.642 257.528 193.761 257.752 193.761Z" fill="#EC4899"/>
    <path d="M275.241 201.538L263.963 202.512L271.504 210.039C271.504 210.039 277.966 208.158 278.86 203.907L275.241 201.538Z" fill="#FFB573"/>
    <path d="M257.515 208.513L264.161 214.474L273.096 209.447L263.963 202.512L257.515 208.513Z" fill="#FFB573"/>
    <path d="M256.62 90.9809L254.725 90.0465C254.725 90.0465 255.501 91.7836 256.62 90.9809Z" fill="#263238"/>
    <path d="M406.21 92.3495C406.21 93.2049 406.605 93.9419 407.17 93.9945C407.736 94.0472 408.223 93.4023 408.25 92.5469C408.276 91.6915 407.855 90.9546 407.289 90.9019C406.723 90.8493 406.236 91.5599 406.21 92.3495Z" fill="#263238"/>
    <path d="M407.039 90.9151L409.131 90.5334C409.131 90.5334 407.96 92.0337 407.039 90.9151Z" fill="#263238"/>
    <path d="M406.907 93.2444C407.602 95.285 408.567 97.2235 409.776 99.0085C409.31 99.2779 408.79 99.4422 408.254 99.49C407.717 99.5377 407.177 99.4677 406.67 99.2848L406.907 93.2444Z" fill="#A02724"/>
    <path d="M407.592 86.7565C407.509 86.7756 407.424 86.7756 407.341 86.7565C406.754 86.4863 406.112 86.3563 405.465 86.3768C404.819 86.3974 404.186 86.5679 403.617 86.875C403.503 86.9446 403.367 86.967 403.236 86.9375C403.106 86.908 402.993 86.8289 402.92 86.7171C402.881 86.6633 402.853 86.6021 402.838 86.5373C402.824 86.4724 402.822 86.4052 402.835 86.3399C402.847 86.2745 402.873 86.2124 402.91 86.1573C402.947 86.1022 402.995 86.0553 403.051 86.0196C403.758 85.6242 404.548 85.4004 405.357 85.3661C406.166 85.3318 406.972 85.488 407.71 85.8222C407.833 85.8747 407.931 85.9719 407.985 86.0941C408.038 86.2162 408.044 86.3542 407.999 86.4802C407.962 86.5584 407.905 86.6252 407.833 86.6738C407.761 86.7224 407.678 86.7509 407.592 86.7565V86.7565Z" fill="#263238"/>
    <path d="M377.337 87.1513C377.587 97.6794 377.468 102.193 382.601 108.115C390.365 117.011 403.393 115.195 406.289 104.957C408.921 95.7448 408.092 79.9528 397.84 74.7941C387.588 69.6354 377.087 76.5839 377.337 87.1513Z" fill="#B55B52"/>
    <path d="M362.071 139.331C360.36 144.068 358.676 149.135 357.123 154.096C355.57 159.058 354.149 164.111 352.899 169.151L352.504 170.796C352.455 170.894 352.432 171.003 352.438 171.112C352.416 171.265 352.416 171.42 352.438 171.573C352.472 172.466 352.622 173.351 352.885 174.205C353.596 176.439 354.522 178.598 355.649 180.653C358.133 185.161 360.884 189.516 363.887 193.695L359.636 197.761C355.297 194.147 351.393 190.039 348.003 185.522C346.164 183.08 344.618 180.43 343.397 177.626C342.684 175.98 342.197 174.245 341.949 172.468C341.872 171.954 341.837 171.434 341.844 170.915C341.819 170.352 341.846 169.788 341.923 169.23C341.989 168.546 342.055 168.309 342.107 167.914L342.265 166.888C343.157 161.461 344.33 156.085 345.779 150.78C347.24 145.423 348.997 140.15 351.043 134.988L362.071 139.331Z" fill="#B55B52"/>
    <path d="M355.149 123.907C348.569 127.145 344.805 145.266 344.805 145.266L361.61 153.517C361.61 153.517 371.836 140.094 368.73 129.592C367.164 124.355 361.61 120.722 355.149 123.907Z" fill="#263238"/>
    <path d="M362.913 192.181L369.612 201.933L361.071 201.643C361.071 201.643 356.794 197.366 359.308 193.747L362.913 192.181Z" fill="#B55B52"/>
    <path d="M368.598 206.118L363.387 208.934L361.071 201.643L369.612 201.933L368.598 206.118Z" fill="#B55B52"/>
    <path d="M378.666 100.575C380.219 106.905 379.705 117.683 375.442 121.802C375.442 121.802 380.113 128.079 391.957 128.224C404.999 128.382 397.879 121.894 397.879 121.894C390.694 120.13 390.615 114.919 391.628 110.05L378.666 100.575Z" fill="#B55B52"/>
    <path d="M372.52 73.4518C366.295 73.7676 361.742 76.3865 366.888 91.9548C370.836 103.799 357.228 120.907 370.112 116.314C374.603 117.932 379.437 118.354 384.14 117.538C384.14 117.538 410.237 126.184 406.157 108.471C402.078 90.7572 409.605 78.0578 404.025 70.8988C398.445 63.7397 373.981 64.3714 372.52 73.4518Z" fill="#263238"/>
    <path d="M371.665 123.749C371.017 123.721 370.383 123.549 369.81 123.247C369.236 122.944 368.737 122.518 368.348 121.999C367.203 120.393 368.348 119.63 369.322 118.051C370.559 115.998 367.032 113.261 370.98 111.971C374.928 110.681 391.615 117.748 397.524 115.919C401.67 114.603 402.459 118.012 401.564 120.315C400.104 124.105 404.196 127.987 400.722 128.829C397.735 129.527 377.692 124.17 371.665 123.749Z" fill="#EC4899"/>
    <path d="M396.024 415.033L406.723 415.809L409.105 391.292L398.406 390.502L396.024 415.033Z" fill="#B55B52"/>
    <path d="M340.344 401.439L350.556 405.387L361.703 383.791L351.49 379.843L340.344 401.439Z" fill="#B55B52"/>
    <path d="M352.846 402.873L342.528 396.056C342.36 395.934 342.153 395.879 341.947 395.901C341.74 395.923 341.549 396.02 341.41 396.175L335.251 403.162C335.105 403.356 335.001 403.577 334.945 403.813C334.89 404.048 334.884 404.293 334.929 404.531C334.974 404.769 335.067 404.994 335.204 405.194C335.342 405.394 335.519 405.562 335.725 405.689C339.37 408.005 341.226 408.94 345.766 411.94C348.556 413.783 352.464 416.757 356.294 419.297C360.123 421.837 362.676 418.349 361.281 416.967C355.03 410.743 355.188 407.966 354.017 404.426C353.806 403.795 353.395 403.25 352.846 402.873V402.873Z" fill="#263238"/>
    <path d="M407.341 414.296H395.34C395.133 414.291 394.932 414.362 394.774 414.495C394.616 414.628 394.513 414.815 394.484 415.02L393.168 424.521C393.144 424.762 393.171 425.005 393.247 425.235C393.323 425.465 393.446 425.677 393.608 425.857C393.77 426.037 393.968 426.18 394.189 426.279C394.411 426.377 394.65 426.429 394.892 426.429C399.077 426.35 401.09 426.114 406.381 426.114C409.618 426.114 416.343 426.443 420.857 426.443C425.371 426.443 425.555 422.008 423.686 421.613C415.29 419.81 411.987 417.323 409.144 414.954C408.641 414.526 408.002 414.293 407.341 414.296V414.296Z" fill="#263238"/>
    <path opacity="0.2" d="M409.105 391.292L407.789 404.926L397.169 403.162L398.393 390.502L409.105 391.292Z" fill="black"/>
    <path opacity="0.2" d="M351.49 379.856L361.703 383.804L357.083 392.727L346.727 389.055L351.49 379.856Z" fill="black"/>
    <path d="M367.506 187.865L411.158 188.391C418.435 126.131 413.29 125.092 413.29 125.092C409.86 123.98 406.366 123.075 402.828 122.381L402.222 122.275C399.327 121.789 398.735 121.736 394.918 121.341C388.431 120.999 382.43 120.854 375.099 121.117H373.691C372.375 121.196 371.059 121.288 369.809 121.394C368.954 121.394 368.112 121.552 367.309 121.644L364.572 121.986C359.939 122.604 356.676 123.302 356.676 123.302C366.901 159.479 367.388 170.309 367.506 187.865Z" fill="#263238"/>
    <path opacity="0.2" d="M408.631 144.49C408.756 150.878 410.533 157.126 413.79 162.624C414.816 150.517 415.106 142.318 415.04 136.751C411.75 136.962 408.539 138.633 408.631 144.49Z" fill="black"/>
    <path d="M399.643 188.247C399.643 188.247 390.22 254.204 385.549 295.29C380.614 338.652 360.676 390.832 360.676 390.832L345.924 385.752C345.924 385.752 355.675 337.507 358.9 296.777C365.48 214.093 354.451 206.973 367.506 187.878L399.643 188.247Z" fill="#EC4899"/>
    <path opacity="0.5" d="M399.643 188.247C399.643 188.247 390.22 254.204 385.549 295.29C380.614 338.652 360.676 390.832 360.676 390.832L345.924 385.752C345.924 385.752 355.675 337.507 358.9 296.777C365.48 214.093 354.451 206.973 367.506 187.878L399.643 188.247Z" fill="black"/>
    <path opacity="0.2" d="M389.404 208.684C383.101 222.607 385.943 245.163 389.839 260.245C392.234 241.821 394.787 223.041 396.682 209.342C394.326 204.815 391.8 203.42 389.404 208.684Z" fill="black"/>
    <path d="M362.242 391.858L343.831 385.502L345.226 380.172L366.545 385.752L362.242 391.858Z" fill="#263238"/>
    <path d="M357.452 407.058C357.334 407.111 357.21 407.151 357.083 407.176C355.767 407.374 353.82 405.623 352.793 404.544C352.756 404.51 352.729 404.466 352.717 404.416C352.706 404.367 352.709 404.315 352.727 404.268C352.745 404.219 352.777 404.178 352.82 404.149C352.862 404.121 352.913 404.107 352.964 404.11C353.412 404.11 357.32 404.255 358.07 405.426C358.146 405.556 358.185 405.704 358.185 405.854C358.185 406.004 358.146 406.151 358.07 406.281C357.953 406.6 357.736 406.872 357.452 407.058V407.058ZM353.596 404.676C355.017 405.992 356.228 406.781 356.991 406.676C357.142 406.647 357.283 406.577 357.399 406.476C357.514 406.374 357.601 406.243 357.649 406.097C357.683 406.039 357.7 405.973 357.7 405.906C357.7 405.839 357.683 405.774 357.649 405.716C357.255 405.097 355.162 404.768 353.596 404.676Z" fill="#EC4899"/>
    <path d="M410.592 188.496C410.592 188.496 426.463 267.456 424.844 299.751C423.147 333.349 410.184 401.557 410.184 401.557L394.721 399.57C394.721 399.57 398.406 333.138 398.051 299.962C397.682 263.798 378.613 188.102 378.613 188.102L410.592 188.496Z" fill="#EC4899"/>
    <path opacity="0.5" d="M410.592 188.496C410.592 188.496 426.463 267.456 424.844 299.751C423.147 333.349 410.184 401.557 410.184 401.557L394.721 399.57C394.721 399.57 398.406 333.138 398.051 299.962C397.682 263.798 378.613 188.102 378.613 188.102L410.592 188.496Z" fill="black"/>
    <path d="M418.041 128.816C421.819 134.654 425.26 140.704 428.345 146.937C429.911 150.056 431.398 153.228 432.714 156.531C434.123 159.879 435.28 163.328 436.175 166.848L436.517 168.164V168.335V168.599L436.622 169.125C436.622 169.48 436.715 169.822 436.754 170.165C436.849 171.435 436.787 172.713 436.57 173.968C436.185 176.079 435.516 178.129 434.583 180.061C432.94 183.415 430.922 186.571 428.569 189.47C424.144 194.942 419.14 199.919 413.645 204.315L409.579 200.064C413.784 195.056 417.662 189.781 421.186 184.272C424.449 179.008 427.476 172.783 425.66 169.796C424.667 166.826 423.498 163.916 422.16 161.084C420.844 158.163 419.343 155.241 417.791 152.346C416.238 149.451 414.619 146.595 412.974 143.739C411.329 140.884 409.592 138.002 407.947 135.277L418.041 128.816Z" fill="#B55B52"/>
    <path d="M413.119 199.696L419.449 206.197L412.803 210.355C412.803 210.355 405.973 204.841 409.71 199.972L413.119 199.696Z" fill="#B55B52"/>
    <path d="M419.133 211.29L413.698 216.909L412.803 210.355L419.449 206.21L419.133 211.29Z" fill="#B55B52"/>
    <path d="M412.895 124.96C420.87 128.276 427.503 137.673 429.937 143.305L416.553 159.571C416.553 159.571 404.394 141.147 404.394 135.238C404.407 129.053 409.881 123.71 412.895 124.96Z" fill="#263238"/>
    <path d="M412.54 402.439L391.392 399.596L391.497 394.385L414.527 395.424L412.54 402.439Z" fill="#263238"/>
    <path d="M356.215 403.899C355.197 404.39 354.082 404.647 352.951 404.65C352.907 404.644 352.865 404.628 352.828 404.603C352.792 404.578 352.762 404.544 352.741 404.505C352.717 404.467 352.705 404.424 352.705 404.38C352.705 404.336 352.717 404.292 352.741 404.255C352.806 404.149 354.425 401.623 355.952 401.452C356.151 401.423 356.354 401.437 356.547 401.494C356.74 401.55 356.919 401.648 357.07 401.781C357.239 401.894 357.365 402.06 357.429 402.253C357.494 402.446 357.492 402.655 357.426 402.847C357.157 403.328 356.729 403.7 356.215 403.899V403.899ZM353.451 404.136C354.767 404.057 356.702 403.334 356.965 402.649C356.965 402.544 357.031 402.386 356.768 402.162C356.668 402.08 356.552 402.018 356.428 401.982C356.303 401.946 356.172 401.935 356.044 401.952C355.136 402.136 354.004 403.347 353.451 404.136Z" fill="#EC4899"/>
    <path d="M411.368 416.165C410.236 416.143 409.108 416.015 407.999 415.783C407.949 415.773 407.903 415.747 407.867 415.709C407.832 415.671 407.809 415.624 407.802 415.572C407.79 415.522 407.795 415.468 407.817 415.421C407.838 415.373 407.875 415.334 407.921 415.309C408.407 415.059 412.671 412.875 413.974 413.598C414.096 413.669 414.199 413.769 414.275 413.888C414.35 414.007 414.396 414.142 414.408 414.283C414.445 414.509 414.422 414.741 414.341 414.956C414.26 415.171 414.125 415.36 413.948 415.507C413.19 416.018 412.278 416.25 411.368 416.165ZM408.842 415.428C411.211 415.809 412.961 415.704 413.606 415.125C413.721 415.026 413.809 414.899 413.859 414.756C413.91 414.612 413.923 414.459 413.895 414.309C413.896 414.255 413.882 414.201 413.854 414.155C413.826 414.108 413.786 414.071 413.737 414.046C413.013 413.651 410.592 414.585 408.842 415.428V415.428Z" fill="#EC4899"/>
    <path d="M408.052 415.783C408.005 415.796 407.955 415.796 407.907 415.783C407.869 415.756 407.839 415.721 407.818 415.68C407.797 415.638 407.787 415.592 407.789 415.546C407.789 415.349 408.157 410.993 410.553 410.993H410.763C411.461 411.072 411.671 411.414 411.724 411.703C411.948 412.901 409.447 415.217 408.157 415.809L408.052 415.783ZM410.579 411.453C409.039 411.453 408.513 413.993 408.355 415.072C409.671 414.283 411.369 412.44 411.224 411.743C411.224 411.677 411.224 411.506 410.724 411.466L410.579 411.453Z" fill="#EC4899"/>
    <path d="M366.73 185.325L364.953 189.168C364.808 189.47 365.19 189.786 365.69 189.786L411.474 190.326C411.869 190.326 412.184 190.142 412.198 189.892L412.408 186.036C412.408 185.772 412.066 185.536 411.645 185.536L367.427 185.009C367.294 184.997 367.159 185.02 367.037 185.075C366.915 185.13 366.809 185.217 366.73 185.325Z" fill="#EC4899"/>
    <path d="M372.902 190.26H371.717C371.48 190.26 371.296 190.142 371.309 189.997L371.625 184.97C371.625 184.825 371.836 184.706 372.073 184.72H373.257C373.494 184.72 373.678 184.838 373.665 184.983L373.349 189.997C373.336 190.181 373.139 190.26 372.902 190.26Z" fill="#EC4899"/>
    <path opacity="0.5" d="M372.902 190.26H371.717C371.48 190.26 371.296 190.142 371.309 189.997L371.625 184.97C371.625 184.825 371.836 184.706 372.073 184.72H373.257C373.494 184.72 373.678 184.838 373.665 184.983L373.349 189.997C373.336 190.181 373.139 190.26 372.902 190.26Z" fill="black"/>
    <path d="M402.828 190.707H401.643C401.406 190.707 401.222 190.589 401.222 190.431L401.538 185.417C401.538 185.272 401.748 185.154 401.985 185.154H403.17C403.407 185.154 403.591 185.272 403.578 185.417L403.262 190.431C403.262 190.589 403.051 190.707 402.828 190.707Z" fill="#EC4899"/>
    <path opacity="0.5" d="M402.828 190.707H401.643C401.406 190.707 401.222 190.589 401.222 190.431L401.538 185.417C401.538 185.272 401.748 185.154 401.985 185.154H403.17C403.407 185.154 403.591 185.272 403.578 185.417L403.262 190.431C403.262 190.589 403.051 190.707 402.828 190.707Z" fill="black"/>
    <path d="M466.404 413.269L456.573 411.861L457.218 388.752L467.035 390.16L466.404 413.269Z" fill="#FFC3BD"/>
    <path d="M535.507 416.323H525.597L523.123 393.345H533.046L535.507 416.323Z" fill="#FFC3BD"/>
    <path d="M524.781 415.164H536.928C537.125 415.168 537.314 415.238 537.467 415.362C537.619 415.486 537.726 415.657 537.77 415.849L539.731 424.666C539.777 424.881 539.773 425.104 539.72 425.318C539.668 425.532 539.567 425.731 539.427 425.901C539.286 426.07 539.109 426.206 538.909 426.298C538.709 426.389 538.49 426.434 538.27 426.429C534.322 426.429 531.546 426.127 526.65 426.127C523.623 426.127 514.543 426.443 510.371 426.443C506.199 426.443 505.66 422.323 507.371 421.955C515.017 420.284 520.768 418.007 523.163 415.783C523.609 415.387 524.185 415.168 524.781 415.164V415.164Z" fill="#263238"/>
    <path d="M456.81 410.743L467.535 412.269C467.728 412.301 467.905 412.395 468.039 412.538C468.172 412.681 468.254 412.864 468.272 413.059L468.97 422.073C468.986 422.291 468.953 422.51 468.873 422.714C468.793 422.917 468.668 423.1 468.507 423.248C468.346 423.396 468.154 423.506 467.945 423.569C467.735 423.633 467.514 423.648 467.298 423.613C463.443 422.995 457.889 421.968 453.02 421.271C447.335 420.455 442.387 420.06 435.714 419.112C431.687 418.533 431.148 414.296 432.898 414.164C440.794 413.585 447.111 414.309 454.336 411.164C455.104 410.792 455.962 410.646 456.81 410.743V410.743Z" fill="#263238"/>
    <path d="M488.341 112.3C487.828 119.17 487.025 125.855 486.012 132.619C485.512 135.988 484.92 139.357 484.288 142.726C483.972 144.411 483.643 146.095 483.275 147.78L482.709 150.306L482.432 151.622C482.327 152.043 482.169 152.596 482.051 153.083C481.036 156.656 479.715 160.134 478.103 163.479C476.594 166.655 474.993 169.726 473.299 172.691C469.952 178.665 466.275 184.446 462.284 190.01L455.744 186.312L463.114 167.888C464.311 164.822 465.43 161.756 466.469 158.676C467.478 155.85 468.287 152.956 468.891 150.017C468.891 149.675 469.009 149.411 469.075 149.017L469.233 147.793L469.562 145.371L470.167 140.489L471.26 130.658L473.365 110.918L488.341 112.3Z" fill="#FFC3BD"/>
    <path d="M480.34 102.088C471.128 104.431 466.851 137.041 466.851 137.041L489.618 140.423C489.618 140.423 491.789 131.645 495.29 119.63C497.448 112.103 491.776 99.1534 480.34 102.088Z" fill="#EC4899"/>
    <path d="M457.455 184.549L449.401 191.405L459.758 196.419C460.829 195.371 461.667 194.108 462.215 192.713C462.764 191.318 463.012 189.823 462.942 188.325L457.455 184.549Z" fill="#FFC3BD"/>
    <path d="M444.966 197.682L454.073 201.196L459.758 196.419L449.401 191.405L444.966 197.682Z" fill="#FFC3BD"/>
    <path opacity="0.2" d="M457.231 388.752L456.889 400.675L466.719 402.083L467.048 390.16L457.231 388.752Z" fill="black"/>
    <path opacity="0.2" d="M533.046 393.345H523.123L524.4 405.189H534.322L533.046 393.345Z" fill="black"/>
    <path d="M535.48 104.417C532.786 115.18 530.899 126.129 529.835 137.173C529.045 144.871 528.637 152.215 528.413 158.873C527.913 174.481 528.492 186.365 528.111 190.392C520.346 190.01 491.079 188.576 475.115 187.76C473.549 109.8 479.958 102.154 479.958 102.154C484.128 101.286 488.347 100.679 492.592 100.338C493.487 100.259 494.395 100.206 495.316 100.167C502.841 100.105 510.364 100.478 517.846 101.285C519.267 101.417 520.702 101.601 522.097 101.799C529.203 102.825 535.48 104.417 535.48 104.417Z" fill="#EC4899"/>
    <path d="M490.868 100.272C492.105 106.181 504.633 146.977 529.177 160.69C529.279 160.746 529.366 160.827 529.428 160.926C529.49 161.025 529.526 161.139 529.532 161.255C529.611 162.492 529.637 164.085 529.651 165.019C529.651 165.121 529.63 165.221 529.589 165.314C529.548 165.407 529.487 165.49 529.411 165.557C529.335 165.625 529.245 165.675 529.148 165.705C529.051 165.734 528.949 165.743 528.848 165.73C525.966 165.335 515.109 161.861 499.646 137.041C492.026 124.802 486.749 105.575 485.894 101.509C485.853 101.317 485.888 101.118 485.991 100.951C486.094 100.785 486.257 100.664 486.446 100.614L489.934 99.6929C490.033 99.6657 490.137 99.6592 490.239 99.674C490.341 99.6888 490.439 99.7244 490.527 99.7788C490.615 99.8331 490.69 99.905 490.749 99.9898C490.808 100.075 490.848 100.171 490.868 100.272Z" fill="#263238"/>
    <path d="M493.289 122.447C494.75 125.71 487.775 139.739 496.672 154.031C505.568 168.322 513.319 156.57 522.413 161.808C511.924 150.319 493.289 122.447 493.289 122.447Z" fill="#263238"/>
    <path d="M513.78 158.676H513.648C497.382 151.162 494.566 128.092 494.54 127.869C494.534 127.825 494.537 127.781 494.549 127.739C494.561 127.697 494.58 127.658 494.607 127.624C494.634 127.589 494.668 127.561 494.706 127.54C494.744 127.518 494.786 127.505 494.829 127.5C494.872 127.495 494.915 127.498 494.956 127.51C494.997 127.521 495.036 127.541 495.069 127.568C495.102 127.596 495.13 127.629 495.15 127.667C495.169 127.705 495.181 127.747 495.184 127.79C495.184 128.026 497.988 150.727 513.924 158.058C513.996 158.088 514.054 158.142 514.089 158.211C514.124 158.28 514.134 158.359 514.117 158.434C514.1 158.51 514.056 158.576 513.995 158.623C513.933 158.67 513.857 158.693 513.78 158.689V158.676Z" fill="white"/>
    <path opacity="0.2" d="M522.452 118.959C522.528 127.081 524.965 135.005 529.466 141.766C529.585 140.252 529.729 138.712 529.887 137.173C530.48 131.382 531.269 125.394 532.348 119.328L522.452 118.959Z" fill="black"/>
    <path d="M516.872 75.7681C515.096 82.9403 513.016 96.1529 517.846 101.246C515.497 103.481 512.695 105.183 509.629 106.236C506.563 107.29 503.306 107.671 500.08 107.352C493.855 106.918 493.75 102.535 495.263 100.193C503.449 98.6664 503.528 92.6523 502.409 86.9541L516.872 75.7681Z" fill="#FFC3BD"/>
    <path opacity="0.2" d="M510.99 80.3608L502.462 86.9408C502.75 88.2653 502.917 89.6131 502.962 90.9678C506.068 90.6783 510.476 87.4935 510.963 84.2825C511.212 82.9879 511.221 81.6586 510.99 80.3608Z" fill="black"/>
    <path d="M516.596 62.8975C517.267 72.7149 518.149 78.4395 513.885 84.072C507.45 92.5602 494.842 89.6518 491.263 80.2293C488.025 71.7411 487.486 57.1071 496.527 51.9879C498.514 50.8511 500.758 50.2413 503.047 50.2164C505.336 50.1914 507.593 50.7522 509.604 51.8454C511.615 52.9387 513.313 54.528 514.537 56.4624C515.761 58.3968 516.469 60.612 516.596 62.8975Z" fill="#FFC3BD"/>
    <path d="M500.435 78.887C501.586 78.7606 502.69 78.3601 503.654 77.719C504.618 77.0778 505.414 76.2147 505.976 75.2022C506 75.1424 506.001 75.0758 505.979 75.0152C505.957 74.9545 505.914 74.904 505.857 74.8732C505.827 74.8577 505.794 74.8484 505.76 74.846C505.727 74.8436 505.693 74.848 505.661 74.8591C505.629 74.8702 505.599 74.8876 505.574 74.9104C505.549 74.9332 505.529 74.9608 505.515 74.9916C504.982 75.9189 504.239 76.708 503.345 77.2954C502.451 77.8829 501.432 78.2522 500.37 78.3737C500.303 78.3864 500.244 78.4228 500.203 78.4761C500.162 78.5295 500.141 78.596 500.146 78.6632C500.156 78.7308 500.191 78.7919 500.245 78.8336C500.299 78.8754 500.367 78.8945 500.435 78.887Z" fill="#263238"/>
    <path d="M507.713 56.186C508.121 60.5025 511.595 64.8716 511.161 67.6615C510.986 68.8891 510.57 70.0699 509.937 71.1357L516.306 72.6097C516.306 72.6097 534.507 53.1592 520.11 49.4217C513.451 36.5644 485.828 32.7612 480.116 44.1577C474.049 56.1728 490.71 59.0154 490.71 59.0154C490.71 59.0154 497.224 54.3567 507.713 56.186Z" fill="#263238"/>
    <path d="M522.452 73.136C521.408 75.3838 519.515 77.1255 517.188 77.9789C514.109 79.0975 512.319 76.3865 512.99 73.3466C513.582 70.6093 515.898 66.7666 519.096 66.9376C519.793 66.9957 520.465 67.2264 521.051 67.6091C521.636 67.9917 522.117 68.5142 522.45 69.1294C522.783 69.7445 522.958 70.433 522.958 71.1325C522.958 71.832 522.784 72.5206 522.452 73.136V73.136Z" fill="#FFC3BD"/>
    <path d="M453.533 397.872L470.167 400.254C470.167 400.254 479.814 339.718 484.801 304.594C486.117 295.29 488.302 282.156 491.144 268.141C494.711 250.48 499.264 231.385 502.988 216.422C506.936 200.63 509.95 189.497 509.95 189.497L475.076 187.773C475.076 187.773 457.968 269.694 456.007 299.896C454.02 331.309 453.533 397.872 453.533 397.872Z" fill="#263238"/>
    <path opacity="0.2" d="M491.144 268.141C494.711 250.48 499.264 231.385 502.988 216.422L499.225 208.684C490.868 219.212 489.118 250.928 491.144 268.141Z" fill="black"/>
    <path d="M493.908 188.707C493.908 188.707 499.396 273.813 503.581 302.567C508.173 334.059 519.82 402.899 519.82 402.899H537.981C537.981 402.899 536.362 338.02 531.703 307.147C526.439 272.194 528.098 190.405 528.098 190.405L493.908 188.707Z" fill="#263238"/>
    <path d="M517.635 403.294H539.034V396.898L515.122 396.49L517.635 403.294Z" fill="#EC4899"/>
    <path d="M452.441 398.109L471.207 400.807L473.023 394.227L451.625 391.121L452.441 398.109Z" fill="#EC4899"/>
    <path d="M502.172 67.543C502.278 68.3326 501.936 69.0301 501.422 69.0959C500.909 69.1617 500.396 68.5695 500.291 67.7799C500.185 66.9903 500.527 66.2928 501.054 66.227C501.58 66.1612 502.067 66.7403 502.172 67.543Z" fill="#263238"/>
    <path d="M493.21 68.7012C493.303 69.4908 492.974 70.1883 492.447 70.2541C491.921 70.3199 491.434 69.7408 491.329 68.9381C491.223 68.1353 491.566 67.451 492.079 67.3852C492.592 67.3194 493.105 67.8721 493.21 68.7012Z" fill="#263238"/>
    <path d="M496.132 68.7274C495.499 71.2744 494.52 73.7229 493.224 76.0049C494.79 77.1366 497.172 76.0049 497.172 76.0049L496.132 68.7274Z" fill="#ED847E"/>
    <path d="M504.581 64.2793C504.499 64.306 504.411 64.309 504.327 64.2881C504.243 64.2671 504.167 64.223 504.107 64.1609C503.706 63.7282 503.209 63.3966 502.655 63.193C502.102 62.9894 501.508 62.9197 500.922 62.9896C500.862 63.003 500.799 63.004 500.738 62.9926C500.677 62.9812 500.619 62.9575 500.567 62.9231C500.516 62.8887 500.472 62.8442 500.438 62.7923C500.404 62.7404 500.381 62.6822 500.37 62.6211C500.356 62.5606 500.355 62.4979 500.367 62.4369C500.378 62.376 500.402 62.3179 500.436 62.2663C500.47 62.2147 500.515 62.1705 500.567 62.1365C500.619 62.1025 500.677 62.0794 500.738 62.0684C501.477 61.9687 502.229 62.0469 502.932 62.2964C503.634 62.5459 504.267 62.9595 504.778 63.5029C504.822 63.5457 504.857 63.5969 504.88 63.6534C504.904 63.7099 504.916 63.7706 504.916 63.8319C504.916 63.8931 504.904 63.9538 504.88 64.0103C504.857 64.0668 504.822 64.118 504.778 64.1609C504.721 64.2138 504.654 64.2541 504.581 64.2793Z" fill="#263238"/>
    <path d="M488.96 66.1086C488.865 66.135 488.765 66.135 488.67 66.1086C488.552 66.0694 488.454 65.9853 488.398 65.8745C488.341 65.7637 488.33 65.6351 488.368 65.5164C488.588 64.8013 488.976 64.1496 489.501 63.616C490.025 63.0824 490.67 62.6825 491.381 62.4501C491.444 62.4241 491.511 62.4118 491.579 62.4141C491.647 62.4164 491.713 62.4331 491.774 62.4632C491.834 62.4934 491.888 62.5362 491.931 62.5887C491.973 62.6413 492.004 62.7024 492.022 62.768C492.039 62.8335 492.041 62.902 492.03 62.9688C492.018 63.0355 491.992 63.099 491.954 63.1549C491.916 63.2108 491.866 63.2579 491.808 63.293C491.75 63.328 491.685 63.3503 491.618 63.3581V63.3581C491.062 63.5538 490.559 63.8772 490.15 64.3022C489.741 64.7273 489.437 65.2423 489.262 65.8059C489.242 65.8782 489.204 65.9441 489.151 65.9971C489.098 66.0502 489.032 66.0886 488.96 66.1086Z" fill="#263238"/>
    <path d="M521.491 416.902C520.817 416.951 520.146 416.775 519.583 416.401C519.407 416.248 519.271 416.054 519.186 415.836C519.101 415.619 519.07 415.384 519.096 415.151C519.096 415.015 519.135 414.881 519.207 414.764C519.279 414.648 519.382 414.554 519.504 414.493C520.61 413.927 523.794 415.888 524.163 416.112C524.201 416.137 524.232 416.173 524.251 416.215C524.269 416.257 524.275 416.303 524.268 416.349C524.264 416.395 524.245 416.44 524.214 416.475C524.184 416.511 524.143 416.535 524.097 416.546C523.245 416.764 522.371 416.883 521.491 416.902V416.902ZM520.017 414.849C519.918 414.826 519.814 414.826 519.715 414.849C519.668 414.877 519.629 414.918 519.604 414.967C519.578 415.015 519.567 415.07 519.57 415.125C519.546 415.283 519.563 415.444 519.618 415.593C519.673 415.743 519.765 415.876 519.886 415.98C520.994 416.493 522.257 416.559 523.413 416.165C522.376 415.512 521.223 415.066 520.017 414.849V414.849Z" fill="#EC4899"/>
    <path d="M524.031 416.612C523.997 416.623 523.96 416.623 523.926 416.612C522.899 416.059 520.912 413.888 521.123 412.782C521.156 412.608 521.25 412.451 521.387 412.338C521.524 412.225 521.695 412.164 521.873 412.164C522.051 412.143 522.232 412.16 522.404 412.212C522.576 412.264 522.736 412.35 522.873 412.467C524.018 413.401 524.268 416.27 524.268 416.415C524.274 416.458 524.268 416.503 524.249 416.542C524.23 416.582 524.2 416.615 524.163 416.638L524.031 416.612ZM522.031 412.598H521.926C521.623 412.598 521.597 412.782 521.583 412.835C521.465 413.493 522.728 415.138 523.742 415.915C523.678 414.784 523.269 413.7 522.57 412.809C522.434 412.65 522.24 412.55 522.031 412.532V412.598Z" fill="#EC4899"/>
    <path d="M455.665 411.953C454.033 412.032 451.164 411.953 450.217 410.914C450.079 410.75 449.983 410.556 449.937 410.347C449.891 410.139 449.897 409.922 449.954 409.716C449.977 409.589 450.033 409.47 450.116 409.371C450.199 409.272 450.306 409.196 450.427 409.15C451.743 408.676 455.362 411.23 455.783 411.519C455.823 411.549 455.853 411.59 455.87 411.637C455.886 411.684 455.888 411.734 455.876 411.782C455.862 411.829 455.835 411.87 455.797 411.901C455.76 411.932 455.713 411.95 455.665 411.953ZM450.612 409.585H450.546C450.498 409.602 450.456 409.632 450.424 409.672C450.391 409.711 450.37 409.758 450.362 409.808C450.323 409.945 450.32 410.089 450.352 410.227C450.385 410.365 450.451 410.492 450.546 410.598C451.072 411.216 452.665 411.545 454.889 411.493C453.428 410.545 451.388 409.4 450.612 409.585V409.585Z" fill="#EC4899"/>
    <path d="M455.665 411.953C455.605 411.973 455.54 411.973 455.481 411.953C454.375 411.243 452.322 408.795 452.665 407.703C452.743 407.453 452.98 407.15 453.625 407.176C453.86 407.187 454.091 407.246 454.304 407.347C454.516 407.449 454.706 407.592 454.862 407.769C455.955 408.966 455.849 411.651 455.836 411.717C455.834 411.757 455.822 411.795 455.801 411.83C455.78 411.864 455.752 411.893 455.718 411.914L455.665 411.953ZM453.336 407.637C453.151 407.637 453.125 407.782 453.112 407.821C452.915 408.466 454.27 410.361 455.375 411.269C455.424 410.135 455.121 409.013 454.507 408.058C454.396 407.927 454.26 407.821 454.106 407.746C453.951 407.671 453.783 407.629 453.612 407.624L453.336 407.637Z" fill="#EC4899"/>
    <path d="M536.928 109.826C538.165 111.353 539.218 112.735 540.284 114.222C541.35 115.709 542.376 117.156 543.403 118.643C545.412 121.626 547.32 124.697 549.127 127.855C552.849 134.271 555.855 141.076 558.089 148.148L558.195 148.517L558.339 149.03L558.589 150.069C558.695 150.688 558.813 151.385 558.879 151.938C558.99 153.049 559.038 154.165 559.024 155.281C558.978 157.263 558.811 159.241 558.524 161.203C557.98 164.841 557.225 168.444 556.26 171.994C554.39 178.877 552.024 185.615 549.18 192.155L542.06 189.944C543.205 183.246 544.311 176.442 545.127 169.809C545.561 166.506 545.837 163.229 545.956 160.071C546.017 158.588 545.991 157.103 545.877 155.623C545.811 154.952 545.719 154.307 545.614 153.781C545.614 153.517 545.495 153.32 545.443 153.096L545.35 152.886V152.78L545.245 152.53C544.1 149.661 542.692 146.793 541.205 143.937C539.718 141.081 538.02 138.265 536.283 135.462C534.546 132.659 532.704 129.895 530.835 127.158C529.901 125.842 528.94 124.421 527.979 123.078L525.084 119.196L536.928 109.826Z" fill="#FFC3BD"/>
    <path d="M535.48 104.417C544.811 106.102 553.417 128.684 553.417 128.684L534.296 144.871C534.296 144.871 527.716 133.448 522.386 122.394C516.662 110.366 524.176 102.378 535.48 104.417Z" fill="#EC4899"/>
    <path d="M543.074 187.997L536.494 195.656L548.68 199.104C548.68 199.104 552.799 191.352 548.93 188.707L543.074 187.997Z" fill="#FFC3BD"/>
    <path d="M536.125 203.92L546.337 206.315L548.719 199.104L536.533 195.656L536.125 203.92Z" fill="#FFC3BD"/>
    <path d="M329.329 277.34C329.406 278.774 329.106 280.203 328.46 281.485C327.84 282.737 327.038 283.89 326.078 284.907C324.184 286.831 322.052 288.507 319.735 289.894C315.185 292.551 310.385 294.755 305.404 296.474C295.545 299.875 285.421 302.454 275.136 304.186C254.709 307.704 234.012 309.422 213.284 309.319C192.578 309.418 171.904 307.701 151.498 304.186C141.214 302.453 131.09 299.873 121.23 296.474C116.253 294.755 111.458 292.551 106.912 289.894C104.591 288.507 102.455 286.831 100.556 284.907C99.6006 283.887 98.7983 282.735 98.1736 281.485C97.534 280.2 97.235 278.773 97.305 277.34C97.2963 277.165 97.3573 276.994 97.4745 276.865C97.5917 276.735 97.7556 276.657 97.9301 276.649C98.1047 276.64 98.2755 276.701 98.4051 276.818C98.5346 276.935 98.6123 277.099 98.621 277.274V277.34C99.0786 279.635 100.421 281.659 102.358 282.972C104.301 284.432 106.419 285.644 108.662 286.578C113.248 288.526 118 290.055 122.862 291.145C127.81 292.32 132.793 293.303 137.812 294.092C142.786 294.882 147.787 295.619 152.801 296.158C172.93 298.293 193.161 299.33 213.403 299.264C233.645 299.33 253.875 298.293 274.004 296.158C279.031 295.619 284.019 294.842 288.994 294.092C293.968 293.342 298.916 292.342 303.772 291.145C308.634 290.055 313.387 288.526 317.972 286.578C320.219 285.644 322.341 284.432 324.289 282.972C326.218 281.653 327.555 279.631 328.013 277.34V277.274C328.036 277.101 328.126 276.945 328.265 276.839C328.403 276.733 328.577 276.686 328.75 276.708C328.905 276.729 329.048 276.804 329.153 276.919C329.259 277.035 329.321 277.183 329.329 277.34V277.34Z" fill="#EC4899"/>
    <path opacity="0.5" d="M329.329 277.34C329.406 278.774 329.106 280.203 328.46 281.485C327.84 282.737 327.038 283.89 326.078 284.907C324.184 286.831 322.052 288.507 319.735 289.894C315.185 292.551 310.385 294.755 305.404 296.474C295.545 299.875 285.421 302.454 275.136 304.186C254.709 307.704 234.012 309.422 213.284 309.319C192.578 309.418 171.904 307.701 151.498 304.186C141.214 302.453 131.09 299.873 121.23 296.474C116.253 294.755 111.458 292.551 106.912 289.894C104.591 288.507 102.455 286.831 100.556 284.907C99.6006 283.887 98.7983 282.735 98.1736 281.485C97.534 280.2 97.235 278.773 97.305 277.34C97.2963 277.165 97.3573 276.994 97.4745 276.865C97.5917 276.735 97.7556 276.657 97.9301 276.649C98.1047 276.64 98.2755 276.701 98.4051 276.818C98.5346 276.935 98.6123 277.099 98.621 277.274V277.34C99.0786 279.635 100.421 281.659 102.358 282.972C104.301 284.432 106.419 285.644 108.662 286.578C113.248 288.526 118 290.055 122.862 291.145C127.81 292.32 132.793 293.303 137.812 294.092C142.786 294.882 147.787 295.619 152.801 296.158C172.93 298.293 193.161 299.33 213.403 299.264C233.645 299.33 253.875 298.293 274.004 296.158C279.031 295.619 284.019 294.842 288.994 294.092C293.968 293.342 298.916 292.342 303.772 291.145C308.634 290.055 313.387 288.526 317.972 286.578C320.219 285.644 322.341 284.432 324.289 282.972C326.218 281.653 327.555 279.631 328.013 277.34V277.274C328.036 277.101 328.126 276.945 328.265 276.839C328.403 276.733 328.577 276.686 328.75 276.708C328.905 276.729 329.048 276.804 329.153 276.919C329.259 277.035 329.321 277.183 329.329 277.34V277.34Z" fill="white"/>
    <path d="M560.524 277.34C560.594 278.773 560.295 280.2 559.655 281.485C559.035 282.737 558.232 283.89 557.273 284.907C555.374 286.831 553.238 288.507 550.917 289.894C546.371 292.551 541.575 294.755 536.599 296.474C526.739 299.873 516.615 302.453 506.331 304.186C465.424 311.029 423.665 311.029 382.759 304.186C372.474 302.454 362.35 299.875 352.491 296.474C347.514 294.755 342.719 292.551 338.173 289.894C335.849 288.511 333.713 286.835 331.816 284.907C330.857 283.89 330.054 282.737 329.434 281.485C328.788 280.203 328.489 278.774 328.566 277.34C328.557 277.165 328.618 276.994 328.735 276.865C328.852 276.735 329.016 276.657 329.191 276.649C329.365 276.64 329.536 276.701 329.666 276.818C329.795 276.935 329.873 277.099 329.882 277.274V277.34C330.34 279.631 331.677 281.653 333.606 282.972C335.553 284.432 337.675 285.644 339.923 286.578C344.508 288.526 349.261 290.055 354.122 291.145C358.978 292.342 363.927 293.316 368.901 294.092C373.876 294.869 378.863 295.619 383.89 296.158C403.998 298.291 424.206 299.328 444.426 299.264C464.668 299.33 484.899 298.293 505.028 296.158C510.042 295.619 515.043 294.842 520.017 294.092C524.992 293.342 529.927 292.342 534.796 291.145C539.658 290.055 544.41 288.526 548.996 286.578C551.241 285.647 553.359 284.435 555.299 282.972C557.237 281.659 558.579 279.635 559.037 277.34V277.274C559.06 277.101 559.15 276.945 559.288 276.839C559.426 276.733 559.601 276.686 559.774 276.708C559.865 276.699 559.957 276.708 560.044 276.735C560.131 276.762 560.212 276.807 560.282 276.866C560.352 276.924 560.409 276.997 560.451 277.078C560.493 277.16 560.517 277.249 560.524 277.34V277.34Z" fill="#EC4899"/>
    <path opacity="0.5" d="M560.524 277.34C560.594 278.773 560.295 280.2 559.655 281.485C559.035 282.737 558.232 283.89 557.273 284.907C555.374 286.831 553.238 288.507 550.917 289.894C546.371 292.551 541.575 294.755 536.599 296.474C526.739 299.873 516.615 302.453 506.331 304.186C465.424 311.029 423.665 311.029 382.759 304.186C372.474 302.454 362.35 299.875 352.491 296.474C347.514 294.755 342.719 292.551 338.173 289.894C335.849 288.511 333.713 286.835 331.816 284.907C330.857 283.89 330.054 282.737 329.434 281.485C328.788 280.203 328.489 278.774 328.566 277.34C328.557 277.165 328.618 276.994 328.735 276.865C328.852 276.735 329.016 276.657 329.191 276.649C329.365 276.64 329.536 276.701 329.666 276.818C329.795 276.935 329.873 277.099 329.882 277.274V277.34C330.34 279.631 331.677 281.653 333.606 282.972C335.553 284.432 337.675 285.644 339.923 286.578C344.508 288.526 349.261 290.055 354.122 291.145C358.978 292.342 363.927 293.316 368.901 294.092C373.876 294.869 378.863 295.619 383.89 296.158C403.998 298.291 424.206 299.328 444.426 299.264C464.668 299.33 484.899 298.293 505.028 296.158C510.042 295.619 515.043 294.842 520.017 294.092C524.992 293.342 529.927 292.342 534.796 291.145C539.658 290.055 544.41 288.526 548.996 286.578C551.241 285.647 553.359 284.435 555.299 282.972C557.237 281.659 558.579 279.635 559.037 277.34V277.274C559.06 277.101 559.15 276.945 559.288 276.839C559.426 276.733 559.601 276.686 559.774 276.708C559.865 276.699 559.957 276.708 560.044 276.735C560.131 276.762 560.212 276.807 560.282 276.866C560.352 276.924 560.409 276.997 560.451 277.078C560.493 277.16 560.517 277.249 560.524 277.34V277.34Z" fill="white"/>
    <path d="M102.082 234.122H94.8441V427.798H102.082V234.122Z" fill="#EC4899"/>
    <path d="M94.752 425.087H102.122C102.635 425.087 103.127 425.291 103.49 425.654C103.852 426.016 104.056 426.509 104.056 427.022V427.785H92.8701V427.022C92.8699 426.517 93.0665 426.033 93.418 425.672C93.7695 425.311 94.2481 425.101 94.752 425.087V425.087Z" fill="#EC4899"/>
    <path d="M102.635 275.181H94.3046V279.511H102.635V275.181Z" fill="#EC4899"/>
    <path opacity="0.3" d="M102.082 279.511H94.8441V280.511H102.082V279.511Z" fill="black"/>
    <path d="M98.4631 237.623C101.806 237.623 104.517 234.913 104.517 231.569C104.517 228.226 101.806 225.516 98.4631 225.516C95.1198 225.516 92.4095 228.226 92.4095 231.569C92.4095 234.913 95.1198 237.623 98.4631 237.623Z" fill="#EC4899"/>
    <path d="M563.156 234.122H555.918V427.798H563.156V234.122Z" fill="#EC4899"/>
    <path d="M555.878 425.087H563.248C563.761 425.087 564.253 425.291 564.616 425.654C564.979 426.016 565.182 426.509 565.182 427.022V427.785H553.997V427.022C553.996 426.517 554.193 426.033 554.544 425.672C554.896 425.311 555.374 425.101 555.878 425.087V425.087Z" fill="#EC4899"/>
    <path d="M563.695 275.181H555.365V279.511H563.695V275.181Z" fill="#EC4899"/>
    <path opacity="0.3" d="M563.156 279.511H555.918V280.511H563.156V279.511Z" fill="black"/>
    <path d="M559.537 237.623C562.88 237.623 565.591 234.913 565.591 231.569C565.591 228.226 562.88 225.516 559.537 225.516C556.194 225.516 553.483 228.226 553.483 231.569C553.483 234.913 556.194 237.623 559.537 237.623Z" fill="#EC4899"/>
    <path d="M332.619 234.122H325.381V427.798H332.619V234.122Z" fill="#EC4899"/>
    <path d="M325.342 425.087H332.658C333.172 425.087 333.664 425.291 334.026 425.654C334.389 426.016 334.593 426.509 334.593 427.022V427.785H323.407V427.022C323.407 426.509 323.611 426.016 323.974 425.654C324.336 425.291 324.828 425.087 325.342 425.087V425.087Z" fill="#EC4899"/>
    <path d="M333.159 275.181H324.828V279.511H333.159V275.181Z" fill="#EC4899"/>
    <path opacity="0.3" d="M332.619 279.511H325.381V280.511H332.619V279.511Z" fill="black"/>
    <path d="M329 237.623C332.343 237.623 335.054 234.913 335.054 231.569C335.054 228.226 332.343 225.516 329 225.516C325.657 225.516 322.946 228.226 322.946 231.569C322.946 234.913 325.657 237.623 329 237.623Z" fill="#EC4899"/>
</svg>
