<svg width="658" height="444" viewbox="0 0 658 444" fill="none" xmlns="http://www.w3.org/2000/svg">
    <path d="M658 384.061H0V384.39H658V384.061Z" fill="#334366"/>
    <path d="M435.885 408.815H424.449V409.144H435.885V408.815Z" fill="#334366"/>
    <path d="M103.253 396.59H69.0374V396.919H103.253V396.59Z" fill="#334366"/>
    <path d="M375.428 393.023H304.233V393.352H375.428V393.023Z" fill="#334366"/>
    <path d="M194.623 408.815H104.569V409.144H194.623V408.815Z" fill="#334366"/>
    <path d="M603.741 399.511H529.164V399.84H603.741V399.511Z" fill="#334366"/>
    <path d="M517.451 399.511H487.091V399.84H517.451V399.511Z" fill="#334366"/>
    <path d="M411.632 401.051H339.831V401.38H411.632V401.051Z" fill="#334366"/>
    <path d="M200.243 383.89H351.688L351.688 35.9269H200.243L200.243 383.89Z" fill="#4E679C"/>
    <path d="M64.6024 383.89L349.938 383.89L349.938 35.9269L64.6024 35.9269L64.6024 383.89Z" fill="#2D3B59"/>
    <path d="M342.239 376.008V43.8359L208.152 43.8359L208.152 376.008H342.239Z" fill="#4E679C"/>
    <path d="M210.192 375.994L210.192 43.8228H208.139L208.139 375.994H210.192Z" fill="#4E679C"/>
    <path d="M226.049 202.256C229.763 202.256 232.774 199.245 232.774 195.531C232.774 191.817 229.763 188.807 226.049 188.807C222.335 188.807 219.325 191.817 219.325 195.531C219.325 199.245 222.335 202.256 226.049 202.256Z" fill="#526CA3"/>
    <path d="M223.417 200.861C227.131 200.861 230.142 197.85 230.142 194.136C230.142 190.422 227.131 187.411 223.417 187.411C219.703 187.411 216.693 190.422 216.693 194.136C216.693 197.85 219.703 200.861 223.417 200.861Z" fill="#334366"/>
    <path d="M206.401 375.994L206.401 43.8228L72.3142 43.8228L72.3142 375.994H206.401Z" fill="#4E679C"/>
    <path d="M193.755 202.256C197.469 202.256 200.479 199.245 200.479 195.531C200.479 191.817 197.469 188.807 193.755 188.807C190.041 188.807 187.03 191.817 187.03 195.531C187.03 199.245 190.041 202.256 193.755 202.256Z" fill="#526CA3"/>
    <path d="M191.123 200.861C194.837 200.861 197.847 197.85 197.847 194.136C197.847 190.422 194.837 187.411 191.123 187.411C187.409 187.411 184.398 190.422 184.398 194.136C184.398 197.85 187.409 200.861 191.123 200.861Z" fill="#334366"/>
    <path d="M365.795 207.191H431.451V35.9268H365.795V207.191Z" fill="#465D8C"/>
    <path d="M362.979 207.191H428.648V35.9268H362.979V207.191Z" fill="#2D3B59"/>
    <path d="M423.62 199.663V43.4674H368.019V199.663H423.62Z" fill="#334366"/>
    <path d="M370.138 199.663V43.4674H368.019V199.663H370.138Z" fill="#465D8C"/>
    <path d="M365.072 164.539H426.568V154.419H365.072V164.539Z" fill="#2D3B59"/>
    <path d="M446.769 207.191H512.424V35.9268H446.769V207.191Z" fill="#465D8C"/>
    <path d="M443.953 207.191H509.621V35.9268H443.953V207.191Z" fill="#2D3B59"/>
    <path d="M504.581 199.663V43.4674H448.98V199.663H504.581Z" fill="#334366"/>
    <path d="M451.112 199.664V43.4675H448.993V199.664H451.112Z" fill="#465D8C"/>
    <path d="M446.045 164.539H507.542V154.419H446.045V164.539Z" fill="#2D3B59"/>
    <path d="M527.742 207.191H593.398V35.9268H527.742V207.191Z" fill="#465D8C"/>
    <path d="M524.926 207.191H590.594V35.9268H524.926V207.191Z" fill="#2D3B59"/>
    <path d="M585.554 199.663V43.4674H529.953V199.663H585.554Z" fill="#334366"/>
    <path d="M532.072 199.664V43.4675H529.953V199.664H532.072Z" fill="#465D8C"/>
    <path d="M527.005 164.539H588.502V154.419H527.005V164.539Z" fill="#2D3B59"/>
    <path d="M161.105 17.1738L162.96 18.1213H253.435V0L161.105 17.1738Z" fill="#526CA3"/>
    <path d="M249.935 17.1738H161.105L164.605 0H253.435L249.935 17.1738Z" fill="#2D3B59"/>
    <path d="M504.502 273.215H435.885V384.061H504.502V273.215Z" fill="#4E679C"/>
    <path d="M504.502 273.215L549.93 245.066V384.061H504.502V273.215Z" fill="#526CA3"/>
    <path d="M435.885 273.215L481.314 245.066H549.93L504.502 273.215H435.885Z" fill="#334366"/>
    <path d="M450.309 269.267L482.998 249.014H535.507L502.817 269.267H450.309Z" fill="#526CA3"/>
    <path d="M482.998 269.267V249.014H535.507L502.817 269.267H482.998Z" fill="#465D8C"/>
    <path d="M329 443.492C469.921 443.492 584.159 436.822 584.159 428.595C584.159 420.367 469.921 413.698 329 413.698C188.079 413.698 73.8408 420.367 73.8408 428.595C73.8408 436.822 188.079 443.492 329 443.492Z" fill="#2D3B59"/>
    <path d="M160.381 45.7441C157.749 49.6 158.578 52.403 160.802 60.0622C161.723 63.2337 163.144 66.3921 167.514 61.7203C171.883 57.0485 176.133 48.1655 170.527 46.6653C167.226 45.7639 163.791 45.452 160.381 45.7441V45.7441Z" fill="#263238"/>
    <path d="M160.262 416.29H150.498L150.077 393.642H159.855L160.262 416.29Z" fill="#FFC3BD"/>
    <path d="M218.969 416.29H209.191L204.835 393.642H214.613L218.969 416.29Z" fill="#FFC3BD"/>
    <path d="M208.52 415.119H219.509C219.7 415.118 219.885 415.183 220.034 415.303C220.183 415.423 220.285 415.59 220.325 415.777L222.049 424.476C222.085 424.69 222.074 424.909 222.017 425.119C221.96 425.328 221.857 425.522 221.717 425.688C221.576 425.854 221.401 425.986 221.204 426.077C221.007 426.168 220.792 426.214 220.575 426.213C216.732 426.213 214.876 425.923 210.047 425.923C207.073 425.923 200.953 426.226 196.887 426.226C192.82 426.226 192.347 422.173 194.031 421.804C201.611 420.159 204.559 417.856 206.967 415.711C207.399 415.338 207.949 415.128 208.52 415.119V415.119Z" fill="#263238"/>
    <path d="M150.59 415.119H161.263C161.454 415.118 161.639 415.183 161.788 415.303C161.936 415.423 162.039 415.59 162.079 415.777L163.789 424.476C163.83 424.688 163.824 424.907 163.77 425.117C163.716 425.326 163.616 425.521 163.477 425.687C163.339 425.854 163.165 425.987 162.969 426.078C162.772 426.169 162.558 426.215 162.342 426.213C158.499 426.213 152.932 425.923 148.089 425.923C142.431 425.923 137.561 426.226 130.903 426.226C126.955 426.226 125.875 422.173 127.56 421.804C135.245 420.133 141.496 419.949 148.208 415.882C148.916 415.412 149.741 415.148 150.59 415.119V415.119Z" fill="#263238"/>
    <path d="M153.13 107.057L139.786 102.78C139.786 102.78 125.994 134.706 121.362 136.693C115.084 139.325 106.306 147.918 100.069 153.117C99.8712 154.762 100.635 159.091 101.622 160.223C112.873 157.591 126.902 151.143 131.495 146.892C141.996 137.193 153.13 107.057 153.13 107.057Z" fill="#FFC3BD"/>
    <path d="M156.249 99.7134C159.999 108.267 144.931 135.43 144.931 135.43L124.994 126.218C127.444 117.936 130.756 109.935 134.877 102.345C141.141 91.3831 152.13 90.3172 156.249 99.7134Z" fill="#EC4899"/>
    <path opacity="0.7" d="M156.249 99.7134C159.999 108.267 144.931 135.43 144.931 135.43L124.994 126.218C127.444 117.936 130.756 109.935 134.877 102.345C141.141 91.3831 152.13 90.3172 156.249 99.7134Z" fill="#334366"/>
    <path opacity="0.2" d="M139.496 114.61C137.563 119.9 136.053 125.334 134.982 130.863L144.931 135.469C144.931 135.469 155.538 116.361 156.775 105.201C150.972 101.332 143.128 104.977 139.496 114.61Z" fill="black"/>
    <path d="M101.424 152.169L89.7906 154.025L92.8043 166.303C96.8718 164.564 100.649 162.212 104.003 159.328L101.424 152.169Z" fill="#FFC3BD"/>
    <path d="M79.7233 159.223L83.9608 165.987L92.8043 166.303L89.7907 154.025L79.7233 159.223Z" fill="#FFC3BD"/>
    <path opacity="0.2" d="M150.077 393.655L150.287 405.328H160.065L159.855 393.655H150.077Z" fill="black"/>
    <path opacity="0.2" d="M214.613 393.655H204.835L207.086 405.328H216.864L214.613 393.655Z" fill="black"/>
    <path d="M143.444 94.1598C143.444 94.1598 131.179 127.757 140.812 182.74H193.097C193.649 174.712 189.57 131.482 198.242 93.6597C192.48 92.5424 186.651 91.8039 180.792 91.4488C173.389 91.0208 165.968 91.0208 158.565 91.4488C153.463 91.9642 148.407 92.8706 143.444 94.1598V94.1598Z" fill="#EC4899"/>
    <path opacity="0.7" d="M143.444 94.1598C143.444 94.1598 131.179 127.757 140.812 182.74H193.097C193.649 174.712 189.57 131.482 198.242 93.6597C192.48 92.5424 186.651 91.8039 180.792 91.4488C173.389 91.0208 165.968 91.0208 158.565 91.4488C153.463 91.9642 148.407 92.8706 143.444 94.1598V94.1598Z" fill="#334366"/>
    <path opacity="0.2" d="M186.661 103.003C185.648 109.228 187.24 124.059 192.741 141.325C193.006 126.583 194.565 111.893 197.4 97.4234V97.3445C194.005 97.0023 187.648 97.1602 186.661 103.003Z" fill="black"/>
    <path d="M178.41 70.656C176.831 77.815 175.923 86.6717 180.805 91.4488C180.805 91.4488 177.752 98.7 164.461 98.7C152.314 98.7 158.578 91.4488 158.578 91.4488C166.592 89.5406 166.474 79.6838 165.158 74.1302L178.41 70.656Z" fill="#FFC3BD"/>
    <path d="M163.829 98.1342L160.96 101.319C160.857 101.428 160.786 101.562 160.754 101.708C160.721 101.854 160.729 102.006 160.776 102.148L161.697 104.951C161.748 105.108 161.846 105.245 161.978 105.344C162.11 105.443 162.269 105.498 162.434 105.504L165.526 105.662C165.674 105.669 165.821 105.638 165.953 105.571C166.084 105.504 166.196 105.404 166.277 105.28L168.132 102.556C168.246 102.412 168.309 102.233 168.309 102.049C168.309 101.865 168.246 101.687 168.132 101.543L165.132 98.121C165.053 98.0232 164.953 97.9445 164.84 97.8909C164.727 97.8373 164.603 97.8101 164.477 97.8113C164.352 97.8126 164.228 97.8423 164.116 97.8982C164.004 97.9541 163.905 98.0348 163.829 98.1342V98.1342Z" fill="#263238"/>
    <path d="M164.5 97.4235C165.967 99.8942 166.782 102.697 166.869 105.57C166.869 105.57 183.661 99.7002 183.095 91.0936C183.095 91.0936 180.766 89.6854 179.292 88.5405C179.266 88.5537 178.568 94.0151 164.5 97.4235Z" fill="#334366"/>
    <path d="M164.5 97.4234C162.915 99.7457 161.752 102.33 161.065 105.056C161.065 105.056 153.643 99.9502 156.117 91.4488C157.515 90.8985 158.954 90.4584 160.42 90.1328C160.42 90.1328 159.236 95.581 164.5 97.4234Z" fill="#334366"/>
    <path d="M163.184 103.872C162.71 103.714 156.696 138.983 157.367 145.339C157.629 151.204 158.861 156.985 161.013 162.447C161.013 162.447 163.645 155.946 163.881 144.905C163.881 134.008 164 110.241 164.961 104.109L163.184 103.872Z" fill="#263238"/>
    <path opacity="0.2" d="M165.158 74.1303C166.145 77.9981 166.027 82.0653 164.816 85.869C166.073 85.6981 167.298 85.3388 168.448 84.803C173.001 82.6843 175.291 79.3548 177.726 74.3935C177.936 73.0775 178.173 71.8931 178.45 70.6824L165.158 74.1303Z" fill="black"/>
    <path d="M153.854 66.379C154.23 67.5242 154.834 68.5811 155.63 69.4859C156.426 70.3907 157.398 71.1246 158.486 71.643C161.381 72.959 163.408 70.4718 163.079 67.4318C162.789 64.6814 160.92 60.6676 157.815 60.6018C157.126 60.6058 156.449 60.7765 155.841 61.0991C155.233 61.4217 154.712 61.8867 154.323 62.4544C153.934 63.0221 153.688 63.6756 153.606 64.359C153.524 65.0425 153.609 65.7355 153.854 66.379V66.379Z" fill="#FFC3BD"/>
    <path opacity="0.2" d="M153.854 66.379C154.23 67.5242 154.834 68.5811 155.63 69.4859C156.426 70.3907 157.398 71.1246 158.486 71.643C161.381 72.959 163.408 70.4718 163.079 67.4318C162.789 64.6814 160.92 60.6676 157.815 60.6018C157.126 60.6058 156.449 60.7765 155.841 61.0991C155.233 61.4217 154.712 61.8867 154.323 62.4544C153.934 63.0221 153.688 63.6756 153.606 64.359C153.524 65.0425 153.609 65.7355 153.854 66.379V66.379Z" fill="black"/>
    <path d="M184.424 61.9441C181.595 71.314 180.476 76.9465 174.515 80.7892C165.645 86.5665 155.091 79.6969 155.091 69.7217C155.091 60.7465 159.723 46.9286 169.803 45.1388C172.015 44.731 174.295 44.9067 176.417 45.6487C178.54 46.3906 180.433 47.6731 181.909 49.3696C183.385 51.0662 184.393 53.1182 184.834 55.3233C185.275 57.5284 185.134 59.8103 184.424 61.9441Z" fill="#FFC3BD"/>
    <path d="M178.976 50.2975C176.344 54.1534 177.186 56.9565 179.41 64.6156C180.331 67.7872 181.753 70.9456 186.109 66.2738C190.465 61.602 194.742 52.719 189.122 51.2187C185.821 50.3173 182.386 50.0055 178.976 50.2975V50.2975Z" fill="#263238"/>
    <path d="M180.042 53.2191C173.988 52.4821 158.986 51.2187 160.105 43.4017C161.223 35.5847 171.396 37.9403 171.396 37.9403C171.396 37.9403 166.356 40.5723 176.936 42.6121C187.517 44.6519 192.873 50.9161 188.096 53.4296C186.878 54.1801 185.468 54.5597 184.038 54.5224C182.607 54.485 181.219 54.0321 180.042 53.2191V53.2191Z" fill="#263238"/>
    <path d="M186.188 73.3407C184.448 75.0999 182.082 76.0983 179.608 76.1174C176.383 76.1174 175.66 73.0249 177.37 70.4192C178.871 68.0635 182.358 65.221 185.266 66.4712C188.175 67.7214 188.293 71.1693 186.188 73.3407Z" fill="#FFC3BD"/>
    <path d="M154.222 69.7348C153.946 74.6172 154.406 81.184 158.17 82.4869C161.934 83.7897 171.804 83.3686 174.936 81.6578C179.831 79.0258 182.016 67.8267 184.293 65.7079C186.569 63.5891 182.266 62.5758 182.266 62.5758C182.266 62.5758 179.371 69.7348 174.646 70.0638C169.922 70.3928 154.564 63.5628 154.222 69.7348Z" fill="#263238"/>
    <path d="M175.186 182.74C175.186 182.74 174.146 195.031 172.83 211.692C171.317 230.576 169.461 255.12 168.356 273.767C168.356 273.873 168.356 273.952 168.356 274.031C168.145 277.571 167.961 280.9 167.803 283.94C166.329 314.406 163.276 403.065 163.276 403.065H146.694C146.694 403.065 138.364 312.589 138.009 281.585C137.68 251.764 140.812 182.74 140.812 182.74H175.186Z" fill="#EC4899"/>
    <path d="M164.5 398.011C164.566 398.011 164.355 403.42 164.355 403.42H145.273L144.615 397.34L164.5 398.011Z" fill="#263238"/>
    <path opacity="0.2" d="M172.83 211.692C171.317 230.576 169.461 255.12 168.356 273.768C168.356 273.873 168.356 273.952 168.356 274.031C164.303 256.317 162.658 234.288 163.237 198.019L172.83 211.692Z" fill="black"/>
    <path d="M159.368 182.74C159.368 182.74 168.58 253.383 174.041 281.44C179.963 312.089 202.585 403.13 202.585 403.13H220.496C220.496 403.13 206.362 314.563 203.296 284.217C199.979 251.317 193.11 182.806 193.11 182.806L159.368 182.74Z" fill="#EC4899"/>
    <path d="M220.601 398.393C220.68 398.393 221.378 403.394 221.378 403.394H201.638L200.032 397.656L220.601 398.393Z" fill="#263238"/>
    <path opacity="0.3" d="M213.534 392.484C213.495 392.481 213.458 392.466 213.43 392.439C213.401 392.413 213.382 392.378 213.376 392.339C213.245 391.431 200.506 312.563 197.755 285.296C194.768 255.699 188.543 190.096 188.543 189.438C188.539 189.395 188.552 189.352 188.579 189.317C188.606 189.283 188.645 189.261 188.688 189.254C188.71 189.25 188.732 189.251 188.753 189.257C188.775 189.262 188.795 189.272 188.812 189.285C188.83 189.299 188.844 189.316 188.854 189.336C188.865 189.355 188.871 189.377 188.872 189.399C188.938 190.057 195.15 255.659 198.084 285.256C200.835 312.511 213.574 391.378 213.705 392.286C213.709 392.331 213.697 392.376 213.67 392.413C213.644 392.449 213.605 392.474 213.56 392.484H213.534Z" fill="#334366"/>
    <path d="M169.553 61.4967C169.369 62.2731 168.816 62.8127 168.316 62.7074C167.816 62.6022 167.566 61.8784 167.751 61.1151C167.935 60.3518 168.487 59.7991 168.988 59.9044C169.488 60.0096 169.764 60.7334 169.553 61.4967Z" fill="#263238"/>
    <path d="M160.92 59.6279C160.736 60.3912 160.184 60.9439 159.683 60.8255C159.183 60.7071 158.92 60.0096 159.104 59.2331C159.289 58.4567 159.841 57.9171 160.341 58.0224C160.842 58.1277 161.092 58.8515 160.92 59.6279Z" fill="#263238"/>
    <path d="M163.566 60.6018C162.082 62.7736 160.311 64.7346 158.302 66.4317C158.737 66.9219 159.275 67.3095 159.878 67.5666C160.481 67.8238 161.134 67.944 161.789 67.9187L163.566 60.6018Z" fill="#ED847E"/>
    <path d="M163.552 73.2091C163.523 73.2029 163.494 73.1908 163.469 73.1733C163.445 73.1559 163.423 73.1336 163.407 73.1077C163.391 73.0818 163.381 73.053 163.376 73.0229C163.372 72.9928 163.374 72.9621 163.381 72.9327C163.389 72.9024 163.403 72.8739 163.421 72.8489C163.44 72.8238 163.464 72.8028 163.49 72.7869C163.517 72.771 163.547 72.7605 163.578 72.7562C163.609 72.7519 163.641 72.7537 163.671 72.7616C164.621 73.0118 165.616 73.0373 166.578 72.8363C167.539 72.6353 168.441 72.2133 169.211 71.6035C169.255 71.5609 169.314 71.5371 169.376 71.5371C169.437 71.5371 169.496 71.5609 169.54 71.6035C169.58 71.6491 169.602 71.7075 169.602 71.768C169.602 71.8285 169.58 71.887 169.54 71.9325C168.717 72.6078 167.743 73.0761 166.701 73.2981C165.66 73.5202 164.58 73.4897 163.552 73.2091Z" fill="#FFC3BD"/>
    <path d="M172.83 59.2462C172.76 59.2355 172.695 59.2067 172.639 59.1629C172.584 59.1191 172.541 59.0616 172.514 58.9962C172.299 58.4602 171.957 57.9848 171.516 57.611C171.076 57.2372 170.551 56.9764 169.988 56.8511C169.929 56.8416 169.872 56.8203 169.821 56.7885C169.77 56.7567 169.726 56.715 169.692 56.6659C169.658 56.6168 169.634 56.5613 169.621 56.5027C169.608 56.4441 169.608 56.3836 169.619 56.3247C169.639 56.2035 169.705 56.0947 169.803 56.021C169.901 55.9474 170.024 55.9147 170.146 55.9299C170.856 56.0712 171.52 56.3852 172.08 56.8442C172.64 57.3033 173.079 57.8932 173.357 58.5619C173.406 58.6755 173.409 58.8039 173.364 58.9194C173.32 59.035 173.232 59.1287 173.12 59.1804C173.034 59.2347 172.931 59.2579 172.83 59.2462V59.2462Z" fill="#263238"/>
    <path d="M157.762 55.6799C157.697 55.6596 157.638 55.6234 157.591 55.5746C157.507 55.4885 157.459 55.3728 157.459 55.2522C157.459 55.1317 157.507 55.0159 157.591 54.9298C158.073 54.3659 158.683 53.9249 159.369 53.6434C160.056 53.3619 160.8 53.248 161.539 53.3111C161.599 53.319 161.657 53.3391 161.71 53.3703C161.762 53.4014 161.807 53.4429 161.843 53.4921C161.879 53.5414 161.904 53.5974 161.918 53.6568C161.931 53.7162 161.932 53.7777 161.921 53.8375C161.898 53.9598 161.83 54.0688 161.729 54.1422C161.629 54.2156 161.504 54.2478 161.381 54.2323V54.2323C160.796 54.1907 160.21 54.2883 159.67 54.5171C159.13 54.7458 158.652 55.0992 158.275 55.5483C158.214 55.6204 158.131 55.6718 158.04 55.6953C157.948 55.7189 157.851 55.7135 157.762 55.6799Z" fill="#263238"/>
    <path d="M189.715 109.807L203.296 105.385C203.296 105.385 215.798 137.232 220.404 139.088C226.707 141.602 239.512 148.3 247.474 149.906C248.382 151.222 249.606 155.38 249.224 156.841C237.814 159.802 214.587 153.551 210.007 149.445C199.611 140.075 189.715 109.807 189.715 109.807Z" fill="#FFC3BD"/>
    <path d="M198.255 93.6597C207.467 94.9757 217.285 127.06 217.285 127.06L197.545 138.035C197.545 138.035 189.359 122.783 185.424 111.465C181.332 99.608 188.372 92.2121 198.255 93.6597Z" fill="#EC4899"/>
    <path opacity="0.7" d="M198.255 93.6597C207.467 94.9757 217.285 127.06 217.285 127.06L197.545 138.035C197.545 138.035 189.359 122.783 185.424 111.465C181.332 99.608 188.372 92.2121 198.255 93.6597Z" fill="#334366"/>
    <path d="M205.296 416.856C204.632 416.911 203.968 416.74 203.414 416.369C203.245 416.215 203.115 416.022 203.037 415.806C202.959 415.591 202.935 415.359 202.967 415.132C202.972 414.997 203.014 414.865 203.088 414.752C203.162 414.638 203.266 414.547 203.388 414.487C204.467 413.935 207.586 415.869 207.941 416.093C207.976 416.121 208.003 416.157 208.02 416.199C208.036 416.24 208.041 416.286 208.033 416.33C208.025 416.373 208.004 416.414 207.974 416.446C207.944 416.479 207.905 416.502 207.862 416.514C207.021 416.719 206.161 416.834 205.296 416.856ZM203.888 414.843C203.788 414.821 203.685 414.821 203.585 414.843C203.537 414.871 203.497 414.911 203.469 414.959C203.441 415.008 203.427 415.063 203.427 415.119C203.403 415.274 203.418 415.432 203.471 415.579C203.524 415.726 203.613 415.857 203.73 415.961C204.82 416.457 206.058 416.518 207.191 416.132C206.174 415.483 205.038 415.045 203.848 414.843H203.888Z" fill="#EC4899"/>
    <path d="M207.757 416.514C207.723 416.525 207.686 416.525 207.652 416.514C206.651 415.961 204.756 413.882 205.02 412.737C205.061 412.565 205.158 412.412 205.297 412.303C205.435 412.193 205.606 412.133 205.783 412.132C205.957 412.106 206.134 412.119 206.302 412.169C206.47 412.219 206.625 412.305 206.757 412.421C207.875 413.356 208.073 416.172 208.073 416.29C208.08 416.332 208.074 416.375 208.055 416.413C208.036 416.451 208.005 416.482 207.967 416.501C207.936 416.52 207.901 416.531 207.864 416.534C207.827 416.536 207.79 416.529 207.757 416.514V416.514ZM205.888 412.566H205.783C205.48 412.566 205.454 412.737 205.441 412.79C205.296 413.435 206.507 415.053 207.494 415.816C207.45 414.709 207.074 413.641 206.415 412.75C206.268 412.624 206.082 412.554 205.888 412.553V412.566Z" fill="#EC4899"/>
    <path d="M146.471 416.856C145.641 416.932 144.81 416.723 144.115 416.264C143.962 416.121 143.845 415.944 143.774 415.747C143.703 415.551 143.68 415.34 143.707 415.132C143.717 415.005 143.758 414.881 143.827 414.773C143.896 414.665 143.99 414.576 144.102 414.514C145.313 413.856 149.195 415.83 149.629 416.08C149.672 416.101 149.706 416.136 149.727 416.179C149.749 416.221 149.756 416.27 149.748 416.317C149.741 416.364 149.719 416.409 149.686 416.444C149.653 416.479 149.611 416.504 149.563 416.514C148.545 416.719 147.51 416.833 146.471 416.856V416.856ZM144.76 414.843C144.611 414.836 144.463 414.863 144.326 414.922C144.28 414.946 144.242 414.982 144.214 415.026C144.186 415.07 144.171 415.12 144.168 415.172C144.148 415.309 144.161 415.448 144.207 415.579C144.253 415.71 144.33 415.827 144.431 415.922C145.023 416.448 146.629 416.54 148.8 416.185C147.54 415.511 146.173 415.057 144.76 414.843V414.843Z" fill="#EC4899"/>
    <path d="M149.511 416.514H149.419C148.247 415.974 145.971 413.882 146.168 412.763C146.168 412.5 146.418 412.171 147.05 412.119C147.285 412.082 147.525 412.098 147.753 412.167C147.98 412.235 148.19 412.354 148.366 412.513C149.577 413.527 149.787 416.159 149.787 416.277C149.793 416.319 149.785 416.361 149.767 416.399C149.748 416.436 149.718 416.467 149.682 416.488C149.656 416.503 149.628 416.514 149.599 416.518C149.57 416.523 149.54 416.521 149.511 416.514ZM147.221 412.566H147.089C146.668 412.566 146.642 412.763 146.629 412.816C146.497 413.487 148.05 415.145 149.261 415.869C149.185 414.762 148.761 413.707 148.05 412.856C147.821 412.655 147.525 412.547 147.221 412.553V412.566Z" fill="#EC4899"/>
    <path d="M248.369 156.999L257.673 157.446L252.738 147.3C252.738 147.3 244.579 147.182 243.249 153.446L248.369 156.999Z" fill="#FFC3BD"/>
    <path d="M265.213 152.538L260.278 143.576L252.738 147.3L257.673 157.446L265.213 152.538Z" fill="#FFC3BD"/>
    <path d="M274.939 77.2886C274.004 70.4717 255.791 65.2077 247.303 72.9984C235.854 83.4606 237.683 116.255 237.683 134.021C254.633 129.85 280.4 130.85 284.901 133.311C285.862 125.138 285.638 79.2889 274.939 77.2886Z" fill="#263238"/>
    <path d="M239.828 140.799C239.644 143.905 239.301 146.734 238.92 149.669C238.538 152.603 238.025 155.472 237.459 158.367C236.321 164.176 234.76 169.894 232.787 175.475C232.287 176.883 231.695 178.278 231.155 179.673C230.616 181.068 229.971 182.424 229.221 183.858C227.727 186.614 225.964 189.215 223.957 191.623C220.15 196.211 215.792 200.313 210.981 203.835L207.375 199.887C210.815 195.62 214.009 191.16 216.943 186.53C218.315 184.354 219.508 182.07 220.509 179.7C220.996 178.568 221.456 177.252 221.943 176.028C222.43 174.804 222.799 173.488 223.259 172.212C224.818 166.985 226.075 161.673 227.023 156.301C227.484 153.59 227.892 150.866 228.273 148.129C228.655 145.392 228.958 142.602 229.181 140.036L239.828 140.799Z" fill="#FFB573"/>
    <path d="M233.182 128.047C229.484 128.994 227.405 153.459 227.405 153.459L237.235 159.381C237.235 159.381 243.184 141.299 242.276 133.495C241.618 127.823 235.972 127.336 233.182 128.047Z" fill="#FFB573"/>
    <path d="M206.612 199.979L198.15 206.336L208.533 208.718C208.533 208.718 213.008 203.704 211.521 199.611L206.612 199.979Z" fill="#FFB573"/>
    <path d="M195.9 214.837L204.704 216.363L208.573 208.718L198.19 206.336L195.9 214.837Z" fill="#FFB573"/>
    <path d="M252.948 415.566H244.5L239.288 377.1H253.672L252.948 415.566Z" fill="#FFB573"/>
    <path opacity="0.2" d="M253.291 397.024H241.986L239.288 377.1H253.672L253.291 397.024Z" fill="black"/>
    <path d="M318.367 401.696L310.208 403.801L293.652 368.743L307.694 364.769L318.367 401.696Z" fill="#FFB573"/>
    <path opacity="0.2" d="M313.34 384.285L302.18 386.799L293.652 368.743L307.694 364.769L313.34 384.285Z" fill="black"/>
    <path d="M308.247 402.367L319.091 397.774C319.273 397.688 319.482 397.674 319.675 397.735C319.867 397.796 320.03 397.927 320.13 398.103L325.013 406.144C325.127 406.35 325.197 406.579 325.218 406.814C325.238 407.05 325.209 407.287 325.132 407.51C325.055 407.733 324.932 407.938 324.771 408.111C324.61 408.284 324.414 408.42 324.197 408.513C320.393 410.052 318.472 410.605 313.669 412.632C310.747 413.882 306.589 416.001 302.535 417.725C298.482 419.449 296.574 415.527 298.113 414.448C304.97 409.618 305.22 406.868 306.852 403.643C307.157 403.07 307.649 402.62 308.247 402.367V402.367Z" fill="#263238"/>
    <path d="M243.381 414.356H255.146C255.35 414.354 255.548 414.426 255.703 414.559C255.858 414.692 255.96 414.877 255.988 415.079L257.304 424.384C257.328 424.619 257.302 424.857 257.229 425.083C257.155 425.308 257.035 425.515 256.876 425.691C256.718 425.867 256.524 426.008 256.307 426.105C256.091 426.201 255.857 426.252 255.62 426.252C251.514 426.173 249.54 425.936 244.368 425.936C241.183 425.936 234.59 426.265 230.195 426.265C225.799 426.265 225.562 421.923 227.392 421.528C235.603 419.764 238.841 417.33 241.604 414.948C242.107 414.546 242.737 414.336 243.381 414.356V414.356Z" fill="#263238"/>
    <path d="M232.537 128.034C232.537 128.034 227.536 129.784 237.538 191.267H280.084C279.374 173.949 279.347 163.263 287.625 127.731C281.668 126.495 275.629 125.699 269.556 125.349C263.125 124.888 256.669 124.888 250.237 125.349C241.947 126.099 232.537 128.034 232.537 128.034Z" fill="#EC4899"/>
    <path d="M263.871 149.748C263.871 149.748 263.779 149.748 263.766 149.669C261.134 145.115 254.449 141.536 254.383 141.496C254.363 141.487 254.346 141.473 254.331 141.456C254.317 141.44 254.307 141.42 254.301 141.399C254.294 141.378 254.293 141.356 254.296 141.334C254.298 141.312 254.306 141.291 254.317 141.273C254.348 141.246 254.388 141.231 254.429 141.231C254.47 141.231 254.51 141.246 254.541 141.273C254.541 141.273 261.121 144.852 263.937 149.392C266.727 146.945 275.676 135.864 274.597 126.336C274.595 126.315 274.597 126.294 274.603 126.274C274.61 126.255 274.62 126.236 274.633 126.22C274.647 126.204 274.663 126.191 274.682 126.182C274.7 126.172 274.721 126.167 274.741 126.165V126.165C274.762 126.163 274.783 126.165 274.803 126.172C274.823 126.178 274.841 126.188 274.857 126.202C274.873 126.215 274.886 126.232 274.896 126.25C274.905 126.269 274.911 126.289 274.912 126.31C276.018 136.14 266.622 147.576 263.99 149.774C263.969 149.778 263.948 149.778 263.928 149.774C263.907 149.769 263.888 149.76 263.871 149.748Z" fill="#334366"/>
    <path d="M241.802 147.971C241.768 147.984 241.73 147.984 241.697 147.971C240.715 146.855 240.201 145.403 240.262 143.918C239.907 138.759 242.026 130.218 245.381 126.533C245.413 126.503 245.456 126.486 245.5 126.486C245.544 126.486 245.586 126.503 245.618 126.533C245.633 126.548 245.645 126.565 245.653 126.585C245.661 126.604 245.665 126.624 245.665 126.645C245.665 126.666 245.661 126.687 245.653 126.706C245.645 126.725 245.633 126.742 245.618 126.757C242.315 130.402 240.236 138.812 240.578 143.865C240.542 145.192 240.959 146.492 241.762 147.55C243.947 144.589 250.053 140.97 250.316 140.851C250.335 140.833 250.358 140.819 250.383 140.811C250.408 140.803 250.435 140.801 250.461 140.805C250.487 140.809 250.512 140.819 250.534 140.834C250.555 140.849 250.573 140.869 250.586 140.892C250.598 140.916 250.605 140.941 250.606 140.968C250.607 140.994 250.602 141.02 250.591 141.044C250.581 141.068 250.565 141.09 250.544 141.106C250.524 141.123 250.5 141.135 250.474 141.141C250.408 141.141 243.894 144.957 241.92 147.892C241.892 147.932 241.85 147.96 241.802 147.971V147.971Z" fill="#334366"/>
    <path d="M267.648 103.595C266.424 109.807 265.213 121.204 269.556 125.349C269.556 125.349 271.965 139.97 252.132 139.97C235.748 139.97 250.237 125.349 250.237 125.349C257.173 123.691 256.988 118.545 255.791 113.716L267.648 103.595Z" fill="#FFB573"/>
    <path opacity="0.2" d="M262.805 107.728L255.791 113.755C256.088 114.876 256.286 116.021 256.383 117.177C259.015 116.795 262.674 113.887 262.963 111.123C263.128 109.991 263.074 108.839 262.805 107.728V107.728Z" fill="black"/>
    <path d="M274.202 92.1857C271.767 102.293 270.951 106.662 264.858 110.952C255.646 117.466 243.802 112.268 243.184 101.635C242.618 92.0672 246.697 77.1438 257.423 74.8408C259.785 74.3249 262.239 74.4212 264.554 75.1206C266.868 75.8199 268.965 77.0992 270.646 78.8369C272.327 80.5746 273.536 82.713 274.159 85.0493C274.781 87.3856 274.796 89.8421 274.202 92.1857V92.1857Z" fill="#FFB573"/>
    <path d="M266.293 80.3812C267.464 90.2512 267.938 100.2 274.939 97.7787C281.94 95.3573 275.623 80.3812 275.623 80.3812H266.293Z" fill="#263238"/>
    <path d="M243.565 83.5922C253.609 80.4571 264.427 80.8894 274.189 84.8161C272.873 79.9995 272.07 76.1173 266.135 74.2881C260.2 72.4589 246.539 74.6039 243.565 83.5922Z" fill="#263238"/>
    <path d="M237.538 191.267C237.538 191.267 229.274 271.964 229.958 303.917C230.669 337.146 238.209 390.641 238.209 390.641L255.317 390.102C255.317 390.102 254.778 339.094 256.028 306.457C257.344 270.925 268.701 191.267 268.701 191.267H237.538Z" fill="#263238"/>
    <path d="M257.12 393.076H236.525L235.011 387.773L258.081 387.128L257.12 393.076Z" fill="#EC4899"/>
    <path opacity="0.2" d="M255.896 211.336C245.434 232.392 253.791 270.714 257.489 285.032C259.384 263.595 262.581 237.406 265.069 218.166C263.49 207.191 260.713 201.651 255.896 211.336Z" fill="black"/>
    <path d="M248.724 191.267C248.724 191.267 258.357 275.162 265.635 302.101C274.281 334.08 297.587 381.679 297.587 381.679L313.498 377.1C313.498 377.1 299.943 321.117 293.336 304.272C279.229 268.319 291.31 214.784 280.032 191.267H248.724Z" fill="#263238"/>
    <path d="M316.432 379.153L297.442 384.417L294.021 379.547L315.09 372.52L316.432 379.153Z" fill="#EC4899"/>
    <path d="M257.133 92.3962C256.975 93.2253 256.423 93.8175 255.883 93.7122C255.343 93.6069 255.014 92.8568 255.159 92.0277C255.304 91.1986 255.87 90.6064 256.475 90.7117C257.081 90.817 257.278 91.554 257.133 92.3962Z" fill="#263238"/>
    <path d="M247.724 90.725C247.579 91.554 247.013 92.1594 246.408 92.0409C245.802 91.9225 245.539 91.1987 245.684 90.3696C245.829 89.5406 246.395 88.9352 246.934 89.0536C247.474 89.1721 247.869 89.8959 247.724 90.725Z" fill="#263238"/>
    <path d="M247.237 89.1326L245.342 88.1982C245.342 88.1982 246.092 89.9485 247.237 89.1326Z" fill="#263238"/>
    <path d="M250.395 92.5016C249.302 94.2698 247.974 95.8812 246.447 97.2918C246.819 97.6685 247.268 97.96 247.763 98.1463C248.259 98.3326 248.788 98.4093 249.316 98.371L250.395 92.5016Z" fill="#ED893E"/>
    <path d="M253.751 102.293C253.274 102.292 252.799 102.248 252.33 102.161C252.297 102.156 252.266 102.145 252.238 102.128C252.21 102.11 252.186 102.087 252.167 102.06C252.149 102.033 252.136 102.002 252.13 101.969C252.124 101.937 252.125 101.904 252.132 101.871C252.145 101.807 252.183 101.75 252.237 101.714C252.291 101.677 252.357 101.662 252.422 101.674C253.453 101.876 254.516 101.835 255.528 101.554C256.54 101.273 257.473 100.76 258.252 100.055C258.272 100.025 258.299 100 258.33 99.9818C258.362 99.9632 258.397 99.9517 258.433 99.9481C258.469 99.9444 258.505 99.9486 258.54 99.9605C258.574 99.9723 258.605 99.9915 258.631 100.017C258.658 100.042 258.678 100.072 258.691 100.106C258.704 100.14 258.71 100.176 258.708 100.213C258.705 100.249 258.695 100.284 258.678 100.316C258.66 100.348 258.636 100.376 258.607 100.398C257.296 101.635 255.554 102.315 253.751 102.293Z" fill="#263238"/>
    <path d="M274.636 99.8053C273.859 101.661 272.378 103.133 270.517 103.898C268.043 104.898 266.569 102.753 266.964 100.266C267.359 98.0287 269.122 94.8176 271.728 94.8834C272.295 94.9075 272.848 95.073 273.335 95.3649C273.822 95.6568 274.229 96.0658 274.518 96.5548C274.807 97.0439 274.969 97.5974 274.99 98.1651C275.01 98.7327 274.889 99.2965 274.636 99.8053V99.8053Z" fill="#FFB573"/>
    <path d="M260.779 86.8296C260.71 86.8293 260.642 86.8152 260.578 86.7881C260.515 86.761 260.458 86.7214 260.41 86.6717C259.997 86.2036 259.478 85.8402 258.897 85.6115C258.316 85.3827 257.689 85.295 257.067 85.3557C256.937 85.3751 256.804 85.3436 256.696 85.2676C256.588 85.1916 256.514 85.0771 256.488 84.9477C256.477 84.8837 256.479 84.818 256.493 84.7547C256.508 84.6913 256.535 84.6315 256.573 84.5787C256.611 84.526 256.659 84.4814 256.715 84.4476C256.77 84.4137 256.832 84.3914 256.896 84.3818C257.678 84.2838 258.471 84.3763 259.209 84.6513C259.947 84.9262 260.607 85.3756 261.134 85.961C261.225 86.0544 261.276 86.1795 261.276 86.3098C261.276 86.44 261.225 86.5652 261.134 86.6585C261.042 86.7594 260.915 86.8208 260.779 86.8296V86.8296Z" fill="#263238"/>
    <path d="M245.381 85.5531C245.318 85.5533 245.254 85.5405 245.195 85.5157C245.137 85.4908 245.084 85.4543 245.039 85.4084C244.948 85.315 244.898 85.1899 244.898 85.0596C244.898 84.9294 244.948 84.8042 245.039 84.7109C245.568 84.1258 246.232 83.6778 246.972 83.405C247.712 83.1323 248.508 83.043 249.29 83.1448C249.355 83.154 249.418 83.1768 249.474 83.2116C249.53 83.2464 249.578 83.2926 249.615 83.3471C249.652 83.4016 249.678 83.4633 249.69 83.5282C249.702 83.593 249.7 83.6597 249.685 83.7239C249.674 83.7883 249.65 83.8499 249.614 83.905C249.579 83.96 249.533 84.0074 249.479 84.0442C249.425 84.0811 249.364 84.1067 249.3 84.1195C249.236 84.1323 249.17 84.132 249.106 84.1187C248.484 84.058 247.857 84.1457 247.276 84.3744C246.695 84.6032 246.176 84.9666 245.763 85.4347C245.711 85.4803 245.651 85.5144 245.585 85.5348C245.519 85.5553 245.45 85.5615 245.381 85.5531V85.5531Z" fill="#263238"/>
    <path d="M292.231 138.93C294.653 144.825 296.723 150.858 298.429 156.999C300.28 163.217 301.557 169.591 302.246 176.041C302.351 176.857 302.391 177.713 302.417 178.555V179.871V180.187C302.417 180.318 302.417 180.331 302.417 180.595C302.418 180.991 302.392 181.387 302.338 181.779C301.982 184.046 301.078 186.191 299.706 188.03C297.678 190.803 295.327 193.325 292.705 195.544C287.85 199.717 282.616 203.427 277.071 206.625L273.991 202.309C278.452 198.216 282.966 194.018 286.888 189.636C288.776 187.613 290.46 185.409 291.915 183.056C292.362 182.373 292.654 181.6 292.771 180.792C292.771 180.792 292.771 180.792 292.771 180.792V180.345L292.652 179.305C292.586 178.607 292.52 177.923 292.389 177.212C291.404 171.383 290.005 165.631 288.204 159.999C286.414 154.301 284.388 148.497 282.269 142.983L292.231 138.93Z" fill="#FFB573"/>
    <path d="M287.586 127.731C291.757 129.428 296.982 152.274 296.982 152.274L288.112 159.552C288.112 159.552 279.755 142.523 279.387 134.666C279.097 128.77 283.901 126.217 287.586 127.731Z" fill="#FFB573"/>
    <path d="M303.47 405.67C303.278 405.573 303.111 405.434 302.981 405.263C302.851 405.092 302.762 404.893 302.72 404.683C302.673 404.541 302.665 404.389 302.697 404.243C302.73 404.097 302.801 403.963 302.904 403.854C303.812 402.867 307.536 403.512 307.97 403.591C308.017 403.599 308.061 403.621 308.096 403.654C308.131 403.687 308.156 403.729 308.168 403.775C308.175 403.822 308.168 403.871 308.15 403.915C308.131 403.959 308.101 403.997 308.062 404.025C306.944 404.854 304.878 406.17 303.614 405.736L303.47 405.67ZM307.286 403.972C305.786 403.762 303.746 403.67 303.272 404.183C303.237 404.238 303.218 404.302 303.218 404.367C303.218 404.432 303.237 404.496 303.272 404.551C303.296 404.711 303.362 404.861 303.464 404.986C303.566 405.112 303.7 405.207 303.851 405.262C304.457 405.499 305.746 405.025 307.286 403.972Z" fill="#EC4899"/>
    <path d="M306.233 403.512C305.141 402.985 304.022 402.196 303.864 401.433C303.827 401.24 303.856 401.039 303.946 400.865C304.037 400.69 304.185 400.552 304.365 400.472C304.528 400.377 304.711 400.318 304.899 400.3C305.088 400.282 305.278 400.305 305.457 400.367C306.904 400.84 308.089 403.617 308.089 403.736C308.108 403.772 308.119 403.813 308.119 403.854C308.119 403.895 308.108 403.936 308.089 403.973C308.066 404.01 308.033 404.04 307.993 404.059C307.953 404.078 307.909 404.084 307.865 404.078C307.296 403.971 306.746 403.78 306.233 403.512V403.512ZM305.457 400.88L305.299 400.814C305.187 400.775 305.068 400.761 304.95 400.773C304.832 400.784 304.717 400.821 304.615 400.88C304.338 401.038 304.325 401.196 304.351 401.314C304.509 402.038 306.26 403.13 307.483 403.472C307.045 402.45 306.346 401.561 305.457 400.893V400.88Z" fill="#EC4899"/>
    <path d="M239.512 416.185C238.617 416.265 237.721 416.038 236.972 415.54C236.802 415.395 236.672 415.209 236.593 414.999C236.515 414.79 236.491 414.564 236.525 414.342C236.532 414.204 236.575 414.07 236.648 413.952C236.722 413.835 236.824 413.738 236.946 413.671C238.262 412.974 242.407 415.106 242.868 415.356C242.917 415.374 242.957 415.409 242.982 415.455C243.006 415.502 243.012 415.555 242.999 415.606C242.992 415.657 242.97 415.705 242.934 415.742C242.899 415.78 242.853 415.806 242.802 415.816C241.719 416.039 240.618 416.162 239.512 416.185ZM237.643 414.027C237.486 414.019 237.329 414.046 237.183 414.106C237.133 414.133 237.091 414.173 237.061 414.221C237.031 414.27 237.014 414.325 237.012 414.382C236.992 414.527 237.007 414.675 237.058 414.813C237.108 414.951 237.192 415.074 237.301 415.172C237.933 415.751 239.657 415.843 241.986 415.461C240.609 414.735 239.118 414.25 237.578 414.027H237.643Z" fill="#EC4899"/>
    <path d="M242.697 415.817H242.591C241.275 415.251 238.867 412.987 239.065 411.868C239.065 411.579 239.315 411.237 239.999 411.171C240.235 411.15 240.473 411.177 240.699 411.249C240.925 411.322 241.134 411.438 241.315 411.592C242.631 412.684 242.881 415.54 242.894 415.632C242.898 415.667 242.894 415.701 242.883 415.734C242.872 415.767 242.854 415.797 242.83 415.822C242.807 415.847 242.778 415.867 242.745 415.88C242.713 415.892 242.679 415.898 242.644 415.895L242.697 415.817ZM240.196 411.579H240.052C239.591 411.579 239.565 411.803 239.551 411.868C239.446 412.579 241.118 414.356 242.394 415.132C242.298 413.944 241.839 412.813 241.078 411.895C240.833 411.685 240.519 411.573 240.196 411.579V411.579Z" fill="#EC4899"/>
    <path d="M280.729 188.767L281.808 192.57C281.966 192.873 281.611 193.176 281.124 193.176H237.327C236.946 193.176 236.63 192.978 236.604 192.741L236.222 188.938C236.222 188.675 236.525 188.451 236.946 188.451H280.032C280.165 188.439 280.3 188.462 280.422 188.517C280.544 188.573 280.65 188.659 280.729 188.767V188.767Z" fill="#EC4899"/>
    <path opacity="0.8" d="M280.729 188.767L281.808 192.57C281.966 192.873 281.611 193.176 281.124 193.176H237.327C236.946 193.176 236.63 192.978 236.604 192.741L236.222 188.938C236.222 188.675 236.525 188.451 236.946 188.451H280.032C280.165 188.439 280.3 188.462 280.422 188.517C280.544 188.573 280.65 188.659 280.729 188.767V188.767Z" fill="#263238"/>
    <path d="M274.939 193.584H276.097C276.321 193.584 276.492 193.465 276.478 193.32L275.939 188.372C275.939 188.227 275.728 188.109 275.491 188.109H274.333C274.11 188.109 273.939 188.227 273.952 188.372L274.491 193.32C274.504 193.465 274.702 193.584 274.939 193.584Z" fill="#EC4899"/>
    <path d="M240.565 193.584H241.723C241.96 193.584 242.131 193.465 242.118 193.32L241.578 188.372C241.578 188.227 241.354 188.109 241.131 188.109H239.973C239.736 188.109 239.565 188.227 239.578 188.372L240.117 193.32C240.144 193.465 240.341 193.584 240.565 193.584Z" fill="#EC4899"/>
    <path d="M257.752 193.584H258.91C259.134 193.584 259.318 193.465 259.292 193.32L258.752 188.372C258.752 188.227 258.541 188.109 258.305 188.109H257.16C256.923 188.109 256.752 188.227 256.765 188.372L257.304 193.32C257.318 193.465 257.528 193.584 257.752 193.584Z" fill="#EC4899"/>
    <path d="M275.241 201.361L263.963 202.335L271.504 209.862C271.504 209.862 277.966 207.981 278.86 203.73L275.241 201.361Z" fill="#FFB573"/>
    <path d="M257.515 208.336L264.161 214.297L273.096 209.27L263.963 202.335L257.515 208.336Z" fill="#FFB573"/>
    <path d="M256.62 90.8039L254.725 89.8695C254.725 89.8695 255.501 91.6066 256.62 90.8039Z" fill="#263238"/>
    <path d="M406.21 92.1725C406.21 93.0279 406.605 93.7649 407.17 93.8175C407.736 93.8702 408.223 93.2253 408.25 92.3699C408.276 91.5145 407.855 90.7776 407.289 90.7249C406.723 90.6723 406.236 91.3829 406.21 92.1725Z" fill="#263238"/>
    <path d="M407.039 90.7381L409.131 90.3564C409.131 90.3564 407.96 91.8567 407.039 90.7381Z" fill="#263238"/>
    <path d="M406.907 93.0674C407.602 95.108 408.567 97.0465 409.776 98.8315C409.31 99.1009 408.79 99.2652 408.254 99.313C407.717 99.3607 407.177 99.2907 406.67 99.1078L406.907 93.0674Z" fill="#A02724"/>
    <path d="M407.592 86.5795C407.509 86.5986 407.424 86.5986 407.342 86.5795C406.754 86.3093 406.112 86.1793 405.465 86.1998C404.819 86.2204 404.186 86.3909 403.617 86.698C403.503 86.7676 403.367 86.79 403.236 86.7605C403.106 86.731 402.993 86.6519 402.92 86.5401C402.881 86.4863 402.853 86.4251 402.838 86.3603C402.824 86.2954 402.822 86.2282 402.835 86.1629C402.847 86.0975 402.873 86.0354 402.91 85.9803C402.947 85.9252 402.995 85.8783 403.051 85.8426C403.758 85.4472 404.548 85.2234 405.357 85.1891C406.166 85.1548 406.972 85.311 407.71 85.6452C407.833 85.6977 407.931 85.7949 407.985 85.9171C408.038 86.0392 408.044 86.1772 408 86.3032C407.962 86.3814 407.905 86.4482 407.833 86.4968C407.761 86.5454 407.678 86.5739 407.592 86.5795V86.5795Z" fill="#263238"/>
    <path d="M377.337 86.9743C377.587 97.5024 377.468 102.016 382.601 107.938C390.365 116.834 403.394 115.018 406.289 104.78C408.921 95.5678 408.092 79.7758 397.84 74.6171C387.588 69.4584 377.087 76.4069 377.337 86.9743Z" fill="#B55B52"/>
    <path d="M362.071 139.154C360.36 143.891 358.676 148.958 357.123 153.919C355.57 158.881 354.149 163.934 352.899 168.974L352.504 170.619C352.455 170.717 352.432 170.826 352.438 170.935C352.416 171.088 352.416 171.243 352.438 171.396C352.472 172.289 352.622 173.174 352.885 174.028C353.596 176.262 354.522 178.421 355.649 180.476C358.133 184.984 360.884 189.339 363.887 193.518L359.637 197.584C355.297 193.97 351.393 189.862 348.003 185.345C346.164 182.903 344.618 180.253 343.397 177.449C342.684 175.803 342.197 174.068 341.949 172.291C341.872 171.777 341.837 171.257 341.844 170.738C341.819 170.175 341.846 169.611 341.923 169.053C341.989 168.369 342.055 168.132 342.107 167.737L342.265 166.711C343.157 161.284 344.33 155.908 345.779 150.603C347.24 145.246 348.997 139.973 351.043 134.811L362.071 139.154Z" fill="#B55B52"/>
    <path d="M355.149 123.73C348.569 126.968 344.805 145.089 344.805 145.089L361.61 153.34C361.61 153.34 371.836 139.917 368.73 129.415C367.164 124.178 361.61 120.545 355.149 123.73Z" fill="#263238"/>
    <path d="M362.913 192.004L369.612 201.756L361.071 201.466C361.071 201.466 356.794 197.189 359.308 193.57L362.913 192.004Z" fill="#B55B52"/>
    <path d="M368.598 205.941L363.387 208.757L361.071 201.466L369.612 201.756L368.598 205.941Z" fill="#B55B52"/>
    <path d="M378.666 100.398C380.219 106.728 379.705 117.506 375.442 121.625C375.442 121.625 380.113 127.902 391.957 128.047C404.999 128.205 397.879 121.717 397.879 121.717C390.694 119.953 390.615 114.742 391.628 109.873L378.666 100.398Z" fill="#B55B52"/>
    <path d="M372.52 73.2748C366.296 73.5906 361.742 76.2095 366.888 91.7778C370.836 103.622 357.228 120.73 370.112 116.137C374.603 117.755 379.437 118.177 384.14 117.361C384.14 117.361 410.237 126.007 406.157 108.294C402.078 90.5802 409.605 77.8808 404.025 70.7218C398.445 63.5627 373.981 64.1944 372.52 73.2748Z" fill="#263238"/>
    <path d="M371.665 123.572C371.017 123.544 370.383 123.372 369.81 123.07C369.236 122.767 368.737 122.341 368.348 121.822C367.203 120.216 368.348 119.453 369.322 117.874C370.559 115.821 367.032 113.084 370.98 111.794C374.928 110.504 391.615 117.571 397.524 115.742C401.67 114.426 402.459 117.835 401.564 120.138C400.104 123.928 404.196 127.81 400.722 128.652C397.735 129.35 377.692 123.993 371.665 123.572Z" fill="#EC4899"/>
    <path d="M396.024 414.856L406.723 415.632L409.105 391.115L398.406 390.325L396.024 414.856Z" fill="#B55B52"/>
    <path d="M340.344 401.262L350.556 405.21L361.703 383.614L351.49 379.666L340.344 401.262Z" fill="#B55B52"/>
    <path d="M352.846 402.696L342.529 395.879C342.36 395.757 342.153 395.702 341.947 395.724C341.74 395.746 341.549 395.843 341.41 395.998L335.251 402.985C335.105 403.179 335.001 403.4 334.945 403.636C334.89 403.871 334.884 404.116 334.929 404.354C334.974 404.592 335.067 404.817 335.205 405.017C335.342 405.217 335.519 405.385 335.725 405.512C339.37 407.828 341.226 408.763 345.766 411.763C348.556 413.606 352.464 416.58 356.294 419.12C360.123 421.66 362.676 418.172 361.282 416.79C355.031 410.566 355.188 407.789 354.017 404.249C353.806 403.618 353.395 403.073 352.846 402.696V402.696Z" fill="#263238"/>
    <path d="M407.342 414.119H395.34C395.133 414.114 394.932 414.185 394.774 414.318C394.616 414.451 394.513 414.638 394.484 414.843L393.168 424.344C393.144 424.585 393.171 424.828 393.247 425.058C393.323 425.288 393.446 425.5 393.608 425.68C393.77 425.859 393.968 426.003 394.19 426.102C394.411 426.2 394.65 426.252 394.892 426.252C399.077 426.173 401.091 425.937 406.381 425.937C409.618 425.937 416.343 426.266 420.857 426.266C425.371 426.266 425.555 421.831 423.686 421.436C415.29 419.633 411.987 417.146 409.144 414.777C408.641 414.349 408.002 414.116 407.342 414.119V414.119Z" fill="#263238"/>
    <path opacity="0.2" d="M409.105 391.115L407.789 404.749L397.169 402.985L398.393 390.325L409.105 391.115Z" fill="black"/>
    <path opacity="0.2" d="M351.49 379.679L361.703 383.627L357.083 392.55L346.727 388.878L351.49 379.679Z" fill="black"/>
    <path d="M367.506 187.688L411.158 188.214C418.435 125.954 413.29 124.915 413.29 124.915C409.86 123.803 406.366 122.898 402.828 122.204L402.222 122.098C399.327 121.612 398.735 121.559 394.918 121.164C388.431 120.822 382.43 120.677 375.1 120.94H373.691C372.375 121.019 371.059 121.111 369.809 121.217C368.954 121.217 368.112 121.375 367.309 121.467L364.572 121.809C359.939 122.427 356.676 123.125 356.676 123.125C366.901 159.302 367.388 170.132 367.506 187.688Z" fill="#263238"/>
    <path opacity="0.2" d="M408.631 144.313C408.756 150.701 410.533 156.949 413.79 162.447C414.816 150.34 415.106 142.141 415.04 136.574C411.75 136.785 408.539 138.456 408.631 144.313Z" fill="black"/>
    <path d="M399.643 188.07C399.643 188.07 390.22 254.027 385.549 295.113C380.614 338.475 360.676 390.655 360.676 390.655L345.924 385.575C345.924 385.575 355.675 337.33 358.9 296.6C365.48 213.916 354.452 206.796 367.506 187.701L399.643 188.07Z" fill="#EC4899"/>
    <path opacity="0.5" d="M399.643 188.07C399.643 188.07 390.22 254.027 385.549 295.113C380.614 338.475 360.676 390.655 360.676 390.655L345.924 385.575C345.924 385.575 355.675 337.33 358.9 296.6C365.48 213.916 354.452 206.796 367.506 187.701L399.643 188.07Z" fill="black"/>
    <path opacity="0.2" d="M389.404 208.507C383.101 222.43 385.943 244.986 389.839 260.068C392.234 241.644 394.787 222.864 396.682 209.165C394.326 204.638 391.8 203.243 389.404 208.507Z" fill="black"/>
    <path d="M362.242 391.681L343.831 385.325L345.226 379.995L366.545 385.575L362.242 391.681Z" fill="#263238"/>
    <path d="M357.452 406.881C357.334 406.934 357.21 406.974 357.083 406.999C355.767 407.197 353.82 405.446 352.793 404.367C352.756 404.333 352.729 404.289 352.717 404.239C352.706 404.19 352.709 404.138 352.728 404.091C352.745 404.042 352.777 404.001 352.82 403.972C352.862 403.944 352.913 403.93 352.964 403.933C353.412 403.933 357.32 404.078 358.07 405.249C358.146 405.379 358.185 405.527 358.185 405.677C358.185 405.827 358.146 405.974 358.07 406.104C357.953 406.423 357.736 406.695 357.452 406.881V406.881ZM353.596 404.499C355.017 405.815 356.228 406.604 356.991 406.499C357.143 406.47 357.283 406.4 357.399 406.299C357.514 406.197 357.601 406.066 357.649 405.92C357.683 405.862 357.7 405.796 357.7 405.729C357.7 405.662 357.683 405.597 357.649 405.538C357.255 404.92 355.162 404.591 353.596 404.499Z" fill="#EC4899"/>
    <path d="M410.592 188.319C410.592 188.319 426.463 267.279 424.844 299.574C423.147 333.172 410.184 401.38 410.184 401.38L394.721 399.393C394.721 399.393 398.406 332.961 398.051 299.785C397.682 263.621 378.613 187.925 378.613 187.925L410.592 188.319Z" fill="#EC4899"/>
    <path opacity="0.5" d="M410.592 188.319C410.592 188.319 426.463 267.279 424.844 299.574C423.147 333.172 410.184 401.38 410.184 401.38L394.721 399.393C394.721 399.393 398.406 332.961 398.051 299.785C397.682 263.621 378.613 187.925 378.613 187.925L410.592 188.319Z" fill="black"/>
    <path d="M418.041 128.639C421.82 134.477 425.26 140.527 428.345 146.76C429.911 149.879 431.398 153.051 432.714 156.354C434.123 159.702 435.28 163.151 436.175 166.671L436.517 167.987V168.158V168.422L436.623 168.948C436.623 169.303 436.715 169.645 436.754 169.988C436.849 171.258 436.787 172.536 436.57 173.791C436.185 175.902 435.516 177.952 434.583 179.884C432.94 183.238 430.923 186.394 428.569 189.293C424.144 194.765 419.14 199.742 413.645 204.138L409.579 199.887C413.785 194.879 417.662 189.604 421.186 184.095C424.45 178.831 427.476 172.606 425.66 169.619C424.667 166.649 423.498 163.739 422.16 160.907C420.844 157.986 419.343 155.064 417.791 152.169C416.238 149.274 414.619 146.418 412.974 143.562C411.329 140.707 409.592 137.825 407.947 135.1L418.041 128.639Z" fill="#B55B52"/>
    <path d="M413.119 199.519L419.449 206.02L412.803 210.178C412.803 210.178 405.973 204.664 409.71 199.795L413.119 199.519Z" fill="#B55B52"/>
    <path d="M419.133 211.113L413.698 216.732L412.803 210.178L419.449 206.033L419.133 211.113Z" fill="#B55B52"/>
    <path d="M412.895 124.783C420.87 128.099 427.503 137.496 429.937 143.128L416.553 159.394C416.553 159.394 404.394 140.97 404.394 135.061C404.407 128.876 409.881 123.533 412.895 124.783Z" fill="#263238"/>
    <path d="M412.54 402.262L391.392 399.419L391.497 394.208L414.527 395.247L412.54 402.262Z" fill="#263238"/>
    <path d="M356.215 403.722C355.197 404.213 354.082 404.47 352.951 404.473C352.907 404.467 352.865 404.451 352.828 404.426C352.792 404.401 352.762 404.367 352.741 404.328C352.717 404.29 352.705 404.247 352.705 404.203C352.705 404.159 352.717 404.115 352.741 404.078C352.806 403.972 354.425 401.446 355.952 401.275C356.151 401.246 356.354 401.26 356.547 401.317C356.74 401.373 356.919 401.471 357.07 401.604C357.239 401.717 357.365 401.883 357.429 402.076C357.494 402.269 357.492 402.478 357.426 402.67C357.157 403.151 356.729 403.523 356.215 403.722V403.722ZM353.451 403.959C354.767 403.88 356.702 403.157 356.965 402.472C356.965 402.367 357.031 402.209 356.768 401.985C356.668 401.903 356.552 401.841 356.428 401.805C356.303 401.769 356.172 401.758 356.044 401.775C355.136 401.959 354.004 403.17 353.451 403.959Z" fill="#EC4899"/>
    <path d="M411.368 415.988C410.236 415.966 409.108 415.838 408 415.606C407.949 415.596 407.903 415.57 407.867 415.532C407.832 415.494 407.809 415.447 407.802 415.395C407.79 415.345 407.795 415.291 407.817 415.244C407.838 415.196 407.875 415.157 407.921 415.132C408.407 414.882 412.671 412.698 413.974 413.421C414.096 413.492 414.199 413.592 414.275 413.711C414.35 413.83 414.396 413.965 414.408 414.106C414.445 414.332 414.422 414.564 414.341 414.779C414.26 414.994 414.125 415.183 413.948 415.33C413.19 415.841 412.279 416.073 411.368 415.988ZM408.842 415.251C411.211 415.632 412.961 415.527 413.606 414.948C413.721 414.849 413.809 414.722 413.859 414.579C413.91 414.435 413.923 414.282 413.895 414.132C413.896 414.078 413.882 414.024 413.854 413.978C413.826 413.931 413.786 413.894 413.737 413.869C413.014 413.474 410.592 414.408 408.842 415.251V415.251Z" fill="#EC4899"/>
    <path d="M408.052 415.606C408.005 415.619 407.955 415.619 407.907 415.606C407.869 415.579 407.839 415.544 407.818 415.503C407.797 415.461 407.787 415.415 407.789 415.369C407.789 415.172 408.157 410.816 410.553 410.816H410.763C411.461 410.895 411.671 411.237 411.724 411.526C411.948 412.724 409.447 415.04 408.157 415.632L408.052 415.606ZM410.579 411.276C409.039 411.276 408.513 413.816 408.355 414.895C409.671 414.106 411.369 412.263 411.224 411.566C411.224 411.5 411.224 411.329 410.724 411.289L410.579 411.276Z" fill="#EC4899"/>
    <path d="M366.73 185.148L364.953 188.991C364.808 189.293 365.19 189.609 365.69 189.609L411.474 190.149C411.869 190.149 412.184 189.965 412.198 189.715L412.408 185.859C412.408 185.595 412.066 185.359 411.645 185.359L367.427 184.832C367.294 184.82 367.159 184.843 367.037 184.898C366.915 184.953 366.809 185.04 366.73 185.148Z" fill="#EC4899"/>
    <path d="M372.902 190.083H371.717C371.48 190.083 371.296 189.965 371.309 189.82L371.625 184.793C371.625 184.648 371.836 184.529 372.073 184.543H373.257C373.494 184.543 373.678 184.661 373.665 184.806L373.349 189.82C373.336 190.004 373.139 190.083 372.902 190.083Z" fill="#EC4899"/>
    <path opacity="0.5" d="M372.902 190.083H371.717C371.48 190.083 371.296 189.965 371.309 189.82L371.625 184.793C371.625 184.648 371.836 184.529 372.073 184.543H373.257C373.494 184.543 373.678 184.661 373.665 184.806L373.349 189.82C373.336 190.004 373.139 190.083 372.902 190.083Z" fill="black"/>
    <path d="M402.828 190.53H401.643C401.406 190.53 401.222 190.412 401.222 190.254L401.538 185.24C401.538 185.095 401.748 184.977 401.985 184.977H403.17C403.407 184.977 403.591 185.095 403.578 185.24L403.262 190.254C403.262 190.412 403.051 190.53 402.828 190.53Z" fill="#EC4899"/>
    <path opacity="0.5" d="M402.828 190.53H401.643C401.406 190.53 401.222 190.412 401.222 190.254L401.538 185.24C401.538 185.095 401.748 184.977 401.985 184.977H403.17C403.407 184.977 403.591 185.095 403.578 185.24L403.262 190.254C403.262 190.412 403.051 190.53 402.828 190.53Z" fill="black"/>
    <path d="M466.404 413.092L456.573 411.684L457.218 388.575L467.035 389.983L466.404 413.092Z" fill="#FFC3BD"/>
    <path d="M535.507 416.146H525.597L523.123 393.168H533.046L535.507 416.146Z" fill="#FFC3BD"/>
    <path d="M524.781 414.987H536.928C537.125 414.991 537.314 415.061 537.467 415.185C537.619 415.309 537.726 415.48 537.77 415.672L539.731 424.489C539.777 424.704 539.773 424.927 539.72 425.141C539.668 425.355 539.567 425.554 539.427 425.724C539.286 425.893 539.109 426.029 538.909 426.121C538.709 426.212 538.49 426.257 538.27 426.252C534.322 426.252 531.545 425.95 526.65 425.95C523.623 425.95 514.543 426.266 510.371 426.266C506.199 426.266 505.66 422.146 507.371 421.778C515.017 420.107 520.767 417.83 523.163 415.606C523.609 415.21 524.185 414.991 524.781 414.987V414.987Z" fill="#263238"/>
    <path d="M456.81 410.566L467.535 412.092C467.728 412.124 467.905 412.218 468.039 412.361C468.172 412.504 468.254 412.687 468.272 412.882L468.97 421.896C468.986 422.114 468.953 422.333 468.873 422.537C468.793 422.74 468.668 422.923 468.507 423.071C468.346 423.219 468.154 423.329 467.945 423.392C467.735 423.456 467.514 423.471 467.298 423.436C463.443 422.818 457.889 421.791 453.02 421.094C447.335 420.278 442.387 419.883 435.714 418.935C431.687 418.356 431.148 414.119 432.898 413.987C440.794 413.408 447.111 414.132 454.336 410.987C455.104 410.615 455.962 410.469 456.81 410.566V410.566Z" fill="#263238"/>
    <path d="M488.341 112.123C487.828 118.993 487.025 125.678 486.012 132.442C485.512 135.811 484.92 139.18 484.288 142.549C483.972 144.234 483.643 145.918 483.275 147.603L482.709 150.129L482.432 151.445C482.327 151.866 482.169 152.419 482.051 152.906C481.036 156.479 479.715 159.957 478.103 163.302C476.594 166.478 474.993 169.549 473.299 172.514C469.952 178.488 466.275 184.269 462.284 189.833L455.744 186.135L463.114 167.711C464.311 164.645 465.43 161.579 466.469 158.499C467.478 155.673 468.287 152.779 468.891 149.84C468.891 149.498 469.009 149.234 469.075 148.84L469.233 147.616L469.562 145.194L470.167 140.312L471.26 130.481L473.365 110.741L488.341 112.123Z" fill="#FFC3BD"/>
    <path d="M480.34 101.911C471.128 104.254 466.851 136.864 466.851 136.864L489.618 140.246C489.618 140.246 491.789 131.468 495.29 119.453C497.448 111.926 491.776 98.9764 480.34 101.911Z" fill="#EC4899"/>
    <path d="M457.455 184.372L449.401 191.228L459.758 196.242C460.829 195.194 461.667 193.931 462.215 192.536C462.764 191.141 463.012 189.646 462.942 188.148L457.455 184.372Z" fill="#FFC3BD"/>
    <path d="M444.966 197.505L454.073 201.019L459.758 196.242L449.401 191.228L444.966 197.505Z" fill="#FFC3BD"/>
    <path opacity="0.2" d="M457.231 388.575L456.889 400.498L466.719 401.906L467.048 389.983L457.231 388.575Z" fill="black"/>
    <path opacity="0.2" d="M533.046 393.168H523.123L524.4 405.012H534.322L533.046 393.168Z" fill="black"/>
    <path d="M535.48 104.24C532.786 115.003 530.899 125.952 529.835 136.996C529.045 144.694 528.637 152.038 528.414 158.696C527.913 174.304 528.492 186.188 528.111 190.215C520.346 189.833 491.079 188.399 475.115 187.583C473.549 109.623 479.958 101.977 479.958 101.977C484.128 101.109 488.347 100.502 492.592 100.161C493.487 100.082 494.395 100.029 495.316 99.9897C502.841 99.928 510.364 100.301 517.846 101.108C519.267 101.24 520.702 101.424 522.097 101.622C529.203 102.648 535.48 104.24 535.48 104.24Z" fill="#EC4899"/>
    <path d="M490.868 100.095C492.105 106.004 504.633 146.8 529.177 160.513C529.279 160.569 529.366 160.65 529.428 160.749C529.49 160.848 529.526 160.962 529.532 161.078C529.611 162.315 529.637 163.908 529.651 164.842C529.651 164.944 529.63 165.044 529.589 165.137C529.548 165.23 529.487 165.313 529.411 165.38C529.335 165.448 529.245 165.498 529.148 165.528C529.051 165.557 528.949 165.566 528.848 165.553C525.966 165.158 515.109 161.684 499.646 136.864C492.026 124.625 486.749 105.398 485.894 101.332C485.853 101.14 485.888 100.941 485.991 100.774C486.094 100.608 486.257 100.487 486.446 100.437L489.934 99.5159C490.033 99.4887 490.137 99.4822 490.239 99.497C490.341 99.5118 490.439 99.5474 490.527 99.6018C490.615 99.6561 490.69 99.728 490.749 99.8128C490.808 99.8977 490.848 99.9937 490.868 100.095Z" fill="#263238"/>
    <path d="M493.289 122.27C494.75 125.533 487.775 139.562 496.672 153.854C505.568 168.145 513.319 156.393 522.413 161.631C511.924 150.142 493.289 122.27 493.289 122.27Z" fill="#263238"/>
    <path d="M513.78 158.499H513.648C497.382 150.985 494.566 127.915 494.54 127.692C494.534 127.648 494.537 127.604 494.549 127.562C494.56 127.52 494.58 127.481 494.607 127.447C494.634 127.412 494.668 127.384 494.706 127.363C494.744 127.341 494.786 127.328 494.829 127.323C494.872 127.318 494.915 127.321 494.956 127.333C494.997 127.344 495.036 127.364 495.069 127.391C495.102 127.419 495.13 127.452 495.149 127.49C495.169 127.528 495.181 127.57 495.184 127.613C495.184 127.849 497.988 150.55 513.924 157.881C513.996 157.911 514.054 157.965 514.089 158.034C514.124 158.103 514.134 158.182 514.117 158.257C514.1 158.333 514.056 158.399 513.995 158.446C513.933 158.493 513.857 158.516 513.78 158.512V158.499Z" fill="#334366"/>
    <path opacity="0.2" d="M522.452 118.782C522.528 126.904 524.965 134.828 529.466 141.589C529.585 140.075 529.729 138.535 529.887 136.996C530.48 131.205 531.269 125.217 532.348 119.151L522.452 118.782Z" fill="black"/>
    <path d="M516.872 75.5911C515.096 82.7633 513.016 95.9759 517.846 101.069C515.497 103.304 512.695 105.006 509.629 106.059C506.563 107.113 503.306 107.494 500.08 107.175C493.855 106.741 493.75 102.358 495.263 100.016C503.449 98.4894 503.528 92.4753 502.409 86.7771L516.872 75.5911Z" fill="#FFC3BD"/>
    <path opacity="0.2" d="M510.99 80.1838L502.462 86.7638C502.75 88.0883 502.917 89.4361 502.962 90.7908C506.068 90.5013 510.476 87.3165 510.963 84.1055C511.212 82.8109 511.221 81.4816 510.99 80.1838Z" fill="black"/>
    <path d="M516.596 62.7205C517.267 72.5379 518.149 78.2625 513.885 83.895C507.45 92.3832 494.842 89.4748 491.263 80.0523C488.025 71.5641 487.486 56.9301 496.527 51.8109C498.514 50.6741 500.758 50.0643 503.047 50.0394C505.336 50.0144 507.593 50.5752 509.604 51.6684C511.615 52.7617 513.313 54.351 514.537 56.2854C515.761 58.2198 516.469 60.435 516.596 62.7205Z" fill="#FFC3BD"/>
    <path d="M500.435 78.71C501.586 78.5836 502.69 78.1831 503.654 77.542C504.618 76.9008 505.414 76.0377 505.976 75.0252C506 74.9654 506.001 74.8988 505.979 74.8382C505.957 74.7775 505.914 74.727 505.857 74.6962C505.827 74.6807 505.794 74.6714 505.76 74.669C505.727 74.6666 505.693 74.671 505.661 74.6821C505.629 74.6932 505.599 74.7106 505.574 74.7334C505.549 74.7562 505.529 74.7838 505.515 74.8146C504.982 75.7419 504.239 76.531 503.345 77.1184C502.451 77.7059 501.432 78.0752 500.369 78.1967C500.303 78.2094 500.244 78.2458 500.203 78.2991C500.162 78.3525 500.141 78.419 500.146 78.4862C500.156 78.5538 500.191 78.6149 500.245 78.6566C500.299 78.6984 500.367 78.7175 500.435 78.71Z" fill="#263238"/>
    <path d="M507.713 56.009C508.121 60.3254 511.595 64.6946 511.161 67.4845C510.986 68.7121 510.57 69.8929 509.937 70.9587L516.306 72.4327C516.306 72.4327 534.507 52.9822 520.11 49.2447C513.451 36.3874 485.828 32.5842 480.116 43.9807C474.049 55.9958 490.71 58.8384 490.71 58.8384C490.71 58.8384 497.224 54.1797 507.713 56.009Z" fill="#263238"/>
    <path d="M522.452 72.959C521.408 75.2068 519.515 76.9485 517.188 77.8019C514.109 78.9205 512.319 76.2095 512.99 73.1696C513.582 70.4323 515.898 66.5896 519.096 66.7606C519.793 66.8187 520.465 67.0494 521.051 67.4321C521.636 67.8147 522.117 68.3372 522.45 68.9524C522.783 69.5675 522.958 70.256 522.958 70.9555C522.958 71.655 522.784 72.3436 522.452 72.959V72.959Z" fill="#FFC3BD"/>
    <path d="M453.533 397.695L470.167 400.077C470.167 400.077 479.814 339.541 484.801 304.417C486.117 295.113 488.302 281.979 491.144 267.964C494.711 250.303 499.264 231.208 502.988 216.245C506.936 200.453 509.95 189.32 509.95 189.32L475.076 187.596C475.076 187.596 457.968 269.517 456.007 299.719C454.02 331.132 453.533 397.695 453.533 397.695Z" fill="#263238"/>
    <path opacity="0.2" d="M491.144 267.964C494.711 250.303 499.264 231.208 502.988 216.245L499.225 208.507C490.868 219.035 489.118 250.751 491.144 267.964Z" fill="black"/>
    <path d="M493.908 188.53C493.908 188.53 499.396 273.636 503.581 302.39C508.173 333.882 519.82 402.722 519.82 402.722H537.981C537.981 402.722 536.362 337.843 531.703 306.97C526.439 272.017 528.098 190.228 528.098 190.228L493.908 188.53Z" fill="#263238"/>
    <path d="M517.635 403.117H539.034V396.721L515.122 396.313L517.635 403.117Z" fill="#EC4899"/>
    <path d="M452.441 397.932L471.207 400.63L473.023 394.05L451.625 390.944L452.441 397.932Z" fill="#EC4899"/>
    <path d="M502.172 67.366C502.278 68.1556 501.936 68.8531 501.422 68.9189C500.909 68.9847 500.396 68.3925 500.291 67.6029C500.185 66.8133 500.527 66.1158 501.054 66.05C501.58 65.9842 502.067 66.5633 502.172 67.366Z" fill="#263238"/>
    <path d="M493.21 68.5242C493.303 69.3138 492.974 70.0113 492.447 70.0771C491.921 70.1429 491.434 69.5638 491.329 68.7611C491.223 67.9583 491.566 67.274 492.079 67.2082C492.592 67.1424 493.105 67.6951 493.21 68.5242Z" fill="#263238"/>
    <path d="M496.132 68.5504C495.499 71.0974 494.52 73.5459 493.224 75.8279C494.79 76.9596 497.172 75.8279 497.172 75.8279L496.132 68.5504Z" fill="#ED847E"/>
    <path d="M504.581 64.1023C504.499 64.129 504.411 64.132 504.327 64.111C504.243 64.0901 504.167 64.046 504.107 63.9839C503.706 63.5512 503.209 63.2196 502.655 63.016C502.102 62.8124 501.508 62.7427 500.922 62.8126C500.862 62.826 500.799 62.827 500.738 62.8156C500.677 62.8042 500.619 62.7805 500.567 62.7461C500.516 62.7117 500.472 62.6672 500.438 62.6153C500.404 62.5634 500.381 62.5052 500.37 62.4441C500.356 62.3836 500.355 62.3209 500.367 62.2599C500.378 62.199 500.402 62.1409 500.436 62.0893C500.47 62.0377 500.515 61.9935 500.567 61.9595C500.619 61.9255 500.677 61.9024 500.738 61.8914C501.477 61.7917 502.229 61.8699 502.932 62.1194C503.634 62.3689 504.267 62.7825 504.778 63.3259C504.822 63.3687 504.857 63.4199 504.88 63.4764C504.904 63.5329 504.916 63.5936 504.916 63.6549C504.916 63.7161 504.904 63.7768 504.88 63.8333C504.857 63.8898 504.822 63.941 504.778 63.9839C504.721 64.0368 504.654 64.0771 504.581 64.1023Z" fill="#263238"/>
    <path d="M488.96 65.9316C488.865 65.9579 488.765 65.9579 488.67 65.9316C488.552 65.8924 488.454 65.8083 488.398 65.6975C488.341 65.5867 488.33 65.4581 488.368 65.3394C488.588 64.6243 488.976 63.9726 489.501 63.439C490.025 62.9054 490.67 62.5055 491.381 62.2731C491.444 62.2471 491.511 62.2348 491.579 62.2371C491.647 62.2394 491.713 62.2561 491.774 62.2862C491.835 62.3164 491.888 62.3592 491.931 62.4117C491.973 62.4643 492.004 62.5254 492.022 62.591C492.039 62.6565 492.041 62.725 492.03 62.7917C492.018 62.8585 491.992 62.922 491.954 62.9779C491.916 63.0338 491.866 63.0809 491.808 63.116C491.75 63.151 491.685 63.1733 491.618 63.1811V63.1811C491.062 63.3768 490.559 63.7002 490.15 64.1252C489.741 64.5503 489.437 65.0653 489.263 65.6289C489.243 65.7012 489.204 65.7671 489.151 65.8201C489.098 65.8732 489.032 65.9116 488.96 65.9316Z" fill="#263238"/>
    <path d="M521.491 416.725C520.817 416.774 520.146 416.598 519.583 416.224C519.407 416.071 519.271 415.877 519.186 415.659C519.101 415.442 519.07 415.207 519.096 414.974C519.096 414.838 519.135 414.704 519.207 414.587C519.279 414.471 519.382 414.377 519.504 414.316C520.61 413.75 523.794 415.711 524.163 415.935C524.201 415.96 524.232 415.996 524.251 416.038C524.269 416.08 524.275 416.126 524.268 416.172C524.264 416.218 524.245 416.263 524.214 416.298C524.184 416.334 524.143 416.358 524.097 416.369C523.245 416.587 522.371 416.706 521.491 416.725V416.725ZM520.017 414.672C519.918 414.649 519.814 414.649 519.715 414.672C519.668 414.7 519.629 414.741 519.604 414.79C519.578 414.838 519.567 414.893 519.57 414.948C519.546 415.106 519.563 415.267 519.618 415.416C519.673 415.566 519.765 415.699 519.886 415.803C520.994 416.316 522.257 416.382 523.413 415.988C522.376 415.335 521.223 414.889 520.017 414.672V414.672Z" fill="#EC4899"/>
    <path d="M524.031 416.435C523.997 416.446 523.96 416.446 523.926 416.435C522.899 415.882 520.912 413.711 521.123 412.605C521.156 412.431 521.25 412.274 521.387 412.161C521.524 412.048 521.695 411.987 521.873 411.987C522.051 411.966 522.232 411.983 522.404 412.035C522.576 412.087 522.736 412.173 522.873 412.29C524.018 413.224 524.268 416.093 524.268 416.238C524.274 416.281 524.268 416.326 524.249 416.365C524.23 416.405 524.2 416.438 524.163 416.461L524.031 416.435ZM522.031 412.421H521.926C521.623 412.421 521.597 412.605 521.583 412.658C521.465 413.316 522.728 414.961 523.742 415.738C523.678 414.607 523.269 413.523 522.57 412.632C522.434 412.473 522.24 412.373 522.031 412.355V412.421Z" fill="#EC4899"/>
    <path d="M455.665 411.776C454.033 411.855 451.164 411.776 450.217 410.737C450.079 410.573 449.983 410.379 449.937 410.17C449.891 409.962 449.897 409.745 449.954 409.539C449.977 409.412 450.033 409.293 450.116 409.194C450.199 409.095 450.306 409.019 450.427 408.973C451.743 408.499 455.362 411.053 455.783 411.342C455.823 411.372 455.853 411.413 455.87 411.46C455.886 411.507 455.888 411.557 455.876 411.605C455.862 411.652 455.835 411.693 455.797 411.724C455.76 411.755 455.713 411.773 455.665 411.776ZM450.612 409.408H450.546C450.498 409.425 450.456 409.455 450.424 409.495C450.391 409.534 450.37 409.581 450.362 409.631C450.323 409.768 450.32 409.912 450.352 410.05C450.385 410.188 450.451 410.315 450.546 410.421C451.072 411.039 452.665 411.368 454.889 411.316C453.428 410.368 451.388 409.223 450.612 409.408V409.408Z" fill="#EC4899"/>
    <path d="M455.665 411.776C455.605 411.796 455.54 411.796 455.481 411.776C454.375 411.066 452.322 408.618 452.665 407.526C452.743 407.276 452.98 406.973 453.625 406.999C453.86 407.01 454.091 407.068 454.304 407.17C454.516 407.272 454.706 407.415 454.862 407.592C455.955 408.789 455.849 411.474 455.836 411.54C455.834 411.58 455.822 411.618 455.801 411.653C455.78 411.687 455.752 411.716 455.718 411.737L455.665 411.776ZM453.336 407.46C453.151 407.46 453.125 407.605 453.112 407.644C452.915 408.289 454.27 410.184 455.375 411.092C455.424 409.958 455.121 408.836 454.507 407.881C454.396 407.75 454.26 407.644 454.106 407.569C453.951 407.494 453.783 407.452 453.612 407.447L453.336 407.46Z" fill="#EC4899"/>
    <path d="M536.928 109.649C538.165 111.176 539.218 112.558 540.284 114.045C541.35 115.532 542.376 116.979 543.403 118.466C545.412 121.449 547.32 124.52 549.127 127.678C552.849 134.094 555.855 140.899 558.089 147.971L558.195 148.34L558.339 148.853L558.589 149.892C558.695 150.511 558.813 151.208 558.879 151.761C558.99 152.872 559.038 153.988 559.024 155.104C558.978 157.086 558.811 159.064 558.524 161.026C557.98 164.664 557.225 168.267 556.26 171.817C554.39 178.7 552.024 185.438 549.18 191.978L542.06 189.767C543.205 183.069 544.311 176.265 545.127 169.632C545.561 166.329 545.837 163.052 545.956 159.894C546.017 158.411 545.991 156.926 545.877 155.446C545.811 154.775 545.719 154.13 545.614 153.604C545.614 153.34 545.495 153.143 545.443 152.919L545.35 152.709V152.603L545.245 152.353C544.1 149.484 542.692 146.616 541.205 143.76C539.718 140.904 538.02 138.088 536.283 135.285C534.546 132.482 532.704 129.718 530.835 126.981C529.901 125.665 528.94 124.244 527.979 122.901L525.084 119.019L536.928 109.649Z" fill="#FFC3BD"/>
    <path d="M535.48 104.24C544.811 105.925 553.417 128.507 553.417 128.507L534.296 144.694C534.296 144.694 527.716 133.271 522.386 122.217C516.662 110.189 524.176 102.201 535.48 104.24Z" fill="#EC4899"/>
    <path d="M543.074 187.82L536.494 195.479L548.68 198.927C548.68 198.927 552.799 191.175 548.93 188.53L543.074 187.82Z" fill="#FFC3BD"/>
    <path d="M536.125 203.743L546.337 206.138L548.719 198.927L536.533 195.479L536.125 203.743Z" fill="#FFC3BD"/>
    <path d="M329.329 277.163C329.406 278.597 329.106 280.026 328.46 281.308C327.84 282.56 327.038 283.713 326.078 284.73C324.184 286.654 322.052 288.33 319.735 289.717C315.185 292.374 310.385 294.578 305.404 296.297C295.545 299.698 285.421 302.277 275.136 304.009C254.709 307.527 234.012 309.245 213.284 309.142C192.578 309.241 171.904 307.524 151.498 304.009C141.214 302.276 131.09 299.696 121.23 296.297C116.253 294.578 111.458 292.374 106.912 289.717C104.591 288.33 102.455 286.654 100.556 284.73C99.6006 283.71 98.7983 282.558 98.1736 281.308C97.534 280.023 97.235 278.596 97.305 277.163C97.2963 276.988 97.3573 276.817 97.4745 276.688C97.5917 276.558 97.7556 276.48 97.9301 276.472C98.1047 276.463 98.2755 276.524 98.4051 276.641C98.5346 276.758 98.6123 276.922 98.621 277.097V277.163C99.0786 279.458 100.421 281.482 102.358 282.795C104.301 284.255 106.419 285.467 108.662 286.401C113.248 288.349 118 289.878 122.862 290.968C127.81 292.143 132.793 293.126 137.812 293.915C142.786 294.705 147.787 295.442 152.801 295.981C172.93 298.116 193.161 299.153 213.403 299.087C233.645 299.153 253.875 298.116 274.004 295.981C279.031 295.442 284.019 294.665 288.994 293.915C293.968 293.165 298.916 292.165 303.772 290.968C308.634 289.878 313.387 288.349 317.972 286.401C320.219 285.467 322.341 284.255 324.289 282.795C326.218 281.476 327.555 279.454 328.013 277.163V277.097C328.036 276.924 328.126 276.768 328.265 276.662C328.403 276.556 328.577 276.509 328.75 276.531C328.905 276.552 329.048 276.627 329.153 276.742C329.259 276.858 329.321 277.006 329.329 277.163V277.163Z" fill="#EC4899"/>
    <path opacity="0.5" d="M329.329 277.163C329.406 278.597 329.106 280.026 328.46 281.308C327.84 282.56 327.038 283.713 326.078 284.73C324.184 286.654 322.052 288.33 319.735 289.717C315.185 292.374 310.385 294.578 305.404 296.297C295.545 299.698 285.421 302.277 275.136 304.009C254.709 307.527 234.012 309.245 213.284 309.142C192.578 309.241 171.904 307.524 151.498 304.009C141.214 302.276 131.09 299.696 121.23 296.297C116.253 294.578 111.458 292.374 106.912 289.717C104.591 288.33 102.455 286.654 100.556 284.73C99.6006 283.71 98.7983 282.558 98.1736 281.308C97.534 280.023 97.235 278.596 97.305 277.163C97.2963 276.988 97.3573 276.817 97.4745 276.688C97.5917 276.558 97.7556 276.48 97.9301 276.472C98.1047 276.463 98.2755 276.524 98.4051 276.641C98.5346 276.758 98.6123 276.922 98.621 277.097V277.163C99.0786 279.458 100.421 281.482 102.358 282.795C104.301 284.255 106.419 285.467 108.662 286.401C113.248 288.349 118 289.878 122.862 290.968C127.81 292.143 132.793 293.126 137.812 293.915C142.786 294.705 147.787 295.442 152.801 295.981C172.93 298.116 193.161 299.153 213.403 299.087C233.645 299.153 253.875 298.116 274.004 295.981C279.031 295.442 284.019 294.665 288.994 293.915C293.968 293.165 298.916 292.165 303.772 290.968C308.634 289.878 313.387 288.349 317.972 286.401C320.219 285.467 322.341 284.255 324.289 282.795C326.218 281.476 327.555 279.454 328.013 277.163V277.097C328.036 276.924 328.126 276.768 328.265 276.662C328.403 276.556 328.577 276.509 328.75 276.531C328.905 276.552 329.048 276.627 329.153 276.742C329.259 276.858 329.321 277.006 329.329 277.163V277.163Z" fill="#334366"/>
    <path d="M560.524 277.163C560.594 278.596 560.295 280.023 559.655 281.308C559.035 282.56 558.232 283.713 557.273 284.73C555.374 286.654 553.238 288.33 550.917 289.717C546.371 292.374 541.575 294.578 536.599 296.297C526.739 299.696 516.615 302.276 506.331 304.009C465.424 310.852 423.665 310.852 382.759 304.009C372.474 302.277 362.35 299.698 352.491 296.297C347.514 294.578 342.719 292.374 338.173 289.717C335.849 288.334 333.713 286.658 331.816 284.73C330.857 283.713 330.054 282.56 329.434 281.308C328.788 280.026 328.489 278.597 328.566 277.163C328.557 276.988 328.618 276.817 328.735 276.688C328.852 276.558 329.016 276.48 329.191 276.472C329.365 276.463 329.536 276.524 329.666 276.641C329.795 276.758 329.873 276.922 329.882 277.097V277.163C330.34 279.454 331.677 281.476 333.606 282.795C335.553 284.255 337.675 285.467 339.923 286.401C344.508 288.349 349.261 289.878 354.122 290.968C358.978 292.165 363.927 293.139 368.901 293.915C373.876 294.692 378.863 295.442 383.89 295.981C403.998 298.114 424.206 299.151 444.426 299.087C464.668 299.153 484.899 298.116 505.028 295.981C510.042 295.442 515.043 294.665 520.017 293.915C524.992 293.165 529.927 292.165 534.796 290.968C539.658 289.878 544.41 288.349 548.996 286.401C551.241 285.47 553.359 284.258 555.299 282.795C557.237 281.482 558.579 279.458 559.037 277.163V277.097C559.06 276.924 559.15 276.768 559.288 276.662C559.426 276.556 559.601 276.509 559.774 276.531C559.865 276.522 559.957 276.531 560.044 276.558C560.131 276.585 560.212 276.63 560.282 276.689C560.352 276.747 560.409 276.82 560.451 276.901C560.493 276.983 560.517 277.072 560.524 277.163V277.163Z" fill="#EC4899"/>
    <path opacity="0.5" d="M560.524 277.163C560.594 278.596 560.295 280.023 559.655 281.308C559.035 282.56 558.232 283.713 557.273 284.73C555.374 286.654 553.238 288.33 550.917 289.717C546.371 292.374 541.575 294.578 536.599 296.297C526.739 299.696 516.615 302.276 506.331 304.009C465.424 310.852 423.665 310.852 382.759 304.009C372.474 302.277 362.35 299.698 352.491 296.297C347.514 294.578 342.719 292.374 338.173 289.717C335.849 288.334 333.713 286.658 331.816 284.73C330.857 283.713 330.054 282.56 329.434 281.308C328.788 280.026 328.489 278.597 328.566 277.163C328.557 276.988 328.618 276.817 328.735 276.688C328.852 276.558 329.016 276.48 329.191 276.472C329.365 276.463 329.536 276.524 329.666 276.641C329.795 276.758 329.873 276.922 329.882 277.097V277.163C330.34 279.454 331.677 281.476 333.606 282.795C335.553 284.255 337.675 285.467 339.923 286.401C344.508 288.349 349.261 289.878 354.122 290.968C358.978 292.165 363.927 293.139 368.901 293.915C373.876 294.692 378.863 295.442 383.89 295.981C403.998 298.114 424.206 299.151 444.426 299.087C464.668 299.153 484.899 298.116 505.028 295.981C510.042 295.442 515.043 294.665 520.017 293.915C524.992 293.165 529.927 292.165 534.796 290.968C539.658 289.878 544.41 288.349 548.996 286.401C551.241 285.47 553.359 284.258 555.299 282.795C557.237 281.482 558.579 279.458 559.037 277.163V277.097C559.06 276.924 559.15 276.768 559.288 276.662C559.426 276.556 559.601 276.509 559.774 276.531C559.865 276.522 559.957 276.531 560.044 276.558C560.131 276.585 560.212 276.63 560.282 276.689C560.352 276.747 560.409 276.82 560.451 276.901C560.493 276.983 560.517 277.072 560.524 277.163V277.163Z" fill="#334366"/>
    <path d="M102.082 233.945H94.8441V427.621H102.082V233.945Z" fill="#EC4899"/>
    <path d="M94.752 424.91H102.122C102.635 424.91 103.127 425.114 103.49 425.477C103.852 425.839 104.056 426.332 104.056 426.845V427.608H92.8701V426.845C92.8699 426.34 93.0665 425.856 93.418 425.495C93.7695 425.134 94.2481 424.924 94.752 424.91V424.91Z" fill="#EC4899"/>
    <path d="M102.635 275.004H94.3046V279.334H102.635V275.004Z" fill="#EC4899"/>
    <path opacity="0.3" d="M102.082 279.334H94.8441V280.334H102.082V279.334Z" fill="black"/>
    <path d="M98.4631 237.446C101.806 237.446 104.517 234.736 104.517 231.392C104.517 228.049 101.806 225.339 98.4631 225.339C95.1198 225.339 92.4095 228.049 92.4095 231.392C92.4095 234.736 95.1198 237.446 98.4631 237.446Z" fill="#EC4899"/>
    <path d="M563.156 233.945H555.918V427.621H563.156V233.945Z" fill="#EC4899"/>
    <path d="M555.878 424.91H563.248C563.761 424.91 564.253 425.114 564.616 425.477C564.979 425.839 565.183 426.332 565.183 426.845V427.608H553.997V426.845C553.996 426.34 554.193 425.856 554.544 425.495C554.896 425.134 555.375 424.924 555.878 424.91V424.91Z" fill="#EC4899"/>
    <path d="M563.695 275.004H555.365V279.334H563.695V275.004Z" fill="#EC4899"/>
    <path opacity="0.3" d="M563.156 279.334H555.918V280.334H563.156V279.334Z" fill="black"/>
    <path d="M559.537 237.446C562.88 237.446 565.591 234.736 565.591 231.392C565.591 228.049 562.88 225.339 559.537 225.339C556.194 225.339 553.483 228.049 553.483 231.392C553.483 234.736 556.194 237.446 559.537 237.446Z" fill="#EC4899"/>
    <path d="M332.619 233.945H325.381V427.621H332.619V233.945Z" fill="#EC4899"/>
    <path d="M325.342 424.91H332.658C333.172 424.91 333.664 425.114 334.026 425.477C334.389 425.839 334.593 426.332 334.593 426.845V427.608H323.407V426.845C323.407 426.332 323.611 425.839 323.974 425.477C324.336 425.114 324.828 424.91 325.342 424.91V424.91Z" fill="#EC4899"/>
    <path d="M333.159 275.004H324.828V279.334H333.159V275.004Z" fill="#EC4899"/>
    <path opacity="0.3" d="M332.619 279.334H325.381V280.334H332.619V279.334Z" fill="black"/>
    <path d="M329 237.446C332.343 237.446 335.054 234.736 335.054 231.392C335.054 228.049 332.343 225.339 329 225.339C325.657 225.339 322.946 228.049 322.946 231.392C322.946 234.736 325.657 237.446 329 237.446Z" fill="#EC4899"/>
</svg>
