<svg xmlns="http://www.w3.org/2000/svg" width="500" height="500" fill="none" viewBox="0 0 500 500">
    <path fill="#F5F5F5" d="M253.04 469.65c128.793 0 233.2-60.28 233.2-134.64 0-74.359-104.407-134.64-233.2-134.64s-233.2 60.281-233.2 134.64c0 74.36 104.407 134.64 233.2 134.64z"/>
    <path fill="#E0E0E0" d="M321.15 282.111c18.883 0 34.19-8.838 34.19-19.74s-15.307-19.74-34.19-19.74c-18.883 0-34.19 8.838-34.19 19.74s15.307 19.74 34.19 19.74zM373.94 285.12L441 323.83a6.663 6.663 0 006.06 0l10.18-5.83c1.68-1 1.68-2.53 0-3.5l-67.05-38.71a6.676 6.676 0 00-6.06 0l-10.19 5.88c-1.67.91-1.67 2.48 0 3.45zM156.65 399.15l92.68 53.51a9.149 9.149 0 008.28 0l147-84.89c2.28-1.32 2.28-3.46 0-4.78L312 309.48a9.148 9.148 0 00-8.28 0l-147 84.89c-2.35 1.32-2.35 3.46-.07 4.78zM140.56 339.62l-18.91-10.91a9.14 9.14 0 00-8.27 0l-61.62 35.57a9.15 9.15 0 01-8.28 0l-7.25-4.19c-2.29-1.32-2.29-3.46 0-4.78l193.63-111.79a9.16 9.16 0 018.28 0l7.25 4.19c2.29 1.32 2.29 3.46 0 4.78l-61.61 35.57c-2.29 1.32-2.29 3.46 0 4.78l18.9 10.91c2.29 1.32 2.29 3.46 0 4.78l-53.85 31.09a9.127 9.127 0 01-8.27 0z"/>
    <path fill="#7B77F5" d="M162.47 389.06l88.81 51.27a4.88 4.88 0 004.39 0l143.17-82.65a1.344 1.344 0 00.898-1.265 1.34 1.34 0 00-.898-1.265L310 303.88a4.84 4.84 0 00-4.39 0l-143.14 82.65a1.336 1.336 0 00-.898 1.265 1.335 1.335 0 00.898 1.265zm132.17-75.2a2.995 2.995 0 013.16.35l83.33 48.1a1.139 1.139 0 010 2.17L267.28 430.2a4.15 4.15 0 01-3.76 0l-83.34-48.1a1.139 1.139 0 010-2.17l114.46-66.07z"/>
    <path fill="#000" d="M162.47 389.06l88.81 51.27a4.88 4.88 0 004.39 0l143.17-82.65a1.344 1.344 0 00.898-1.265 1.34 1.34 0 00-.898-1.265L310 303.88a4.84 4.84 0 00-4.39 0l-143.14 82.65a1.336 1.336 0 00-.898 1.265 1.335 1.335 0 00.898 1.265zm132.17-75.2a2.995 2.995 0 013.16.35l83.33 48.1a1.139 1.139 0 010 2.17L267.28 430.2a4.15 4.15 0 01-3.76 0l-83.34-48.1a1.139 1.139 0 010-2.17l114.46-66.07z" opacity=".35"/>
    <path fill="#E6E6E6" d="M213.94 414.609a8.681 8.681 0 01-4.25-1 2.923 2.923 0 01-1.892-2.74 2.93 2.93 0 011.892-2.74 9.263 9.263 0 018.51 0 2.935 2.935 0 011.892 2.74 2.929 2.929 0 01-1.892 2.74 8.686 8.686 0 01-4.26 1zm0-6.54a7.793 7.793 0 00-3.75.89 1.997 1.997 0 00-1.318 1.88 1.998 1.998 0 001.318 1.88 8.344 8.344 0 007.51 0 1.997 1.997 0 001.318-1.88 2 2 0 00-1.318-1.88 7.797 7.797 0 00-3.76-.89z"/>
    <path fill="#7B77F5" d="M399.1 355.31a4.92 4.92 0 011.94 3.63v2.9a4.87 4.87 0 01-2.2 3.81l-143.16 82.64a4.024 4.024 0 01-1.61.49 3.873 3.873 0 01-.59 0v-8c.298.002.596-.022.89-.07.46-.071.904-.224 1.31-.45l143.17-82.65c1.15-.61 1.2-1.61.25-2.3z"/>
    <path fill="#000" d="M399.1 355.31a4.92 4.92 0 011.94 3.63v2.9a4.87 4.87 0 01-2.2 3.81l-143.16 82.64a4.024 4.024 0 01-1.61.49 3.873 3.873 0 01-.59 0v-8c.298.002.596-.022.89-.07.46-.071.904-.224 1.31-.45l143.17-82.65c1.15-.61 1.2-1.61.25-2.3z" opacity=".55"/>
    <path fill="#7B77F5" d="M294.64 313.86a2.995 2.995 0 013.16.35l83.33 48.1a1.139 1.139 0 010 2.17L267.28 430.2a4.15 4.15 0 01-3.76 0l-83.34-48.1a1.139 1.139 0 010-2.17l114.46-66.07z"/>
    <path fill="#fff" fill-opacity=".8" d="M294.64 313.86a2.995 2.995 0 013.16.35l83.33 48.1a1.139 1.139 0 010 2.17L267.28 430.2a4.15 4.15 0 01-3.76 0l-83.34-48.1a1.139 1.139 0 010-2.17l114.46-66.07z"/>
    <path fill="#7B77F5" d="M162.18 386.72c-.91.71-.81 1.71.29 2.34l88.81 51.27a4.47 4.47 0 002.2.52v8a4.447 4.447 0 01-2.19-.53L162.47 397a4.806 4.806 0 01-1.552-1.637 4.808 4.808 0 01-.638-2.163v-2.9a4.993 4.993 0 011.9-3.58z"/>
    <path fill="#000" d="M162.18 386.72c-.91.71-.81 1.71.29 2.34l88.81 51.27a4.47 4.47 0 002.2.52v8a4.447 4.447 0 01-2.19-.53L162.47 397a4.806 4.806 0 01-1.552-1.637 4.808 4.808 0 01-.638-2.163v-2.9a4.993 4.993 0 011.9-3.58z" opacity=".45"/>
    <path fill="#263238" d="M348.63 333.13a1.476 1.476 0 001.33 0c.37-.21.37-.55 0-.77a1.476 1.476 0 00-1.33 0c-.37.22-.37.56 0 .77zM350.76 339.169a2.996 2.996 0 002.66 0 .824.824 0 00.39-1.239.818.818 0 00-.39-.301 3.01 3.01 0 00-2.66 0c-.76.42-.76 1.11 0 1.54zM348.88 336.49c.49-.28.46-.75-.06-1.06l-8.76-5.05a1.996 1.996 0 00-1.83 0c-.49.28-.46.75.06 1l8.76 5.06a1.997 1.997 0 001.83.05z"/>
    <path fill="#fff" fill-opacity=".8" d="M253.47 342.96l77.66 44.84-31.07 17.93-77.65-44.83 31.06-17.94z"/>
    <path fill="#7B77F5" d="M280.63 328.999c-2.15 1.24-2.15 3.25 0 4.48a8.565 8.565 0 007.76 0c2.15-1.23 2.15-3.24 0-4.48a8.562 8.562 0 00-7.76 0z"/>
    <path fill="#fff" fill-opacity=".8" d="M285.39 331.11a.689.689 0 000 1.31 2.504 2.504 0 002.26 0 .694.694 0 00.473-.655.689.689 0 00-.473-.655 2.491 2.491 0 00-2.26 0z"/>
    <path fill="#455A64" d="M294.39 339.82a.125.125 0 01.058.058.129.129 0 01.012.082.265.265 0 01-.15.17l-.79.45a.62.62 0 01-.28.09.54.54 0 01-.24 0l-3.67-2.12a.12.12 0 01-.07-.14.32.32 0 01.15-.16l7.2-4.16a.515.515 0 01.28-.08.383.383 0 01.25 0l.67.39a.124.124 0 01.067.054.123.123 0 01.013.086.324.324 0 01-.15.16l-6.11 3.53 2.76 1.59zM301.77 338.869c.264.137.488.341.65.59a.94.94 0 01.11.67 1.54 1.54 0 01-.34.71 3.447 3.447 0 01-.77.66l-.25.15-.31.18-.31.18-.26.14a6.3 6.3 0 01-1.15.44 5.483 5.483 0 01-1.2.2 4.988 4.988 0 01-1.17-.07 3.443 3.443 0 01-1-.37 1.768 1.768 0 01-.64-.59 1.071 1.071 0 01-.13-.67 1.49 1.49 0 01.35-.7c.225-.257.484-.483.77-.67l.23-.15.31-.18c.1-.062.204-.119.31-.17l.27-.15a6.131 6.131 0 012.36-.64c.391-.022.784.001 1.17.07a3.01 3.01 0 011 .37zm-1.49 2c.173-.105.326-.24.45-.4a.511.511 0 00.088-.502.376.376 0 00-.088-.128 1.695 1.695 0 00-.29-.23 3.058 3.058 0 00-.4-.17 1.842 1.842 0 00-.49-.07c-.202 0-.403.023-.6.07a3.425 3.425 0 00-.7.26l-.23.13-.29.15-.28.17-.2.13a1.676 1.676 0 00-.45.41.582.582 0 00-.13.34.478.478 0 00.13.29c.084.089.182.163.29.22a1.885 1.885 0 00.89.25c.203.001.404-.026.6-.08.24-.058.472-.145.69-.26.081-.032.158-.072.23-.12l.28-.16.28-.16.22-.14zM305.42 342.649a1.7 1.7 0 00-1-.25 2.938 2.938 0 00-1.19.43l-2.9 1.67a.62.62 0 01-.28.09.426.426 0 01-.24 0l-.64-.37a.125.125 0 01-.058-.058.129.129 0 01-.012-.082.253.253 0 01.057-.096.272.272 0 01.093-.064l5.19-3a.674.674 0 01.28-.09.482.482 0 01.25 0l.63.37a.106.106 0 01.069.054.104.104 0 01.001.086.239.239 0 01-.14.16l-.26.15c.292-.031.587-.031.88 0 .278.049.546.148.79.29l.38.22a.13.13 0 01.061.057.12.12 0 01.009.083.287.287 0 01-.15.16l-.73.43a.674.674 0 01-.28.08.37.37 0 01-.25 0l-.56-.32zM305 344.229c.421-.24.862-.441 1.32-.6a6.429 6.429 0 011.37-.31c.428-.06.862-.06 1.29 0 .379.047.746.166 1.08.35.272.134.491.356.62.63a1 1 0 010 .73 1.991 1.991 0 01-.49.76 4.484 4.484 0 01-.94.71l-.5.29a.833.833 0 01-.28.08.37.37 0 01-.25 0l-2.79-1.61a1.222 1.222 0 00-.37.3.535.535 0 00-.12.32.477.477 0 00.11.29c.08.102.178.187.29.25.16.092.332.163.51.21.151.031.305.048.46.05h.27c.068.01.132.034.19.07l.67.39c.027.011.05.031.064.057.015.025.02.055.016.083a.287.287 0 01-.15.16 2.053 2.053 0 01-.53.16 4.322 4.322 0 01-.85.06 5.02 5.02 0 01-1-.11 3.324 3.324 0 01-1-.38 1.489 1.489 0 01-.63-.61.996.996 0 010-.74c.137-.325.358-.607.64-.82a5.458 5.458 0 011-.77zm3.73.22a1.549 1.549 0 00-.51-.19 2.034 2.034 0 00-.54 0 2.108 2.108 0 00-.51.09 2.738 2.738 0 00-.43.15l1.89 1.09.29-.23a.73.73 0 00.18-.28.425.425 0 000-.31.865.865 0 00-.34-.32h-.03zM313.48 346.399a3.564 3.564 0 011 0c.27.028.532.11.77.24a1.091 1.091 0 01.6.65.92.92 0 01-.16.7c.22-.047.445-.073.67-.08.213-.015.427-.015.64 0 .186.02.371.056.55.11.153.043.301.103.44.18.254.122.459.326.58.58a.78.78 0 01-.05.63 2.122 2.122 0 01-.56.64 6.853 6.853 0 01-.91.62l-3 1.73a.564.564 0 01-.28.08.383.383 0 01-.25 0l-.64-.36a.14.14 0 01-.06-.063.145.145 0 01-.01-.087.324.324 0 01.15-.16l2.94-1.7c.51-.29.79-.53.84-.73.05-.2 0-.38-.31-.53a1.517 1.517 0 00-.86-.16 3.06 3.06 0 00-1.27.44l-3 1.73a.758.758 0 01-.28.08.353.353 0 01-.24 0l-.64-.37a.12.12 0 01-.07-.14.276.276 0 01.059-.095.267.267 0 01.091-.065l2.94-1.7c.51-.29.79-.54.84-.74.05-.2-.05-.37-.31-.52a1.525 1.525 0 00-.89-.16 3.136 3.136 0 00-1.3.46l-2.94 1.7a.62.62 0 01-.28.09.482.482 0 01-.25 0l-.63-.37a.106.106 0 01-.064-.055.107.107 0 01-.006-.085.241.241 0 01.14-.16l5.2-3a.62.62 0 01.28-.09.504.504 0 01.25 0l.63.37c.06 0 .09.08.07.14a.239.239 0 01-.14.16l-.28.09zM322.09 351.829c-.64.35-1.26.71-1.88 1.08-.82.51-1.28.95-1.36 1.34-.08.39.13.73.64 1 .223.126.457.23.7.31.254.072.516.113.78.12.299-.001.598-.035.89-.1a6.462 6.462 0 001.07-.34.575.575 0 01.25-.07.327.327 0 01.17 0l.16.1a.097.097 0 01.055.042c.013.02.018.045.015.068 0 0 0 .08-.11.12a6.297 6.297 0 01-1 .39c-.38.12-.773.194-1.17.22-.424.029-.85.009-1.27-.06a3.64 3.64 0 01-1.24-.45 1.766 1.766 0 01-.75-.7 1.002 1.002 0 01-.05-.76c.118-.3.306-.568.55-.78a6.061 6.061 0 011.06-.79l1-.57c.35-.21.69-.39 1-.57.435-.242.89-.446 1.36-.61.44-.157.896-.264 1.36-.32.438-.06.882-.06 1.32 0 .423.07.829.215 1.2.43.326.162.599.411.79.72.12.223.156.483.1.73a1.39 1.39 0 01-.38.67 3.693 3.693 0 01-.68.56.396.396 0 01-.21.07.36.36 0 01-.19 0l-.17-.1a.116.116 0 01-.046-.036.11.11 0 01-.024-.054s0-.09.12-.15a2.8 2.8 0 00.6-.61.865.865 0 00.16-.52.72.72 0 00-.21-.45 2.155 2.155 0 00-.53-.4 3.003 3.003 0 00-1.78-.37 5.788 5.788 0 00-2.3.84zM329.85 355.08c.249.13.457.327.6.57a.844.844 0 010 .64c-.093.259-.251.49-.46.67-.26.252-.549.473-.86.66l-.21.13-.25.15-.27.15-.21.11a7.27 7.27 0 01-1.14.5 5.633 5.633 0 01-1.16.27 4.58 4.58 0 01-1.11 0 3.019 3.019 0 01-1-.35 1.452 1.452 0 01-.6-.57.786.786 0 010-.64 1.64 1.64 0 01.45-.67c.262-.255.554-.477.87-.66l.2-.12.26-.16.26-.14.21-.12c.365-.2.746-.367 1.14-.5.379-.132.771-.22 1.17-.26a3.622 3.622 0 011.1 0c.355.046.699.162 1.01.34zm-1.25 2.28c.62-.38 1-.73 1.06-1.07.06-.34-.06-.61-.45-.83a2.395 2.395 0 00-1.45-.27 6.848 6.848 0 00-2.27.85l-.41.24c-.62.38-1 .74-1.06 1.07-.06.33.07.61.46.84.445.232.951.323 1.45.26a4.745 4.745 0 001.85-.61l.42-.24.4-.24zM332.63 357.55a4.08 4.08 0 011 0c.318.034.625.136.9.3a.995.995 0 01.54.62.92.92 0 01-.25.75 4 4 0 011.33-.11c.401.018.791.131 1.14.33.194.101.354.258.46.45a.7.7 0 010 .55c-.09.236-.234.449-.42.62a4.596 4.596 0 01-.94.68l-3.24 1.87a.399.399 0 01-.43 0l-.14-.09c-.12-.074-.1-.154.06-.24l3.13-1.81c.297-.157.573-.352.82-.58a1.09 1.09 0 00.33-.48.462.462 0 00-.06-.39 1.11 1.11 0 00-.34-.3 1.75 1.75 0 00-.48-.17 2.35 2.35 0 00-.67 0 3.712 3.712 0 00-.84.18c-.348.123-.683.28-1 .47l-3.06 1.8a.426.426 0 01-.43 0l-.14-.08c-.12-.07-.1-.15.06-.25l3.13-1.8c.294-.161.567-.359.81-.59.145-.131.255-.296.32-.48a.472.472 0 00-.05-.39 1 1 0 00-.33-.29 1.75 1.75 0 00-.48-.17 2.28 2.28 0 00-.66 0 3.507 3.507 0 00-.84.18c-.35.115-.685.269-1 .46l-3.14 1.82a.426.426 0 01-.43 0l-.14-.08c-.12-.07-.1-.15.06-.25l5.31-3.06a.4.4 0 01.43 0l.14.08c.12.07.1.16-.06.25l-.4.2zM336.11 365.65a1.191 1.191 0 01-.61-.65.995.995 0 01.08-.67l-2.64 1.52a.399.399 0 01-.43 0l-.14-.08c-.12-.08-.1-.16.06-.25l7.43-4.29a.4.4 0 01.43 0l.14.08c.12.07.1.15-.06.25l-.53.3c.39-.067.786-.083 1.18-.05.391.032.771.152 1.11.35.264.125.473.342.59.61a.808.808 0 01-.05.66 2.163 2.163 0 01-.54.67 7.272 7.272 0 01-.85.62l-.36.22-.38.2c-.348.19-.709.357-1.08.5a6.012 6.012 0 01-1.15.31c-.382.05-.768.05-1.15 0a2.717 2.717 0 01-1.05-.3zm2-2.78l-.45.24a4.653 4.653 0 00-.42.26 3.33 3.33 0 00-.59.44c-.157.133-.28.3-.36.49a.665.665 0 000 .5.832.832 0 00.42.44c.241.144.511.233.79.26.282.039.568.039.85 0 .302-.051.597-.135.88-.25.299-.11.589-.24.87-.39l.62-.36c.239-.149.467-.316.68-.5.172-.14.317-.31.43-.5a.678.678 0 00.05-.5.857.857 0 00-.44-.46 1.898 1.898 0 00-.79-.24 3.617 3.617 0 00-.87 0 4.292 4.292 0 00-.87.23 4.635 4.635 0 00-.79.34h-.01zM342 368.91c-.12-.074-.1-.154.06-.24l.53-.31a3.982 3.982 0 01-1.09.07 3.632 3.632 0 01-.62-.12 3.147 3.147 0 01-.66-.28 1.253 1.253 0 01-.44-.41.758.758 0 01-.13-.48c.024-.178.093-.346.2-.49a1.79 1.79 0 01.54-.45c.251-.142.52-.249.8-.32.284-.072.577-.109.87-.11a4.454 4.454 0 011.79.35l1.57.62.39-.23c.4-.234.62-.464.66-.69 0-.24-.13-.47-.53-.7a1.992 1.992 0 00-1-.28 2.543 2.543 0 00-.84.12c-.087.03-.178.05-.27.06a.327.327 0 01-.17 0l-.11-.07a.106.106 0 01-.05-.05.106.106 0 01-.01-.07s.05-.09.12-.13c.149-.079.307-.139.47-.18a4.163 4.163 0 011.6-.05c.307.054.601.162.87.32.261.128.483.325.64.57a.69.69 0 010 .56 1.269 1.269 0 01-.38.51 3.567 3.567 0 01-.61.44l-3.64 2.13a.399.399 0 01-.43 0l-.13-.09zm-1.05-1.22c.209.115.435.196.67.24.275.036.555.036.83 0 .322-.036.641-.103.95-.2a5.845 5.845 0 001-.47l.37-.22-1.27-.5a3.002 3.002 0 00-2.58-.12.993.993 0 00-.38.33.521.521 0 00-.09.33.562.562 0 00.15.31c.096.118.211.22.34.3h.01zM347.5 371.809a.4.4 0 01-.43 0l-.14-.08c-.12-.07-.1-.16.06-.25l3.11-1.8c.46-.205.84-.557 1.08-1 .12-.32 0-.61-.45-.85a2.38 2.38 0 00-1.46-.26 4.279 4.279 0 00-1.77.6l-3.11 1.8a.417.417 0 01-.43 0l-.14-.08c-.12-.07-.1-.15.06-.25l5.31-3.06a.399.399 0 01.43 0l.14.09c.12.067.1.147-.06.24l-.52.31a4.68 4.68 0 011.17-.06c.393.034.772.157 1.11.36.241.114.437.304.56.54a.796.796 0 010 .61 1.724 1.724 0 01-.47.64 4.648 4.648 0 01-.88.64l-3.17 1.86zM347.59 374.4a.603.603 0 01-.18 0 .295.295 0 01-.18-.05l-.17-.09a.098.098 0 01-.05-.11.238.238 0 01.11-.12l.27-.1 2.65-.78 3.42-3.82a.688.688 0 01.18-.16.586.586 0 01.2-.06.282.282 0 01.19 0l.17.1c.06 0 .08.07.08.1a.506.506 0 010 .11l-3 3.36 5.85-1.72h.18a.366.366 0 01.18 0l.17.1a.096.096 0 01.016.055.1.1 0 01-.016.055.197.197 0 01-.043.067.214.214 0 01-.067.043 1.01 1.01 0 01-.27.1l-9.69 2.92z"/>
    <path fill="#37474F" d="M381.13 362.31l-83.33-48.1a2.996 2.996 0 00-3.16-.35l-11.44 6.6 87.08 50.29 10.85-6.27a1.139 1.139 0 000-2.17z"/>
    <path fill="#fff" fill-opacity=".8" d="M296.42 318.18l.59-.33a.449.449 0 01.4 0c.1.05.07.16-.06.23l-.58.34a.47.47 0 01-.41 0c-.09-.06-.06-.16.06-.24zM297.21 318.64l1-.59a.434.434 0 01.4 0h.05c.1.05.07.15-.06.23l-1 .58a.449.449 0 01-.4 0h-.05c-.09-.05-.07-.15.06-.22zM298 319.089l1.44-.83a.457.457 0 01.41 0c.1.06.07.16-.05.23l-1.44.84a.497.497 0 01-.41 0c-.11-.06-.08-.17.05-.24zM298.78 319.54l2.48-1.43a.47.47 0 01.41 0c.1.06.07.16 0 .23l-2.49 1.44a.447.447 0 01-.4 0c-.15-.06-.13-.16 0-.24zM300.73 320.87l.06-.07.37-.21-.88-.5V320l.13-.08H300.58l2.24-.21a.139.139 0 01.09 0h.08l.12.07s.05.05.05.07c0 .02 0 0-.06.06l-1.28.74.2.11s.05 0 .05.06l-.07.07-.09.05a.186.186 0 01-.1.03.186.186 0 01-.1-.03l-.2-.11-.36.21h-.22l-.15-.08s-.05-.07-.05-.09zm.79-.42l.91-.53-1.54.16.63.37zM302 321.34c0-.21.22-.42.58-.63a2.297 2.297 0 011.1-.34c.35-.009.695.078 1 .25.109.063.21.141.3.23.068.063.12.142.15.23h-.05l-.24.05h-.06a.737.737 0 00-.33-.33 1.29 1.29 0 00-.7-.17 1.78 1.78 0 00-.81.26c-.28.16-.43.32-.45.46-.02.14.07.28.27.4.077.042.157.079.24.11l.23.06.59-.34-.36-.21s-.06 0-.05-.06c.01-.06 0 0 .06-.06h.09a.24.24 0 01.1 0h.11l.58.34s.06.05.05.07c-.01.02 0 .05-.07.08l-.85.49h-.16a2.21 2.21 0 01-.88-.3c-.32-.18-.44-.38-.44-.59zM375.884 361.426a.266.266 0 01.016.184.622.622 0 01-.31.36l-1.28.74a1.097 1.097 0 01-.95.08l-2.63-1.52a.309.309 0 01-.14-.16.22.22 0 010-.16.6.6 0 01.31-.36l1.28-.74a.998.998 0 01.94-.07l2.63 1.52a.261.261 0 01.134.126z"/>
    <path fill="#fff" fill-opacity=".8" d="M374.14 360.929l-1.51.87-1.42-.82h.05l1.15-.66a.617.617 0 01.54-.05l1.19.66zM375.71 362.049c.1.06 0 .23-.3.38l-.24.13c-.26.16-.56.24-.66.18l-.19-.09 1.21-.7.18.1zM307.21 324.14a1.142 1.142 0 01-1 0 .303.303 0 01-.155-.113.305.305 0 010-.364.308.308 0 01.155-.113 1.141 1.141 0 011 0c.062.02.117.06.155.113a.308.308 0 01-.155.477z"/>
    <path fill="#fff" fill-opacity=".8" d="M308.05 323.069a2.914 2.914 0 00-1.9-.27c-.14 0-.22.09-.2.17 0 .1.19.17.36.14.452-.087.92-.02 1.33.19.37.21.48.51.34.77-.06.1.06.2.23.21a.335.335 0 00.31-.11c.2-.38.04-.8-.47-1.1z"/>
    <path fill="#fff" fill-opacity=".8" d="M308.86 322.6a4.716 4.716 0 00-2.82-.48c-.15 0-.25.1-.23.18 0 .09.18.16.35.13a3.84 3.84 0 012.3.39c.63.36.85.87.67 1.33 0 .1.07.19.24.2a.313.313 0 00.31-.13c.22-.56-.05-1.22-.82-1.62zM334.7 340.409h-.18l-.13-.08a.067.067 0 01-.02-.021.073.073 0 01-.007-.029c0-.01.003-.019.007-.028a.07.07 0 01.02-.022l1.75-1-.9-.07h-.09a.053.053 0 01-.005-.025c0-.008.001-.017.005-.025v-.1l.05-.05a.127.127 0 01.09 0l1.2.09H336.61l.13.08a.072.072 0 010 .05l-2.04 1.23zM336.92 341.79v-.05a.059.059 0 01-.007-.025c0-.009.003-.018.007-.025l.43-.25-1-.58a.072.072 0 010-.05v-.05l.11-.06h.16l2.31-.18h.2l.12.07v.05a.052.052 0 01.007.025.059.059 0 01-.007.025l-1.32.76.27.16a.052.052 0 01.007.025.059.059 0 01-.007.025l-.11.07H337.92l-.27-.16-.44.25a.139.139 0 01-.09 0 .11.11 0 01-.08 0l-.12-.03zm.72-.52l.89-.51-1.58.11.69.4zM338.55 342.109a.44.44 0 00-.05.09.111.111 0 000 .1.235.235 0 00.09.12.861.861 0 00.22.16c.062.04.129.071.2.09a.941.941 0 00.24.05.81.81 0 00.22 0 .527.527 0 00.22-.08.34.34 0 00.14-.12.15.15 0 000-.13.322.322 0 00-.09-.12l-.17-.13-.27-.15a.052.052 0 01-.007-.025c0-.008.003-.017.007-.025v-.05l.12-.06h1.33l-.92-.53a.067.067 0 01-.02-.021.073.073 0 01-.007-.029c0-.01.003-.019.007-.028a.07.07 0 01.02-.022l.12-.06a.11.11 0 01.08 0h.09l1.25.72a.059.059 0 01.007.025.052.052 0 01-.007.025l-.12.07H339.92c.093.045.175.11.24.19a.408.408 0 01.1.21.27.27 0 01-.06.2.684.684 0 01-.22.18.994.994 0 01-.35.13 1.154 1.154 0 01-.38 0 1.727 1.727 0 01-.74-.22 1.231 1.231 0 01-.32-.24.39.39 0 01-.12-.22.308.308 0 010-.19.536.536 0 01.15-.15h.14l.15.09s.06.14.04.15z"/>
    <path fill="#455A64" d="M298.25 321.74l69.64 40.2c1.14.66 1.2 1.71.13 2.35a4.4 4.4 0 01-4-.05L294.37 324c-1.14-.66-1.2-1.7-.13-2.32a4.45 4.45 0 014.01.06z"/>
    <path fill="#7B77F5" d="M299.9 354.21l-7.51 4.34a1.262 1.262 0 00-.623 1.931c.154.215.372.375.623.459l7.51 4.33a4.583 4.583 0 004.14 0l7.51-4.33a1.262 1.262 0 00.623-1.931 1.255 1.255 0 00-.623-.459l-7.55-4.34a4.571 4.571 0 00-2.05-.484c-.712 0-1.414.165-2.05.484z"/>
    <path fill="#fff" fill-opacity=".8" d="M305.78 362.59l1.11-.65c.07 0 .07-.1 0-.15l-.88-.64a.116.116 0 01-.034-.039.102.102 0 01-.013-.051c0-.018.004-.035.013-.051a2.603 2.603 0 00.354-.479.287.287 0 01.2-.13l1.49-.09a.153.153 0 00.093-.05.155.155 0 00.037-.1v-.83a.141.141 0 00-.034-.102.158.158 0 00-.043-.034.144.144 0 00-.053-.014l-1.49-.09a.276.276 0 01-.117-.046.288.288 0 01-.083-.094 2.563 2.563 0 00-.354-.479.102.102 0 01-.013-.051c0-.018.004-.035.013-.051a.116.116 0 01.034-.039l.88-.64a.084.084 0 00.038-.029.086.086 0 00.014-.046.086.086 0 00-.014-.046.084.084 0 00-.038-.029l-1.11-.64a.315.315 0 00-.25 0l-1.13.52a.46.46 0 01-.26 0 6.327 6.327 0 00-.88-.21.187.187 0 01-.106-.054.187.187 0 01-.054-.106l-.15-.75a.161.161 0 00-.16-.13h-1.64a.181.181 0 00-.17.13l-.14.75a.202.202 0 01-.055.105.202.202 0 01-.105.055 6.055 6.055 0 00-.88.21.46.46 0 01-.26 0l-1.13-.52a.315.315 0 00-.25 0l-1.12.64a.092.092 0 00-.03.032.09.09 0 00-.01.043.087.087 0 00.04.075l.89.64a.112.112 0 01.03.041.117.117 0 01-.03.139 2.1 2.1 0 00-.32.44.287.287 0 01-.2.14l-1.49.09a.147.147 0 00-.14.15v.83c0 .038.014.075.04.103a.157.157 0 00.1.047l1.49.09a.308.308 0 01.2.13c.087.16.195.307.32.44a.112.112 0 01.03.041.117.117 0 01-.03.139l-.89.64a.092.092 0 00-.03.032.09.09 0 00-.01.043.087.087 0 00.04.075l1.12.65a.315.315 0 00.25 0l1.13-.53a.46.46 0 01.26 0c.288.092.582.162.88.21.04.007.076.027.105.055a.202.202 0 01.055.105l.14.74a.181.181 0 00.17.14h1.64a.159.159 0 00.16-.14l.15-.74a.187.187 0 01.054-.106.187.187 0 01.106-.054c.298-.049.592-.119.88-.21a.46.46 0 01.26 0l1.13.53a.315.315 0 00.25 0zm-5.7-1.76a1.147 1.147 0 01-.783-1.09 1.145 1.145 0 01.783-1.09 4.17 4.17 0 013.77 0c1 .61 1 1.58 0 2.18a4.17 4.17 0 01-3.77 0z"/>
    <path fill="#7B77F5" d="M280.46 342.999l-7.46 4.35a1.261 1.261 0 000 2.39l7.51 4.34a4.584 4.584 0 004.14 0l7.51-4.34a1.253 1.253 0 00.861-1.195 1.264 1.264 0 00-.861-1.195l-7.56-4.35a4.583 4.583 0 00-4.14 0z"/>
    <path fill="#fff" fill-opacity=".8" d="M281.21 349.309l-.96-.56-2.36 1.37-1.78-1.03 3.81-2.2-1.05-.6 7.59-.01-.02 4.38-1.05-.6-3.81 2.19-1.77-1.02 2.36-1.37-.96-.55z"/>
    <path fill="#7B77F5" d="M319.3 365.43l-7.51 4.33a1.262 1.262 0 00-.623 1.931c.154.215.372.375.623.459l7.51 4.34a4.583 4.583 0 004.14 0l7.51-4.34a1.262 1.262 0 00.623-1.931 1.255 1.255 0 00-.623-.459l-7.51-4.33a4.583 4.583 0 00-4.14 0z"/>
    <path fill="#fff" fill-opacity=".8" d="M328.25 372.049a.233.233 0 00-.04-.086.267.267 0 00-.07-.064l-7.88-4.54a.597.597 0 00-.35-.06l.76 4.36 7.58.39zM319.9 367.3a.643.643 0 00-.24.06l-5.66 3.25a.235.235 0 00-.12.16l6.06.31-.04-3.78z"/>
    <path fill="#fff" fill-opacity=".8" d="M328.25 372.049h-6.42l.35 3.52-.78-3.52h-1a.463.463 0 01-.332-.137.461.461 0 01-.138-.333v-.2l-6.06-.64c0 .04.011.079.032.113.022.033.052.06.088.077l7.88 4.56a.715.715 0 00.61 0l5.65-3.27a.173.173 0 00.087-.066.174.174 0 00.033-.104zM319.9 367.29v.01h.01l-.01-.01z"/>
    <path fill="#7B77F5" d="M231.44 360.299l20.89-12.06 31.34 18.09-20.89 12.07-31.34-18.1z"/>
    <path fill="#fff" fill-opacity=".8" d="M231.44 360.299l20.89-12.06 31.34 18.09-20.89 12.07-31.34-18.1z" opacity=".8"/>
    <path fill="#7B77F5" d="M268.68 364.589a1.165 1.165 0 00-.777 1.095 1.164 1.164 0 00.777 1.095 4.191 4.191 0 003.78 0 1.157 1.157 0 00.777-1.095 1.161 1.161 0 00-.777-1.095 4.19 4.19 0 00-3.78 0zM231.44 360.299l7.83-4.52 15.83 1.97.15 12.93.88-4.88 8.39 1.44.44 9.9-2.18 1.26-31.34-18.1z"/>
    <path fill="#455A64" d="M290.29 370.149l20.72 12c.77.44.81 1.14.09 1.56a2.989 2.989 0 01-2.7-.05l-20.72-12c-.77-.44-.81-1.14-.09-1.56a3.002 3.002 0 012.7.05z"/>
    <path fill="#E0E0E0" d="M284.51 372.85l31.17 18c.46.27.54.65.18.86a1.688 1.688 0 01-1.49-.1l-31.17-18c-.46-.26-.54-.65-.18-.86a1.663 1.663 0 011.49.1zM281.9 374.36l31.16 18c.46.27.55.65.19.86a1.702 1.702 0 01-1.49-.1l-31.17-18c-.46-.27-.54-.65-.18-.86a1.65 1.65 0 011.49.1zM279.28 375.86l31.17 18c.46.27.55.65.18.86a1.645 1.645 0 01-1.48-.11l-31.17-18c-.46-.27-.54-.65-.18-.86a1.671 1.671 0 011.48.11zM276.67 377.37L287 383.3c.47.26.55.65.19.86a1.666 1.666 0 01-1.49-.11l-10.28-5.92c-.46-.27-.55-.66-.18-.86a1.668 1.668 0 011.43.1z"/>
    <path fill="#7B77F5" d="M269.39 380.61l1.14-.65a2.992 2.992 0 012.78 0l7.67 4.42a.854.854 0 01.577.805.856.856 0 01-.577.805l-1.14.65a3.004 3.004 0 01-2.78 0l-7.67-4.42a.856.856 0 01-.577-.805.854.854 0 01.577-.805zM294.34 393.47a.805.805 0 01.535.755.8.8 0 01-.535.755 2.861 2.861 0 01-2.61 0 .805.805 0 01-.535-.755.799.799 0 01.535-.755 2.912 2.912 0 012.61 0zM297 395.92c.369-.008.734.078 1.06.25.21.12.29.25.29.32s-.08.19-.29.32a2.266 2.266 0 01-1.06.24 2.118 2.118 0 01-1.05-.24c-.22-.12-.3-.25-.3-.32s.08-.2.3-.32a2.122 2.122 0 011.05-.25zm0-.5a2.748 2.748 0 00-1.3.31c-.73.42-.73 1.1 0 1.51.399.214.847.32 1.3.31.456.01.907-.096 1.31-.31a.8.8 0 000-1.51 2.79 2.79 0 00-1.31-.31zM300.87 398.18c.366-.009.727.077 1.05.25.22.12.3.25.3.32s-.08.2-.3.32a2.112 2.112 0 01-1.05.25 2.15 2.15 0 01-1.06-.25c-.21-.12-.29-.25-.29-.32s.08-.2.29-.32a2.16 2.16 0 011.06-.25zm0-.5a2.671 2.671 0 00-1.31.32.789.789 0 000 1.5c.402.217.853.327 1.31.32.454.007.901-.103 1.3-.32a.789.789 0 000-1.5 2.634 2.634 0 00-1.3-.32zM219.76 363.85l75.18 43.41c.69.39.69 1 0 1.43l-5.28 3.05a2.734 2.734 0 01-2.49 0L212 368.34a.761.761 0 010-1.44l5.28-3a2.765 2.765 0 012.48-.05z"/>
    <path fill="#fff" fill-opacity=".8" d="M219.76 363.85l75.18 43.41c.69.39.69 1 0 1.43l-5.28 3.05a2.734 2.734 0 01-2.49 0L212 368.34a.761.761 0 010-1.44l5.28-3a2.765 2.765 0 012.48-.05z" opacity=".6"/>
    <path fill="#fff" fill-opacity=".8" d="M286.09 409.32c-1-.56-.7-1.61.58-2.35a4.56 4.56 0 014.07-.34c1 .56.7 1.61-.58 2.35a4.631 4.631 0 01-4.07.34zm4.2-2.43a3.687 3.687 0 00-3.28.27c-1 .6-1.25 1.45-.47 1.9a3.746 3.746 0 003.29-.27c1.03-.6 1.24-1.45.46-1.9z"/>
    <path fill="#fff" fill-opacity=".8" d="M289 408.55l-1.73-1c-.1-.05-.07-.15.05-.23a.478.478 0 01.4 0l1.73 1c.09.06.07.16-.06.23a.414.414 0 01-.39 0z"/>
    <path fill="#fff" fill-opacity=".8" d="M287.21 408.63a.09.09 0 010-.12.404.404 0 01.35-.17h1.51v-.87c0-.09.13-.18.29-.2.16-.02.27 0 .27.11v1.08a.183.183 0 01-.039.082.2.2 0 01-.071.058.663.663 0 01-.24.06h-1.86a.339.339 0 01-.21-.03zM216.63 366.53a1.145 1.145 0 00-.783 1.09 1.15 1.15 0 00.783 1.09 4.165 4.165 0 003.78 0 1.153 1.153 0 00.567-1.762 1.145 1.145 0 00-.567-.418 4.179 4.179 0 00-3.78 0zM224.91 370l52.69 30.42c.78.45.92 1.1.31 1.45a2.808 2.808 0 01-2.52-.17l-52.69-30.41c-.78-.45-.91-1.1-.3-1.46a2.81 2.81 0 011.275-.21c.436.029.858.159 1.235.38z"/>
    <path fill="#7B77F5" d="M208.12 370.579l75.17 43.42a.761.761 0 010 1.44l-5.29 3.03a2.768 2.768 0 01-2.48 0l-75.18-43.41c-.69-.39-.69-1 0-1.43l5.28-3.05a2.732 2.732 0 012.5 0z"/>
    <path fill="#fff" fill-opacity=".8" d="M274.44 416c-1-.55-.7-1.61.58-2.35a4.578 4.578 0 014.07-.33c1 .55.71 1.61-.58 2.35a4.59 4.59 0 01-4.07.33zm4.21-2.43a3.748 3.748 0 00-3.29.28c-1 .59-1.25 1.45-.47 1.89a3.727 3.727 0 003.29-.27c1.03-.56 1.24-1.41.47-1.86v-.04z"/>
    <path fill="#fff" fill-opacity=".8" d="M277.32 415.28l-1.73-1c-.09-.06-.07-.16.05-.23a.434.434 0 01.4 0l1.73 1c.1.05.07.16 0 .23a.478.478 0 01-.45 0z"/>
    <path fill="#fff" fill-opacity=".8" d="M275.56 415.36a.098.098 0 01-.051-.055.098.098 0 01.001-.075.416.416 0 01.35-.16h1.51v-.88c0-.08.13-.17.29-.19.16-.02.28 0 .27.11v1.07s0 .1-.11.14a.671.671 0 01-.24.07h-1.86a.327.327 0 01-.16-.03zM205 373.25a1.16 1.16 0 000 2.19 4.19 4.19 0 003.78 0 1.147 1.147 0 00.783-1.09 1.145 1.145 0 00-.783-1.09 4.166 4.166 0 00-3.78-.01zM213.3 376.759l52.7 30.42c.78.45.92 1.1.31 1.45a2.816 2.816 0 01-2.51-.18l-52.71-30.45c-.78-.45-.92-1.1-.31-1.45a2.847 2.847 0 012.52.21z"/>
    <path fill="#7B77F5" d="M196.47 377.31l75.18 43.4a.76.76 0 010 1.43l-5.29 3.05a2.717 2.717 0 01-2.48 0l-75.18-43.4a.761.761 0 010-1.44l5.29-3a2.704 2.704 0 012.48-.04z"/>
    <path fill="#000" d="M196.47 377.31l75.18 43.4a.76.76 0 010 1.43l-5.29 3.05a2.717 2.717 0 01-2.48 0l-75.18-43.4a.761.761 0 010-1.44l5.29-3a2.704 2.704 0 012.48-.04z" opacity=".35"/>
    <path fill="#fff" fill-opacity=".8" d="M262.79 422.769c-1-.56-.7-1.61.58-2.35a4.625 4.625 0 014.08-.34c1 .56.7 1.61-.58 2.35a4.64 4.64 0 01-4.08.34zm4.21-2.43a3.72 3.72 0 00-3.29.27c-1 .6-1.25 1.45-.47 1.9a3.708 3.708 0 003.29-.27c1.03-.6 1.25-1.45.47-1.9z"/>
    <path fill="#fff" fill-opacity=".8" d="M265.68 421.999l-1.74-1c-.09-.05-.07-.15.06-.22a.425.425 0 01.39 0l1.73 1c.1.05.07.15-.05.22a.414.414 0 01-.39 0z"/>
    <path fill="#fff" fill-opacity=".8" d="M263.91 422.08c-.05 0-.07-.07 0-.12a.387.387 0 01.34-.17h1.51v-.87c0-.09.13-.18.28-.2.15-.02.28 0 .28.12l-.05 1.07c0 .05 0 .1-.11.14a.489.489 0 01-.24.06h-1.86a.244.244 0 01-.15-.03zM193.34 379.999a1.153 1.153 0 00-.783 1.09 1.145 1.145 0 00.783 1.09 4.131 4.131 0 003.78 0 1.145 1.145 0 00.567-1.761 1.153 1.153 0 00-.567-.419 4.19 4.19 0 00-3.78 0zM201.68 383.499l52.69 30.42c.78.45.92 1.1.31 1.46a2.835 2.835 0 01-2.52-.18l-52.69-30.42c-.78-.45-.91-1.1-.31-1.46a2.835 2.835 0 012.52.18z"/>
    <g>
      <path fill="#37474F" d="M198.9 295.771l-54.21 31.32-.13-.07-20.56-11.9a11.12 11.12 0 01-5-10.94l7.64-39.73 54.21-31.32-7.64 39.73a11.097 11.097 0 005 10.94l20.69 11.97z"/>
      <path fill="#263238" d="M126.61 264.45l-7.58 39.39 54.21-31.29 7.01-36.43-3.42-.68-50.22 29.01z"/>
      <path fill="#263238" d="M144.69 327.09l-20.73-12a11.144 11.144 0 01-5-10.93l7.65-39.74-9-5.22-8.74 45.46c-1.15 6 2.24 13.43 7.54 16.49l28.32 16.35-.04-10.41z"/>
      <path fill="#455A64" d="M198.9 295.771l-54.21 31.32v10.44l54.21-31.32v-10.44zM251.93 38.33a10.348 10.348 0 014.52 8.17v166.34a10.663 10.663 0 01-4.82 8.35L44.28 340.9a10.29 10.29 0 01-9.34.17 10.346 10.346 0 01-4.52-8.17V166.56a10.663 10.663 0 014.82-8.35L242.59 38.5a10.297 10.297 0 019.34-.17z"/>
      <path fill="#263238" d="M43.71 341.191a10.365 10.365 0 01-8.77-.12 10.303 10.303 0 01-4.52-8.17v-166.34a9.764 9.764 0 011.42-4.75l9 5.22a9.868 9.868 0 00-1.42 4.74v166.35c.04 2.88 1.9 4.13 4.29 3.07z"/>
      <path fill="#37474F" d="M256.45 212.84V46.5c0-3.07-2.16-4.32-4.82-2.78L44.29 163.43a10.636 10.636 0 00-4.82 8.35v166.34c0 3.07 2.16 4.32 4.82 2.78l207.34-119.71a10.651 10.651 0 004.82-8.35z"/>
      <path fill="#7B77F5" d="M245.86 52.21L47.84 166.6a8.48 8.48 0 00-3.84 6.67V321c0 2.46 1.72 3.46 3.85 2.23l198-114.39a8.545 8.545 0 003.85-6.67V54.44c.02-2.44-1.7-3.44-3.84-2.23z"/>
      <path fill="#000" d="M245.86 52.21L47.84 166.6a8.48 8.48 0 00-3.84 6.67V321c0 2.46 1.72 3.46 3.85 2.23l198-114.39a8.545 8.545 0 003.85-6.67V54.44c.02-2.44-1.7-3.44-3.84-2.23z" opacity=".45"/>
      <path fill="#fff" fill-opacity=".8" d="M51.38 308.59c0 2.54 1.79 3.57 4 2.3l183-105.64a8.82 8.82 0 004-6.91V75.17l-191 110.25v123.17z"/>
      <path fill="#E0E0E0" d="M241.33 76.9v121.44a7.857 7.857 0 01-3.49 6L54.87 310c-.384.246-.825.39-1.28.42-1.09 0-1.21-1.3-1.21-1.85V186l189-109.09-.05-.01zm1.05-1.72l-191 110.25v123.16c0 1.8.9 2.85 2.21 2.85a3.638 3.638 0 001.78-.55l183-105.64a8.82 8.82 0 004-6.91V75.17l.01.01z"/>
      <path fill="#37474F" d="M51.38 177.06a8.826 8.826 0 014-6.92l183-105.63c2.2-1.28 4-.24 4 2.3v8.36l-191 110.25v-8.36z"/>
      <path fill="#7B77F5" d="M219.86 79.48a4.163 4.163 0 00-1.86 3.25c0 1.19.84 1.68 1.87 1.08a4.128 4.128 0 001.87-3.24c-.01-1.2-.84-1.68-1.88-1.09zM226.41 75.71a4.15 4.15 0 00-1.87 3.29c0 1.2.84 1.68 1.87 1.09a4.147 4.147 0 001.88-3.25c0-1.24-.84-1.73-1.88-1.13zM233 71.94a4.132 4.132 0 00-1.88 3.24c0 1.2.84 1.68 1.88 1.08a4.147 4.147 0 001.84-3.26c0-1.17-.84-1.66-1.84-1.06zM75.07 185.131c0 2.47 1.74 3.48 3.88 2.24a8.583 8.583 0 003.89-6.73c0-2.47-1.74-3.48-3.89-2.24a8.593 8.593 0 00-3.88 6.73z"/>
      <path fill="#fff" fill-opacity=".8" d="M79.32 182.081c0 .72.5 1 1.13.65a2.5 2.5 0 001.12-2c0-.72-.5-1-1.12-.65a2.49 2.49 0 00-1.13 2z"/>
      <path fill="#455A64" d="M91.36 178.64a.123.123 0 01.08-.03c.03 0 .058.011.08.03a.281.281 0 01.06.2v.92a.707.707 0 01-.06.28.48.48 0 01-.16.2l-3.67 2.11a.11.11 0 01-.075.03.11.11 0 01-.075-.03.248.248 0 01-.07-.21v-8.31c0-.101.023-.2.07-.29a.383.383 0 01.15-.19l.68-.39a.123.123 0 01.08-.03c.03 0 .058.011.08.03a.24.24 0 01.07.2v7.06l2.76-1.58zM94.23 171.771c.246-.165.534-.255.83-.26a.997.997 0 01.64.23c.199.176.35.4.44.65.118.32.179.658.18 1 .006.096.006.193 0 .29v.71c.006.1.006.2 0 .3-.02.412-.083.821-.19 1.22a5.59 5.59 0 01-.43 1.14c-.17.359-.385.695-.64 1a3.42 3.42 0 01-.83.7 1.692 1.692 0 01-.84.26c-.234 0-.46-.081-.64-.23-.2-.169-.35-.391-.43-.64a3.23 3.23 0 01-.19-1v-1-.3c.015-.413.079-.822.19-1.22.103-.397.247-.783.43-1.15.174-.357.388-.693.64-1 .236-.282.52-.519.84-.7zm1 2.31a1.888 1.888 0 00-.12-.59.567.567 0 00-.24-.28.47.47 0 00-.31 0 1.2 1.2 0 00-.34.14 1.814 1.814 0 00-.66.65 3.112 3.112 0 00-.24.55c-.064.242-.104.49-.12.74V176.451c.01.201.05.4.12.59.05.115.134.213.24.28.1.039.21.039.31 0 .124-.027.242-.074.35-.14.27-.152.494-.373.65-.64.097-.179.178-.366.24-.56.064-.239.104-.484.12-.73v-.91c.02-.11.01-.2.01-.26h-.01zM99.32 170.501a1.647 1.647 0 00-.72.76 2.89 2.89 0 00-.23 1.24v3.35a.711.711 0 01-.06.28.48.48 0 01-.16.2l-.64.36a.123.123 0 01-.08.03.123.123 0 01-.08-.03.281.281 0 01-.06-.2v-6c0-.1.02-.198.06-.29a.45.45 0 01.16-.19l.64-.37a.13.13 0 01.16 0 .31.31 0 01.06.21v.29c.131-.262.288-.51.47-.74.177-.223.398-.407.65-.54l.37-.22a.13.13 0 01.16 0 .282.282 0 01.058.097c.012.037.016.075.012.113v.85a.57.57 0 01-.07.28.421.421 0 01-.16.2l-.54.32zM100.5 171.621c.002-.484.049-.966.14-1.44.085-.461.223-.911.41-1.34.166-.401.385-.777.65-1.12.23-.308.519-.566.85-.76a1.35 1.35 0 01.84-.22c.25.024.483.142.65.33.199.231.343.504.42.8.096.382.143.775.14 1.17v.58a.764.764 0 01-.06.29.454.454 0 01-.16.19l-2.8 1.61c-.005.163.022.326.08.48a.586.586 0 00.22.26c.094.052.204.07.31.05.126-.025.248-.068.36-.13.168-.1.32-.224.45-.37.105-.118.199-.245.28-.38.043-.079.093-.152.15-.22a.42.42 0 01.16-.13l.67-.39a.118.118 0 01.16 0 .223.223 0 01.06.21 1.87 1.87 0 01-.13.53 4.348 4.348 0 01-.36.77 5.388 5.388 0 01-.6.81 3.86 3.86 0 01-.82.67c-.254.159-.55.24-.85.23a.924.924 0 01-.65-.34 2 2 0 01-.41-.86 5.643 5.643 0 01-.16-1.28zm2-3.11a1.415 1.415 0 00-.42.35 2.56 2.56 0 00-.29.45c-.07.159-.13.323-.18.49a4.235 4.235 0 00-.08.45l1.89-1.09a2.196 2.196 0 00-.06-.37.607.607 0 00-.15-.3.378.378 0 00-.27-.13.813.813 0 00-.39.15h-.05zM106.6 165.391c.127-.303.291-.589.49-.85.16-.217.361-.4.59-.54a1.117 1.117 0 01.86-.2.993.993 0 01.53.49c.071-.215.162-.422.27-.62.099-.189.213-.369.34-.54.11-.154.234-.298.37-.43.115-.107.239-.204.37-.29.235-.16.517-.234.8-.21a.772.772 0 01.51.36 2 2 0 01.28.8c.054.367.081.738.08 1.11v3.46a.573.573 0 01-.07.28.424.424 0 01-.16.2l-.63.36a.112.112 0 01-.16 0 .248.248 0 01-.07-.2v-3.4a1.739 1.739 0 00-.22-1.1c-.14-.15-.35-.14-.61 0a1.56 1.56 0 00-.57.66 3.267 3.267 0 00-.26 1.32v3.46a.764.764 0 01-.06.29.448.448 0 01-.16.19l-.64.37a.135.135 0 01-.08.027.135.135 0 01-.08-.027.31.31 0 01-.06-.21v-3.4a1.81 1.81 0 00-.22-1.1c-.14-.14-.35-.14-.61 0-.26.167-.465.407-.59.69-.179.43-.261.894-.24 1.36v3.4a.715.715 0 01-.06.28.482.482 0 01-.16.2l-.64.36a.122.122 0 01-.16 0 .278.278 0 01-.07-.2v-6a.763.763 0 01.07-.29.448.448 0 01.16-.19l.64-.37a.118.118 0 01.16 0 .287.287 0 01.06.21v.29zM115.61 160.66v2.16c-.071.653.096 1.31.47 1.85.3.27.7.25 1.22 0 .222-.127.427-.281.61-.46.195-.178.363-.384.5-.61.151-.258.272-.533.36-.82.111-.355.188-.72.23-1.09.012-.089.036-.176.07-.26a.29.29 0 01.12-.12l.16-.1h.13c.03 0 .06.08 0 .16a5.901 5.901 0 01-.14 1 5.967 5.967 0 01-.39 1.12 5.106 5.106 0 01-.69 1.07c-.281.34-.62.627-1 .85a1.771 1.771 0 01-1 .3.996.996 0 01-.68-.33 2.08 2.08 0 01-.41-.87 6.141 6.141 0 01-.15-1.31v-1.12-1.17a8.98 8.98 0 01.15-1.48c.085-.46.223-.91.41-1.34.173-.403.402-.78.68-1.12.277-.338.617-.62 1-.83a1.834 1.834 0 011-.32c.256-.001.503.095.69.27.182.189.316.419.39.67.082.283.129.576.14.87a.315.315 0 010 .21.278.278 0 01-.13.15l-.16.1h-.12c-.03 0 0-.08-.07-.18a2.606 2.606 0 00-.23-.82.843.843 0 00-.36-.4.704.704 0 00-.5-.05c-.214.06-.419.147-.61.26a3.074 3.074 0 00-1.22 1.36 5.923 5.923 0 00-.47 2.4zM122.31 155.55c.234-.154.51-.234.79-.23a.84.84 0 01.57.29c.177.211.3.462.36.73.084.354.127.717.13 1.08-.005.08-.005.161 0 .24v.6c-.004.08-.004.161 0 .24a7.357 7.357 0 01-.13 1.24c-.079.389-.2.768-.36 1.13a3.918 3.918 0 01-.57.95 2.979 2.979 0 01-.79.69 1.419 1.419 0 01-.8.23.787.787 0 01-.57-.29 1.73 1.73 0 01-.36-.72 4.441 4.441 0 01-.13-1.09v-.23-.3a3.002 3.002 0 010-.3v-.25c.003-.413.047-.825.13-1.23.079-.391.2-.773.36-1.14.144-.342.336-.661.57-.95a3.11 3.11 0 01.8-.69zm1.34 2.23a2.108 2.108 0 00-.39-1.46.73.73 0 00-1 0c-.44.263-.789.653-1 1.12a4.92 4.92 0 00-.39 1.91v.95a2.216 2.216 0 00.39 1.46.726.726 0 001 0 2.48 2.48 0 001-1.12 4.563 4.563 0 00.39-1.91v-.48c0-.19.01-.35 0-.47zM125.83 154.381c.124-.326.289-.635.49-.92a2.21 2.21 0 01.7-.63 1.004 1.004 0 01.81-.16.992.992 0 01.53.6c.124-.432.317-.84.57-1.21.215-.337.506-.618.85-.82.185-.119.4-.181.62-.18a.696.696 0 01.49.24c.161.198.274.431.33.68.097.375.141.762.13 1.15v3.75a.436.436 0 01-.19.39l-.14.08c-.12.066-.18.006-.18-.18v-3.62a3.735 3.735 0 00-.1-1 1.082 1.082 0 00-.25-.53.406.406 0 00-.163-.114.402.402 0 00-.197-.026 1.059 1.059 0 00-.43.14 1.923 1.923 0 00-.39.33 2.422 2.422 0 00-.36.56 3.405 3.405 0 00-.26.82 5.23 5.23 0 00-.1 1.11v3.62a.42.42 0 01-.19.39l-.14.08c-.12.066-.18.006-.18-.18v-3.61a4.303 4.303 0 00-.1-1 1.315 1.315 0 00-.26-.52.471.471 0 00-.37-.14.987.987 0 00-.41.14 1.58 1.58 0 00-.39.32 2.506 2.506 0 00-.36.57 3.33 3.33 0 00-.26.81c-.073.362-.107.73-.1 1.1v3.63a.401.401 0 01-.19.39l-.14.08c-.12.07-.18 0-.18-.17v-6.13a.41.41 0 01.18-.39l.14-.08c.13-.07.19 0 .19.17v.46zM134.58 155.42a1.134 1.134 0 01-.86.2.996.996 0 01-.54-.41v3a.398.398 0 01-.19.39l-.14.09c-.12.067-.18.007-.18-.18V150a.438.438 0 01.18-.4l.14-.08c.13-.07.19 0 .19.18v.61c.138-.37.319-.722.54-1.05.224-.322.518-.588.86-.78.241-.17.537-.245.83-.21a.85.85 0 01.54.37c.158.246.263.522.31.81.062.33.099.665.11 1v.85c-.012.396-.049.79-.11 1.18a5.534 5.534 0 01-.31 1.16 4.433 4.433 0 01-.54 1c-.217.317-.5.583-.83.78zm-1.4-3.13v1c0 .246.027.491.08.73.045.202.13.392.25.56a.73.73 0 00.42.27.814.814 0 00.6-.15c.244-.136.456-.323.62-.55.165-.232.299-.484.4-.75.106-.287.18-.586.22-.89.05-.314.08-.631.09-.95v-.72a5.152 5.152 0 00-.09-.83 1.67 1.67 0 00-.22-.63.672.672 0 00-.4-.29.886.886 0 00-.62.15c-.24.142-.448.333-.61.56-.17.238-.308.497-.41.77-.106.283-.19.574-.25.87a5.16 5.16 0 00-.08.85zM140.35 152.001c-.12.066-.18.006-.18-.18v-.6c-.057.16-.124.317-.2.47a3.45 3.45 0 01-.29.49 3.296 3.296 0 01-1 .91c-.175.108-.375.17-.58.18a.767.767 0 01-.47-.13.893.893 0 01-.33-.42 1.715 1.715 0 01-.12-.69c0-.288.04-.574.12-.85.084-.282.198-.553.34-.81.152-.262.326-.509.52-.74a5.88 5.88 0 01.68-.64l1.32-1v-.45a1.211 1.211 0 00-.27-.93c-.18-.147-.47-.107-.87.12a2 2 0 00-.72.69 2.25 2.25 0 00-.32.78 1.15 1.15 0 01-.08.26.274.274 0 01-.13.13l-.11.07a.102.102 0 01-.065.024.102.102 0 01-.065-.024.23.23 0 01-.06-.17 2.02 2.02 0 01.09-.5c.06-.238.151-.466.27-.68.127-.261.288-.503.48-.72.196-.244.437-.448.71-.6.243-.164.527-.258.82-.27a.681.681 0 01.5.25 1.3 1.3 0 01.26.58c.044.244.067.492.07.74v4.29a.4.4 0 01-.19.39l-.13.03zm-1.58.29c.205-.121.388-.277.54-.46.182-.212.333-.447.45-.7.137-.294.238-.603.3-.92.075-.369.112-.744.11-1.12v-.43l-1.08.85a2.943 2.943 0 00-1.39 2.17.937.937 0 00.1.49.53.53 0 00.24.25.596.596 0 00.35 0c.137-.032.266-.089.38-.17v.04zM145.62 148.63a.406.406 0 01-.18.39l-.15.09c-.12.067-.18.007-.18-.18v-3.59c.05-.5-.066-1.002-.33-1.43-.21-.27-.53-.28-.95 0a2.438 2.438 0 00-1 1.14 4.329 4.329 0 00-.36 1.83v3.59a.406.406 0 01-.18.39l-.15.08c-.12.07-.18 0-.18-.17v-6.17a.406.406 0 01.18-.39l.15-.08c.12-.08.18 0 .18.17v.61c.143-.352.324-.688.54-1 .224-.322.518-.588.86-.78.22-.151.484-.225.75-.21a.734.734 0 01.53.3c.161.212.27.458.32.72.076.358.113.724.11 1.09l.04 3.6zM147.9 149.85a1.267 1.267 0 01-.06.18.404.404 0 01-.13.13l-.17.09a.091.091 0 01-.024.02.082.082 0 01-.031.007.082.082 0 01-.031-.007.091.091 0 01-.024-.02.171.171 0 01-.05-.15 1.16 1.16 0 01.05-.28l.64-2.69-1.6-4.87a1.21 1.21 0 01-.05-.23.526.526 0 01.05-.21.497.497 0 01.12-.15l.18-.1h.12a.214.214 0 01.07.09l1.4 4.29 1.44-5.95a.87.87 0 01.07-.17.301.301 0 01.12-.13l.17-.1a.098.098 0 01.06-.02c.022 0 .043.007.06.02a.206.206 0 01.05.15 2.342 2.342 0 01-.05.29l-2.38 9.81z"/>
      <path fill="#7B77F5" d="M187.67 118.001v8.67c0 1.32.93 1.85 2.07 1.19l7.51-4.33a4.566 4.566 0 002.07-3.59v-8.67c0-1.32-.92-1.85-2.07-1.19l-7.51 4.33a4.582 4.582 0 00-2.07 3.59z"/>
      <path fill="#fff" fill-opacity=".8" d="M197.87 117.111v-1.29a.083.083 0 00-.012-.044.095.095 0 00-.074-.046.098.098 0 00-.044.01l-1 .45a.117.117 0 01-.052.012.131.131 0 01-.052-.011.114.114 0 01-.042-.033.115.115 0 01-.024-.048 2.423 2.423 0 00-.22-.49.295.295 0 010-.24l.65-1.38a.16.16 0 00-.06-.19l-.72-.42a.147.147 0 00-.1-.038.149.149 0 00-.1.038l-.83 1.24a.289.289 0 01-.21.11 2.034 2.034 0 00-.54 0 .125.125 0 01-.098-.016.124.124 0 01-.052-.084l-.11-1.09a.092.092 0 00-.047-.069.087.087 0 00-.083-.001l-1.12.65a.256.256 0 00-.09.089.263.263 0 00-.04.121l-.11 1.24a.4.4 0 01-.12.23 5.53 5.53 0 00-.62.66.21.21 0 01-.22.06l-.72-.25a.175.175 0 00-.113.007.178.178 0 00-.087.073l-.82 1.42a.167.167 0 00-.036.105c0 .038.012.075.036.105l.57.49c.029.03.05.066.06.107a.233.233 0 010 .123 5.26 5.26 0 00-.26.86.46.46 0 01-.14.22l-1 .72a.273.273 0 00-.12.22v1.29c0 .015.004.03.012.043a.082.082 0 00.031.033.094.094 0 00.043.013.085.085 0 00.044-.009l1-.45a.117.117 0 01.104-.001.105.105 0 01.042.033c.012.014.02.03.024.048.055.171.129.335.22.49a.262.262 0 010 .24l-.66 1.34a.149.149 0 00-.006.106.15.15 0 00.066.084l.72.42a.17.17 0 00.2 0l.82-1.24a.28.28 0 01.22-.11c.181.002.362-.015.54-.05a.102.102 0 01.052-.007.112.112 0 01.084.056.103.103 0 01.014.051l.11 1.09c0 .07.06.1.13.07l1.12-.65a.333.333 0 00.13-.21l.11-1.24a.4.4 0 01.12-.23c.222-.206.429-.426.62-.66a.21.21 0 01.22-.06l.72.25a.182.182 0 00.2-.08l.82-1.42a.167.167 0 00.036-.105.167.167 0 00-.036-.105l-.57-.5a.21.21 0 01-.06-.22c.106-.281.193-.568.26-.86a.413.413 0 01.14-.22l1-.72a.274.274 0 00.13-.13zm-4.37 4.06c-1 .6-1.89.11-1.89-1.09a4.186 4.186 0 011.89-3.27c1-.6 1.89-.11 1.89 1.09a4.186 4.186 0 01-1.89 3.27z"/>
      <path fill="#7B77F5" d="M168.26 129.251v8.67c0 1.32.93 1.86 2.07 1.2l7.51-4.34a4.577 4.577 0 002.07-3.58v-8.68c0-1.32-.93-1.85-2.07-1.19l-7.51 4.33a4.582 4.582 0 00-2.07 3.59z"/>
      <path fill="#fff" fill-opacity=".8" d="M174.08 131.74l-.95.56v2.73l-1.78 1.03v-4.4l-1.05.61 3.78-6.58 3.79 2.21-1.05.6v4.4l-1.78 1.03v-2.74l-.96.55z"/>
      <path fill="#7B77F5" d="M207.09 106.821v8.67c0 1.32.93 1.86 2.07 1.2l7.51-4.34a4.577 4.577 0 002.07-3.58v-8.67c0-1.32-.93-1.86-2.07-1.2l-7.51 4.34a4.574 4.574 0 00-2.07 3.58z"/>
      <path fill="#fff" fill-opacity=".8" d="M217.3 102.381a.202.202 0 00-.18 0l-7.88 4.62a.697.697 0 00-.23.28l4.16 1.53 4.13-6.43z"/>
      <path fill="#fff" fill-opacity=".8" d="M209 107.23a.583.583 0 00-.07.25V114a.235.235 0 00.08.19l3.29-5.1-3.3-1.86z"/>
      <path fill="#fff" fill-opacity=".8" d="M217.3 102.381l-3.19 5.62 3.22 1.45-3.44-1.07-.48.84a.478.478 0 01-.65.18l-.17-.1-3.59 4.89a.22.22 0 00.22 0l7.89-4.55a.698.698 0 00.3-.52v-6.53a.19.19 0 00-.11-.21zM217.31 102.37l-.01.01.01-.01zM75.07 198.581l143.67-82.95v44.84l-143.67 82.94v-44.83z"/>
      <path fill="#7B77F5" d="M82.83 234.441v-35.86l46.6-26.9v35.86l-46.6 26.9z"/>
      <path fill="#fff" fill-opacity=".8" d="M82.83 234.441v-35.86l46.6-26.9v35.86l-46.6 26.9z" opacity=".8"/>
      <path fill="#7B77F5" d="M116 189.69c0 1.79 1.26 2.51 2.81 1.62a6.196 6.196 0 002.81-4.87c0-1.79-1.25-2.52-2.81-1.62a6.23 6.23 0 00-2.81 4.87zM82.83 234.441v-13.45l14.31-18.91 16.76 9.42-5.64-4.76 8.1-9.73 13.07 6.79v3.74l-46.6 26.9z"/>
      <path fill="#455A64" d="M139.27 166l30.8-17.79c1.15-.66 2.07-.19 2.07 1a4.41 4.41 0 01-2.07 3.43l-30.8 17.79c-1.15.66-2.07.19-2.07-1a4.423 4.423 0 012.07-3.43z"/>
      <path fill="#E0E0E0" d="M138.44 175.44l71.29-41.16c.69-.39 1.24-.21 1.24.41a2.466 2.466 0 01-1.24 1.83l-71.29 41.16c-.69.4-1.24.22-1.24-.4a2.479 2.479 0 011.24-1.84zM138.44 179.931l71.29-41.16c.69-.4 1.24-.22 1.24.4a2.484 2.484 0 01-1.24 1.84l-71.29 41.16c-.69.39-1.24.21-1.24-.41a2.446 2.446 0 011.24-1.83zM138.44 184.41l71.29-41.16c.69-.4 1.24-.22 1.24.4a2.479 2.479 0 01-1.24 1.84l-71.29 41.16c-.69.4-1.24.22-1.24-.4a2.456 2.456 0 011.24-1.84zM138.44 188.89l40.23-23.24c.68-.39 1.24-.21 1.24.41a2.49 2.49 0 01-1.24 1.83l-40.23 23.24c-.69.4-1.24.22-1.24-.4a2.484 2.484 0 011.24-1.84z"/>
      <path fill="#7B77F5" d="M137.2 200.67v-1.95a4.554 4.554 0 012.07-3.58l11.39-6.58c1.14-.66 2.07-.12 2.07 1.2v1.94a4.582 4.582 0 01-2.07 3.59l-11.39 6.57c-1.15.66-2.07.14-2.07-1.19zM197.38 163.831c1.07-.62 1.94-.12 1.94 1.12a4.289 4.289 0 01-1.94 3.36c-1.07.62-1.94.12-1.94-1.12a4.289 4.289 0 011.94-3.36zM204.07 160.7c.52 0 .58.62.58.89a3.82 3.82 0 01-1.69 2.93c-.187.118-.4.187-.62.2a.464.464 0 01-.39-.18 1.18 1.18 0 01-.19-.71 3.798 3.798 0 011.7-2.93c.182-.118.393-.187.61-.2zm0-.5a1.763 1.763 0 00-.86.27 4.263 4.263 0 00-2 3.36c0 .88.44 1.39 1.08 1.39.308-.014.608-.107.87-.27a4.292 4.292 0 001.94-3.36c0-.88-.44-1.39-1.08-1.39h.05zM209.9 157.341c.51 0 .57.62.57.88a3.783 3.783 0 01-1.69 2.93c-.187.118-.4.186-.62.2a.442.442 0 01-.38-.17 1.203 1.203 0 01-.19-.71 3.797 3.797 0 011.69-2.93c.186-.119.4-.188.62-.2zm0-.5a1.76 1.76 0 00-.87.26 4.3 4.3 0 00-1.94 3.37c0 .87.44 1.38 1.07 1.38a1.76 1.76 0 00.87-.26 4.319 4.319 0 001.94-3.37c0-.87-.44-1.38-1.07-1.38zM77.14 251.18l38.57-22.26c1.14-.66 2.07-.13 2.07 1.19v35.57a4.57 4.57 0 01-2.07 3.59l-38.57 22.27c-1.14.66-2.07.12-2.07-1.2v-35.57a4.588 4.588 0 012.07-3.59z"/>
      <path fill="#fff" fill-opacity=".8" d="M77.14 251.18l38.57-22.26c1.14-.66 2.07-.13 2.07 1.19v35.57a4.57 4.57 0 01-2.07 3.59l-38.57 22.27c-1.14.66-2.07.12-2.07-1.2v-35.57a4.588 4.588 0 012.07-3.59z" opacity=".6"/>
      <path fill="#fff" fill-opacity=".8" d="M82.89 252.351c2.17-1.25 3.93-.26 3.93 2.21a8.64 8.64 0 01-3.94 6.76c-2.17 1.25-3.93.26-3.93-2.22a8.623 8.623 0 013.94-6.75zM92.67 246.701l19.16-11.06c1.14-.66 2.07-.19 2.07 1.05a4.42 4.42 0 01-2.07 3.43l-19.16 11.06c-1.14.66-2.07.2-2.07-1a4.45 4.45 0 012.07-3.48zM91.84 253.9l13-7.53c.69-.39 1.24-.21 1.24.4a2.451 2.451 0 01-1.24 1.84l-13 7.54c-.68.39-1.24.21-1.24-.41a2.509 2.509 0 011.24-1.84zM80.19 267.36l32.47-18.75c.68-.39 1.24-.21 1.24.41a2.466 2.466 0 01-1.24 1.83L80.19 269.6c-.68.39-1.24.21-1.24-.41a2.466 2.466 0 011.24-1.83zM80.19 271.841l32.47-18.74c.68-.4 1.24-.22 1.24.4a2.512 2.512 0 01-1.24 1.84l-32.47 18.74c-.68.4-1.24.22-1.24-.4a2.507 2.507 0 011.24-1.84zM80.19 276.321l32.47-18.74c.68-.4 1.24-.21 1.24.4a2.487 2.487 0 01-1.24 1.84l-32.47 18.74c-.68.4-1.24.22-1.24-.4a2.507 2.507 0 011.24-1.84zM112.65 269.221c-1 .55-1.74-.2-1.74-1.68a4.619 4.619 0 011.74-3.7c1-.56 1.75.2 1.75 1.68a4.639 4.639 0 01-1.75 3.7zm0-4.86a3.702 3.702 0 00-1.41 3c0 1.2.63 1.81 1.41 1.36.45-.358.812-.815 1.057-1.335a3.74 3.74 0 00.353-1.665c0-1.2-.63-1.81-1.41-1.36z"/>
      <path fill="#fff" fill-opacity=".8" d="M113.43 266.341l-1.73 1c-.1.05-.17 0-.17-.16a.414.414 0 01.17-.36l1.73-1c.1-.06.17 0 .17.16a.454.454 0 01-.17.36z"/>
      <path fill="#fff" fill-opacity=".8" d="M112.62 267.9a.081.081 0 01-.03.021.084.084 0 01-.035.007.084.084 0 01-.035-.007.081.081 0 01-.03-.021.397.397 0 010-.38l.74-1.32-.74-.47c-.07 0-.08-.2 0-.34s.16-.23.23-.18l.91.57s.06.09.06.17a.568.568 0 01-.06.24l-.91 1.62a.27.27 0 01-.1.09z"/>
      <path fill="#7B77F5" d="M127.59 222l38.57-22.27c1.15-.66 2.07-.12 2.07 1.2v35.57a4.554 4.554 0 01-2.07 3.58l-38.54 22.27c-1.15.66-2.07.13-2.07-1.19v-35.57a4.579 4.579 0 01.594-2.037A4.576 4.576 0 01127.59 222z"/>
      <path fill="#fff" fill-opacity=".8" d="M133.36 223.21c2.17-1.26 3.93-.26 3.93 2.21a8.616 8.616 0 01-3.93 6.75c-2.17 1.26-3.93.27-3.93-2.21a8.64 8.64 0 013.93-6.75zM143.15 217.56l19.16-11.06c1.14-.66 2.07-.19 2.07 1a4.452 4.452 0 01-2.07 3.44L143.15 222c-1.14.66-2.07.19-2.07-1a4.437 4.437 0 01.625-1.966 4.465 4.465 0 011.445-1.474zM142.32 224.761l13.05-7.53c.68-.4 1.24-.22 1.24.4a2.512 2.512 0 01-1.24 1.84l-13.05 7.53c-.68.4-1.24.22-1.24-.4a2.479 2.479 0 011.24-1.84zM130.67 238.211l32.47-18.74c.68-.4 1.24-.22 1.24.4a2.49 2.49 0 01-1.24 1.84l-32.47 18.74c-.68.4-1.24.22-1.24-.4a2.516 2.516 0 011.24-1.84zM130.67 242.701l32.47-18.7c.68-.39 1.24-.21 1.24.41a2.512 2.512 0 01-1.24 1.84l-32.47 18.74c-.68.39-1.24.21-1.24-.41a2.477 2.477 0 011.24-1.88zM130.67 247.181l32.47-18.74c.68-.4 1.24-.22 1.24.4a2.512 2.512 0 01-1.24 1.84l-32.47 18.74c-.68.4-1.24.22-1.24-.4a2.51 2.51 0 011.24-1.84zM163.13 240.07c-1 .56-1.75-.2-1.75-1.68a4.597 4.597 0 011.75-3.69c1-.56 1.75.19 1.75 1.68a4.597 4.597 0 01-1.75 3.69zm0-4.86a3.737 3.737 0 00-1.41 3c0 1.19.63 1.8 1.41 1.35a3.686 3.686 0 001.41-3c0-1.19-.63-1.79-1.41-1.35z"/>
      <path fill="#fff" fill-opacity=".8" d="M163.91 237.191l-1.74 1c-.09.06-.16 0-.16-.16a.432.432 0 01.16-.35l1.74-1c.09 0 .17 0 .17.17a.446.446 0 01-.17.34z"/>
      <path fill="#fff" fill-opacity=".8" d="M163.1 238.76a.111.111 0 01-.14 0 .444.444 0 010-.38l.74-1.32-.74-.47c-.07 0-.08-.2 0-.35.08-.15.17-.22.24-.18l.91.58s.06.08.06.16c0 .084-.02.166-.06.24l-.91 1.62a.329.329 0 01-.1.1z"/>
      <path fill="#7B77F5" d="M178 192.9l38.57-22.27c1.15-.66 2.07-.13 2.07 1.19v35.58a4.55 4.55 0 01-2.07 3.58l-38.47 22.27c-1.15.66-2.08.13-2.08-1.19l-.02-35.58a4.57 4.57 0 012-3.58z"/>
      <path fill="#000" d="M178 192.9l38.57-22.27c1.15-.66 2.07-.13 2.07 1.19v35.58a4.55 4.55 0 01-2.07 3.58l-38.47 22.27c-1.15.66-2.08.13-2.08-1.19l-.02-35.58a4.57 4.57 0 012-3.58z" opacity=".35"/>
      <path fill="#fff" fill-opacity=".8" d="M183.84 194.06c2.17-1.25 3.93-.26 3.93 2.22a8.64 8.64 0 01-3.93 6.75c-2.17 1.26-3.93.26-3.93-2.21a8.642 8.642 0 011.158-3.849 8.636 8.636 0 012.772-2.911zM193.63 188.411l19.16-11.06c1.14-.66 2.07-.19 2.07 1.05a4.437 4.437 0 01-.625 1.966 4.465 4.465 0 01-1.445 1.474l-19.16 11.06c-1.15.66-2.07.19-2.07-1.05a4.416 4.416 0 012.07-3.44zM192.8 195.621l13-7.54c.68-.39 1.24-.21 1.24.41a2.512 2.512 0 01-1.24 1.84l-13 7.53c-.69.4-1.24.21-1.24-.4a2.451 2.451 0 011.24-1.84zM181.15 209.07l32.46-18.74c.69-.4 1.25-.22 1.25.4a2.493 2.493 0 01-1.25 1.84l-32.46 18.74c-.69.4-1.24.22-1.24-.4a2.456 2.456 0 011.24-1.84zM181.15 213.551l32.46-18.74c.69-.4 1.25-.22 1.25.4a2.486 2.486 0 01-1.25 1.84l-32.46 18.74c-.69.4-1.24.22-1.24-.4a2.479 2.479 0 011.24-1.84zM181.15 218.001l32.46-18.75c.69-.39 1.25-.21 1.25.41a2.493 2.493 0 01-1.25 1.84l-32.46 18.74c-.69.39-1.24.21-1.24-.41a2.446 2.446 0 011.24-1.83zM213.61 210.93c-1 .55-1.75-.2-1.75-1.68a4.61 4.61 0 011.75-3.7c1-.55 1.74.2 1.74 1.68a4.636 4.636 0 01-1.74 3.7zm0-4.86a3.723 3.723 0 00-1.41 3c0 1.2.63 1.81 1.41 1.36a3.74 3.74 0 001.41-3c-.02-1.2-.64-1.81-1.41-1.36z"/>
      <path fill="#fff" fill-opacity=".8" d="M214.39 208.05l-1.74 1c-.09 0-.17 0-.17-.16a.486.486 0 01.17-.36l1.74-1c.09-.05.17 0 .17.16a.459.459 0 01-.17.36z"/>
      <path fill="#fff" fill-opacity=".8" d="M213.57 209.61h-.13a.397.397 0 010-.38l.74-1.32-.74-.46a.31.31 0 010-.35c.06-.15.16-.22.24-.18l.91.57a.203.203 0 01.049.079c.011.029.014.06.011.091a.5.5 0 01-.06.24l-.91 1.62a.283.283 0 01-.11.09z"/>
    </g>
    <g>
      <path fill="#7B77F5" d="M447.43 289.41c.13-4.316.899-8.589 2.28-12.68 2.27-6.6 7-13.36 12.67-14.9 5.67-1.54 8.38 2.23 7.37 6.12-.88 3.35-5 6.32-8.15 9.37-3.15 3.05-8.84 10.32-10.18 17.12l-3.25.53-.74-5.56z"/>
      <path fill="#000" d="M447.43 289.41c.13-4.316.899-8.589 2.28-12.68 2.27-6.6 7-13.36 12.67-14.9 5.67-1.54 8.38 2.23 7.37 6.12-.88 3.35-5 6.32-8.15 9.37-3.15 3.05-8.84 10.32-10.18 17.12l-3.25.53-.74-5.56z" opacity=".15"/>
      <path fill="#fff" fill-opacity=".8" d="M449.82 292.31a.368.368 0 00.35-.37c-.29-16.91 15.71-27.22 15.87-27.33a.363.363 0 00.159-.227.352.352 0 00.002-.141.35.35 0 00-.149-.234.362.362 0 00-.402-.008c-.16.1-16.51 10.64-16.21 28 0 .048.01.095.028.139a.362.362 0 00.202.191.35.35 0 00.14.02l.01-.04z"/>
      <path fill="#7B77F5" d="M450.74 315.49l.08.1a3.428 3.428 0 002.32 1 9.196 9.196 0 006.26-2 16.991 16.991 0 004.27-5.13 14.278 14.278 0 011.76-2.68c1.5-1.63 4.09-1.73 6.11-2.28a7.82 7.82 0 005.62-5.42c.63-2.66.15-5.84-2.37-7.39l2-1.44a13.254 13.254 0 002.55-2.17 4.54 4.54 0 001.18-3.05 4.39 4.39 0 00-2.93-3.65 9.277 9.277 0 00-4.88-.23 22.041 22.041 0 00-4.78 1.39 3.245 3.245 0 01-1.34.38 3.523 3.523 0 01-1.7-.67c-3.67-2.15-9.44-1.67-11.11 2.85-.24.66-.37 1.37-.64 2-1 2.44-4.12 1.89-6.06 3.11a5.09 5.09 0 00-2.14 3.76c-.27 2.37.53 5 1.09 7.32.56 2.32 1.22 4.43 2 6.61a93.992 93.992 0 002 5.32c.152.781.39 1.542.71 2.27z"/>
      <path fill="#fff" fill-opacity=".8" d="M448.45 310.071a32.715 32.715 0 017.79-13.21.365.365 0 01.19-.2 42.935 42.935 0 013.28-3.09 17.573 17.573 0 00-1.66-9.18.359.359 0 01-.026-.276.36.36 0 01.452-.241.362.362 0 01.214.177 18.057 18.057 0 011.81 8.86 56.182 56.182 0 0115.5-8.85.37.37 0 01.479.371.363.363 0 01-.249.319 54.275 54.275 0 00-18.39 11.47c5.16-1.19 11.52 1 11.81 1.09a.38.38 0 01.23.47.368.368 0 01-.33.24.366.366 0 01-.14 0c-.07 0-7.54-2.59-12.62-.72a32.07 32.07 0 00-7.68 13 .365.365 0 01-.33.26h-.12a.38.38 0 01-.209-.201.379.379 0 01-.001-.289z"/>
    </g>
    <g>
      <path fill="#7B77F5" d="M379.21 144.76v136.07a4.883 4.883 0 002.19 3.8l60.34 34.83c1.21.7 2.19.14 2.19-1.26V182.13a4.871 4.871 0 00-2.19-3.81l-60.34-34.83c-1.2-.7-2.19-.13-2.19 1.27zm3.16 16.24c0-1.2.84-1.69 1.88-1.08l54.86 31.66a4.169 4.169 0 011.88 3.26v106.6c0 1.2-.84 1.68-1.88 1.08l-54.86-31.67a3 3 0 01-1.88-2.56V161z"/>
      <path fill="#000" d="M379.21 144.76v136.07a4.883 4.883 0 002.19 3.8l60.34 34.83c1.21.7 2.19.14 2.19-1.26V182.13a4.871 4.871 0 00-2.19-3.81l-60.34-34.83c-1.2-.7-2.19-.13-2.19 1.27zm3.16 16.24c0-1.2.84-1.69 1.88-1.08l54.86 31.66a4.169 4.169 0 011.88 3.26v106.6c0 1.2-.84 1.68-1.88 1.08l-54.86-31.67a3 3 0 01-1.88-2.56V161z" opacity=".45"/>
      <path fill="#7B77F5" d="M442 319.6a4.951 4.951 0 004.12-.131l2.51-1.45a4.842 4.842 0 002.2-3.81v-136.06a4.117 4.117 0 00-.38-1.64 4.262 4.262 0 00-.26-.53l-6.91 4c.14.27.27.54.38.81.162.436.25.896.26 1.36V318.2c.01 1.29-.82 1.87-1.92 1.4z"/>
      <path fill="#000" d="M442 319.6a4.951 4.951 0 004.12-.131l2.51-1.45a4.842 4.842 0 002.2-3.81v-136.06a4.117 4.117 0 00-.38-1.64 4.262 4.262 0 00-.26-.53l-6.91 4c.14.27.27.54.38.81.162.436.25.896.26 1.36V318.2c.01 1.29-.82 1.87-1.92 1.4z" opacity=".55"/>
      <path fill="#E6E6E6" d="M412.6 299.06a3.63 3.63 0 01-1.8-.54 8.09 8.09 0 01-3.71-6.43 2.943 2.943 0 011.26-2.68 2.9 2.9 0 012.95.25 8.108 8.108 0 013.71 6.43 2.926 2.926 0 01-1.26 2.68 2.29 2.29 0 01-1.15.29zm-3.09-8.94a1.3 1.3 0 00-.66.16 1.997 1.997 0 00-.76 1.81 7.136 7.136 0 003.21 5.57 1.627 1.627 0 001.945.234 1.63 1.63 0 00.765-1.804 7.128 7.128 0 00-3.21-5.57 2.66 2.66 0 00-1.29-.4z"/>
      <path fill="#000" d="M411.57 163.84c-.81-.47-1.47-.09-1.47.85a3.255 3.255 0 001.47 2.55c.81.47 1.47.09 1.47-.85a3.254 3.254 0 00-1.47-2.55zM417.25 172.79l-11.36-6.56c-.67-.39-1.22-.11-1.22.62a2.64 2.64 0 001.22 2l11.36 6.56c.68.39 1.23.11 1.23-.62a2.628 2.628 0 00-.378-1.146 2.633 2.633 0 00-.852-.854z"/>
      <path fill="#7B77F5" d="M382.37 268.29a2.996 2.996 0 001.88 2.56l54.86 31.67c1 .6 1.88.12 1.88-1.08v-106.6a4.175 4.175 0 00-1.88-3.26l-54.86-31.66c-1-.61-1.88-.12-1.88 1.08v107.29z"/>
      <path fill="#fff" fill-opacity=".8" d="M382.37 268.29a2.996 2.996 0 001.88 2.56l54.86 31.67c1 .6 1.88.12 1.88-1.08v-106.6a4.175 4.175 0 00-1.88-3.26l-54.86-31.66c-1-.61-1.88-.12-1.88 1.08v107.29z"/>
      <path fill="#7B77F5" d="M379.23 144.41c.16-1.14 1.07-1.55 2.17-.92l60.34 34.83a4.46 4.46 0 011.55 1.64l6.91-4a4.466 4.466 0 00-1.56-1.63l-60.33-34.84a4.851 4.851 0 00-4.39 0L381.4 141a4.926 4.926 0 00-2.17 3.41z"/>
      <path fill="#000" d="M379.23 144.41c.16-1.14 1.07-1.55 2.17-.92l60.34 34.83a4.46 4.46 0 011.55 1.64l6.91-4a4.466 4.466 0 00-1.56-1.63l-60.33-34.84a4.851 4.851 0 00-4.39 0L381.4 141a4.926 4.926 0 00-2.17 3.41z" opacity=".35"/>
      <path fill="#263238" d="M439.11 191.58l-54.86-31.66c-1-.61-1.88-.12-1.88 1.08v12.31L441 207.15v-12.31a4.164 4.164 0 00-1.89-3.26z"/>
      <path fill="#455A64" d="M389.67 172.9a4.343 4.343 0 002.06 3.31l34.7 20.28c1.14.66 2.07.2 2.07-1a4.437 4.437 0 00-2.07-3.43l-34.69-20c-1.15-.73-2.07-.32-2.07.84z"/>
      <path fill="#7B77F5" d="M406.64 209.42v10a4.723 4.723 0 001.79 3.79l6.5 3.76c1 .57 1.8-.21 1.8-1.73v-10a4.745 4.745 0 00-1.8-3.8l-6.5-3.75c-.99-.56-1.79.21-1.79 1.73z"/>
      <path fill="#fff" fill-opacity=".8" d="M415.46 220.27v-1.49a.32.32 0 00-.11-.24l-.86-.64a.524.524 0 01-.14-.29 7.983 7.983 0 00-.19-.82.546.546 0 010-.3l.58-.77a.379.379 0 00-.05-.29l-.63-1.32c-.05-.12-.13-.2-.17-.18l-.71.47s-.12 0-.19-.13a6.485 6.485 0 00-.46-.56.48.48 0 01-.13-.3l-.1-1.38a.32.32 0 00-.11-.23l-1-.56c-.06 0-.11 0-.12.08l-.09 1.31c0 .08-.06.14-.1.13a1.402 1.402 0 00-.54 0s-.13-.07-.19-.19l-.62-1.12c-.07-.12-.14-.18-.18-.15l-.71.68v.29l.5 1.24c.046.1.063.211.05.32-.099.225-.172.46-.22.7 0 .07-.07.11-.13.08l-.88-.36c-.06 0-.1 0-.1.12v1.49a.357.357 0 00.11.25l.86.64a.493.493 0 01.14.28c.051.28.118.557.2.83.03.095.03.196 0 .29l-.58.77a.483.483 0 00.06.3l.62 1.32c.06.12.13.2.17.17l.71-.47s.13 0 .19.13a6.6 6.6 0 00.47.56.632.632 0 01.13.3l.09 1.38a.356.356 0 00.12.24l1 .56c.05 0 .1 0 .11-.09l.1-1.3c0-.09.05-.14.1-.14.178.036.362.036.54 0 0 0 .12.07.19.18l.62 1.13c.06.11.14.18.17.15l.71-.69v-.28l-.5-1.25a.597.597 0 01-.05-.32c.102-.224.179-.459.23-.7a.09.09 0 01.079-.084.094.094 0 01.041.004l.89.36c.04.03.08-.02.08-.11zm-3.78-.41a4.307 4.307 0 01-1.63-3.46c0-1.39.73-2.09 1.63-1.57a4.317 4.317 0 011.64 3.46c0 1.39-.74 2.09-1.64 1.57z"/>
      <path fill="#7B77F5" d="M389.82 199.74v10a4.728 4.728 0 001.8 3.79l6.5 3.76c1 .57 1.79-.2 1.79-1.73v-10a4.74 4.74 0 00-1.79-3.8l-6.5-3.75c-.99-.56-1.8.21-1.8 1.73z"/>
      <path fill="#fff" fill-opacity=".8" d="M394.87 209.42l-.83-.48v3.16l-1.54-.89v-5.08l-.91-.52 3.28-3.19 3.28 6.97-.91-.52v5.08l-1.54-.89v-3.16l-.83-.48z"/>
      <path fill="#7B77F5" d="M423.45 219.15v10a4.725 4.725 0 001.79 3.79l6.51 3.76c1 .57 1.79-.2 1.79-1.73V225a4.718 4.718 0 00-1.79-3.79l-6.51-3.76c-.99-.6-1.79.17-1.79 1.7z"/>
      <path fill="#fff" fill-opacity=".8" d="M432.29 225.93a.36.36 0 00-.16-.18l-6.81-3.94a.14.14 0 00-.055-.02.146.146 0 00-.11.033.135.135 0 00-.035.047l3.6 6.61 3.57-2.55z"/>
      <path fill="#fff" fill-opacity=".8" d="M425.12 221.87a.25.25 0 00-.054.088.254.254 0 00-.016.102v7.52a.87.87 0 00.07.31l2.86-2-2.86-6.02z"/>
      <path fill="#fff" fill-opacity=".8" d="M432.3 225.93l-2.77 2.71 2.79 5.44-3-5.26-.42.42c-.11.11-.36-.14-.56-.55l-.15-.32-3.1 1.52c.038.097.104.18.19.24l6.83 4c.15.08.27 0 .27-.25v-7.58a.79.79 0 00-.08-.37zM425.11 221.85l.01.02-.01-.02zM384.72 165.36v-.78c0-.17.06-.27.15-.22a.501.501 0 01.15.39v.78c0 .17-.07.27-.15.22a.474.474 0 01-.15-.39zM385.4 165.75v-1.35c0-.17.06-.27.14-.22a.517.517 0 01.15.39V166c0 .16-.07.26-.15.22a.502.502 0 01-.14-.47zM386.08 166.14v-1.92c0-.17.06-.27.14-.22.08 0 .14.22.14.39v1.92c0 .17-.06.27-.14.22-.08-.04-.14-.22-.14-.39zM386.75 166.53v-3.31c0-.17.07-.27.15-.22h.05a.53.53 0 01.14.4v3.31c0 .17-.06.27-.15.22a.528.528 0 01-.19-.4zM388.59 167.82a.345.345 0 010-.12v-.49l-.76-.44s-.06-.07-.06-.14v-.17a.227.227 0 010-.09.151.151 0 010-.06l.81-1.28h.05l.11.07c.03.016.055.04.07.07a.547.547 0 010 .14V167l.17.09a.283.283 0 01.07.08.472.472 0 010 .13v.11a.211.211 0 010 .1h-.07l-.17-.1v.49a.211.211 0 010 .1h-.07l-.13-.07a.275.275 0 01-.02-.11zm0-1v-1.22l-.55.9.55.32zM389.5 168.05a3.166 3.166 0 01-.23-1.25 1.55 1.55 0 01.23-1c.147-.18.357-.18.63 0 .11.062.211.139.3.23.095.091.175.196.24.31a.206.206 0 010 .07l-.07.17a1.21 1.21 0 00-.39-.39c-.18-.1-.32-.1-.43 0a1.254 1.254 0 00-.15.74c-.011.317.04.633.15.93.076.211.22.391.41.51.06.033.124.06.19.08a.273.273 0 00.15 0v-.79l-.32-.19a.129.129 0 01-.038-.028.113.113 0 01-.022-.042.26.26 0 010-.13v-.11-.1c0-.01 0 0 .06 0l.51.3a.247.247 0 01.08.09c.008.05.008.1 0 .15v1.12a.24.24 0 010 .1.651.651 0 01-.313.026.65.65 0 01-.287-.126 1.554 1.554 0 01-.7-.67zM438 193.41a.857.857 0 00-.3-.45l-2.28-1.32c-.2-.11-.35.12-.35.52v1.71c.004.235.048.469.13.69.034.086.074.169.12.25a.606.606 0 00.18.2l2.28 1.32c.2.11.35-.12.35-.52v-1.71a1.85 1.85 0 00-.13-.69zm-2.72 1a.949.949 0 010-.31v-1.7c0-.3.12-.48.26-.4l2.28 1.32c.04.025.075.059.1.1a.268.268 0 010 .08.904.904 0 01.05.31v1.7c0 .3-.12.48-.27.4l-2.28-1.32a.38.38 0 01-.16-.15l.02-.03z"/>
      <path fill="#fff" fill-opacity=".8" d="M436.7 193.05v2l-1.22-.71v-1.6c0-.22.09-.35.19-.29l1.03.6zM438.23 194.18c.123.219.175.47.15.72v.32c0 .35-.07.6-.15.56l-.16-.08v-1.61l.16.09zM393.85 170.32c0 .38-.19.57-.44.43a1.18 1.18 0 01-.44-.94c0-.37.2-.56.44-.42a1.144 1.144 0 01.44.93z"/>
      <path fill="#fff" fill-opacity=".8" d="M393.41 168.27a.683.683 0 00-.841.102.677.677 0 00-.159.258.482.482 0 00.05.36c.09.15.21.19.26.07a.45.45 0 01.111-.19.46.46 0 01.404-.141c.074.01.144.038.205.081.368.262.627.65.73 1.09.05.17.17.28.25.23a.297.297 0 00.071-.148.3.3 0 00-.021-.162 2.678 2.678 0 00-1.06-1.55z"/>
      <path fill="#fff" fill-opacity=".8" d="M393.41 167.18a1.047 1.047 0 00-.893-.164 1.055 1.055 0 00-.687.594.479.479 0 000 .38c.08.15.2.18.26.08a.85.85 0 011.28-.35 3.36 3.36 0 011.29 1.83c.06.17.17.27.25.22.08-.05.09-.19 0-.34a4.138 4.138 0 00-1.5-2.25zM408.72 179.36a.082.082 0 010 .07h-.05l-.11-.06a.127.127 0 01-.05-.07.153.153 0 010-.09v-2.33l-.44.27h-.06v-.07l-.06-.17a.272.272 0 010-.09.151.151 0 010-.06l.59-.36h.05l.11.07a.11.11 0 01.031.025.11.11 0 01.019.035.153.153 0 010 .09l-.03 2.74zM409.37 177.86a.084.084 0 01.031.025c.009.01.015.022.019.035a.189.189 0 010 .1v.28a.084.084 0 01.007.035.084.084 0 01-.007.035h-.05l-.18-.11a.095.095 0 01-.031-.025.092.092 0 01-.019-.035.153.153 0 010-.09v-.29a.061.061 0 010-.06h.05l.18.1zm0 1.48a.084.084 0 01.031.025c.009.01.015.022.019.035a.153.153 0 010 .09v.29a.061.061 0 010 .06h-.05l-.18-.11a.095.095 0 01-.031-.025.092.092 0 01-.019-.035.153.153 0 010-.09v-.29a.061.061 0 010-.06h.05l.18.11zM410.72 180.63a.101.101 0 01-.05-.07.272.272 0 010-.09v-.58l-.86-.5a.181.181 0 01-.06-.06.28.28 0 010-.1v-.15-.12l.87-1.25a.072.072 0 01.05 0h.05l.11.07a.164.164 0 01.06.06c.005.03.005.06 0 .09v1.77l.23.14a.164.164 0 01.06.06.272.272 0 010 .09v.15a.12.12 0 010 .07h-.06l-.23-.14v.58a.12.12 0 010 .07h-.06l-.11-.09zm-.07-1.12v-1.19l-.6.84.6.35zM411.68 180.47a.752.752 0 000 .15c.015.06.038.118.07.17.037.059.08.113.13.16.063.059.134.11.21.15a.284.284 0 00.16.06.17.17 0 00.07.016.17.17 0 00.07-.016.343.343 0 00.09-.11.625.625 0 000-.22c.01-.083.01-.167 0-.25a.749.749 0 00-.09-.2.713.713 0 00-.13-.16.679.679 0 00-.17-.12l-.23-.14a.102.102 0 010-.06.272.272 0 010-.09v-.15-.11l.5-.53-.79-.46-.06-.06a.272.272 0 010-.09v-.15a.105.105 0 010-.07h.06l1.08.63v.06a.272.272 0 010 .09v.16a.122.122 0 010 .06.106.106 0 010 .05l-.48.53c.094.056.179.127.25.21.075.086.138.18.19.28.06.11.103.228.13.35a1.61 1.61 0 010 .38c.001.122-.016.244-.05.36a.452.452 0 01-.15.2.292.292 0 01-.21 0 .477.477 0 01-.27-.09 1.292 1.292 0 01-.32-.25 1.254 1.254 0 01-.22-.3 1.322 1.322 0 01-.13-.31 1.878 1.878 0 010-.3l.13.08c.062.01.119.042.16.09z"/>
      <path fill="#7B77F5" d="M389.82 260.65v-42.02l43.74 25.25v42.02l-43.74-25.25z"/>
      <path fill="#fff" fill-opacity=".8" d="M389.82 260.65v-42.02l43.74 25.25v42.02l-43.74-25.25z" opacity=".8"/>
      <path fill="#7B77F5" d="M421 246.63c0 2.24 1.18 4.74 2.64 5.58 1.46.84 2.64-.3 2.64-2.54s-1.18-4.74-2.64-5.58c-1.46-.84-2.64.29-2.64 2.54zM389.82 260.65v-16.83l13.43-5.59 15.73 32.98-5.29-13.08 7.6-1.94 12.27 25.02v4.69l-43.74-25.25zM405.39 272.65a4.638 4.638 0 011.95 3.71c0 1.43-.87 2.09-1.94 1.47a4.638 4.638 0 01-1.95-3.71c0-1.43.87-2.12 1.94-1.47zM410.45 275.78v.5c.183.012.361.067.52.16a4.153 4.153 0 011.69 3.28c.028.349-.052.699-.23 1a.535.535 0 01-.44.24 1.184 1.184 0 01-.52-.16 4.157 4.157 0 01-1.69-3.28c0-.55.17-1.2.67-1.2v-.54zm0 .04c-.69 0-1.17.63-1.17 1.7a4.662 4.662 0 001.94 3.71 1.5 1.5 0 00.77.23c.69 0 1.17-.63 1.17-1.7a4.662 4.662 0 00-1.94-3.71 1.542 1.542 0 00-.77-.23zM416.27 279.64a.996.996 0 01.52.17 4.157 4.157 0 011.69 3.27 1.7 1.7 0 01-.23 1 .49.49 0 01-.44.24 1.064 1.064 0 01-.52-.16 4.192 4.192 0 01-1.69-3.28c0-.55.18-1.2.67-1.2v-.04zm0-.46c-.69 0-1.17.64-1.17 1.7a4.662 4.662 0 001.94 3.71c.232.142.498.222.77.23.69 0 1.17-.63 1.17-1.7a4.662 4.662 0 00-1.94-3.71 1.6 1.6 0 00-.77-.23zM387.81 185.45c0 2.1 1.11 4.43 2.47 5.22s2.46-.28 2.46-2.37-1.1-4.43-2.46-5.22c-1.36-.79-2.47.28-2.47 2.37z"/>
      <path fill="#fff" fill-opacity=".8" d="M390.51 186.5a1.91 1.91 0 00.71 1.52c.4.23.72-.08.72-.69a1.842 1.842 0 00-.72-1.51c-.39-.23-.71.08-.71.68z"/>
      <path fill="#455A64" d="M398.15 193.88a.314.314 0 01.1.15c.01.076.01.153 0 .23v.74a.391.391 0 010 .18s-.07.06-.1 0l-2.33-1.34a.27.27 0 01-.1-.14.635.635 0 010-.23v-7a.307.307 0 010-.18.073.073 0 01.023-.016.062.062 0 01.027-.005c.009 0 .019.001.027.005a.073.073 0 01.023.016l.43.25a.263.263 0 01.1.14.635.635 0 010 .23v6l1.8.97zM400 190.52c.211.122.392.289.53.49.168.232.306.484.41.75.123.297.216.605.28.92.065.33.105.664.12 1v1.1a4.226 4.226 0 01-.13.86 1.517 1.517 0 01-.27.6.65.65 0 01-.41.27.798.798 0 01-.53-.12 1.592 1.592 0 01-.52-.49 3.058 3.058 0 01-.41-.74 4.368 4.368 0 01-.27-.91 6.858 6.858 0 01-.13-1V193v-.3-.55a3.65 3.65 0 01.12-.87c.052-.217.148-.421.28-.6a.714.714 0 01.41-.28.764.764 0 01.52.12zm.65 2.82a3.278 3.278 0 00-.08-.6 2.023 2.023 0 00-.15-.44 1.227 1.227 0 00-.2-.3.888.888 0 00-.43-.25.26.26 0 00-.2.07.566.566 0 00-.15.27 1.96 1.96 0 00-.08.51c.005.07.005.14 0 .21v.55c.004.073.004.147 0 .22.008.206.035.41.08.61.033.152.083.3.15.44.051.107.119.205.2.29.065.066.135.126.21.18a.682.682 0 00.22.07.245.245 0 00.2-.06.685.685 0 00.15-.27c.048-.169.075-.344.08-.52v-1 .02zM403.19 193.8c-.207-.12-.357-.12-.45 0a1.63 1.63 0 00-.14.86v2.83a.305.305 0 01-.05.18c-.007.006-.014.012-.023.015a.063.063 0 01-.054 0c-.009-.003-.016-.009-.023-.015l-.4-.23a.3.3 0 01-.1-.15.593.593 0 010-.23v-5.07a.36.36 0 010-.19s.06-.05.1 0l.4.23a.263.263 0 01.1.14.62.62 0 01.05.23v.26a.624.624 0 01.29-.24.537.537 0 01.41.1l.24.14a.263.263 0 01.1.14.635.635 0 010 .23v.72a.307.307 0 010 .18.076.076 0 01-.05.021.063.063 0 01-.027-.006.091.091 0 01-.023-.015l-.35-.13zM403.94 195.76a6.155 6.155 0 01.09-1.1c.045-.272.133-.535.26-.78a.853.853 0 01.41-.39.604.604 0 01.54.08 1.6 1.6 0 01.54.53c.17.263.308.545.41.84.114.326.201.66.26 1 .068.37.101.745.1 1.12v.49a.302.302 0 01-.05.18.073.073 0 01-.023.016.062.062 0 01-.027.005.062.062 0 01-.027-.005.073.073 0 01-.023-.016l-1.77-1c.001.158.018.316.05.47.035.138.081.272.14.4.049.112.113.216.19.31a.975.975 0 00.23.19.443.443 0 00.28.09.246.246 0 00.17-.08l.1-.06a.143.143 0 01.1 0l.42.25a.276.276 0 01.11.15.581.581 0 010 .22c-.01.121-.04.24-.09.35a.758.758 0 01-.23.33.71.71 0 01-.38.18.862.862 0 01-.52-.14 1.763 1.763 0 01-.54-.52 3.989 3.989 0 01-.41-.85A6.148 6.148 0 01404 197a8.282 8.282 0 01-.06-1.24zm1.3-.88a.346.346 0 00-.26-.06.325.325 0 00-.18.13.903.903 0 00-.12.26c0 .11 0 .21-.05.32l1.2.69v-.37a2.257 2.257 0 00-.09-.38 1.844 1.844 0 00-.18-.34.85.85 0 00-.32-.25zM407.81 195.71a.616.616 0 01.31-.31.43.43 0 01.19-.043.43.43 0 01.19.043c.228.138.414.335.54.57.155.268.27.558.34.86a.912.912 0 01.17-.29.781.781 0 01.21-.17.409.409 0 01.24 0 .538.538 0 01.24.07c.204.124.376.295.5.5.142.235.253.487.33.75.085.297.142.602.17.91.037.332.054.666.05 1v2.93a.307.307 0 010 .18c-.007.006-.014.012-.023.015a.063.063 0 01-.054 0c-.009-.003-.016-.009-.023-.015l-.4-.23a.237.237 0 01-.066-.064.228.228 0 01-.034-.086.593.593 0 010-.23v-2.87a3.53 3.53 0 00-.13-1.12.918.918 0 00-.39-.51.239.239 0 00-.36.07c-.14.278-.199.59-.17.9v2.93a.307.307 0 010 .18.061.061 0 01-.023.015.063.063 0 01-.054 0c-.009-.003-.016-.009-.023-.015l-.4-.24a.27.27 0 01-.1-.14.63.63 0 01-.05-.23v-2.88a3.465 3.465 0 00-.13-1.11.998.998 0 00-.39-.52.27.27 0 00-.205-.036.262.262 0 00-.165.126 1.83 1.83 0 00-.16.94v2.87a.307.307 0 010 .18s-.06.06-.1 0l-.4-.23a.262.262 0 01-.1-.15.59.59 0 01-.05-.23v-5.07a.302.302 0 01.05-.18.073.073 0 01.023-.016.08.08 0 01.027-.005.08.08 0 01.027.005.073.073 0 01.023.016l.4.23c.05.036.086.089.1.15a.593.593 0 010 .23l-.13.32zM413.53 199.4v1.83c-.02.679.082 1.356.3 2 .134.411.406.764.77 1 .119.073.252.121.39.14a.364.364 0 00.31-.1.8.8 0 00.23-.38c.077-.237.128-.482.15-.73a.293.293 0 010-.15.08.08 0 01.04-.011.08.08 0 01.04.011l.1.07c.04.023.071.058.09.1a.366.366 0 010 .18c0 .252-.031.504-.09.75a1.541 1.541 0 01-.25.61.724.724 0 01-.43.32.872.872 0 01-.64-.15 1.9 1.9 0 01-.62-.58 3.195 3.195 0 01-.43-.87 4.727 4.727 0 01-.26-1.08 9.576 9.576 0 01-.1-1.23v-1-1a7.24 7.24 0 01.1-1.12c.034-.278.123-.546.26-.79a.72.72 0 01.43-.36.789.789 0 01.62.13c.255.15.474.355.64.6.178.25.323.522.43.81.116.29.199.592.25.9.058.283.088.571.09.86a.188.188 0 010 .14.095.095 0 01-.02.015.07.07 0 01-.025.005.07.07 0 01-.025-.005.095.095 0 01-.02-.015l-.1-.06a.138.138 0 01-.049-.037.142.142 0 01-.031-.053.67.67 0 010-.2 5.952 5.952 0 00-.15-.9 3.046 3.046 0 00-.23-.65 1.724 1.724 0 00-.3-.4 2.29 2.29 0 00-.39-.31c-.33-.18-.58-.15-.77.12a3.119 3.119 0 00-.31 1.59zM417.78 200.8c.197.129.367.296.5.49.15.228.271.473.36.73.104.299.177.607.22.92.059.33.089.665.09 1-.004.07-.004.14 0 .21v.5a1.668 1.668 0 000 .2 4.27 4.27 0 01-.09.93 1.878 1.878 0 01-.22.66.68.68 0 01-.36.32.61.61 0 01-.5-.11 1.55 1.55 0 01-.51-.48 3.305 3.305 0 01-.36-.73 5.68 5.68 0 01-.23-.92 6.833 6.833 0 01-.08-1v-.2a2.255 2.255 0 010-.26 2.085 2.085 0 010-.25v-.2a5.087 5.087 0 01.08-.93 2.1 2.1 0 01.23-.66.578.578 0 01.87-.22zm.85 3a4.558 4.558 0 00-.25-1.57 1.592 1.592 0 00-.6-.83.407.407 0 00-.335-.075.407.407 0 00-.275.205c-.194.398-.28.839-.25 1.28v.81a4.545 4.545 0 00.25 1.56c.102.339.317.632.61.83a.4.4 0 00.6-.13c.196-.397.282-.838.25-1.28v-.8zM420 202.82a.68.68 0 01.31-.35.486.486 0 01.45.06c.216.139.392.332.51.56.159.315.27.652.33 1a1 1 0 01.36-.54.498.498 0 01.55 0c.156.097.289.227.39.38.131.195.235.407.31.63.097.276.167.561.21.85.054.357.08.718.08 1.08v3.17c0 .16 0 .21-.12.17h-.09a.338.338 0 01-.12-.31v-3.12a6.283 6.283 0 00-.05-.92 4.044 4.044 0 00-.16-.66 1.893 1.893 0 00-.23-.43 1.077 1.077 0 00-.28-.25.426.426 0 00-.24 0 .31.31 0 00-.23.17 1.278 1.278 0 00-.17.47 4.65 4.65 0 00-.06.85v3.06c0 .16 0 .21-.12.17l-.09-.05a.338.338 0 01-.12-.31v-3.06a6.155 6.155 0 00-.06-.92 4.16 4.16 0 00-.16-.67 1.893 1.893 0 00-.23-.43.998.998 0 00-.27-.24.426.426 0 00-.24 0 .31.31 0 00-.23.17c-.088.14-.146.297-.17.46a4.65 4.65 0 00-.06.85v3.07c0 .16 0 .21-.12.17l-.09-.05a.338.338 0 01-.12-.31v-5.18c0-.16.04-.22.12-.18l.09.06c.08.04.12.14.12.3v.28zM425.56 211.18a1.493 1.493 0 01-.54-.57 3.41 3.41 0 01-.35-.8v2.58c0 .16 0 .21-.12.17l-.09-.05c-.08 0-.11-.15-.11-.31V205c0-.16 0-.22.11-.17l.09.05c.08 0 .12.15.12.3v.52a.826.826 0 01.35-.42.528.528 0 01.54.07c.218.126.398.309.52.53.152.242.27.505.35.78.09.307.154.621.19.94.047.331.073.665.08 1v.72a6.628 6.628 0 01-.08.9 2.505 2.505 0 01-.19.71.75.75 0 01-.35.39.581.581 0 01-.52-.14zm-.89-3.85v.85c.001.231.021.462.06.69.028.234.078.465.15.69.066.203.156.398.27.58.092.16.222.294.38.39a.417.417 0 00.39.06.521.521 0 00.25-.29c.077-.179.127-.367.15-.56.033-.242.049-.486.05-.73v-.61a6.764 6.764 0 00-.05-.78 3.823 3.823 0 00-.15-.72 2.418 2.418 0 00-.25-.59.994.994 0 00-.39-.4.44.44 0 00-.39 0 .707.707 0 00-.26.3 1.994 1.994 0 00-.15.53 3.431 3.431 0 00-.06.59zM429.22 213.18c-.08-.04-.12-.14-.12-.3v-.51a.987.987 0 01-.12.23.49.49 0 01-.19.16.434.434 0 01-.26.05.718.718 0 01-.36-.13 1.243 1.243 0 01-.37-.33 2.8 2.8 0 01-.3-.52 2.897 2.897 0 01-.21-.63 3.194 3.194 0 01-.07-.69 2.24 2.24 0 01.07-.62c.043-.144.118-.278.22-.39a.613.613 0 01.33-.18.946.946 0 01.43 0l.83.24v-.38a2.57 2.57 0 00-.17-1 1.266 1.266 0 00-.55-.65c-.2-.11-.35-.12-.46 0a.66.66 0 00-.2.39.277.277 0 01-.05.15.06.06 0 01-.04.016.06.06 0 01-.04-.016h-.07a.225.225 0 01-.08-.12.407.407 0 010-.19c.005-.118.021-.235.05-.35.037-.123.099-.239.18-.34a.557.557 0 01.3-.2.586.586 0 01.45.1c.205.119.382.279.52.47.136.198.244.413.32.64.078.231.132.469.16.71.031.229.048.46.05.69v3.62c0 .16-.04.22-.12.18l-.13-.1zm-1-1.1a.417.417 0 00.343.078.41.41 0 00.277-.218c.102-.157.171-.334.2-.52.044-.281.064-.565.06-.85v-.37l-.68-.2c-.59-.17-.88 0-.88.65a2 2 0 00.06.5c.037.146.09.287.16.42a1.17 1.17 0 00.46.51zM432.56 214.87c0 .16 0 .22-.11.18l-.09-.06c-.08-.04-.12-.14-.12-.3v-3a4.671 4.671 0 00-.21-1.49 1.455 1.455 0 00-.6-.84.388.388 0 00-.161-.077.403.403 0 00-.449.217 2.463 2.463 0 00-.23 1.24v3c0 .15 0 .21-.12.17l-.09-.06c-.08 0-.11-.14-.11-.3v-5.18c0-.16 0-.22.11-.18l.09.06c.08.04.12.14.12.3v.51a.997.997 0 01.34-.42.549.549 0 01.55.08c.194.11.356.268.47.46.147.215.261.451.34.7.096.289.163.587.2.89.048.331.072.665.07 1v3.1zM434 217.86a.215.215 0 010 .08.065.065 0 01-.018.015.054.054 0 01-.022.005.054.054 0 01-.022-.005.065.065 0 01-.018-.015l-.11-.06a.234.234 0 01-.07-.11.485.485 0 010-.17 1.113 1.113 0 010-.2l.41-1.73-1-5.48a1.922 1.922 0 010-.24.26.26 0 010-.13.065.065 0 01.018-.015.054.054 0 01.022-.005c.008 0 .015.002.022.005a.065.065 0 01.018.015l.11.06a.213.213 0 01.08.1.547.547 0 010 .14l.89 4.82.91-3.78a.187.187 0 01.05-.09h.08l.1.06a.239.239 0 01.08.11.539.539 0 010 .17c.006.066.006.133 0 .2l-1.53 6.25z"/>
    </g>
    <g>
      <path fill="#FFA8A7" d="M362.52 119.1c-3.45-2.73-4.41-1.39-4.39 2.06a15.418 15.418 0 01-.52 4.28 7.837 7.837 0 00-.83-2 1.486 1.486 0 00-1.93-.68c-.29.16.17.83.28 2.16.15 1.69-.29 2.69.32 4.43a2.898 2.898 0 01-.06 2c-1.18 3-5.3 7.93-8.48 12.21-2.45-2.83-8.72-10.09-11.13-13.05-4.16-5.09-5.43-7.3-10.15-7.69a12.439 12.439 0 013.61 3c1.88 2.16-.25 12.55-.25 12.55s14.29 14 15.77 15.34c.427.366.897.678 1.4.93a4.002 4.002 0 004.72-1.51 129.234 129.234 0 009.26-17.13c1.13-2.64 2.36-4.72 3-6.46 2.19-6.02 1.54-8.72-.62-10.44z"/>
      <path fill="#7B77F5" d="M326.15 122.63a8.12 8.12 0 016.22 2.58c2.43 2.51 12.49 15.1 12.49 15.1a10.594 10.594 0 01-7 8.25L325 136.18l1.15-13.55z"/>
      <path fill="#000" d="M326.15 122.63a8.12 8.12 0 016.22 2.58c2.43 2.51 12.49 15.1 12.49 15.1a10.594 10.594 0 01-7 8.25L325 136.18l1.15-13.55z" opacity=".15"/>
      <path fill="#FFA8A7" d="M310.42 252.819h-6.17v11.01h6.17v-11.01zM325.66 252.24l6.17.22.31-11.65-6.48-.23v11.66z"/>
      <path fill="#37474F" d="M303.38 157.51c0 6.14.91 55.56.91 55.56-.15 1.76-1.74 5-1.39 11.81.47 9.22 1.09 33.45 1.09 33.45a7.843 7.843 0 006.87.14s5.84-33.56 6.95-42.69c1-8 2.6-34.83 2.6-34.83l3.35 31.22a37.836 37.836 0 00-.76 10.22c.28 4.23 2.27 26.24 2.27 26.24a8.156 8.156 0 007.13.56s3.51-33.14 3.58-37c.08-4.42-2.05-54.73-2.05-54.73l-30.55.05z"/>
      <path fill="#263238" d="M310.43 260.66v-.92c.59.27 2 5.72 4.41 8.05 2 1.85 4.61 4 5.28 6 .67 2-3.7 3.33-5.52 3-2.11-.39-5.78-1.94-6.7-3.38-.92-1.44-1.35-3.55-2.1-4.61-.75-1.06-2.47-2.23-2.87-3.45a8.103 8.103 0 01.35-3.37c.29-1.14.6-2.39 1-2.28v.7a4.78 4.78 0 003.09 1.09c.87.07 3.06-.12 3.06-.83zM331.9 250.47c.32 0 .58.49 1.29 1.28a13.128 13.128 0 003.63 2.72c2.31 1.21 6.81 3.06 8.84 4 1.27.6 1.21 2.19-.1 3.1-1.31.91-4.49 1.57-8.3.68-2.07-.48-4.77-2.48-6.48-2.37-1.71.11-4.91.08-6.17-.82-1.26-.9-.76-2.84-.4-4.51s.87-4.64 1.45-4.52v.63c.74 1.17 4.57 1.65 6.2.79l.04-.98zM320.41 181a22.478 22.478 0 008.6-5.13s-1.66 3.24-6.59 6.25l1.06 27.87-3.07-28.99z"/>
      <path fill="#7B77F5" d="M306.38 123.729s-4.62.72-4.27 9.93l1.07 14.66-.11 22c4.55 5.15 24.67 4.77 31.57-.41 0 0-.71-26-1.18-36.06-.33-7.12-2-10.71-9-11.5l-8.91-.7-9.17 2.08z"/>
      <path fill="#37474F" d="M315 102.48a9.207 9.207 0 005.928 8.232 9.205 9.205 0 009.897-2.226 9.198 9.198 0 00-1.554-14.047 9.2 9.2 0 00-5.071-1.529 9.4 9.4 0 00-9.2 9.57zM308.64 106.87a82.032 82.032 0 002 8 3 3 0 001.74 1.46l-.1-4.85-3.64-4.61z"/>
      <path fill="#37474F" d="M310.41 97s-1-.25-2.09 1.42c-.92 1.44-1.13 4.67.32 8.46l2.65.32-.88-10.2z"/>
      <path fill="#FFA8A7" d="M312.09 107.19c-.53.33-1.29-.73-1.95-1.45a2.28 2.28 0 00-2.125-.784 2.264 2.264 0 00-1.745 1.444c-1.09 2.39 1 5.41 2.63 6.1a2.614 2.614 0 003.35-1l.22 12.07c3.86 6 12.61 5.75 9.46-.29v-4.47c1.295.218 2.61.288 3.92.21 2.14-.34 3.48-2.1 4.13-4.51 1-3.88 1.44-7 .55-14.62-1-8.35-10.29-8.44-15.32-5.14-5.03 3.3-3.12 12.44-3.12 12.44z"/>
      <path fill="#37474F" d="M312.09 108.13c-.27 0-1.29-1.76-1.95-2.39-.92-.87.27-8.75.27-8.75a3.844 3.844 0 01.88-4c1.26-1.44 3.37-1.6 7-2.19a38.233 38.233 0 004.21-.8 25.358 25.358 0 004.26-2 2.09 2.09 0 011.44-.33 1.4 1.4 0 01.91 1c.085.48.085.97 0 1.45a2.334 2.334 0 011.68-.627 2.337 2.337 0 011.63.747 3.371 3.371 0 01.51 3.48 6.243 6.243 0 01-2.41 2.76c-4.51 3-9.83 2.2-14.89 1.6a1.26 1.26 0 00-.72 0c-.79.35-1 2.81-1.09 3.52-.44 2.45-.82 6.51-1.73 6.53z"/>
      <path fill="#37474F" d="M310.41 97.4l-3.22-1.8a1.757 1.757 0 011.035-.957 1.752 1.752 0 011.405.117 2 2 0 01.78 2.64z"/>
      <path fill="#F28F8F" d="M321.93 118.82s-4.78-1-6.45-1.93a5.611 5.611 0 01-2.31-2.37 8.165 8.165 0 001.31 2.8c1.23 1.63 7.45 2.82 7.45 2.82v-1.32z"/>
      <path fill="#263238" d="M320.2 105.66a1.002 1.002 0 01-1.195.981 1.003 1.003 0 01-.729-1.364 1.007 1.007 0 01.924-.617 1.002 1.002 0 011 1zM318.56 101.52l-2.05 1.18a1.308 1.308 0 01.49-1.7c.136-.073.285-.117.438-.131a1.144 1.144 0 01.85.284c.115.102.207.227.272.367z"/>
      <path fill="#F28F8F" d="M321.49 112.83l2.19.86a1.143 1.143 0 01-1.031.819 1.14 1.14 0 01-.459-.069 1.291 1.291 0 01-.7-1.61z"/>
      <path fill="#263238" d="M329.76 102.479l-2.15-1a1.107 1.107 0 01.624-.644 1.108 1.108 0 01.896.034 1.318 1.318 0 01.63 1.61zM328.69 105.66a1 1 0 01-.95 1 1.035 1.035 0 110-2.07.986.986 0 01.7.335 1.008 1.008 0 01.25.735z"/>
      <path fill="#F28F8F" d="M322.92 104.92l.11 6.05 3.43-.79-3.54-5.26z"/>
      <path fill="#263238" d="M318.9 103.2a2.547 2.547 0 00-2.39 2.545 2.548 2.548 0 002.39 2.545h.46a2.552 2.552 0 001.699-4.291 2.547 2.547 0 00-1.699-.799h-.46zm-3 2.54a3.006 3.006 0 01.857-2.161 3.012 3.012 0 012.143-.899h.46a3.06 3.06 0 110 6.12h-.46a3.01 3.01 0 01-2.143-.9 3.003 3.003 0 01-.857-2.16zM328.06 103.2a2.547 2.547 0 00-2.39 2.545 2.548 2.548 0 002.39 2.545h.46a2.552 2.552 0 001.699-4.291 2.547 2.547 0 00-1.699-.799h-.46zm-3 2.54a3.006 3.006 0 01.857-2.161 3.012 3.012 0 012.143-.899h.46a3.06 3.06 0 110 6.12h-.46a3.01 3.01 0 01-2.143-.9 3.003 3.003 0 01-.857-2.16z"/>
      <path fill="#263238" d="M322.33 105.14a1.994 1.994 0 011.59-.83 1.575 1.575 0 011.38.54l.41-.32a2.106 2.106 0 00-.819-.592 2.098 2.098 0 00-1.001-.138 2.423 2.423 0 00-2 1.07l.44.27zM309.81 105.45h6.35V105h-7.43c.386.078.753.231 1.08.45z"/>
      <path fill="#FFA8A7" d="M291.82 144.68c1.94-4.9 3.63-8.78 5.82-13.41 2.33-4.92 3.66-7.13 8.17-7.31a29.91 29.91 0 01.81 9.25c-.1 2.86-3 7.62-3 7.62s-6.68 11.29-8.05 12.75a5.212 5.212 0 01-2 1.69"/>
      <path fill="#7B77F5" d="M306.38 123.73s-5-.3-6.84 3c-2.33 4.16-7 14.83-7 14.83s3.79 4.37 8.27 5.53c0 0 4.38-8.24 5.59-11a21.303 21.303 0 00-.02-12.36z"/>
      <path fill="#000" d="M306.38 123.73s-5-.3-6.84 3c-2.33 4.16-7 14.83-7 14.83s3.79 4.37 8.27 5.53c0 0 4.38-8.24 5.59-11a21.303 21.303 0 00-.02-12.36z" opacity=".1"/>
      <path fill="#FFA8A7" d="M293.52 155.27a3.997 3.997 0 01-4.79-1.28c-3.18-4.21-9.28-13.78-11.91-18a53.26 53.26 0 01-3.44-6.19c-2.49-5.92-2-8.66.1-10.47 3.32-2.89 4.34-1.6 4.48 1.84.046 1.444.295 2.875.74 4.25.15-.696.392-1.369.72-2a1.508 1.508 0 011.9-.77c.3.15-.13.85-.18 2.17-.06 1.7.42 2.68-.1 4.45a3.005 3.005 0 00.41 2c1.45 3.21 7.47 10 11.5 14.13"/>
      <path fill="#455A64" d="M351.09 126.62h-66.37a.747.747 0 01-.53-.22.747.747 0 010-1.06.747.747 0 01.53-.22h66.37c.199 0 .39.079.53.22a.747.747 0 010 1.06.747.747 0 01-.53.22z"/>
      <path fill="#455A64" d="M346.92 130.459a.75.75 0 01-.44-1.36l4.48-3.23-4.48-3.24a.752.752 0 01-.17-1 .76.76 0 011.05-.17l5.32 3.85a.767.767 0 01.31.61.744.744 0 01-.31.6l-5.32 3.85a.735.735 0 01-.44.09zM290 130.46a.746.746 0 01-.44-.14l-5.32-3.85a.743.743 0 01-.226-.941.763.763 0 01.226-.269l5.32-3.85a.754.754 0 01.532-.106.754.754 0 01.468.276.753.753 0 01-.17 1l-4.39 3.29 4.48 3.23a.75.75 0 01-.44 1.36H290z"/>
    </g>
  </svg>
  