<svg xmlns="http://www.w3.org/2000/svg" width="364" height="440" fill="none" viewBox="0 0 364 440">
    <path fill="#4F46E5" d="M134.7 100.835c-.899-.648-45.48-8.961-74.551 27.8-26.722 33.798-26.093 84.342-21.393 84.36 5.753.018 14.743-26.468 39.935-46.2 8.937-6.998 26.084-6.658 26.084-6.658l29.925-59.302z"/>
    <path fill="#000" d="M104.792 160.123a65.07 65.07 0 00-15.029 1.772c2.916-14.698 8.365-42.117 11.911-59.886 17.9-4.393 32.56-1.54 33.067-1.215l-29.949 59.329z" opacity=".1"/>
    <path fill="#4F46E5" d="M220.131 161.524c.905.635 23.439 39.996-1.713 79.544-23.114 36.365-71.046 52.407-72.611 47.976-1.911-5.426 20.149-22.635 30.48-52.921 3.658-10.738-2.295-26.826-2.295-26.826l46.139-47.773z"/>
    <path fill="#000" d="M229.901 193.377l-52.616 31.046a65.168 65.168 0 00-3.332-15.116l46.139-47.773c.555.353 8.188 13.36 9.809 31.843z" opacity=".1"/>
    <path fill="#C7C7C7" d="M140.539 236.981l-50.652-35.982s6.453-59.638 45.334-108.511c19.441-24.395 44.182-45.251 67.234-60.754 31.736-21.433 60.039-32.496 65.919-28.341 5.88 4.155 4.696 34.572-5.03 71.598-7.084 26.794-18.636 57.071-35.266 83.463-33.347 52.848-87.539 78.527-87.539 78.527z"/>
    <path fill="#A6A6A6" d="M216.637 140.434a35.829 35.829 0 01-61.914-35.396 35.828 35.828 0 0168.017 8.682 35.844 35.844 0 01-6.103 26.714z"/>
    <path fill="#4F46E5" d="M217.712 136.721a35.834 35.834 0 01-37.203 14.176 35.824 35.824 0 01-27.333-28.947 35.828 35.828 0 0136.354-41.795 35.831 35.831 0 0119.725 6.606 35.842 35.842 0 018.457 49.96z"/>
    <path fill="#fff" d="M208.768 130.345a24.85 24.85 0 11-40.558-28.729 24.85 24.85 0 0140.558 28.729z"/>
    <path fill="#EBEBEB" d="M208.777 130.343a24.81 24.81 0 01-6.578 6.375l-19.781 3.367a24.657 24.657 0 01-8.309-3.845 24.323 24.323 0 01-4.895-4.582l42.629-7.257a24.454 24.454 0 01-3.066 5.942zM205.691 98.034l-39.345 6.698a24.305 24.305 0 011.883-3.133 24.841 24.841 0 0134.621-5.884c1.004.7 1.954 1.475 2.841 2.319zM213.205 118.738l-47.084 8.002a20.014 20.014 0 01-.885-2.054l48.118-8.153a28.685 28.685 0 01-.149 2.205z"/>
    <path fill="#4F46E5" d="M263.344 74.99l-60.896-43.286c31.743-21.405 60.046-32.467 65.926-28.312 5.88 4.154 4.734 34.562-5.03 71.597z"/>
    <path fill="#fff" d="M217.404 32.884a2.089 2.089 0 01-3.768-.855 2.094 2.094 0 01.95-2.122 2.092 2.092 0 013.171 1.42 2.088 2.088 0 01-.353 1.557zM228.235 40.584a2.097 2.097 0 01-1.359.878 2.09 2.09 0 111.359-.878zM239.063 48.275a2.091 2.091 0 01-3.741-.896 2.093 2.093 0 012.094-2.437c.41.006.809.133 1.147.365a2.078 2.078 0 01.5 2.968zM249.903 55.972a2.084 2.084 0 01-2.164.797 2.092 2.092 0 01-1.433-2.876 2.089 2.089 0 013.671-.29 2.082 2.082 0 01.276 1.612 2.07 2.07 0 01-.35.757zM260.783 63.663a2.095 2.095 0 01-2.169.826 2.086 2.086 0 01-1.595-1.687 2.088 2.088 0 012.116-2.44 2.093 2.093 0 012.005 1.739 2.098 2.098 0 01-.357 1.562z"/>
    <path fill="#A6A6A6" d="M100.804 197.067a2.09 2.09 0 11-3.36-2.49 2.09 2.09 0 013.36 2.49zM111.683 204.756a2.086 2.086 0 01-2.164.796 2.095 2.095 0 01-1.043-.602 2.096 2.096 0 01-.39-2.274 2.088 2.088 0 011.939-1.248 2.094 2.094 0 012.034 1.736c.048.277.039.561-.026.834a2.074 2.074 0 01-.35.758zM122.519 212.475a2.085 2.085 0 01-2.169.827 2.091 2.091 0 01.521-4.127 2.093 2.093 0 012.005 1.738 2.1 2.1 0 01-.357 1.562zM133.342 220.148a2.083 2.083 0 01-2.164.797 2.097 2.097 0 01-1.58-1.681 2.094 2.094 0 01.929-2.111 2.09 2.09 0 012.815 2.995zM144.171 227.838a2.093 2.093 0 01-3.208.183 2.087 2.087 0 01.402-3.188 2.096 2.096 0 013.191 1.414 2.08 2.08 0 01-.385 1.591z"/>
    <path fill="#fff" d="M265.836 2.586c-26.462 8.817-68.981 37.049-108.264 88.11-29.033 37.721-42.804 94.283-48.36 124.031l-19.325-13.728s6.453-59.638 45.334-108.51c19.441-24.396 44.182-45.252 67.234-60.755 28.441-19.22 54.116-30.107 63.381-29.148z" opacity=".2"/>
    <path fill="#4F46E5" d="M125.055 248.9l-41.186-29.264 8.88-16.601 45.056 32.012-12.75 13.853z"/>
    <path fill="#000" d="M137.805 235.047l-6.214 6.746-42.237-32.412 3.398-6.337 45.053 32.003z" opacity=".1"/>
    <path fill="#FCFCFC" d="M264.123 80.106l-14.714 2.723-3.285 15.514-3.297-15.506-14.711-2.727 14.648-3.584 3.341-14.65 3.366 14.642 14.652 3.588zM246.929 27.578l-8.227 1.532-1.832 8.672-1.842-8.674-8.223-1.524 8.188-2.007 1.864-8.185 1.884 8.189 8.188 1.997zM223.427 208.529l-8.219 1.52-1.833 8.672-1.849-8.662-8.222-1.524 8.188-2.007 1.873-8.187 1.874 8.191 8.188 1.997zM61.282 173.798l-8.229 1.523-1.832 8.672-1.84-8.664-8.222-1.524 8.188-2.007 1.864-8.185 1.88 8.179 8.191 2.006z"/>
    <path fill="#4F46E5" d="M115.972 242.343c-12.155 13.64-21.887 29.571-27.494 47.071a104.423 104.423 0 00-2.96 54.681 95.758 95.758 0 0010.199 26.171 99.766 99.766 0 0017.68 22.527 114.533 114.533 0 0023.606 17.238 144.909 144.909 0 0027.434 11.575 145.98 145.98 0 01-28.978-8.405 119.046 119.046 0 01-26.554-15.082 107.333 107.333 0 01-36.753-50.107c-7.092-20.183-8.14-42.487-3.934-63.696 4.206-21.209 13.417-41.445 25.865-59.236l21.889 17.263z" opacity=".6"/>
    <path fill="#fff" d="M96.611 271.258l-5.503 2.54.264 6.414-2.841-5.756-6.05.398 5.397-2.874-.158-6.08 2.784 5.41 6.107-.052zM104.451 390.658l-3.073 1.424.151 3.584-1.595-3.215-3.38.223 3.017-1.606-.082-3.395 1.555 3.019 3.407-.034zM95.182 361.576l-3.076 1.415.154 3.593-1.588-3.227-3.387.235 3.017-1.606-.085-3.405 1.557 3.029 3.408-.034zM87.503 253.365l-3.073 1.424.141 3.587-1.585-3.218-3.38.223 3.017-1.606-.092-3.393 1.555 3.019 3.417-.036zM113.966 396.073a1.005 1.005 0 00-.476 1.118 1 1 0 00.953.752.998.998 0 00.127-1.655 1.004 1.004 0 00-.604-.215zM103.695 244.382a1 1 0 00.477 1.87.998.998 0 00.127-1.655 1 1 0 00-.604-.215zM74.624 340.671a.999.999 0 00.477 1.87.999.999 0 00-.477-1.87zM111.056 391.625a.688.688 0 00-.419.814.69.69 0 00.757.514.688.688 0 00.419-.814.694.694 0 00-.757-.514zM65.94 308.066a.682.682 0 00-.49.827.68.68 0 10.49-.827zM89.95 374.039a1.86 1.86 0 00.918 3.594 1.86 1.86 0 00-.917-3.594zM72.856 299.82a1.848 1.848 0 00-.486 3.383 1.849 1.849 0 10.486-3.383z"/>
  </svg>
  