<svg xmlns="http://www.w3.org/2000/svg" width="150" height="161" fill="none" viewBox="0 0 150 161">
    <path fill="#000" d="M63.426 98.682 7.543 125.578c-1.89.946-1.89 2.384 0 3.292L71.6 159.625a8.825 8.825 0 0 0 3.415.679 8.825 8.825 0 0 0 3.415-.679l55.883-26.896c1.89-.946 1.89-2.383 0-3.292L70.257 98.682a8.848 8.848 0 0 0-3.416-.676 8.848 8.848 0 0 0-3.415.676Z" opacity=".1" />
    <path fill="#455A64" d="M86.24 143.567a14.987 14.987 0 0 1-6.307-.946L24.06 115.878c-3.415-1.41-7.171-5.081-7.41-8.515l-1.72-33.11 3.12-.151 1.719 33.11c.159 2.365 3.13 5.317 5.692 6.386l55.848 26.715a12.64 12.64 0 0 0 4.754.674 12.343 12.343 0 0 0 4.627-1.128l37.293-17.88c.899-.482 1.411-1.069 1.377-1.551-.034-.483-.592-.946-1.537-1.381L67.991 90.222c-3.415-1.41-7.149-5.08-7.388-8.514l-.83-18.353 3.107-.142.842 18.343c.16 2.365 3.12 5.326 5.692 6.386l59.822 28.863c.878.291 1.645.775 2.218 1.399.573.625.932 1.367 1.038 2.148a3.912 3.912 0 0 1-.752 2.246c-.486.68-1.182 1.241-2.015 1.623l-37.27 17.842c-1.882.937-4.023 1.455-6.216 1.504Z" />
    <path fill="#E0E0E0" d="m79.944 142.624.103.047c-3.643 3.926-9.574 5.043-10.906 4.532-1.081-.416-1.708-1.476-.9-2.11.376-.293 1.025-.596 1.64-1.021 1.787-1.23 2.368-3.368 2.539-5.043l7.524 3.595Z" />
    <path fill="#37474F" d="M76.199 148.688c-.1-1.721-.687-3.399-1.713-4.896-1.027-1.498-2.464-2.773-4.195-3.722-1.72-.833-3.267-.88-4.36-.274l-4.041 1.892 8.458 12.127 4.007-1.892c.635-.346 1.142-.832 1.468-1.402a2.94 2.94 0 0 0 .376-1.833Z" />
    <path fill="#455A64" d="M66.102 142.055c1.731.947 3.168 2.222 4.193 3.72 1.025 1.498 1.609 3.177 1.703 4.898 0 3.16-2.698 4.427-5.988 2.838-1.727-.951-3.161-2.227-4.186-3.724-1.024-1.497-1.61-3.174-1.71-4.894.023-3.169 2.71-4.437 5.988-2.838Z" />
    <path fill="#263238" d="M64.052 146.796c0-1.24.911-1.798 2.027-1.259.61.37 1.109.854 1.455 1.412a3.5 3.5 0 0 1 .537 1.805c0 1.239-.922 1.797-2.026 1.258a4.31 4.31 0 0 1-1.46-1.41 3.462 3.462 0 0 1-.532-1.806Z" />
    <path fill="#F5F5F5" d="M69.608 137.686s.398 5.836-2.823 8.069c-.604.416-1.264.719-1.64 1.012-.82.634-.17 1.694.9 2.11 1.56.605 9.55-1.107 12.67-6.84l-9.107-4.351Z" />
    <path fill="#263238" d="M66.204 147.145c.177.086.328.205.44.348.113.143.184.306.209.475 0 .322-.24.454-.57.312a1.25 1.25 0 0 1-.447-.346.99.99 0 0 1-.213-.477c-.01-.312.24-.454.581-.312Z" />
    <path fill="#E0E0E0" d="m35.775 121.509.103.047c-3.643 3.926-9.563 5.042-10.906 4.522-1.07-.407-1.708-1.476-.888-2.109.376-.294 1.025-.587 1.64-1.013 1.775-1.23 2.367-3.377 2.538-5.042l7.513 3.595Z" />
    <path fill="#37474F" d="M32.064 127.572c-.097-1.721-.682-3.398-1.707-4.896-1.024-1.498-2.46-2.773-4.19-3.722-1.719-.842-3.267-.88-4.371-.284l-4.03 1.892 8.458 12.128 4.007-1.892c.632-.347 1.137-.831 1.46-1.4a2.93 2.93 0 0 0 .373-1.826Z" />
    <path fill="#455A64" d="M21.978 120.93c1.728.951 3.162 2.227 4.186 3.724 1.025 1.497 1.61 3.174 1.71 4.894 0 3.16-2.697 4.427-5.987 2.838-1.728-.951-3.162-2.227-4.186-3.724-1.025-1.498-1.61-3.174-1.71-4.894.022-3.169 2.709-4.437 5.987-2.838Z" />
    <path fill="#263238" d="M19.918 125.681c0-1.24.922-1.807 2.037-1.259.612.37 1.11.853 1.456 1.412.346.558.53 1.177.536 1.805 0 1.23-.922 1.797-2.026 1.258a4.332 4.332 0 0 1-1.463-1.41 3.477 3.477 0 0 1-.54-1.806Z" />
    <path fill="#F5F5F5" d="M25.53 116.57s.387 5.837-2.823 8.06c-.615.426-1.264.729-1.64 1.022-.82.624-.17 1.693.9 2.11 1.56.596 9.55-1.107 12.658-6.84l-9.095-4.352Z" />
    <path fill="#263238" d="M22.115 126.031c.177.087.328.206.44.349a.992.992 0 0 1 .209.474c0 .312-.24.454-.581.312a1.255 1.255 0 0 1-.44-.348.996.996 0 0 1-.209-.475c-.057-.321.205-.454.58-.312Z" />
    <path fill="#E0E0E0" d="M124.159 117.318c-3.654 3.916-9.574 5.042-10.906 4.522-1.07-.407-1.707-1.476-.888-2.11.376-.284 1.025-.586 1.628-1.012 1.787-1.23 2.379-3.377 2.539-5.042l7.069 3.377.455.218.103.047Z" />
    <path fill="#37474F" d="M120.311 123.335c-.099-1.722-.686-3.4-1.713-4.897-1.027-1.498-2.464-2.773-4.195-3.722-1.719-.832-3.267-.879-4.36-.274l-4.041 1.892 8.469 12.128 3.996-1.892c.634-.348 1.141-.833 1.466-1.404.325-.57.456-1.204.378-1.831Z" />
    <path fill="#455A64" d="M110.214 116.692c1.731.947 3.168 2.222 4.193 3.72 1.025 1.498 1.609 3.176 1.704 4.898 0 3.159-2.698 4.427-5.988 2.838-1.73-.952-3.165-2.23-4.189-3.729-1.025-1.498-1.61-3.177-1.708-4.899.023-3.16 2.709-4.427 5.988-2.828Z" />
    <path fill="#263238" d="M108.165 121.442c0-1.239.91-1.797 2.026-1.258.611.369 1.11.853 1.456 1.411.346.559.53 1.177.536 1.805 0 1.24-.922 1.798-2.026 1.259a4.332 4.332 0 0 1-1.457-1.411 3.477 3.477 0 0 1-.535-1.806Z" />
    <path fill="#F5F5F5" d="M113.72 112.332s.398 5.837-2.823 8.07c-.604.416-1.264.719-1.64 1.012-.819.634-.17 1.693.9 2.109 1.559.606 9.551-1.106 12.67-6.839l-9.107-4.352Z" />
    <path fill="#263238" d="M110.316 121.791c.177.087.328.206.441.349a.997.997 0 0 1 .208.475c0 .312-.239.454-.569.312a1.265 1.265 0 0 1-.448-.346.982.982 0 0 1-.212-.477c.034-.313.239-.454.58-.313Z" />
    <path fill="#E0E0E0" d="m80.047 96.05.102.047c-3.643 3.926-9.574 5.042-10.906 4.532-1.07-.417-1.707-1.476-.887-2.11.375-.293 1.024-.596 1.639-1.022 1.776-1.23 2.368-3.368 2.538-5.042l7.514 3.595Z" />
    <path fill="#37474F" d="M76.301 102.115c-.097-1.721-.682-3.398-1.707-4.896-1.024-1.498-2.46-2.773-4.19-3.722-1.718-.842-3.278-.88-4.37-.284l-4.03 1.892 8.458 12.128 4.007-1.892c.633-.345 1.14-.829 1.463-1.399a2.91 2.91 0 0 0 .37-1.827Z" />
    <path fill="#455A64" d="M66.215 95.492c1.73.95 3.164 2.226 4.19 3.723 1.024 1.498 1.609 3.175 1.707 4.895 0 3.16-2.71 4.428-5.988 2.838-1.727-.951-3.161-2.227-4.186-3.724-1.024-1.497-1.61-3.174-1.71-4.894.022-3.178 2.697-4.446 5.987-2.838Z" />
    <path fill="#263238" d="M64.155 100.222c0-1.23.922-1.797 2.026-1.258.612.37 1.112.853 1.46 1.411.348.558.534 1.176.544 1.805 0 1.239-.922 1.798-2.038 1.258a4.335 4.335 0 0 1-1.456-1.411 3.49 3.49 0 0 1-.536-1.805Z" />
    <path fill="#F5F5F5" d="M69.722 91.113s.387 5.837-2.824 8.07c-.614.416-1.263.719-1.639 1.012-.82.634-.182 1.693.888 2.11 1.56.605 9.563-1.107 12.67-6.84l-9.095-4.352Z" />
    <path fill="#263238" d="M66.306 100.573c.18.083.334.202.447.345a.948.948 0 0 1 .202.478c0 .321-.227.454-.569.312a1.24 1.24 0 0 1-.443-.347.977.977 0 0 1-.206-.476c-.022-.312.24-.454.57-.312Z" />
    <path fill="#37474F" d="m60.09 13.7-1.661.795-1.287-4.333c-1.126-3.005-3.471-5.593-6.636-7.322l-1.526-.738a3.907 3.907 0 0 0-1.451-.276c-.503 0-.999.094-1.452.276L35.718 7.05a1.09 1.09 0 0 1-.698.076.993.993 0 0 1-.32-.134.815.815 0 0 1-.234-.226.654.654 0 0 1-.092-.577.8.8 0 0 1 .422-.464L45.156.778a6.063 6.063 0 0 1 2.367-.475c.824 0 1.635.163 2.368.475l1.537.728c3.59 1.948 6.245 4.88 7.502 8.287l1.16 3.907Z" />
    <path fill="#F000B9" d="m13.463 20.018-2.994-4.313L35.513 3.719c.246-.13.534-.195.825-.185.291.01.572.095.803.241a4.344 4.344 0 0 1 1.492 1.315c.368.53.582 1.122.626 1.732a1.02 1.02 0 0 1-.15.698c-.135.214-.345.39-.602.503L13.463 20.018Z" />
    <path fill="#000" d="m13.463 20.018-2.994-4.313L35.513 3.719c.246-.13.534-.195.825-.185.291.01.572.095.803.241a4.344 4.344 0 0 1 1.492 1.315c.368.53.582 1.122.626 1.732a1.02 1.02 0 0 1-.15.698c-.135.214-.345.39-.602.503L13.463 20.018Z" opacity=".25" />
    <path fill="#F000B9" d="M10.469 15.706c.786-.378 2.095.284 2.914 1.476.82 1.192.865 2.46.08 2.838-.785.378-2.095-.284-2.926-1.476-.83-1.192-.853-2.46-.068-2.838Z" />
    <path fill="#37474F" d="m12.359 36.84-1.662.794-1.287-4.332c-1.122-3.007-3.468-5.596-6.636-7.322l-1.526-.738a2.024 2.024 0 0 1-.908-.635c-.222-.28-.34-.61-.34-.945 0-.336.118-.664.34-.945.222-.28.537-.502.908-.635l9.881-4.73c.25-.123.65.085.9.445.25.359.273.766 0 .88l-9.881 4.73c-.274.122-.33.236-.33.255 0 .019.056.123.33.255l1.525.738c3.595 1.94 6.251 4.871 7.502 8.278l1.184 3.907Z" />
    <path fill="#F000B9" d="M65.555 64.2 15.66 88.142l72.925 34.993 49.906-23.953-72.936-34.984Z" />
    <path fill="#000" d="M65.555 64.2 15.66 88.142l72.925 34.993 49.906-23.953-72.936-34.984Z" opacity=".4" />
    <path fill="#F000B9" d="M10.697 37.673 60.09 13.69 65.555 64.2 15.66 88.143l-4.963-50.47Z" />
    <path fill="#000" d="M10.697 37.673 60.09 13.69 65.555 64.2 15.66 88.143l-4.963-50.47Z" opacity=".2" />
    <path fill="#F000B9" d="M60.09 13.691 65.556 64.2l72.936 35.003L150 56.849 60.09 13.69Zm25.5 48.56a4.965 4.965 0 0 1-3.175-.231c-.98-.422-1.721-1.148-2.06-2.021L68.31 34.002a2.766 2.766 0 0 1-.188-2.662c.196-.43.5-.82.89-1.145a4.08 4.08 0 0 1 1.374-.744 4.657 4.657 0 0 1 3.204.143c.491.21.924.504 1.27.863.346.358.596.773.736 1.218L87.64 57.653c.46.835.503 1.789.119 2.65-.385.862-1.164 1.563-2.168 1.947Zm22.768 8.901a4.939 4.939 0 0 1-3.173-.228c-.979-.422-1.717-1.15-2.052-2.023L91.078 42.914a2.771 2.771 0 0 1-.214-2.696c.197-.436.504-.832.9-1.162.397-.33.873-.585 1.397-.749a4.677 4.677 0 0 1 3.244.175c.495.22.927.524 1.269.894.341.37.584.795.712 1.248l12.055 25.997c.437.832.463 1.772.073 2.62-.389.847-1.164 1.533-2.156 1.911Zm22.768 8.902a4.953 4.953 0 0 1-3.168-.227c-.978-.42-1.718-1.144-2.057-2.015l-12.045-25.996a2.892 2.892 0 0 1-.471-1.326 2.776 2.776 0 0 1 .23-1.37c.193-.437.496-.836.889-1.168a4.095 4.095 0 0 1 1.391-.76 4.67 4.67 0 0 1 3.247.156c.497.216.932.518 1.277.886.345.367.592.792.723 1.245l12.044 25.997c.456.834.495 1.785.108 2.643-.386.858-1.166 1.554-2.168 1.935Z" />
    <path fill="#000" d="M60.09 13.691 65.556 64.2l72.936 35.003L150 56.849 60.09 13.69Zm25.5 48.56a4.965 4.965 0 0 1-3.175-.231c-.98-.422-1.721-1.148-2.06-2.021L68.31 34.002a2.766 2.766 0 0 1-.188-2.662c.196-.43.5-.82.89-1.145a4.08 4.08 0 0 1 1.374-.744 4.657 4.657 0 0 1 3.204.143c.491.21.924.504 1.27.863.346.358.596.773.736 1.218L87.64 57.653c.46.835.503 1.789.119 2.65-.385.862-1.164 1.563-2.168 1.947Zm22.768 8.901a4.939 4.939 0 0 1-3.173-.228c-.979-.422-1.717-1.15-2.052-2.023L91.078 42.914a2.771 2.771 0 0 1-.214-2.696c.197-.436.504-.832.9-1.162.397-.33.873-.585 1.397-.749a4.677 4.677 0 0 1 3.244.175c.495.22.927.524 1.269.894.341.37.584.795.712 1.248l12.055 25.997c.437.832.463 1.772.073 2.62-.389.847-1.164 1.533-2.156 1.911Zm22.768 8.902a4.953 4.953 0 0 1-3.168-.227c-.978-.42-1.718-1.144-2.057-2.015l-12.045-25.996a2.892 2.892 0 0 1-.471-1.326 2.776 2.776 0 0 1 .23-1.37c.193-.437.496-.836.889-1.168a4.095 4.095 0 0 1 1.391-.76 4.67 4.67 0 0 1 3.247.156c.497.216.932.518 1.277.886.345.367.592.792.723 1.245l12.044 25.997c.456.834.495 1.785.108 2.643-.386.858-1.166 1.554-2.168 1.935Z" opacity=".1" />
    <path fill="#263238" d="M80.787 6.995a6.826 6.826 0 0 0-3.009-.527 6.635 6.635 0 0 0-2.91.82c-4.862 2.337-8.8 9.063-8.8 15.004v14.01c0 .084.02.166.058.243a.64.64 0 0 0 .165.206.79.79 0 0 0 .247.137.901.901 0 0 0 .584 0 .79.79 0 0 0 .247-.137.641.641 0 0 0 .166-.206.543.543 0 0 0 .058-.243v-14.01c0-5.534 3.608-11.769 8.037-13.897a4.833 4.833 0 0 1 2.148-.655 5.024 5.024 0 0 1 2.246.362c1.821.88 2.869 3.103 2.869 6.11v13.955c.003.169.085.33.23.448.145.119.34.186.544.186a.848.848 0 0 0 .539-.186.585.585 0 0 0 .223-.448V14.213c0-3.472-1.332-6.102-3.642-7.218Z" />
    <path fill="#F000B9" d="m112.001 83.509-4.713-64.263-9.517-4.54-4.428 59.853L112 83.51Z" />
    <path fill="#fff" d="m112.001 83.509-4.713-64.263-9.517-4.54-4.428 59.853L112 83.51Z" opacity=".4" />
    <path fill="#F000B9" d="m52.714 36.303-4.428 59.854L93.343 74.56l4.428-59.855-45.057 21.598Z" />
    <path fill="#fff" d="m52.714 36.303-4.428 59.854L93.343 74.56l4.428-59.855-45.057 21.598Z" opacity=".3" />
    <path fill="#000" d="m52.714 36.303-4.428 59.854L93.343 74.56l4.428-59.855-45.057 21.598Z" opacity=".05" />
    <path fill="#F000B9" d="m52.714 36.303 9.517 4.55 4.713 64.263-18.658-8.959 4.428-59.854Z" />
    <path fill="#fff" d="m52.714 36.303 9.517 4.55 4.713 64.263-18.658-8.959 4.428-59.854Z" opacity=".55" />
    <path fill="#F000B9" d="m66.944 105.116-8.276-10.198-1.047-28.115-.843 27.217-8.492 2.138 18.658 8.958Z" opacity=".5" />
    <path fill="#F000B9" d="M107.288 19.246 62.231 40.853l4.713 64.263 45.102-21.598-4.758-64.272ZM76.37 42.423c-.934.445-1.696.076-1.696-.823a2.76 2.76 0 0 1 .498-1.388 3.469 3.469 0 0 1 1.198-1.052c.933-.454 1.696-.076 1.696.823-.03.49-.198.966-.493 1.39a3.423 3.423 0 0 1-1.203 1.05Zm16.836-8.135c-.945.444-1.696.075-1.696-.823.03-.49.2-.966.494-1.39a3.432 3.432 0 0 1 1.202-1.051c.934-.454 1.697-.085 1.697.823-.031.49-.201.965-.496 1.39a3.44 3.44 0 0 1-1.2 1.05Z" />
    <path fill="#fff" d="M107.288 19.246 62.231 40.853l4.713 64.263 45.102-21.598-4.758-64.272ZM76.37 42.423c-.934.445-1.696.076-1.696-.823a2.76 2.76 0 0 1 .498-1.388 3.469 3.469 0 0 1 1.198-1.052c.933-.454 1.696-.076 1.696.823-.03.49-.198.966-.493 1.39a3.423 3.423 0 0 1-1.203 1.05Zm16.836-8.135c-.945.444-1.696.075-1.696-.823.03-.49.2-.966.494-1.39a3.432 3.432 0 0 1 1.202-1.051c.934-.454 1.697-.085 1.697.823-.031.49-.201.965-.496 1.39a3.44 3.44 0 0 1-1.2 1.05Z" opacity=".7" />
    <path fill="#37474F" d="M90.326 11.489a6.755 6.755 0 0 0-3.008-.535 6.565 6.565 0 0 0-2.911.828c-4.861 2.327-8.8 9.053-8.8 14.994v14.01c0 .084.02.167.058.243a.64.64 0 0 0 .165.206c.071.059.155.106.248.138a.899.899 0 0 0 .584 0 .785.785 0 0 0 .247-.138.64.64 0 0 0 .165-.206.543.543 0 0 0 .058-.242v-14.01c0-5.535 3.61-11.769 8.037-13.898.63-.374 1.37-.6 2.143-.651a5.024 5.024 0 0 1 2.24.358c1.833.88 2.88 3.113 2.88 6.12v13.945c.003.17.086.33.23.449a.9.9 0 0 0 .835.137.792.792 0 0 0 .249-.138.64.64 0 0 0 .165-.205.543.543 0 0 0 .058-.243V18.707c0-3.481-1.275-6.111-3.643-7.218Z" />
    <path fill="#F000B9" d="m10.73 37.672 4.964 50.47 72.925 35.002 11.52-42.362-89.408-43.11Zm28.79 49.685a4.965 4.965 0 0 1-3.168-.235c-.978-.421-1.717-1.146-2.057-2.017L22.24 59.11a2.768 2.768 0 0 1-.18-2.655 3.27 3.27 0 0 1 .887-1.143 4.08 4.08 0 0 1 1.37-.743 4.655 4.655 0 0 1 3.195.137c.492.208.925.5 1.272.855.347.356.6.77.742 1.212L41.58 82.768c.454.84.488 1.794.095 2.655-.393.86-1.18 1.556-2.19 1.934h.035Zm22.768 8.902a4.951 4.951 0 0 1-3.17-.232c-.98-.421-1.718-1.148-2.055-2.02l-12.078-25.95a2.767 2.767 0 0 1-.188-2.662c.196-.428.499-.819.889-1.145.39-.325.858-.579 1.374-.744a4.657 4.657 0 0 1 3.204.144c.492.21.925.504 1.27.862.346.359.597.774.736 1.219l12.056 25.977a2.95 2.95 0 0 1 .08 2.623c-.385.849-1.153 1.54-2.14 1.928h.022Zm22.768 8.902a4.94 4.94 0 0 1-3.173-.228c-.98-.422-1.718-1.15-2.053-2.024L67.775 76.913a2.768 2.768 0 0 1-.188-2.662c.196-.43.5-.82.89-1.146a4.08 4.08 0 0 1 1.374-.744 4.66 4.66 0 0 1 3.204.143c.491.21.924.504 1.27.863.346.358.596.774.736 1.218l12.055 25.997c.454.837.49 1.789.099 2.648-.39.858-1.176 1.553-2.182 1.931h.023Z" />
    <path fill="#F000B9" d="M100.105 80.774 150 56.83l-11.509 42.363-49.907 23.943 11.521-42.362Z" />
    <path fill="#000" d="M100.105 80.774 150 56.83l-11.509 42.363-49.907 23.943 11.521-42.362Z" opacity=".2" />
</svg>
  