<svg  viewBox="0 0 155 155" fill="none" xmlns="http://www.w3.org/2000/svg">
    <path d="M0.459943 77C0.445529 80.3763 0.649287 83.75 1.06994 87.1C2.97386 101.996 9.19631 116.008 18.9698 127.41C28.7432 138.811 41.6402 147.102 56.07 151.26C62.8993 153.218 69.9655 154.228 77.07 154.26C82.4714 154.285 87.8607 153.746 93.1499 152.65C103.231 150.527 112.785 146.408 121.249 140.534C129.713 134.66 136.914 127.151 142.43 118.45C143.14 117.33 143.82 116.18 144.48 115.03C147.533 109.609 149.914 103.837 151.57 97.84C152.13 95.84 152.57 93.74 153.01 91.64C153.45 89.54 153.72 87.41 153.94 85.24C154.2 82.74 154.333 80.21 154.34 77.65C154.357 74.5659 154.187 71.4835 153.83 68.42C153.59 66.3 153.257 64.21 152.83 62.15C149.833 47.289 142.516 33.6433 131.796 22.9235C121.077 12.2037 107.431 4.88676 92.57 1.89004C90.51 1.47004 88.4099 1.14004 86.2899 0.890041C83.4419 0.557767 80.5773 0.387495 77.71 0.380042C74.9614 0.361919 72.2138 0.495453 69.4799 0.78004C67.3199 0.99004 65.1799 1.31004 63.0799 1.71004C60.9799 2.11004 58.9099 2.58004 56.8699 3.14004C50.8713 4.79517 45.0982 7.17963 39.6799 10.24C38.5199 10.89 37.3699 11.57 36.2499 12.24C23.9147 20.0726 14.0479 31.2361 7.78994 44.44C5.20877 49.8892 3.28524 55.6262 2.05994 61.53C1.00957 66.6201 0.473542 71.8028 0.459943 77V77Z" fill="#4A53E9" />
    <path opacity="0.1" d="M0.459943 77C0.445529 80.3763 0.649287 83.75 1.06994 87.1C2.97386 101.996 9.19631 116.008 18.9698 127.41C28.7432 138.811 41.6402 147.102 56.07 151.26C62.8993 153.218 69.9655 154.228 77.07 154.26C82.4714 154.285 87.8607 153.746 93.1499 152.65C103.231 150.527 112.785 146.408 121.249 140.534C129.713 134.66 136.914 127.151 142.43 118.45C143.14 117.33 143.82 116.18 144.48 115.03C147.533 109.609 149.914 103.837 151.57 97.84C152.13 95.84 152.57 93.74 153.01 91.64C153.45 89.54 153.72 87.41 153.94 85.24C154.2 82.74 154.333 80.21 154.34 77.65C154.357 74.5659 154.187 71.4835 153.83 68.42C153.59 66.3 153.257 64.21 152.83 62.15C149.833 47.289 142.516 33.6433 131.796 22.9235C121.077 12.2037 107.431 4.88676 92.57 1.89004C90.51 1.47004 88.4099 1.14004 86.2899 0.890041C83.4419 0.557767 80.5773 0.387495 77.71 0.380042C74.9614 0.361919 72.2138 0.495453 69.4799 0.78004C67.3199 0.99004 65.1799 1.31004 63.0799 1.71004C60.9799 2.11004 58.9099 2.58004 56.8699 3.14004C50.8713 4.79517 45.0982 7.17963 39.6799 10.24C38.5199 10.89 37.3699 11.57 36.2499 12.24C23.9147 20.0726 14.0479 31.2361 7.78994 44.44C5.20877 49.8892 3.28524 55.6262 2.05994 61.53C1.00957 66.6201 0.473542 71.8028 0.459943 77V77Z" fill="white" />
    <path opacity="0.4" d="M20.0699 77.32C20.0679 91.8606 25.592 105.859 35.5236 116.479C45.4552 127.099 59.0518 133.548 73.5599 134.52C74.8199 134.6 76.1199 134.65 77.4099 134.65C92.485 134.451 106.875 128.323 117.465 117.592C128.055 106.861 133.993 92.3913 133.993 77.315C133.993 62.2386 128.055 47.7688 117.465 37.0381C106.875 26.3073 92.485 20.1791 77.4099 19.98C76.1199 19.98 74.8199 19.98 73.5599 20.11C59.0518 21.0863 45.4565 27.5382 35.5256 38.1597C25.5947 48.7812 20.0701 62.779 20.0699 77.32V77.32Z" fill="black" />
    <path d="M22.62 77.32C22.62 78.32 22.62 79.32 22.7 80.24C23.4124 93.6047 28.9937 106.246 38.3899 115.777C47.7861 125.307 60.3468 131.068 73.7 131.97L74.45 132.02C75.45 132.02 76.39 132.1 77.37 132.1C91.101 132.126 104.34 126.99 114.46 117.709C124.58 108.428 130.841 95.6821 132 82C132.14 80.45 132.2 78.89 132.2 77.3C132.2 75.71 132.15 74.41 132.04 72.99C131.817 70.0462 131.348 67.1261 130.64 64.26C128.243 54.5343 123.23 45.6503 116.144 38.5709C109.057 31.4916 100.168 26.4871 90.44 24.1C87.5739 23.3918 84.6538 22.9235 81.71 22.7C80.29 22.59 78.85 22.54 77.4 22.54C76.17 22.54 74.94 22.54 73.73 22.66C73.39 22.66 73.05 22.66 72.73 22.74C64.7488 23.4073 57.014 25.8319 50.08 29.84C41.7337 34.64 34.8022 41.5579 29.9859 49.8947C25.1696 58.2316 22.639 67.692 22.65 77.32H22.62Z" fill="#4A53E9" />
    <path opacity="0.5" d="M22.62 77.32C22.62 78.32 22.62 79.32 22.7 80.24C23.4124 93.6047 28.9937 106.246 38.3899 115.777C47.7861 125.307 60.3468 131.068 73.7 131.97L74.45 132.02C75.45 132.02 76.39 132.1 77.37 132.1C91.101 132.126 104.34 126.99 114.46 117.709C124.58 108.428 130.841 95.6821 132 82C132.14 80.45 132.2 78.89 132.2 77.3C132.2 75.71 132.15 74.41 132.04 72.99C131.817 70.0462 131.348 67.1261 130.64 64.26C128.243 54.5343 123.23 45.6503 116.144 38.5709C109.057 31.4916 100.168 26.4871 90.44 24.1C87.5739 23.3918 84.6538 22.9235 81.71 22.7C80.29 22.59 78.85 22.54 77.4 22.54C76.17 22.54 74.94 22.54 73.73 22.66C73.39 22.66 73.05 22.66 72.73 22.74C64.7488 23.4073 57.014 25.8319 50.08 29.84C41.7337 34.64 34.8022 41.5579 29.9859 49.8947C25.1696 58.2316 22.639 67.692 22.65 77.32H22.62Z" fill="black" />
    <path d="M116 116.19C125.242 107.068 130.918 94.9409 132 82C132.14 80.45 132.21 78.89 132.21 77.3C132.21 75.71 132.15 74.41 132.04 72.99C131.816 70.0462 131.348 67.1261 130.64 64.26C128.243 54.5343 123.23 45.6503 116.143 38.5709C109.057 31.4916 100.168 26.4871 90.4399 24.1C87.5739 23.3918 84.6538 22.9235 81.7099 22.7C80.2899 22.59 78.8499 22.54 77.3999 22.54C76.1699 22.54 74.9399 22.54 73.7299 22.66C73.3899 22.66 73.0499 22.66 72.7299 22.74C64.7487 23.4073 57.0139 25.8319 50.0799 29.84C47.6765 31.2477 45.3832 32.8356 43.2199 34.59C38.1 39.6653 34.0386 45.7067 31.2714 52.3637C28.5043 59.0207 27.0864 66.1608 27.1 73.37C27.1 74.37 27.0999 75.32 27.1899 76.29C27.8981 89.6562 33.478 102.3 42.8751 111.831C52.2721 121.363 64.8352 127.122 78.1899 128.02H78.9299C79.9299 128.07 80.8799 128.1 81.8599 128.1C94.2727 128.113 106.316 123.878 115.99 116.1L116 116.19Z" fill="#4A53E9" />
    <path opacity="0.25" d="M116 116.19C125.242 107.068 130.918 94.9409 132 82C132.14 80.45 132.21 78.89 132.21 77.3C132.21 75.71 132.15 74.41 132.04 72.99C131.816 70.0462 131.348 67.1261 130.64 64.26C128.243 54.5343 123.23 45.6503 116.143 38.5709C109.057 31.4916 100.168 26.4871 90.4399 24.1C87.5739 23.3918 84.6538 22.9235 81.7099 22.7C80.2899 22.59 78.8499 22.54 77.3999 22.54C76.1699 22.54 74.9399 22.54 73.7299 22.66C73.3899 22.66 73.0499 22.66 72.7299 22.74C64.7487 23.4073 57.0139 25.8319 50.0799 29.84C47.6765 31.2477 45.3832 32.8356 43.2199 34.59C38.1 39.6653 34.0386 45.7067 31.2714 52.3637C28.5043 59.0207 27.0864 66.1608 27.1 73.37C27.1 74.37 27.0999 75.32 27.1899 76.29C27.8981 89.6562 33.478 102.3 42.8751 111.831C52.2721 121.363 64.8352 127.122 78.1899 128.02H78.9299C79.9299 128.07 80.8799 128.1 81.8599 128.1C94.2727 128.113 106.316 123.878 115.99 116.1L116 116.19Z" fill="black" />
    <path d="M69.1599 36.8302L69.0999 44.2102C69.0999 44.2102 61.5099 42.8702 52.8599 49.7002C52.4999 49.9902 52.1799 50.2702 51.8599 50.5502C50.0674 52.1023 48.6423 54.0335 47.6876 56.204C46.7329 58.3744 46.2726 60.73 46.3399 63.1002V63.1002C46.2689 65.4917 46.7351 67.8687 47.7043 70.0562C48.6734 72.2437 50.1208 74.1861 51.9399 75.7402C52.2299 75.9902 52.5699 76.2202 52.8599 76.4702L52.9499 76.5602L53.9499 77.2802C54.252 77.4942 54.5659 77.6912 54.8899 77.8702C55.0159 77.9536 55.146 78.0303 55.2799 78.1002C55.5175 78.2642 55.7684 78.4081 56.0299 78.5302C58.2102 79.6936 60.4849 80.6705 62.8299 81.4502C63.9799 81.8502 65.1699 82.2102 66.3599 82.5402C68.0799 83.0302 69.7999 83.4802 71.4399 83.9002L73.4399 84.3902C78.1199 85.5202 81.5299 86.4402 83.6899 87.6602C84.9016 88.21 85.8769 89.1746 86.4399 90.3802C86.6937 91.0163 86.8227 91.6953 86.82 92.3802C86.82 95.2502 84.4299 97.5702 77.9299 97.3802C71.0099 97.1202 67.1199 94.3802 66.1899 90.1602L47.1899 93.7202C50.0599 102.42 57.7899 108.1 69.9199 110.18V119.69L85.5599 120.27V110.76C92.1299 110.21 97.5599 108.42 101.26 105.41L101.36 105.33C103.281 103.754 104.811 101.755 105.831 99.4896C106.851 97.2239 107.333 94.7531 107.24 92.2702C107.3 79.7402 97.3499 75.2702 86.6999 72.3502C76.7499 69.6802 67.8999 69.0202 67.9199 62.9302C67.9199 59.1302 71.3999 57.5502 76.5199 57.7302C84.6899 58.0202 87.8699 62.8402 88.5199 66.3402L108.52 62.7102C108.074 60.9159 107.402 59.1854 106.52 57.5602C105.008 54.8458 102.906 52.505 100.37 50.7102C95.9299 47.5102 90.2899 45.7102 84.6299 44.8302V35.2902L69.1499 34.4302L69.1599 36.8302Z" fill="#4A53E9" />
    <path opacity="0.1" d="M69.1599 36.8302L69.0999 44.2102C69.0999 44.2102 61.5099 42.8702 52.8599 49.7002C52.4999 49.9902 52.1799 50.2702 51.8599 50.5502C50.0674 52.1023 48.6423 54.0335 47.6876 56.204C46.7329 58.3744 46.2726 60.73 46.3399 63.1002V63.1002C46.2689 65.4917 46.7351 67.8687 47.7043 70.0562C48.6734 72.2437 50.1208 74.1861 51.9399 75.7402C52.2299 75.9902 52.5699 76.2202 52.8599 76.4702L52.9499 76.5602L53.9499 77.2802C54.252 77.4942 54.5659 77.6912 54.8899 77.8702C55.0159 77.9536 55.146 78.0303 55.2799 78.1002C55.5175 78.2642 55.7684 78.4081 56.0299 78.5302C58.2102 79.6936 60.4849 80.6705 62.8299 81.4502C63.9799 81.8502 65.1699 82.2102 66.3599 82.5402C68.0799 83.0302 69.7999 83.4802 71.4399 83.9002L73.4399 84.3902C78.1199 85.5202 81.5299 86.4402 83.6899 87.6602C84.9016 88.21 85.8769 89.1746 86.4399 90.3802C86.6937 91.0163 86.8227 91.6953 86.82 92.3802C86.82 95.2502 84.4299 97.5702 77.9299 97.3802C71.0099 97.1202 67.1199 94.3802 66.1899 90.1602L47.1899 93.7202C50.0599 102.42 57.7899 108.1 69.9199 110.18V119.69L85.5599 120.27V110.76C92.1299 110.21 97.5599 108.42 101.26 105.41L101.36 105.33C103.281 103.754 104.811 101.755 105.831 99.4896C106.851 97.2239 107.333 94.7531 107.24 92.2702C107.3 79.7402 97.3499 75.2702 86.6999 72.3502C76.7499 69.6802 67.8999 69.0202 67.9199 62.9302C67.9199 59.1302 71.3999 57.5502 76.5199 57.7302C84.6899 58.0202 87.8699 62.8402 88.5199 66.3402L108.52 62.7102C108.074 60.9159 107.402 59.1854 106.52 57.5602C105.008 54.8458 102.906 52.505 100.37 50.7102C95.9299 47.5102 90.2899 45.7102 84.6299 44.8302V35.2902L69.1499 34.4302L69.1599 36.8302Z" fill="white" />
</svg>