<svg width="631" height="324" viewbox="0 0 631 324" fill="none" xmlns="http://www.w3.org/2000/svg">
    <path d="M11.1389 251.506C10.3969 259.2 117.384 323.723 340.77 273.954C532.729 231.211 614.553 128.305 614.553 128.305L11.1389 251.506Z" fill="#5F5AF6"/>
    <path opacity="0.2" d="M11.1389 251.506C10.3969 259.2 117.384 323.723 340.77 273.954C532.729 231.211 614.553 128.305 614.553 128.305L11.1389 251.506Z" fill="black"/>
    <path d="M319.006 228.313C486.063 195.277 617.93 150.496 613.534 128.289C609.14 106.084 470.151 114.861 303.091 147.897C136.034 180.932 4.16913 225.713 8.56318 247.92C12.9569 270.125 151.948 261.346 319.006 228.313Z" fill="#5F5AF6"/>
    <path d="M170.078 197.925C170.078 197.925 140.689 61.4255 274.861 23.6167C409.033 -14.1943 442.756 128.794 442.756 128.794C442.756 128.794 364.254 209.375 170.078 197.925Z" fill="#A9B6D0"/>
    <path d="M222.005 65.4488C222.561 66.0374 218.345 70.4219 212.372 78.0576C210.903 79.9634 209.278 82.0537 207.673 84.4048C206.067 86.7585 204.323 89.2715 202.682 91.9347C195.354 103.661 189.701 116.347 185.882 129.629C185.058 132.717 184.207 135.627 183.661 138.392C183.114 141.154 182.425 143.776 182.083 146.143C180.403 155.66 179.98 161.716 179.166 161.717C178.349 161.715 177.647 155.623 178.394 145.575C178.593 143.086 178.862 140.365 179.371 137.485C179.878 134.606 180.521 131.523 181.201 128.293C184.599 114.307 190.485 101.044 198.577 89.1324C200.5 86.4474 202.277 83.867 204.182 81.612C205.863 79.4754 207.652 77.4258 209.542 75.4708C216.421 68.3114 221.601 64.9203 222.005 65.4488Z" fill="#9CABC9"/>
    <path d="M590.373 128.868C590.193 129.283 589.965 129.673 589.695 130.033C588.953 131.093 588.131 132.09 587.235 133.019C583.832 136.328 579.986 139.139 575.809 141.373C548.78 156.866 519.663 168.34 489.363 175.442C483.473 176.789 478.818 177.707 475.573 178.271L471.78 178.835C471.341 178.932 470.897 178.998 470.448 179.033C470.867 178.86 471.308 178.74 471.756 178.674L475.491 177.852C478.754 177.141 483.453 176.115 489.23 174.683C519.361 167.21 548.373 155.763 575.519 140.638C579.686 138.485 583.556 135.797 587.037 132.641C588.214 131.442 589.328 130.183 590.373 128.868Z" fill="#9CABC9"/>
    <path d="M287.908 284.052C287.198 283.846 286.514 283.556 285.872 283.189C284.057 282.318 282.303 281.322 280.624 280.21C278.107 278.588 275.723 276.773 273.49 274.781C270.758 272.34 268.238 269.676 265.959 266.813C263.71 263.929 261.701 260.868 259.955 257.656C258.552 255.027 257.347 252.297 256.349 249.491C255.666 247.602 255.109 245.671 254.676 243.709C254.488 242.996 254.379 242.264 254.352 241.526C254.55 241.497 255.225 244.531 257.051 249.165C258.129 251.898 259.385 254.558 260.81 257.129C262.588 260.258 264.586 263.257 266.788 266.108C269.043 268.914 271.503 271.55 274.147 273.999C276.321 275.991 278.627 277.837 281.049 279.525C285.175 282.449 287.999 283.857 287.908 284.052Z" fill="#192132"/>
    <path d="M274.301 254.03C274.322 254.172 273.751 254.502 273.669 255.275C273.623 255.479 273.634 255.686 273.702 255.88C273.769 256.074 273.89 256.249 274.057 256.392C274.263 256.513 274.503 256.584 274.76 256.6C275.014 256.615 275.276 256.573 275.514 256.481C275.751 256.387 275.957 256.243 276.113 256.066C276.27 255.888 276.368 255.681 276.402 255.467C276.391 255.263 276.326 255.066 276.209 254.891C276.093 254.715 275.929 254.568 275.732 254.454C274.99 253.989 274.301 254.195 274.229 254.041C274.157 253.886 274.921 253.341 276.195 253.748C276.571 253.88 276.892 254.091 277.132 254.361C277.371 254.632 277.52 254.952 277.568 255.294C277.612 255.734 277.479 256.184 277.19 256.572C276.903 256.962 276.478 257.267 275.977 257.444C275.548 257.612 275.079 257.677 274.621 257.632C274.166 257.586 273.741 257.432 273.396 257.189C273.053 256.943 272.805 256.619 272.682 256.25C272.559 255.883 272.566 255.487 272.701 255.111C273.246 253.94 274.328 253.881 274.301 254.03Z" fill="#192132"/>
    <path d="M286.037 268.481C286.06 268.636 285.617 268.946 285.56 269.807C285.536 270.023 285.556 270.247 285.621 270.457C285.684 270.669 285.787 270.863 285.926 271.028C286.097 271.192 286.308 271.299 286.531 271.33C286.756 271.36 286.98 271.315 287.177 271.199C287.387 271.121 287.57 270.971 287.697 270.772C287.825 270.573 287.891 270.334 287.888 270.087C287.869 269.868 287.806 269.658 287.704 269.469C287.601 269.279 287.462 269.115 287.297 268.989C286.665 268.454 286.1 268.63 286.037 268.481C285.975 268.333 286.583 267.752 287.654 268.241C287.969 268.399 288.243 268.639 288.452 268.941C288.661 269.242 288.797 269.595 288.85 269.967C288.842 270.261 288.779 270.552 288.666 270.817C288.555 271.083 288.392 271.319 288.192 271.514C287.994 271.706 287.76 271.855 287.503 271.945C287.247 272.037 286.976 272.07 286.707 272.043C286.436 272.02 286.171 271.933 285.928 271.794C285.685 271.658 285.47 271.465 285.292 271.238C285.116 271.007 284.982 270.741 284.9 270.458C284.819 270.174 284.788 269.875 284.814 269.58C285.157 268.321 286.054 268.321 286.037 268.481Z" fill="#192132"/>
    <path d="M8.38527 246.767C8.87018 246.458 9.38237 246.197 9.91559 245.987L14.4124 243.946C18.2221 242.21 23.9622 239.778 31.1196 236.89C45.2941 231.135 65.1791 223.832 87.5712 217.121C109.963 210.407 130.616 205.676 145.632 202.705C153.139 201.22 159.242 200.128 163.458 199.48L168.332 198.755C168.894 198.618 169.466 198.533 170.044 198.501C169.499 198.679 168.942 198.818 168.375 198.911L163.534 199.857C159.339 200.646 153.251 201.838 145.759 203.424C130.789 206.574 110.22 211.457 87.8505 218.185C65.4811 224.914 45.6141 232.051 31.3732 237.631C24.2405 240.414 18.502 242.721 14.5591 244.375L9.99597 246.241C9.47283 246.459 8.9347 246.636 8.38527 246.767Z" fill="#192132"/>
    <path d="M454.707 195.552C453.748 195.247 452.817 194.86 451.926 194.397L444.464 190.96C438.16 188.054 429.407 184.167 419.597 180.174C409.788 176.18 400.802 172.911 394.253 170.546L386.504 167.795C385.536 167.503 384.596 167.131 383.688 166.685C384.688 166.847 385.672 167.09 386.632 167.415C388.504 167.941 391.193 168.748 394.495 169.846C401.115 172 410.175 175.219 420.005 179.207C429.833 183.198 438.567 187.229 444.79 190.287C447.897 191.837 450.411 193.113 452.116 194.025C453.024 194.459 453.89 194.968 454.707 195.552Z" fill="#192132"/>
    <path d="M394.796 177.812C394.95 177.909 394.344 178.491 394.538 179.487C394.63 180.022 394.965 180.497 395.472 180.806C395.793 180.929 396.151 180.98 396.51 180.953C396.869 180.928 397.216 180.824 397.526 180.652C397.833 180.481 398.087 180.248 398.267 179.973C398.45 179.699 398.549 179.393 398.559 179.084C398.517 178.817 398.41 178.561 398.247 178.334C398.081 178.107 397.862 177.914 397.602 177.77C396.664 177.2 395.822 177.423 395.777 177.272C395.732 177.122 396.617 176.576 398.06 177.129C398.463 177.295 398.813 177.536 399.088 177.833C399.364 178.133 399.558 178.484 399.653 178.863C399.728 179.366 399.621 179.881 399.355 180.345C399.087 180.811 398.668 181.2 398.152 181.47C397.66 181.763 397.086 181.926 396.499 181.94C395.915 181.955 395.346 181.816 394.867 181.545C394.505 181.314 394.211 181.013 394.012 180.665C393.811 180.315 393.71 179.927 393.714 179.529C393.723 178.189 394.757 177.701 394.796 177.812Z" fill="#192132"/>
    <path d="M137.362 209.025C137.38 209.142 137 209.693 137.184 210.673C137.222 210.942 137.315 211.198 137.455 211.429C137.596 211.661 137.78 211.86 137.999 212.014C138.269 212.153 138.571 212.217 138.873 212.2C139.175 212.186 139.466 212.092 139.72 211.926C139.977 211.762 140.184 211.533 140.327 211.259C140.471 210.987 140.544 210.68 140.538 210.37C140.496 210.104 140.399 209.851 140.258 209.624C140.114 209.397 139.928 209.201 139.709 209.053C138.908 208.44 138.211 208.662 138.169 208.509C138.126 208.359 138.856 207.835 140.077 208.423C140.42 208.596 140.721 208.843 140.959 209.152C141.197 209.458 141.367 209.814 141.453 210.195C141.528 210.697 141.454 211.209 141.24 211.663C141.026 212.117 140.685 212.494 140.259 212.745C139.852 213.027 139.372 213.179 138.879 213.179C138.386 213.178 137.902 213.026 137.492 212.741C137.187 212.499 136.94 212.187 136.767 211.834C136.596 211.479 136.502 211.09 136.496 210.695C136.473 209.375 137.324 208.894 137.362 209.025Z" fill="#192132"/>
    <path d="M90.7723 222.028C90.7897 222.145 90.4059 222.675 90.5738 223.676C90.6198 223.943 90.7172 224.198 90.8598 224.429C91.0041 224.657 91.1907 224.855 91.4093 225.012C91.6759 225.163 91.9775 225.236 92.2834 225.223C92.5869 225.208 92.8819 225.108 93.1316 224.932C93.3976 224.779 93.6139 224.549 93.7576 224.274C93.9013 223.998 93.9629 223.685 93.9399 223.373C93.9022 223.105 93.8107 222.847 93.6702 222.616C93.5297 222.384 93.3431 222.186 93.1252 222.034C92.324 221.443 91.6218 221.645 91.58 221.492C91.5365 221.342 92.2722 220.838 93.4973 221.425C93.839 221.595 94.1413 221.844 94.3757 222.15C94.6126 222.458 94.7783 222.816 94.8581 223.195C94.941 223.696 94.8725 224.206 94.6621 224.661C94.4496 225.116 94.1045 225.493 93.6763 225.739C93.2682 226.022 92.7857 226.174 92.291 226.173C91.7964 226.173 91.3111 226.022 90.8995 225.737C90.594 225.496 90.3461 225.185 90.1727 224.833C90.0011 224.478 89.9073 224.09 89.9017 223.695C89.8984 222.375 90.7337 221.896 90.7723 222.028Z" fill="#192132"/>
    <path d="M37.7799 237.985C37.9089 238.083 37.3042 238.665 37.498 239.661C37.5381 239.931 37.6447 240.186 37.8106 240.413C37.9766 240.64 38.1956 240.831 38.4562 240.977C38.7703 241.123 39.1304 241.187 39.4951 241.161C39.8598 241.135 40.2111 241.02 40.5107 240.83C40.8331 240.673 41.1009 240.44 41.2781 240.162C41.4578 239.884 41.5436 239.571 41.5226 239.26C41.4328 238.724 41.0953 238.249 40.5893 237.94C39.6506 237.37 38.7849 237.599 38.7618 237.444C38.7391 237.291 39.6037 236.748 41.0512 237.32C41.4539 237.482 41.8049 237.723 42.0786 238.025C42.3494 238.325 42.5365 238.677 42.6235 239.057C42.6999 239.554 42.5981 240.066 42.3339 240.528C42.0695 240.988 41.6519 241.376 41.1401 241.643C40.6451 241.938 40.0647 242.103 39.4746 242.117C38.8845 242.131 38.3102 241.995 37.8273 241.721C37.4717 241.483 37.1853 241.181 36.9861 240.833C36.7869 240.485 36.6812 240.099 36.6735 239.705C36.7049 238.362 37.7402 237.871 37.7799 237.985Z" fill="#192132"/>
    <path d="M418.765 189.394C418.918 189.486 418.312 190.054 418.499 191.003C418.537 191.263 418.638 191.512 418.797 191.733C418.956 191.954 419.172 192.142 419.425 192.283C419.736 192.429 420.094 192.492 420.458 192.469C420.818 192.445 421.172 192.336 421.473 192.152C421.796 191.994 422.066 191.764 422.248 191.49C422.432 191.214 422.521 190.907 422.508 190.599C422.464 190.342 422.36 190.098 422.196 189.882C422.034 189.663 421.817 189.48 421.561 189.341C420.626 188.772 419.789 189.012 419.744 188.865C419.7 188.72 420.585 188.185 422.02 188.718C422.423 188.876 422.774 189.106 423.047 189.397C423.321 189.689 423.511 190.03 423.604 190.398C423.683 190.743 423.675 191.1 423.58 191.448C423.483 191.798 423.302 192.128 423.047 192.422C422.792 192.715 422.469 192.961 422.097 193.147C421.727 193.333 421.32 193.453 420.9 193.5C420.479 193.546 420.057 193.518 419.659 193.415C419.262 193.314 418.9 193.142 418.598 192.91C418.293 192.679 418.053 192.394 417.896 192.074C417.737 191.754 417.665 191.404 417.681 191.049C417.694 189.765 418.724 189.266 418.765 189.394Z" fill="#192132"/>
    <path d="M298.363 36.0218C292.405 34.9605 286.288 35.1867 280.423 36.6843C274.56 38.1815 269.083 40.9166 264.367 44.7039C259.648 48.4894 255.799 53.2414 253.076 58.6372C250.353 64.033 248.818 69.9488 248.58 75.9836L248.563 77.1066C248.47 81.2215 249.079 85.3216 250.366 89.2291C252.762 96.5057 256.534 103.253 261.478 109.106C275.66 125.9 281.874 125.587 284.559 135.972C287.247 146.358 289.176 148.37 284.439 153.673C284.439 153.673 277.088 155.235 273.403 158.304C269.721 161.375 266.596 163.673 267.997 176.1C269.396 188.529 269.98 196.153 269.98 196.153C291.77 194.208 313.319 190.151 334.323 184.04L326.973 153.268C326.325 151.888 325.317 150.706 324.057 149.845C322.795 148.984 321.327 148.476 319.803 148.373C314.721 148.213 307.115 149.568 306.256 146.948C305.397 144.329 306.399 143.245 306.399 143.245C306.399 143.245 315.932 145.509 321.373 141.932C326.814 138.355 332.829 133.819 333.276 129.154C333.725 124.489 334.985 108.693 334.225 108.115C333.468 107.536 341.787 98.5039 339.573 80.867C337.358 63.2279 322.2 41.6535 305.691 37.4554C303.151 36.912 300.708 36.4327 298.363 36.0218Z" fill="#384766"/>
    <path d="M275.721 79.8311C275.721 79.8311 307.362 64.83 308.123 103.913C308.123 103.913 273.352 113.635 275.721 79.8311Z" fill="#192132"/>
    <path d="M322.281 101.004C322.281 101.004 303.583 69.2383 328.059 69.0458C328.074 69.1452 344.709 91.5752 322.281 101.004Z" fill="#192132"/>
    <path d="M373.263 136.662C373.263 136.662 367.553 139.552 366.316 141.409C365.078 143.267 363.72 149.552 361.363 150.637C359.32 151.28 357.149 151.399 355.049 150.983C355.049 150.983 352.673 143.95 349.491 141.137C346.309 138.325 345.74 139.185 345.74 139.185C345.74 139.185 338.928 140.034 338.72 136.147C338.72 136.147 341.053 132.433 346.522 136.313C347.309 136.881 348.275 137.147 349.244 137.063C350.211 136.978 351.117 136.549 351.796 135.854C354.156 133.28 353.759 127.868 352.948 124.337C352.948 124.337 349.315 118.489 353.353 116.603C353.353 116.603 356.936 116.335 356.082 123.931C356.082 123.931 354.132 132.16 358.874 134.597C358.874 134.597 362.585 135.598 365.506 128.263L366.439 125.596C366.439 125.596 365.864 120.211 370.51 119.378C370.779 119.327 371.059 119.375 371.296 119.511C371.535 119.648 371.716 119.864 371.806 120.123C372.24 121.355 372.199 122.703 371.695 123.908C371.192 125.114 370.257 126.091 369.074 126.652C369.074 126.652 364.322 131.44 365.707 135.95C365.707 135.95 367.589 137.446 371.34 135.009L372.796 134.201C372.796 134.201 377.22 129.135 378.255 131.002C379.378 133.323 376.876 136.309 373.263 136.662Z" fill="#384766"/>
    <path d="M355.479 149.73L353.066 178.317L358.575 176.584L364.229 174.566L363.783 148.415L355.479 149.73Z" fill="#384766"/>
    <g opacity="0.2">
        <path opacity="0.2" d="M266.864 51.0306C265.647 51.2094 264.528 51.8001 263.691 52.702C262.856 53.6057 262.354 54.7658 262.268 55.9936C262.274 57.2502 262.701 58.4688 263.48 59.4542C264.259 60.4417 265.346 61.14 266.567 61.4385C267.809 61.6626 269.091 61.4562 270.204 60.8574C271.316 60.2564 272.192 59.2975 272.687 58.134C273.111 56.9452 273.11 55.6454 272.685 54.4556C272.262 53.2654 271.438 52.2578 270.356 51.6057C269.667 51.2257 268.901 51.0023 268.116 50.9515C267.332 50.9007 266.543 51.0224 265.809 51.3082" fill="#9CABC9"/>
    </g>
    <path d="M281.554 86.8528C280.986 86.8821 280.447 87.108 280.02 87.4904C279.596 87.8724 279.315 88.3889 279.222 88.9553C279.137 89.5531 279.267 90.1616 279.589 90.6712C279.909 91.1812 280.401 91.5601 280.976 91.7359C281.547 91.9121 282.164 91.8755 282.711 91.6359C283.261 91.3935 283.704 90.9608 283.962 90.4177C284.211 89.8808 284.266 89.275 284.118 88.7017C283.971 88.1285 283.632 87.6238 283.156 87.2751C282.854 87.0689 282.51 86.9317 282.15 86.8747C281.791 86.8177 281.421 86.8426 281.073 86.9471" fill="#384766"/>
    <path d="M284.065 94.5754C283.837 94.5733 283.625 94.6919 283.465 94.9107C283.307 95.1263 283.209 95.4291 283.19 95.768C283.188 96.1195 283.264 96.4772 283.41 96.7856C283.556 97.0911 283.761 97.3247 283.993 97.4462C284.224 97.571 284.465 97.5711 284.675 97.4499C284.887 97.3284 285.052 97.0937 285.142 96.7862C285.22 96.5345 285.244 96.2459 285.21 95.9508C285.174 95.659 285.083 95.3783 284.946 95.1436C284.811 94.9086 284.636 94.7336 284.445 94.636C284.254 94.5413 284.054 94.529 283.873 94.604" fill="#384766"/>
    <g opacity="0.2">
        <path opacity="0.2" d="M260.763 64.551C260.325 64.7925 259.988 65.18 259.809 65.6444C259.628 66.1091 259.617 66.6222 259.777 67.0943C259.936 67.5664 260.255 67.9679 260.68 68.2286C261.107 68.4889 261.61 68.5907 262.103 68.5172C262.595 68.4441 263.048 68.2003 263.379 67.8272C263.71 67.4541 263.9 66.9769 263.915 66.4787C263.931 65.9806 263.771 65.4929 263.463 65.101C263.154 64.709 262.718 64.4366 262.232 64.3326" fill="#9CABC9"/>
    </g>
    <path d="M298.352 109.536C297.863 109.718 297.341 109.796 296.818 109.764C295.406 109.921 293.979 109.911 292.566 109.729C287.827 109.2 283.343 107.134 279.745 103.825C276.147 100.517 273.612 96.1268 272.494 91.2719C272.13 89.8256 271.91 88.3465 271.837 86.857C271.772 86.3124 271.812 85.7612 271.953 85.2364C272.147 85.2074 272.118 87.5413 273.121 91.0757C274.381 95.6871 276.891 99.8333 280.343 103.012C283.797 106.191 288.047 108.264 292.573 108.982C296.07 109.667 298.344 109.349 298.352 109.536Z" fill="#192132"/>
    <path d="M304.577 83.4172C301.712 80.5602 298.377 78.257 294.728 76.6205C290.975 75.2896 287.024 74.6549 283.068 74.7481C284.178 74.2774 285.374 74.0595 286.578 74.1056C289.482 74.0328 292.378 74.5589 295.094 75.6539C297.811 76.7486 300.293 78.3891 302.395 80.4809C303.325 81.2816 304.07 82.286 304.577 83.4172Z" fill="#192132"/>
    <path d="M315.751 85.7993C315.234 84.8863 314.888 83.8874 314.73 82.854C314.065 80.3954 313.916 77.8287 314.294 75.3065C314.507 74.0215 314.983 72.7869 315.687 71.6788C316.391 70.5684 317.313 69.6062 318.401 68.8446C318.822 68.49 319.31 68.2211 319.839 68.0555C320.368 67.8899 320.924 67.8317 321.476 67.8812C320.568 68.3461 319.687 68.863 318.84 69.426C316.992 70.9985 315.754 73.1427 315.339 75.4943C314.995 77.898 315.042 80.337 315.479 82.7226C315.742 83.7247 315.833 84.7659 315.751 85.7993Z" fill="#192132"/>
    <path d="M333.637 95.2712C333.415 96.4105 332.963 97.4852 332.309 98.4242C331.657 99.3629 330.819 100.145 329.85 100.722C328.988 101.453 327.982 101.984 326.904 102.283C325.822 102.579 324.693 102.637 323.584 102.447C325.546 101.79 327.435 100.92 329.219 99.8543C330.848 98.4966 332.328 96.9609 333.637 95.2712Z" fill="#192132"/>
    <path d="M316.794 117.971C316.813 118.102 316.511 118.619 315.657 119.016C315.09 119.276 314.478 119.399 313.86 119.377C313.239 119.356 312.624 119.19 312.047 118.89C311.472 118.587 310.948 118.158 310.506 117.625C310.062 117.09 309.712 116.465 309.472 115.781C309.125 114.732 309.217 114.068 309.328 114.052C309.44 114.035 309.642 114.633 310.084 115.421C310.631 116.452 311.415 117.287 312.343 117.825C313.297 118.301 314.335 118.451 315.334 118.255C316.236 118.054 316.712 117.803 316.794 117.971Z" fill="#192132"/>
    <path d="M314.502 143.351C313.375 143.82 312.156 144.043 310.933 144.001C307.98 144.08 305.042 143.55 302.309 142.451C299.577 141.348 297.108 139.701 295.058 137.606C294.147 136.803 293.44 135.803 292.993 134.679C293.911 135.425 294.779 136.229 295.591 137.086C299.825 140.847 305.263 143.029 310.965 143.253C312.144 143.206 313.327 143.241 314.502 143.351Z" fill="#192132"/>
    <path d="M283.574 193.707C281.326 187.657 280.389 181.356 280.779 174.914C283.026 180.964 283.963 187.264 283.574 193.707Z" fill="#192132"/>
    <path d="M303.295 183.558C300.523 184.963 297.434 185.78 294.285 185.941C292.013 186.378 289.673 186.125 287.653 185.225C286.132 184.334 285.987 183.22 286.112 183.22C286.239 183.219 286.676 184.033 288.049 184.636C289.987 185.275 292.118 185.404 294.187 185.004C299.224 184.493 303.194 183.299 303.295 183.558Z" fill="#192132"/>
    <path d="M322.953 186.819C322.135 184.329 321.496 181.731 321.054 179.083C320.415 176.485 319.976 173.815 319.749 171.14C321.228 176.225 322.308 181.504 322.956 186.839L322.953 186.819Z" fill="#192132"/>
    <path d="M320.091 174.13C319.745 175.877 318.724 177.465 317.217 178.594C315.708 179.722 313.82 180.315 311.904 180.261C313.525 179.573 315.086 178.765 316.573 177.848C318.866 176.162 319.791 174.026 320.091 174.13Z" fill="#192132"/>
    <path d="M318.993 30.7973C316.899 32.1634 314.967 33.773 313.235 35.5928C311.778 37.6488 310.562 39.8764 309.615 42.228C309.496 42.2457 309.475 41.2865 309.84 39.8892C310.353 38.0592 311.232 36.3592 312.426 34.9008C313.619 33.4427 315.1 32.2578 316.773 31.4206C318.073 30.8073 318.953 30.6764 318.993 30.7973Z" fill="#384766"/>
    <path d="M321.58 28.6335C320.92 28.4155 320.202 28.459 319.571 28.7539C318.942 29.0508 318.446 29.5765 318.185 30.2277C318.022 30.6926 318.003 31.197 318.128 31.6755C318.252 32.1541 318.519 32.5821 318.89 32.9066C319.26 33.2312 319.719 33.434 320.204 33.4907C320.691 33.5493 321.182 33.4559 321.615 33.2243C321.98 33.0209 322.295 32.7345 322.532 32.3875C322.771 32.0401 322.924 31.6422 322.985 31.2242C323.043 30.8065 323.007 30.3782 322.878 29.9771C322.746 29.5741 322.524 29.2094 322.231 28.9073C322.037 28.6989 321.791 28.5457 321.517 28.4666C321.244 28.3897 320.956 28.3875 320.683 28.4598" fill="#384766"/>
    <path d="M309.503 28.1694C307.402 29.5218 305.469 31.1264 303.745 32.9496C302.285 35.0106 301.07 37.2411 300.126 39.5952C300.005 39.6133 299.988 38.6706 300.33 37.2563C300.851 35.4181 301.741 33.7122 302.944 32.2507C304.138 30.7906 305.624 29.6037 307.299 28.7698C308.501 28.173 309.465 28.0502 309.503 28.1694Z" fill="#384766"/>
    <path d="M311.101 26.1333C310.438 25.9154 309.72 25.9634 309.09 26.2628C308.463 26.5619 307.971 27.0919 307.714 27.7454C307.546 28.2113 307.523 28.7168 307.649 29.198C307.771 29.6795 308.039 30.1102 308.41 30.4326C308.782 30.7573 309.242 30.9602 309.73 31.0121C310.215 31.0643 310.707 30.9663 311.135 30.7284C311.5 30.5271 311.815 30.2428 312.051 29.8956C312.29 29.5503 312.445 29.154 312.503 28.736C312.564 28.3198 312.528 27.8933 312.397 27.4922C312.265 27.091 312.046 26.7256 311.752 26.4256C311.561 26.2119 311.315 26.0563 311.042 25.977C310.769 25.8955 310.48 25.8979 310.206 25.9793" fill="#384766"/>
    <path d="M495.711 9L496.456 10.362C497.292 11.897 498.553 13.1581 500.088 13.994L501.45 14.7385L500.088 15.4831C498.553 16.3189 497.292 17.5801 496.456 19.1151L495.711 20.468L494.967 19.1151C494.131 17.5801 492.87 16.3189 491.335 15.4831L490 14.7022L491.353 13.9576C492.888 13.1218 494.149 11.8606 494.985 10.3256L495.711 9Z" fill="#576E9E"/>
    <path d="M125.711 119L126.456 120.362C127.292 121.897 128.553 123.158 130.088 123.994L131.45 124.738L130.088 125.483C128.553 126.319 127.292 127.58 126.456 129.115L125.711 130.468L124.967 129.115C124.131 127.58 122.87 126.319 121.335 125.483L120 124.702L121.353 123.958C122.888 123.122 124.149 121.861 124.985 120.326L125.711 119Z" fill="#576E9E"/>
    <path d="M535.711 249L536.456 250.362C537.292 251.897 538.553 253.158 540.088 253.994L541.45 254.738L540.088 255.483C538.553 256.319 537.292 257.58 536.456 259.115L535.711 260.468L534.967 259.115C534.131 257.58 532.87 256.319 531.335 255.483L530 254.702L531.353 253.958C532.888 253.122 534.149 251.861 534.985 250.326L535.711 249Z" fill="#576E9E"/>
    <path d="M455.711 279L456.456 280.362C457.292 281.897 458.553 283.158 460.088 283.994L461.45 284.738L460.088 285.483C458.553 286.319 457.292 287.58 456.456 289.115L455.711 290.468L454.967 289.115C454.131 287.58 452.87 286.319 451.335 285.483L450 284.702L451.353 283.958C452.888 283.122 454.149 281.861 454.985 280.326L455.711 279Z" fill="#576E9E"/>
    <path d="M475.711 89L476.456 90.362C477.292 91.897 478.553 93.1581 480.088 93.994L481.45 94.7385L480.088 95.4831C478.553 96.3189 477.292 97.5801 476.456 99.1151L475.711 100.468L474.967 99.1151C474.131 97.5801 472.87 96.3189 471.335 95.4831L470 94.7022L471.353 93.9576C472.888 93.1218 474.149 91.8606 474.985 90.3256L475.711 89Z" fill="#576E9E"/>
    <path d="M75.711 39L76.456 40.362C77.292 41.897 78.553 43.1581 80.088 43.994L81.45 44.7385L80.088 45.4831C78.553 46.3189 77.292 47.5801 76.456 49.1151L75.711 50.468L74.967 49.1151C74.131 47.5801 72.87 46.3189 71.335 45.4831L70 44.7022L71.353 43.9576C72.888 43.1218 74.149 41.8606 74.985 40.3256L75.711 39Z" fill="#576E9E"/>
</svg>