<svg width="1440" height="1024" viewbox="0 0 1440 1024" fill="none" xmlns="http://www.w3.org/2000/svg">
    <g filter="url(#filter0_d)">
        <path d="M293.225 692.256L310.742 709.74L359.698 663.523C342.802 657.089 309.979 675.43 293.225 692.256Z" fill="#26334D"/>
        <path d="M354.313 753.198C348.718 747.603 336.797 735.715 336.797 735.715L382.92 686.671C389.346 703.514 371.067 736.402 354.313 753.198Z" fill="#26334D"/>
        <path d="M421.188 642.834L440.243 606.006L403.451 625.151C391.633 631.294 380.724 639.045 371.033 648.182L308.34 707.312L339.199 738.112L398.209 675.306C407.332 665.595 415.065 654.667 421.188 642.834Z" fill="#5F5AF6"/>
        <path d="M382.021 677.251C389.145 677.245 394.915 671.464 394.909 664.339C394.902 657.215 389.121 651.445 381.996 651.451C374.872 651.458 369.102 657.239 369.109 664.364C369.115 671.488 374.896 677.258 382.021 677.251Z" fill="#8F8CF8"/>
        <path d="M382.016 672.641C386.595 672.637 390.303 668.922 390.299 664.343C390.294 659.765 386.579 656.057 382.001 656.061C377.422 656.066 373.714 659.781 373.719 664.359C373.723 668.938 377.438 672.646 382.016 672.641Z" fill="#4C48C5"/>
        <path opacity="0.3" d="M349.618 727.022L319.4 696.861L344.097 673.578L372.855 702.29L349.618 727.022Z" fill="#4C48C5"/>
        <path d="M300.082 719.87C277.483 721.721 270.007 736.198 267.466 755.431C266.175 765.242 265.604 775.173 257.38 780.921C256.885 781.257 256.513 781.746 256.319 782.312C256.125 782.878 256.119 783.492 256.303 784.062C256.487 784.631 256.851 785.126 257.34 785.472C257.829 785.817 258.416 785.995 259.015 785.979C289.354 785 303.49 770.136 305.264 763.935C304.8 767.176 303.967 770.354 302.783 773.407C302.565 773.946 302.523 774.54 302.662 775.104C302.802 775.668 303.116 776.173 303.559 776.549C304.003 776.924 304.554 777.15 305.133 777.193C305.712 777.237 306.291 777.097 306.786 776.793C315.291 771.455 325.961 761.625 326.656 745.694C320.388 736.83 300.082 719.87 300.082 719.87Z" fill="#5F5AF6"/>
        <path opacity="0.2" d="M300.082 719.87C277.483 721.721 270.007 736.198 267.466 755.431C266.175 765.242 265.604 775.173 257.38 780.921C256.885 781.257 256.513 781.746 256.319 782.312C256.125 782.878 256.119 783.492 256.303 784.062C256.487 784.631 256.851 785.126 257.34 785.472C257.829 785.817 258.416 785.995 259.015 785.979C289.354 785 303.49 770.136 305.264 763.935C304.8 767.176 303.967 770.354 302.783 773.407C302.565 773.946 302.523 774.54 302.662 775.104C302.802 775.668 303.116 776.173 303.559 776.549C304.003 776.924 304.554 777.15 305.133 777.193C305.712 777.237 306.291 777.097 306.786 776.793C315.291 771.455 325.961 761.625 326.656 745.694C320.388 736.83 300.082 719.87 300.082 719.87Z" fill="#8F8CF8"/>
        <path d="M330.173 752.521L293.938 716.356L313.214 712.167L334.324 733.237L330.173 752.521Z" fill="#5F5AF6"/>
    </g>
    <path d="M254.271 292.613C269.371 292.613 281.613 280.372 281.613 265.272C281.613 250.171 269.371 237.93 254.271 237.93C239.171 237.93 226.93 250.171 226.93 265.272C226.93 280.372 239.171 292.613 254.271 292.613Z" fill="#5F5AF6"/>
    <path opacity="0.2" d="M244.961 274.851C244.961 275.734 244.699 276.597 244.208 277.331C243.718 278.065 243.021 278.637 242.205 278.974C241.389 279.312 240.492 279.4 239.626 279.227C238.761 279.055 237.965 278.629 237.342 278.004C236.718 277.38 236.294 276.584 236.122 275.718C235.951 274.852 236.04 273.954 236.379 273.139C236.718 272.324 237.29 271.628 238.025 271.138C238.76 270.649 239.623 270.388 240.506 270.39C241.091 270.39 241.671 270.505 242.212 270.729C242.753 270.954 243.244 271.283 243.658 271.697C244.072 272.112 244.4 272.603 244.624 273.144C244.847 273.685 244.962 274.266 244.961 274.851Z" fill="#9CABC9"/>
    <path opacity="0.2" d="M238.636 261.978C238.642 262.499 238.494 263.009 238.209 263.445C237.925 263.881 237.517 264.222 237.038 264.426C236.559 264.63 236.031 264.687 235.519 264.589C235.008 264.492 234.537 264.244 234.167 263.878C233.797 263.512 233.544 263.045 233.44 262.535C233.336 262.025 233.386 261.496 233.583 261.014C233.781 260.532 234.117 260.12 234.55 259.831C234.982 259.541 235.491 259.386 236.011 259.386C236.701 259.386 237.364 259.658 237.855 260.144C238.347 260.628 238.627 261.287 238.636 261.978Z" fill="#9CABC9"/>
    <path d="M227.783 271.925C227.901 272.398 204.379 294.969 210.441 299.771C216.504 304.575 242.015 292.246 263.759 274.687C285.504 257.129 305.332 235.772 299.893 230.156C294.454 224.539 267.289 241.224 267.289 241.224L270.57 243.291C270.57 243.291 286.974 232.753 292.223 236.841C297.472 240.929 282.61 256.913 261.699 272.174C240.788 287.436 220.526 298.151 217.39 293.972C214.253 289.792 229.049 275.842 229.049 275.842L227.783 271.925Z" fill="#5F5AF6"/>
    <path opacity="0.4" d="M227.783 271.925C227.901 272.398 204.379 294.969 210.441 299.771C216.504 304.575 242.015 292.246 263.759 274.687C285.504 257.129 305.332 235.772 299.893 230.156C294.454 224.539 267.289 241.224 267.289 241.224L270.57 243.291C270.57 243.291 286.974 232.753 292.223 236.841C297.472 240.929 282.61 256.913 261.699 272.174C240.788 287.436 220.526 298.151 217.39 293.972C214.253 289.792 229.049 275.842 229.049 275.842L227.783 271.925Z" fill="#26334D"/>
    <path d="M1184.69 447.526C1182.4 446.193 1179.43 447.374 1177.37 449.047C1175.3 450.721 1173.57 452.904 1171.12 453.928C1169.56 454.582 1167.77 454.75 1166.39 455.709C1164.14 457.296 1163.74 460.495 1164.13 463.221C1164.52 465.948 1165.48 468.658 1165.14 471.392C1164.89 473.395 1163.96 475.401 1164.47 477.359C1165.18 480.097 1168.33 481.401 1169.86 483.782C1170.96 485.488 1171.26 487.791 1172.91 488.987C1174.81 490.377 1177.46 489.567 1179.81 489.781C1182.69 490.04 1185.17 491.895 1187.92 492.828C1190.14 493.548 1192.5 493.677 1194.77 493.203C1197.05 492.728 1199.16 491.666 1200.9 490.122C1202.65 488.531 1203.93 486.5 1205.65 484.879C1207.12 483.494 1208.9 482.412 1210.1 480.788C1211.31 479.164 1211.79 477.272 1212.28 475.381C1213.01 472.617 1213.74 469.743 1213.21 466.934C1212.36 462.452 1208.54 459.192 1206.55 455.088C1205.77 453.488 1205.21 451.658 1203.77 450.614C1202.24 449.504 1200.18 449.598 1198.39 448.994C1195.83 448.13 1193.9 445.844 1191.28 445.174C1190.07 444.887 1188.8 444.957 1187.64 445.375C1186.47 445.793 1185.45 446.542 1184.7 447.53" fill="#5F5AF6"/>
    <g opacity="0.2">
        <path opacity="0.2" d="M1184.69 447.526C1182.4 446.193 1179.43 447.374 1177.37 449.047C1175.3 450.721 1173.57 452.904 1171.12 453.928C1169.56 454.582 1167.77 454.75 1166.39 455.709C1164.14 457.296 1163.74 460.495 1164.13 463.221C1164.52 465.948 1165.48 468.658 1165.14 471.392C1164.89 473.395 1163.96 475.401 1164.47 477.359C1165.18 480.097 1168.33 481.401 1169.86 483.782C1170.96 485.488 1171.26 487.791 1172.91 488.987C1174.81 490.377 1177.46 489.567 1179.81 489.781C1182.69 490.04 1185.17 491.895 1187.92 492.828C1190.14 493.548 1192.5 493.677 1194.77 493.203C1197.05 492.728 1199.16 491.666 1200.9 490.122C1202.65 488.531 1203.93 486.5 1205.65 484.879C1207.12 483.494 1208.9 482.412 1210.1 480.788C1211.31 479.164 1211.79 477.272 1212.28 475.381C1213.01 472.617 1213.74 469.743 1213.21 466.934C1212.36 462.452 1208.54 459.192 1206.55 455.088C1205.77 453.488 1205.21 451.658 1203.77 450.614C1202.24 449.504 1200.18 449.598 1198.39 448.994C1195.83 448.13 1193.9 445.844 1191.28 445.174C1190.07 444.887 1188.8 444.957 1187.64 445.375C1186.47 445.793 1185.45 446.542 1184.7 447.53" fill="#9CABC9"/>
    </g>
    <path d="M1189.14 488.615C1199.91 488.233 1208.33 479.193 1207.95 468.424C1207.57 457.655 1198.53 449.234 1187.76 449.616C1176.99 449.997 1168.57 459.037 1168.95 469.806C1169.33 480.575 1178.37 488.996 1189.14 488.615Z" fill="#5F5AF6"/>
    <path opacity="0.4" d="M1182.7 472.338C1182.31 472.833 1181.78 473.203 1181.19 473.4C1180.59 473.597 1179.94 473.611 1179.34 473.443C1178.73 473.274 1178.19 472.929 1177.78 472.452C1177.37 471.974 1177.11 471.386 1177.03 470.761C1176.96 470.136 1177.07 469.502 1177.35 468.94C1177.64 468.378 1178.08 467.914 1178.63 467.604C1179.18 467.295 1179.8 467.155 1180.43 467.203C1181.06 467.251 1181.66 467.484 1182.16 467.872C1182.82 468.393 1183.25 469.155 1183.35 469.993C1183.45 470.83 1183.22 471.673 1182.7 472.338Z" fill="black"/>
    <path opacity="0.4" d="M1184.81 462.325C1184.59 462.613 1184.28 462.828 1183.93 462.942C1183.58 463.056 1183.21 463.065 1182.86 462.966C1182.51 462.868 1182.19 462.667 1181.95 462.39C1181.71 462.113 1181.56 461.771 1181.52 461.408C1181.47 461.044 1181.54 460.676 1181.7 460.349C1181.87 460.023 1182.13 459.752 1182.45 459.573C1182.76 459.392 1183.13 459.311 1183.49 459.338C1183.86 459.366 1184.21 459.501 1184.49 459.726C1184.69 459.876 1184.85 460.062 1184.97 460.274C1185.09 460.486 1185.16 460.718 1185.19 460.96C1185.22 461.201 1185.2 461.446 1185.14 461.68C1185.07 461.914 1184.96 462.134 1184.81 462.325Z" fill="black"/>
    <path d="M346.692 560.526C344.398 559.193 341.433 560.374 339.369 562.047C337.305 563.721 335.57 565.904 333.119 566.928C331.556 567.582 329.772 567.75 328.39 568.709C326.136 570.296 325.742 573.495 326.132 576.221C326.523 578.948 327.477 581.658 327.144 584.392C326.893 586.395 325.956 588.401 326.466 590.359C327.177 593.097 330.327 594.401 331.861 596.782C332.962 598.488 333.263 600.791 334.907 601.987C336.811 603.377 339.46 602.567 341.807 602.781C344.686 603.04 347.174 604.895 349.925 605.828C352.135 606.548 354.496 606.677 356.772 606.203C359.048 605.728 361.16 604.666 362.898 603.122C364.646 601.531 365.928 599.5 367.648 597.879C369.115 596.494 370.896 595.412 372.101 593.788C373.306 592.164 373.787 590.272 374.284 588.381C375.012 585.617 375.744 582.743 375.214 579.934C374.363 575.452 370.542 572.192 368.552 568.088C367.775 566.488 367.207 564.658 365.768 563.614C364.243 562.504 362.178 562.598 360.394 561.994C357.832 561.13 355.895 558.844 353.276 558.174C352.069 557.887 350.805 557.957 349.637 558.375C348.469 558.793 347.447 559.542 346.697 560.53" fill="#5F5AF6"/>
    <g opacity="0.2">
        <path opacity="0.2" d="M346.692 560.526C344.398 559.193 341.433 560.374 339.369 562.047C337.305 563.721 335.57 565.904 333.119 566.928C331.556 567.582 329.772 567.75 328.39 568.709C326.136 570.296 325.742 573.495 326.132 576.221C326.523 578.948 327.477 581.658 327.144 584.392C326.893 586.395 325.956 588.401 326.466 590.359C327.177 593.097 330.327 594.401 331.861 596.782C332.962 598.488 333.263 600.791 334.907 601.987C336.811 603.377 339.46 602.567 341.807 602.781C344.686 603.04 347.174 604.895 349.925 605.828C352.135 606.548 354.496 606.677 356.772 606.203C359.048 605.728 361.16 604.666 362.898 603.122C364.646 601.531 365.928 599.5 367.648 597.879C369.115 596.494 370.896 595.412 372.101 593.788C373.306 592.164 373.787 590.272 374.284 588.381C375.012 585.617 375.744 582.743 375.214 579.934C374.363 575.452 370.542 572.192 368.552 568.088C367.775 566.488 367.207 564.658 365.768 563.614C364.243 562.504 362.178 562.598 360.394 561.994C357.832 561.13 355.895 558.844 353.276 558.174C352.069 557.887 350.805 557.957 349.637 558.375C348.469 558.793 347.447 559.542 346.697 560.53" fill="#9CABC9"/>
    </g>
    <path d="M351.141 601.615C361.91 601.233 370.331 592.193 369.949 581.424C369.568 570.655 360.528 562.234 349.759 562.616C338.99 562.997 330.569 572.037 330.951 582.806C331.332 593.575 340.372 601.996 351.141 601.615Z" fill="#5F5AF6"/>
    <path opacity="0.4" d="M344.698 585.338C344.31 585.833 343.784 586.203 343.186 586.4C342.588 586.597 341.945 586.611 341.338 586.443C340.731 586.274 340.189 585.929 339.778 585.452C339.368 584.974 339.108 584.386 339.032 583.761C338.956 583.136 339.067 582.502 339.351 581.94C339.635 581.378 340.08 580.914 340.629 580.604C341.177 580.295 341.805 580.155 342.432 580.203C343.06 580.251 343.66 580.484 344.155 580.872C344.819 581.393 345.249 582.155 345.351 582.993C345.453 583.83 345.218 584.673 344.698 585.338Z" fill="black"/>
    <path opacity="0.4" d="M346.812 575.325C346.586 575.613 346.28 575.828 345.933 575.942C345.585 576.056 345.211 576.065 344.859 575.966C344.506 575.868 344.191 575.667 343.952 575.39C343.713 575.113 343.563 574.771 343.518 574.408C343.474 574.044 343.539 573.676 343.704 573.349C343.868 573.023 344.126 572.752 344.445 572.573C344.764 572.392 345.129 572.311 345.494 572.338C345.858 572.366 346.207 572.501 346.495 572.726C346.687 572.876 346.847 573.062 346.966 573.274C347.086 573.486 347.163 573.718 347.192 573.96C347.221 574.201 347.203 574.446 347.138 574.68C347.072 574.914 346.962 575.134 346.812 575.325Z" fill="black"/>
    <path d="M1053.1 346.276C1047.43 345.164 1041.26 347.537 1037.66 352.013C1034.05 356.49 1033.06 362.823 1034.91 368.246C1036.75 373.669 1041.3 378.064 1046.75 379.994C1050.72 381.404 1055.39 381.481 1058.96 379.261C1062.04 377.355 1063.96 374.023 1065 370.562C1066.6 365.289 1066.36 359.346 1063.67 354.523C1060.99 349.701 1056.7 345.889 1051.13 346.002" fill="#576E9E"/>
    <path d="M211.94 553.166C208.393 552.499 204.539 553.922 202.286 556.608C200.033 559.294 199.415 563.094 200.568 566.347C201.721 569.601 204.565 572.238 207.966 573.397C210.453 574.243 213.37 574.288 215.603 572.956C217.528 571.813 218.724 569.814 219.376 567.737C220.376 564.573 220.226 561.008 218.546 558.114C216.866 555.22 214.185 552.934 210.705 553.001" fill="#576E9E"/>
    <path d="M1160.94 223.166C1157.39 222.499 1153.54 223.922 1151.29 226.608C1149.03 229.294 1148.41 233.094 1149.57 236.347C1150.72 239.601 1153.56 242.238 1156.97 243.397C1159.45 244.243 1162.37 244.288 1164.6 242.956C1166.53 241.813 1167.72 239.814 1168.38 237.737C1169.38 234.573 1169.23 231.008 1167.55 228.114C1165.87 225.22 1163.18 222.934 1159.71 223.001" fill="#576E9E"/>
    <path d="M1022.63 686.07L1023.06 686.86C1023.55 687.747 1024.29 688.473 1025.18 688.948L1025.97 689.384L1025.18 689.811C1024.28 690.288 1023.55 691.017 1023.06 691.908L1022.63 692.689L1022.19 691.908C1021.7 691.021 1020.97 690.293 1020.08 689.811L1019.29 689.384L1020.08 688.948C1020.97 688.467 1021.7 687.743 1022.19 686.86L1022.63 686.07Z" fill="#576E9E"/>
    <path d="M518.471 724.614L518.897 725.395C519.387 726.283 520.121 727.011 521.013 727.493L521.812 727.92L521.013 728.355C520.124 728.836 519.39 729.561 518.897 730.444L518.471 731.234L518.035 730.444C517.542 729.561 516.808 728.836 515.919 728.355L515.12 727.92L515.919 727.493C516.811 727.011 517.545 726.283 518.035 725.395L518.471 724.614Z" fill="#576E9E"/>
    <path d="M1039.94 774.918L1040.68 776.28C1041.52 777.815 1042.78 779.076 1044.31 779.912L1045.67 780.656L1044.31 781.392C1042.78 782.228 1041.52 783.489 1040.68 785.024L1039.94 786.386L1039.2 785.024C1038.36 783.489 1037.1 782.228 1035.57 781.392L1034.21 780.656L1035.57 779.912C1037.1 779.076 1038.36 777.815 1039.2 776.28L1039.94 774.918Z" fill="#576E9E"/>
    <path d="M959.944 234.918L960.679 236.28C961.515 237.815 962.776 239.076 964.311 239.912L965.673 240.656L964.311 241.392C962.776 242.228 961.515 243.489 960.679 245.024L959.944 246.386L959.199 245.024C958.363 243.489 957.102 242.228 955.567 241.392L954.205 240.656L955.567 239.912C957.102 239.076 958.363 237.815 959.199 236.28L959.944 234.918Z" fill="#576E9E"/>
    <path d="M1169.94 674.918L1170.68 676.28C1171.52 677.815 1172.78 679.076 1174.31 679.912L1175.67 680.656L1174.31 681.392C1172.78 682.228 1171.52 683.489 1170.68 685.024L1169.94 686.386L1169.2 685.024C1168.36 683.489 1167.1 682.228 1165.57 681.392L1164.21 680.656L1165.57 679.912C1167.1 679.076 1168.36 677.815 1169.2 676.28L1169.94 674.918Z" fill="#576E9E"/>
    <path d="M499.729 811.855L500.474 813.217C501.31 814.752 502.571 816.013 504.106 816.849L505.468 817.594L504.106 818.338C502.571 819.174 501.31 820.435 500.474 821.97L499.729 823.323L498.994 821.97C498.158 820.435 496.897 819.174 495.362 818.338L494 817.594L495.362 816.849C496.897 816.013 498.158 814.752 498.994 813.217L499.729 811.855Z" fill="#576E9E"/>
    <path d="M504.5 312.855L504.565 314.217C504.637 315.752 504.747 317.013 504.881 317.849L505 318.594L504.881 319.338C504.747 320.174 504.637 321.435 504.565 322.97L504.5 324.323L504.435 322.97C504.363 321.435 504.253 320.174 504.119 319.338L504 318.594L504.119 317.849C504.253 317.013 504.363 315.752 504.435 314.217L504.5 312.855Z" fill="#576E9E"/>
    <path d="M689.729 321.855L690.474 323.217C691.31 324.752 692.571 326.013 694.106 326.849L695.468 327.594L694.106 328.338C692.571 329.174 691.31 330.435 690.474 331.97L689.729 333.323L688.994 331.97C688.158 330.435 686.897 329.174 685.362 328.338L684 327.594L685.362 326.849C686.897 326.013 688.158 324.752 688.994 323.217L689.729 321.855Z" fill="#576E9E"/>
    <path d="M269.729 391.855L270.474 393.217C271.31 394.752 272.571 396.013 274.106 396.849L275.468 397.594L274.106 398.338C272.571 399.174 271.31 400.435 270.474 401.97L269.729 403.323L268.994 401.97C268.158 400.435 266.897 399.174 265.362 398.338L264 397.594L265.362 396.849C266.897 396.013 268.158 394.752 268.994 393.217L269.729 391.855Z" fill="#576E9E"/>
    <path d="M1079.73 571.855L1080.47 573.217C1081.31 574.752 1082.57 576.013 1084.11 576.849L1085.47 577.594L1084.11 578.338C1082.57 579.174 1081.31 580.435 1080.47 581.97L1079.73 583.323L1078.99 581.97C1078.16 580.435 1076.9 579.174 1075.36 578.338L1074 577.594L1075.36 576.849C1076.9 576.013 1078.16 574.752 1078.99 573.217L1079.73 571.855Z" fill="#576E9E"/>
    <path d="M405.711 249L406.456 250.362C407.292 251.897 408.553 253.158 410.088 253.994L411.45 254.738L410.088 255.483C408.553 256.319 407.292 257.58 406.456 259.115L405.711 260.468L404.967 259.115C404.131 257.58 402.87 256.319 401.335 255.483L400 254.702L401.353 253.958C402.888 253.122 404.149 251.861 404.985 250.326L405.711 249Z" fill="#576E9E"/>
    <path d="M901.991 623.59L902.727 624.952C903.563 626.487 904.824 627.749 906.359 628.584L907.721 629.329L906.359 630.064C904.824 630.9 903.563 632.161 902.727 633.696L901.991 635.058L901.247 633.696C900.411 632.161 899.15 630.9 897.615 630.064L896.253 629.329L897.615 628.584C899.15 627.749 900.411 626.487 901.247 624.952L901.991 623.59Z" fill="#B7C1D7"/>
    <defs>
        <filter id="filter0_d" x="252.109" y="606.006" width="192.26" height="187.977" filterUnits="userSpaceOnUse" color-interpolation-filters="sRGB">
            <feFlood flood-opacity="0" result="BackgroundImageFix"/>
            <feColorMatrix in="SourceAlpha" type="matrix" values="0 0 0 0 0 0 0 0 0 0 0 0 0 0 0 0 0 0 127 0" result="hardAlpha"/>
            <feOffset dy="4"/>
            <feGaussianBlur stdDeviation="2"/>
            <feComposite in2="hardAlpha" operator="out"/>
            <feColorMatrix type="matrix" values="0 0 0 0 0 0 0 0 0 0 0 0 0 0 0 0 0 0 0.25 0"/>
            <feBlend mode="normal" in2="BackgroundImageFix" result="effect1_dropShadow"/>
            <feBlend mode="normal" in="SourceGraphic" in2="effect1_dropShadow" result="shape"/>
        </filter>
    </defs>
</svg>
