<svg width="132" height="305" viewbox="0 0 132 305" fill="none" xmlns="http://www.w3.org/2000/svg">
	<path d="M108.722 288.01C110.444 290.491 111.379 293.433 111.405 296.453C111.152 300.807 121.912 305.554 124.861 303.756C127.81 301.959 128.317 297.098 126.127 294.022C124.086 291.377 121.906 288.841 119.595 286.427C118.95 285.655 118.95 285.022 116.899 285.022C114.848 285.022 109.494 284.934 108.722 288.01Z" fill="#6C566C" stroke="#6C566C" stroke-linecap="round" stroke-linejoin="round"/>
	<path d="M126.709 295.022C126.756 296.108 126.649 297.194 126.393 298.25C125.747 300.554 125.127 300.68 125.127 300.68L123.975 298.883L121.545 299.528L121.418 301.832C120.032 301.908 118.643 301.737 117.317 301.326C115.899 300.68 113.089 299.149 112.57 296.073C112.019 293.812 111.068 291.668 109.76 289.744C110.887 291.798 111.458 294.11 111.418 296.453C111.165 300.807 121.924 305.554 124.874 303.756C127.507 302.149 128.178 298.06 126.709 295.022Z" fill="white" stroke="#6C566C" stroke-linecap="round" stroke-linejoin="round"/>
	<path d="M81.697 284.807C79.3316 286.865 76.7562 288.668 74.0135 290.187C69.9249 292.364 65.1529 291.453 64.5453 293.516C63.9377 295.579 67.2288 297.478 74.6717 298.503C82.1147 299.529 83.3805 297.731 86.583 296.579C89.7855 295.427 95.4437 296.326 96.7095 295.427C97.9753 294.529 96.8361 291.073 96.3297 287.832C95.8234 284.592 95.5576 283.744 95.5576 283.744C93.3293 284.821 90.834 285.222 88.3805 284.896C86.1656 284.581 83.9194 284.551 81.697 284.807V284.807Z" fill="#6C566C" stroke="#6C566C" stroke-linecap="round" stroke-linejoin="round"/>
	<path d="M86.5705 296.579C89.773 295.427 95.4311 296.326 96.6969 295.427C97.5577 294.832 97.3172 293.06 96.9121 290.997C95.6085 291.843 94.1999 292.515 92.7223 292.997C89.2953 293.794 85.9147 294.778 82.5958 295.946C78.8195 297.246 74.6843 297.014 71.0769 295.301C67.8744 294.035 69.1529 294.149 69.5327 292.87C69.6056 292.66 69.6264 292.434 69.5934 292.214C69.5603 291.994 69.4743 291.784 69.3428 291.604C66.9124 292.048 64.9378 292.187 64.5454 293.465C63.8998 295.503 67.2289 297.427 74.6718 298.453C82.1148 299.478 83.368 297.693 86.5705 296.579Z" fill="white" stroke="#6C566C" stroke-linecap="round" stroke-linejoin="round"/>
	<path d="M74.4056 156.618C74.4056 156.618 73.5069 165.201 73.5069 184.023C73.4616 198.32 74.2732 212.608 75.9373 226.808C76.9626 234.618 77.2031 234.744 77.3423 235.77C77.4816 236.795 82.2157 265.858 82.2157 267.655V270.086C82.2157 270.086 79.6841 272.617 80.5448 274.959C81.4056 277.301 82.9878 281.997 82.5954 282.124C82.203 282.25 80.8107 282.896 80.8107 284.048V285.199C82.4802 287.053 84.738 288.273 87.203 288.655C91.684 289.554 93.1017 290.199 94.2536 288.529C95.7202 286.571 96.8065 284.355 97.4561 281.997C97.9624 279.567 98.608 278.415 97.0637 275.984C95.5194 273.554 95.0131 272.516 95.0131 271.238C95.0131 269.959 96.8105 248.706 95.6586 241.402C94.5067 234.099 93.4814 229.339 93.4814 225.542C93.4814 221.744 94.6333 188.656 94.6333 188.656C94.6333 188.656 101.165 229.504 101.937 238.339C102.709 247.174 105.14 269.592 104.874 270.997C104.608 272.402 102.697 274.579 103.608 276.883C104.55 278.875 105.704 280.76 107.051 282.503C106.78 282.731 106.594 283.045 106.525 283.392C106.456 283.74 106.508 284.1 106.671 284.415C107.19 285.68 108.215 287.87 108.722 288.01C109.228 288.149 119.608 286.465 119.608 286.465C119.608 286.465 123.317 280.06 122.139 276.731C120.962 273.402 119.836 271.87 119.836 271.491C120.47 268.06 120.893 264.594 121.101 261.111C121.228 256.504 117.013 211.048 117.013 211.048C117.013 211.048 115.215 169.935 115.215 169.555C115.215 169.175 114.836 162.631 114.836 162.631C114.836 162.631 101.254 171.606 89.6081 167.758C77.9626 163.909 74.4056 156.618 74.4056 156.618Z" fill="#FF5724" stroke="#6C566C" stroke-linecap="round" stroke-linejoin="round"/>
	<path d="M94.6334 188.631L93.1018 183.77" stroke="#6C566C" stroke-linecap="round" stroke-linejoin="round"/>
	<path d="M95.0134 185.049L89.5071 181.719" stroke="#6C566C" stroke-linecap="round" stroke-linejoin="round"/>
	<path d="M93.7853 86.6444C93.7853 86.6444 84.4563 85.29 82.9753 86.2773C81.4943 87.2647 76.2285 95.4798 73.6463 98.9355C71.064 102.391 53.7477 116.999 53.7477 116.999L38.6213 87.8849C39.1152 85.7021 39.4411 83.4847 39.596 81.2521C39.596 79.0495 38.4947 77.6951 38.4947 75.6065C38.4947 73.518 39.482 70.442 38.9884 69.7079C38.4947 68.9737 37.1403 69.8344 36.2795 71.3028C35.4188 72.7711 35.5454 76.8344 35.5454 76.8344C35.5454 76.8344 27.8492 67.3408 27.191 66.1509C27.0138 65.8218 25.7227 65.8978 25.7227 66.8851C25.7227 67.8724 30.5074 76.8344 30.5074 76.8344C30.5074 76.8344 30.0138 77.5686 29.5328 77.5686C29.0517 77.5686 22.2797 69.4674 21.9379 69.3408C21.5961 69.2142 20.4695 69.4674 21.0771 70.8091C21.6847 72.1509 26.8492 79.0496 26.8492 79.0496C25.8565 79.0752 24.8687 79.1982 23.8999 79.4166C23.7592 79.5077 23.6418 79.6303 23.5569 79.7748C23.472 79.9193 23.4221 80.0816 23.411 80.2488C23.3999 80.416 23.428 80.5835 23.4932 80.7379C23.5583 80.8923 23.6585 81.0293 23.786 81.1381C24.2181 81.5421 24.7143 81.8715 25.2543 82.1128C25.2543 82.1128 25.3809 82.8596 25.4948 84.0875C25.43 84.8334 25.5537 85.5837 25.8545 86.2693C26.1553 86.955 26.6236 87.554 27.2163 88.0115C28.4694 89.175 29.9291 90.0937 31.5201 90.7203C32.1277 90.8342 45.2921 129.454 47.3807 132.897C49.4693 136.34 50.4566 136.454 52.7857 135.834C55.1148 135.214 78.064 117.948 78.064 117.948C78.064 117.948 77.0893 149.517 75.9754 151.732C74.8615 153.948 73.6463 153.948 73.6463 155.416C73.7085 156.693 73.8735 157.963 74.1399 159.213C74.1399 159.213 80.2791 169.53 92.8106 169.897C105.342 170.264 116.76 165.226 116.76 162.897C116.669 161.43 116.38 159.982 115.899 158.593C115.899 158.112 117.38 155.77 117.165 154.302C116.95 152.834 116.064 152.454 116.304 150.251C116.545 148.049 127.114 116.467 127.608 106.758C128.101 97.0494 128.215 96.3152 125.886 94.6064C123.557 92.8975 114.95 91.4039 114.95 91.4039L100.456 87.7203L94.6841 87.2267L93.7853 86.6444Z" fill="#D9D9D9" stroke="#6C566C" stroke-linecap="round" stroke-linejoin="round"/>
	<path d="M127.57 106.783C128.064 97.0873 128.178 96.3405 125.849 94.6317C123.519 92.9228 114.912 91.4292 114.912 91.4292L100.418 87.7457L94.6463 87.252L93.7856 86.6444C93.7856 86.6444 84.4566 85.29 82.9756 86.2773C81.4946 87.2647 76.2288 95.4798 73.6465 98.9354C71.0643 102.391 53.748 116.999 53.748 116.999L48.6847 106.708L39.4316 112.885C43.2291 122.91 46.5455 131.505 47.3556 132.847C49.4442 136.277 50.4315 136.403 52.7606 135.783C55.0897 135.163 78.0642 117.948 78.0642 117.948C78.0642 117.948 77.0895 149.517 75.9756 151.732C74.8617 153.948 73.6465 153.948 73.6465 155.416C73.7087 156.693 73.8738 157.963 74.1402 159.213C74.1402 159.213 80.2794 169.53 92.8109 169.897C105.342 170.264 116.76 165.226 116.76 162.897C116.669 161.43 116.38 159.982 115.899 158.593C115.899 158.112 117.38 155.77 117.165 154.302C116.95 152.834 116.064 152.454 116.304 150.251C116.545 148.049 127.076 116.492 127.57 106.783Z" fill="#6C566C" stroke="#6C566C" stroke-linecap="round" stroke-linejoin="round"/>
	<path d="M78.1275 103.442L78.0642 117.961L74.9883 103.581" stroke="white" stroke-width="0.75" stroke-linecap="round" stroke-linejoin="round"/>
	<path d="M75.5327 160.074C87.9167 163.44 101.023 163.039 113.178 158.922" stroke="white" stroke-width="0.75" stroke-linecap="round" stroke-linejoin="round"/>
	<path d="M103.57 165.783C104.836 165.631 106.026 165.441 107.367 165.201" stroke="white" stroke-width="0.75" stroke-linecap="round" stroke-linejoin="round"/>
	<path d="M78.887 161.745C78.887 161.745 85.6591 166.315 97.9627 166.163" stroke="white" stroke-width="0.75" stroke-linecap="round" stroke-linejoin="round"/>
	<path d="M35.5454 76.7711C35.4816 77.6423 35.2174 78.4871 34.7733 79.2394C34.0265 80.5052 33.0898 80.9482 32.9632 83.1634C32.9166 83.7833 33.0147 84.4056 33.2498 84.9812C33.4848 85.5567 33.8504 86.0698 34.3176 86.4799" stroke="#6C566C" stroke-linecap="round" stroke-linejoin="round"/>
	<path d="M27.6848 80.328C27.6848 80.328 22.7735 76.8977 21.7862 77.5053C21.5166 77.6928 21.2906 77.9361 21.1233 78.2187C20.956 78.5012 20.8514 78.8164 20.8166 79.143C20.7818 79.4695 20.8176 79.7997 20.9215 80.1111C21.0255 80.4226 21.1952 80.7081 21.4191 80.9483C22.533 81.9356 27.3178 82.6698 28.1785 82.2141C29.0393 81.7584 28.4697 80.8343 27.6848 80.328Z" fill="#D9D9D9" stroke="#6C566C" stroke-linecap="round" stroke-linejoin="round"/>
	<path d="M29.2038 84.1381C29.2038 84.1381 25.7734 83.4039 24.938 83.2647C24.1026 83.1254 23.6089 83.5938 23.6722 84.4672C23.7355 85.3406 24.5836 85.8849 25.9127 85.9355C27.2418 85.9861 30.1911 86.4798 30.3177 85.2014C30.3555 85.0496 30.3526 84.8905 30.309 84.7402C30.2655 84.59 30.1829 84.454 30.0698 84.3459C29.9566 84.2379 29.8169 84.1618 29.6648 84.1253C29.5127 84.0888 29.3536 84.0932 29.2038 84.1381V84.1381Z" fill="#D9D9D9" stroke="#6C566C" stroke-linecap="round" stroke-linejoin="round"/>
	<path d="M100.456 79.4926C100.456 79.4926 107.304 79.2774 109.633 78.1635" stroke="#6C566C" stroke-linecap="round" stroke-linejoin="round"/>
	<path d="M116.279 101.492C116.279 101.492 102.355 115.707 97.8361 121.087C94.6996 124.732 91.2751 128.118 87.5957 131.214L56.6467 110.644C55.4827 108.91 54.4136 107.114 53.4442 105.264C52.5454 103.34 51.1404 102.834 49.9885 99.8848C48.8366 96.9355 47.6721 95.0241 46.786 97.0747C45.8999 99.1253 46.267 99.7582 46.786 100.784C47.305 101.809 49.0898 104.885 49.0898 104.885C49.0898 104.885 41.4063 101.809 38.7101 100.657C36.014 99.505 33.2039 99.1253 33.0773 100.151C32.9507 101.176 33.4697 101.037 34.7481 101.556C36.0266 102.075 43.9632 106.416 43.9632 106.416L43.1911 106.809C43.1911 106.809 32.6975 104.885 31.6722 104.758C30.6469 104.632 30.9001 106.024 31.6722 106.416C32.4444 106.809 36.4063 108.72 36.4063 108.72C36.4063 108.72 35.5076 109.492 36.5329 110.897C37.5109 112.057 38.6292 113.09 39.862 113.973C40.084 114.906 40.5773 115.751 41.2797 116.404C42.305 117.176 48.9632 117.049 51.7733 117.302C53.1815 117.367 54.5684 117.671 55.8745 118.201C55.8745 118.201 88.4945 146.049 90.6716 146.049C92.8488 146.049 123.19 117.366 126.519 113.138C129.849 108.91 132.279 101.492 130.241 98.0367C128.203 94.581 124.988 93.8089 122.937 94.5684" fill="#CCCCCC"/>
	<path d="M116.279 101.492C116.279 101.492 102.355 115.707 97.8361 121.087C94.6996 124.732 91.2751 128.118 87.5957 131.214L56.6467 110.644C55.4827 108.91 54.4136 107.114 53.4442 105.264C52.5454 103.34 51.1404 102.834 49.9885 99.8848C48.8366 96.9355 47.6721 95.0241 46.786 97.0747C45.8999 99.1253 46.267 99.7582 46.786 100.784C47.305 101.809 49.0898 104.885 49.0898 104.885C49.0898 104.885 41.4063 101.809 38.7101 100.657C36.014 99.505 33.2039 99.1253 33.0773 100.151C32.9507 101.176 33.4697 101.037 34.7481 101.556C36.0266 102.075 43.9632 106.416 43.9632 106.416L43.1911 106.809C43.1911 106.809 32.6975 104.885 31.6722 104.758C30.6469 104.632 30.9001 106.024 31.6722 106.416C32.4444 106.809 36.4063 108.72 36.4063 108.72C36.4063 108.72 35.5076 109.492 36.5329 110.897C37.5109 112.057 38.6292 113.09 39.862 113.973C40.084 114.906 40.5773 115.751 41.2797 116.404C42.305 117.176 48.9632 117.049 51.7733 117.302C53.1815 117.367 54.5684 117.671 55.8745 118.201C55.8745 118.201 88.4945 146.049 90.6716 146.049C92.8488 146.049 123.19 117.366 126.519 113.138C129.849 108.91 132.279 101.492 130.241 98.0367C128.203 94.581 124.988 93.8089 122.937 94.5684" stroke="#6C566C" stroke-linecap="round" stroke-linejoin="round"/>
	<path d="M36.4062 108.644C36.4062 108.644 40.5075 110.062 41.786 110.442Z" fill="white"/>
	<path d="M36.4062 108.644C36.4062 108.644 40.5075 110.062 41.786 110.442" stroke="#6C566C" stroke-linecap="round" stroke-linejoin="round"/>
	<path d="M39.8618 113.897L42.558 114.277" stroke="#6C566C" stroke-linecap="round" stroke-linejoin="round"/>
	<path d="M116.279 101.492C116.279 101.492 102.355 115.707 97.8359 121.087C94.6994 124.732 91.2749 128.118 87.5955 131.214L79.3298 125.783L74.6462 134.581C82.8107 140.821 89.836 145.973 90.6841 145.973C92.8486 145.973 123.203 117.29 126.532 113.062C129.861 108.834 132.291 101.416 130.253 97.9607C128.215 94.5051 125 93.7329 122.95 94.4924L121.089 95.6696" fill="#6C566C"/>
	<path d="M116.279 101.492C116.279 101.492 102.355 115.707 97.8359 121.087C94.6994 124.732 91.2749 128.118 87.5955 131.214L79.3298 125.783L74.6462 134.581C82.8107 140.821 89.836 145.973 90.6841 145.973C92.8486 145.973 123.203 117.29 126.532 113.062C129.861 108.834 132.291 101.416 130.253 97.9607C128.215 94.5051 125 93.7329 122.95 94.4924L121.089 95.6696" stroke="white" stroke-width="0.75" stroke-linecap="round" stroke-linejoin="round"/>
	<path d="M114.912 91.4292L100.419 87.7457L95.8109 87.3406L93.7857 86.6444C93.7857 86.6444 92.7351 86.4925 91.2541 86.3279L90.887 114.492L119.836 92.4671C117.304 91.8342 114.912 91.4292 114.912 91.4292Z" fill="white" stroke="#6C566C" stroke-linecap="round" stroke-linejoin="round"/>
	<path d="M111.292 46.341C108.263 46.2596 105.323 47.3684 103.102 49.4296C99.7853 52.8472 99.5701 55.0624 98.241 56.2776C96.9119 57.4928 94.3676 57.3788 92.6081 61.1383C90.8487 64.8978 89.5069 72.7458 89.836 75.2901C90.1651 77.8344 92.3677 78.6065 94.4816 78.9356C96.5955 79.2647 100.456 79.4926 100.456 79.4926C100.456 79.4926 99.8866 87.7963 99.3423 87.6697C98.798 87.5431 95.8106 87.3406 95.8106 87.3406C95.8106 87.3406 95.2537 100.277 95.1524 103.48L95.0385 106.695L115.228 91.3659L111.292 89.7203C111.401 87.1713 111.826 84.6457 112.557 82.2014C113.166 80.2608 113.941 78.3762 114.874 76.5685C114.874 76.5685 121.203 74.4673 124.608 69.7205C127.355 65.9231 127.266 60.4421 125.772 56.1637C124.918 53.6642 123.399 51.4445 121.379 49.7429C119.358 48.0414 116.913 46.9222 114.304 46.5055C113.308 46.3508 112.299 46.2957 111.292 46.341Z" fill="#D9D9D9" stroke="#6C566C" stroke-linecap="round" stroke-linejoin="round"/>
	<path d="M100.228 58.9358C99.1428 60.1426 97.9192 61.2174 96.5827 62.1383C94.8105 63.2395 96.1396 65.3408 98.3548 66.1129C100.57 66.8851 101.228 65.8978 101.228 65.8978" stroke="#6C566C" stroke-linecap="round" stroke-linejoin="round"/>
	<path d="M101.557 69.7711C101.557 69.7711 97.0258 69.1002 94.9246 67.1129C95.0693 67.7265 95.3686 68.2928 95.794 68.7581C96.2194 69.2234 96.7567 69.5721 97.3549 69.7711C98.7385 70.0821 100.174 70.0821 101.557 69.7711V69.7711Z" stroke="#6C566C" stroke-width="0.75" stroke-linecap="round" stroke-linejoin="round"/>
	<path d="M107.975 56.0624C108.747 56.3043 109.432 56.7681 109.943 57.3961C110.454 58.024 110.769 58.7884 110.848 59.594" stroke="#6C566C" stroke-linecap="round" stroke-linejoin="round"/>
	<path d="M104.216 54.2903C103.666 53.8243 102.979 53.5499 102.26 53.5088C101.541 53.4677 100.827 53.6621 100.228 54.0624" stroke="#6C566C" stroke-linecap="round" stroke-linejoin="round"/>
	<path d="M105.975 60.3662C105.507 61.113 104.849 61.5434 104.52 61.3408C104.19 61.1383 104.292 60.3408 104.76 59.594C105.228 58.8472 105.887 58.4168 106.228 58.632C106.57 58.8472 106.456 59.6193 105.975 60.3662Z" fill="#6C566C"/>
	<path d="M99.6843 57.2776C99.2033 58.0244 98.5578 58.4548 98.216 58.2396C97.8742 58.0244 97.9881 57.2523 98.4691 56.5054C98.9502 55.7586 99.5957 55.3282 99.9248 55.5308C100.254 55.7333 100.153 56.5181 99.6843 57.2776Z" fill="#6C566C"/>
	<path d="M103.545 62.3535C103.545 62.3535 106.975 62.4674 108.076 63.7965" stroke="#6C566C" stroke-width="0.75" stroke-linecap="round" stroke-linejoin="round"/>
	<path d="M125.722 56.2143C124.867 53.7148 123.348 51.4951 121.328 49.7936C119.308 48.092 116.862 46.9729 114.253 46.5562C113.275 46.3879 112.283 46.3158 111.291 46.341C110.16 46.3508 109.034 46.4953 107.937 46.7714C108.363 47.4127 108.899 47.974 109.519 48.4296C110.532 49.1764 113.393 48.8726 116.481 50.2017C119.57 51.5308 121.456 55.9485 119.469 58.594C117.481 61.2396 115.431 57.9738 114.405 60.4041C113.949 61.6093 113.56 62.8391 113.241 64.0876C113.205 64.5116 113.235 64.9386 113.329 65.3535C113.684 66.6193 114.519 67.2522 114.051 67.8851C113.583 68.518 112.848 69.1509 112.848 70.0243C112.856 70.2533 112.951 70.4706 113.114 70.6319C114.988 69.8851 118.937 68.5939 119.443 70.9483C120.101 74.0369 117.456 75.5939 115.355 75.923C113.702 76.0387 112.044 75.8147 110.481 75.2648C110.481 75.2648 111.253 77.0622 114.431 77.4166C114.658 76.9483 114.798 76.6951 114.798 76.6951C114.798 76.6951 121.127 74.5939 124.532 69.8471C127.304 65.9484 127.215 60.4927 125.722 56.2143Z" fill="#6C566C" stroke="#6C566C" stroke-linecap="round" stroke-linejoin="round"/>
	<path d="M73.2247 39.2924C73.2254 37.4537 72.8638 35.6329 72.1607 33.934C71.4575 32.2351 70.4266 30.6914 69.1267 29.391C67.8268 28.0906 66.2834 27.0591 64.5848 26.3553C62.8861 25.6515 61.0655 25.2892 59.2268 25.2892C58.4253 25.2896 57.6254 25.3597 56.8361 25.499C56.8459 20.2153 54.7563 15.1441 51.027 11.4011C47.2978 7.65814 42.2344 5.54988 36.9507 5.54015C31.6671 5.53042 26.5959 7.62001 22.8529 11.3492C19.1099 15.0785 17.0017 20.1419 16.9919 25.4256C16.3508 25.3377 15.7045 25.2922 15.0574 25.2892C11.4059 25.2737 7.89297 26.6857 5.26789 29.2238C2.64281 31.762 1.11345 35.2254 1.00606 38.8753C0.898671 42.5252 2.22176 46.0726 4.69307 48.7607C7.16437 51.4489 10.5882 53.0649 14.2343 53.2641H60.0866C63.6435 53.0452 66.9831 51.4779 69.4243 48.8817C71.8656 46.2856 73.2248 42.8561 73.2247 39.2924Z" fill="white" fill-opacity="0.2" stroke="#6C566C" stroke-linecap="round" stroke-linejoin="round"/>
	<path d="M44.3534 38.7681L35.4566 31.376L26.5598 38.7681H28.5153V62.5383H42.4031V38.7681H44.3534Z" fill="#6C566C"/>
	<path d="M37.0084 57.9563C36.8426 57.9587 36.6838 58.0238 36.5642 58.1386C36.4445 58.2534 36.3728 58.4093 36.3635 58.5749L36.3321 59.4137H25.9149L25.3015 74.0145H45.297L45.7584 62.9473L45.9157 59.4137L45.9786 57.9563H37.0084Z" fill="#FF5724" stroke="#6C566C" stroke-linecap="round" stroke-linejoin="round"/>
	<path d="M45.2969 74.0145L45.213 60.4308H25.9934L26.1454 73.8468L45.2969 74.0145Z" fill="white" stroke="#6C566C" stroke-linecap="round" stroke-linejoin="round"/>
	<path d="M45.2969 74.0145L44.4266 60.4308H25.207L25.3591 73.8468L45.2969 74.0145Z" fill="white" stroke="#6C566C" stroke-linecap="round" stroke-linejoin="round"/>
	<path d="M25.3014 74.0145L22.6277 60.0114H42.749L45.2969 74.0145H25.3014Z" fill="#FF5724" stroke="#6C566C" stroke-linecap="round" stroke-linejoin="round"/>
	<path d="M27.2571 55.487V56.4202" stroke="#6C566C" stroke-linecap="round" stroke-linejoin="round"/>
	<path d="M27.2571 50.2967V54.5485" stroke="#6C566C" stroke-linecap="round" stroke-linejoin="round"/>
	<path d="M43.6038 45.788V49.3583" stroke="#6C566C" stroke-linecap="round" stroke-linejoin="round"/>
	<path d="M37.3911 74.6332V78.2034" stroke="#6C566C" stroke-linecap="round" stroke-linejoin="round"/>
	<path d="M45.1399 80.0698V88.154" stroke="#6C566C" stroke-linecap="round" stroke-linejoin="round"/>
	<path d="M45.1399 77.265V78.7958" stroke="#6C566C" stroke-linecap="round" stroke-linejoin="round"/>
	<path d="M26.8481 76.9242V79.8129" stroke="#6C566C" stroke-linecap="round" stroke-linejoin="round"/>
	<path d="M28.7197 90.2773V90.9588" stroke="#6C566C" stroke-linecap="round" stroke-linejoin="round"/>
	<path d="M28.7197 78.7067V89.3441" stroke="#6C566C" stroke-linecap="round" stroke-linejoin="round"/>
	<path d="M96.0462 12.1721C96.0462 10.9416 95.5573 9.76143 94.6872 8.89131C93.8171 8.02119 92.637 7.53236 91.4064 7.53236C91.141 7.53095 90.876 7.55376 90.6148 7.60051C90.6148 5.84995 89.9194 4.17108 88.6815 2.93325C87.4437 1.69541 85.7648 1 84.0143 1C82.2637 1 80.5848 1.69541 79.347 2.93325C78.1092 4.17108 77.4138 5.84995 77.4138 7.60051C77.1999 7.57315 76.9845 7.55914 76.7689 7.55857C75.568 7.56691 74.4172 8.04053 73.5583 8.87986C72.6994 9.71919 72.1994 10.8588 72.1635 12.0592C72.1275 13.2595 72.5583 14.4271 73.3654 15.3164C74.1724 16.2056 75.2928 16.7473 76.491 16.8276V16.8276H91.6948C92.8774 16.754 93.987 16.2307 94.7961 15.365C95.6052 14.4994 96.0525 13.357 96.0462 12.1721V12.1721Z" fill="white" fill-opacity="0.2" stroke="#6C566C" stroke-linecap="round" stroke-linejoin="round"/>
</svg>
