<svg xmlns="http://www.w3.org/2000/svg" width="197" height="180" fill="none" viewBox="0 0 197 180">
    <path fill="#0EA5E9" stroke="#384C73" stroke-linecap="round" stroke-linejoin="round" d="M141 69.84s-31.91 14.85-35.2 18.57c-4.64 5.25-9.46 58-9.46 58L87.22 154l14 24.78h82.95s10.92-85.54 9.71-89.8c-1.21-4.26-34.93-16.71-38.27-18.23-3.34-1.52-11.87-2.43-14.61-.91Z"/>
    <path stroke="#384C73" stroke-linecap="round" stroke-linejoin="round" d="m112.71 109.73-1.08-2.31M113.06 157.44l.47-13-2.43-9.36c-.58-2.263-.56-4.638.06-6.89l3.84-13.65-1.06-2.27M112.58 170.901l.35-9.68"/>
    <path fill="#0EA5E9" d="M109.22 153.131c.432 1.148.747 2.338.94 3.55l-.94-3.55Z"/>
    <path stroke="#384C73" stroke-linecap="round" stroke-linejoin="round" d="M109.22 153.131c.432 1.148.747 2.338.94 3.55"/>
    <path fill="#0EA5E9" d="M100.39 147.519a7.557 7.557 0 0 1 7.66 3.36"/>
    <path stroke="#384C73" stroke-linecap="round" stroke-linejoin="round" d="M100.39 147.519a7.557 7.557 0 0 1 7.66 3.36"/>
    <path fill="#fff" stroke="#384C73" stroke-linecap="round" stroke-linejoin="round" d="M42.28 164.73s-2.87.43-4 2.29-3.3 7.16-2.29 7.59c1.01.43 1.71-1.14 2.43-2.29.72-1.15 1.72-2.87 1.72-2.87l2.29-.43-.15-4.29Z"/>
    <path fill="#fff" stroke="#384C73" stroke-linecap="round" stroke-linejoin="round" d="M46.29 162.001s-3.29-.29-4.15 1.14c-.86 1.43-2.58 10.89-2.44 12 .14 1.11 1.58 1.72 2.72-.28 1.14-2 3.58-10.86 3.58-10.86l.29-2Z"/>
    <path fill="#fff" stroke="#384C73" stroke-linecap="round" stroke-linejoin="round" d="M53 161.859s-4.87-2.29-6.87-1.86c-2 .43-4.87 15-4.44 15.76a2.154 2.154 0 0 0 2.482.286c.26-.144.488-.34.668-.576.71-1.15 4.87-8.16 6-9.88a39.21 39.21 0 0 0 2.16-3.73Z"/>
    <path fill="#fff" stroke="#384C73" stroke-linecap="round" stroke-linejoin="round" d="M103 169.349s-1.86-12.69-5.27-17.65c-3.41-4.96-5.91-.68-11.06 2-3.13 1.63-21.77 9.46-22.7 9.77-.93.31-9-4.34-10.53-3.1-1.53 1.24-7.43 8.67-8.67 12.7-1.24 4.03 1.86 4.33 3.1 3.1s4.95-7.13 6.5-8.37c1.55-1.24 5.27 2.79 5.27 2.79s-5.58 2.79-7.43 4c-1.85 1.21.92 1.86 4 1.86a23.884 23.884 0 0 0 9-2.17l3.1-1.55s24.49.03 34.69-3.38Z"/>
    <path fill="#0EA5E9" d="M186.49 84.92s9.6 2.75 9.08 5.83c-.52 3.08-2.57 71.05-5.87 75.73-3.3 4.68-12.53 3.11-12.53 3.11s-3.92-12.2-7.91-15.89c-3.99-3.69-5.47-2.43-5.47-2.43l2.73-41.27"/>
    <path stroke="#384C73" stroke-linecap="round" stroke-linejoin="round" d="M186.49 84.92s9.6 2.75 9.08 5.83c-.52 3.08-2.57 71.05-5.87 75.73-3.3 4.68-12.53 3.11-12.53 3.11s-3.92-12.2-7.91-15.89c-3.99-3.69-5.47-2.43-5.47-2.43l2.73-41.27"/>
    <path fill="#0EA5E9" d="M164.51 148.13s1.83-7.32 20.15 0h-20.15Z"/>
    <path stroke="#384C73" stroke-linecap="round" stroke-linejoin="round" d="M164.51 148.13s1.83-7.32 20.15 0"/>
    <path fill="#0EA5E9" d="M170.62 139.59s13.43 1.83 17.7 7.93l-17.7-7.93Z"/>
    <path stroke="#384C73" stroke-linecap="round" stroke-linejoin="round" d="M170.62 139.59s13.43 1.83 17.7 7.93"/>
    <path fill="#fff" stroke="#384C73" stroke-linecap="round" stroke-linejoin="round" d="M93 165.609a19.824 19.824 0 0 1-4.81 4.24c-2.83 1.7-6.51 2.55-4 3.68 2.51 1.13 6.5-.57 8.77-2 2.27-1.43.04-5.92.04-5.92Z"/>
    <path fill="#fff" stroke="#384C73" stroke-linecap="round" stroke-linejoin="round" d="M149.78 160c6.18-3.78 11.74-10.06 19.43-10.35 7.69-.29 14.79 5.17 18.2 11.68 1.11 2.13 1.89 4.63 1.19 6.94-1.32 4.32-6.72 5.57-11.21 6.11l-24.79 2.93c-14.82 1.75-30.43 3.4-44.18-2.42a6.383 6.383 0 0 1-1.67 3.51c-1 .86-2.85.82-3.37-.39a3.247 3.247 0 0 1-4 .34c-.26-.16-1.58.52-2.95.28-.49-.09-2.18-.83-2.66-.95a2.448 2.448 0 0 1-1.65-.93 2.561 2.561 0 0 1-.24-1.32c-.18-2.915.096-5.84.82-8.67 3.49-11.18 15.95-5 22.59-.67 2.26 1.5 4.63 3 7.33 3.29a16.534 16.534 0 0 0 5.93-.9c7.13-2 14.65-4.48 21.15-8.42l.08-.06Z"/>
    <path stroke="#384C73" stroke-linecap="round" stroke-linejoin="round" d="m108.42 174.86 1.07-4.19M103.5 177.49s.57-11.6 2.55-14.14M99.54 177.77s-.85-10.18 1.13-15M95.26 177.73s-.81-7.79.61-13.25"/>
    <path fill="#fff" stroke="#384C73" stroke-linecap="round" stroke-linejoin="round" d="M132.54 73.849s-8.68 24.43 4.71 24.8c15.4.43 21.39-26.09 21.39-26.09s-8.56-14.56-10.7-26.56c-2.14-12-15.4 27.85-15.4 27.85Z"/>
    <path stroke="#384C73" stroke-linecap="round" stroke-linejoin="round" d="M132.54 73.85s2.14 2.56 3.85 9.41"/>
    <path fill="#384C73" stroke="#384C73" stroke-linecap="round" stroke-linejoin="round" d="M106 25.14s-7.62 4.93-7.62 9.86 9.41 6.72 9.41 6.72L106 25.14Z"/>
    <path fill="#fff" stroke="#384C73" stroke-linecap="round" stroke-linejoin="round" d="M103.22 28.2s.86 10.27 1.71 16 4.5 10.49 4.71 14.34c.21 3.85 8.78 13.27 13.06 16.48 4.28 3.21 10.7 2.14 13.91-.42a41.555 41.555 0 0 0 11.13-15.42c2.57-6.63.64-16.26 0-19.26s-16.69-14.72-28.9-14.72c-12.21 0-15.62 3-15.62 3Z"/>
    <path stroke="#384C73" stroke-linecap="round" stroke-linejoin="round" d="M116.7 52.17s-.85 7.71-.85 8.35c0 .64 1.92 2.57 5.13.64M129.55 61.16a11.802 11.802 0 0 1-9 4.07"/>
    <path fill="#384C73" d="M123.44 50.19c.24 1.4.94 2.45 1.55 2.34.61-.11.9-1.33.66-2.73s-.95-2.45-1.56-2.34c-.61.11-.9 1.33-.65 2.73ZM110.65 53.29c.34 1.23 1.06 2.1 1.59 2 .53-.1.69-1.27.35-2.5-.34-1.23-1-2.11-1.59-2-.59.11-.69 1.26-.35 2.5Z"/>
    <path stroke="#384C73" stroke-linecap="round" stroke-linejoin="round" stroke-width="2" d="M130.06 44.68s-5.38-1.79-7.85 1.12M112.91 47.69a4.18 4.18 0 0 0-5 1.92"/>
    <path fill="#384C73" stroke="#384C73" stroke-linecap="round" stroke-linejoin="round" d="M145.41 8.92s7.67-12.56 18.13-5.23c10.46 7.33 26 39.64 21.08 48.71-4.92 9.07-33.48 14.54-34.53 7.22-1.05-7.32.55-40.94-2.94-45.82-3.49-4.88-1.74-4.88-1.74-4.88Z"/>
    <path fill="#384C73" stroke="#384C73" stroke-linecap="round" stroke-linejoin="round" d="M140.25 40.4s-11.56-6.21-21.41-8.14c-9.85-1.93-17.33-1.07-19-6.85-1.67-5.78 9.8-15.41 21.79-18.83 11.99-3.42 26.32.21 32.1 8.77 5.78 8.56 3.86 18.84 2.14 22.69-1.72 3.85-3 6.85-6.2 7.28-3.2.43-9.42-4.92-9.42-4.92Z"/>
    <path stroke="#fff" stroke-linecap="round" stroke-linejoin="round" d="M148.62 33.61a12.346 12.346 0 0 1 3.12 2.58M108.36 19s-3.12 1.88 5.93 5.62c6.57 2.72 19.88 3.47 29.19 6.66M120.37 16.83a8.69 8.69 0 0 1-1.72-2.8M153.92 32.44s2.81-4-6.87-6.86c-7-2-17-2.75-23.27-6.16"/>
    <path fill="#fff" d="M146.24 48.53s1.7-8.35 5.34-8.35c3.64 0 4.13 3.86 2.67 8.57-1.46 4.71-3.88 6.2-6.07 4.7"/>
    <path stroke="#384C73" stroke-linecap="round" stroke-linejoin="round" d="M146.24 48.53s1.7-8.35 5.34-8.35c3.64 0 4.13 3.86 2.67 8.57-1.46 4.71-3.88 6.2-6.07 4.7"/>
    <path fill="#384C73" stroke="#384C73" stroke-linecap="round" stroke-linejoin="round" d="M132.08 175.439H8.94v3.52h123.14v-3.52Z"/>
    <path fill="#fff" stroke="#384C73" stroke-linecap="round" stroke-linejoin="round" d="M132.08 175.439H88.85v3.52h43.23v-3.52ZM90.31 175.439h-80l-7.77-53.18a3.871 3.871 0 0 1 3.91-4.59h70.78a5.5 5.5 0 0 1 5.26 4.59l7.82 53.18Z"/>
    <path fill="#fff" stroke="#384C73" stroke-linecap="round" stroke-linejoin="round" d="M88.77 175.439H8.82L1 122.259a3.883 3.883 0 0 1 2.238-4.257 3.878 3.878 0 0 1 1.682-.333H75.7a5.51 5.51 0 0 1 5.26 4.59l7.81 53.18Z"/>
  </svg>
  