<svg width="325" height="412" viewbox="0 0 325 412" fill="none" xmlns="http://www.w3.org/2000/svg">
    <path d="M261.77 221.7C277.16 236.76 279.77 260.07 276.5 280.49C276.41 280.95 275.7 280.82 275.7 280.39C275.7 275.74 275.84 271.14 275.82 266.54C275.74 266.33 275.67 266.14 275.58 265.93C271.58 263.01 267.87 259.71 265.58 255.18C263.01 250.13 262 244.43 260.03 239.18C259.85 238.67 260.39 238.82 260.74 239.08C270.1 245.99 273.08 253.42 275.74 263.34C275.682 258.15 275.137 252.978 274.11 247.89C272.11 238.46 268.11 229.13 261.32 222.13C261.292 222.101 261.27 222.066 261.255 222.028C261.24 221.99 261.233 221.949 261.234 221.908C261.236 221.826 261.27 221.747 261.33 221.69C261.39 221.633 261.47 221.602 261.552 221.604C261.635 221.606 261.713 221.641 261.77 221.7V221.7Z" fill="#25314B"/>
    <path d="M258.87 223.45C256.23 223.54 254.57 227.77 252.5 229.01C252.283 229.184 252.032 229.311 251.763 229.382C251.494 229.454 251.213 229.468 250.938 229.425C250.664 229.381 250.401 229.281 250.167 229.131C249.933 228.98 249.733 228.782 249.58 228.55C247.58 225.7 250.34 222.18 252.98 220.21C251.09 220.98 249.53 222.35 247.5 222.73C247.24 222.816 246.964 222.845 246.692 222.815C246.42 222.785 246.157 222.697 245.922 222.557C245.687 222.416 245.484 222.227 245.329 222.002C245.173 221.776 245.068 221.52 245.02 221.25C244.12 217.36 249.02 215.63 252.35 215.55C250.73 214.42 246.08 211.35 248.55 209.84C251.02 208.33 256.55 212.71 258.29 214.16C260.91 216.28 264.03 219.45 264.15 222.78C264.3 226.65 260.91 224.27 258.87 223.45Z" fill="#5F5AF6"/>
    <path opacity="0.1" d="M258.87 223.45C256.23 223.54 254.57 227.77 252.5 229.01C252.283 229.184 252.032 229.311 251.763 229.382C251.494 229.454 251.213 229.468 250.938 229.425C250.664 229.381 250.401 229.281 250.167 229.131C249.933 228.98 249.733 228.782 249.58 228.55C247.58 225.7 250.34 222.18 252.98 220.21C251.09 220.98 249.53 222.35 247.5 222.73C247.24 222.816 246.964 222.845 246.692 222.815C246.42 222.785 246.157 222.697 245.922 222.557C245.687 222.416 245.484 222.227 245.329 222.002C245.173 221.776 245.068 221.52 245.02 221.25C244.12 217.36 249.02 215.63 252.35 215.55C250.73 214.42 246.08 211.35 248.55 209.84C251.02 208.33 256.55 212.71 258.29 214.16C260.91 216.28 264.03 219.45 264.15 222.78C264.3 226.65 260.91 224.27 258.87 223.45Z" fill="black"/>
    <path d="M259.64 224.11C256.26 222.57 249.75 224.78 249.2 223.5C248.08 220.89 253.28 219.1 256.08 218.76C253.5 218.06 248.55 216.94 248.7 214.45C248.89 211.45 256.29 214.03 260.04 216.9C264.76 220.52 264.73 224.01 263.95 224.71C262.88 225.67 260.2 224.36 259.64 224.11Z" fill="#5F5AF6"/>
    <path d="M296.81 220.21C280.86 234.68 277.4 257.87 279.86 278.39C279.93 278.86 280.65 278.76 280.66 278.32C280.84 273.68 280.88 269.07 281.06 264.49C281.16 264.28 281.23 264.08 281.33 263.88C285.45 261.11 289.27 257.95 291.72 253.52C294.48 248.57 295.72 242.91 297.88 237.71C298.08 237.21 297.53 237.34 297.17 237.59C287.55 244.13 284.29 251.44 281.23 261.26C281.483 256.072 282.223 250.919 283.44 245.87C285.82 236.54 290.18 227.36 297.21 220.63C297.266 220.577 297.298 220.504 297.3 220.427C297.302 220.35 297.273 220.276 297.22 220.22C297.167 220.164 297.094 220.132 297.017 220.13C296.94 220.128 296.866 220.157 296.81 220.21V220.21Z" fill="#25314B"/>
    <path d="M299.64 222.07C302.28 222.26 303.78 226.55 305.79 227.86C306 228.043 306.246 228.181 306.512 228.264C306.778 228.346 307.058 228.372 307.335 228.34C307.612 228.308 307.879 228.219 308.119 228.078C308.359 227.936 308.567 227.746 308.73 227.52C310.88 224.74 308.21 221.12 305.65 219.05C307.51 219.9 309.02 221.32 311.03 221.78C311.287 221.875 311.562 221.914 311.836 221.894C312.109 221.873 312.376 221.795 312.616 221.663C312.857 221.531 313.067 221.35 313.231 221.13C313.396 220.91 313.511 220.658 313.57 220.39C314.57 216.54 309.8 214.63 306.46 214.39C308.12 213.32 312.89 210.39 310.46 208.83C308.03 207.27 302.39 211.4 300.55 212.77C297.86 214.77 294.62 217.85 294.37 221.16C294.09 225.06 297.57 222.81 299.64 222.07Z" fill="#5F5AF6"/>
    <path opacity="0.1" d="M299.64 222.07C302.28 222.26 303.78 226.55 305.79 227.86C306 228.043 306.246 228.181 306.512 228.264C306.778 228.346 307.058 228.372 307.335 228.34C307.612 228.308 307.879 228.219 308.119 228.078C308.359 227.936 308.567 227.746 308.73 227.52C310.88 224.74 308.21 221.12 305.65 219.05C307.51 219.9 309.02 221.32 311.03 221.78C311.287 221.875 311.562 221.914 311.836 221.894C312.109 221.873 312.376 221.795 312.616 221.663C312.857 221.531 313.067 221.35 313.231 221.13C313.396 220.91 313.511 220.658 313.57 220.39C314.57 216.54 309.8 214.63 306.46 214.39C308.12 213.32 312.89 210.39 310.46 208.83C308.03 207.27 302.39 211.4 300.55 212.77C297.86 214.77 294.62 217.85 294.37 221.16C294.09 225.06 297.57 222.81 299.64 222.07Z" fill="black"/>
    <path d="M298.85 222.69C302.29 221.28 308.7 223.75 309.3 222.49C310.52 219.92 305.4 217.94 302.61 217.49C305.22 216.88 310.2 215.96 310.15 213.49C310.08 210.49 302.58 212.78 298.72 215.49C293.87 218.93 293.72 222.42 294.52 223.15C295.55 224.14 298.28 222.93 298.85 222.69Z" fill="#5F5AF6"/>
    <path d="M280.5 258.42C279.419 266.159 277.764 273.806 275.55 281.3C275.507 281.434 275.416 281.547 275.294 281.618C275.173 281.689 275.029 281.713 274.892 281.684C274.754 281.655 274.631 281.577 274.548 281.464C274.465 281.35 274.426 281.21 274.44 281.07C275.44 274.02 277.39 267.07 278.44 260.07C279.584 252.937 279.996 245.706 279.67 238.49C279 226.59 275.77 214 268 204.66C267.82 204.44 268.19 204.13 268.36 204.33C283.88 222.43 281.41 244.62 281.36 246.6C283.56 239.11 285.82 230.52 294.13 222.9C294.49 222.57 294.77 222.72 294.71 223.28C293.23 237.18 289.36 244.43 281.31 251.86C281.103 254.067 280.833 256.253 280.5 258.42Z" fill="#25314B"/>
    <path d="M267.87 206.74C265.08 205.5 261.23 209.05 258.47 209.3C258.153 209.374 257.824 209.38 257.504 209.317C257.185 209.254 256.882 209.123 256.617 208.934C256.352 208.744 256.131 208.501 255.967 208.219C255.804 207.937 255.703 207.624 255.67 207.3C254.98 203.3 259.67 201.07 263.39 200.35C261.05 200.21 258.74 200.84 256.39 200.21C256.078 200.168 255.778 200.059 255.512 199.89C255.246 199.722 255.018 199.499 254.846 199.235C254.673 198.972 254.559 198.674 254.512 198.363C254.464 198.051 254.484 197.733 254.57 197.43C255.57 192.94 261.57 193.6 265.05 195.2C263.93 193.2 260.65 187.69 263.97 187.37C267.29 187.05 270.79 194.37 271.91 196.75C273.56 200.27 275.2 205.13 273.65 208.64C271.89 212.79 269.58 208.61 267.87 206.74Z" fill="#5F5AF6"/>
    <path opacity="0.1" d="M267.87 206.74C265.08 205.5 261.23 209.05 258.47 209.3C258.153 209.374 257.824 209.38 257.504 209.317C257.185 209.254 256.882 209.123 256.617 208.934C256.352 208.744 256.131 208.501 255.967 208.219C255.804 207.937 255.703 207.624 255.67 207.3C254.98 203.3 259.67 201.07 263.39 200.35C261.05 200.21 258.74 200.84 256.39 200.21C256.078 200.168 255.778 200.059 255.512 199.89C255.246 199.722 255.018 199.499 254.846 199.235C254.673 198.972 254.559 198.674 254.512 198.363C254.464 198.051 254.484 197.733 254.57 197.43C255.57 192.94 261.57 193.6 265.05 195.2C263.93 193.2 260.65 187.69 263.97 187.37C267.29 187.05 270.79 194.37 271.91 196.75C273.56 200.27 275.2 205.13 273.65 208.64C271.89 212.79 269.58 208.61 267.87 206.74Z" fill="black"/>
    <path d="M268.34 207.8C265.6 204.5 257.74 203.53 257.81 201.92C257.96 198.65 264.25 199.41 267.34 200.46C265.01 198.46 260.44 194.79 261.85 192.28C263.57 189.22 269.94 195.66 272.38 200.53C275.46 206.66 273.67 210.27 272.51 210.6C270.91 211.06 268.79 208.35 268.34 207.8Z" fill="#5F5AF6"/>
    <path d="M290.71 262.6L297.56 314.91H255.9C256.76 310.27 264.52 262.54 264.52 262.54L290.71 262.6Z" fill="#5F5AF6"/>
    <path d="M0 314.63L40.57 314.445L81.14 314.386L162.28 314.26L243.42 314.378L283.99 314.445L324.56 314.63L283.99 314.808L243.42 314.874L162.28 315L81.14 314.874L40.57 314.808L0 314.63Z" fill="#25314B"/>
    <path d="M218.31 370.18L248.48 352.36L286.81 365.19L255.33 384.32L218.31 370.18Z" fill="#EBEBEB"/>
    <path d="M254.14 379.36C255.99 377.99 257.9 376.72 259.82 375.45C261.74 374.18 263.7 372.98 265.65 371.78C267.6 370.58 269.59 369.41 271.65 368.3L274.65 366.63C275.65 366.1 276.65 365.55 277.73 365.05C276.8 365.74 275.85 366.38 274.91 367.05L272 369C270.08 370.27 268.13 371.48 266.17 372.68C264.21 373.88 262.23 375.04 260.22 376.16C258.21 377.28 256.21 378.34 254.14 379.36Z" fill="#DBDBDB"/>
    <path d="M259.12 372.12C261.26 370.403 263.515 368.836 265.87 367.43C268.202 365.986 270.631 364.706 273.14 363.6C268.838 367 264.137 369.861 259.14 372.12H259.12Z" fill="#DBDBDB"/>
    <path d="M245.05 376.46C246.9 375.09 248.81 373.82 250.74 372.56C252.67 371.3 254.61 370.08 256.56 368.88C258.51 367.68 260.5 366.52 262.51 365.4L265.51 363.73C266.51 363.21 267.51 362.65 268.58 362.15C267.65 362.84 266.7 363.48 265.76 364.15L262.89 366.06C260.97 367.33 259.02 368.53 257.06 369.73C255.1 370.93 253.12 372.1 251.11 373.21C249.1 374.32 247.12 375.45 245.05 376.46Z" fill="#DBDBDB"/>
    <path d="M243.89 373C247.04 370.62 250.36 368.5 253.71 366.44C257.06 364.38 260.48 362.44 264.05 360.74C260.9 363.12 257.58 365.24 254.23 367.3C250.88 369.36 247.45 371.25 243.89 373Z" fill="#DBDBDB"/>
    <path d="M247.83 366.35C249.574 364.862 251.441 363.524 253.41 362.35C255.351 361.138 257.392 360.095 259.51 359.23C257.766 360.718 255.899 362.056 253.93 363.23C251.987 364.437 249.946 365.481 247.83 366.35Z" fill="#DBDBDB"/>
    <path d="M154.61 383.3L202.27 364.68L248.26 392.41L200.84 411.69L154.61 383.3Z" fill="#EBEBEB"/>
    <path d="M200.17 406C203.27 404.52 206.42 403.14 209.57 401.77C212.72 400.4 215.9 399.08 219.07 397.77C222.24 396.46 225.45 395.2 228.66 393.99L233.49 392.18C235.11 391.61 236.72 391.01 238.36 390.47C236.81 391.22 235.24 391.91 233.68 392.64L229 394.76C225.86 396.13 222.68 397.44 219.5 398.76C216.32 400.08 213.13 401.33 209.91 402.54C206.69 403.75 203.43 404.94 200.17 406Z" fill="#DBDBDB"/>
    <path d="M212.38 396.17C215.78 394.37 219.29 392.84 222.83 391.38C226.37 389.92 229.96 388.6 233.66 387.52C230.26 389.33 226.75 390.85 223.21 392.31C219.67 393.77 216.08 395.09 212.38 396.17Z" fill="#DBDBDB"/>
    <path d="M195.47 398.14C198.18 396.82 200.94 395.59 203.7 394.38C206.46 393.17 209.24 392.02 212.03 390.87C214.82 389.72 217.62 388.62 220.44 387.57L224.68 386C226.11 385.51 227.52 385 228.96 384.53C227.61 385.2 226.23 385.81 224.87 386.45L220.73 388.29C217.98 389.5 215.19 390.65 212.4 391.8C209.61 392.95 206.81 394.04 203.99 395.09C201.17 396.14 198.34 397.2 195.47 398.14Z" fill="#DBDBDB"/>
    <path d="M193.25 394.14C195.76 392.89 198.31 391.75 200.86 390.63C203.41 389.51 205.99 388.43 208.57 387.37C211.15 386.31 213.75 385.29 216.37 384.32L220.29 382.88C221.62 382.43 222.93 381.95 224.29 381.53C223.04 382.16 221.77 382.73 220.51 383.33L216.65 385C214.1 386.13 211.53 387.19 208.95 388.26C206.37 389.33 203.77 390.33 201.15 391.26C198.53 392.19 195.91 393.28 193.25 394.14Z" fill="#DBDBDB"/>
    <path d="M181.38 394.06C184.48 392.57 187.63 391.19 190.78 389.82C193.93 388.45 197.1 387.14 200.28 385.82C203.46 384.5 206.66 383.26 209.87 382.05L214.7 380.24C216.32 379.67 217.93 379.06 219.56 378.52C218.02 379.27 216.44 379.97 214.88 380.69L210.16 382.76C207.01 384.14 203.84 385.44 200.66 386.76C197.48 388.08 194.28 389.32 191.07 390.53C187.86 391.74 184.64 393 181.38 394.06Z" fill="#DBDBDB"/>
    <path d="M181 389.31C183.75 387.97 186.54 386.74 189.33 385.51C192.12 384.28 194.94 383.12 197.76 381.96C200.58 380.8 203.41 379.69 206.27 378.62L210.56 377.03C212 376.53 213.43 376.03 214.89 375.54C213.52 376.21 212.12 376.83 210.74 377.49L206.56 379.34C203.77 380.57 200.95 381.73 198.13 382.89C195.31 384.05 192.48 385.16 189.62 386.22C186.76 387.28 183.88 388.35 181 389.31Z" fill="#DBDBDB"/>
    <path d="M172 388.07C175.11 386.58 178.25 385.2 181.4 383.83C184.55 382.46 187.73 381.14 190.91 379.83C194.09 378.52 197.28 377.26 200.5 376.05L205.32 374.24C206.95 373.67 208.55 373.07 210.19 372.53C208.64 373.28 207.07 373.97 205.51 374.7L200.79 376.77C197.64 378.15 194.46 379.45 191.28 380.77C188.1 382.09 184.91 383.33 181.69 384.54C178.47 385.75 175.24 387 172 388.07Z" fill="#DBDBDB"/>
    <path d="M182.9 378.72C186.51 376.83 190.24 375.21 194 373.67C197.76 372.13 201.56 370.67 205.47 369.54C201.86 371.44 198.13 373.05 194.37 374.54C190.61 376.03 186.81 377.55 182.9 378.72Z" fill="#DBDBDB"/>
    <path d="M53.38 357.32L190.18 321.3L253.83 355.41L120.01 400L53.38 357.32Z" fill="#5F5AF6"/>
    <path d="M61.86 356.7L122.86 395.92L248.27 354.23L186.74 321.55C186.74 321.55 149.21 326.49 147.46 327.03C145.71 327.57 129.16 334.45 129.16 334.45C129.16 334.45 105.94 338.45 104.37 339.01C102.8 339.57 61.86 356.7 61.86 356.7Z" fill="#EBEBEB"/>
    <path d="M129.17 334.45L136.62 339.27L144.02 344.17L158.76 354.06L173.41 364.09L180.69 369.16L187.94 374.29L180.49 369.46L173.08 364.57L158.34 354.68L143.7 344.64L136.42 339.58L129.17 334.45Z" fill="#DBDBDB"/>
    <path d="M140.82 363C142.4 362.49 144.01 362.05 145.62 361.62C147.23 361.19 148.85 360.81 150.47 360.43C152.09 360.05 153.73 359.71 155.37 359.43C157.01 359.15 158.65 358.83 160.31 358.61C158.72 359.13 157.11 359.61 155.5 359.99C153.89 360.37 152.28 360.8 150.66 361.18C149.04 361.56 147.41 361.9 145.77 362.18C144.13 362.46 142.49 362.8 140.82 363Z" fill="#DBDBDB"/>
    <path d="M112.84 379.35C116.97 377.35 121.14 375.49 125.31 373.62C129.48 371.75 133.68 369.92 137.88 368.1C139.98 367.18 142.09 366.31 144.23 365.46C144.775 365.248 145.337 365.08 145.91 364.96L147.59 364.57L150.94 363.83C155.42 362.89 159.94 361.97 164.4 361.15C159.97 362.3 155.52 363.36 151.07 364.43L147.74 365.22C146.634 365.446 145.545 365.747 144.48 366.12C142.37 366.96 140.28 367.9 138.17 368.77L125.53 374.12C121.31 375.89 117.09 377.65 112.84 379.35Z" fill="#DBDBDB"/>
    <path d="M117.11 382.16C121.11 380.16 125.11 378.33 129.19 376.47C133.27 374.61 137.3 372.81 141.36 371C143.36 370.09 145.44 369.22 147.5 368.37C148.02 368.16 148.5 367.94 149.08 367.75C149.66 367.56 150.18 367.47 150.72 367.33L153.98 366.6C158.33 365.68 162.69 364.79 167.07 364C162.77 365.13 158.44 366.16 154.12 367.22L150.88 367.99C150.34 368.13 149.79 368.25 149.29 368.42C148.79 368.59 148.29 368.81 147.77 369.02L141.65 371.66C137.56 373.41 133.51 375.24 129.41 376.97C125.31 378.7 121.23 380.46 117.11 382.16Z" fill="#DBDBDB"/>
    <path d="M121.35 384.48C125.43 382.686 129.533 380.95 133.66 379.27C137.77 377.54 141.92 375.92 146.06 374.27C148.14 373.45 150.18 372.62 152.35 371.91L158.78 370.1C163.08 368.95 167.39 367.78 171.72 366.72C167.48 368.12 163.22 369.41 158.96 370.72L152.54 372.6C150.48 373.3 148.4 374.18 146.32 374.96C142.16 376.55 138.03 378.22 133.86 379.79C129.69 381.36 125.54 383 121.35 384.48Z" fill="#DBDBDB"/>
    <path d="M182.79 364.17C186.58 362.32 190.43 360.61 194.33 359.01C195.33 358.61 196.28 358.2 197.27 357.84C197.77 357.66 198.27 357.47 198.8 357.32L200.33 356.91L206.44 355.29C210.5 354.19 214.59 353.17 218.67 352.11C222.75 351.05 226.83 350.03 230.93 349.03C226.88 350.22 222.84 351.39 218.78 352.53C214.72 353.67 210.67 354.83 206.61 355.92L200.51 357.59L199 358C198.53 358.14 198 358.33 197.54 358.52L194.6 359.65C190.68 361.21 186.76 362.75 182.79 364.17Z" fill="#DBDBDB"/>
    <path d="M178.66 360.94C182.427 359.36 186.23 357.887 190.07 356.52C192 355.84 193.9 355.12 195.91 354.59L201.81 352.98C205.73 351.89 209.68 350.87 213.62 349.82C217.56 348.77 221.51 347.76 225.47 346.77C221.56 347.95 217.66 349.12 213.74 350.25C209.82 351.38 205.91 352.53 201.98 353.62L196.09 355.28C195.09 355.53 194.17 355.88 193.2 356.2L190.3 357.2C186.45 358.5 182.57 359.77 178.66 360.94Z" fill="#DBDBDB"/>
    <path d="M174.68 358.07C178.433 356.523 182.217 355.07 186.03 353.71C187.94 353.04 189.83 352.33 191.8 351.71L197.71 350.27C201.64 349.27 205.58 348.4 209.53 347.47C213.48 346.54 217.42 345.66 221.38 344.79C217.47 345.86 213.56 346.91 209.64 347.91C205.72 348.91 201.8 349.91 197.87 350.91C195.92 351.4 193.93 351.91 192 352.39L186.25 354.3C182.423 355.653 178.567 356.91 174.68 358.07Z" fill="#DBDBDB"/>
    <path d="M171.28 356C174.88 354.06 178.57 352.36 182.34 350.77C182.81 350.57 183.28 350.39 183.77 350.22C184.265 350.042 184.773 349.901 185.29 349.8L188.29 349.15L194.29 347.87C202.29 346.22 210.24 344.59 218.24 343.07C210.32 344.95 202.37 346.73 194.43 348.5L188.43 349.82L185.43 350.49C184.46 350.743 183.514 351.077 182.6 351.49C178.85 352.91 175.11 354.54 171.28 356Z" fill="#DBDBDB"/>
    <path d="M167.55 353.35C171.15 351.42 174.84 349.71 178.61 348.13C179.08 347.93 179.55 347.75 180.05 347.58C180.542 347.4 181.046 347.26 181.56 347.16L184.56 346.51L190.56 345.23C198.56 343.57 206.51 341.95 214.51 340.43C206.59 342.31 198.64 344.09 190.7 345.86L184.7 347.18L181.7 347.85C180.727 348.094 179.78 348.428 178.87 348.85C175.12 350.32 171.38 352 167.55 353.35Z" fill="#DBDBDB"/>
    <path d="M163.82 350.76C167.42 348.83 171.11 347.12 174.88 345.54C175.35 345.34 175.83 345.15 176.32 344.98C176.812 344.805 177.317 344.668 177.83 344.57L180.83 343.91L186.83 342.64C194.83 340.98 202.83 339.36 210.83 337.84C202.91 339.71 194.96 341.49 187.02 343.27L181.02 344.58L178.02 345.26C177.047 345.504 176.1 345.839 175.19 346.26C171.39 347.72 167.66 349.36 163.82 350.76Z" fill="#DBDBDB"/>
    <path d="M160.09 348.17C163.69 346.23 167.38 344.53 171.15 342.94C171.62 342.74 172.15 342.56 172.59 342.39C173.082 342.212 173.587 342.071 174.1 341.97L177.1 341.32L183.1 340.05C191.1 338.39 199.05 336.76 207.05 335.25C199.13 337.12 191.19 338.9 183.24 340.68L177.24 341.99L174.24 342.66C173.269 342.909 172.322 343.243 171.41 343.66C167.66 345.13 163.93 346.77 160.09 348.17Z" fill="#DBDBDB"/>
    <path d="M155.28 346.08C158.88 344.15 162.57 342.45 166.34 340.86C166.81 340.66 167.34 340.48 167.78 340.31C168.272 340.131 168.777 339.991 169.29 339.89L172.29 339.24L178.29 337.96C186.29 336.3 194.24 334.68 202.24 333.16C194.32 335.04 186.38 336.82 178.43 338.59L172.43 339.91L169.43 340.58C168.46 340.833 167.514 341.167 166.6 341.58C162.85 343.05 159.12 344.68 155.28 346.08Z" fill="#DBDBDB"/>
    <path d="M150.61 344C154.2 342.07 157.9 340.37 161.66 338.78C162.13 338.58 162.61 338.4 163.1 338.23C163.592 338.053 164.097 337.912 164.61 337.81L167.61 337.16L173.61 335.88C181.61 334.22 189.55 332.6 197.55 331.08C189.63 332.96 181.69 334.74 173.74 336.51L167.74 337.83L164.74 338.5C163.766 338.751 162.816 339.086 161.9 339.5C158.17 341 154.44 342.62 150.61 344Z" fill="#DBDBDB"/>
    <path d="M146.88 341.43C150.46 339.5 154.15 337.8 157.88 336.21C158.35 336.01 158.82 335.83 159.31 335.66C159.804 335.48 160.313 335.343 160.83 335.25L163.83 334.64L169.83 333.47C177.83 331.96 185.83 330.47 193.83 329.12C185.88 330.84 177.92 332.47 169.96 334.12L163.96 335.34L160.96 335.96C159.99 336.202 159.046 336.537 158.14 336.96C154.42 338.4 150.7 340 146.88 341.43Z" fill="#DBDBDB"/>
    <path d="M143.15 338.84C146.73 336.91 150.41 335.21 154.15 333.63C154.62 333.43 155.1 333.24 155.58 333.08C156.073 332.895 156.582 332.758 157.1 332.67L160.1 332.11L166.1 331.06C174.1 329.71 182.1 328.41 190.1 327.22C182.1 328.77 174.15 330.22 166.17 331.7L160.17 332.79L157.17 333.36C156.205 333.584 155.264 333.903 154.36 334.31C150.68 335.81 147 337.44 143.15 338.84Z" fill="#DBDBDB"/>
    <path d="M139.42 336.25C142.99 334.32 146.67 332.62 150.42 331.05C150.89 330.85 151.36 330.66 151.85 330.49C152.342 330.305 152.851 330.171 153.37 330.09L156.37 329.62L162.37 328.77C166.37 328.21 170.37 327.71 174.42 327.19C178.47 326.67 182.42 326.19 186.48 325.75C178.48 327.03 170.48 328.21 162.48 329.41L156.48 330.3L153.48 330.79C152.516 331.002 151.577 331.317 150.68 331.73C146.94 333.23 143.23 334.85 139.42 336.25Z" fill="#DBDBDB"/>
    <path d="M125.68 388.08C129.85 386.39 134.05 384.76 138.26 383.16C142.47 381.56 146.7 380 150.92 378.43C153.04 377.65 155.14 376.91 157.31 376.19L163.78 374.24C168.1 372.98 172.43 371.72 176.78 370.56C172.53 372.05 168.24 373.44 163.95 374.83L157.51 376.83C155.41 377.53 153.29 378.35 151.17 379.09L138.45 383.64C134.21 385.17 130 386.66 125.68 388.08Z" fill="#DBDBDB"/>
    <path d="M185.86 367.34C190.08 365.73 194.33 364.19 198.59 362.67C202.85 361.15 207.12 359.67 211.39 358.21C213.53 357.47 215.65 356.77 217.85 356.09L224.38 354.28C228.74 353.11 233.1 351.93 237.49 350.86C233.2 352.26 228.87 353.56 224.54 354.86L218.03 356.76C215.91 357.42 213.76 358.2 211.62 358.89L198.77 363.18C194.47 364.6 190.18 366 185.86 367.34Z" fill="#DBDBDB"/>
    <path d="M137.83 190.9C170.33 223.83 211.2 293.11 203.58 307.16C195.1 322.8 149.85 276.63 150.02 273.94C150.16 271.94 134.24 229.81 122.16 199.21C110.08 168.61 129.8 182.75 137.83 190.9Z" fill="#F7A9A0"/>
    <path d="M149.72 274C148.34 269.5 126.72 214 120.49 196.45C114.26 178.9 120.04 173.45 137.72 189.55C155.4 205.65 194.16 259.31 203 287.8C211.52 315.26 197.39 315.26 178.74 302.6C163.47 292.24 149.72 274 149.72 274Z" fill="#5F5AF6"/>
    <path d="M134.65 191.36C134.455 192.59 134.085 193.785 133.55 194.91C133.036 196.049 132.363 197.11 131.55 198.06C131.743 196.83 132.114 195.634 132.65 194.51C133.164 193.37 133.837 192.31 134.65 191.36V191.36Z" fill="white"/>
    <path d="M190.21 264.51C190.008 265.741 189.638 266.939 189.11 268.07C188.599 269.211 187.926 270.272 187.11 271.22C187.531 268.752 188.593 266.438 190.19 264.51H190.21Z" fill="white"/>
    <path d="M171.05 235.36C170.627 237.824 169.565 240.134 167.97 242.06C168.166 240.829 168.54 239.633 169.08 238.51C169.585 237.372 170.248 236.312 171.05 235.36V235.36Z" fill="white"/>
    <path d="M152.33 233.17C151.1 232.969 149.905 232.595 148.78 232.06C147.638 231.549 146.577 230.876 145.63 230.06C148.094 230.483 150.404 231.545 152.33 233.14V233.17Z" fill="white"/>
    <path d="M170.27 262.65C169.039 262.447 167.841 262.077 166.71 261.55C165.571 261.035 164.51 260.362 163.56 259.55C166.028 259.971 168.342 261.033 170.27 262.63V262.65Z" fill="white"/>
    <path d="M155.69 212.15C154.458 211.952 153.259 211.582 152.13 211.05C150.989 210.539 149.928 209.865 148.98 209.05C150.211 209.246 151.407 209.62 152.53 210.16C153.671 210.673 154.734 211.343 155.69 212.15Z" fill="white"/>
    <path d="M140.58 245.91C142.02 247.955 142.903 250.34 143.14 252.83C141.7 250.785 140.817 248.4 140.58 245.91V245.91Z" fill="white"/>
    <path d="M178.11 281C178.842 282.011 179.425 283.123 179.84 284.3C180.29 285.46 180.569 286.68 180.67 287.92C179.23 285.875 178.347 283.49 178.11 281V281Z" fill="white"/>
    <path d="M157.3 277.93C156.363 278.619 155.333 279.171 154.24 279.57L153.59 278.79H153.67C154.832 278.33 156.055 278.04 157.3 277.93V277.93Z" fill="white"/>
    <path d="M194.51 300.56C195.523 299.829 196.634 299.243 197.81 298.82C198.97 298.37 200.19 298.09 201.43 297.99C200.423 298.723 199.315 299.306 198.14 299.72C196.976 300.169 195.754 300.452 194.51 300.56V300.56Z" fill="white"/>
    <path d="M135 217.58C133.989 218.312 132.877 218.894 131.7 219.31C130.889 219.615 130.053 219.846 129.2 220L129.02 219.51C129.77 219.075 130.556 218.707 131.37 218.41C132.533 217.959 133.756 217.679 135 217.58V217.58Z" fill="white"/>
    <path d="M145.84 314.76H22.3C22.3 314.76 41.94 217.87 89.3 175.93C95.15 170.75 108.36 171.93 116.98 176.21C120.05 177.74 131.1 193.21 134.25 207.8C137.4 222.39 146.18 314.32 145.84 314.76Z" fill="#5F5AF6"/>
    <path d="M135.34 213.84C136.34 217.1 137.11 220.49 137.77 223.84C137.77 223.71 137.77 223.58 137.77 223.44C137.77 221.54 137.83 219.59 138.04 217.69C138.04 217.59 138.21 217.56 138.22 217.69C138.468 219.613 138.522 221.556 138.38 223.49C138.38 224.4 138.27 225.32 138.2 226.23C138.46 227.75 138.69 229.28 138.88 230.79C139.24 233.68 140.21 244.41 140.29 246.54C140.29 246.99 139.8 247.07 139.67 246.6C139.09 244.44 137.55 233.38 137.06 230.53C136.106 225.003 135.455 219.428 135.11 213.83C135.12 213.73 135.31 213.73 135.34 213.84Z" fill="#25314B"/>
    <path d="M97.06 201.22C96.6393 203.688 95.5771 206.002 93.98 207.93C94.1749 206.699 94.5489 205.503 95.09 204.38C95.5945 203.239 96.2577 202.175 97.06 201.22V201.22ZM80.32 250.42C79.7835 251.547 79.413 252.746 79.22 253.98C80.0355 253.028 80.7091 251.964 81.22 250.82C81.752 249.694 82.1223 248.499 82.32 247.27C81.5043 248.218 80.8306 249.279 80.32 250.42ZM40.19 268C39.658 269.126 39.2877 270.321 39.09 271.55C39.9057 270.602 40.5794 269.541 41.09 268.4C41.622 267.271 41.9923 266.072 42.19 264.84C41.3776 265.794 40.7043 266.858 40.19 268V268ZM69.69 299.54C69.1535 300.664 68.783 301.86 68.59 303.09C69.4057 302.142 70.0794 301.081 70.59 299.94C71.1175 298.809 71.4877 297.611 71.69 296.38C70.8731 297.345 70.1995 298.423 69.69 299.58V299.54ZM121.19 238.59C120.658 239.716 120.288 240.911 120.09 242.14C120.906 241.192 121.579 240.131 122.09 238.99C122.622 237.864 122.992 236.669 123.19 235.44C122.378 236.405 121.705 237.479 121.19 238.63V238.59ZM137.42 272.06C136.884 273.187 136.513 274.386 136.32 275.62C137.136 274.673 137.81 273.612 138.32 272.47C138.837 271.368 139.2 270.201 139.4 269C138.595 269.933 137.929 270.977 137.42 272.1V272.06ZM98.15 296.18C97.618 297.309 97.2477 298.507 97.05 299.74C97.8657 298.792 98.5394 297.731 99.05 296.59C99.582 295.461 99.9523 294.262 100.15 293.03C99.3345 293.992 98.661 295.067 98.15 296.22V296.18ZM60.52 231C59.9852 232.124 59.6148 233.32 59.42 234.55C60.2327 233.6 60.9061 232.539 61.42 231.4C61.9565 230.276 62.327 229.08 62.52 227.85C61.7073 228.8 61.0339 229.86 60.52 231V231ZM107.22 220C106.096 219.463 104.9 219.093 103.67 218.9C104.618 219.716 105.679 220.389 106.82 220.9C107.947 221.428 109.142 221.798 110.37 222C109.422 221.184 108.361 220.511 107.22 220V220ZM115 259.71C113.876 259.173 112.68 258.803 111.45 258.61C112.398 259.426 113.459 260.099 114.6 260.61C115.728 261.136 116.922 261.506 118.15 261.71C117.202 260.894 116.141 260.221 115 259.71V259.71ZM42.36 301.83C41.2355 301.295 40.0399 300.925 38.81 300.73C39.7576 301.546 40.8187 302.219 41.96 302.73C43.0873 303.258 44.2818 303.628 45.51 303.83C44.5655 303.015 43.5078 302.341 42.37 301.83H42.36ZM116.28 309.88C115.152 309.344 113.953 308.974 112.72 308.78C113.671 309.59 114.732 310.264 115.87 310.78L116.63 311.11L118.63 311.24C117.894 310.715 117.11 310.26 116.29 309.88H116.28ZM70.13 269.65C69.0055 269.115 67.8099 268.745 66.58 268.55C67.5273 269.366 68.5884 270.04 69.73 270.55C70.8552 271.085 72.0503 271.459 73.28 271.66C72.3361 270.842 71.2784 270.164 70.14 269.65H70.13ZM107.21 184.77C106.086 184.233 104.89 183.863 103.66 183.67C104.607 184.486 105.668 185.16 106.81 185.67C107.935 186.205 109.13 186.579 110.36 186.78C109.416 185.962 108.358 185.284 107.22 184.77H107.21ZM115.21 203.21C115.642 204.388 116.245 205.497 117 206.5C116.763 204.01 115.88 201.625 114.44 199.58C114.523 200.821 114.786 202.044 115.22 203.21H115.21ZM134.83 295.21C135.246 296.384 135.829 297.492 136.56 298.5C136.323 296.01 135.44 293.625 134 291.58C134.109 292.807 134.392 294.012 134.84 295.16L134.83 295.21ZM81.83 226.37C82.2436 227.545 82.8264 228.653 83.56 229.66C83.4594 228.42 83.1798 227.2 82.73 226.04C82.3067 224.864 81.721 223.753 80.99 222.74C81.1088 223.967 81.3983 225.172 81.85 226.32L81.83 226.37ZM97.1 266.8C97.5234 267.972 98.1091 269.08 98.84 270.09C98.6051 267.598 97.7188 265.211 96.27 263.17C96.3755 264.413 96.6549 265.635 97.1 266.8V266.8ZM26.31 314.25C26.31 314.42 26.31 314.59 26.31 314.76H26.63C26.55 314.593 26.4433 314.423 26.31 314.25ZM61.09 314.09C60.6667 312.914 60.081 311.803 59.35 310.79C59.4543 312.033 59.7337 313.255 60.18 314.42L60.31 314.76H61.31C61.24 314.54 61.17 314.31 61.09 314.09ZM54 285.56C54.4152 286.737 54.9979 287.849 55.73 288.86C55.6305 287.616 55.3509 286.393 54.9 285.23C54.4788 284.056 53.8929 282.949 53.16 281.94C53.2688 283.18 53.5516 284.399 54 285.56ZM83.91 190.32C84.3312 191.493 84.9171 192.601 85.65 193.61C85.4008 191.124 84.5157 188.744 83.08 186.7C83.1823 187.939 83.4583 189.158 83.9 190.32H83.91ZM117 283.67C118.175 283.256 119.283 282.673 120.29 281.94C119.05 282.041 117.83 282.32 116.67 282.77C115.497 283.188 114.389 283.77 113.38 284.5C114.62 284.399 115.84 284.12 117 283.67V283.67ZM84.66 313.42C85.8374 313.005 86.9488 312.422 87.96 311.69C86.7162 311.789 85.4935 312.069 84.33 312.52C83.1568 312.938 82.0491 313.52 81.04 314.25C82.2668 314.146 83.4724 313.866 84.62 313.42H84.66ZM29.66 286.48C29.58 286.76 29.49 287.05 29.41 287.32C30.001 287.042 30.5637 286.707 31.09 286.32C30.5966 286.336 30.1052 286.389 29.62 286.48H29.66ZM57.86 252.22C59.0353 251.803 60.1436 251.217 61.15 250.48C58.6617 250.731 56.2793 251.616 54.23 253.05C55.4595 252.942 56.6679 252.663 57.82 252.22H57.86ZM83.75 285C84.9249 284.586 86.0333 284.003 87.04 283.27C85.7964 283.371 84.5739 283.651 83.41 284.1C82.2374 284.523 81.13 285.109 80.12 285.84C81.3633 285.731 82.5853 285.448 83.75 285V285ZM99.15 238C100.325 237.583 101.434 236.997 102.44 236.26C101.196 236.364 99.9734 236.647 98.81 237.1C97.6369 237.518 96.5292 238.1 95.52 238.83C96.7631 238.726 97.9851 238.446 99.15 238ZM131.74 219.31C132.917 218.895 134.029 218.312 135.04 217.58C132.55 217.817 130.165 218.7 128.12 220.14C129.36 220.039 130.58 219.76 131.74 219.31V219.31ZM73.46 208.38C74.635 207.966 75.7433 207.383 76.75 206.65C75.5094 206.749 74.29 207.029 73.13 207.48C71.9546 207.9 70.8438 208.482 69.83 209.21C71.0738 209.11 72.2966 208.831 73.46 208.38Z" fill="white"/>
    <path d="M116.43 196.68C109 198.14 96.68 186.32 92 177C91.68 176.35 92.9 169.76 94 161.68C94.66 156.78 95.27 151.3 95.46 146.26C95.46 145.26 126.77 155.18 126.77 155.18C126.77 155.18 123.25 165.62 122.96 174.4C122.941 175.096 122.984 175.792 123.09 176.48C123.097 176.596 123.097 176.713 123.09 176.83C123.64 180.73 123.65 195.26 116.43 196.68Z" fill="#F7A9A0"/>
    <path d="M119.9 176.82C120.981 176.912 122.069 176.912 123.15 176.82C123.156 176.707 123.156 176.593 123.15 176.48C123.039 175.793 122.996 175.096 123.02 174.4C123.31 165.62 126.82 155.18 126.82 155.18C126.82 155.18 101.45 147.1 96.39 146.25C97.11 152.06 101.28 175.67 119.9 176.82Z" fill="#25314B"/>
    <path d="M87.72 115.29C85.29 126.76 93.99 158.52 102.57 165.02C114.99 174.45 133.94 173.81 141.57 159.19C148.99 145.02 136.91 103.83 127.47 98.0601C113.59 89.5701 91.32 98.35 87.72 115.29Z" fill="#F7A9A0"/>
    <path d="M120.3 133.59C120.3 133.51 120.16 133.73 120.19 133.82C120.83 135.94 121.19 138.49 119.47 139.72C119.41 139.72 119.47 139.86 119.52 139.83C121.79 138.86 121.25 135.5 120.3 133.59Z" fill="#25314B"/>
    <path d="M117.79 131.86C114.27 132.53 115.86 139.51 119.12 138.86C122.38 138.21 120.74 131.31 117.79 131.86Z" fill="#25314B"/>
    <path d="M133.51 130.28C133.51 130.19 133.7 130.34 133.72 130.43C134.14 132.61 134.99 135.03 137.11 135.31C137.18 135.31 137.19 135.43 137.11 135.43C134.66 135.64 133.56 132.41 133.51 130.28Z" fill="#25314B"/>
    <path d="M134.92 127.58C138.34 126.52 140.2 133.44 137.03 134.42C133.86 135.4 132.06 128.46 134.92 127.58Z" fill="#25314B"/>
    <path d="M114.66 131.19C115.622 130.996 116.573 130.752 117.51 130.46C118.546 130.335 119.514 129.879 120.27 129.16C120.461 128.885 120.556 128.554 120.539 128.22C120.523 127.885 120.397 127.565 120.18 127.31C119.678 126.869 119.068 126.571 118.412 126.446C117.756 126.321 117.078 126.375 116.45 126.6C115.101 126.853 113.895 127.603 113.07 128.7C112.899 128.961 112.807 129.266 112.806 129.578C112.804 129.89 112.892 130.196 113.06 130.459C113.228 130.722 113.468 130.931 113.752 131.06C114.036 131.19 114.351 131.235 114.66 131.19V131.19Z" fill="#25314B"/>
    <path d="M136.82 123.45C135.839 123.47 134.858 123.44 133.88 123.36C132.834 123.478 131.779 123.246 130.88 122.7C130.633 122.475 130.467 122.174 130.409 121.845C130.351 121.515 130.404 121.176 130.56 120.88C130.954 120.339 131.485 119.913 132.098 119.646C132.712 119.379 133.386 119.28 134.05 119.36C135.419 119.315 136.756 119.782 137.8 120.67C138.028 120.884 138.189 121.159 138.263 121.463C138.337 121.767 138.321 122.085 138.217 122.38C138.113 122.675 137.926 122.933 137.678 123.123C137.43 123.313 137.132 123.427 136.82 123.45V123.45Z" fill="#25314B"/>
    <path d="M122.87 153.37C123.51 153.76 124.18 154.37 124.98 154.23C125.78 154.03 126.529 153.665 127.18 153.16C127.194 153.151 127.21 153.146 127.226 153.147C127.242 153.148 127.258 153.153 127.271 153.163C127.284 153.173 127.294 153.186 127.299 153.202C127.304 153.217 127.305 153.234 127.3 153.25C127.085 153.743 126.742 154.17 126.305 154.484C125.869 154.799 125.356 154.991 124.82 155.04C124.354 155.027 123.902 154.876 123.523 154.605C123.143 154.334 122.853 153.956 122.69 153.52C122.63 153.4 122.78 153.32 122.87 153.37Z" fill="#25314B"/>
    <path d="M123.67 146.38C124.414 147.11 125.301 147.678 126.275 148.05C127.249 148.422 128.289 148.588 129.33 148.54C130.242 148.509 131.144 148.348 132.01 148.06C132.178 148.012 132.341 147.952 132.5 147.88C132.658 147.833 132.812 147.773 132.96 147.7C133.071 147.654 133.164 147.571 133.222 147.466C133.28 147.361 133.3 147.238 133.28 147.12V147.12C133.266 147.047 133.242 146.977 133.21 146.91V146.91V146.72C132.88 145.05 132.14 142.55 132.14 142.55C132.82 142.72 136.24 143.41 135.99 142.55C133.92 135.44 131.62 127.55 128.06 120.91C128.041 120.859 128.004 120.818 127.955 120.796C127.906 120.773 127.85 120.771 127.8 120.79C127.75 120.808 127.709 120.846 127.686 120.895C127.664 120.944 127.661 120.999 127.68 121.05C129.4 127.96 132.32 134.52 134.15 141.43C132.932 141.166 131.683 141.078 130.44 141.17C130.22 141.29 131.95 145.96 132.04 146.73C132.046 146.756 132.046 146.784 132.04 146.81C129.33 147.81 127.04 147.44 123.88 146.18C123.64 146.05 123.5 146.24 123.67 146.38Z" fill="#25314B"/>
    <path d="M93.93 143.64C93.93 143.64 82.31 126.44 82.8 116.14C83.02 111.49 89.18 108.05 89.18 108.05C88.6058 106.182 88.5656 104.192 89.064 102.302C89.5623 100.413 90.5793 98.7012 92 97.36C97.23 91.92 110.55 92.42 110.55 92.42C110.55 92.42 118.55 79.56 130.95 83.89C143.35 88.22 136.12 102.4 136.12 102.4C136.12 102.4 140.9 108.51 130.24 114.01C119.86 119.36 97.92 115.7 97.92 115.7C99.2965 123.12 99.5593 130.703 98.7 138.2C98.4864 139.459 97.9274 140.635 97.0852 141.595C96.243 142.556 95.1507 143.264 93.93 143.64V143.64Z" fill="#25314B"/>
    <path d="M112.62 92.4798C109.848 91.5129 106.908 91.1249 103.98 91.3398C101.358 91.4296 98.7706 91.9674 96.33 92.9298C92.03 94.7198 88.33 98.1398 87.8 102.93C87.675 104.117 87.7874 105.317 88.1308 106.461C88.4741 107.604 89.0415 108.668 89.8 109.59C89.86 109.66 89.97 109.59 89.91 109.47C86.91 106.13 88.13 100.64 90.91 97.5798C94.03 94.1098 99 92.5798 103.51 92.1898C106.519 92.0025 109.54 92.1703 112.51 92.6898C112.535 92.6913 112.56 92.6856 112.582 92.6732C112.603 92.6609 112.621 92.6426 112.633 92.6204C112.644 92.5982 112.649 92.5731 112.647 92.5482C112.645 92.5233 112.635 92.4995 112.62 92.4798V92.4798Z" fill="#25314B"/>
    <path d="M139.9 89.3298C138.72 85.9698 135.69 83.9298 132.36 83.0398C128.522 82.0841 124.475 82.436 120.86 84.0398C117.227 85.6716 114.096 88.2435 111.79 91.4898C111.79 91.5598 111.86 91.6498 111.91 91.5798C116.22 85.9398 123.23 82.4998 130.38 83.6498C133.57 84.1598 136.82 85.6498 138.43 88.5798C139.12 89.9833 139.494 91.5211 139.525 93.0848C139.556 94.6485 139.244 96.2 138.61 97.6298C137.14 101.08 134.22 103.78 131.18 105.86C131.11 105.86 131.18 106.02 131.25 105.98C134.294 104.3 136.861 101.874 138.71 98.9298C139.586 97.5088 140.145 95.9159 140.35 94.2594C140.556 92.6029 140.402 90.9217 139.9 89.3298V89.3298Z" fill="#25314B"/>
    <path d="M132.87 114.45C128.112 116.659 122.936 117.825 117.69 117.87C112.251 117.991 106.816 117.518 101.48 116.46C98.37 115.88 95.28 115.17 92.2 114.41C92.1 114.41 92.07 114.53 92.2 114.56C97.6105 116.569 103.218 118 108.93 118.83C114.241 119.554 119.642 119.235 124.83 117.89C127.67 117.123 130.402 116.001 132.96 114.55C133 114.52 132.93 114.42 132.87 114.45Z" fill="#25314B"/>
    <path d="M121.05 146.31C119.406 146.536 117.732 146.296 116.218 145.618C114.703 144.94 113.41 143.851 112.483 142.475C111.557 141.098 111.035 139.489 110.977 137.831C110.92 136.173 111.328 134.532 112.156 133.094C112.985 131.657 114.2 130.48 115.663 129.699C117.126 128.917 118.78 128.561 120.435 128.672C122.091 128.783 123.682 129.356 125.028 130.326C126.374 131.296 127.421 132.624 128.05 134.16V134.16C128.938 136.339 128.925 138.781 128.014 140.95C127.103 143.12 125.368 144.839 123.19 145.73C122.504 146.014 121.785 146.209 121.05 146.31V146.31ZM118.76 129.91C118.128 129.995 117.51 130.16 116.92 130.4C115.101 131.135 113.63 132.536 112.808 134.318C111.986 136.1 111.874 138.128 112.495 139.989C113.117 141.85 114.424 143.405 116.152 144.336C117.879 145.266 119.897 145.503 121.793 144.998C123.689 144.493 125.321 143.284 126.357 141.618C127.393 139.951 127.754 137.952 127.368 136.029C126.981 134.105 125.875 132.401 124.276 131.264C122.677 130.127 120.704 129.643 118.76 129.91V129.91Z" fill="#EBEBEB"/>
    <path d="M140.73 141.05C137.36 141.52 133.83 138.5 132.66 134.05C132.065 131.917 132.152 129.651 132.91 127.57C133.179 126.657 133.679 125.829 134.363 125.167C135.046 124.504 135.889 124.03 136.81 123.79C137.73 123.549 138.698 123.551 139.618 123.794C140.538 124.038 141.379 124.515 142.06 125.18C143.737 126.621 144.919 128.551 145.44 130.7C146.68 135.44 144.82 140.04 141.3 140.96C141.113 141.004 140.922 141.034 140.73 141.05V141.05ZM137.55 124.83C137.401 124.849 137.254 124.879 137.11 124.92C136.38 125.141 135.716 125.538 135.174 126.075C134.632 126.611 134.229 127.272 134 128C133.334 129.848 133.264 131.859 133.8 133.75C134.87 137.85 138.09 140.57 140.99 139.81C143.89 139.05 145.36 135.1 144.28 131C143.821 129.088 142.771 127.37 141.28 126.09C140.779 125.634 140.188 125.287 139.547 125.07C138.905 124.854 138.225 124.772 137.55 124.83V124.83Z" fill="#EBEBEB"/>
    <path d="M128 135.23L127 134.54C128 133.11 130.64 130.85 133.33 132.54L132.69 133.54C130.33 132 128.1 135.1 128 135.23Z" fill="#EBEBEB"/>
    <path d="M90.34 147.44L89.18 147.18C89.3 146.64 90.44 141.88 92.89 140.79C95.34 139.7 110.95 137.2 111.62 137.09L111.81 138.26C107.29 139 95.14 141.09 93.37 141.87C91.6 142.65 90.63 146.13 90.34 147.44Z" fill="#EBEBEB"/>
    <path d="M98.88 141.85C98.88 141.85 90.48 132.22 86.03 135.32C81.58 138.42 88.68 152.94 94.45 154.41C95.1777 154.649 95.9462 154.739 96.7095 154.673C97.4727 154.608 98.2148 154.389 98.8912 154.029C99.5675 153.67 100.164 153.177 100.645 152.581C101.126 151.984 101.482 151.297 101.69 150.56L98.88 141.85Z" fill="#F7A9A0"/>
    <path d="M88.17 139.43C88.08 139.43 88.08 139.56 88.17 139.58C92.23 140.74 94.66 144.13 96.5 147.72C95.19 146.4 93.5 145.78 91.75 147.37C91.65 147.45 91.75 147.6 91.87 147.56C92.5303 147.268 93.2647 147.189 93.9721 147.332C94.6795 147.475 95.3251 147.834 95.82 148.36C96.6438 149.247 97.3712 150.219 97.99 151.26C98.2 151.59 98.81 151.33 98.64 150.95C98.6362 150.92 98.6362 150.89 98.64 150.86C98.15 145.89 93.55 139.36 88.17 139.43Z" fill="#25314B"/>
    <path d="M203.58 307.16C196.27 317.62 176.36 319.61 126.7 329.34C119.83 330.69 97.29 284.75 104.55 282.94C113.7 280.65 149.7 273.76 152.4 273.59C175.14 272.15 208.54 300.06 203.58 307.16Z" fill="#F7A9A0"/>
    <path d="M114.49 280.67C114.49 280.67 93.49 283.85 82.91 288.94C68.81 295.76 59.43 307.45 55.8 312.59C48.22 323.32 37.3 354.49 45.73 359.2C53.36 363.46 62.91 331.04 62.91 331.04C62.91 331.04 47.72 362.49 57.85 365.94C67.98 369.39 76.93 331.11 76.93 331.11C76.93 331.11 62.04 363.78 73.05 365.68C81.38 367.11 91.43 332.9 91.43 332.9C91.43 332.9 78.83 361.07 87.32 362.9C96.71 364.9 107.97 333.9 107.97 333.9C130.35 334.96 141.43 326.3 148.59 319.21C150.32 317.55 114.49 280.67 114.49 280.67Z" fill="#F7A9A0"/>
    <path d="M67.47 319.82C65.55 323.45 63.58 327.11 62 330.9C60.42 334.69 58.95 338.54 57.72 342.46C54.72 352.07 54.32 358.56 54.39 358.16C55.98 348.74 61.46 335.09 63.05 331.3C64.64 327.51 66.05 323.66 67.62 319.87C67.66 319.78 67.51 319.73 67.47 319.82Z" fill="#25314B"/>
    <path d="M81.25 325.31C79 330.05 76.6 334.67 74.56 339.52C72.52 344.37 71 349.09 69.33 354C69.2 354.38 69.45 354.33 69.6 354C71.48 349.13 73.6 344.76 75.6 339.91C77.6 335.06 79.31 330.13 81.42 325.37C81.4 325.28 81.29 325.24 81.25 325.31Z" fill="#25314B"/>
    <path d="M93.93 327.89C90.12 334.96 87.62 342.73 85.36 350.4C85.24 350.78 85.56 350.68 85.69 350.29C88.4 342.76 90.47 336.83 94.18 328.02C94.24 327.89 94 327.74 93.93 327.89Z" fill="#25314B"/>
    <path d="M110.1 280.67L153.6 329.12C153.6 329.12 197.6 319.02 204.08 307.74C208.35 300.31 175.19 270.33 150.18 273.84L110.1 280.67Z" fill="#5F5AF6"/>
    <path d="M148.73 310.9C148.532 312.129 148.162 313.324 147.63 314.45C147.122 315.596 146.448 316.66 145.63 317.61C145.828 316.377 146.198 315.179 146.73 314.05C147.241 312.909 147.914 311.848 148.73 310.9V310.9ZM179 308.19C178.468 309.316 178.098 310.511 177.9 311.74C178.716 310.792 179.389 309.731 179.9 308.59C180.432 307.461 180.802 306.262 181 305.03C180.188 305.984 179.514 307.048 179 308.19ZM157.4 298C156.273 297.463 155.074 297.093 153.84 296.9C154.788 297.716 155.849 298.389 156.99 298.9C158.119 299.432 159.318 299.802 160.55 300C159.602 299.184 158.541 298.511 157.4 298V298ZM178.94 284.66C179.354 285.835 179.936 286.943 180.67 287.95C180.569 286.71 180.29 285.49 179.84 284.33C179.425 283.153 178.842 282.041 178.11 281.03C178.209 282.277 178.488 283.503 178.94 284.67V284.66ZM134.84 295.15C135.256 296.324 135.839 297.432 136.57 298.44C136.333 295.95 135.45 293.565 134.01 291.52C134.11 292.767 134.39 293.993 134.84 295.16V295.15ZM117 283.67C118.175 283.256 119.283 282.673 120.29 281.94C119.05 282.041 117.83 282.32 116.67 282.77C115.497 283.188 114.389 283.77 113.38 284.5C114.62 284.399 115.84 284.12 117 283.67V283.67ZM154 279.67C155.175 279.256 156.283 278.673 157.29 277.94C156.046 278.041 154.824 278.321 153.66 278.77C152.49 279.196 151.384 279.778 150.37 280.5C151.614 280.397 152.837 280.114 154 279.66V279.67ZM167.7 322.27C168.879 321.855 169.991 321.268 171 320.53C169.756 320.638 168.534 320.92 167.37 321.37C166.195 321.784 165.087 322.366 164.08 323.1C165.323 322.992 166.546 322.709 167.71 322.26L167.7 322.27ZM200.41 298.11C199.521 298.273 198.647 298.514 197.8 298.83C196.624 299.253 195.513 299.839 194.5 300.57C195.744 300.462 196.966 300.179 198.13 299.73C199.03 299.404 199.894 298.989 200.71 298.49L200.41 298.11Z" fill="white"/>
    <path d="M180.05 281.76C176.05 278.84 164.66 272.03 150.18 273.84C150.06 273.84 150.05 274.06 150.18 274.06C161.1 273.75 175.83 279.46 179.95 281.94C180.06 282 180.15 281.83 180.05 281.76Z" fill="#25314B"/>
    <path d="M165.5 321C161 315.41 156.21 310.08 151.4 304.75C146.59 299.42 141.79 294.09 136.85 288.88C134.06 285.94 131.28 282.97 128.38 280.13C128.31 280.06 128.16 280.13 128.23 280.25C132.72 285.83 137.5 291.19 142.23 296.54C146.96 301.89 151.84 307.21 156.72 312.48C159.48 315.48 162.29 318.38 165.19 321.22C165.36 321.37 165.63 321.17 165.5 321Z" fill="#25314B"/>
    <path d="M125.47 183.14C125.47 183.126 125.465 183.114 125.455 183.104C125.446 183.095 125.433 183.09 125.42 183.09C125.407 183.09 125.394 183.095 125.385 183.104C125.375 183.114 125.37 183.126 125.37 183.14C126.24 189.82 127.83 205.35 117.24 205.14C112.98 205.05 108.93 202.67 105.53 200.3C102.053 197.837 98.8516 195.007 95.98 191.86C92.6456 188.426 89.5956 184.727 86.86 180.8C86.75 180.63 86.5 180.8 86.62 181C89.4 184.93 91.77 189 94.93 192.71C97.928 196.288 101.4 199.44 105.25 202.08C108.88 204.5 113.18 206.86 117.68 206.74C121.97 206.63 124.89 203.74 125.87 199.74C127.16 194.45 126.66 188.39 125.47 183.14Z" fill="#25314B"/>
    <path d="M123.14 176.62L115.42 195.2L92.5 171.32L85.84 178.82C85.84 178.82 108.1 216.61 108.26 214.91L116.14 198.91L127.14 210.23L126.56 182.12L123.14 176.62Z" fill="white"/>
    <path d="M127.62 196.32C127.37 191.68 127.24 187 126.78 182.38C126.78 182.21 126.5 182.14 126.46 182.38C125.46 186.85 126.54 204.58 126.46 208.83L126.41 208.78C125.95 208.29 116.23 198.78 116.13 198.96C114.43 201.5 108.65 213.15 108.25 214.21C104.73 208.21 91.25 186.38 87.04 180.7C87.0175 180.668 86.9841 180.645 86.9461 180.636C86.9081 180.627 86.868 180.632 86.8336 180.651C86.7991 180.669 86.7726 180.7 86.7591 180.736C86.7455 180.773 86.7458 180.813 86.76 180.85C89.86 187.19 107.76 216.58 108.01 216.5C108.2 216.65 115.38 202.29 116.25 199.58C117.89 201.64 127.69 212.32 127.73 211.63C127.96 206.528 127.923 201.418 127.62 196.32V196.32Z" fill="#25314B"/>
    <path d="M165 247.77C165 247.77 169.77 258.58 162.14 261.23C154.51 263.88 151.54 252.45 151.54 252.45L165 247.77Z" fill="#334366"/>
    <path d="M124.39 174.43L126.09 163L126.62 159.22L129.42 161.83L137.85 169.75L165.12 248.21L151.65 252.89L124.4 174.43H124.39Z" fill="#334366"/>
    <path d="M126.08 162.98L126.63 159.21L129.43 161.82L126.08 162.98Z" fill="#222D44"/>
    <path d="M150.675 253.722L166.392 248.258L165.309 245.141L149.591 250.605L150.675 253.722Z" fill="#222D44"/>
    <path d="M149.481 250.267L165.198 244.803L164.115 241.686L148.398 247.15L149.481 250.267Z" fill="#222D44"/>
    <path d="M164.12 241.67L159.05 243.44L151.98 214.08L153.88 213.54L164.12 241.67Z" fill="#222D44"/>
    <path d="M67.62 199.29C36 238.8 7.3 295.66 13.12 316.22C15.25 323.74 28.84 336.22 49.25 329.47C72.25 321.85 100.9 303.11 127.6 283.2C133.26 278.98 86.83 243.75 80.7 248.2C77.85 250.26 70.07 257.52 68.89 256.96C67.12 256.11 76.48 236.66 84.41 206.16C92.77 174 81.38 182.12 67.62 199.29Z" fill="#F7A9A0"/>
    <path d="M147.25 195.79C151.54 201.02 137.73 210.5 137.73 210.5C140.633 210.215 143.545 210.954 145.96 212.59C150.08 215.67 147.05 223.48 147.05 223.48C150.126 223.811 153.031 225.058 155.39 227.06C159.03 230.41 157.1 238.72 157.1 238.72C159.755 240.585 161.651 243.343 162.44 246.49C164.21 254.98 154.65 264.14 148.64 270.03C142.63 275.92 120 287 116 289.53L77.87 251.24C77.87 251.24 97.34 217.16 105.4 211.24C112.14 206.25 140.7 187.78 147.25 195.79Z" fill="#F7A9A0"/>
    <path d="M137.5 210.44C129.01 214.01 121.39 219.6 114.1 225.08C114.075 225.108 114.061 225.143 114.06 225.18C114.058 225.217 114.07 225.254 114.092 225.283C114.115 225.313 114.147 225.333 114.183 225.342C114.219 225.35 114.257 225.346 114.29 225.33C121.48 219.8 130.29 216.05 137.72 210.82C137.766 210.789 137.799 210.741 137.812 210.687C137.825 210.632 137.816 210.575 137.788 210.527C137.76 210.478 137.715 210.442 137.661 210.426C137.608 210.41 137.55 210.415 137.5 210.44V210.44Z" fill="#25314B"/>
    <path d="M146.43 223.1C144.58 224.095 142.869 225.329 141.34 226.77C139.633 228.197 137.967 229.65 136.34 231.13C133.007 234.09 129.753 237.133 126.58 240.26C126.44 240.4 126.58 240.65 126.77 240.51C130.103 237.563 133.48 234.683 136.9 231.87C138.627 230.457 140.36 229.067 142.1 227.7C143.831 226.507 145.424 225.125 146.85 223.58C146.914 223.524 146.953 223.446 146.958 223.361C146.964 223.277 146.936 223.194 146.88 223.13C146.824 223.066 146.746 223.027 146.661 223.022C146.577 223.016 146.494 223.044 146.43 223.1V223.1Z" fill="#25314B"/>
    <path d="M157 238.84C155.32 239.53 153.9 241.18 152.59 242.4C151.1 243.78 149.59 245.15 148.1 246.51C145.1 249.24 142.1 251.97 138.99 254.59C138.84 254.72 138.99 254.97 139.18 254.84C142.35 252.19 145.54 249.59 148.68 246.91C150.22 245.577 151.757 244.243 153.29 242.91C154.58 241.78 156.34 240.51 157.14 238.91C157.136 238.896 157.128 238.883 157.119 238.872C157.109 238.861 157.098 238.852 157.085 238.846C157.072 238.839 157.057 238.835 157.043 238.834C157.028 238.833 157.014 238.835 157 238.84V238.84Z" fill="#25314B"/>
    <path d="M115.67 291.91C117.438 290.183 119.333 288.592 121.34 287.15C123.322 285.674 125.415 284.354 127.6 283.2C125.837 284.932 123.941 286.523 121.93 287.96C119.948 289.435 117.855 290.755 115.67 291.91V291.91Z" fill="#25314B"/>
    <path d="M70.19 254.7C70.19 254.7 78.8 229.5 84.71 209.05C90.62 188.6 92.49 169.6 70.71 192.69C48.93 215.78 9.99999 283.83 10.6 310.63C10.76 318.42 19.12 333.43 40.69 332.93C62.26 332.43 121 296.82 121 296.82L77.43 249.41L70.19 254.7Z" fill="#5F5AF6"/>
    <path d="M80.27 252.55C79.9686 253.06 79.6168 253.539 79.22 253.98C79.3153 253.297 79.4829 252.627 79.72 251.98L80.27 252.55ZM40.19 268C39.658 269.125 39.2877 270.32 39.09 271.55C39.9057 270.602 40.5794 269.541 41.09 268.4C41.622 267.271 41.9923 266.072 42.19 264.84C41.3776 265.793 40.7043 266.857 40.19 268V268ZM69.69 299.54C69.1535 300.664 68.783 301.859 68.59 303.09C69.4057 302.142 70.0794 301.081 70.59 299.94C71.1176 298.809 71.4877 297.611 71.69 296.38C70.8731 297.345 70.1995 298.422 69.69 299.58V299.54ZM14.24 304.06C13.708 305.185 13.3377 306.38 13.14 307.61C13.9557 306.662 14.6294 305.601 15.14 304.46C15.6707 303.334 16.0409 302.139 16.24 300.91C15.4246 301.872 14.7511 302.946 14.24 304.1V304.06ZM98.15 296.18C97.618 297.309 97.2477 298.507 97.05 299.74C97.8657 298.792 98.5394 297.731 99.05 296.59C99.582 295.461 99.9523 294.262 100.15 293.03C99.3346 293.992 98.6611 295.066 98.15 296.22V296.18ZM60.52 231C59.9852 232.124 59.6148 233.32 59.42 234.55C60.2327 233.6 60.9061 232.539 61.42 231.4C61.9565 230.276 62.327 229.08 62.52 227.85C61.7073 228.8 61.0339 229.86 60.52 231V231ZM53.79 214.57C54.6613 214.936 55.5751 215.191 56.51 215.33C55.8359 214.743 55.094 214.24 54.3 213.83L53.79 214.57ZM24.33 266.22C24.19 266.51 24.05 266.8 23.92 267.1C25.0509 267.627 26.2487 267.997 27.48 268.2C26.531 267.383 25.4703 266.706 24.33 266.19V266.22ZM42.33 301.86C41.2055 301.325 40.0099 300.954 38.78 300.76C39.7276 301.575 40.7887 302.249 41.93 302.76C43.0573 303.287 44.2519 303.657 45.48 303.86C44.5466 303.037 43.4991 302.353 42.37 301.83L42.33 301.86ZM70.1 269.68C68.9755 269.145 67.7799 268.774 66.55 268.58C67.4973 269.396 68.5584 270.07 69.7 270.58C70.8252 271.115 72.0203 271.489 73.25 271.69C72.3173 270.863 71.2697 270.176 70.14 269.65L70.1 269.68ZM27.1 317.91C27.5137 319.085 28.0965 320.193 28.83 321.2C28.7294 319.959 28.4498 318.74 28 317.58C27.5848 316.402 27.0021 315.291 26.27 314.28C26.3852 315.515 26.6782 316.728 27.14 317.88L27.1 317.91ZM60.1 314.45C60.5212 315.623 61.1071 316.731 61.84 317.74C61.7345 316.5 61.4551 315.281 61.01 314.12C60.5867 312.944 60.0011 311.833 59.27 310.82C59.4027 312.057 59.7091 313.268 60.18 314.42L60.1 314.45ZM54 285.56C54.4152 286.737 54.9979 287.848 55.73 288.86C55.6305 287.616 55.3509 286.393 54.9 285.23C54.4788 284.056 53.8929 282.948 53.16 281.94C53.2688 283.18 53.5516 284.398 54 285.56ZM40.19 245.46C40.6037 246.635 41.1865 247.743 41.92 248.75C41.6826 246.26 40.8003 243.875 39.36 241.83C39.4563 243.073 39.7325 244.296 40.18 245.46H40.19ZM83.91 190.32C84.3312 191.493 84.9171 192.601 85.65 193.61C85.4008 191.124 84.5157 188.744 83.08 186.7C83.1823 187.939 83.4583 189.157 83.9 190.32H83.91ZM73.47 208.38C74.645 207.966 75.7533 207.383 76.76 206.65C75.5195 206.749 74.3 207.029 73.14 207.48C71.9646 207.899 70.8538 208.482 69.84 209.21C71.0804 209.109 72.2997 208.83 73.46 208.38H73.47ZM84.63 313.38C85.8074 312.964 86.9188 312.382 87.93 311.65C86.6862 311.749 85.4635 312.029 84.3 312.48C83.1269 312.897 82.0191 313.48 81.01 314.21C82.245 314.121 83.4608 313.855 84.62 313.42L84.63 313.38ZM27.76 288C28.935 287.586 30.0433 287.003 31.05 286.27C29.8065 286.371 28.5839 286.65 27.42 287.1C26.2474 287.523 25.14 288.109 24.13 288.84C25.3735 288.732 26.5956 288.449 27.76 288V288ZM46.11 325.09C47.2839 324.674 48.3919 324.091 49.4 323.36C48.1562 323.459 46.9335 323.739 45.77 324.19C44.5974 324.613 43.49 325.199 42.48 325.93C43.7224 325.827 44.9443 325.551 46.11 325.11V325.09ZM57.82 252.2C58.9953 251.782 60.1036 251.196 61.11 250.46C58.6217 250.711 56.2393 251.596 54.19 253.03C55.4321 252.932 56.6542 252.659 57.82 252.22V252.2ZM83.75 285C84.925 284.586 86.0333 284.003 87.04 283.27C85.7964 283.371 84.5739 283.65 83.41 284.1C82.2374 284.523 81.13 285.109 80.12 285.84C81.3633 285.731 82.5853 285.448 83.75 285V285Z" fill="white"/>
    <path d="M107.52 300.42C103.02 294.84 98.23 289.5 93.42 284.18C88.61 278.86 83.81 273.51 78.87 268.3C76.07 265.36 73.3 262.4 70.4 259.56C70.33 259.48 70.18 259.56 70.25 259.68C74.74 265.25 79.52 270.62 84.25 275.96C88.98 281.3 93.86 286.64 98.74 291.9C101.5 294.9 104.31 297.8 107.21 300.65C107.38 300.79 107.65 300.59 107.52 300.42Z" fill="#25314B"/>
    <path d="M83.11 223.86C82.26 225.11 81.49 226.41 80.77 227.73C81.01 227.05 81.26 226.37 81.49 225.68C82.49 222.91 83.35 220.12 84.28 217.33C84.34 217.16 84.04 217.04 83.97 217.21C82.97 219.62 81.97 222.01 81.02 224.43C80.07 226.85 79.19 229.23 78.27 231.63C76.42 236.48 74.5799 241.32 72.8699 246.22C71.8699 248.99 71.01 251.77 70.2 254.6C70.2 254.71 70.3499 254.79 70.3999 254.68C72.5499 249.98 74.3999 245.15 76.2299 240.3C77.3899 237.126 78.5433 233.95 79.69 230.77C80.94 228.53 82.15 226.26 83.25 223.94C83.2606 223.921 83.2634 223.899 83.2577 223.878C83.2521 223.858 83.2385 223.84 83.22 223.83C83.2014 223.819 83.1794 223.816 83.1587 223.822C83.1381 223.828 83.1206 223.841 83.11 223.86V223.86Z" fill="#25314B"/>
    <path d="M78.06 250.27C78.06 250.27 77.38 249.73 77.35 249.7C75.2 251.58 72.87 253.22 70.65 254.99C69.47 255.94 60.71 262.89 57.71 265.42C50.6 271.42 43.71 277.65 36.89 284.03C33.5 287.22 30.17 290.48 26.89 293.77C23.61 297.06 20.26 300.4 17.11 303.88C17.0956 303.891 17.0778 303.897 17.0596 303.897C17.0414 303.896 17.0238 303.89 17.0099 303.878C16.9959 303.866 16.9863 303.85 16.9827 303.832C16.9791 303.815 16.9816 303.796 16.99 303.78C20.41 299.78 23.82 295.69 27.39 291.78C33.6981 284.857 40.4063 278.309 47.48 272.17C51.02 269.11 54.63 266.133 58.31 263.24C60.73 261.33 68.77 255.13 69.92 254.24C72.29 252.45 74.67 250.52 77.07 248.93C77.16 248.87 78.16 250.12 78.19 250.14C78.22 250.16 78.11 250.36 78.06 250.27Z" fill="#25314B"/>
    <path d="M180.991 119.872C187.064 118.34 190.745 112.175 189.213 106.103C187.681 100.03 181.516 96.3491 175.443 97.8812C169.37 99.4133 165.69 105.578 167.222 111.651C168.754 117.723 174.919 121.404 180.991 119.872Z" fill="#F1F0FE"/>
    <path d="M189.52 107.9C189.803 110.903 188.882 113.896 186.96 116.22C185.998 117.4 184.813 118.379 183.473 119.102C182.133 119.824 180.663 120.275 179.149 120.429C177.634 120.583 176.104 120.437 174.646 120C173.188 119.563 171.83 118.842 170.65 117.88C169.448 116.899 168.455 115.686 167.731 114.314C167.006 112.942 166.564 111.438 166.43 109.892C166.297 108.346 166.475 106.789 166.954 105.313C167.434 103.838 168.204 102.473 169.22 101.3C170.217 100.15 171.431 99.2083 172.793 98.5277C174.154 97.8472 175.636 97.4415 177.155 97.3337C178.673 97.226 180.198 97.4184 181.641 97.8999C183.085 98.3814 184.42 99.1426 185.57 100.14C187.861 102.103 189.281 104.893 189.52 107.9ZM189.52 107.9C189.245 104.923 187.808 102.174 185.52 100.25C183.236 98.3959 180.31 97.523 177.384 97.823C174.458 98.1229 171.77 99.5711 169.91 101.85C168.09 104.084 167.211 106.939 167.46 109.809C167.708 112.68 169.064 115.342 171.24 117.23C172.339 118.187 173.616 118.918 174.998 119.381C176.38 119.843 177.839 120.029 179.293 119.927C180.747 119.825 182.166 119.437 183.47 118.785C184.773 118.134 185.936 117.231 186.89 116.13C188.818 113.841 189.764 110.883 189.52 107.9V107.9Z" fill="#25314B"/>
    <path d="M159.48 119.67C159.588 120.913 159.325 122.16 158.724 123.254C158.123 124.348 157.212 125.238 156.105 125.814C154.998 126.39 153.746 126.625 152.505 126.488C151.265 126.352 150.093 125.852 149.137 125.05C148.182 124.248 147.485 123.18 147.136 121.982C146.787 120.785 146.8 119.51 147.175 118.32C147.55 117.13 148.269 116.078 149.242 115.297C150.215 114.515 151.397 114.04 152.64 113.93C154.307 113.789 155.963 114.313 157.245 115.389C158.526 116.464 159.33 118.004 159.48 119.67V119.67Z" fill="#F1F0FE"/>
    <path d="M159.48 119.67C159.622 121.362 159.106 123.043 158.038 124.362C156.97 125.681 155.434 126.537 153.75 126.75C152.885 126.837 152.012 126.751 151.181 126.498C150.349 126.244 149.577 125.828 148.908 125.273C148.239 124.718 147.687 124.036 147.284 123.266C146.88 122.496 146.634 121.654 146.559 120.788C146.485 119.922 146.582 119.05 146.848 118.223C147.113 117.395 147.539 116.628 148.103 115.967C148.667 115.306 149.357 114.763 150.132 114.37C150.908 113.978 151.753 113.743 152.62 113.68C154.317 113.599 155.98 114.179 157.259 115.298C158.539 116.416 159.334 117.987 159.48 119.68V119.67ZM159.48 119.67C159.408 118.857 159.173 118.066 158.789 117.345C158.405 116.625 157.879 115.989 157.243 115.477C156.607 114.964 155.874 114.585 155.089 114.362C154.303 114.14 153.48 114.078 152.67 114.18C151.133 114.394 149.736 115.188 148.767 116.399C147.797 117.61 147.328 119.147 147.456 120.693C147.584 122.24 148.299 123.678 149.455 124.714C150.611 125.749 152.119 126.302 153.67 126.26C154.487 126.223 155.289 126.021 156.026 125.666C156.763 125.311 157.421 124.811 157.96 124.195C158.499 123.58 158.908 122.862 159.162 122.084C159.416 121.306 159.511 120.485 159.44 119.67H159.48Z" fill="#25314B"/>
    <path d="M288.56 59.2702C289.262 65.0323 288.437 70.8778 286.168 76.2207C283.899 81.5636 280.265 86.2163 275.632 89.7126C270.998 93.2089 265.527 95.4259 259.766 96.1416C254.006 96.8572 248.158 96.0463 242.81 93.7902C240.21 97.1857 236.861 99.9352 233.025 101.824C229.188 103.713 224.967 104.691 220.69 104.682C216.414 104.672 212.197 103.675 208.369 101.769C204.541 99.862 201.204 97.0975 198.62 93.6902C194.136 95.0302 189.345 94.9398 184.915 93.4315C180.484 91.9233 176.634 89.0721 173.898 85.2744C171.163 81.4767 169.679 76.9212 169.652 72.241C169.626 67.5609 171.058 62.9887 173.75 59.1602C168.861 52.9537 166.353 45.2038 166.678 37.3099C167.003 29.416 170.14 21.8985 175.523 16.1151C180.905 10.3317 188.179 6.66361 196.029 5.77328C203.879 4.88295 211.789 6.82907 218.33 11.2602C221.397 7.43784 225.421 4.49467 229.993 2.72915C234.565 0.963629 239.522 0.43856 244.362 1.2072C249.203 1.97583 253.754 4.01083 257.554 7.1058C261.354 10.2008 264.268 14.2456 266 18.8302C267.155 18.436 268.348 18.1645 269.56 18.0202C273.243 17.5732 276.976 18.2641 280.255 20C283.534 21.7359 286.204 24.4337 287.906 27.7312C289.607 31.0286 290.259 34.7677 289.774 38.4464C289.288 42.125 287.689 45.567 285.19 48.3102C286.959 51.7329 288.1 55.4449 288.56 59.2702Z" fill="#F1F0FE"/>
    <path d="M288.56 59.2702C288.89 62.1393 288.86 65.0386 288.47 67.9002C288.277 69.3335 287.993 70.7531 287.62 72.1502C287.44 72.8402 287.17 73.5202 286.95 74.2102C286.741 74.8944 286.484 75.5627 286.18 76.2102L285.29 78.2102C284.96 78.8602 284.58 79.4702 284.23 80.1002L283.7 81.0402C283.5 81.3502 283.28 81.6402 283.08 81.9402L281.83 83.7102L280.42 85.3502L279.71 86.1702L278.93 86.9302C278.41 87.4202 277.93 87.9302 277.36 88.4202L275.66 89.7702C275.38 89.9902 275.1 90.2302 274.8 90.4302L273.89 91.0202C273.28 91.4002 272.68 91.8202 272.06 92.1802C270.795 92.8817 269.49 93.5062 268.15 94.0502C267.47 94.3102 266.81 94.5902 266.15 94.8302L264.06 95.4202L263.06 95.7102L261.99 95.9002L259.85 96.2802C254.078 97.0102 248.215 96.2102 242.85 93.9602H243.06C239.117 99.1308 233.498 102.768 227.167 104.248C220.835 105.728 214.186 104.958 208.36 102.07C204.495 100.141 201.117 97.3613 198.48 93.9402L198.81 94.0502C197.685 94.3899 196.534 94.6407 195.37 94.8002C194.78 94.8802 194.19 94.9002 193.61 94.9502L192.73 95.0102H191.85C189.49 94.9937 187.148 94.5882 184.92 93.8102C180.419 92.2885 176.499 89.4099 173.7 85.5702C172.329 83.6449 171.248 81.5291 170.49 79.2902L170.01 77.5802C169.84 77.0202 169.79 76.4302 169.67 75.8502C169.454 74.6861 169.346 73.5043 169.35 72.3202C169.299 67.5513 170.744 62.8863 173.48 58.9802V59.5202C168.484 53.25 165.936 45.3785 166.31 37.3702C166.642 29.3666 169.835 21.7479 175.31 15.9002C180.757 10.0763 188.083 6.35851 196 5.4002C203.928 4.51929 211.91 6.50581 218.5 11.0002L218.09 11.0602C221.196 7.20663 225.269 4.24539 229.892 2.4782C234.516 0.711007 239.525 0.201018 244.41 1.0002C246.828 1.38754 249.183 2.10069 251.41 3.1202C252.525 3.62833 253.61 4.19925 254.66 4.8302C255.699 5.49421 256.701 6.21532 257.66 6.9902C259.554 8.54696 261.235 10.3457 262.66 12.3402C264.077 14.3451 265.239 16.5185 266.12 18.8102L265.93 18.7202C266.898 18.3977 267.892 18.1569 268.9 18.0002C269.894 17.8672 270.897 17.8004 271.9 17.8002C273.907 17.7866 275.9 18.125 277.79 18.8002C281.616 20.1209 284.885 22.6927 287.07 26.1002C289.264 29.4859 290.273 33.5035 289.94 37.5241C289.607 41.5447 287.951 45.3414 285.23 48.3202V48.3202C286.981 51.7438 288.108 55.4515 288.56 59.2702ZM288.56 59.2702C288.101 55.4319 286.96 51.7066 285.19 48.2702V48.2702C287.879 45.2989 289.507 41.5194 289.818 37.5238C290.13 33.5281 289.107 29.5422 286.91 26.1902C284.739 22.8315 281.497 20.3049 277.71 19.0202C275.842 18.354 273.873 18.0157 271.89 18.0202C270.903 18.0399 269.919 18.1134 268.94 18.2402C267.965 18.3952 267.005 18.6327 266.07 18.9502L265.93 19.0002L265.87 18.8602C264.988 16.5992 263.829 14.4561 262.42 12.4802C260.994 10.5155 259.313 8.74995 257.42 7.2302C256.481 6.46656 255.496 5.76187 254.47 5.12019C253.432 4.49527 252.356 3.93423 251.25 3.44019C249.044 2.44455 246.713 1.75484 244.32 1.3902C239.522 0.629868 234.609 1.15476 230.081 2.91139C225.552 4.66803 221.57 7.59364 218.54 11.3902L218.37 11.6102L218.13 11.4502C211.651 7.07145 203.817 5.16246 196.05 6.0702C188.303 7.02177 181.141 10.6805 175.83 16.4002C170.568 22.1347 167.508 29.5474 167.191 37.3236C166.874 45.0998 169.322 52.7369 174.1 58.8802L174.31 59.1502L174.12 59.4202C171.483 63.1722 170.085 67.6544 170.12 72.2402C170.11 73.3806 170.211 74.5192 170.42 75.6402C170.53 76.2002 170.58 76.7702 170.74 77.3202L171.19 78.9602C171.91 81.1293 172.945 83.1811 174.26 85.0502C176.954 88.7702 180.734 91.5648 185.08 93.0502C187.239 93.814 189.509 94.2194 191.8 94.2502H192.66L193.51 94.1902C194.08 94.1902 194.65 94.1402 195.22 94.0602C196.354 93.9119 197.475 93.671 198.57 93.3402L198.78 93.2802L198.91 93.4502C201.475 96.8095 204.767 99.5445 208.54 101.45C212.33 103.35 216.507 104.349 220.746 104.37C224.985 104.391 229.172 103.433 232.98 101.57C236.79 99.7014 240.119 96.9813 242.71 93.6202L242.8 93.5102L242.92 93.5602C248.219 95.834 254.023 96.6754 259.75 96.0002L261.87 95.6402L262.93 95.4602L263.93 95.1702L266.01 94.6002C266.69 94.3702 267.35 94.0902 268.01 93.8302C269.379 93.3094 270.712 92.6981 272 92.0002C272.62 91.6502 273.22 91.2402 273.83 90.8602L274.74 90.2802C275.04 90.0802 275.31 89.8402 275.59 89.6302L277.29 88.3002C277.83 87.8102 278.34 87.3002 278.86 86.8102L279.64 86.0702L280.35 85.2602L281.77 83.6202L283.02 81.8702C283.22 81.5702 283.45 81.2902 283.64 80.9802L284.18 80.0502C284.53 79.4202 284.91 78.8102 285.24 78.1702L286.14 76.1702C286.445 75.522 286.706 74.8538 286.92 74.1702C287.14 73.4902 287.41 72.8102 287.6 72.1202C287.971 70.7287 288.258 69.3161 288.46 67.8902C288.857 65.0326 288.891 62.1362 288.56 59.2702Z" fill="#25314B"/>
    <path d="M252.86 41.23C252.86 41.23 252.81 41.23 252.78 41.17H252.71C252.592 41.1289 252.472 41.0955 252.35 41.07C252.22 41.07 252.07 41.01 251.91 40.97L251.43 40.88H251.3H251.07H250.83L249.4 40.67H249.12H248.8H248.51H248.2H248.14H247.84L246.4 40.49L246 40.1L244.68 39.94L244.04 39.86H243.74L242.98 39.77L242.21 39.68H242.14L241.14 39.57L240.14 39.44H239.75L236.75 39H236.4L235.13 38.82H234.99H234.77H234.66H234.58C234.51 38.82 234.45 38.82 234.44 38.82C234.06 38.56 225.02 27.47 218.9 20.93C216.17 18.01 214.01 15.99 213.48 16.26C211.75 17.13 205.22 34.1 204.73 34.11C204.24 34.12 195.97 25.19 194.73 26.39C193.61 27.39 191.03 45.25 190.16 50.21C190.105 50.6367 190.014 51.0581 189.89 51.47L189.68 51.7L189.86 51.6C189.763 51.6398 189.675 51.6975 189.6 51.77V51.77L189.44 51.93C188.26 53.04 185.44 55.55 183.11 57.81C183.035 57.8715 182.965 57.9384 182.9 58.01L182.5 58.4C182.44 58.47 182.38 58.52 182.31 58.59C180.58 60.32 179.31 61.76 179.68 62.05C180.63 62.86 202.37 52.05 213.68 49.22C224.99 46.39 252.46 42 252.99 41.41L252.86 41.23ZM197.09 48.86C196.09 49.17 195.16 49.47 194.31 49.75C192.48 50.35 191.07 50.85 190.25 51.21C191.45 50.67 193.9 49.85 197.09 48.86C198.43 48.44 199.89 48.01 201.43 47.55L197.09 48.86ZM203.14 47.06C205.02 46.51 206.99 45.94 209.01 45.38C207 46 205 46.51 203.14 47.06V47.06Z" fill="#5F5AF6"/>
    <path opacity="0.1" d="M252.86 41.23C252.86 41.23 252.81 41.23 252.78 41.17H252.71C252.592 41.1289 252.472 41.0955 252.35 41.07C252.22 41.07 252.07 41.01 251.91 40.97L251.43 40.88H251.3H251.07H250.83L249.4 40.67H249.12H248.8H248.51H248.2H248.14H247.84L246.4 40.49L246 40.1L244.68 39.94L244.04 39.86H243.74L242.98 39.77L242.21 39.68H242.14L241.14 39.57L240.14 39.44H239.75L236.75 39H236.4L235.13 38.82H234.99H234.77H234.66H234.58C234.51 38.82 234.45 38.82 234.44 38.82C234.06 38.56 225.02 27.47 218.9 20.93C216.17 18.01 214.01 15.99 213.48 16.26C211.75 17.13 205.22 34.1 204.73 34.11C204.24 34.12 195.97 25.19 194.73 26.39C193.61 27.39 191.03 45.25 190.16 50.21C190.105 50.6367 190.014 51.0581 189.89 51.47L189.68 51.7L189.86 51.6C189.763 51.6398 189.675 51.6975 189.6 51.77V51.77L189.44 51.93C188.26 53.04 185.44 55.55 183.11 57.81C183.035 57.8715 182.965 57.9384 182.9 58.01L182.5 58.4C182.44 58.47 182.38 58.52 182.31 58.59C180.58 60.32 179.31 61.76 179.68 62.05C180.63 62.86 202.37 52.05 213.68 49.22C224.99 46.39 252.46 42 252.99 41.41L252.86 41.23ZM197.09 48.86C196.09 49.17 195.16 49.47 194.31 49.75C192.48 50.35 191.07 50.85 190.25 51.21C191.45 50.67 193.9 49.85 197.09 48.86C198.43 48.44 199.89 48.01 201.43 47.55L197.09 48.86ZM203.14 47.06C205.02 46.51 206.99 45.94 209.01 45.38C207 46 205 46.51 203.14 47.06V47.06Z" fill="black"/>
    <path d="M190.25 51.2104C191.45 50.6704 193.9 49.8504 197.09 48.8604C196.09 49.1704 195.16 49.4704 194.31 49.7504C192.48 50.3504 191.07 50.8504 190.25 51.2104Z" fill="#5F5AF6"/>
    <path d="M197.09 48.8603C198.43 48.4403 199.89 48.0103 201.43 47.5503L197.09 48.8603Z" fill="#5F5AF6"/>
    <path d="M209 45.3804C207 45.9504 205 46.5104 203.13 47.0604C205 46.5104 207 45.9404 209 45.3804Z" fill="#5F5AF6"/>
    <path d="M190.25 51.2104C191.45 50.6704 193.9 49.8504 197.09 48.8604C196.09 49.1704 195.16 49.4704 194.31 49.7504C192.48 50.3504 191.07 50.8504 190.25 51.2104Z" fill="#5F5AF6"/>
    <path d="M197.09 48.8603C198.43 48.4403 199.89 48.0103 201.43 47.5503L197.09 48.8603Z" fill="#5F5AF6"/>
    <path d="M209 45.3804C207 45.9504 205 46.5104 203.13 47.0604C205 46.5104 207 45.9404 209 45.3804Z" fill="#5F5AF6"/>
    <path d="M235.12 38.7802C225.92 40.5102 191.25 50.0202 189.51 51.6202C189.08 51.9302 188.98 46.1702 189.51 45.5402C189.971 45.1714 190.459 44.8372 190.97 44.5402C191.5 44.2202 192.16 43.8302 192.97 43.4002L193.44 43.1302C193.91 42.8802 194.44 42.6002 194.97 42.3202L195.47 42.0602C195.94 41.8102 196.47 41.5702 196.94 41.3102L197.4 41.0902C207.159 36.2656 217.623 33.0219 228.4 31.4802C229.4 31.3502 230.4 31.2402 231.4 31.1502C232.4 31.0602 236 38.5902 235.12 38.7802Z" fill="#25314B"/>
    <path d="M189 63.2801C189.36 63.3601 200.51 65.4401 201.47 66.0301C202.431 67.4059 203.303 68.8422 204.08 70.3301L204.6 71.2301L204.81 71.5901C208.67 78.3401 213.26 87.4601 216.5 88.6601C218.483 89.4371 220.635 89.6797 222.741 89.3638C224.846 89.048 226.832 88.1846 228.5 86.8601C230.2 85.4601 232.06 80.1201 233.22 75.8601L233.44 74.9801C233.55 74.5501 233.66 74.1301 233.75 73.7301C233.96 72.7301 234.13 71.9401 234.23 71.3101C234.309 70.9073 234.309 70.4929 234.23 70.0901C232.16 70.7575 230.04 71.259 227.89 71.5901H227.51H227.27C225.09 71.4301 220.04 68.7901 220.04 68.7901C220.04 68.7901 220.28 70.5901 220.48 72.6701C220.48 72.8401 220.48 73.0001 220.53 73.1701L220.59 73.8501C220.59 74.2601 220.65 74.6801 220.67 75.0801C220.77 76.8001 220.75 78.3001 220.45 78.6901C220.012 79.1617 219.424 79.4671 218.786 79.5546C218.148 79.6421 217.499 79.5062 216.95 79.1701C216.04 78.6001 212.45 73.5101 209.15 69.3101L208.95 69.0501L208.63 68.6401L207.99 67.8601C206.25 65.7201 204.69 64.0301 203.82 63.6901C201.13 62.6901 189.22 61.5901 188.82 62.0201C188.42 62.4501 188.61 63.2101 189 63.2801Z" fill="#5F5AF6"/>
    <path d="M220 68.7601C220 68.7601 225.35 71.5501 227.41 71.5701H227.47H227.85C230 71.2391 232.12 70.7375 234.19 70.0701C234.19 70.0701 234.19 70.0701 234.19 70.0701H234.12H234.04H233.97L233.75 69.9501L233.6 69.8701L232.89 69.5101L232.67 69.4001L231.78 68.9601L231.62 68.8801L231.48 68.8201L230.95 68.5601L230.41 68.3201L229.81 68.0501L229.3 67.8301L229.03 67.7201L228.78 67.6201L228.07 67.3701L227.67 67.2501H227.47C226.472 67.2005 225.473 67.3292 224.52 67.6301C224.1 67.7301 223.68 67.8501 223.27 67.9701L222.72 68.1301L222.42 68.2301L221.94 68.3801L221.7 68.4601L221.36 68.5701H221.25L221.07 68.6301L220.2 68.9301H220.15L220 68.7601Z" fill="#25314B"/>
    <path d="M189 63.2901C189.36 63.3601 200.51 65.4401 201.48 66.0301C202.435 67.4085 203.303 68.8445 204.08 70.3301C204.638 69.6783 205.261 69.0852 205.94 68.5601C206.26 68.4001 207.26 68.0701 208.01 67.8301C206.27 65.6901 204.71 64.0001 203.83 63.6601C201.15 62.6601 189.24 61.5601 188.83 62.0001C188.42 62.4401 188.61 63.2101 189 63.2901Z" fill="#25314B"/>
    <path d="M204.56 71.2304L204.77 71.5903C205.3 71.1103 206.53 70.0004 206.7 69.9104C206.87 69.8204 208.14 69.3103 208.93 69.0203C208.82 68.8803 208.71 68.7504 208.61 68.6104C207.838 68.8208 207.082 69.0882 206.35 69.4104C206.08 69.6104 205.06 70.6904 204.56 71.2304Z" fill="#25314B"/>
    <path d="M220.46 72.6403L221.32 73.0303C223.001 73.8275 224.765 74.4379 226.58 74.8503C228.24 75.0503 232.04 74.1203 233.69 73.6903C233.9 72.6903 234.07 71.9002 234.17 71.2702C234.25 70.8709 234.25 70.4596 234.17 70.0602C231.982 70.7714 229.732 71.277 227.45 71.5703C225.45 71.5703 219.98 68.7603 219.98 68.7603C219.98 68.7603 220.26 70.5703 220.46 72.6403Z" fill="#334366"/>
    <path d="M220.65 75.0503C221.95 75.6603 225.19 77.0503 226.76 77.2103C228.33 77.3703 231.87 76.2103 233.15 75.8203C233.23 75.5303 233.31 75.2303 233.38 74.9403C231.98 75.3503 228.38 76.3303 226.75 76.1403C224.611 75.5973 222.538 74.8192 220.57 73.8203C220.6 74.2303 220.63 74.6503 220.65 75.0503Z" fill="#334366"/>
    <path d="M220 68.76C220 68.76 225.35 71.55 227.41 71.57H227.47H227.85C230 71.239 232.12 70.7374 234.19 70.07C234.19 70.07 234.19 70.07 234.19 70.07H234.12H234.04H233.97L233.75 69.95L233.6 69.87L232.89 69.51L232.67 69.4L231.78 68.96L231.62 68.88L231.48 68.82L230.95 68.56L230.41 68.32L229.81 68.05L229.3 67.83L229.03 67.72L228.78 67.62L228.07 67.37L227.67 67.25H227.49C227.4 67.4544 227.336 67.6695 227.3 67.89C229.055 68.4883 230.763 69.217 232.41 70.07C230.845 70.4566 229.259 70.7504 227.66 70.95C227.577 70.9575 227.493 70.9575 227.41 70.95C227.138 70.9251 226.87 70.8714 226.61 70.79C225.021 70.3384 223.473 69.7565 221.98 69.05C222.881 68.651 223.828 68.3655 224.8 68.2C224.7 68 224.6 67.8 224.52 67.6C224.1 67.7 223.68 67.82 223.27 67.94L222.72 68.1L222.42 68.2L221.94 68.35L221.7 68.43L221.36 68.54H221.25L221.07 68.6L220.2 68.9H220.15L220 68.76Z" fill="#222D44"/>
    <path d="M224.44 67.38C224.52 67.58 224.62 67.78 224.72 67.98C225.229 68.9056 225.836 69.7739 226.53 70.57C226.79 70.6514 227.058 70.7051 227.33 70.73H227.58C227.235 69.7458 227.112 68.6973 227.22 67.66C227.255 67.438 227.322 67.2223 227.42 67.02C227.548 66.7279 227.756 66.4782 228.02 66.3C229.53 65.4568 231.13 64.7859 232.79 64.3C235.62 63.21 238.23 61.56 239.11 58.48C241.01 51.8 233.33 47.07 228.36 44.48C228.29 44.48 228.25 44.55 228.3 44.6C230.95 47.1 234.22 50.27 233.25 54.32C232.59 57.1 229.81 58.44 227.66 59.93C225.66 61.31 223.98 63.1 224.04 65.67C224.059 66.2608 224.195 66.842 224.44 67.38V67.38Z" fill="#EBEBEB"/>
    <g opacity="0.2">
        <path opacity="0.2" d="M259.92 39.8602C261.397 41.8285 262.257 44.1907 262.391 46.6477C262.525 49.1048 261.927 51.5465 260.673 53.6639C259.42 55.7813 257.566 57.4793 255.347 58.5432C253.128 59.607 250.644 59.9889 248.208 59.6405C245.772 59.2921 243.494 58.2291 241.662 56.5859C239.831 54.9427 238.527 52.7932 237.917 50.4093C237.307 48.0253 237.418 45.514 238.236 43.1931C239.053 40.8721 240.541 38.8457 242.51 37.3702C245.149 35.3927 248.466 34.5442 251.73 35.0111C254.995 35.478 257.941 37.2222 259.92 39.8602V39.8602Z" fill="#F1F0FE"/>
        <path opacity="0.2" d="M261.62 43.0005C262.779 46.0738 262.676 49.4809 261.333 52.4783C259.99 55.4758 257.515 57.8204 254.45 59.0005L261.62 43.0005Z" fill="#EBEBEB"/>
        <path opacity="0.2" d="M251.88 35.0003L242.06 56.8903C241.31 56.2599 240.638 55.5414 240.06 54.7503C239.371 53.8351 238.818 52.8245 238.42 51.7503L245.66 35.5903C247.65 34.872 249.79 34.6691 251.88 35.0003V35.0003Z" fill="#EBEBEB"/>
        <path opacity="0.2" d="M259.13 38.9103L249.78 59.7603C248.963 59.7473 248.149 59.6535 247.35 59.4803L257.35 37.2803C257.996 37.7631 258.592 38.3092 259.13 38.9103V38.9103Z" fill="#EBEBEB"/>
        <path opacity="0.2" d="M253.54 35.4105L243.44 57.9105L243.06 57.6705L253.06 35.2905C253.222 35.3195 253.383 35.3596 253.54 35.4105V35.4105Z" fill="#EBEBEB"/>
        <path opacity="0.2" d="M242 37.7603L237.52 47.7603C237.52 47.3903 237.52 47.0203 237.52 46.6403L241.17 38.5202C241.432 38.2509 241.709 37.9972 242 37.7603V37.7603Z" fill="#EBEBEB"/>
    </g>
    <path d="M259.087 56.9043L256.622 58.7515L263.417 67.8178L265.882 65.9707L259.087 56.9043Z" fill="#222D44"/>
    <path d="M264.134 63.8333L261.829 65.5601C261.435 65.8548 261.355 66.4126 261.65 66.806L268.114 75.4334C268.408 75.8268 268.966 75.9068 269.36 75.612L271.664 73.8852C272.058 73.5905 272.138 73.0327 271.843 72.6393L265.38 64.012C265.085 63.6186 264.527 63.5386 264.134 63.8333Z" fill="#25314B"/>
    <path d="M250 32.6104C247.091 32.6104 244.247 33.4731 241.828 35.0894C239.409 36.7058 237.523 39.0032 236.41 41.6911C235.296 44.379 235.005 47.3367 235.573 50.1901C236.14 53.0436 237.541 55.6647 239.598 57.7219C241.656 59.7791 244.277 61.1801 247.13 61.7477C249.984 62.3153 252.941 62.024 255.629 60.9106C258.317 59.7973 260.615 57.9118 262.231 55.4928C263.847 53.0737 264.71 50.2297 264.71 47.3204C264.705 43.4206 263.153 39.6822 260.396 36.9247C257.638 34.1671 253.9 32.6156 250 32.6104V32.6104ZM250 59.0903C247.672 59.0903 245.396 58.4001 243.461 57.1068C241.525 55.8134 240.017 53.9752 239.126 51.8245C238.235 49.6738 238.002 47.3073 238.456 45.0241C238.91 42.741 240.031 40.6438 241.677 38.9977C243.323 37.3516 245.421 36.2307 247.704 35.7765C249.987 35.3224 252.353 35.5554 254.504 36.4463C256.655 37.3371 258.493 38.8457 259.786 40.7813C261.08 42.7169 261.77 44.9925 261.77 47.3204C261.767 50.4411 260.526 53.4333 258.32 55.6401C256.113 57.8468 253.121 59.0877 250 59.0903Z" fill="#25314B"/>
</svg>
